<svg id="Grupo_82689" data-name="Grupo 82689" xmlns="http://www.w3.org/2000/svg" xmlns:xlink="http://www.w3.org/1999/xlink" width="134.793" height="155.342" viewBox="0 0 134.793 155.342">
  <defs>
    <clipPath id="clip-path">
      <rect id="Rectángulo_35467" data-name="Rectángulo 35467" width="134.793" height="155.342" fill="none"/>
    </clipPath>
  </defs>
  <g id="Grupo_82688" data-name="Grupo 82688" clip-path="url(#clip-path)">
    <path id="Trazado_166582" data-name="Trazado 166582" d="M52.647,1.5A100.4,100.4,0,0,1,67.419,0c27.8.061,52.059,16.028,62.439,41.379A65.6,65.6,0,0,1,132.48,83.7c-.153.589-.264,1.188-.4,1.785a69.818,69.818,0,0,1-11.457,22.022,66.163,66.163,0,0,1-29.481,21.432,2.3,2.3,0,0,0-1.793,2.623c.089,7.3.011,14.6.066,21.895.01,1.343-.19,1.9-1.76,1.887q-20.33-.108-40.66-.012c-1.289,0-1.638-.328-1.627-1.622.063-7.482,0-14.965.061-22.447a1.955,1.955,0,0,0-1.514-2.215C21.406,120.17,6.581,104.226,1.614,80.412-3.633,55.255,4.013,33.833,23.026,16.6A64.4,64.4,0,0,1,51.252,1.938c.472-.118.93-.292,1.394-.439M83.478,125.822c.137-.717.8-.679,1.284-.853,1.611-.579,3.257-1.065,4.857-1.67,39.065-14.766,51.938-63.646,25.215-95.718C95.546,4.432,60.419-1.046,34.845,15.107,12.26,29.373,1.38,54.665,7.573,80.439,12.994,103,27.58,117.466,49.44,124.794c.693.232,1.664.07,1.894,1.117-.022,7.466-.024,14.932-.091,22.4-.009,1.033.371,1.178,1.27,1.175q14.873-.041,29.747.012c1.2.006,1.392-.411,1.382-1.475-.051-4.958-.008-9.916-.029-14.874-.01-2.442-.088-4.883-.135-7.325" transform="translate(0 0)" fill="#040403"/>
    <path id="Trazado_166583" data-name="Trazado 166583" d="M57.383,131.946c-.231-1.046-1.2-.884-1.894-1.117C33.628,123.5,19.043,109.035,13.622,86.473,7.429,60.7,18.309,35.407,40.894,21.142c25.574-16.153,60.7-10.675,79.989,12.473,26.723,32.073,13.851,80.952-25.214,95.718-1.6.6-3.246,1.091-4.858,1.67-.482.174-1.147.136-1.284.853l-5.819.168-20.485,0-5.84-.075m-22.49-39.38-.009-.021a4.3,4.3,0,0,0,1,2.318,45.657,45.657,0,0,0,8.841,10.418c10.743,9.045,23.059,12.476,36.791,10,11.964-2.159,21.361-8.66,28.354-18.583.93-1.319,2.06-2.6,2.268-4.323a20.589,20.589,0,0,0,6.487-11.619,21.78,21.78,0,0,0-1.335-10.781A25.577,25.577,0,0,0,117,65.784a42.469,42.469,0,0,0-15.95-28.159,42.69,42.69,0,0,0-31.764-9.511A42.966,42.966,0,0,0,43.92,39.245C34.674,47.6,30.048,58.239,29.362,70.635Q25.214,82.969,34.485,92.1l.408.466m8.828-60.624c-.22-.312-.388-.561-.567-.8-.69-.936-1.427-1.839-2.061-2.81-.6-.924-1.071-1-2-.269A56.786,56.786,0,0,0,25.213,44.028c-1.705,2.886-1.7,2.888,1.366,4.425a10.473,10.473,0,0,1,1.128.606c.922.614,1.427.378,1.949-.613a48.008,48.008,0,0,1,13.1-15.621c.325-.253.61-.557.962-.882M118.4,94.418c-.857.018-.916.685-1.156,1.127a52.861,52.861,0,0,1-10.893,13.739c-1.019.936-3.056,1.481-2.787,2.97.243,1.348,1.716,2.457,2.579,3.718.456.666.838.508,1.336.115A56.621,56.621,0,0,0,122.8,97.8c.151-.288.594-.728.186-.963-1.528-.878-3.115-1.653-4.588-2.42" transform="translate(-6.049 -6.035)" fill="#fdba01"/>
    <path id="Trazado_166584" data-name="Trazado 166584" d="M130.6,255.971l5.819-.168c.047,2.441.124,4.882.134,7.324.021,4.958-.022,9.917.029,14.875.011,1.063-.178,1.482-1.382,1.475q-14.873-.079-29.747-.012c-.9,0-1.279-.142-1.27-1.175.067-7.466.069-14.932.091-22.4l5.84.075c-.008,1.592.012,3.186-.038,4.777-.023.74.116,1.085.982,1.08q9.28-.054,18.561,0c.818,0,1.055-.285,1.026-1.07-.059-1.591-.035-3.185-.046-4.778m-10.2,11.7h-6.06c-4.306,0-4.261,0-4.278,4.391,0,1.184.286,1.535,1.5,1.516,4.9-.073,9.794-.03,14.692-.03,4.578,0,4.543,0,4.406-4.681-.029-.99-.332-1.23-1.263-1.215-3,.05-6,.019-9,.019" transform="translate(-52.937 -129.981)" fill="#fdfefe"/>
    <path id="Trazado_166585" data-name="Trazado 166585" d="M134,100.183a21.782,21.782,0,0,1,1.336,10.781,20.589,20.589,0,0,1-6.487,11.62c-4.446,3.52-9.553,4.575-15.138,4.528-15.087-.129-30.177-.151-45.264.008-6.085.064-11.84-.551-16.849-4.364l.009.021c.013-.286-.188-.384-.408-.466q-9.282-9.128-5.122-21.465c1.969-4.046,4.523-7.731,8.706-9.571,2.722-1.2,3.767-2.768,4.489-5.639A18.922,18.922,0,0,1,89.239,75.292c.652.491,1.1.872,2.072.429,12.774-5.833,25.892-.244,30.54,12.967.19.541.328,1.048.933,1.253,5.234,1.776,8.647,5.545,11.212,10.242m-30.473,21.074c.245,0,.491.007.736,0,4.9-.156,9.823.436,14.691-.329a13.135,13.135,0,0,0,10.61-10.837A13.437,13.437,0,0,0,122.3,96.038c-1.328-.645-1.535-.244-1.474,1.011.071,1.468.045,2.944-.009,4.415a8.192,8.192,0,0,1-6.608,7.772c-2.311.487-4.647.159-6.969.265-.778.035-.853-.408-.912-1.034-.455-4.829-.465-4.828,4.27-4.829.307,0,.613,0,.92,0,2.759-.013,3.592-.831,3.607-3.641.021-3.742-.013-7.483.019-11.224a4,4,0,0,0-.666-2.236A16.016,16.016,0,0,0,92.965,81.4a2.321,2.321,0,0,0-1.354,2.327c.092,2.266.027,4.538.027,6.807,0,4.4,0,4.353-4.437,4.324-1.126-.007-1.46-.292-1.44-1.436.07-3.985-.019-7.974.056-11.959A2.4,2.4,0,0,0,84.5,79.1a13.234,13.234,0,0,0-19.706,8.143c-.335,1.376-.167,1.733,1.336,1.758a10.651,10.651,0,0,1,10.663,9.066,41.828,41.828,0,0,1,.168,7.161c.037,4.4.011,4.351-4.447,4.3-1.157-.014-1.458-.368-1.431-1.475.069-2.819.075-5.643,0-8.463a4.689,4.689,0,0,0-4.108-4.7,21.9,21.9,0,0,0-5.685.059A13.371,13.371,0,0,0,50.55,108.078c.109,6.376,4.763,12.054,11,12.843,6.764.855,13.594.169,20.394.34.953.024.9-.573.9-1.21,0-1.718-.043-3.436.015-5.152a11.663,11.663,0,0,1,9.047-10.925c2.656-.6,2.656-.6,2.657,2.024,0,.736-.045,1.476.011,2.207.07.9-.229,1.21-1.173,1.4a5.7,5.7,0,0,0-4.69,5.761c-.03,1.41.1,2.831-.037,4.229-.141,1.467.477,1.708,1.781,1.686,4.353-.075,8.708-.029,13.063-.029" transform="translate(-22.758 -36.246)" fill="#040403"/>
    <path id="Trazado_166586" data-name="Trazado 166586" d="M135.321,86.519c-2.565-4.7-5.978-8.467-11.212-10.242-.6-.205-.742-.713-.933-1.254-4.649-13.211-17.766-18.8-30.54-12.967-.969.443-1.42.063-2.072-.428A18.922,18.922,0,0,0,60.593,71.972c-.722,2.871-1.767,4.44-4.489,5.638-4.182,1.841-6.736,5.526-8.706,9.571.685-12.4,5.311-23.038,14.557-31.389A42.969,42.969,0,0,1,87.319,44.66a42.693,42.693,0,0,1,31.764,9.511,42.473,42.473,0,0,1,15.951,28.159,25.572,25.572,0,0,1,.287,4.188" transform="translate(-24.084 -22.582)" fill="#fde346"/>
    <path id="Trazado_166587" data-name="Trazado 166587" d="M58.624,175.7c5.008,3.813,10.764,4.428,16.849,4.364q22.63-.239,45.264-.008c5.586.048,10.692-1.008,15.138-4.527-.208,1.725-1.339,3-2.268,4.323-6.993,9.923-16.391,16.424-28.354,18.583-13.732,2.478-26.048-.954-36.791-10a45.632,45.632,0,0,1-8.841-10.418,4.308,4.308,0,0,1-1-2.318" transform="translate(-29.788 -89.192)" fill="#fde346"/>
    <path id="Trazado_166588" data-name="Trazado 166588" d="M56.289,48.152c-.352.325-.637.629-.962.882a48,48,0,0,0-13.1,15.621c-.522.991-1.028,1.228-1.95.613a10.471,10.471,0,0,0-1.128-.606c-3.065-1.537-3.072-1.539-1.366-4.425A56.788,56.788,0,0,1,51.662,44.27c.928-.729,1.4-.655,2,.269.634.971,1.371,1.875,2.061,2.81.178.242.346.49.566.8" transform="translate(-18.616 -22.245)" fill="#fdfefe"/>
    <path id="Trazado_166589" data-name="Trazado 166589" d="M213.057,179.687c1.473.766,3.06,1.542,4.588,2.42.407.234-.035.674-.186.963a56.62,56.62,0,0,1-15.322,18.288c-.5.393-.879.551-1.336-.115-.863-1.261-2.336-2.37-2.579-3.718-.269-1.489,1.768-2.034,2.787-2.97A52.861,52.861,0,0,0,211.9,180.814c.24-.442.3-1.109,1.156-1.127" transform="translate(-100.709 -91.304)" fill="#fdfefe"/>
    <path id="Trazado_166590" data-name="Trazado 166590" d="M136.682,256.139c.01,1.593-.013,3.186.046,4.777.029.785-.208,1.074-1.026,1.07q-9.28-.039-18.561,0c-.866,0-1-.339-.982-1.079.05-1.591.03-3.185.038-4.778l20.485,0" transform="translate(-59.023 -130.149)" fill="#040403"/>
    <path id="Trazado_166591" data-name="Trazado 166591" d="M57.813,174.973c.22.082.421.181.408.466l-.408-.466" transform="translate(-29.376 -88.909)" fill="#fde346"/>
    <path id="Trazado_166592" data-name="Trazado 166592" d="M126.465,279.917c3,0,6,.032,9-.019.932-.015,1.234.225,1.263,1.215.137,4.682.173,4.681-4.406,4.681-4.9,0-9.8-.043-14.692.031-1.217.018-1.508-.332-1.5-1.516.018-4.391-.028-4.391,4.278-4.391h6.06" transform="translate(-59.007 -142.224)" fill="#040403"/>
    <path id="Trazado_166593" data-name="Trazado 166593" d="M109.472,127.281c-4.355,0-8.71-.046-13.063.029-1.3.023-1.922-.219-1.781-1.686.134-1.4.006-2.819.037-4.229a5.706,5.706,0,0,1,4.69-5.761c.944-.194,1.243-.509,1.173-1.4-.057-.732-.011-1.471-.011-2.208,0-2.622,0-2.622-2.657-2.024a11.663,11.663,0,0,0-9.047,10.925c-.058,1.716-.019,3.435-.015,5.152,0,.637.051,1.235-.9,1.21-6.8-.171-13.63.515-20.394-.34-6.241-.788-10.894-6.467-11-12.843A13.371,13.371,0,0,1,67.244,100.98a21.854,21.854,0,0,1,5.685-.059,4.689,4.689,0,0,1,4.108,4.7c.071,2.82.064,5.644,0,8.463-.027,1.108.273,1.462,1.431,1.476,4.458.053,4.484.1,4.447-4.3a41.833,41.833,0,0,0-.168-7.162,10.651,10.651,0,0,0-10.663-9.066c-1.5-.025-1.671-.383-1.336-1.758A13.233,13.233,0,0,1,90.449,85.13a2.4,2.4,0,0,1,1.317,2.354c-.075,3.985.014,7.974-.056,11.959-.02,1.144.314,1.429,1.44,1.436,4.438.029,4.437.071,4.437-4.324,0-2.27.065-4.541-.027-6.807a2.322,2.322,0,0,1,1.354-2.327,16.017,16.017,0,0,1,21.519,5.14A4.006,4.006,0,0,1,121.1,94.8c-.032,3.741,0,7.482-.019,11.224-.016,2.811-.848,3.629-3.607,3.641h-.92c-4.735,0-4.725,0-4.27,4.829.059.627.134,1.07.912,1.035,2.322-.106,4.658.221,6.969-.265a8.192,8.192,0,0,0,6.608-7.773c.055-1.47.081-2.946.009-4.414-.061-1.256.146-1.657,1.474-1.011a13.437,13.437,0,0,1,7.254,14.051,13.136,13.136,0,0,1-10.61,10.837c-4.868.764-9.794.173-14.691.329-.245.008-.49,0-.736,0" transform="translate(-28.708 -42.27)" fill="#26ccda"/>
  </g>
</svg>
