<svg xmlns="http://www.w3.org/2000/svg" xmlns:xlink="http://www.w3.org/1999/xlink" width="209.468" height="229.854" viewBox="0 0 209.468 229.854">
  <defs>
    <linearGradient id="linear-gradient" x1="5.005" y1="-8.632" x2="6.196" y2="-8.039" gradientUnits="objectBoundingBox">
      <stop offset="0" stop-color="#fff"/>
      <stop offset="0.368" stop-color="#fbfbfb"/>
      <stop offset="0.695" stop-color="#f0f0f0"/>
      <stop offset="1" stop-color="#dfdfdf"/>
    </linearGradient>
    <linearGradient id="linear-gradient-2" x1="5.399" y1="-9.214" x2="6.682" y2="-8.589" gradientUnits="objectBoundingBox">
      <stop offset="0" stop-color="#dfdfdf"/>
      <stop offset="0.305" stop-color="#f0f0f0"/>
      <stop offset="0.632" stop-color="#fbfbfb"/>
      <stop offset="1" stop-color="#fff"/>
    </linearGradient>
  </defs>
  <g id="Grupo_120367" data-name="Grupo 120367" transform="translate(-314.22 -2785.591)">
    <g id="Grupo_120261" data-name="Grupo 120261" transform="translate(-6.666 1301.166)">
      <path id="Trazado_181092" data-name="Trazado 181092" d="M-1913.284,1776.267a384.152,384.152,0,0,1-209.468,67.547V1642.546a185.348,185.348,0,0,0,91.319-28.585Z" transform="translate(2443.638 -129.536)" fill="#fdd835"/>
      <path id="Trazado_181102" data-name="Trazado 181102" d="M-1914.674,1791.931a374.359,374.359,0,0,1-183.471,59.149v-180.13a197.229,197.229,0,0,0,77.676-24.356Z" transform="translate(2429.761 -147.939)" fill="url(#linear-gradient)"/>
      <path id="Trazado_181103" data-name="Trazado 181103" d="M-1915.443,1799.469a370.368,370.368,0,0,1-170.4,54.928V1684.774a204.305,204.305,0,0,0,70.747-22.2Z" transform="translate(2422.822 -156.951)" fill="url(#linear-gradient-2)"/>
    </g>
    <g id="XMLID_1527_" transform="translate(349.553 2852.782)">
      <g id="XMLID_1550_" transform="translate(0 20.224)">
        <g id="XMLID_98_" transform="translate(0 0)">
          <path id="XMLID_99_" d="M3.323,127.539A26.62,26.62,0,0,1,6.747,114.35a1.661,1.661,0,1,0-2.9-1.627A30.317,30.317,0,0,0,0,127.539a42.143,42.143,0,0,0,4.233,18.147,25.216,25.216,0,0,1,2,17.1l-2.45,10.159a1.662,1.662,0,1,0,3.231.779l2.45-10.159a28.544,28.544,0,0,0-2.257-19.357,38.7,38.7,0,0,1-3.886-16.668Z" transform="translate(0 -96.648)" fill="#ffa726"/>
          <path id="XMLID_111_" d="M154.175,65.828,115.511,45.7l38.664-20.125a1.661,1.661,0,1,0-1.534-2.947L128.265,35.318A30.89,30.89,0,0,0,101.9,20.224a32.749,32.749,0,0,0-17.159,4.81,1.661,1.661,0,0,0,1.739,2.831,29.43,29.43,0,0,1,15.42-4.318,27.562,27.562,0,0,1,23.41,13.309L113.084,43.22a12.9,12.9,0,0,0-25.627,1.84c0,.009,0,.019,0,.028V60.31A1.661,1.661,0,0,0,88.65,61.9l14.1,4.142a1.662,1.662,0,0,0,2.13-1.594v-4.1h2.184a4.95,4.95,0,0,0,4.944-4.944v-1.56h1.7A1.662,1.662,0,0,0,115.3,51.7l-.865-2.818,16.843,8.767,3.259,10.612h-6.656a1.662,1.662,0,0,0-1.661,1.661v8.53a7.039,7.039,0,0,1-7.031,7.031H109a1.662,1.662,0,0,0-1.637,1.376l-1.7,9.76a1.661,1.661,0,1,0,3.273.571l1.464-8.384h8.786a10.365,10.365,0,0,0,10.354-10.354V71.589h7.243a1.662,1.662,0,0,0,1.588-2.149l-2.958-9.632,17.23,8.968a1.661,1.661,0,1,0,1.534-2.947Zm-43.83-15.3a1.662,1.662,0,0,0-1.661,1.661v3.221a1.623,1.623,0,0,1-1.621,1.621h-3.845a1.662,1.662,0,0,0-1.661,1.661v3.537L90.78,59.067V45.1a9.574,9.574,0,0,1,19.145.181,1.663,1.663,0,0,0,.073.488l1.462,4.759h-1.114Z" transform="translate(-70.002 -20.224)" fill="#ffa726"/>
        </g>
      </g>
      <g id="XMLID_1529_" transform="translate(8.113 29.461)">
        <g id="XMLID_1531_">
          <path id="XMLID_122_" d="M50.491,79.145a1.662,1.662,0,1,1,1.175-.487A1.671,1.671,0,0,1,50.491,79.145Z" transform="translate(-48.83 -75.82)" fill="#ffa726"/>
        </g>
      </g>
    </g>
  </g>
</svg>
