<svg xmlns="http://www.w3.org/2000/svg" xmlns:xlink="http://www.w3.org/1999/xlink" width="248.707" height="239.417" viewBox="0 0 248.707 239.417">
  <defs>
    <linearGradient id="linear-gradient" x1="5.763" y1="-5.313" x2="6.752" y2="-4.946" gradientUnits="objectBoundingBox">
      <stop offset="0" stop-color="#fff"/>
      <stop offset="0.368" stop-color="#fbfbfb"/>
      <stop offset="0.695" stop-color="#f0f0f0"/>
      <stop offset="1" stop-color="#dfdfdf"/>
    </linearGradient>
  </defs>
  <g id="Grupo_120360" data-name="Grupo 120360" transform="translate(-421.785 -348.633)">
    <g id="Grupo_120232" data-name="Grupo 120232" transform="translate(-6.666 -668.834)">
      <path id="Trazado_181094" data-name="Trazado 181094" d="M-1818.384,782.5a188.847,188.847,0,0,0-57.689-77.257l118.054-162.161a392.7,392.7,0,0,1,77.948,79.084,384.533,384.533,0,0,1,52.705,98.414Z" transform="translate(2304.524 474.381)" fill="#26ccda"/>
      <path id="Trazado_181100" data-name="Trazado 181100" d="M-1793.549,789.082a199.117,199.117,0,0,0-49.093-65.832l105.6-145.06a382.223,382.223,0,0,1,67.19,70.153,374.732,374.732,0,0,1,47.329,85.3Z" transform="translate(2285.671 454.584)" fill="url(#linear-gradient)"/>
      <path id="Trazado_181101" data-name="Trazado 181101" d="M-1781.446,792.556a206.193,206.193,0,0,0-44.734-60.023l99.418-136.561a377.117,377.117,0,0,1,61.883,65.588,370.066,370.066,0,0,1,44.517,78.779Z" transform="translate(2276.387 444.557)" fill="#f6f6f6"/>
    </g>
    <g id="bombilla" transform="translate(491.502 426.111)">
      <g id="Grupo_56520" data-name="Grupo 56520" transform="translate(6.963 0)">
        <path id="Trazado_103849" data-name="Trazado 103849" d="M223.445,460.583v2.349a5.63,5.63,0,0,1-.033.613,5.529,5.529,0,0,1-5.494,4.913h-8.474a5.529,5.529,0,0,1-5.494-4.913,5.63,5.63,0,0,1-.033-.613v-2.349a5.868,5.868,0,0,0,2.395.507H221.05A5.868,5.868,0,0,0,223.445,460.583Z" transform="translate(-167.633 -375.732)" fill="#50758d"/>
        <g id="Grupo_56519" data-name="Grupo 56519" transform="translate(0)">
          <path id="Trazado_103850" data-name="Trazado 103850" d="M249.3,12.078a1.381,1.381,0,0,1-1.382-1.382V1.382a1.382,1.382,0,1,1,2.763,0V10.7A1.382,1.382,0,0,1,249.3,12.078Z" transform="translate(-203.527 0)" fill="#ffe7c9"/>
          <path id="Trazado_103851" data-name="Trazado 103851" d="M85.5,79.924a1.378,1.378,0,0,1-.977-.4l-6.587-6.587A1.382,1.382,0,0,1,79.9,70.979l6.587,6.587a1.382,1.382,0,0,1-.977,2.359Z" transform="translate(-64.535 -57.572)" fill="#ffe7c9"/>
          <path id="Trazado_103852" data-name="Trazado 103852" d="M17.66,243.716H8.345a1.382,1.382,0,0,1,0-2.763H17.66a1.382,1.382,0,0,1,0,2.763Z" transform="translate(-6.963 -196.563)" fill="#ffe7c9"/>
          <path id="Trazado_103853" data-name="Trazado 103853" d="M78.918,384.93a1.382,1.382,0,0,1-.977-2.359l6.587-6.587a1.382,1.382,0,1,1,1.954,1.954L79.9,384.525A1.378,1.378,0,0,1,78.918,384.93Z" transform="translate(-64.535 -306.389)" fill="#ffe7c9"/>
          <path id="Trazado_103854" data-name="Trazado 103854" d="M390.51,384.93a1.378,1.378,0,0,1-.977-.4l-6.587-6.587a1.382,1.382,0,1,1,1.954-1.954l6.587,6.587a1.382,1.382,0,0,1-.977,2.359Z" transform="translate(-313.35 -306.389)" fill="#ffe7c9"/>
          <path id="Trazado_103855" data-name="Trazado 103855" d="M449,243.716h-9.315a1.382,1.382,0,0,1,0-2.763H449a1.382,1.382,0,0,1,0,2.763Z" transform="translate(-358.843 -196.563)" fill="#ffe7c9"/>
          <path id="Trazado_103856" data-name="Trazado 103856" d="M383.923,79.924a1.382,1.382,0,0,1-.977-2.359l6.587-6.587a1.382,1.382,0,0,1,1.954,1.954L384.9,79.52A1.378,1.378,0,0,1,383.923,79.924Z" transform="translate(-313.35 -57.572)" fill="#ffe7c9"/>
        </g>
        <path id="Trazado_103857" data-name="Trazado 103857" d="M213.681,453.333s-9.033,1.662-9.764,1.336v2.349a5.631,5.631,0,0,0,.033.613,5.529,5.529,0,0,0,5.494,4.913h2.395a5.53,5.53,0,0,1-5.21-3.677.555.555,0,0,1,.52-.744h13.9a5.865,5.865,0,0,0,2.362-.492,5.631,5.631,0,0,0,.033-.613v-2.349C222.714,454.995,213.681,453.333,213.681,453.333Z" transform="translate(-167.633 -369.818)" fill="#2b597f"/>
        <path id="Trazado_103858" data-name="Trazado 103858" d="M210.989,384.018a5.89,5.89,0,0,1-5.9,5.9H190.355a5.89,5.89,0,0,1-5.9-5.9s-.087-8.611-.1-8.835v-.007l13.367-1.842,13.214,1.842Z" transform="translate(-151.677 -304.556)" fill="#50758d"/>
        <path id="Trazado_103859" data-name="Trazado 103859" d="M194.961,398.071h-4.606a5.89,5.89,0,0,1-5.9-5.9s-.087-8.611-.1-8.835v-.007h4.606v.007c.017.225.1,8.835.1,8.835a5.89,5.89,0,0,0,5.9,5.9Z" transform="translate(-151.677 -312.713)" fill="#2b597f"/>
        <path id="Trazado_103860" data-name="Trazado 103860" d="M302,418.6h-4.7a1.382,1.382,0,1,1,0-2.763h4.683l.007,1.382Z" transform="translate(-242.684 -339.226)" fill="#2b597f"/>
        <path id="Trazado_103861" data-name="Trazado 103861" d="M201.535,417.215a1.382,1.382,0,0,1-1.382,1.382H184.768l-.031-2.763h15.416A1.382,1.382,0,0,1,201.535,417.215Z" transform="translate(-151.986 -339.226)" fill="#2b597f"/>
        <path id="Trazado_103862" data-name="Trazado 103862" d="M140.676,90.488h0c-14.228-.219-26.193,12.182-25.937,26.306a26.426,26.426,0,0,0,7.478,18.487c2.725,2.8,5.083,5.392,5.344,9.154l26.582.044c.149-3.872,2.351-6.488,5.094-9.353a26.423,26.423,0,0,0,7.328-18.332A26.111,26.111,0,0,0,140.676,90.488Z" transform="translate(-94.881 -73.815)" fill="#fdd835"/>
        <path id="Trazado_103863" data-name="Trazado 103863" d="M154.142,144.474v.007l-26.582-.044c-.262-3.762-2.62-6.352-5.344-9.154a26.426,26.426,0,0,1-7.478-18.487c-.256-14.125,11.709-26.525,25.937-26.306.718,0,1.43.031,2.133.088C129.7,91.728,119.1,103.5,119.344,116.8a26.426,26.426,0,0,0,7.478,18.487c2.725,2.8,5.083,5.392,5.344,9.154Z" transform="translate(-94.88 -73.817)" fill="#ffa726"/>
        <path id="Trazado_103864" data-name="Trazado 103864" d="M196.515,213.707a3.039,3.039,0,0,1-2.287,1.173l-.114,0a3.04,3.04,0,0,1-2.255-1L183.2,204.3a3.04,3.04,0,0,1,4.51-4.077l6.227,6.889,9.935-12.795a3.04,3.04,0,1,1,4.8,3.729Z" transform="translate(-150.093 -157.562)" fill="#26ccda"/>
      </g>
      <g id="Grupo_56521" data-name="Grupo 56521" transform="translate(6.963 0)">
        <path id="Trazado_103865" data-name="Trazado 103865" d="M249.3,12.078A1.382,1.382,0,0,0,250.68,10.7V1.382a1.382,1.382,0,0,0-2.763,0V10.7A1.382,1.382,0,0,0,249.3,12.078Z" transform="translate(-203.527 0)"/>
        <path id="Trazado_103866" data-name="Trazado 103866" d="M84.528,79.52a1.382,1.382,0,1,0,1.954-1.954L79.9,70.979a1.382,1.382,0,0,0-1.954,1.954Z" transform="translate(-64.535 -57.572)"/>
        <path id="Trazado_103867" data-name="Trazado 103867" d="M17.66,240.953H8.345a1.382,1.382,0,0,0,0,2.763H17.66a1.382,1.382,0,0,0,0-2.763Z" transform="translate(-6.963 -196.563)"/>
        <path id="Trazado_103868" data-name="Trazado 103868" d="M84.528,375.984l-6.587,6.587a1.382,1.382,0,0,0,1.954,1.954l6.587-6.587a1.382,1.382,0,0,0-1.954-1.954Z" transform="translate(-64.535 -306.388)"/>
        <path id="Trazado_103869" data-name="Trazado 103869" d="M384.9,375.984a1.382,1.382,0,1,0-1.954,1.954l6.587,6.587a1.382,1.382,0,0,0,1.954-1.954Z" transform="translate(-313.351 -306.388)"/>
        <path id="Trazado_103870" data-name="Trazado 103870" d="M449,240.953h-9.315a1.382,1.382,0,0,0,0,2.763H449a1.382,1.382,0,0,0,0-2.763Z" transform="translate(-358.843 -196.563)"/>
        <path id="Trazado_103871" data-name="Trazado 103871" d="M389.534,70.979l-6.587,6.587A1.382,1.382,0,1,0,384.9,79.52l6.587-6.587a1.382,1.382,0,0,0-1.954-1.954Z" transform="translate(-313.351 -57.572)"/>
        <path id="Trazado_103872" data-name="Trazado 103872" d="M161.845,110.688A27.525,27.525,0,0,0,134.55,83a26.919,26.919,0,0,0-14.8,4.418,27.629,27.629,0,0,0-9.888,11.441,1.382,1.382,0,0,0,2.5,1.168,24.474,24.474,0,0,1,46.713,10.66,25,25,0,0,1-6.946,17.377c-2.582,2.7-4.779,5.272-5.344,8.882H122.67c-.712-3.747-3.269-6.376-5.565-8.737a24.979,24.979,0,0,1-7.086-17.523,25.529,25.529,0,0,1,.464-4.847,1.382,1.382,0,1,0-2.713-.526,28.281,28.281,0,0,0-.514,5.373,27.728,27.728,0,0,0,7.869,19.45c2.914,2.995,4.977,5.385,4.977,8.889,0,.012,0,.025,0,.037l.079,8.108a7.28,7.28,0,0,0,3.5,6.218v1.52a6.916,6.916,0,0,0,6.908,6.908h8.474a6.916,6.916,0,0,0,6.908-6.908v-1.52a7.28,7.28,0,0,0,3.5-6.218s-.01-9.032-.028-9.122c.262-3.2,2.2-5.478,4.688-8.074A27.753,27.753,0,0,0,161.845,110.688Zm-18.637,44.221a4.15,4.15,0,0,1-4.145,4.145h-8.474a4.15,4.15,0,0,1-4.145-4.145v-.533a7.3,7.3,0,0,0,1.013.072H142.2a7.326,7.326,0,0,0,1.013-.072Zm-1.013-3.224H127.458a4.518,4.518,0,0,1-4.514-4.514v-.092h14a1.382,1.382,0,1,0,0-2.763h-14v-4.606h23.722l.043,4.606h-3.316a1.382,1.382,0,1,0,0,2.763h3.316v.092A4.519,4.519,0,0,1,142.2,151.685Z" transform="translate(-88.779 -67.709)"/>
        <path id="Trazado_103873" data-name="Trazado 103873" d="M198.728,194.6a1.382,1.382,0,1,0,2.183,1.695l2.735-3.523a4.421,4.421,0,0,0-6.985-5.423l-8.924,11.493-5.121-5.667a4.422,4.422,0,0,0-6.56,5.93l8.659,9.58a4.449,4.449,0,0,0,6.772-.253l5.469-7.043a1.382,1.382,0,0,0-2.183-1.695l-5.469,7.043a1.668,1.668,0,0,1-2.54.095l-8.659-9.58a1.658,1.658,0,1,1,2.46-2.223l6.227,6.889a1.392,1.392,0,0,0,2.116-.079l9.935-12.795a1.658,1.658,0,1,1,2.619,2.034Z" transform="translate(-143.974 -151.438)"/>
      </g>
    </g>
  </g>
</svg>
