<svg xmlns="http://www.w3.org/2000/svg" xmlns:xlink="http://www.w3.org/1999/xlink" width="208.643" height="229.121" viewBox="0 0 208.643 229.121">
  <defs>
    <linearGradient id="linear-gradient" x1="8.176" y1="-5.97" x2="9.427" y2="-5.458" gradientUnits="objectBoundingBox">
      <stop offset="0" stop-color="#fff"/>
      <stop offset="0.368" stop-color="#fbfbfb"/>
      <stop offset="0.695" stop-color="#f0f0f0"/>
      <stop offset="1" stop-color="#dfdfdf"/>
    </linearGradient>
  </defs>
  <g id="Grupo_120359" data-name="Grupo 120359" transform="translate(-314.221 -269.422)">
    <g id="Grupo_120230" data-name="Grupo 120230" transform="translate(-6.666 -668.834)">
      <path id="Trazado_181096" data-name="Trazado 181096" d="M-2032.6,590.553a185.5,185.5,0,0,0-90.156-27.863V361.432a388.943,388.943,0,0,1,111.832,19.163,386.041,386.041,0,0,1,96.811,47.509Z" transform="translate(2443.638 576.824)" fill="#fdd835"/>
      <path id="Trazado_181106" data-name="Trazado 181106" d="M-2021.666,590.8a197.448,197.448,0,0,0-76.479-23.694V387a378.066,378.066,0,0,1,97.765,18.212,375.654,375.654,0,0,1,84.841,40.088Z" transform="translate(2429.761 562.406)" fill="url(#linear-gradient)"/>
      <path id="Trazado_181107" data-name="Trazado 181107" d="M-2016.306,591.234a204.556,204.556,0,0,0-69.534-21.566v-169.6a372.9,372.9,0,0,1,90.73,17.613,370.767,370.767,0,0,1,78.781,36.482Z" transform="translate(2422.822 555.036)" fill="#f6f6f6"/>
    </g>
    <g id="filled_outline" data-name="filled outline" transform="translate(332.684 307.592)">
      <path id="Trazado_102323" data-name="Trazado 102323" d="M27.961,76.12v40.69a1.709,1.709,0,0,0,1.709,1.709H36.5a1.708,1.708,0,0,0,1.658-1.294l3.948-15.792H58.236l3.948,15.792a1.708,1.708,0,0,0,1.658,1.294h6.835a1.709,1.709,0,0,0,1.709-1.709V76.127A34.049,34.049,0,0,0,83.15,59.165l-3.3-.9A30.767,30.767,0,1,1,80.5,45.045l-5.213,0a25.613,25.613,0,1,0-1.169,14.28l-3.192-1.221a22.21,22.21,0,1,1,.863-13.059H66.475a17.087,17.087,0,1,0-2.094,14.62l-2.84-1.9A13.67,13.67,0,1,1,50.173,36.5a13.515,13.515,0,0,1,8.586,3.032,13.76,13.76,0,0,1,4.086,5.511H57a8.542,8.542,0,1,0-6.831,13.669V55.3a5.126,5.126,0,1,1,3.555-8.814l-4.319,2.16a1.709,1.709,0,0,0,0,3.056l6.835,3.417a1.708,1.708,0,0,0,.764.18H90.473l8.043,8.043a1.709,1.709,0,0,0,1.208.5H116.81a1.709,1.709,0,0,0,1.208-2.917l-8.043-8.043V47.463l8.043-8.043A1.709,1.709,0,0,0,116.81,36.5H99.724a1.709,1.709,0,0,0-1.208.5l-8.043,8.043H83.963a34.173,34.173,0,1,0-56,31.078ZM35.17,115.1H31.378V78.7A34.187,34.187,0,0,0,34.8,80.684v5.37h3.417v-3.87A33.867,33.867,0,0,0,43.046,83.6Zm7.794-17.086.854-3.417h12.71l.854,3.417Zm26,17.086H65.176L57.3,83.593a34.07,34.07,0,0,0,4.835-1.416v3.878h3.417V80.678A34.364,34.364,0,0,0,68.968,78.7ZM53.913,84.139l1.76,7.041h-11l1.76-7.04a34.036,34.036,0,0,0,7.481,0Zm.08-33.966,3.417-1.709h49.147v3.417H57.411ZM95.305,55.3h3.71l5.126,5.126h-3.71Zm13.669,5.126L103.849,55.3h3.71l5.126,5.126Zm-1.416-15.378h-3.71l5.126-5.126h3.71Zm-7.128-5.126h3.71l-5.126,5.126h-3.71Z" fill="#ffa726"/>
      <path id="Trazado_102324" data-name="Trazado 102324" d="M104,360h3.417v3.417H104Z" transform="translate(-69.205 -270.528)" fill="#ffa726"/>
      <path id="Trazado_102325" data-name="Trazado 102325" d="M232,360h3.417v3.417H232Z" transform="translate(-169.867 -270.528)" fill="#ffa726"/>
    </g>
  </g>
</svg>
