<svg xmlns="http://www.w3.org/2000/svg" xmlns:xlink="http://www.w3.org/1999/xlink" width="248.012" height="239.912" viewBox="0 0 248.012 239.912">
  <defs>
    <linearGradient id="linear-gradient" x1="4.391" y1="-7.189" x2="5.067" y2="-6.783" gradientUnits="objectBoundingBox">
      <stop offset="0" stop-color="#fff"/>
      <stop offset="0.368" stop-color="#fbfbfb"/>
      <stop offset="0.695" stop-color="#f0f0f0"/>
      <stop offset="1" stop-color="#dfdfdf"/>
    </linearGradient>
    <clipPath id="clip-path">
      <rect id="Rectángulo_36678" data-name="Rectángulo 36678" width="79.372" height="75.427" fill="#ffa726"/>
    </clipPath>
  </defs>
  <g id="Grupo_120368" data-name="Grupo 120368" transform="translate(-422.993 -1702.379)">
    <g id="Grupo_120250" data-name="Grupo 120250" transform="translate(-6.666 308.166)">
      <path id="Trazado_181095" data-name="Trazado 181095" d="M-1625.292,1468.973a384.428,384.428,0,0,1-52.452,98.812,392.777,392.777,0,0,1-77.5,79.2L-1873.3,1484.8a188.892,188.892,0,0,0,57.048-77.725Z" transform="translate(2302.963 -12.863)" fill="#fdd835"/>
      <path id="Trazado_181104" data-name="Trazado 181104" d="M-1620.463,1492.854a374.611,374.611,0,0,1-47.142,85.711,382.25,382.25,0,0,1-66.745,70.207l-105.635-145.116a199.165,199.165,0,0,0,48.575-66.209Z" transform="translate(2284.172 -29.99)" fill="url(#linear-gradient)"/>
      <path id="Trazado_181105" data-name="Trazado 181105" d="M-1618.312,1504.681a369.955,369.955,0,0,1-44.363,79.2,377.192,377.192,0,0,1-61.441,65.608l-99.457-136.628A206.247,206.247,0,0,0-1779.3,1452.5Z" transform="translate(2274.917 -38.481)" fill="#f6f6f6"/>
    </g>
    <g id="Grupo_120282" data-name="Grupo 120282" transform="translate(507.313 1766.943)">
      <g id="Grupo_120280" data-name="Grupo 120280" clip-path="url(#clip-path)">
        <path id="Trazado_181254" data-name="Trazado 181254" d="M0,115.6a2.228,2.228,0,0,1,2.2-1.062c1.885.051,3.772,0,5.657.025.517.007.7-.048.61-.665a31.955,31.955,0,0,1,2.585-18.048,1.555,1.555,0,1,1,2.809,1.3,29.244,29.244,0,0,0-2.636,12.537,28.893,28.893,0,0,0,.369,4.317c.067.414.177.6.614.555,2.037-.2,2.826.4,2.623,2.78-.067.781.2.977.931.9a9.955,9.955,0,0,1,1.858,0c.545.045.685-.126.681-.673-.026-3.668-.013-7.336-.013-11q0-1.627,0-3.255c0-1.452.511-1.973,1.941-1.974,3.72,0,7.441-.015,11.16.014.579,0,.728-.135.72-.717-.035-2.505-.017-5.011-.014-7.516,0-1.4.561-1.964,1.982-1.959q6.548.023,13.1.065c1.3.008,1.827.547,1.828,1.847,0,5.14.019,10.281-.018,15.421-.005.717.211.833.861.827,3.617-.031,7.234-.016,10.85-.014,1.649,0,2.119.472,2.119,2.12q0,7.827,0,15.653v.765c.334-.015.409-.276.537-.44a28.753,28.753,0,0,0,5.986-22.219c-.08-.613-.2-1.22-.311-1.829a1.586,1.586,0,0,1,1.2-2.009,1.542,1.542,0,0,1,1.854,1.416c2.023,11.24-.765,21.048-8.764,29.288a1.472,1.472,0,0,0-.511,1.206,14.613,14.613,0,0,1,0,2.013c-.045.6.147.645.684.516,2.556-.61,5.115-1.217,7.689-1.743a6.7,6.7,0,0,1,8.02,5.055c.035.135-.041.324.171.381v2.48c-.168.028-.161.173-.195.291a6.862,6.862,0,0,1-5.325,5.037c-5.969,1.494-11.927,3.034-17.891,4.55a18.973,18.973,0,0,1-11.912-.765c-6.3-2.48-12.637-4.848-18.878-7.457a19.3,19.3,0,0,0-9.282-1.721c-1.024.089-1.03.014-1.04,1.078-.012,1.381-.557,1.936-1.916,1.937-3.641,0-7.282-.023-10.922.017A1.991,1.991,0,0,1,0,143.813Zm14.849,14.452c0,2.687.013,5.373-.011,8.059,0,.527.121.712.679.7,1.627-.037,3.255,0,4.883-.018a4.506,4.506,0,0,1,1.729.33q11.575,4.554,23.16,9.085a14.766,14.766,0,0,0,9.037.791c6.385-1.551,12.747-3.2,19.11-4.84a3.563,3.563,0,0,0,2.709-4.429,3.611,3.611,0,0,0-4.483-2.639c-4.75,1.083-9.508,2.132-14.244,3.275a19.681,19.681,0,0,1-11.874-.479c-4.118-1.56-8.223-3.155-12.333-4.735-1.01-.388-2.032-.747-3.026-1.171a1.524,1.524,0,0,1-.852-1.994,1.545,1.545,0,0,1,1.909-.89,6.833,6.833,0,0,1,.654.234q4.869,1.869,9.737,3.741a4.035,4.035,0,0,0,5.5-3.4,3.823,3.823,0,0,0-2.474-3.974q-7.453-3.106-14.915-6.19a2.467,2.467,0,0,0-.977-.179c-4.418.005-8.836.014-13.254-.009-.546,0-.682.142-.676.682.029,2.686.013,5.373.013,8.059M45.9,109.584c0-4.777-.024-9.553.023-14.329.008-.811-.232-.966-.979-.96-2.995.025-5.99,0-8.985-.046-.6-.01-.782.116-.78.747q.034,12.393,0,24.786a.823.823,0,0,0,.612.9c3.125,1.272,6.248,2.553,9.353,3.874.714.3.769.084.766-.564-.023-4.8-.012-9.6-.012-14.407m13.812,15.01c0-3.822-.012-7.645.013-11.467,0-.566-.124-.748-.722-.742q-4.649.047-9.3,0c-.606-.006-.717.192-.714.751.022,4.52.016,9.04.006,13.559a2.111,2.111,0,0,0,.3,1.087,6.777,6.777,0,0,1,.04,6.937,3.674,3.674,0,0,0-.3,2.4c.181,1.262,1.355.522,2.035.815a.512.512,0,0,0,.154.008c2.812.218,5.461-.644,8.153-1.226.495-.107.326-.461.326-.727q.016-5.695.007-11.39M3.1,129.7c0,3.82.009,7.641-.01,11.462,0,.492.11.658.632.652q3.679-.042,7.358,0c.555.007.68-.167.679-.7q-.025-11.346,0-22.691c0-.6-.137-.8-.767-.786q-3.523.057-7.048,0c-.655-.011-.873.116-.865.832.042,3.743.02,7.486.02,11.229m29-17.919c0-2.219-.013-4.437.01-6.656.005-.5-.063-.72-.65-.715-3.148.031-6.3.026-9.443,0-.506,0-.644.136-.642.642q.03,6.269,0,12.538c0,.5.124.657.639.649,1.986-.03,3.974.022,5.96-.024a6.664,6.664,0,0,1,3.515.664c.55.306.622.062.618-.445-.018-2.219-.008-4.437-.008-6.656" transform="translate(0 -77.021)" fill="#ffa726"/>
        <path id="Trazado_181255" data-name="Trazado 181255" d="M152.521,3.557a1.522,1.522,0,0,1-2.125,1.4,31.7,31.7,0,0,0-5.443-1.449A28.982,28.982,0,0,0,121,10.147c-.159.132-.309.275-.47.4A1.553,1.553,0,1,1,118.5,8.209a30.753,30.753,0,0,1,3.739-2.878A32.175,32.175,0,0,1,143.456.166a31.043,31.043,0,0,1,7.88,1.85,1.589,1.589,0,0,1,1.184,1.541" transform="translate(-99.594 0)" fill="#ffa726"/>
        <path id="Trazado_181256" data-name="Trazado 181256" d="M367.281,31.665a1.937,1.937,0,0,1-.49,1.152q-6.271,7.214-12.543,14.427a1.554,1.554,0,1,1-2.338-2.024q6.284-7.254,12.587-14.491a1.488,1.488,0,0,1,1.806-.478,1.554,1.554,0,0,1,.977,1.413" transform="translate(-296.936 -25.451)" fill="#ffa726"/>
        <path id="Trazado_181257" data-name="Trazado 181257" d="M355.7,31.041A3.884,3.884,0,1,1,347.932,31a3.884,3.884,0,1,1,7.767.044m-3.1-.06a.747.747,0,0,0-.807-.739.725.725,0,0,0-.745.8.7.7,0,0,0,.8.733.727.727,0,0,0,.752-.8" transform="translate(-293.984 -22.915)" fill="#ffa726"/>
        <path id="Trazado_181258" data-name="Trazado 181258" d="M407.36,99.72a3.885,3.885,0,1,1-3.87,3.892,3.894,3.894,0,0,1,3.87-3.892m0,4.671a.773.773,0,0,0,.79-.778.713.713,0,0,0-.76-.778.7.7,0,0,0-.775.752c-.014.492.286.731.745.8" transform="translate(-340.927 -84.258)" fill="#ffa726"/>
        <path id="Trazado_181259" data-name="Trazado 181259" d="M93.2,80.816a1.524,1.524,0,0,1,1.548,1.563,1.576,1.576,0,0,1-1.531,1.526,1.549,1.549,0,0,1-1.537-1.586,1.5,1.5,0,0,1,1.52-1.5" transform="translate(-77.462 -68.285)" fill="#ffa726"/>
      </g>
    </g>
  </g>
</svg>
