<svg xmlns="http://www.w3.org/2000/svg" xmlns:xlink="http://www.w3.org/1999/xlink" width="207.461" height="220.345" viewBox="0 0 207.461 220.345">
  <defs>
    <linearGradient id="linear-gradient" x1="5.791" y1="-6.655" x2="6.748" y2="-5.995" gradientUnits="objectBoundingBox">
      <stop offset="0" stop-color="#fff"/>
      <stop offset="0.368" stop-color="#fbfbfb"/>
      <stop offset="0.695" stop-color="#f0f0f0"/>
      <stop offset="1" stop-color="#dfdfdf"/>
    </linearGradient>
    <clipPath id="clip-path">
      <rect id="Rectángulo_36669" data-name="Rectángulo 36669" width="89.927" height="93.17" fill="none"/>
    </clipPath>
  </defs>
  <g id="Grupo_120362" data-name="Grupo 120362" transform="translate(-486.277 -1523.518)">
    <g id="Grupo_120244" data-name="Grupo 120244" transform="translate(-6.666 308.166)">
      <path id="Trazado_181093" data-name="Trazado 181093" d="M-1520.713,1107.805a386.17,386.17,0,0,1-16.11,109.435l-190.946-61.89a187.237,187.237,0,0,0,6.1-47.544,187.06,187.06,0,0,0-6.5-49.058l190.692-61.853A385.2,385.2,0,0,1-1520.713,1107.805Z" transform="translate(2221.117 218.457)" fill="#26ccda"/>
      <path id="Trazado_181098" data-name="Trazado 181098" d="M-1514.918,1125.44a373.6,373.6,0,0,1-12.7,95.783l-170.931-55.4a198.806,198.806,0,0,0,4.13-40.38,198.688,198.688,0,0,0-4.457-41.922l170.656-55.353A371.6,371.6,0,0,1-1514.918,1125.44Z" transform="translate(2204.593 200.822)" fill="url(#linear-gradient)"/>
      <path id="Trazado_181099" data-name="Trazado 181099" d="M-1512.25,1134.3a367.49,367.49,0,0,1-11.105,88.921l-160.983-52.178a204.84,204.84,0,0,0,3.321-36.742,204.659,204.659,0,0,0-3.611-38.3l160.7-52.125A364.952,364.952,0,0,1-1512.25,1134.3Z" transform="translate(2196.56 191.959)" fill="#f6f6f6"/>
    </g>
    <g id="Grupo_120248" data-name="Grupo 120248" transform="translate(561.1 1587.105)">
      <g id="Grupo_120215" data-name="Grupo 120215" clip-path="url(#clip-path)">
        <path id="Trazado_181224" data-name="Trazado 181224" d="M137.2,321.122c-.158,1.109-.474,1.447-1.613,1.586-4.143.508-8.286,1.012-12.433,1.48a1.544,1.544,0,0,0-1.123.614q-3.941,4.752-7.916,9.476c-.3.36-.641.69-.963,1.033h-1.092a1.838,1.838,0,0,1-.767-1.814c.176-.245.337-.5.53-.733,2.827-3.392,5.673-6.767,8.475-10.179a2.8,2.8,0,0,1,1.991-1.071q6.531-.745,13.056-1.543a1.49,1.49,0,0,1,1.854,1.151" transform="translate(-84.194 -242.142)" fill="#040403"/>
        <path id="Trazado_181225" data-name="Trazado 181225" d="M72.324,242.711a1.49,1.49,0,0,0-1.854-1.151q-6.524.8-13.056,1.543a2.8,2.8,0,0,0-1.991,1.071c-2.8,3.412-5.648,6.788-8.475,10.179-.193.231-.354.488-.53.733q-10.38-3.311-20.758-6.625c-.05-.016-.085-.081-.128-.123-.013-.34.239-.563.414-.787,1.485-1.9,3.021-3.756,4.489-5.667,1.428-1.86,3.14-3.516,4.164-5.669a20.737,20.737,0,0,1,5.518-7.3,20.079,20.079,0,0,1,12.826-4.933c6.755-.066,13.511-.017,20.267-.017a1.9,1.9,0,0,1,.154.416,3.467,3.467,0,0,1-3.6,4c-3.9.023-7.8,0-11.7.009-1.234,0-1.584.275-1.863,1.39-2.242,0-4.485.014-6.727,0-.577,0-.618.153-.326.608a4.391,4.391,0,0,0,3.878,2.118c5.575.027,11.15.011,16.726.009a7.327,7.327,0,0,0,5.119-1.922,3.3,3.3,0,0,1,2.415-1.018c3.3.078,6.6.031,9.907.028a4.2,4.2,0,0,0,2.791-.883q2.7-2.268,5.348-4.6c2.675-2.347,5.332-4.715,8-7.074.238-.211.633-.281.63-.706a2.361,2.361,0,0,1,2.371,1.6,2.535,2.535,0,0,1-.954,2.976q-9.84,8.348-19.688,16.687a12.631,12.631,0,0,1-4.07,2.333,19.492,19.492,0,0,1-4.455.807c-1.3.131-1.629.448-1.8,1.6l-3.04.365" transform="translate(-19.322 -163.732)" fill="#fedfd0"/>
        <path id="Trazado_181226" data-name="Trazado 181226" d="M112.918,15.8a1.81,1.81,0,0,1-.547-1.961A17.4,17.4,0,0,1,127.548.137,18.022,18.022,0,0,1,147.58,15.028a17.384,17.384,0,0,1-2.5,12.439c-2.545,4.046-5.155,8.051-7.754,12.062a2.729,2.729,0,0,0-.509,1.69,4.131,4.131,0,0,1-.436,2.553,1.625,1.625,0,0,0-.09.8c-.01,1.334.031,2.669-.019,4a3.932,3.932,0,0,1-3.909,3.969c-1.664.066-3.336.069-5,0a3.975,3.975,0,0,1-3.894-4.087c-.012-.909,0-1.819,0-2.728a4.975,4.975,0,0,0-.408-2.727,1.262,1.262,0,0,1-.123-.793,5.041,5.041,0,0,0-1.138-3.683c-2.379-3.613-4.7-7.265-7.04-10.9a18.142,18.142,0,0,1-2.53-6.366,1.744,1.744,0,0,1,.569-2.037c1.328-.3,1.882.053,2.109,1.365a15.032,15.032,0,0,0,2.2,5.622c2.618,4.075,5.223,8.157,7.87,12.213a3.741,3.741,0,0,1,.7,2.371,1.459,1.459,0,0,0,.377,1.435c-.2-2.892-.388-5.537-.573-8.183-.07-1.6-.152-3.195-.2-4.793-.013-.42-.212-.5-.568-.483a5.47,5.47,0,0,1-2.319-.287,3.864,3.864,0,0,1-2.242-3.19,7.435,7.435,0,0,1,.252-2.152c.186-.233.364-.472.558-.7a3.684,3.684,0,0,1,3.91-1.3,3.737,3.737,0,0,1,2.76,2.746c.213.7-.192,1.737.44,2.071s1.539.076,2.327.079h.091c1.425,0,1.425,0,1.546-1.442a3.822,3.822,0,1,1,7.5,1.278c-.486,1.87-1.917,2.878-4.074,2.9-.387,0-.911-.252-.946.551-.148,3.328-.352,6.653-.535,9.98a6.064,6.064,0,0,0,.049,2.682q.084-1.335.167-2.67c2.753-4.271,5.489-8.553,8.266-12.808a15.519,15.519,0,0,0,2.506-10.532,15.216,15.216,0,0,0-15.5-13.195c-6.562.171-12.722,4.016-14.378,11.6-.3,1.392-.823,1.728-2.164,1.429m20.454,29.436c.156-.316.044-.432-.293-.431-2.119.005-4.237.008-6.356,0-.348,0-.48.111-.473.468.018,1.089-.021,2.18.024,3.268a1.088,1.088,0,0,0,.974,1.138,3.33,3.33,0,0,0,1.771-.07,13.558,13.558,0,0,0,3.5.063.923.923,0,0,0,.929-.932,16.518,16.518,0,0,0-.072-3.5m-3.484-16.479h-.727c-1.184,0-1.2,0-1.125,1.215.226,3.808.472,7.615.686,11.424.026.455.132.672.622.615a3.592,3.592,0,0,1,.907,0c.655.093.806-.212.835-.813.174-3.538.392-7.074.582-10.611.1-1.834.087-1.835-1.78-1.835m-5.62-2.731c.307-.077.847.255.8-.536-.071-1.147-.409-1.771-1.136-1.736a1,1,0,0,0-1.052,1.1c-.012.785.419,1.157,1.39,1.172m10.474-.667c-.046.351-.1.711.588.685,1.067-.04,1.6-.357,1.581-1.157a1.036,1.036,0,0,0-1.037-1.129c-.709-.052-1.1.491-1.132,1.6" transform="translate(-84.866 0)" fill="#040403"/>
        <path id="Trazado_181227" data-name="Trazado 181227" d="M120.715,218.741c.172-1.157.5-1.474,1.8-1.6a19.48,19.48,0,0,0,4.455-.807A12.631,12.631,0,0,0,131.04,214q9.843-8.345,19.688-16.687a2.535,2.535,0,0,0,.954-2.976,2.361,2.361,0,0,0-2.371-1.6,2.475,2.475,0,0,0-2.008.866c-3.979,3.367-7.967,6.722-11.924,10.114a6.175,6.175,0,0,1-4.239,1.542c-3.455-.023-6.911,0-10.367-.011a1.259,1.259,0,0,0-1.046.376,6.025,6.025,0,0,1-4.553,1.912c-3.971,0-7.942,0-11.913.007a1.478,1.478,0,0,1-1.707-1.364c.279-1.115.628-1.389,1.863-1.391,3.9-.006,7.8.014,11.7-.009a3.467,3.467,0,0,0,3.6-4,1.9,1.9,0,0,0-.154-.416,3.331,3.331,0,0,0-3.5-2.556c-6.062-.009-12.124.016-18.186-.012a20.472,20.472,0,0,0-9.138,1.993c-1.056.509-1.549.358-2.23-.6a1.473,1.473,0,0,1,.943-1.823,21.17,21.17,0,0,1,9.175-2.274c6.579-.046,13.161-.1,19.736.044a4.3,4.3,0,0,0,3.234-1.224c2.742-2.389,5.623-4.624,8.291-7.091,3.451-3.19,8.14-1.455,9.093,2.235.014.053.068.1.1.144a5.388,5.388,0,0,1,9.15,2.431c.33-.039.5-.318.732-.5a5.305,5.305,0,0,1,7.356.639,5.212,5.212,0,0,1-.59,7.41c-3.249,2.823-6.556,5.578-9.839,8.361-3.306,2.8-6.645,5.567-9.911,8.416-3.1,2.707-6.8,3.7-10.777,3.977a1.4,1.4,0,0,1-1.495-1.194m-.226-20.9a7,7,0,0,1,1.011,3.567c.119,0,.2.024.228,0,3.645-3.078,7.313-6.129,10.914-9.258a2.41,2.41,0,0,0-.792-4.006,2.358,2.358,0,0,0-2.813.5q-4.189,3.544-8.374,7.093c-1.141.966-1.144.963-.174,2.1m6.259,4.632c.6.012,1.21.04,1.814.035,4.794-.041,3.4.453,7.031-2.594,2.018-1.693,4.027-3.4,6-5.14a2.44,2.44,0,0,0-.608-4.26,2.575,2.575,0,0,0-2.96.676q-6.329,5.384-12.669,10.755c-.166.141-.45.214-.419.529h1.807" transform="translate(-64.674 -140.125)" fill="#040403"/>
        <path id="Trazado_181228" data-name="Trazado 181228" d="M29.419,238.527c.681.954,1.174,1.106,2.23.6a20.466,20.466,0,0,1,9.138-1.994c6.062.028,12.124,0,18.186.012a3.331,3.331,0,0,1,3.5,2.556c-6.756,0-13.511-.049-20.267.016a20.081,20.081,0,0,0-12.826,4.934,20.739,20.739,0,0,0-5.518,7.3c-1.025,2.153-2.736,3.81-4.164,5.669-1.468,1.911-3,3.769-4.489,5.667-.175.224-.426.447-.414.787-1.195-.136-2.27-.726-3.452-.909q3.509-4.46,7.019-8.919a33.829,33.829,0,0,0,4.773-7.034,14.349,14.349,0,0,1,3.455-4.526,1.574,1.574,0,0,0,.376-2.243c.764-.708,1.82-1.041,2.456-1.913" transform="translate(-8.582 -179.464)" fill="#fdcfc0"/>
        <path id="Trazado_181229" data-name="Trazado 181229" d="M122.22,31.774a7.447,7.447,0,0,0-.252,2.152,3.865,3.865,0,0,0,2.242,3.191c.918,1.916,2,3.743,3.089,5.563.185,2.646.37,5.291.573,8.183a1.46,1.46,0,0,1-.377-1.435,3.74,3.74,0,0,0-.7-2.371c-2.647-4.055-5.252-8.138-7.871-12.212a15.029,15.029,0,0,1-2.2-5.622c-.226-1.312-.781-1.666-2.109-1.365a10.705,10.705,0,0,1,.124-3.408c1.341.3,1.859-.037,2.164-1.429,1.657-7.582,7.816-11.428,14.378-11.6a18.472,18.472,0,0,0-9.612,17.3,6.223,6.223,0,0,0,.552,3.05" transform="translate(-86.685 -8.644)" fill="#fdd835"/>
        <path id="Trazado_181230" data-name="Trazado 181230" d="M18.381,249.45A1.574,1.574,0,0,1,18,251.693a14.356,14.356,0,0,0-3.455,4.526,33.822,33.822,0,0,1-4.773,7.034q-3.515,4.455-7.019,8.919a4.765,4.765,0,0,1-.589.554A1.272,1.272,0,0,1,.5,272.643a1.214,1.214,0,0,1-.3-1.637,12.593,12.593,0,0,1,.975-1.309q4.427-5.6,8.864-11.181a10.074,10.074,0,0,0,1.285-2.073,22.125,22.125,0,0,1,4.813-6.77c.829-.793,1.236-.827,2.247-.224" transform="translate(-0.001 -188.473)" fill="#040403"/>
        <path id="Trazado_181231" data-name="Trazado 181231" d="M66.08,76.812c-.573,0-1.149.031-1.719-.008a1.254,1.254,0,0,1-1.254-1.293,1.211,1.211,0,0,1,1.076-1.356,14.634,14.634,0,0,1,3.786,0A1.214,1.214,0,0,1,69.041,75.6a1.272,1.272,0,0,1-1.332,1.218c-.542.021-1.086,0-1.629,0v-.008" transform="translate(-47.759 -56.03)" fill="#040403"/>
        <path id="Trazado_181232" data-name="Trazado 181232" d="M285.569,76.816c-.516,0-1.032.019-1.546,0a1.243,1.243,0,0,1-1.313-1.232,1.213,1.213,0,0,1,1.088-1.435,15.2,15.2,0,0,1,3.718,0,1.21,1.21,0,0,1,1.091,1.432,1.242,1.242,0,0,1-1.31,1.234c-.575.027-1.152.005-1.728.005" transform="translate(-213.955 -56.028)" fill="#040403"/>
        <path id="Trazado_181233" data-name="Trazado 181233" d="M78.567,111.241a1.383,1.383,0,0,1-.914,1.18c-1.016.379-2.025.777-3.053,1.121a1.35,1.35,0,0,1-.979-2.514,33.088,33.088,0,0,1,3.133-1.161,1.367,1.367,0,0,1,1.814,1.373" transform="translate(-55.096 -83.097)" fill="#040403"/>
        <path id="Trazado_181234" data-name="Trazado 181234" d="M78.546,36.666a1.356,1.356,0,0,1-1.63,1.447,28.907,28.907,0,0,1-3.387-1.259,1.2,1.2,0,0,1-.67-1.589,1.211,1.211,0,0,1,1.548-.911,35.876,35.876,0,0,1,3.473,1.281,1.236,1.236,0,0,1,.665,1.032" transform="translate(-55.076 -25.955)" fill="#040403"/>
        <path id="Trazado_181235" data-name="Trazado 181235" d="M279.424,35.676a1.306,1.306,0,0,1-.921,1.312c-.981.382-1.966.756-2.963,1.1a1.372,1.372,0,0,1-1.741-.723,1.333,1.333,0,0,1,.748-1.8c1.026-.429,2.066-.835,3.127-1.165a1.325,1.325,0,0,1,1.75,1.28" transform="translate(-207.127 -25.98)" fill="#040403"/>
        <path id="Trazado_181236" data-name="Trazado 181236" d="M275.29,109.773a20.009,20.009,0,0,1,3.644,1.4,1.346,1.346,0,0,1-1.109,2.388c-1.117-.357-2.221-.766-3.3-1.218a1.248,1.248,0,0,1-.72-1.582c.166-.668.652-.981,1.489-.992" transform="translate(-207.175 -83.078)" fill="#040403"/>
        <path id="Trazado_181237" data-name="Trazado 181237" d="M129.154,229.718a1.478,1.478,0,0,0,1.707,1.364c3.971-.012,7.942,0,11.913-.007a6.025,6.025,0,0,0,4.553-1.912,1.259,1.259,0,0,1,1.046-.376c3.456.007,6.911-.012,10.367.011a6.174,6.174,0,0,0,4.239-1.542c3.957-3.392,7.946-6.748,11.924-10.114a2.475,2.475,0,0,1,2.008-.866c0,.426-.392.5-.63.706-2.665,2.359-5.322,4.727-8,7.074q-2.651,2.326-5.348,4.6a4.2,4.2,0,0,1-2.791.883c-3.3,0-6.607.05-9.907-.028a3.3,3.3,0,0,0-2.415,1.018,7.328,7.328,0,0,1-5.119,1.922c-5.575,0-11.151.017-16.726-.009a4.392,4.392,0,0,1-3.878-2.118c-.292-.455-.25-.613.327-.608,2.242.016,4.484,0,6.726,0" transform="translate(-92.274 -163.665)" fill="#fdcfc0"/>
        <path id="Trazado_181238" data-name="Trazado 181238" d="M144.359,31.718a6.223,6.223,0,0,1-.552-3.05,18.472,18.472,0,0,1,9.612-17.3,15.217,15.217,0,0,1,15.5,13.195,15.519,15.519,0,0,1-2.506,10.532c-2.777,4.255-5.512,8.537-8.266,12.807l-.216-.012c.183-3.326.387-6.652.535-9.979.036-.8.559-.546.946-.551,2.156-.026,3.587-1.034,4.074-2.9a3.822,3.822,0,1,0-7.5-1.278c-.121,1.442-.121,1.442-1.546,1.442h-.091c-.788,0-1.709.247-2.327-.079-.632-.334-.227-1.371-.44-2.071a3.737,3.737,0,0,0-2.76-2.746,3.683,3.683,0,0,0-3.91,1.3c-.194.225-.372.464-.558.7" transform="translate(-108.825 -8.588)" fill="#fdd835"/>
        <path id="Trazado_181239" data-name="Trazado 181239" d="M179.3,118.274c1.867,0,1.879,0,1.78,1.835-.19,3.537-.408,7.073-.582,10.611-.03.6-.181.906-.835.813a3.593,3.593,0,0,0-.907,0c-.49.056-.6-.161-.622-.616-.214-3.809-.46-7.616-.686-11.424-.072-1.214-.059-1.215,1.125-1.215h.727" transform="translate(-134.278 -89.512)" fill="#f9e68b"/>
        <path id="Trazado_181240" data-name="Trazado 181240" d="M178.8,186.039a16.534,16.534,0,0,1,.072,3.5.923.923,0,0,1-.929.933,13.569,13.569,0,0,1-3.5-.063,2.675,2.675,0,0,1-1.635-1.008,2.732,2.732,0,0,1-.5-2.62c.32-.894,1.181-.66,1.881-.675,1.537-.033,3.074-.046,4.611-.067" transform="translate(-130.294 -140.798)" fill="#45eefc"/>
        <path id="Trazado_181241" data-name="Trazado 181241" d="M177.3,184.688c-1.537.021-3.074.035-4.611.067-.7.015-1.561-.219-1.881.675a2.732,2.732,0,0,0,.5,2.62,2.675,2.675,0,0,0,1.635,1.008,3.339,3.339,0,0,1-1.772.07,1.088,1.088,0,0,1-.974-1.138c-.045-1.088-.005-2.179-.024-3.268-.006-.357.126-.469.473-.468,2.119.011,4.237.008,6.356,0,.336,0,.449.115.293.431" transform="translate(-128.792 -139.447)" fill="#45eefc"/>
        <path id="Trazado_181242" data-name="Trazado 181242" d="M157.394,122.645c-1.092-1.82-2.171-3.647-3.089-5.563a5.474,5.474,0,0,0,2.319.287c.356-.017.554.062.568.482.051,1.6.133,3.2.2,4.793" transform="translate(-116.781 -88.61)" fill="#f9e68b"/>
        <path id="Trazado_181243" data-name="Trazado 181243" d="M157.7,99.967c-.971-.015-1.4-.387-1.39-1.172a1,1,0,0,1,1.052-1.1c.727-.035,1.065.589,1.136,1.736.049.791-.492.459-.8.536" transform="translate(-118.3 -73.936)" fill="#f9e68b"/>
        <path id="Trazado_181244" data-name="Trazado 181244" d="M205.025,99.308c.034-1.109.423-1.652,1.132-1.6a1.036,1.036,0,0,1,1.037,1.129c.015.8-.514,1.117-1.581,1.157-.685.026-.633-.334-.588-.685" transform="translate(-155.149 -73.944)" fill="#f9e68b"/>
        <path id="Trazado_181245" data-name="Trazado 181245" d="M201.534,161.61l.216.012q-.083,1.335-.167,2.671a6.068,6.068,0,0,1-.05-2.682" transform="translate(-152.428 -122.309)" fill="#f8e071"/>
        <path id="Trazado_181246" data-name="Trazado 181246" d="M269.5,207.191a2.44,2.44,0,0,1,.608,4.26c-1.977,1.741-3.986,3.447-6,5.14-3.631,3.047-2.237,2.553-7.031,2.594-.6.005-1.209-.023-1.814-.035.127-.513.56-.783.919-1.088,1.331-1.131,2.7-2.218,4.033-3.347,2.53-2.142,5.022-4.331,7.588-6.429.505-.413.881-1.135,1.7-1.1" transform="translate(-193.184 -156.805)" fill="#fedfd0"/>
        <path id="Trazado_181247" data-name="Trazado 181247" d="M240.881,197.432a2.41,2.41,0,0,1,.792,4.006c-3.6,3.129-7.269,6.18-10.914,9.258-.033.027-.109,0-.228,0a7,7,0,0,0-1.011-3.566c.453-.348.918-.682,1.357-1.047,2.919-2.43,5.849-4.847,8.729-7.321.454-.39,1.137-.62,1.275-1.333" transform="translate(-173.705 -149.42)" fill="#fedfd0"/>
        <path id="Trazado_181248" data-name="Trazado 181248" d="M238.684,196.577c-.138.713-.822.943-1.275,1.333-2.881,2.474-5.811,4.891-8.729,7.321-.439.365-.9.7-1.357,1.047-.97-1.14-.968-1.138.174-2.1q4.188-3.545,8.374-7.093a2.358,2.358,0,0,1,2.813-.5" transform="translate(-171.507 -148.565)" fill="#fdcfc0"/>
        <path id="Trazado_181249" data-name="Trazado 181249" d="M263.868,206.467c-.82-.04-1.2.682-1.7,1.1-2.565,2.1-5.057,4.287-7.588,6.43-1.333,1.129-2.7,2.216-4.033,3.347-.359.3-.792.575-.919,1.088h-1.807c-.031-.315.253-.388.419-.529q6.331-5.382,12.669-10.754a2.575,2.575,0,0,1,2.96-.676" transform="translate(-187.553 -156.081)" fill="#fdcfc0"/>
      </g>
    </g>
  </g>
</svg>
