<svg xmlns="http://www.w3.org/2000/svg" width="820.57" height="206.881" viewBox="0 0 820.57 206.881">
  <g id="Grupo_120358" data-name="Grupo 120358" transform="translate(-390 -4767)">
    <g id="Grupo_82720" data-name="Grupo 82720" transform="translate(0 37)">
      <path id="Trazado_166713" data-name="Trazado 166713" d="M415.1,6.168c-1.742-.4-3.52-.75-5.285-1.054l-.482,2.794c1.716.3,3.446.641,5.139,1.025Z" transform="translate(101.313 4726.394)" fill="#f57c00"/>
      <path id="Trazado_166728" data-name="Trazado 166728" d="M379.59,1.289c-1.773-.211-3.578-.379-5.365-.5l-.189,2.83c1.739.116,3.494.279,5.219.485Z" transform="translate(126.209 4729.442)" fill="#f57c00"/>
      <path id="Trazado_166733" data-name="Trazado 166733" d="M1071.865,1.287c-1.773-.211-3.578-.378-5.365-.5l-.189,2.83c1.738.116,3.494.279,5.219.485Z" transform="translate(-362.021 4729.443)" fill="#f57c00"/>
      <path id="Trazado_166739" data-name="Trazado 166739" d="M1107.379,6.168c-1.742-.4-3.52-.75-5.285-1.054l-.482,2.794c1.716.3,3.446.641,5.139,1.025Z" transform="translate(-386.918 4726.394)" fill="#f57c00"/>
      <path id="Trazado_166768" data-name="Trazado 166768" d="M1799.656,6.168c-1.743-.4-3.521-.75-5.285-1.054l-.482,2.795c1.715.3,3.445.64,5.139,1.025Z" transform="translate(-875.15 4726.394)" fill="#f57c00"/>
      <path id="Trazado_166772" data-name="Trazado 166772" d="M1764.141,1.287c-1.774-.211-3.578-.378-5.365-.5l-.189,2.83c1.738.116,3.495.279,5.219.485Z" transform="translate(-850.252 4729.443)" fill="#f57c00"/>
      <g id="Grupo_82719" data-name="Grupo 82719">
        <path id="Trazado_166699" data-name="Trazado 166699" d="M103.44,204.045a100.6,100.6,0,0,1,0-201.209q.785,0,1.567.012L105.05.012q-.8-.012-1.61-.012V0A103.44,103.44,0,0,0,30.3,176.584,103.466,103.466,0,0,0,198.16,145.074l-2.6-1.142a100.692,100.692,0,0,1-92.124,60.112" transform="translate(390 4730)" fill="#f57c00"/>
        <path id="Trazado_166700" data-name="Trazado 166700" d="M718.894,475.193l-2.642,1.032c.65,1.662,1.353,3.33,2.089,4.957l2.583-1.169c-.716-1.582-1.4-3.2-2.031-4.82" transform="translate(-115.141 4394.867)" fill="#f57c00"/>
        <path id="Trazado_166701" data-name="Trazado 166701" d="M731.3,508.822c.82,1.585,1.693,3.171,2.6,4.715l2.448-1.432c-.879-1.5-1.728-3.044-2.525-4.585Z" transform="translate(-125.752 4372.068)" fill="#f57c00"/>
        <path id="Trazado_166702" data-name="Trazado 166702" d="M749.739,539.727c.983,1.495,2.016,2.982,3.073,4.422l2.286-1.678c-1.028-1.4-2.034-2.847-2.989-4.3Z" transform="translate(-138.758 4350.453)" fill="#f57c00"/>
        <path id="Trazado_166703" data-name="Trazado 166703" d="M707.48,441.453l-2.735.75c.473,1.725,1,3.46,1.562,5.158l2.692-.893c-.548-1.651-1.058-3.339-1.519-5.015" transform="translate(-107.024 4418.663)" fill="#f57c00"/>
        <path id="Trazado_166704" data-name="Trazado 166704" d="M699.736,406.725l-2.8.46c.29,1.766.631,3.546,1.013,5.293l2.771-.606c-.371-1.7-.7-3.429-.985-5.147" transform="translate(-101.519 4443.155)" fill="#f57c00"/>
        <path id="Trazado_166705" data-name="Trazado 166705" d="M952.825,683.584c1.731.46,3.5.879,5.243,1.247l.584-2.775c-1.7-.358-3.415-.766-5.1-1.213Z" transform="translate(-281.984 4249.832)" fill="#f57c00"/>
        <path id="Trazado_166706" data-name="Trazado 166706" d="M918,672.556c1.674.64,3.388,1.244,5.095,1.795l.872-2.7c-1.66-.536-3.327-1.123-4.954-1.745Z" transform="translate(-257.422 4257.545)" fill="#f57c00"/>
        <path id="Trazado_166707" data-name="Trazado 166707" d="M884.521,658c1.6.812,3.24,1.592,4.875,2.317l1.15-2.592c-1.59-.705-3.185-1.464-4.741-2.253Z" transform="translate(-233.813 4267.729)" fill="#f57c00"/>
        <path id="Trazado_166708" data-name="Trazado 166708" d="M695.726,371.391l-2.831.167c.106,1.786.259,3.592.457,5.369l2.819-.314c-.192-1.728-.342-3.485-.444-5.222" transform="translate(-98.668 4468.074)" fill="#f57c00"/>
        <path id="Trazado_166709" data-name="Trazado 166709" d="M795.922,595.146c1.268,1.26,2.587,2.5,3.921,3.7l1.891-2.113c-1.3-1.162-2.581-2.371-3.814-3.6Z" transform="translate(-171.328 4311.689)" fill="#f57c00"/>
        <path id="Trazado_166710" data-name="Trazado 166710" d="M771.359,568.6c1.132,1.384,2.315,2.758,3.516,4.082l2.1-1.906c-1.169-1.288-2.32-2.624-3.42-3.971Z" transform="translate(-154.004 4330.256)" fill="#f57c00"/>
        <path id="Trazado_166711" data-name="Trazado 166711" d="M852.8,640.1c1.506.974,3.055,1.92,4.6,2.812l1.414-2.458c-1.506-.867-3.013-1.787-4.478-2.735Z" transform="translate(-211.441 4280.248)" fill="#f57c00"/>
        <path id="Trazado_166712" data-name="Trazado 166712" d="M823.164,619.063c1.393,1.123,2.835,2.224,4.285,3.273l1.663-2.3c-1.411-1.021-2.813-2.092-4.168-3.184Z" transform="translate(-190.541 4294.96)" fill="#f57c00"/>
        <path id="Trazado_166714" data-name="Trazado 166714" d="M574.725,84.368c-1.315-1.212-2.679-2.406-4.054-3.548L568.859,83c1.338,1.111,2.664,2.272,3.944,3.451Z" transform="translate(-11.19 4673.002)" fill="#f57c00"/>
        <path id="Trazado_166715" data-name="Trazado 166715" d="M600.694,109.543c-1.182-1.34-2.415-2.67-3.667-3.95L595,107.575c1.218,1.246,2.418,2.538,3.568,3.842Z" transform="translate(-29.626 4655.529)" fill="#f57c00"/>
        <path id="Trazado_166716" data-name="Trazado 166716" d="M546.356,62.078c-1.434-1.07-2.913-2.115-4.4-3.108l-1.576,2.358c1.444.965,2.883,1.982,4.277,3.023Z" transform="translate(8.893 4688.411)" fill="#f57c00"/>
        <path id="Trazado_166717" data-name="Trazado 166717" d="M623.978,137.333c-1.039-1.459-2.129-2.909-3.24-4.31l-2.222,1.763c1.081,1.362,2.141,2.773,3.151,4.192Z" transform="translate(-46.212 4636.186)" fill="#f57c00"/>
        <path id="Trazado_166718" data-name="Trazado 166718" d="M515.887,42.919c-1.535-.914-3.115-1.8-4.694-2.633l-1.323,2.509c1.536.81,3.072,1.671,4.565,2.56Z" transform="translate(30.412 4701.588)" fill="#f57c00"/>
        <path id="Trazado_166719" data-name="Trazado 166719" d="M658.88,200.711l2.6-1.129c-.713-1.643-1.48-3.29-2.279-4.893l-2.539,1.264c.777,1.56,1.523,3.161,2.216,4.759" transform="translate(-73.115 4592.695)" fill="#f57c00"/>
        <path id="Trazado_166720" data-name="Trazado 166720" d="M644.319,167.451c-.881-1.559-1.815-3.116-2.776-4.626l-2.393,1.522c.934,1.468,1.843,2.982,2.7,4.5Z" transform="translate(-60.764 4615.167)" fill="#f57c00"/>
        <path id="Trazado_166721" data-name="Trazado 166721" d="M694.88,339.991c0-1.521-.034-3.061-.1-4.58l-2.833.123c.064,1.477.1,2.976.1,4.456q0,.4,0,.807l2.836-.022q0-.392,0-.785" transform="translate(-97.999 4493.449)" fill="#f57c00"/>
        <path id="Trazado_166722" data-name="Trazado 166722" d="M684.264,263.2l-2.746.707c.433,1.683.828,3.4,1.173,5.108l2.78-.562c-.355-1.755-.761-3.522-1.206-5.253" transform="translate(-90.644 4544.379)" fill="#f57c00"/>
        <path id="Trazado_166723" data-name="Trazado 166723" d="M673.5,228.281l-2.657.991c.61,1.635,1.184,3.306,1.706,4.968l2.705-.85c-.537-1.709-1.127-3.428-1.755-5.109" transform="translate(-83.118 4569.004)" fill="#f57c00"/>
        <path id="Trazado_166724" data-name="Trazado 166724" d="M691.371,299.029l-2.805.416c.255,1.72.468,3.471.633,5.2l2.823-.269c-.17-1.781-.389-3.58-.651-5.349" transform="translate(-95.614 4519.108)" fill="#f57c00"/>
        <path id="Trazado_166725" data-name="Trazado 166725" d="M449.922,14.8c-1.694-.577-3.425-1.115-5.146-1.6l-.771,2.729c1.673.473,3.357,1,5,1.557Z" transform="translate(76.863 4720.689)" fill="#f57c00"/>
        <path id="Trazado_166726" data-name="Trazado 166726" d="M483.65,27.107c-1.62-.748-3.282-1.464-4.94-2.127l-1.053,2.633c1.613.645,3.229,1.341,4.8,2.069Z" transform="translate(53.13 4712.383)" fill="#f57c00"/>
        <path id="Trazado_166727" data-name="Trazado 166727" d="M988.6,690.966c1.762.276,3.56.508,5.344.693l.292-2.821c-1.735-.179-3.484-.406-5.2-.674Z" transform="translate(-307.213 4244.669)" fill="#f57c00"/>
        <path id="Trazado_166729" data-name="Trazado 166729" d="M1030.338,549.25c-1.743,0-3.506-.045-5.24-.134l-.145,2.833c1.782.091,3.594.138,5.386.138a103.588,103.588,0,0,0,94.566-61.458l-2.592-1.152a100.748,100.748,0,0,1-91.974,59.774" transform="translate(-332.852 4384.795)" fill="#f57c00"/>
        <path id="Trazado_166730" data-name="Trazado 166730" d="M816.386,2.836q.785,0,1.567.012L818,.013Q817.194,0,816.387,0V0a103.5,103.5,0,0,0-94.8,61.993l2.6,1.137a100.662,100.662,0,0,1,92.2-60.295" transform="translate(-118.901 4730)" fill="#f57c00"/>
        <path id="Trazado_166731" data-name="Trazado 166731" d="M1376.54,263.2l-2.746.707c.433,1.683.828,3.4,1.173,5.108l2.78-.562c-.355-1.755-.761-3.522-1.206-5.253" transform="translate(-578.875 4544.379)" fill="#f57c00"/>
        <path id="Trazado_166732" data-name="Trazado 166732" d="M1365.78,228.281l-2.657.992c.61,1.635,1.184,3.306,1.706,4.968l2.705-.85c-.537-1.709-1.127-3.428-1.755-5.109" transform="translate(-571.35 4569.004)" fill="#f57c00"/>
        <path id="Trazado_166734" data-name="Trazado 166734" d="M1383.646,299.029l-2.805.416c.255,1.72.468,3.471.633,5.2l2.823-.269c-.17-1.781-.389-3.58-.651-5.349" transform="translate(-583.846 4519.108)" fill="#f57c00"/>
        <path id="Trazado_166735" data-name="Trazado 166735" d="M1388,371.392l-2.831.167c.105,1.786.259,3.592.457,5.369l2.819-.314c-.193-1.728-.342-3.485-.444-5.222" transform="translate(-586.898 4468.074)" fill="#f57c00"/>
        <path id="Trazado_166736" data-name="Trazado 166736" d="M1387.156,339.992c0-1.521-.034-3.061-.1-4.579l-2.833.123c.064,1.477.1,2.976.1,4.456q0,.4,0,.807l2.836-.022q0-.392,0-.785" transform="translate(-586.23 4493.448)" fill="#f57c00"/>
        <path id="Trazado_166737" data-name="Trazado 166737" d="M1392.011,406.726l-2.8.46c.29,1.766.631,3.546,1.013,5.293l2.771-.606c-.371-1.7-.7-3.429-.985-5.147" transform="translate(-589.748 4443.154)" fill="#f57c00"/>
        <path id="Trazado_166738" data-name="Trazado 166738" d="M1351.155,200.712l2.6-1.129c-.713-1.643-1.48-3.29-2.279-4.893l-2.539,1.264c.777,1.56,1.523,3.161,2.217,4.759" transform="translate(-561.346 4592.695)" fill="#f57c00"/>
        <path id="Trazado_166740" data-name="Trazado 166740" d="M1316.254,137.334c-1.038-1.459-2.129-2.909-3.24-4.31l-2.222,1.762c1.081,1.363,2.142,2.774,3.151,4.192Z" transform="translate(-534.443 4636.184)" fill="#f57c00"/>
        <path id="Trazado_166741" data-name="Trazado 166741" d="M1267,84.368c-1.315-1.212-2.679-2.406-4.054-3.548L1261.136,83c1.338,1.111,2.665,2.272,3.944,3.451Z" transform="translate(-499.422 4673.002)" fill="#f57c00"/>
        <path id="Trazado_166742" data-name="Trazado 166742" d="M1399.756,441.452l-2.735.75c.474,1.727,1,3.462,1.562,5.158l2.692-.893c-.547-1.649-1.058-3.337-1.518-5.016" transform="translate(-595.256 4418.664)" fill="#f57c00"/>
        <path id="Trazado_166743" data-name="Trazado 166743" d="M1292.97,109.543c-1.182-1.34-2.415-2.67-3.667-3.95l-2.028,1.982c1.218,1.246,2.418,2.538,3.568,3.842Z" transform="translate(-517.857 4655.529)" fill="#f57c00"/>
        <path id="Trazado_166744" data-name="Trazado 166744" d="M1142.2,14.8c-1.694-.577-3.426-1.116-5.146-1.6l-.771,2.729c1.673.473,3.357,1,5,1.557Z" transform="translate(-411.367 4720.689)" fill="#f57c00"/>
        <path id="Trazado_166745" data-name="Trazado 166745" d="M1175.926,27.107c-1.62-.748-3.282-1.464-4.94-2.127l-1.053,2.633c1.613.645,3.229,1.341,4.8,2.069Z" transform="translate(-435.102 4712.383)" fill="#f57c00"/>
        <path id="Trazado_166746" data-name="Trazado 166746" d="M1238.632,62.078c-1.434-1.07-2.913-2.115-4.4-3.108l-1.576,2.358c1.444.965,2.883,1.982,4.277,3.023Z" transform="translate(-479.338 4688.411)" fill="#f57c00"/>
        <path id="Trazado_166747" data-name="Trazado 166747" d="M1208.163,42.919c-1.535-.914-3.115-1.8-4.694-2.633l-1.323,2.509c1.536.81,3.073,1.671,4.565,2.56Z" transform="translate(-457.82 4701.588)" fill="#f57c00"/>
        <path id="Trazado_166748" data-name="Trazado 166748" d="M1336.594,167.451c-.881-1.559-1.815-3.116-2.776-4.626l-2.393,1.522c.934,1.468,1.843,2.982,2.7,4.5Z" transform="translate(-548.994 4615.167)" fill="#f57c00"/>
        <path id="Trazado_166749" data-name="Trazado 166749" d="M1610.273,672.556c1.674.64,3.388,1.244,5.095,1.795l.872-2.7c-1.66-.536-3.326-1.123-4.954-1.745Z" transform="translate(-745.652 4257.545)" fill="#f57c00"/>
        <path id="Trazado_166750" data-name="Trazado 166750" d="M1576.8,658c1.6.812,3.239,1.591,4.875,2.317l1.15-2.592c-1.591-.706-3.186-1.464-4.741-2.253Z" transform="translate(-722.045 4267.727)" fill="#f57c00"/>
        <path id="Trazado_166751" data-name="Trazado 166751" d="M1680.872,690.966c1.763.276,3.561.509,5.344.693l.292-2.821c-1.734-.179-3.483-.406-5.2-.674Z" transform="translate(-795.443 4244.669)" fill="#f57c00"/>
        <path id="Trazado_166752" data-name="Trazado 166752" d="M1411.169,475.193l-2.641,1.032c.65,1.662,1.353,3.33,2.089,4.957l2.583-1.169c-.716-1.583-1.4-3.2-2.031-4.82" transform="translate(-603.371 4394.867)" fill="#f57c00"/>
        <path id="Trazado_166753" data-name="Trazado 166753" d="M1545.075,640.1c1.5.974,3.053,1.919,4.6,2.812l1.414-2.458c-1.508-.868-3.015-1.788-4.478-2.735Z" transform="translate(-699.672 4280.248)" fill="#f57c00"/>
        <path id="Trazado_166754" data-name="Trazado 166754" d="M1645.1,683.584c1.73.46,3.494.879,5.242,1.247l.584-2.775c-1.7-.358-3.416-.766-5.1-1.213Z" transform="translate(-770.217 4249.832)" fill="#f57c00"/>
        <path id="Trazado_166755" data-name="Trazado 166755" d="M1423.575,508.822c.82,1.585,1.693,3.171,2.6,4.715l2.448-1.432c-.879-1.5-1.728-3.044-2.525-4.585Z" transform="translate(-613.982 4372.068)" fill="#f57c00"/>
        <path id="Trazado_166756" data-name="Trazado 166756" d="M1442.014,539.727c.983,1.495,2.017,2.982,3.073,4.422l2.286-1.678c-1.028-1.4-2.034-2.847-2.989-4.3Z" transform="translate(-626.988 4350.453)" fill="#f57c00"/>
        <path id="Trazado_166757" data-name="Trazado 166757" d="M1488.2,595.147c1.268,1.26,2.587,2.5,3.921,3.7l1.891-2.113c-1.3-1.162-2.581-2.371-3.814-3.6Z" transform="translate(-659.561 4311.688)" fill="#f57c00"/>
        <path id="Trazado_166758" data-name="Trazado 166758" d="M1463.635,568.6c1.132,1.384,2.315,2.758,3.516,4.082l2.1-1.906c-1.169-1.288-2.32-2.624-3.421-3.971Z" transform="translate(-642.236 4330.256)" fill="#f57c00"/>
        <path id="Trazado_166759" data-name="Trazado 166759" d="M1515.441,619.065c1.393,1.123,2.835,2.224,4.284,3.273l1.663-2.3c-1.41-1.02-2.812-2.092-4.167-3.184Z" transform="translate(-678.771 4294.959)" fill="#f57c00"/>
        <path id="Trazado_166760" data-name="Trazado 166760" d="M1722.615,549.249c-1.743,0-3.506-.045-5.24-.134l-.145,2.833c1.782.091,3.594.138,5.386.138a103.588,103.588,0,0,0,94.566-61.458l-2.592-1.152a100.749,100.749,0,0,1-91.974,59.774" transform="translate(-821.084 4384.795)" fill="#f57c00"/>
        <path id="Trazado_166761" data-name="Trazado 166761" d="M1509.683,2.836q.785,0,1.567.012l.044-2.836q-.8-.012-1.609-.013V0a103.46,103.46,0,0,0-94.375,61.032l2.586,1.164a100.819,100.819,0,0,1,91.789-59.36" transform="translate(-608.152 4730)" fill="#f57c00"/>
        <path id="Trazado_166762" data-name="Trazado 166762" d="M2075.921,299.028l-2.806.416c.255,1.718.469,3.468.635,5.2l2.823-.269c-.17-1.783-.39-3.583-.651-5.349" transform="translate(-1072.074 4519.109)" fill="#f57c00"/>
        <path id="Trazado_166763" data-name="Trazado 166763" d="M1930.907,62.077c-1.434-1.07-2.914-2.115-4.4-3.108l-1.576,2.358c1.444.965,2.883,1.982,4.277,3.023Z" transform="translate(-967.568 4688.412)" fill="#f57c00"/>
        <path id="Trazado_166764" data-name="Trazado 166764" d="M2079.431,339.99c0-1.525-.033-3.066-.1-4.58l-2.833.124c.064,1.473.1,2.972.1,4.456q0,.4,0,.807l2.836-.022q0-.392,0-.785" transform="translate(-1074.461 4493.45)" fill="#f57c00"/>
        <path id="Trazado_166765" data-name="Trazado 166765" d="M2068.816,263.2l-2.746.707c.434,1.687.829,3.406,1.173,5.108l2.78-.562c-.354-1.75-.76-3.518-1.206-5.253" transform="translate(-1067.105 4544.379)" fill="#f57c00"/>
        <path id="Trazado_166766" data-name="Trazado 166766" d="M2058.055,228.281l-2.657.992c.609,1.633,1.183,3.3,1.706,4.968l2.706-.85c-.538-1.711-1.128-3.43-1.754-5.109" transform="translate(-1059.58 4569.004)" fill="#f57c00"/>
        <path id="Trazado_166767" data-name="Trazado 166767" d="M1834.473,14.8c-1.694-.577-3.424-1.115-5.146-1.6l-.771,2.729c1.674.473,3.357,1,5,1.557Z" transform="translate(-899.598 4720.69)" fill="#f57c00"/>
        <path id="Trazado_166769" data-name="Trazado 166769" d="M1868.2,27.108c-1.621-.749-3.283-1.465-4.94-2.128l-1.053,2.633c1.611.644,3.228,1.341,4.8,2.069Z" transform="translate(-923.332 4712.383)" fill="#f57c00"/>
        <path id="Trazado_166770" data-name="Trazado 166770" d="M1900.438,42.918c-1.536-.915-3.116-1.8-4.694-2.633l-1.323,2.509c1.535.809,3.071,1.67,4.565,2.56Z" transform="translate(-946.049 4701.589)" fill="#f57c00"/>
        <path id="Trazado_166771" data-name="Trazado 166771" d="M2080.277,371.392l-2.831.167c.105,1.786.259,3.592.457,5.369l2.819-.314c-.192-1.728-.342-3.485-.444-5.222" transform="translate(-1075.129 4468.074)" fill="#f57c00"/>
        <path id="Trazado_166773" data-name="Trazado 166773" d="M2103.446,475.194l-2.641,1.032c.649,1.661,1.351,3.329,2.089,4.956l2.583-1.17c-.717-1.583-1.4-3.2-2.031-4.819" transform="translate(-1091.604 4394.867)" fill="#f57c00"/>
        <path id="Trazado_166774" data-name="Trazado 166774" d="M2092.031,441.452l-2.735.75c.473,1.725,1,3.461,1.561,5.158l2.692-.893c-.547-1.65-1.058-3.338-1.518-5.016" transform="translate(-1083.486 4418.664)" fill="#f57c00"/>
        <path id="Trazado_166775" data-name="Trazado 166775" d="M2084.288,406.726l-2.8.459c.289,1.764.63,3.545,1.013,5.293l2.77-.606c-.372-1.7-.7-3.432-.984-5.146" transform="translate(-1077.98 4443.154)" fill="#f57c00"/>
        <path id="Trazado_166776" data-name="Trazado 166776" d="M1959.277,84.368c-1.314-1.211-2.678-2.4-4.054-3.548L1953.411,83c1.339,1.112,2.665,2.273,3.943,3.451Z" transform="translate(-987.652 4673.002)" fill="#f57c00"/>
        <path id="Trazado_166777" data-name="Trazado 166777" d="M2373.147,690.966c1.763.276,3.561.509,5.344.693l.292-2.821c-1.734-.179-3.483-.406-5.2-.674Z" transform="translate(-1283.674 4244.669)" fill="#f57c00"/>
        <path id="Trazado_166778" data-name="Trazado 166778" d="M2337.379,683.584c1.73.46,3.493.879,5.242,1.247l.584-2.775c-1.7-.358-3.416-.766-5.1-1.213Z" transform="translate(-1258.447 4249.832)" fill="#f57c00"/>
        <path id="Trazado_166779" data-name="Trazado 166779" d="M2008.53,137.333c-1.036-1.456-2.126-2.906-3.24-4.31l-2.222,1.762c1.083,1.366,2.143,2.776,3.151,4.192Z" transform="translate(-1022.674 4636.186)" fill="#f57c00"/>
        <path id="Trazado_166780" data-name="Trazado 166780" d="M2302.549,672.556c1.674.64,3.388,1.244,5.094,1.795l.872-2.7c-1.66-.536-3.327-1.123-4.955-1.745Z" transform="translate(-1233.885 4257.545)" fill="#f57c00"/>
        <path id="Trazado_166781" data-name="Trazado 166781" d="M1985.244,109.541c-1.184-1.344-2.418-2.672-3.668-3.95l-2.027,1.983c1.215,1.242,2.415,2.535,3.567,3.842Z" transform="translate(-1006.086 4655.531)" fill="#f57c00"/>
        <path id="Trazado_166782" data-name="Trazado 166782" d="M2237.352,640.1c1.5.974,3.053,1.919,4.6,2.812l1.415-2.458c-1.509-.868-3.015-1.788-4.478-2.735Z" transform="translate(-1187.904 4280.248)" fill="#f57c00"/>
        <path id="Trazado_166783" data-name="Trazado 166783" d="M2269.075,658c1.6.812,3.239,1.591,4.875,2.317l1.15-2.592c-1.591-.706-3.186-1.464-4.741-2.253Z" transform="translate(-1210.275 4267.729)" fill="#f57c00"/>
        <path id="Trazado_166784" data-name="Trazado 166784" d="M2180.475,595.146c1.269,1.261,2.588,2.505,3.921,3.7l1.891-2.113c-1.3-1.16-2.579-2.37-3.814-3.6Z" transform="translate(-1147.791 4311.689)" fill="#f57c00"/>
        <path id="Trazado_166785" data-name="Trazado 166785" d="M2134.29,539.727c.983,1.5,2.017,2.983,3.073,4.422l2.285-1.678c-1.027-1.4-2.033-2.846-2.989-4.3Z" transform="translate(-1115.219 4350.453)" fill="#f57c00"/>
        <path id="Trazado_166786" data-name="Trazado 166786" d="M2155.912,568.6c1.131,1.384,2.314,2.758,3.516,4.082l2.1-1.906c-1.169-1.288-2.32-2.624-3.421-3.971Z" transform="translate(-1130.467 4330.256)" fill="#f57c00"/>
        <path id="Trazado_166787" data-name="Trazado 166787" d="M2028.868,167.451c-.881-1.559-1.815-3.115-2.776-4.626l-2.393,1.522c.935,1.469,1.844,2.983,2.7,4.5Z" transform="translate(-1037.223 4615.167)" fill="#f57c00"/>
        <path id="Trazado_166788" data-name="Trazado 166788" d="M2207.716,619.063c1.391,1.121,2.833,2.223,4.284,3.273l1.663-2.3c-1.412-1.022-2.814-2.093-4.168-3.184Z" transform="translate(-1167.002 4294.96)" fill="#f57c00"/>
        <path id="Trazado_166789" data-name="Trazado 166789" d="M2115.85,508.822c.818,1.582,1.692,3.169,2.6,4.715l2.448-1.432c-.88-1.5-1.729-3.046-2.524-4.585Z" transform="translate(-1102.213 4372.068)" fill="#f57c00"/>
        <path id="Trazado_166790" data-name="Trazado 166790" d="M2043.431,200.711l2.6-1.129c-.712-1.64-1.479-3.287-2.279-4.893l-2.539,1.264c.778,1.562,1.524,3.163,2.216,4.759" transform="translate(-1049.576 4592.695)" fill="#f57c00"/>
        <path id="Trazado_166791" data-name="Trazado 166791" d="M2280.376,30.3a103.465,103.465,0,0,0-167.519,30.735l2.586,1.164a100.615,100.615,0,1,1,91.789,141.849c-1.743,0-3.506-.045-5.24-.134l-.145,2.832c1.782.091,3.594.138,5.385.138A103.44,103.44,0,0,0,2280.376,30.3" transform="translate(-1100.104 4730)" fill="#f57c00"/>
      </g>
    </g>
  </g>
</svg>
