<svg xmlns="http://www.w3.org/2000/svg" width="125.336" height="87.872" viewBox="0 0 125.336 87.872">
  <g id="birrete" transform="translate(0 -76.517)">
    <g id="Grupo_55833" data-name="Grupo 55833" transform="translate(1.776 78.356)">
      <path id="Trazado_102739" data-name="Trazado 102739" d="M113.066,251.889l1.148,2.37s18.2,14.776,33.784,14.776,33.866-14.776,33.866-14.776l1.064-2.37h0a167.573,167.573,0,0,1-5.4-19.987l-3.33-1.873H121.313L118.47,231.9a167.565,167.565,0,0,1-5.405,19.988Z" transform="translate(-87.162 -194.286)" fill="#365e7d"/>
      <path id="Trazado_102740" data-name="Trazado 102740" d="M128.522,230.834l1.221-.8h-8.429l-2.843,1.872a167.563,167.563,0,0,1-5.405,19.988h0l1.148,2.37a83.961,83.961,0,0,0,7.145,5.038c2.546-8.5,5.143-18.3,7.163-28.463Z" transform="translate(-87.162 -194.287)" fill="#294b64"/>
      <path id="Trazado_102741" data-name="Trazado 102741" d="M127.753,103.664,71.131,84.528a9.5,9.5,0,0,0-6.081,0L8.429,103.664a1.726,1.726,0,0,0-.2,3.187l55.7,27.158a9.5,9.5,0,0,0,8.323,0l55.7-27.158a1.726,1.726,0,0,0-.2-3.187Z" transform="translate(-7.255 -84.028)" fill="#477b9e"/>
      <path id="Trazado_102742" data-name="Trazado 102742" d="M25.362,106.852a1.726,1.726,0,0,1,.2-3.187L76.659,86.4l-5.528-1.868a9.5,9.5,0,0,0-6.08,0L8.429,103.664a1.726,1.726,0,0,0-.2,3.187l55.7,27.158a9.5,9.5,0,0,0,8.323,0l4.407-2.149Z" transform="translate(-7.255 -84.028)" fill="#3f6d8e"/>
      <path id="Trazado_102743" data-name="Trazado 102743" d="M439.142,369.863h-6.429l-.764,11.89a1.688,1.688,0,0,0,1.656,1.82h4.645a1.688,1.688,0,0,0,1.656-1.82Z" transform="translate(-327.977 -299.888)" fill="#26ccda"/>
      <path id="Trazado_102744" data-name="Trazado 102744" d="M436.131,381.753l.764-11.89h-4.184l-.765,11.89a1.688,1.688,0,0,0,1.656,1.82h4.184A1.688,1.688,0,0,1,436.131,381.753Z" transform="translate(-327.975 -299.887)" fill="#26ccda" style="mix-blend-mode: multiply;isolation: isolate"/>
      <path id="Trazado_102745" data-name="Trazado 102745" d="M436.795,334.957h-2.976a2.7,2.7,0,0,0-2.7,2.7V343a.881.881,0,0,0,.881.881h6.6a.881.881,0,0,0,.881-.881v-5.351A2.7,2.7,0,0,0,436.795,334.957Z" transform="translate(-327.355 -273.527)" fill="#26ccda"/>
      <path id="Trazado_102746" data-name="Trazado 102746" d="M435.856,343v-5.351a2.7,2.7,0,0,1,1.817-2.545,2.668,2.668,0,0,0-.879-.151h-2.976a2.7,2.7,0,0,0-2.7,2.7V343a.881.881,0,0,0,.881.881h4.733A.881.881,0,0,1,435.856,343Z" transform="translate(-327.355 -273.527)" fill="#26ccda" style="mix-blend-mode: multiply;isolation: isolate"/>
      <path id="Trazado_102747" data-name="Trazado 102747" d="M237.374,134.126a6.082,6.082,0,0,0-6.46,6.07v.031a2.868,2.868,0,0,0,2.888,2.816h6.388a2.871,2.871,0,0,0,2.88-3.145A6.112,6.112,0,0,0,237.374,134.126Z" transform="translate(-176.16 -121.853)" fill="#3f6d8e"/>
      <path id="Trazado_102748" data-name="Trazado 102748" d="M236.423,140.226V140.2a6.08,6.08,0,0,1,3.316-5.416,5.971,5.971,0,0,0-2.364-.654,6.082,6.082,0,0,0-6.46,6.07v.031a2.868,2.868,0,0,0,2.888,2.816h5.508a2.868,2.868,0,0,1-2.888-2.816Z" transform="translate(-176.161 -121.853)" fill="#365e7d"/>
      <path id="Trazado_102749" data-name="Trazado 102749" d="M176.821,319.322c-6.381,5.245-16.758,11.115-27.968,14.728a22.825,22.825,0,0,1-13.925,0c-11.185-3.6-21.558-9.461-27.968-14.728-.614,1.833-1.178,3.427-1.648,4.714a5.442,5.442,0,0,0,1.738,6.148,91.1,91.1,0,0,0,27.878,14.651,22.833,22.833,0,0,0,13.925,0,91.105,91.105,0,0,0,27.878-14.651,5.442,5.442,0,0,0,1.738-6.148C178,322.749,177.434,321.155,176.821,319.322Z" transform="translate(-81.055 -261.72)" fill="#fdd835"/>
      <path id="Trazado_102750" data-name="Trazado 102750" d="M115.665,325.34a71.066,71.066,0,0,1-8.706-6.017c-.613,1.833-1.178,3.427-1.648,4.714a5.442,5.442,0,0,0,1.738,6.148c1.933,1.519,3.886,2.908,5.829,4.177.906-2.806,1.845-5.829,2.787-9.022Z" transform="translate(-81.054 -261.72)" fill="#ffd064"/>
    </g>
    <g id="Grupo_55834" data-name="Grupo 55834" transform="translate(0 76.517)">
      <path id="Trazado_102751" data-name="Trazado 102751" d="M122.918,96.246,96.46,87.3a1.836,1.836,0,1,0-1.176,3.479l26.205,8.857-12.335,6.014a5.573,5.573,0,0,0-1.71-.773l-37-9.67a7.917,7.917,0,0,0-15.693,1.482v.04a4.706,4.706,0,0,0,4.724,4.643h6.388a4.676,4.676,0,0,0,4.155-2.481l34.5,9.018-38.5,18.769a7.622,7.622,0,0,1-6.713,0L3.847,99.64,60.216,80.589a7.7,7.7,0,0,1,4.9,0l22.008,7.438A1.836,1.836,0,1,0,88.3,84.548L66.3,77.11a11.4,11.4,0,0,0-7.256,0L2.418,96.246A3.565,3.565,0,0,0,2,102.824l29.059,14.167a173.688,173.688,0,0,1-6.692,23.045,7.26,7.26,0,0,0,2.328,8.222,92.278,92.278,0,0,0,28.45,14.956,24.676,24.676,0,0,0,15.051,0,92.3,92.3,0,0,0,28.45-14.956,7.258,7.258,0,0,0,2.328-8.222,173.768,173.768,0,0,1-6.692-23.044l13.669-6.664v27.634a4.535,4.535,0,0,0-4.184,4.514v5.351a2.708,2.708,0,0,0,.891,2.006l-.682,10.312a3.5,3.5,0,0,0,3.488,3.727h4.645a3.5,3.5,0,0,0,3.488-3.727l-.682-10.312a2.708,2.708,0,0,0,.891-2.006v-5.351a4.535,4.535,0,0,0-4.184-4.514V110.288a5.567,5.567,0,0,0-.247-1.63l11.966-5.834a3.565,3.565,0,0,0-.421-6.578ZM65.862,97.7H59.474a1.038,1.038,0,0,1-1.051-.98v-.031A4.206,4.206,0,0,1,59.759,93.6a4.251,4.251,0,0,1,7.149,2.882A1.043,1.043,0,0,1,65.862,97.7Zm29.592,37.613c-9.92,7.764-24,13.318-28.848,14.242a1.836,1.836,0,1,0,.688,3.607c5.072-.967,18.969-6.368,29.4-14.175.257.732.554,1.565.825,2.306a3.6,3.6,0,0,1-1.148,4.074,88.907,88.907,0,0,1-27.307,14.347,21.009,21.009,0,0,1-12.8,0A88.912,88.912,0,0,1,28.961,145.37a3.6,3.6,0,0,1-1.148-4.074l.032-.089c.267-.731.563-1.561.792-2.218,10.186,7.62,24.045,13.155,29.4,14.177a1.836,1.836,0,1,0,.688-3.607c-4.578-.873-18.7-6.309-28.846-14.243a172.551,172.551,0,0,0,4.577-16.667L57.7,129.982a11.262,11.262,0,0,0,9.932,0L90.877,118.65A172.489,172.489,0,0,0,95.454,135.316ZM107.649,160.2l.639-9.655h2.991l.638,9.655Zm4.482-17.724v4.4h-4.7v-4.4a.871.871,0,0,1,.86-.86h2.976A.871.871,0,0,1,112.131,142.475Z" transform="translate(0 -76.517)"/>
    </g>
  </g>
</svg>
