<svg xmlns="http://www.w3.org/2000/svg" width="152.098" height="241.665" viewBox="0 0 152.098 241.665">
  <g id="Grupo_120360" data-name="Grupo 120360" transform="translate(-416.714 -163.846)">
    <path id="Trazado_166803" data-name="Trazado 166803" d="M245.4,166.541a76.049,76.049,0,1,1-76.049-76.049A76.049,76.049,0,0,1,245.4,166.541" transform="translate(323.414 73.354)" fill="#fff3bf"/>
    <path id="Trazado_166804" data-name="Trazado 166804" d="M266.39,749.862a101.111,101.111,0,0,1-34.8-6.137l34.8,26.128,34.8-26.128a101.111,101.111,0,0,1-34.8,6.137" transform="translate(226.588 -364.342)" fill="#f57c00"/>
    <circle id="Elipse_4272" data-name="Elipse 4272" cx="11" cy="11" r="11" transform="translate(482.176 357.174)" fill="#ffa726"/>
    <circle id="Elipse_4276" data-name="Elipse 4276" cx="7" cy="7" r="7" transform="translate(486.176 361.174)" fill="#ffd1a2"/>
    <path id="Trazado_181408" data-name="Trazado 181408" d="M-44.827,0h-1.312V-9.953h1.313Zm3.4-7.4.041.93a2.7,2.7,0,0,1,2.215-1.066q2.345,0,2.365,2.646V0h-1.265V-4.895a1.7,1.7,0,0,0-.366-1.183,1.466,1.466,0,0,0-1.118-.383,1.825,1.825,0,0,0-1.08.328,2.228,2.228,0,0,0-.725.861V0h-1.265V-7.4Zm7.9,7.4h-1.265V-7.4h1.265Zm-1.367-9.358a.755.755,0,0,1,.188-.52.706.706,0,0,1,.557-.212.717.717,0,0,1,.561.212.747.747,0,0,1,.191.52.722.722,0,0,1-.191.513.73.73,0,0,1-.561.205.718.718,0,0,1-.557-.205A.73.73,0,0,1-34.894-9.358ZM-28.537-.9a1.822,1.822,0,0,0,1.183-.41,1.443,1.443,0,0,0,.561-1.025h1.2a2.293,2.293,0,0,1-.437,1.21,2.881,2.881,0,0,1-1.077.916,3.107,3.107,0,0,1-1.425.342,3.047,3.047,0,0,1-2.4-1.008,4.016,4.016,0,0,1-.892-2.758v-.212a4.453,4.453,0,0,1,.4-1.921A3.02,3.02,0,0,1-30.3-7.068a3.233,3.233,0,0,1,1.753-.465,2.966,2.966,0,0,1,2.068.745A2.663,2.663,0,0,1-25.6-4.854h-1.2a1.743,1.743,0,0,0-.543-1.179,1.691,1.691,0,0,0-1.207-.461,1.77,1.77,0,0,0-1.494.694,3.259,3.259,0,0,0-.53,2.006v.239a3.194,3.194,0,0,0,.526,1.969A1.779,1.779,0,0,0-28.537-.9ZM-22.8,0h-1.265V-7.4H-22.8Zm-1.367-9.358a.755.755,0,0,1,.188-.52.706.706,0,0,1,.557-.212.717.717,0,0,1,.561.212.747.747,0,0,1,.191.52.722.722,0,0,1-.191.513.73.73,0,0,1-.561.205.718.718,0,0,1-.557-.205A.73.73,0,0,1-24.168-9.358Zm3.056,5.592a4.369,4.369,0,0,1,.427-1.955A3.187,3.187,0,0,1-19.5-7.062a3.238,3.238,0,0,1,1.74-.472,3.119,3.119,0,0,1,2.444,1.046,4.024,4.024,0,0,1,.933,2.782v.089a4.407,4.407,0,0,1-.414,1.938A3.14,3.14,0,0,1-15.976-.342a3.275,3.275,0,0,1-1.767.479A3.111,3.111,0,0,1-20.18-.909a4,4,0,0,1-.933-2.769Zm1.271.15a3.164,3.164,0,0,0,.571,1.976A1.827,1.827,0,0,0-17.743-.9a1.816,1.816,0,0,0,1.531-.755,3.46,3.46,0,0,0,.567-2.116,3.159,3.159,0,0,0-.578-1.972,1.836,1.836,0,0,0-1.535-.755,1.816,1.816,0,0,0-1.511.745A3.434,3.434,0,0,0-19.841-3.616ZM-6.908-1.853-5.185-7.4h1.354L-6.805,1.142Q-7.5,2.987-9,2.987l-.239-.021-.472-.089V1.853l.342.027a1.683,1.683,0,0,0,1-.26A1.88,1.88,0,0,0-7.776.67l.28-.752L-10.134-7.4h1.381ZM5.329,0a2.657,2.657,0,0,1-.178-.779A2.822,2.822,0,0,1,3.045.137,2.611,2.611,0,0,1,1.251-.482a2,2,0,0,1-.7-1.569,2.091,2.091,0,0,1,.878-1.794A4.142,4.142,0,0,1,3.9-4.484H5.13v-.581a1.42,1.42,0,0,0-.4-1.056,1.593,1.593,0,0,0-1.169-.393,1.844,1.844,0,0,0-1.135.342,1.007,1.007,0,0,0-.458.827H.7a1.745,1.745,0,0,1,.393-1.07A2.683,2.683,0,0,1,2.16-7.232a3.588,3.588,0,0,1,1.48-.3,2.924,2.924,0,0,1,2,.639A2.306,2.306,0,0,1,6.4-5.134v3.4a4.162,4.162,0,0,0,.26,1.62V0ZM3.23-.964a2.223,2.223,0,0,0,1.128-.308,1.861,1.861,0,0,0,.772-.8V-3.589H4.139q-2.324,0-2.324,1.36a1.151,1.151,0,0,0,.4.93A1.524,1.524,0,0,0,3.23-.964ZM9.574-7.4l.041.93A2.7,2.7,0,0,1,11.83-7.533q2.345,0,2.365,2.646V0H12.93V-4.895a1.7,1.7,0,0,0-.366-1.183,1.466,1.466,0,0,0-1.118-.383,1.825,1.825,0,0,0-1.08.328,2.228,2.228,0,0,0-.725.861V0H8.377V-7.4ZM20.668,0a2.657,2.657,0,0,1-.178-.779,2.822,2.822,0,0,1-2.105.916,2.611,2.611,0,0,1-1.794-.619,2,2,0,0,1-.7-1.569,2.091,2.091,0,0,1,.878-1.794,4.142,4.142,0,0,1,2.471-.639h1.23v-.581a1.42,1.42,0,0,0-.4-1.056A1.593,1.593,0,0,0,18.9-6.515a1.844,1.844,0,0,0-1.135.342,1.007,1.007,0,0,0-.458.827H16.041a1.745,1.745,0,0,1,.393-1.07A2.683,2.683,0,0,1,17.5-7.232a3.588,3.588,0,0,1,1.48-.3,2.924,2.924,0,0,1,2,.639,2.306,2.306,0,0,1,.752,1.76v3.4a4.162,4.162,0,0,0,.26,1.62V0Zm-2.1-.964A2.223,2.223,0,0,0,19.7-1.271a1.861,1.861,0,0,0,.772-.8V-3.589h-.991q-2.324,0-2.324,1.36a1.151,1.151,0,0,0,.4.93A1.524,1.524,0,0,0,18.57-.964Zm1.169-9.522H21.27l-1.832,2.01-1.019,0ZM25.091,0H23.827V-10.5h1.265Zm3.4,0H27.224V-7.4h1.265ZM27.122-9.358a.755.755,0,0,1,.188-.52.706.706,0,0,1,.557-.212.717.717,0,0,1,.561.212.747.747,0,0,1,.191.52.722.722,0,0,1-.191.513.73.73,0,0,1-.561.205.718.718,0,0,1-.557-.205A.73.73,0,0,1,27.122-9.358Zm7.7,7.4a.931.931,0,0,0-.386-.8,3.718,3.718,0,0,0-1.347-.489,6.367,6.367,0,0,1-1.524-.492,2.169,2.169,0,0,1-.834-.684,1.635,1.635,0,0,1-.27-.943A1.919,1.919,0,0,1,31.227-6.9a3,3,0,0,1,1.965-.629,3.091,3.091,0,0,1,2.041.649,2.063,2.063,0,0,1,.783,1.661H34.744a1.142,1.142,0,0,0-.441-.9,1.652,1.652,0,0,0-1.111-.376,1.729,1.729,0,0,0-1.08.3.947.947,0,0,0-.39.786.767.767,0,0,0,.362.69,4.458,4.458,0,0,0,1.309.444,6.821,6.821,0,0,1,1.535.506,2.239,2.239,0,0,1,.872.708,1.74,1.74,0,0,1,.284,1.008,1.893,1.893,0,0,1-.793,1.589,3.326,3.326,0,0,1-2.058.6,3.725,3.725,0,0,1-1.572-.314,2.557,2.557,0,0,1-1.07-.878,2.117,2.117,0,0,1-.386-1.22h1.265a1.309,1.309,0,0,0,.509,1.008A1.976,1.976,0,0,0,33.233-.9a2.039,2.039,0,0,0,1.152-.291A.893.893,0,0,0,34.819-1.962ZM39.1,0H37.84V-7.4H39.1ZM37.738-9.358a.755.755,0,0,1,.188-.52.706.706,0,0,1,.557-.212.717.717,0,0,1,.561.212.747.747,0,0,1,.191.52.722.722,0,0,1-.191.513.73.73,0,0,1-.561.205.718.718,0,0,1-.557-.205A.73.73,0,0,1,37.738-9.358Zm7.7,7.4a.931.931,0,0,0-.386-.8A3.718,3.718,0,0,0,43.7-3.247a6.367,6.367,0,0,1-1.524-.492,2.169,2.169,0,0,1-.834-.684,1.635,1.635,0,0,1-.27-.943A1.919,1.919,0,0,1,41.843-6.9a3,3,0,0,1,1.965-.629,3.091,3.091,0,0,1,2.041.649,2.063,2.063,0,0,1,.783,1.661H45.36a1.142,1.142,0,0,0-.441-.9,1.652,1.652,0,0,0-1.111-.376,1.729,1.729,0,0,0-1.08.3.947.947,0,0,0-.39.786.767.767,0,0,0,.362.69,4.458,4.458,0,0,0,1.309.444,6.821,6.821,0,0,1,1.535.506,2.239,2.239,0,0,1,.872.708A1.74,1.74,0,0,1,46.7-2.051a1.893,1.893,0,0,1-.793,1.589,3.326,3.326,0,0,1-2.058.6,3.725,3.725,0,0,1-1.572-.314,2.557,2.557,0,0,1-1.07-.878,2.117,2.117,0,0,1-.386-1.22h1.265a1.309,1.309,0,0,0,.509,1.008A1.976,1.976,0,0,0,43.849-.9,2.039,2.039,0,0,0,45-1.186.893.893,0,0,0,45.435-1.962Zm-82.893,14.2A4.333,4.333,0,0,1-36.651,9.5a2.551,2.551,0,0,1,2.112-1.036,2.565,2.565,0,0,1,2.058.889V5.5h1.265V16h-1.162l-.062-.793a2.575,2.575,0,0,1-2.112.93,2.526,2.526,0,0,1-2.1-1.053,4.382,4.382,0,0,1-.81-2.748Zm1.265.144a3.281,3.281,0,0,0,.52,1.969,1.68,1.68,0,0,0,1.436.711,1.845,1.845,0,0,0,1.757-1.08v-3.4A1.859,1.859,0,0,0-34.224,9.54a1.687,1.687,0,0,0-1.449.718A3.612,3.612,0,0,0-36.193,12.384Zm10.008,3.753a3.232,3.232,0,0,1-2.447-.988,3.666,3.666,0,0,1-.943-2.642v-.232a4.438,4.438,0,0,1,.42-1.965,3.28,3.28,0,0,1,1.176-1.354,2.956,2.956,0,0,1,1.637-.489,2.77,2.77,0,0,1,2.242.95,4.114,4.114,0,0,1,.8,2.721v.526h-5.011a2.629,2.629,0,0,0,.639,1.767,2.009,2.009,0,0,0,1.555.673,2.2,2.2,0,0,0,1.135-.273,2.851,2.851,0,0,0,.813-.725l.772.6A3.106,3.106,0,0,1-26.185,16.137Zm-.157-6.631a1.687,1.687,0,0,0-1.285.557,2.708,2.708,0,0,0-.643,1.562h3.705v-.1a2.409,2.409,0,0,0-.52-1.494A1.588,1.588,0,0,0-26.342,9.506ZM-20.463,16h-1.265V5.5h1.265Zm11.737-3.616A4.429,4.429,0,0,1-9.5,15.1a2.476,2.476,0,0,1-2.092,1.032,2.713,2.713,0,0,1-2.119-.854v3.562h-1.265V8.6h1.155l.062.82a2.605,2.605,0,0,1,2.146-.957,2.522,2.522,0,0,1,2.109,1,4.477,4.477,0,0,1,.776,2.8Zm-1.265-.144a3.268,3.268,0,0,0-.533-1.976,1.718,1.718,0,0,0-1.463-.725,1.859,1.859,0,0,0-1.723,1.019v3.534A1.863,1.863,0,0,0-11.973,15.1a1.71,1.71,0,0,0,1.446-.721A3.567,3.567,0,0,0-9.991,12.24Zm6.446-2.5a3.79,3.79,0,0,0-.622-.048,1.667,1.667,0,0,0-1.688,1.06V16H-7.12V8.6h1.23l.021.854A1.969,1.969,0,0,1-4.1,8.467a1.292,1.292,0,0,1,.561.1Zm.69,2.5a4.369,4.369,0,0,1,.427-1.955,3.187,3.187,0,0,1,1.189-1.34A3.238,3.238,0,0,1,.5,8.467,3.119,3.119,0,0,1,2.946,9.513a4.024,4.024,0,0,1,.933,2.782v.089a4.407,4.407,0,0,1-.414,1.938,3.14,3.14,0,0,1-1.183,1.336,3.275,3.275,0,0,1-1.767.479,3.111,3.111,0,0,1-2.437-1.046,4,4,0,0,1-.933-2.769Zm1.271.15a3.164,3.164,0,0,0,.571,1.976A1.827,1.827,0,0,0,.516,15.1a1.816,1.816,0,0,0,1.531-.755,3.46,3.46,0,0,0,.567-2.116,3.159,3.159,0,0,0-.578-1.972A1.836,1.836,0,0,0,.5,9.506a1.816,1.816,0,0,0-1.511.745A3.435,3.435,0,0,0-1.583,12.384Zm9.365,1.764L9.505,8.6h1.354L7.885,17.142q-.69,1.846-2.194,1.846l-.239-.021-.472-.089V17.853l.342.027a1.683,1.683,0,0,0,1-.26,1.88,1.88,0,0,0,.591-.95l.28-.752L4.556,8.6H5.937Zm7.185,1.989a3.232,3.232,0,0,1-2.447-.988,3.666,3.666,0,0,1-.943-2.642v-.232A4.438,4.438,0,0,1,12,10.309a3.28,3.28,0,0,1,1.176-1.354,2.956,2.956,0,0,1,1.637-.489,2.77,2.77,0,0,1,2.242.95,4.114,4.114,0,0,1,.8,2.721v.526H12.841a2.629,2.629,0,0,0,.639,1.767,2.009,2.009,0,0,0,1.555.673,2.2,2.2,0,0,0,1.135-.273,2.851,2.851,0,0,0,.813-.725l.772.6A3.106,3.106,0,0,1,14.967,16.137ZM14.81,9.506a1.687,1.687,0,0,0-1.285.557,2.708,2.708,0,0,0-.643,1.562h3.705v-.1a2.409,2.409,0,0,0-.52-1.494A1.588,1.588,0,0,0,14.81,9.506Zm7.472,5.6a1.822,1.822,0,0,0,1.183-.41,1.443,1.443,0,0,0,.561-1.025h1.2a2.293,2.293,0,0,1-.437,1.21,2.881,2.881,0,0,1-1.077.916,3.107,3.107,0,0,1-1.425.342,3.047,3.047,0,0,1-2.4-1.008,4.016,4.016,0,0,1-.892-2.758v-.212a4.453,4.453,0,0,1,.4-1.921,3.02,3.02,0,0,1,1.138-1.306,3.233,3.233,0,0,1,1.753-.465,2.966,2.966,0,0,1,2.068.745,2.663,2.663,0,0,1,.878,1.935h-1.2a1.743,1.743,0,0,0-.543-1.179,1.691,1.691,0,0,0-1.207-.461,1.77,1.77,0,0,0-1.494.694,3.259,3.259,0,0,0-.53,2.006v.239a3.194,3.194,0,0,0,.526,1.969A1.779,1.779,0,0,0,22.282,15.1Zm6.077-8.292V8.6H29.74v.978H28.359v4.593a1.027,1.027,0,0,0,.185.667.777.777,0,0,0,.629.222,3.062,3.062,0,0,0,.6-.082V16a3.688,3.688,0,0,1-.971.136,1.575,1.575,0,0,1-1.278-.513,2.2,2.2,0,0,1-.431-1.456V9.581H25.748V8.6h1.347V6.813Zm2.386,5.421a4.369,4.369,0,0,1,.427-1.955,3.187,3.187,0,0,1,1.189-1.34,3.238,3.238,0,0,1,1.74-.472,3.119,3.119,0,0,1,2.444,1.046,4.024,4.024,0,0,1,.933,2.782v.089a4.407,4.407,0,0,1-.414,1.938,3.14,3.14,0,0,1-1.183,1.336,3.275,3.275,0,0,1-1.767.479,3.111,3.111,0,0,1-2.437-1.046,4,4,0,0,1-.933-2.769Zm1.271.15a3.164,3.164,0,0,0,.571,1.976,1.934,1.934,0,0,0,3.059-.01,3.46,3.46,0,0,0,.567-2.116,3.159,3.159,0,0,0-.578-1.972A1.836,1.836,0,0,0,34.1,9.506a1.816,1.816,0,0,0-1.511.745A3.435,3.435,0,0,0,32.016,12.384Z" transform="translate(492.715 269.874)" fill="#12263f"/>
    <g id="analisis" transform="translate(461.109 184.269)">
      <path id="Trazado_104006" data-name="Trazado 104006" d="M107.139,65.734h30.814a2.266,2.266,0,0,0,2.266-2.266V20.307L129.91,10H96.266A2.266,2.266,0,0,0,94,12.266v51.2a2.266,2.266,0,0,0,2.266,2.266Z" transform="translate(-83.352 -8.867)" fill="#fff"/>
      <path id="Trazado_104007" data-name="Trazado 104007" d="M411,11.167v7.911a2.266,2.266,0,0,0,2.266,2.266h7.911Z" transform="translate(-364.441 -9.902)" fill="#fdd835"/>
      <path id="Trazado_104008" data-name="Trazado 104008" d="M59.65,85.819A13.831,13.831,0,1,1,45.819,99.65H59.65V85.819Z" transform="translate(-40.629 -76.097)" fill="#26ccda"/>
      <path id="Trazado_104009" data-name="Trazado 104009" d="M167.909,99.65V85.819a13.787,13.787,0,0,1,9.78,4.051Z" transform="translate(-148.888 -76.097)" fill="#fdd835"/>
      <path id="Trazado_104010" data-name="Trazado 104010" d="M23.831,50V63.831H10A13.831,13.831,0,0,1,23.831,50Z" transform="translate(-8.867 -44.336)" fill="#f57c00"/>
      <circle id="Elipse_4154" data-name="Elipse 4154" cx="2.266" cy="2.266" r="2.266" transform="translate(47.359 36.884)" fill="#f57c00"/>
      <circle id="Elipse_4155" data-name="Elipse 4155" cx="2.266" cy="2.266" r="2.266" transform="translate(36.221 47.793)" fill="#fdd835"/>
      <circle id="Elipse_4156" data-name="Elipse 4156" cx="2.266" cy="2.266" r="2.266" transform="translate(27.27 39.15)" fill="#26ccda"/>
      <circle id="Elipse_4157" data-name="Elipse 4157" cx="2.266" cy="2.266" r="2.266" transform="translate(18.567 47.798)" fill="#ffa726"/>
      <path id="Trazado_104011" data-name="Trazado 104011" d="M57.668,10.639,47.359.332a1.133,1.133,0,0,0-.8-.332H12.914a3.4,3.4,0,0,0-3.4,3.4v2.16A14.988,14.988,0,0,0,0,19.495a1.133,1.133,0,0,0,1.133,1.133H14.963A1.133,1.133,0,0,0,16.1,19.495V5.664a1.133,1.133,0,0,0-1.133-1.133,14.957,14.957,0,0,0-3.182.342V3.4a1.134,1.134,0,0,1,1.133-1.133H45.426v6.91a3.4,3.4,0,0,0,3.4,3.4h6.91V54.6A1.134,1.134,0,0,1,54.6,55.734H12.914A1.134,1.134,0,0,1,11.781,54.6V44.9a1.133,1.133,0,0,0-2.266,0v9.7a3.4,3.4,0,0,0,3.4,3.4H54.6A3.4,3.4,0,0,0,58,54.6V11.44A1.133,1.133,0,0,0,57.668,10.639ZM13.831,18.362H2.316A12.719,12.719,0,0,1,13.831,6.847V18.362ZM47.691,9.176V3.867l6.442,6.441H48.824A1.134,1.134,0,0,1,47.691,9.176Z"/>
      <path id="Trazado_104012" data-name="Trazado 104012" d="M84.332,350.332a1.132,1.132,0,1,0,.8-.332A1.141,1.141,0,0,0,84.332,350.332Z" transform="translate(-74.484 -310.352)"/>
      <path id="Trazado_104013" data-name="Trazado 104013" d="M65.746,90.782A14.98,14.98,0,0,0,50.782,75.819a1.133,1.133,0,0,0-1.133,1.133v12.7h-12.7a1.133,1.133,0,0,0-1.133,1.133,14.963,14.963,0,1,0,29.927,0Zm-6.826-9.74-7,7V78.135A12.641,12.641,0,0,1,58.92,81.043ZM38.135,91.915H50.782a1.129,1.129,0,0,0,.8-.331h0l8.939-8.939a12.7,12.7,0,1,1-22.388,9.271Z" transform="translate(-31.761 -67.23)"/>
      <path id="Trazado_104014" data-name="Trazado 104014" d="M169.4,321.269a3.4,3.4,0,1,0-6.484,1.422l-4.157,4.157a3.4,3.4,0,1,0,1.6,1.6l4.134-4.134a3.388,3.388,0,0,0,3.183-.092l4.212,4.212a3.4,3.4,0,1,0,6.135.033L184.5,322a3.4,3.4,0,1,0-1.531-1.673l-6.526,6.526a3.392,3.392,0,0,0-2.935-.015l-4.334-4.334A3.381,3.381,0,0,0,169.4,321.269Zm-12.1,9.78a1.133,1.133,0,1,1,.784-1.949l.013.014.017.015a1.132,1.132,0,0,1-.814,1.919Zm8.7-8.647a1.133,1.133,0,1,1,1.133-1.133A1.134,1.134,0,0,1,166.007,322.4ZM186.1,317.87A1.133,1.133,0,1,1,184.963,319,1.134,1.134,0,0,1,186.1,317.87Zm-10.007,12.041a1.133,1.133,0,1,1-1.133-1.133A1.134,1.134,0,0,1,176.089,329.911Z" transform="translate(-136.47 -279.853)"/>
      <path id="Trazado_104015" data-name="Trazado 104015" d="M326.444,237.266h5.979a1.133,1.133,0,0,0,0-2.266h-5.979a1.133,1.133,0,0,0,0,2.266Z" transform="translate(-288.459 -208.379)"/>
      <path id="Trazado_104016" data-name="Trazado 104016" d="M423.952,235.332a1.132,1.132,0,1,0,.8-.332A1.142,1.142,0,0,0,423.952,235.332Z" transform="translate(-375.632 -208.379)"/>
      <path id="Trazado_104017" data-name="Trazado 104017" d="M326.444,141.266h13.838a1.133,1.133,0,0,0,0-2.266H326.444a1.133,1.133,0,0,0,0,2.266Z" transform="translate(-288.459 -123.254)"/>
      <path id="Trazado_104018" data-name="Trazado 104018" d="M326.444,189.266h13.838a1.133,1.133,0,0,0,0-2.266H326.444a1.133,1.133,0,0,0,0,2.266Z" transform="translate(-288.459 -165.816)"/>
    </g>
  </g>
</svg>
