<svg xmlns="http://www.w3.org/2000/svg" width="93.646" height="114.791" viewBox="0 0 93.646 114.791">
  <g id="creatividad" transform="translate(-47.191 0.001)">
    <g id="Grupo_56621" data-name="Grupo 56621" transform="translate(48.871 1.679)">
      <path id="Trazado_104166" data-name="Trazado 104166" d="M92.488,117.491V105.845a4.829,4.829,0,0,0-4.81-4.829L70.97,100.95a5.9,5.9,0,0,1-5.791-4.9L62.336,79.526H56.07a1.378,1.378,0,0,1-1.378-1.378,28.233,28.233,0,0,1,4.254-14.9l2.039-3.28a2.49,2.49,0,0,0,.368-1.506l-.765-9.9A37.064,37.064,0,0,1,97.542,8.635a39.364,39.364,0,0,1,37.7,50.7L127.516,85v32.3a2.305,2.305,0,0,1-2.291,2.305l-30.417.183a2.305,2.305,0,0,1-2.319-2.305Z" transform="translate(-54.692 -8.381)" fill="#ffcebf"/>
      <path id="Trazado_104167" data-name="Trazado 104167" d="M103.315,127.663v-19.04a4.829,4.829,0,0,0-4.81-4.829L81.8,103.729a5.9,5.9,0,0,1-5.791-4.9L74.226,88.48A7.437,7.437,0,0,0,66.9,82.3a1.383,1.383,0,0,1-1.378-1.384,28.231,28.231,0,0,1,4.254-14.9l2.039-3.28a2.49,2.49,0,0,0,.368-1.506l-.765-9.9A36.968,36.968,0,0,1,83.4,21.086a37.083,37.083,0,0,0-22.812,37.13l.765,9.9a2.49,2.49,0,0,1-.368,1.506l-2.039,3.28a28.232,28.232,0,0,0-4.254,14.9,1.378,1.378,0,0,0,1.378,1.378h6.267l2.843,16.526a5.9,5.9,0,0,0,5.791,4.9l16.708.065a4.829,4.829,0,0,1,4.81,4.829v11.647a2.305,2.305,0,0,0,2.319,2.305l9.3-.056A2.3,2.3,0,0,1,103.315,127.663Z" transform="translate(-54.693 -18.042)" fill="#ffb09e"/>
      <g id="Grupo_56620" data-name="Grupo 56620" transform="translate(45.708)">
        <path id="Trazado_104168" data-name="Trazado 104168" d="M321.171,236.509h-8.217v3.648a4.109,4.109,0,0,0,8.217,0Z" transform="translate(-300.805 -185.205)" fill="#e2dee2"/>
        <path id="Trazado_104169" data-name="Trazado 104169" d="M291.24,23.758A16.258,16.258,0,1,0,264.26,35.974a5.437,5.437,0,0,1,1.882,4.079v9.684h17.68V40.052A5.389,5.389,0,0,1,285.677,36a16.213,16.213,0,0,0,5.562-12.239Z" transform="translate(-258.724 -7.5)" fill="#fdd835"/>
        <path id="Trazado_104170" data-name="Trazado 104170" d="M272.6,35.974a16.25,16.25,0,0,1,6.559-27.928,16.254,16.254,0,0,0-14.9,27.928,5.437,5.437,0,0,1,1.882,4.079v9.684h8.337V40.053a5.438,5.438,0,0,0-1.882-4.079Z" transform="translate(-258.723 -7.5)" fill="#ffa726"/>
        <path id="Trazado_104171" data-name="Trazado 104171" d="M302.918,182.033h-18.4a1.647,1.647,0,0,0-1.647,1.647v5.906a6,6,0,0,0,6,6h9.707a6,6,0,0,0,6-6V183.68A1.647,1.647,0,0,0,302.918,182.033Z" transform="translate(-277.459 -142.933)" fill="#efedef"/>
      </g>
    </g>
    <g id="Grupo_56622" data-name="Grupo 56622" transform="translate(47.191 -0.001)">
      <path id="Trazado_104172" data-name="Trazado 104172" d="M373.941,429.091a1.68,1.68,0,0,0-1.68,1.68v15.091a1.68,1.68,0,0,0,3.36,0V430.771A1.68,1.68,0,0,0,373.941,429.091Z" transform="translate(-299.437 -332.963)"/>
      <path id="Trazado_104173" data-name="Trazado 104173" d="M381.539,130.937A1.68,1.68,0,0,0,380.36,133a37.525,37.525,0,0,1-.308,20.711l-7.721,25.667a1.679,1.679,0,0,0-.071.484v12.343a1.68,1.68,0,1,0,3.36,0v-12.1l7.65-25.43a40.885,40.885,0,0,0,.332-22.564A1.68,1.68,0,0,0,381.539,130.937Z" transform="translate(-299.436 -101.557)"/>
      <path id="Trazado_104174" data-name="Trazado 104174" d="M81.864,155.505l-16.708-.065a4.213,4.213,0,0,1-4.141-3.5l-2.843-16.526a1.68,1.68,0,0,0-1.656-1.4H50.553a26.528,26.528,0,0,1,4-13.714l2.039-3.281a4.143,4.143,0,0,0,.616-2.523l-.765-9.9A35.118,35.118,0,0,1,61.43,83.572a1.68,1.68,0,1,0-2.874-1.741,38.46,38.46,0,0,0-5.464,23.022l.765,9.9a.8.8,0,0,1-.12.49l-2.039,3.28a29.886,29.886,0,0,0-4.508,15.791,3.062,3.062,0,0,0,3.058,3.058H55.1l2.6,15.131a7.568,7.568,0,0,0,7.44,6.294l16.708.065a3.155,3.155,0,0,1,3.136,3.148V175.98a1.68,1.68,0,0,0,3.36,0V162.014A6.521,6.521,0,0,0,81.864,155.505Z" transform="translate(-47.191 -62.87)"/>
      <path id="Trazado_104175" data-name="Trazado 104175" d="M149.434,3a1.68,1.68,0,0,0-1.57-1.783c-.906-.058-1.811-.087-2.687-.087a38.824,38.824,0,0,0-28.66,12.677A1.68,1.68,0,0,0,119,16.072,35.456,35.456,0,0,1,145.176,4.494c.806,0,1.638.027,2.474.08A1.681,1.681,0,0,0,149.434,3Z" transform="translate(-100.646 -0.88)"/>
      <path id="Trazado_104176" data-name="Trazado 104176" d="M281.638,49.207h.49a1.68,1.68,0,1,0,0-3.36h-.439v-3.42a3.331,3.331,0,0,0-2.009-3.053V34.23a3.713,3.713,0,0,1,1.281-2.79,17.927,17.927,0,0,0,3.6-22.7,1.68,1.68,0,1,0-2.883,1.726,14.566,14.566,0,0,1-2.924,18.448,7.072,7.072,0,0,0-2.43,5.32V39.1H262V34.232a7.127,7.127,0,0,0-2.453-5.341,14.575,14.575,0,0,1,17.7-23.082,1.68,1.68,0,1,0,1.867-2.794,17.935,17.935,0,0,0-21.782,28.4,3.766,3.766,0,0,1,1.31,2.816v5.141a3.331,3.331,0,0,0-2.009,3.053v3.42h-.6a1.68,1.68,0,0,0,0,3.36h.648a7.688,7.688,0,0,0,6.689,6.742v.683a5.789,5.789,0,1,0,11.578,0v-.683a7.687,7.687,0,0,0,6.689-6.742Zm-21.646-6.747h18.337v3.387H259.991Zm.089,6.747h18.158a4.322,4.322,0,0,1-4.226,3.44h-9.707A4.322,4.322,0,0,1,260.081,49.207Zm11.508,7.424a2.428,2.428,0,0,1-4.857,0v-.623h4.857Z" transform="translate(-205.513 0.001)"/>
      <path id="Trazado_104177" data-name="Trazado 104177" d="M440.709,57.621a1.673,1.673,0,0,0,.686-.147l2.5-1.122a1.68,1.68,0,1,0-1.375-3.066l-2.5,1.122a1.681,1.681,0,0,0,.688,3.214Z" transform="translate(-351.245 -41.233)"/>
      <path id="Trazado_104178" data-name="Trazado 104178" d="M443.9,112.583l-2.5-1.122a1.68,1.68,0,1,0-1.375,3.066l2.5,1.122a1.68,1.68,0,0,0,1.375-3.066Z" transform="translate(-351.246 -86.376)"/>
      <path id="Trazado_104179" data-name="Trazado 104179" d="M194.871,56.351l2.5,1.122a1.68,1.68,0,0,0,1.374-3.066l-2.5-1.122a1.68,1.68,0,1,0-1.374,3.066Z" transform="translate(-161.016 -41.233)"/>
      <path id="Trazado_104180" data-name="Trazado 104180" d="M194.025,114.8a1.679,1.679,0,0,0,2.22.846l2.5-1.122a1.68,1.68,0,0,0-1.375-3.066l-2.5,1.122A1.681,1.681,0,0,0,194.025,114.8Z" transform="translate(-161.016 -86.375)"/>
    </g>
  </g>
</svg>
