<svg xmlns="http://www.w3.org/2000/svg" xmlns:xlink="http://www.w3.org/1999/xlink" width="208" height="208" viewBox="0 0 208 208">
  <defs>
    <filter id="Elipse_4263" x="0" y="0" width="208" height="208" filterUnits="userSpaceOnUse">
      <feOffset dx="-6" dy="6" input="SourceAlpha"/>
      <feGaussianBlur stdDeviation="3" result="blur"/>
      <feFlood flood-opacity="0.161"/>
      <feComposite operator="in" in2="blur"/>
      <feComposite in="SourceGraphic"/>
    </filter>
  </defs>
  <g id="Grupo_120363" data-name="Grupo 120363" transform="translate(-1110.285 -2726)">
    <g transform="matrix(1, 0, 0, 1, 1110.29, 2726)" filter="url(#Elipse_4263)">
      <g id="Elipse_4263-2" data-name="Elipse 4263" transform="translate(15 3)" fill="#fff" stroke="#26ccda" stroke-width="6">
        <circle cx="95" cy="95" r="95" stroke="none"/>
        <circle cx="95" cy="95" r="92" fill="none"/>
      </g>
    </g>
    <g id="divisa" transform="translate(1180.137 2763.37)">
      <path id="Trazado_103968" data-name="Trazado 103968" d="M193.765,290.624,183.059,287.6a1.813,1.813,0,0,0-2.08.869l-5.361,9.748a.533.533,0,0,1-.958-.05l-4.817-11.511-11.6-27.712,8.589-20.52,7.3,3.054,7.309,17.464L194.4,289.906A.533.533,0,0,1,193.765,290.624Zm0,0" transform="translate(-122.508 -184.58)" fill="#ffa726"/>
      <path id="Trazado_103969" data-name="Trazado 103969" d="M181.443,258.943l-11.6,27.714-11.6-27.712,8.589-20.52,7.3,3.055Zm0,0" transform="translate(-122.508 -184.58)" fill="#f57c00"/>
      <path id="Trazado_103970" data-name="Trazado 103970" d="M73.826,289.86l-5.362-9.747a1.81,1.81,0,0,0-2.078-.87L55.68,282.265a.532.532,0,0,1-.635-.717L77.61,227.629l19.739,8.261L74.783,289.809A.532.532,0,0,1,73.826,289.86Zm0,0" transform="translate(-42.58 -176.221)" fill="#fdd835"/>
      <path id="Trazado_103971" data-name="Trazado 103971" d="M52.854,9.3l6.586,5.429a7.564,7.564,0,0,0,4.09,1.694l8.5.819a7.57,7.57,0,0,1,6.809,6.809l.819,8.5a7.568,7.568,0,0,0,1.694,4.09l5.429,6.586a7.571,7.571,0,0,1,0,9.631L81.348,59.44a7.568,7.568,0,0,0-1.694,4.09l-.819,8.5a7.569,7.569,0,0,1-6.809,6.809l-8.5.819a7.571,7.571,0,0,0-4.09,1.694l-6.586,5.429a7.571,7.571,0,0,1-9.631,0l-6.586-5.429a7.565,7.565,0,0,0-4.09-1.694l-8.5-.819a7.569,7.569,0,0,1-6.809-6.809l-.818-8.5a7.569,7.569,0,0,0-1.695-4.09L9.3,52.854a7.571,7.571,0,0,1,0-9.631l5.429-6.586a7.569,7.569,0,0,0,1.695-4.09l.818-8.5a7.57,7.57,0,0,1,6.809-6.809l8.5-.819a7.558,7.558,0,0,0,4.09-1.694L43.223,9.3A7.571,7.571,0,0,1,52.854,9.3Zm0,0" transform="translate(-5.861 -5.861)" fill="#ffd782"/>
      <path id="Trazado_103972" data-name="Trazado 103972" d="M125.891,100.82a25.07,25.07,0,1,1-25.07-25.07A25.071,25.071,0,0,1,125.891,100.82Zm0,0" transform="translate(-58.642 -58.642)" fill="#26ccda"/>
      <path id="Trazado_103973" data-name="Trazado 103973" d="M165.182,75.746a25.1,25.1,0,0,0-6.3.8,25.078,25.078,0,0,1,0,48.547,25.073,25.073,0,1,0,6.3-49.344Zm0,0" transform="translate(-123.004 -58.639)" fill="#26ccda" style="mix-blend-mode: multiply;isolation: isolate"/>
      <path id="Trazado_103974" data-name="Trazado 103974" d="M123.168,162.935a3.532,3.532,0,0,1-2.5-1.034l-7.489-7.489a3.529,3.529,0,1,1,4.99-4.99l4.994,4.994,13.853-13.853a3.528,3.528,0,1,1,4.99,4.99L125.663,161.9A3.528,3.528,0,0,1,123.168,162.935Zm0,0" transform="translate(-86.822 -108.018)" fill="#fff"/>
      <path id="Trazado_103975" data-name="Trazado 103975" d="M82.24,36.272l-5.429-6.586a5.826,5.826,0,0,1-1.31-3.163l-.819-8.5A9.3,9.3,0,0,0,66.33,9.674l-8.5-.818a5.839,5.839,0,0,1-3.163-1.31l-6.586-5.43a9.3,9.3,0,0,0-11.811,0l-6.586,5.43a5.834,5.834,0,0,1-3.163,1.31l-8.5.818a9.3,9.3,0,0,0-8.352,8.352l-.818,8.5a5.839,5.839,0,0,1-1.31,3.163l-5.43,6.586a9.3,9.3,0,0,0,0,11.811l5.43,6.586a5.839,5.839,0,0,1,1.31,3.163l.818,8.5a9.3,9.3,0,0,0,8.352,8.352l5.193.5L10.881,104.667a2.247,2.247,0,0,0,2.684,3.028l10.705-3.022a.1.1,0,0,1,.113.045l5.361,9.748a2.227,2.227,0,0,0,1.965,1.164l.117,0a2.238,2.238,0,0,0,1.96-1.376L46.813,83.118a9.255,9.255,0,0,0,1.271-.879l6.586-5.429a5.824,5.824,0,0,1,2.9-1.275l11.8,28.193-8.35-2.357a3.514,3.514,0,0,0-4.047,1.693l-4.181,7.6L47.249,97.43a1.715,1.715,0,1,0-3.163,1.323l6.488,15.506a2.234,2.234,0,0,0,1.957,1.367c.04,0,.079,0,.117,0a2.228,2.228,0,0,0,1.965-1.164l5.36-9.746a.1.1,0,0,1,.113-.047l10.7,3.022a2.248,2.248,0,0,0,2.685-3.029L61.136,75.181l5.193-.5a9.3,9.3,0,0,0,8.352-8.352l.819-8.5a5.823,5.823,0,0,1,1.31-3.163l5.429-6.586A9.3,9.3,0,0,0,82.24,36.272ZM31.568,110.667l-4.182-7.6a3.513,3.513,0,0,0-4.047-1.691l-8.349,2.356,11.8-28.192a5.83,5.83,0,0,1,2.9,1.274l6.586,5.43a9.268,9.268,0,0,0,5.906,2.115c.135,0,.269,0,.4-.01ZM79.594,45.9l-5.429,6.586A9.245,9.245,0,0,0,72.087,57.5L71.269,66A5.866,5.866,0,0,1,66,71.268l-7.463.719c-.029,0-.059,0-.088.009l-.945.091a9.251,9.251,0,0,0-5.016,2.078L45.9,79.593a5.865,5.865,0,0,1-7.449,0l-6.586-5.429a9.244,9.244,0,0,0-5.016-2.078l-.949-.092c-.026,0-.052-.005-.079-.007l-7.468-.72A5.866,5.866,0,0,1,13.088,66l-.818-8.5a9.245,9.245,0,0,0-2.078-5.016L4.763,45.9a5.866,5.866,0,0,1,0-7.45l5.429-6.586a9.245,9.245,0,0,0,2.078-5.016l.818-8.5a5.866,5.866,0,0,1,5.267-5.267l8.5-.818a9.251,9.251,0,0,0,5.016-2.078l6.586-5.429a5.864,5.864,0,0,1,7.449,0l6.586,5.429a9.244,9.244,0,0,0,5.016,2.078l8.5.818a5.866,5.866,0,0,1,5.267,5.267l.818,8.5a9.245,9.245,0,0,0,2.078,5.016l5.429,6.586A5.868,5.868,0,0,1,79.594,45.9Zm0,0"/>
      <path id="Trazado_103976" data-name="Trazado 103976" d="M94.942,68.156a27.052,27.052,0,0,0-3.426.217,1.715,1.715,0,0,0,.435,3.4,23.624,23.624,0,0,1,2.991-.19,23.336,23.336,0,1,1-9.557,2.038,1.714,1.714,0,0,0-1.4-3.128,26.8,26.8,0,1,0,10.962-2.339Zm0,0" transform="translate(-52.763 -52.763)"/>
      <path id="Trazado_103977" data-name="Trazado 103977" d="M106.1,142.339a5.249,5.249,0,0,0,0,7.415l7.489,7.49a5.246,5.246,0,0,0,7.416,0l16.348-16.348a5.244,5.244,0,0,0-7.416-7.416L117.3,146.12l-3.782-3.781A5.249,5.249,0,0,0,106.1,142.339Zm11.2,7.921a1.714,1.714,0,0,0,1.212-.5L132.366,135.9a1.814,1.814,0,0,1,2.565,2.565l-16.348,16.348a1.815,1.815,0,0,1-2.565,0l-7.49-7.489a1.814,1.814,0,0,1,2.565-2.566l4.994,4.994A1.715,1.715,0,0,0,117.3,150.26Zm0,0" transform="translate(-80.955 -102.147)"/>
    </g>
  </g>
</svg>
