<svg id="Grupo_120299" data-name="Grupo 120299" xmlns="http://www.w3.org/2000/svg" xmlns:xlink="http://www.w3.org/1999/xlink" width="79.978" height="80" viewBox="0 0 79.978 80">
  <defs>
    <clipPath id="clip-path">
      <rect id="Rectángulo_37260" data-name="Rectángulo 37260" width="79.978" height="80" fill="none"/>
    </clipPath>
  </defs>
  <g id="Grupo_120298" data-name="Grupo 120298" clip-path="url(#clip-path)">
    <path id="Trazado_181318" data-name="Trazado 181318" d="M33.954,129.608c.315-1.217.749-1.546,2.049-1.55.729,0,1.459-.026,2.186.009.44.022.557-.113.563-.555a32.39,32.39,0,0,1,.119-4.6,8.624,8.624,0,0,1,2.331-4.746,1.61,1.61,0,0,0,.5-1.225c-.01-5.675-.071-11.351.03-17.024.114-6.412,5.331-12.1,11.687-13.138a14.1,14.1,0,0,1,16.743,14.113c-.014,5.363,0,10.725-.015,16.088a1.513,1.513,0,0,0,.472,1.156,8.7,8.7,0,0,1,2.468,5.821c.051,1.2.035,2.395.011,3.592-.008.413.114.523.52.516,1.484-.023,2.968-.016,4.451-.007,1.315.008,1.908.6,1.909,1.911q.008,8.825,0,17.65c0,1.478-.561,1.994-2.14,1.994H10.362c-2.707,0-5.415-.038-8.121.021A2.714,2.714,0,0,1,0,148.677v-8.9c.485-.578.433-1.347.718-2a10.187,10.187,0,0,1,8.292-6.277c1.051-.168,2.094-.388,3.141-.585a1.945,1.945,0,0,0,1.25-.727c.532-.7.463-1.059-.258-1.557a9.987,9.987,0,0,1-4.541-7.23,38.414,38.414,0,0,1,0-9.113,10.47,10.47,0,0,1,10.519-9.08,10.6,10.6,0,0,1,10.548,10.356c.048,2.107.057,4.218,0,6.324a10.414,10.414,0,0,1-4.861,8.841c-.357.238-.643.459-.336.919a1.668,1.668,0,0,0,1.442,1.249q1.6.329,3.218.605c5,.848,8.285,4.031,8.893,8.871a40.142,40.142,0,0,1,.076,5.46c-.007.562.161.674.694.673q18.705-.023,37.41,0c.477,0,.665-.078.663-.622q-.036-7.029,0-14.058c0-.5-.113-.657-.635-.65-2.16.031-4.322.038-6.482,0-.6-.011-.723.158-.717.731.031,2.968.019,5.936.012,8.9,0,1.373-.575,1.934-1.96,1.94q-2.5.009-5,0c-1.214,0-1.657-.364-1.963-1.564.31-1.2.75-1.552,1.962-1.558,1.092-.006,2.184-.019,3.275.008.42.01.578-.078.573-.542q-.036-3.7,0-7.408c0-.435-.151-.5-.533-.5q-9.475.015-18.949,0c-.381,0-.537.065-.534.5q.034,3.7,0,7.408c0,.463.152.554.573.542.987-.029,1.975-.014,2.963-.008,1.212.007,1.651.36,1.962,1.558-.306,1.2-.749,1.559-1.958,1.564-1.533.006-3.066,0-4.6,0S42.8,142.2,42.8,140.664c0-2.963-.012-5.925.011-8.887,0-.475-.11-.613-.6-.607-2.078.029-4.158.015-6.236.011-1.278,0-1.721-.352-2.022-1.574M3.182,140.866H7.227c2.107,0,4.215-.01,6.322,0,1.237.008,1.936.758,1.763,1.841a1.592,1.592,0,0,1-1.785,1.277c-2.888.008-5.776,0-8.663,0-1.743,0-1.709,0-1.756,1.713-.018.658.166.8.81.8q14.127-.034,28.254-.016c.781,0,1.562-.017,2.341.007.374.012.49-.11.485-.484-.022-1.613.042-3.229-.034-4.838a6.647,6.647,0,0,0-5.126-6.3c-1.708-.439-3.464-.686-5.184-1.08a1.821,1.821,0,0,0-1.2-.022,10.528,10.528,0,0,1-8.793,0,1.142,1.142,0,0,0-.833-.1,37.073,37.073,0,0,1-4.724.975,6.859,6.859,0,0,0-5.918,6.219M26.554,117.1c0-1.2.014-2.184,0-3.173a7.54,7.54,0,0,0-5.706-7.38,7.458,7.458,0,0,0-9.156,6.2,50.169,50.169,0,0,0-.082,7.482,7.26,7.26,0,0,0,2.849,5.5,7.529,7.529,0,0,0,11.638-3.344,17.6,17.6,0,0,0,.461-5.279M55.836,128.06c4.5,0,9-.007,13.5.01.49,0,.68-.1.657-.632-.046-1.091.034-2.188-.032-3.276a5.754,5.754,0,0,0-3.78-5.333A23.392,23.392,0,0,0,62.463,118a.787.787,0,0,0-.962.378c-1.335,1.858-2.693,3.7-4.05,5.541-1,1.36-2.056,1.365-3.053.013-1.342-1.821-2.686-3.64-4-5.478a.866.866,0,0,0-1.08-.445c-.875.235-1.79.319-2.675.523a5.907,5.907,0,0,0-4.777,5.926c-.014.962.035,1.927-.016,2.887-.031.582.133.733.722.729,4.422-.027,8.845-.015,13.267-.015m11.185-20.572c0-2.238,0-4.476,0-6.714a10.712,10.712,0,0,0-.277-2.628,11.1,11.1,0,0,0-12.527-8.324c-5.009.745-9.155,4.906-9.329,9.764-.187,5.224-.056,10.459-.075,15.689,0,.4.1.487.495.385.778-.2,1.567-.361,2.355-.526s1.582-.291,2.362-.483a1.189,1.189,0,0,0,.916-.966c.093-.492-.407-.539-.669-.735a9.5,9.5,0,0,1-3.758-5.65c-.544-2.443-.246-4.925-.245-7.389a1.445,1.445,0,0,1,1.582-1.4c1.066-.029,2.134-.034,3.2-.007a7.768,7.768,0,0,0,6.284-2.555,1.568,1.568,0,0,1,2.239-.336c1.712.984,3.4,2,5.11,3a1.763,1.763,0,0,1,.933,1.672c-.017,1.587.023,3.175-.012,4.762a9.478,9.478,0,0,1-4.3,8.048c-.541.37-.5.7-.146,1.128a1.771,1.771,0,0,0,1.081.564c1.377.265,2.766.486,4.121.836.652.168.669-.048.665-.561-.017-2.524-.008-5.048-.008-7.572m-4.559-4.256c.639-1.786-.417-2.875-2.165-3.584a4.2,4.2,0,0,1-.873-.509.677.677,0,0,0-1,.057,9.867,9.867,0,0,1-3.375,1.881,14.461,14.461,0,0,1-5.084.54c-.45-.009-.646.069-.624.583.046,1.038-.007,2.08.026,3.118A6.558,6.558,0,0,0,61.7,108.192a9.1,9.1,0,0,0,.763-4.96M54.228,114.6c-.67.157-.538,1.144-1.091,1.551-.174.128-.339.349-.134.6.032.041.066.08.1.122.842,1.152,1.693,2.3,2.522,3.461.249.349.4.282.617-.023.833-1.159,1.68-2.308,2.528-3.456.132-.179.246-.342.069-.548a4.628,4.628,0,0,1-.868-1.463c-.116-.324-.375-.237-.587-.2a8.537,8.537,0,0,1-3.149-.049M19.06,131.771c.778-.219,1.524-.427,2.269-.641a.266.266,0,0,0,.182-.419c-.1-.213-.087-.54-.482-.465a10.446,10.446,0,0,1-3.936,0c-.392-.075-.389.239-.489.456-.092.2-.057.36.171.425.769.221,1.54.435,2.285.645" transform="translate(0 -69.636)" fill="#010101"/>
    <path id="Trazado_181319" data-name="Trazado 181319" d="M42.644,0c.051.223.242.134.378.169a6.17,6.17,0,0,1,4.765,6q.075,3.512,0,7.026a6.072,6.072,0,0,1-5.533,6.1c-.622.076-.743.289-.714.844.043.831,0,1.665.013,2.5a1.591,1.591,0,0,1-2.8,1.2Q36.731,21.82,34.72,19.8A4.724,4.724,0,0,0,32,19.378c-.216.117-.128.319-.129.485-.008.963,0,1.926,0,2.889-.008,4.021-2.614,6.612-6.658,6.615-3.1,0-6.194.01-9.291-.009a1.372,1.372,0,0,0-1.085.454c-1.9,1.93-3.817,3.838-5.732,5.751a1.662,1.662,0,0,1-1.755.54,1.486,1.486,0,0,1-1.051-1.146,3.28,3.28,0,0,1-.044-.776c0-1.431-.006-2.863,0-4.294,0-.3.021-.511-.412-.553A6.05,6.05,0,0,1,.235,24.8C.2,24.678.164,24.54,0,24.525V13.278c.2-.024.229-.207.265-.341A6.282,6.282,0,0,1,6.683,8.423c2.414.059,4.831.015,7.247.009.644,0,1.487.208,1.876-.115.411-.342.115-1.216.121-1.856a6.392,6.392,0,0,1,2.6-5.31A19.956,19.956,0,0,1,20.931,0ZM9.372,30.888c1.358-1.366,2.591-2.58,3.792-3.825a2.583,2.583,0,0,1,2.011-.831c3.461.025,6.922.021,10.382.006a3,3,0,0,0,3.168-2.966q.064-4.37,0-8.743a2.941,2.941,0,0,0-2.937-2.952q-9.836-.046-19.672,0a2.943,2.943,0,0,0-2.971,2.918q-.07,4.409,0,8.821a2.989,2.989,0,0,0,2.973,2.922c.416.017.833,0,1.249.007,1.438.008,2,.557,2,1.975,0,.822,0,1.643,0,2.671M38.39,19.1c.171-2.654.363-2.84,2.766-2.844,2.323,0,3.523-1.19,3.526-3.489q0-3.085,0-6.169c0-2.265-1.205-3.478-3.456-3.481q-5.193,0-10.386,0c-2.889,0-5.779-.016-8.668.006a3.043,3.043,0,0,0-3.123,3.1c-.013.546.035,1.1-.014,1.639-.046.512.163.595.619.589,1.952-.023,3.9-.029,5.857-.006a6.185,6.185,0,0,1,6.3,5.532c.111.754-.333,1.814.259,2.183s1.566.116,2.371.083a2.356,2.356,0,0,1,1.941.8c.614.664,1.266,1.293,2.011,2.048" fill="#010101"/>
    <path id="Trazado_181320" data-name="Trazado 181320" d="M134.515,306.425c.3,1.222.745,1.571,2.022,1.574,2.079,0,4.158.018,6.237-.011.489-.007.6.131.6.607-.022,2.962-.013,5.925-.011,8.887,0,1.536.534,2.074,2.053,2.077s3.066.005,4.6,0c1.209-.005,1.652-.365,1.958-1.564H154.9c.272,1.041.833,1.579,1.622,1.554s1.285-.535,1.541-1.554h2.616c.306,1.2.749,1.559,1.963,1.564q2.5.009,5,0c1.386-.005,1.958-.567,1.96-1.94.006-2.968.018-5.936-.012-8.9-.006-.573.12-.742.717-.731,2.16.041,4.322.034,6.482,0,.522-.007.637.151.635.65q-.028,7.029,0,14.058c0,.544-.185.622-.663.622q-18.705-.018-37.41,0c-.533,0-.7-.111-.694-.673a40.142,40.142,0,0,0-.076-5.46c-.608-4.84-3.89-8.023-8.893-8.871q-1.614-.274-3.218-.605a1.668,1.668,0,0,1-1.442-1.249l9.483-.035" transform="translate(-100.562 -246.453)" fill="#9b5003"/>
    <path id="Trazado_181321" data-name="Trazado 181321" d="M15.946,334.208a6.859,6.859,0,0,1,5.918-6.219,37.108,37.108,0,0,0,4.724-.975,1.142,1.142,0,0,1,.833.1,10.527,10.527,0,0,0,8.793,0,1.821,1.821,0,0,1,1.2.022c1.72.394,3.476.641,5.184,1.08a6.646,6.646,0,0,1,5.126,6.3c.077,1.61.012,3.226.034,4.838.005.374-.11.5-.485.484-.78-.025-1.561-.007-2.341-.007q-14.127,0-28.254.016c-.644,0-.828-.144-.81-.8.047-1.711.013-1.712,1.756-1.712,2.888,0,5.776.005,8.663,0a1.593,1.593,0,0,0,1.785-1.277c.172-1.083-.527-1.832-1.763-1.841-2.107-.014-4.215,0-6.322,0H15.946m17.607,1.553a1.565,1.565,0,0,0-1.544-1.543,1.552,1.552,0,1,0,.019,3.1,1.563,1.563,0,0,0,1.525-1.562" transform="translate(-12.763 -262.978)" fill="#f57c00"/>
    <path id="Trazado_181322" data-name="Trazado 181322" d="M73.844,198.172a17.6,17.6,0,0,1-.461,5.279A7.529,7.529,0,0,1,61.746,206.8a7.26,7.26,0,0,1-2.849-5.5,50.17,50.17,0,0,1,.082-7.482,7.458,7.458,0,0,1,9.156-6.2A7.54,7.54,0,0,1,73.842,195c.017.988,0,1.977,0,3.173" transform="translate(-47.291 -150.711)" fill="#868690"/>
    <path id="Trazado_181323" data-name="Trazado 181323" d="M227.79,257.013c-4.422,0-8.845-.013-13.267.015-.589,0-.753-.147-.722-.729.052-.96,0-1.925.017-2.887a5.907,5.907,0,0,1,4.777-5.926c.885-.2,1.8-.288,2.675-.523a.867.867,0,0,1,1.08.445c1.319,1.838,2.663,3.657,4,5.477,1,1.352,2.051,1.348,3.053-.013,1.356-1.843,2.714-3.684,4.049-5.541a.788.788,0,0,1,.962-.378,23.406,23.406,0,0,1,3.719.828,5.754,5.754,0,0,1,3.78,5.333c.066,1.089-.014,2.186.032,3.276.022.533-.167.634-.657.632-4.5-.017-9-.01-13.5-.01" transform="translate(-171.954 -198.589)" fill="#26ccda"/>
    <path id="Trazado_181324" data-name="Trazado 181324" d="M251.078,120.282c0,2.524-.009,5.048.008,7.572,0,.512-.014.729-.665.561-1.355-.35-2.744-.571-4.121-.836a1.772,1.772,0,0,1-1.081-.563c-.358-.425-.4-.759.145-1.128a9.479,9.479,0,0,0,4.3-8.048c.034-1.587-.005-3.175.012-4.762a1.764,1.764,0,0,0-.933-1.672c-1.7-1-3.4-2.012-5.109-3a1.568,1.568,0,0,0-2.239.336,7.768,7.768,0,0,1-6.283,2.555c-1.066-.027-2.134-.022-3.2.007a1.445,1.445,0,0,0-1.582,1.4c0,2.465-.3,4.946.246,7.39a9.5,9.5,0,0,0,3.758,5.65c.262.2.762.243.669.735a1.189,1.189,0,0,1-.916.966c-.78.192-1.576.318-2.362.483s-1.577.323-2.355.526c-.39.1-.5.012-.495-.385.019-5.23-.112-10.465.075-15.689.174-4.858,4.32-9.018,9.329-9.764A11.1,11.1,0,0,1,250.8,110.94a10.712,10.712,0,0,1,.277,2.628c-.006,2.238,0,4.476,0,6.714" transform="translate(-184.057 -82.43)" fill="#9b5003"/>
    <path id="Trazado_181325" data-name="Trazado 181325" d="M243.019,324.436h-2.928c-.311-1.2-.75-1.551-1.962-1.558-.988-.006-1.976-.021-2.963.008-.421.012-.577-.079-.573-.542q.036-3.7,0-7.408c0-.436.152-.5.534-.5q9.475.015,18.949,0c.382,0,.537.066.533.5q-.034,3.7,0,7.408c0,.464-.153.552-.573.542-1.091-.027-2.183-.014-3.275-.008-1.213.006-1.653.36-1.962,1.558h-2.616c-.259-1.014-.768-1.525-1.542-1.549s-1.347.511-1.622,1.549" transform="translate(-188.68 -252.895)" fill="#fff3bf"/>
    <path id="Trazado_181326" data-name="Trazado 181326" d="M265.227,154.043a9.105,9.105,0,0,1-.763,4.96,6.558,6.558,0,0,1-12.331-2.874c-.033-1.039.02-2.08-.026-3.118-.023-.514.174-.593.624-.584a14.457,14.457,0,0,0,5.084-.54,9.858,9.858,0,0,0,3.375-1.881.677.677,0,0,1,1-.057,4.205,4.205,0,0,0,.873.509c1.748.709,2.8,1.8,2.165,3.584m-6.256,6.928a3.364,3.364,0,0,0,2.051-.944,1.532,1.532,0,0,0,.177-2.048,1.44,1.44,0,0,0-1.994-.385.881.881,0,0,1-1.056.008,1.451,1.451,0,0,0-2,.361,1.55,1.55,0,0,0,.219,2.1,3.524,3.524,0,0,0,2.6.9m-2.285-5.593a1.527,1.527,0,0,0-1.486-1.57,1.544,1.544,0,0,0-1.564,1.5,1.525,1.525,0,0,0,3.05.075m5.5,1.487a1.523,1.523,0,0,0,1.558-1.5,1.557,1.557,0,0,0-1.506-1.559,1.526,1.526,0,0,0-1.548,1.507,1.5,1.5,0,0,0,1.5,1.551" transform="translate(-202.765 -120.447)" fill="#fdb386"/>
    <path id="Trazado_181327" data-name="Trazado 181327" d="M271.653,229.729a8.537,8.537,0,0,0,3.149.049c.212-.037.471-.124.587.2a4.628,4.628,0,0,0,.868,1.463c.178.206.064.369-.069.548-.848,1.148-1.7,2.3-2.528,3.456-.219.3-.368.372-.617.023-.829-1.162-1.679-2.308-2.522-3.461-.031-.042-.064-.082-.1-.122-.2-.256-.039-.477.134-.6.553-.407.422-1.394,1.091-1.551" transform="translate(-217.424 -184.768)" fill="#fdb386"/>
    <path id="Trazado_181328" data-name="Trazado 181328" d="M87.1,311.164c-.745-.21-1.516-.424-2.285-.645-.227-.065-.262-.227-.171-.425.1-.217.1-.531.489-.456a10.446,10.446,0,0,0,3.936,0c.395-.075.381.253.482.465a.266.266,0,0,1-.182.419c-.745.213-1.492.422-2.27.641" transform="translate(-68.043 -249.029)" fill="#fdb386"/>
    <path id="Trazado_181329" data-name="Trazado 181329" d="M22.151,78.374c0-1.028,0-1.849,0-2.671-.008-1.418-.567-1.966-2-1.975-.416,0-.833.01-1.249-.006A2.99,2.99,0,0,1,15.923,70.8q-.07-4.409,0-8.821a2.943,2.943,0,0,1,2.971-2.918q9.836-.039,19.672,0A2.941,2.941,0,0,1,41.5,62.015q.061,4.371,0,8.743a3,3,0,0,1-3.168,2.966c-3.461.015-6.922.019-10.382-.006a2.583,2.583,0,0,0-2.01.831c-1.2,1.245-2.433,2.459-3.792,3.825m4.6-16.361c-1.952,0-3.9-.008-5.857,0-1.129.006-1.863.64-1.858,1.568s.733,1.544,1.871,1.551c1.484.01,2.967,0,4.451,0,2.395,0,4.79.011,7.184-.005,1.171-.008,1.929-.811,1.751-1.794a1.614,1.614,0,0,0-1.765-1.321c-1.926-.014-3.852,0-5.779,0m-1.034,8.747c1.666,0,3.332.014,5-.005a1.6,1.6,0,0,0,1.733-1.53,1.58,1.58,0,0,0-1.681-1.581c-3.358-.019-6.717-.012-10.075,0a1.557,1.557,0,1,0,.027,3.109c1.665.034,3.332.008,5,.009M36.7,70.75a1.551,1.551,0,1,0-1.577-1.505A1.6,1.6,0,0,0,36.7,70.75" transform="translate(-12.779 -47.486)" fill="#fdd835"/>
    <path id="Trazado_181330" data-name="Trazado 181330" d="M116.6,31.877c-.744-.755-1.4-1.384-2.011-2.048a2.356,2.356,0,0,0-1.941-.8c-.805.033-1.788.28-2.371-.083s-.148-1.429-.259-2.183a6.185,6.185,0,0,0-6.3-5.532c-1.952-.023-3.9-.018-5.857.006-.456.005-.665-.078-.619-.589.049-.542,0-1.093.014-1.639a3.043,3.043,0,0,1,3.123-3.1c2.889-.022,5.779-.006,8.668-.006q5.193,0,10.386,0c2.25,0,3.453,1.215,3.456,3.481q0,3.085,0,6.169c0,2.3-1.2,3.485-3.526,3.489-2.4,0-2.6.19-2.766,2.844" transform="translate(-78.207 -12.779)" fill="#ffa726"/>
    <path id="Trazado_181331" data-name="Trazado 181331" d="M277.648,359.167c.275-1.039.836-1.574,1.622-1.549s1.283.535,1.542,1.549c-.257,1.019-.763,1.53-1.542,1.554s-1.35-.513-1.622-1.554" transform="translate(-223.308 -287.626)" fill="#010101"/>
    <path id="Trazado_181332" data-name="Trazado 181332" d="M93.536,365.547a1.563,1.563,0,0,1-1.525,1.562,1.552,1.552,0,1,1-.019-3.1,1.565,1.565,0,0,1,1.544,1.543" transform="translate(-72.747 -292.764)" fill="#010101"/>
    <path id="Trazado_181333" data-name="Trazado 181333" d="M274.293,192.183a3.524,3.524,0,0,1-2.6-.9,1.55,1.55,0,0,1-.219-2.1,1.451,1.451,0,0,1,2-.361.882.882,0,0,0,1.057-.008,1.44,1.44,0,0,1,1.993.385,1.532,1.532,0,0,1-.177,2.048,3.364,3.364,0,0,1-2.05.944" transform="translate(-218.087 -151.659)" fill="#010101"/>
    <path id="Trazado_181334" data-name="Trazado 181334" d="M262.978,172.024a1.525,1.525,0,0,1-3.05-.075,1.544,1.544,0,0,1,1.564-1.5,1.527,1.527,0,0,1,1.486,1.57" transform="translate(-209.056 -137.093)" fill="#010101"/>
    <path id="Trazado_181335" data-name="Trazado 181335" d="M297.45,173.511a1.5,1.5,0,0,1-1.5-1.551,1.526,1.526,0,0,1,1.548-1.507,1.557,1.557,0,0,1,1.506,1.559,1.523,1.523,0,0,1-1.558,1.5" transform="translate(-238.032 -137.093)" fill="#010101"/>
    <path id="Trazado_181336" data-name="Trazado 181336" d="M39.7,74.214c1.926,0,3.853-.009,5.779,0a1.614,1.614,0,0,1,1.765,1.321c.178.983-.581,1.786-1.751,1.794-2.395.016-4.79.005-7.184.005-1.484,0-2.968.007-4.451,0-1.138-.008-1.866-.621-1.871-1.551s.729-1.562,1.858-1.568c1.952-.011,3.9,0,5.857,0" transform="translate(-25.723 -59.687)" fill="#010101"/>
    <path id="Trazado_181337" data-name="Trazado 181337" d="M38.658,106.069c-1.666,0-3.333.025-5-.009a1.557,1.557,0,1,1-.027-3.109c3.358-.009,6.717-.017,10.075,0a1.58,1.58,0,0,1,1.681,1.581,1.6,1.6,0,0,1-1.733,1.53c-1.666.02-3.332.005-5,.005" transform="translate(-25.719 -82.795)" fill="#010101"/>
    <path id="Trazado_181338" data-name="Trazado 181338" d="M115.763,106.121a1.551,1.551,0,1,1,1.525-1.555,1.6,1.6,0,0,1-1.525,1.555" transform="translate(-91.838 -82.856)" fill="#010101"/>
  </g>
</svg>
