<svg xmlns="http://www.w3.org/2000/svg" xmlns:xlink="http://www.w3.org/1999/xlink" width="208" height="208" viewBox="0 0 208 208">
  <defs>
    <filter id="Elipse_4259" x="0" y="0" width="208" height="208" filterUnits="userSpaceOnUse">
      <feOffset dx="-6" dy="6" input="SourceAlpha"/>
      <feGaussianBlur stdDeviation="3" result="blur"/>
      <feFlood flood-opacity="0.161"/>
      <feComposite operator="in" in2="blur"/>
      <feComposite in="SourceGraphic"/>
    </filter>
    <clipPath id="clip-path">
      <rect id="Rectángulo_35468" data-name="Rectángulo 35468" width="104.65" height="104.653" fill="none"/>
    </clipPath>
  </defs>
  <g id="Grupo_120359" data-name="Grupo 120359" transform="translate(-815.285 -2246)">
    <g id="Grupo_120358" data-name="Grupo 120358" transform="translate(125 -65)">
      <g transform="matrix(1, 0, 0, 1, 690.29, 2311)" filter="url(#Elipse_4259)">
        <g id="Elipse_4259-2" data-name="Elipse 4259" transform="translate(15 3)" fill="#fff" stroke="#f57c00" stroke-width="6">
          <circle cx="95" cy="95" r="95" stroke="none"/>
          <circle cx="95" cy="95" r="92" fill="none"/>
        </g>
      </g>
      <g id="Grupo_82691" data-name="Grupo 82691" transform="translate(747.675 2352.673)">
        <g id="Grupo_82690" data-name="Grupo 82690" clip-path="url(#clip-path)">
          <path id="Trazado_166594" data-name="Trazado 166594" d="M0,1.253A3.473,3.473,0,0,1,3.117,0C7.4.066,11.684.024,15.967.028c1.751,0,2.461.712,2.463,2.483q.01,6.731,0,13.462c0,1.825-.682,2.48-2.551,2.481-4.419,0-8.839-.032-13.258.022A2.529,2.529,0,0,1,0,16.988ZM14.345,9.324c0-1.5-.027-3,.014-4.494.016-.59-.176-.734-.743-.729q-4.391.039-8.784,0c-.543,0-.766.093-.759.707.033,2.961.028,5.924,0,8.886,0,.537.147.688.683.683,2.962-.025,5.924-.029,8.886,0,.618.007.722-.227.71-.768-.031-1.429-.011-2.86-.011-4.29" transform="translate(0 -0.001)"/>
          <path id="Trazado_166595" data-name="Trazado 166595" d="M317.092,334.207a2.528,2.528,0,0,1-1.492-2.623c.052-4.423.017-8.847.022-13.27,0-1.866.66-2.531,2.5-2.533q6.737-.007,13.475,0c1.755,0,2.452.714,2.454,2.493,0,4.39-.033,8.78.023,13.168a2.747,2.747,0,0,1-1.453,2.765Zm7.713-4.087c1.5,0,3-.023,4.494.012.54.013.683-.152.679-.683-.025-2.962-.03-5.924,0-8.886.007-.618-.218-.713-.763-.709q-4.392.036-8.784,0c-.584-.006-.743.164-.738.742.028,2.928.038,5.856-.006,8.783-.01.689.252.767.825.753,1.429-.035,2.86-.011,4.29-.011" transform="translate(-229.425 -229.554)"/>
          <path id="Trazado_166596" data-name="Trazado 166596" d="M0,317.194A2.526,2.526,0,0,1,2.618,315.7c4.449.054,8.9.018,13.348.023,1.779,0,2.461.68,2.464,2.461.007,4.449-.029,8.9.023,13.348a2.53,2.53,0,0,1-1.492,2.618H1.635A2.446,2.446,0,0,1,0,332.52Zm9.2,2.62c-1.464,0-2.929.028-4.391-.013-.588-.017-.735.174-.729.742q.04,4.391,0,8.784c0,.547.1.762.711.756,2.961-.032,5.924-.028,8.886,0,.536,0,.689-.146.684-.683-.025-2.962-.03-5.924,0-8.886.007-.622-.234-.718-.771-.707-1.463.03-2.928.01-4.392.01" transform="translate(0 -229.502)"/>
          <path id="Trazado_166597" data-name="Trazado 166597" d="M96.026,60.035c20.08.263,35.921,15.91,35.909,35.974a35.886,35.886,0,1,1-71.772-.054c.015-20.047,15.857-35.632,35.863-35.92M73.732,109.074a2.153,2.153,0,0,0,.818,1.672q3.255,3.243,6.5,6.5c1.485,1.484,2.392,1.486,3.879,0q6.681-6.676,13.345-13.371c.54-.546.813-.563,1.344,0,1.523,1.6,3.119,3.138,4.674,4.712a2.37,2.37,0,0,0,2.4.981c1.079-.292,1.415-1.124,1.643-2.114q3.1-13.508,6.241-27.006c.558-2.409-.573-3.551-2.969-3Q98.01,80.59,84.4,83.725a2.253,2.253,0,0,0-1.93,1.585,2.2,2.2,0,0,0,.816,2.264c1.57,1.559,3.086,3.176,4.714,4.671.765.7.629,1.055-.039,1.714-4.459,4.4-8.871,8.842-13.3,13.267a2.313,2.313,0,0,0-.93,1.849" transform="translate(-43.735 -43.642)" fill="#fdd835"/>
          <path id="Trazado_166598" data-name="Trazado 166598" d="M324.829,18.513c-2.28,0-4.56.008-6.841,0-1.589-.008-2.315-.72-2.319-2.3q-.018-6.892,0-13.784A2.042,2.042,0,0,1,317.974.087q6.892-.014,13.784,0a2.071,2.071,0,0,1,2.335,2.321q.016,6.891,0,13.784a2.044,2.044,0,0,1-2.321,2.317c-2.314.013-4.629,0-6.943,0m5.181-9.194c0-1.464-.02-2.928.011-4.392.011-.53-.063-.778-.7-.771-2.962.035-5.924.026-8.886.005-.511,0-.7.11-.7.667q.041,4.443,0,8.886c-.006.6.2.727.756.722q4.392-.036,8.784,0c.568.005.761-.136.745-.727-.041-1.463-.014-2.928-.014-4.392" transform="translate(-229.469 -0.058)"/>
          <path id="Trazado_166599" data-name="Trazado 166599" d="M30.279,180.822c0,.68.025,1.361,0,2.04a2.026,2.026,0,0,1-4.047.161,42.972,42.972,0,0,1,.007-4.486,2.023,2.023,0,0,1,4.036.143c.035.712.007,1.428.008,2.142" transform="translate(-19.026 -128.463)"/>
          <path id="Trazado_166600" data-name="Trazado 166600" d="M341.945,180.87c0-.714-.026-1.429.007-2.142a2.012,2.012,0,0,1,1.931-1.986,1.982,1.982,0,0,1,2.1,1.809,39.046,39.046,0,0,1,0,4.586,1.953,1.953,0,0,1-2.121,1.774,1.987,1.987,0,0,1-1.908-2c-.029-.679-.005-1.36,0-2.04" transform="translate(-248.57 -128.481)"/>
          <path id="Trazado_166601" data-name="Trazado 166601" d="M180.687,342.041c.68,0,1.361-.019,2.04,0a2.028,2.028,0,0,1,.142,4.054,43.4,43.4,0,0,1-4.384-.007,2.026,2.026,0,0,1,.162-4.046c.679-.027,1.36,0,2.04-.005" transform="translate(-128.394 -248.641)"/>
          <path id="Trazado_166602" data-name="Trazado 166602" d="M180.741,30.377c-.714,0-1.429.026-2.142-.007a2,2,0,0,1-1.976-1.937,1.974,1.974,0,0,1,1.811-2.1,39.289,39.289,0,0,1,4.586.007,1.962,1.962,0,0,1,1.772,2.125,2,2,0,0,1-2.012,1.9c-.679.028-1.36.005-2.04,0" transform="translate(-128.395 -19.1)"/>
          <path id="Trazado_166603" data-name="Trazado 166603" d="M135.611,30.374c-.68,0-1.361.026-2.039-.006a1.962,1.962,0,0,1-1.967-1.93,1.932,1.932,0,0,1,1.785-2.1,39.1,39.1,0,0,1,4.585,0,1.992,1.992,0,0,1,1.794,2.119,2.045,2.045,0,0,1-2.016,1.911c-.713.03-1.428.006-2.142.005" transform="translate(-95.669 -19.097)"/>
          <path id="Trazado_166604" data-name="Trazado 166604" d="M225.767,30.371c-.68,0-1.361.02-2.04,0a2.056,2.056,0,0,1-2.075-1.96,2.035,2.035,0,0,1,1.944-2.094c1.425-.066,2.857-.064,4.282,0a2.03,2.03,0,0,1-.072,4.058c-.679.028-1.36,0-2.039.005" transform="translate(-161.13 -19.093)"/>
          <path id="Trazado_166605" data-name="Trazado 166605" d="M30.279,135.792c0,.68.025,1.361,0,2.039a2.047,2.047,0,0,1-2,2.037,2.021,2.021,0,0,1-2.048-1.884,42.8,42.8,0,0,1,.007-4.485,2.024,2.024,0,0,1,4.035.151c.035.712.007,1.427.008,2.141" transform="translate(-19.027 -95.738)"/>
          <path id="Trazado_166606" data-name="Trazado 166606" d="M341.946,135.758c0-.68-.025-1.361.006-2.039a1.966,1.966,0,0,1,1.915-1.983,1.936,1.936,0,0,1,2.115,1.771,38.977,38.977,0,0,1,0,4.585,2,2,0,0,1-2.107,1.81,2.046,2.046,0,0,1-1.924-2c-.031-.713-.006-1.428-.006-2.142" transform="translate(-248.57 -95.764)"/>
          <path id="Trazado_166607" data-name="Trazado 166607" d="M30.278,225.823c0,.714.028,1.429-.008,2.142a2.024,2.024,0,0,1-4.035.144,42.952,42.952,0,0,1-.007-4.485,2.026,2.026,0,0,1,4.046.159c.029.679.005,1.36,0,2.04" transform="translate(-19.026 -161.197)"/>
          <path id="Trazado_166608" data-name="Trazado 166608" d="M135.631,346.1c-.68,0-1.362.037-2.039-.008a2.01,2.01,0,0,1-1.989-2.134,1.967,1.967,0,0,1,2.068-1.933q1.988-.039,3.977,0a2.051,2.051,0,0,1,2.123,2.013,2.088,2.088,0,0,1-2.1,2.059c-.678.034-1.36.006-2.039.006v0" transform="translate(-95.668 -248.623)"/>
          <path id="Trazado_166609" data-name="Trazado 166609" d="M225.75,342.041c.68,0,1.361-.02,2.04,0a1.97,1.97,0,0,1,2.027,1.871,1.944,1.944,0,0,1-1.822,2.171,40.864,40.864,0,0,1-4.484,0,2.02,2.02,0,0,1-1.86-2.069,2.052,2.052,0,0,1,2.06-1.973c.679-.025,1.36,0,2.04,0" transform="translate(-161.128 -248.641)"/>
          <path id="Trazado_166610" data-name="Trazado 166610" d="M346.007,225.959c0,.646.027,1.293-.006,1.937a2.013,2.013,0,0,1-2.061,2.067,1.977,1.977,0,0,1-2.012-2.093q-.039-1.988,0-3.977a2.048,2.048,0,0,1,2.037-2.1A2.075,2.075,0,0,1,346,223.818c.044.711.008,1.427.008,2.141h0" transform="translate(-248.551 -161.234)"/>
          <path id="Trazado_166611" data-name="Trazado 166611" d="M341.942,90.709c0-.68-.021-1.36,0-2.039a1.979,1.979,0,0,1,1.88-2.02,1.949,1.949,0,0,1,2.164,1.831,41.055,41.055,0,0,1,0,4.483,1.993,1.993,0,0,1-2.074,1.847,2.045,2.045,0,0,1-1.968-2.063c-.025-.679,0-1.359,0-2.039" transform="translate(-248.569 -62.987)"/>
          <path id="Trazado_166612" data-name="Trazado 166612" d="M341.942,271.037c0-.68-.022-1.36.006-2.039a1.978,1.978,0,0,1,1.9-2,1.957,1.957,0,0,1,2.144,1.856c.078,1.457.073,2.924,0,4.381a2.009,2.009,0,0,1-2.107,1.921,2.042,2.042,0,0,1-1.946-2.082c-.023-.679,0-1.359,0-2.039" transform="translate(-248.569 -194.092)"/>
          <path id="Trazado_166613" data-name="Trazado 166613" d="M30.279,271c0,.68.024,1.36,0,2.039a2.012,2.012,0,0,1-1.989,2.031,1.97,1.97,0,0,1-2.056-1.857,42.623,42.623,0,0,1,0-4.483,1.969,1.969,0,0,1,2.081-1.829,2,2,0,0,1,1.956,1.958c.037.712.007,1.427.008,2.141" transform="translate(-19.026 -194.019)"/>
          <path id="Trazado_166614" data-name="Trazado 166614" d="M90.5,30.369c-.68,0-1.36.025-2.039-.006a2,2,0,0,1-1.983-1.926,1.951,1.951,0,0,1,1.79-2.107,38.833,38.833,0,0,1,4.583,0,1.954,1.954,0,0,1,1.783,2.115,2,2,0,0,1-1.994,1.918c-.712.031-1.427.006-2.141.005" transform="translate(-62.862 -19.092)"/>
          <path id="Trazado_166615" data-name="Trazado 166615" d="M270.818,30.381c-.68,0-1.361.026-2.039-.007a2,2,0,0,1-1.97-1.943,1.932,1.932,0,0,1,1.713-2.072,37.072,37.072,0,0,1,4.683-.012,1.938,1.938,0,0,1,1.76,2.129,1.994,1.994,0,0,1-2.007,1.9c-.713.029-1.427.005-2.141,0" transform="translate(-193.956 -19.104)"/>
          <path id="Trazado_166616" data-name="Trazado 166616" d="M30.279,90.574c0,.714.025,1.428-.005,2.141a2.012,2.012,0,0,1-2.008,2.012,1.975,1.975,0,0,1-2.038-1.877,42.617,42.617,0,0,1,.009-4.483,1.959,1.959,0,0,1,2.1-1.8,2,2,0,0,1,1.938,1.973c.033.678.006,1.359.007,2.039" transform="translate(-19.026 -62.925)"/>
          <path id="Trazado_166617" data-name="Trazado 166617" d="M90.594,342.043c.68,0,1.36-.024,2.039.005a2,2,0,0,1,2,1.913,1.953,1.953,0,0,1-1.779,2.118,38.252,38.252,0,0,1-4.583,0,1.952,1.952,0,0,1-1.794-2.1,2,2,0,0,1,1.98-1.928c.712-.031,1.427-.006,2.141-.006" transform="translate(-62.86 -248.642)"/>
          <path id="Trazado_166618" data-name="Trazado 166618" d="M270.981,342.041c.646,0,1.292-.02,1.937,0a2.01,2.01,0,0,1,2.05,1.968,1.964,1.964,0,0,1-1.836,2.074,41.243,41.243,0,0,1-4.482,0,1.974,1.974,0,0,1-1.85-2.063,2.011,2.011,0,0,1,2.041-1.979c.713-.026,1.427,0,2.141,0" transform="translate(-193.95 -248.641)"/>
          <path id="Trazado_166619" data-name="Trazado 166619" d="M109.843,155.057a2.313,2.313,0,0,1,.93-1.849c4.432-4.424,8.845-8.87,13.3-13.267.668-.659.8-1.012.039-1.714-1.628-1.495-3.144-3.111-4.714-4.67a2.2,2.2,0,0,1-.816-2.264,2.253,2.253,0,0,1,1.93-1.585q13.606-3.131,27.207-6.281c2.4-.554,3.527.588,2.969,3q-3.128,13.5-6.241,27.006c-.227.99-.564,1.822-1.643,2.113a2.37,2.37,0,0,1-2.4-.981c-1.555-1.573-3.152-3.107-4.674-4.711-.531-.56-.8-.543-1.344,0q-6.642,6.715-13.345,13.371c-1.487,1.486-2.394,1.484-3.879,0q-3.251-3.248-6.5-6.5a2.154,2.154,0,0,1-.818-1.672m31.222-5.609a3.989,3.989,0,0,0,.245-.563c1.551-6.72,3.087-13.444,4.656-20.16.191-.819-.16-.639-.66-.522q-7.5,1.746-15,3.462l-5.726,1.32c1.477,1.462,2.808,2.769,4.129,4.087,1.525,1.522,1.528,2.447.023,3.952-4.4,4.406-8.794,8.829-13.236,13.2-.7.684-.627,1.037.036,1.63a36.568,36.568,0,0,1,2.816,2.815c.549.611.862.662,1.485.031,4.421-4.486,8.889-8.925,13.344-13.378,1.411-1.41,2.373-1.406,3.8.024,1.344,1.342,2.679,2.694,4.083,4.106" transform="translate(-79.846 -89.626)"/>
          <path id="Trazado_166620" data-name="Trazado 166620" d="M154.826,162.258c-1.4-1.413-2.739-2.764-4.083-4.106-1.431-1.429-2.393-1.434-3.8-.024-4.455,4.453-8.922,8.893-13.344,13.378-.623.632-.935.581-1.485-.031a36.57,36.57,0,0,0-2.816-2.815c-.662-.593-.731-.947-.036-1.63,4.442-4.368,8.831-8.791,13.236-13.2,1.505-1.505,1.5-2.43-.023-3.952-1.321-1.318-2.652-2.625-4.129-4.087l5.726-1.32q7.5-1.727,15-3.462c.5-.116.851-.3.66.522-1.568,6.716-3.1,13.44-4.655,20.16a3.99,3.99,0,0,1-.245.563" transform="translate(-93.608 -102.435)" fill="#26ccda"/>
        </g>
      </g>
    </g>
  </g>
</svg>
