<svg id="Grupo_120336" data-name="Grupo 120336" xmlns="http://www.w3.org/2000/svg" xmlns:xlink="http://www.w3.org/1999/xlink" width="100.938" height="100.929" viewBox="0 0 100.938 100.929">
  <defs>
    <clipPath id="clip-path">
      <rect id="Rectángulo_37379" data-name="Rectángulo 37379" width="100.938" height="100.929" fill="none"/>
    </clipPath>
  </defs>
  <g id="Grupo_120335" data-name="Grupo 120335" clip-path="url(#clip-path)">
    <path id="Trazado_181368" data-name="Trazado 181368" d="M52.256,91.458c-1.228.239-1.594.069-2.215-1.054-.587-1.061-1.186-2.115-1.738-3.194a1.026,1.026,0,0,0-1.071-.636q-4.238.045-8.476.01a11.6,11.6,0,0,1-11.643-9.607c-.316-1.571-.316-1.571-1.934-1.615A13.241,13.241,0,0,1,13.126,56.818a30.311,30.311,0,0,1,7.622-10.982c.406-.373.864-.688,1.388-1.1-2.032-.458-4-.907-5.972-1.346q-3.215-.715-6.433-1.413a2.759,2.759,0,0,1-2.295-2.03,2.665,2.665,0,0,1,.846-2.761c.862-.855,1.726-1.708,2.672-2.644-2.294-1.091-4.5-2.143-6.713-3.192-.858-.407-1.728-.79-2.575-1.217A2.69,2.69,0,0,1,.9,25.641c1.675-1.716,3.381-3.4,5.086-5.089A2.67,2.67,0,0,1,9.234,20q8.438,3.984,16.863,8a2.684,2.684,0,0,1,.746,4.554c-.933.971-1.9,1.913-2.842,2.871a.747.747,0,0,0-.094.194q3.726,1.77,7.449,3.541a1.158,1.158,0,0,0,.927.112A32.77,32.77,0,0,1,43.574,38a1.13,1.13,0,0,0,1.313-.939c.8-2.39,1.656-4.762,2.536-7.124.254-.681.1-.822-.588-.806-1.74.041-3.482.028-5.223.01a3.1,3.1,0,0,1-3.078-4.426q.746-2.132,1.515-4.256c.445-1.239.8-1.461,2.128-1.363a1.682,1.682,0,0,1,.7,2.285c-.512,1.343-.95,2.715-1.466,4.057-.233.606-.135.773.538.761,2.261-.038,4.522-.009,6.783-.018a3.7,3.7,0,0,1,1.534.251,2.228,2.228,0,0,1,.581,2.747c-.915,2.452-1.781,4.922-2.66,7.388-.152.427-.266.867-.4,1.3.4.116.793.224,1.186.351a1.525,1.525,0,0,1,.625.268c.753.78,1.4.3,2.014-.168a2.843,2.843,0,0,0,.588-.774q5.176-8.124,10.34-16.255a2.149,2.149,0,0,0,.5-1.03c-1.687,0-3.347-.024-5.006.008a3.806,3.806,0,0,1-3.02-1.138,3.639,3.639,0,0,1-.291-3.547c1.086-2.911,2.1-5.848,3.142-8.776.446-1.254.887-2.509,1.36-3.847-3.049,0-5.967.03-8.883-.021a1.088,1.088,0,0,0-1.234.9c-1.174,3.4-2.391,6.787-3.6,10.174-.411,1.147-.841,1.4-2.074,1.3a1.7,1.7,0,0,1-.706-2.344c1.2-3.271,2.388-6.547,3.5-9.849A4.683,4.683,0,0,1,48.7,0H59.741c2.317,1.026,2.859,2.33,1.984,4.787-1.383,3.883-2.756,7.77-4.167,11.642-.246.677-.206.907.593.883,1.673-.05,3.349-.043,5.022.005a2.972,2.972,0,0,1,2.875,2.609,3.643,3.643,0,0,1-.709,2.49C62.2,27.33,59.083,32.261,55.933,37.17c-.419.654-.4.835.43.841a31.5,31.5,0,0,1,10.486,1.934,1.11,1.11,0,0,0,.937.076c3.084-1.477,6.176-2.939,9.42-4.479-1.079-1.041-2.091-1.975-3.055-2.956a2.7,2.7,0,0,1,.829-4.645q8.284-3.948,16.587-7.858a2.722,2.722,0,0,1,3.561.62c1.447,1.432,2.872,2.885,4.325,4.31a5.98,5.98,0,0,1,1.487,1.992v1.38a4.494,4.494,0,0,1-2.411,2.134c-2.823,1.292-5.619,2.644-8.562,4.036l2.616,2.536a2.729,2.729,0,0,1,.914,2.92,2.809,2.809,0,0,1-2.339,1.978c-4.863,1.066-9.724,2.138-14.577,3.247-.28.064-.93-.165-.837.514a.853.853,0,0,0,.911.873A4.068,4.068,0,0,1,79.4,48.01a33.17,33.17,0,0,1,9.535,22.946,4.411,4.411,0,0,1-2.57,4.468c-.336.163-.413.287-.316.655.744,2.834-.241,5.066-2.428,6.88a13.887,13.887,0,0,1-3.379,2.172,1.625,1.625,0,0,0-.961,1.114A13.1,13.1,0,0,1,67.1,95.205a17.749,17.749,0,0,1-4.31-.289c-.082-.064-.171-.1-.235.011-.012.021.059.091.092.139a5.9,5.9,0,0,1,.013,2.619,4.286,4.286,0,0,1-3.411,3.147,4.119,4.119,0,0,1-4.261-1.571,11.828,11.828,0,0,1-1.234-2.1,1.511,1.511,0,0,1,.526-1.908c1.219-.347,1.672-.154,2.311.979a8.943,8.943,0,0,0,.7,1.179,1.315,1.315,0,0,0,1.58.463,1.212,1.212,0,0,0,.934-1.344c-.356-1.557-.356-3.256-1.732-4.456a9.741,9.741,0,0,1-2.032-2.99c-.422-.806-.122-2.086-1.064-2.428a8.777,8.777,0,0,0-2.831-.067c-.066,0-.132,0-.2,0-.52-.042-.552.169-.322.569.359.624.7,1.26,1.036,1.9.584,1.1.509,1.528-.408,2.405M70.437,44.9l-.248-.148c-.191-.125-.372-.268-.574-.373a30.965,30.965,0,0,0-15.573-3.448c-1.719.051-2.074.364-2.077,2.092,0,2,.026,4.007-.013,6.01a1.478,1.478,0,0,1-2.108,1.508A1.6,1.6,0,0,1,48.99,48.9c0-2.036.009-4.072,0-6.108-.009-1.408-.439-1.845-1.814-1.852-2.069-.01-4.138,0-6.207,0a26.833,26.833,0,0,0-12.4,3.022c-1.448.743-1.584,1.671-.419,2.849.97.981,1.952,1.949,2.924,2.928.934.942,1.047,1.795.339,2.474-.68.653-1.507.54-2.4-.347-1.259-1.249-2.5-2.513-3.765-3.759a1.562,1.562,0,0,0-2.549-.052,27.8,27.8,0,0,0-6.5,9.051,10.847,10.847,0,0,0-.707,8.216,10.551,10.551,0,0,0,11.244,7.1c.577-.06.569-.434.674-.788a10.593,10.593,0,0,1,3.023-4.985c.653-.587.448-.869-.046-1.345-1.324-1.276-2.606-2.6-3.909-3.893a1.5,1.5,0,1,1,2.093-2.091c1.5,1.471,2.992,2.953,4.452,4.464a1.042,1.042,0,0,0,1.355.307,9.493,9.493,0,0,1,4.223-.784c.929.05,1.226-.183,1.195-1.164-.079-2.493-.023-4.991-.024-7.487a1.436,1.436,0,0,1,1.124-1.532,1.368,1.368,0,0,1,1.542.6,2.1,2.1,0,0,1,.293,1.32c0,2.5.019,4.992-.015,7.488-.008.611.167.788.772.765,1.18-.047,2.364-.03,3.546-.008A1.5,1.5,0,0,1,48.7,64.816a1.482,1.482,0,0,1-1.662,1.422c-1.412.014-2.825-.022-4.236.01a32.208,32.208,0,0,0-5.9.184,8.637,8.637,0,0,0-4.23,14.81,8.435,8.435,0,0,0,6.332,2.389q14.07-.022,28.141-.01a1.351,1.351,0,0,0,.925-.158,11.6,11.6,0,0,0-3.811-2.407A12.012,12.012,0,0,0,59.2,80.035q-6.747-.006-13.495,0c-1.069,0-1.676-.477-1.752-1.325-.089-.989.572-1.626,1.745-1.628,4.006-.009,8.014.092,12.016-.029a17.444,17.444,0,0,1,11.912,3.759c.834.834,1.679,1.657,2.494,2.507a.907.907,0,0,0,.675.315,12.253,12.253,0,0,0,9.5-3.486,3.152,3.152,0,0,0,.065-4.654c-.36-.383-.755-.733-1.1-1.124a1.49,1.49,0,0,1-.065-2.12,1.4,1.4,0,0,1,2.106,0,1.585,1.585,0,0,0,1.859.469c.751-.35.829-1.008.813-1.74a30.06,30.06,0,0,0-8.509-20.694c-1.015-1.072-1.743-1.023-2.753.145-.264.239-.539.469-.792.72-1.162,1.152-2.3,2.325-3.481,3.459a1.473,1.473,0,1,1-2.077-2.084c.24-.268.513-.506.758-.768,1.2-1.286,2.584-2.4,3.66-3.807a1.311,1.311,0,0,0-.414-1.92,5.177,5.177,0,0,0-1.566-.915l.008.007c-.072-.171-.229-.2-.386-.237ZM80.59,37.045a6.276,6.276,0,0,1-1.333.813Q75.52,39.611,71.8,41.392c-.212.1-.492.131-.614.455.983.482,1.748,1.238,3.053.914,3.912-.972,7.86-1.8,11.794-2.677,1.412-.316,2.826-.627,4.5-1-1.092-1.043-2.034-1.865-2.883-2.773a2.653,2.653,0,0,1,.712-4.254c.747-.407,1.532-.743,2.3-1.109l7.2-3.419c-1.356-1.331-2.625-2.567-3.885-3.814-1.087-1.076-1.082-1.081-2.5-.264a2.733,2.733,0,0,0-.367.116Q84.065,26.9,77.023,30.228c-.2.1-.386.225-.67.393,1.271,1.266,2.469,2.508,3.721,3.693a2.087,2.087,0,0,1,.516,2.73M11.255,38.458a.911.911,0,0,0-.533.691q7.179,1.6,14.338,3.2c.252.056.522.125.742-.1a12.583,12.583,0,0,1,2.271-1.409l-6.556-3.021c-1.865-1.121-1.984-2.137-.42-3.7,1.152-1.154,2.314-2.3,3.463-3.438-.11-.135-.14-.208-.193-.233Q16.432,26.676,8.5,22.9a.646.646,0,0,0-.858.153c-1.46,1.493-2.943,2.962-4.451,4.472.205.118.34.209.486.278,2.9,1.376,5.8,2.732,8.691,4.131a2.7,2.7,0,0,1,.8,4.544c-.631.664-1.273,1.318-1.909,1.977M75.926,86.6c-5.7,0-11.311.009-16.918-.012-.663,0-.59.284-.442.711a6.616,6.616,0,0,0,4.83,4.63A11.022,11.022,0,0,0,73.561,89.7a9.071,9.071,0,0,0,2.365-3.1" transform="translate(0)" fill="#030303"/>
    <path id="Trazado_181369" data-name="Trazado 181369" d="M165.706,34.637a3.691,3.691,0,0,0-1.533-.251c-2.261.009-4.523-.02-6.783.018-.674.011-.772-.156-.538-.762.516-1.341.954-2.713,1.466-4.057a1.681,1.681,0,0,0-.7-2.285l1.254-3.777c1.233.1,1.664-.156,2.074-1.3,1.212-3.387,2.429-6.773,3.6-10.174a1.089,1.089,0,0,1,1.234-.9c2.916.051,5.834.021,8.883.021-.473,1.338-.914,2.593-1.36,3.847-1.042,2.927-2.056,5.865-3.142,8.776a3.64,3.64,0,0,0,.291,3.546,1.46,1.46,0,0,1-.28.917c-1.066,1.669-2.109,3.354-3.22,4.994-.344.508-.492,1.242-1.253,1.391" transform="translate(-115.446 -8.208)" fill="#f57c00"/>
    <path id="Trazado_181370" data-name="Trazado 181370" d="M196.22,333.3c.916-.877.992-1.3.408-2.405-.337-.636-.677-1.272-1.036-1.9-.23-.4-.2-.611.322-.569.065.005.131,0,.2,0a8.771,8.771,0,0,1,2.831.067c.942.341.642,1.622,1.064,2.428a9.74,9.74,0,0,0,2.032,2.99c1.376,1.2,1.376,2.9,1.732,4.456a1.212,1.212,0,0,1-.934,1.344,1.315,1.315,0,0,1-1.58-.463,8.978,8.978,0,0,1-.7-1.179c-.639-1.133-1.091-1.326-2.311-.979a35.619,35.619,0,0,0-2.023-3.794" transform="translate(-143.964 -241.843)" fill="#ffd1a2"/>
    <path id="Trazado_181371" data-name="Trazado 181371" d="M111.488,195.207a17.443,17.443,0,0,0-11.912-3.759c-4,.121-8.01.021-12.016.029-1.173,0-1.834.639-1.745,1.628.076.848.683,1.324,1.752,1.325,4.5.007,9,0,13.495,0a12.012,12.012,0,0,1,5.069,1.023c-.348.284-.759.152-1.14.152q-15.224.025-30.447.033a8.637,8.637,0,0,1,4.23-14.81,32.208,32.208,0,0,1,5.9-.184c1.411-.032,2.824,0,4.236-.01a1.482,1.482,0,0,0,1.662-1.422,1.5,1.5,0,0,0-1.671-1.528c-1.182-.022-2.366-.039-3.546.008-.605.024-.781-.154-.772-.765.034-2.5.013-4.992.015-7.488a2.1,2.1,0,0,0-.292-1.32,1.368,1.368,0,0,0-1.542-.6,1.436,1.436,0,0,0-1.124,1.531c0,2.5-.055,4.994.024,7.487.031.981-.266,1.214-1.195,1.164a9.5,9.5,0,0,0-4.223.784,1.042,1.042,0,0,1-1.355-.308c-1.461-1.511-2.951-2.993-4.452-4.464a1.5,1.5,0,1,0-2.093,2.091c1.3,1.3,2.585,2.617,3.909,3.893.493.476.7.757.046,1.345a10.591,10.591,0,0,0-3.024,4.985c-.105.355-.1.729-.674.789a10.552,10.552,0,0,1-11.244-7.1,10.846,10.846,0,0,1,.707-8.216,27.8,27.8,0,0,1,6.5-9.051,1.562,1.562,0,0,1,2.549.052c1.263,1.245,2.506,2.509,3.765,3.759.893.886,1.72,1,2.4.347.708-.68.6-1.533-.339-2.475-.971-.979-1.954-1.947-2.924-2.928-1.165-1.178-1.029-2.106.419-2.849a26.836,26.836,0,0,1,12.4-3.022c2.069,0,4.138-.009,6.207,0,1.375.007,1.805.444,1.814,1.851.013,2.036,0,4.072,0,6.108a1.6,1.6,0,0,0,.853,1.639,1.478,1.478,0,0,0,2.108-1.508c.039-2,.009-4.006.013-6.01,0-1.727.359-2.041,2.077-2.092a30.963,30.963,0,0,1,15.573,3.448c.2.105.383.248.573.373l.248.148-.018-.017c.041.223.2.254.386.237l-.008-.007c-.044.39.286.558.47.819.485.686,1.227,1.18,1.51,2.017-1.076,1.407-2.458,2.521-3.66,3.807-.246.263-.518.5-.758.768a1.473,1.473,0,1,0,2.077,2.084c1.179-1.133,2.32-2.307,3.481-3.459.253-.251.528-.48.792-.72.693,1.322,1.452,2.614,2.059,3.973a11.081,11.081,0,0,1,1.306,3.735c-1.588.434-1.926,1.286-1.06,2.68.155.251.315.5.471.748a5.082,5.082,0,0,1-.744,6.788c-1.057,1.077-2.136,2.132-3.2,3.205-.825.835-.92,1.664-.285,2.326s1.541.582,2.4-.259q1.792-1.751,3.577-3.51a13.243,13.243,0,0,1-3.693,7.189,13.69,13.69,0,0,1-5.922,3.5m-17.868-7.441h9.061a13.573,13.573,0,0,0,9.48-3.7c1.28-1.176,2.492-2.429,3.71-3.671a1.521,1.521,0,0,0,.151-2.265c-.652-.641-1.46-.591-2.252.179-.965.938-1.924,1.883-2.855,2.855a11.483,11.483,0,0,1-8.8,3.657c-6.04-.057-12.081-.013-18.122-.017a9.429,9.429,0,0,0-7,2.846,1.56,1.56,0,0,0-.227,2.334,1.466,1.466,0,0,0,2.253-.186,6.862,6.862,0,0,1,5.246-2.041c3.119.032,6.238.008,9.357.008m7.2-14.722c0-1.248.006-2.5,0-3.744-.007-1.141-.569-1.832-1.472-1.836s-1.479.688-1.483,1.824c-.008,2.168,0,4.335,0,6.5,0,1.767,0,1.767-1.773,1.894a1.516,1.516,0,0,0-1.564,1.548,1.476,1.476,0,0,0,1.588,1.4q3.5.026,7,0a1.49,1.49,0,0,0,1.629-1.469,1.53,1.53,0,0,0-1.638-1.479,16.431,16.431,0,0,0-1.674,0c-.47.029-.624-.13-.614-.606.029-1.346.01-2.693.01-4.04" transform="translate(-41.865 -114.4)" fill="#ffd1a2"/>
    <path id="Trazado_181372" data-name="Trazado 181372" d="M264.281,219.253a13.689,13.689,0,0,0,5.922-3.5,13.243,13.243,0,0,0,3.693-7.189,13.768,13.768,0,0,0,1.422-2.215c1.359-3.13.76-5.982-1.148-8.685a2.286,2.286,0,0,0-1.438-1.079,11.078,11.078,0,0,0-1.306-3.735c-.607-1.36-1.366-2.652-2.059-3.974,1.01-1.167,1.738-1.216,2.753-.144a30.059,30.059,0,0,1,8.509,20.693c.016.732-.063,1.39-.813,1.74a1.585,1.585,0,0,1-1.859-.469,1.4,1.4,0,0,0-2.106-.005,1.49,1.49,0,0,0,.065,2.12c.349.391.745.741,1.1,1.124a3.152,3.152,0,0,1-.065,4.653,12.253,12.253,0,0,1-9.5,3.487.909.909,0,0,1-.675-.315c-.816-.851-1.66-1.674-2.495-2.508" transform="translate(-194.658 -138.445)" fill="#ffd1a2"/>
    <path id="Trazado_181373" data-name="Trazado 181373" d="M20.161,102.22c.637-.659,1.278-1.313,1.909-1.977a2.7,2.7,0,0,0-.8-4.544c-2.887-1.4-5.794-2.754-8.691-4.131-.145-.069-.281-.159-.486-.277,1.508-1.511,2.991-2.98,4.451-4.473a.646.646,0,0,1,.858-.153q7.934,3.777,15.871,7.547c.053.025.083.1.193.233-1.149,1.14-2.311,2.284-3.463,3.438-1.564,1.566-1.445,2.581.42,3.7a8.992,8.992,0,0,1-3.783,1.755,14.507,14.507,0,0,1-6.479-1.12" transform="translate(-8.907 -63.762)" fill="#f57c00"/>
    <path id="Trazado_181374" data-name="Trazado 181374" d="M290.492,87.4c1.414-.817,1.41-.812,2.5.264,1.259,1.246,2.529,2.483,3.885,3.814l-7.2,3.419c-.769.366-1.555.7-2.3,1.109a2.652,2.652,0,0,0-.712,4.254c.85.908,1.792,1.73,2.883,2.773-1.672.371-3.085.682-4.5,1-3.934.88-7.882,1.7-11.794,2.677-1.3.324-2.07-.433-3.053-.914.121-.324.4-.354.614-.455q3.727-1.776,7.461-3.535a6.267,6.267,0,0,0,1.333-.813,8.1,8.1,0,0,0,2.58-.491,1.264,1.264,0,0,0,.493-2.282c-.8-.819-1.623-1.622-2.431-2.436-1.185-1.194-1.068-1.958.465-2.686q4.342-2.064,8.713-4.068c.731-.335,1.233-.742,1.067-1.628" transform="translate(-199.016 -63.949)" fill="#f57c00"/>
    <path id="Trazado_181375" data-name="Trazado 181375" d="M183.86,79.9c.762-.149.909-.883,1.253-1.391,1.11-1.64,2.153-3.325,3.22-4.994a1.46,1.46,0,0,0,.28-.917,3.807,3.807,0,0,0,3.02,1.138c1.659-.033,3.319-.008,5.006-.008a2.151,2.151,0,0,1-.5,1.03q-5.163,8.132-10.34,16.255a2.835,2.835,0,0,1-.588.774c-.616.464-1.261.948-2.014.168a1.53,1.53,0,0,0-.626-.268c-.392-.127-.79-.235-1.186-.35.131-.434.246-.875.4-1.3.879-2.466,1.746-4.936,2.66-7.388a2.229,2.229,0,0,0-.581-2.747" transform="translate(-133.6 -53.475)" fill="#f57c00"/>
    <path id="Trazado_181376" data-name="Trazado 181376" d="M124.04,307.871q15.224-.013,30.447-.033c.38,0,.792.132,1.14-.152a11.6,11.6,0,0,1,3.811,2.407,1.351,1.351,0,0,1-.924.158q-14.071.007-28.141.01a8.435,8.435,0,0,1-6.332-2.389" transform="translate(-91.363 -226.629)" fill="#ffd1a2"/>
    <path id="Trazado_181377" data-name="Trazado 181377" d="M239.392,328.682a9.071,9.071,0,0,1-2.365,3.1,11.022,11.022,0,0,1-10.165,2.231,6.616,6.616,0,0,1-4.83-4.63c-.148-.427-.221-.713.442-.711,5.606.022,11.213.012,16.918.012" transform="translate(-163.466 -242.085)" fill="#ffd1a2"/>
    <path id="Trazado_181378" data-name="Trazado 181378" d="M304.949,89.029c.166.886-.336,1.293-1.067,1.628q-4.371,2-8.713,4.068c-1.533.729-1.65,1.493-.465,2.686.808.814,1.628,1.618,2.431,2.436a1.264,1.264,0,0,1-.493,2.282,8.1,8.1,0,0,1-2.58.491,2.087,2.087,0,0,0-.516-2.73c-1.252-1.184-2.451-2.426-3.721-3.693.284-.168.469-.3.671-.393q7.041-3.334,14.086-6.658a2.809,2.809,0,0,1,.367-.116" transform="translate(-213.473 -65.575)" fill="#f57c00"/>
    <path id="Trazado_181379" data-name="Trazado 181379" d="M41.229,144.211a14.506,14.506,0,0,0,6.479,1.12,8.992,8.992,0,0,0,3.783-1.755l6.556,3.021a12.568,12.568,0,0,0-2.271,1.409c-.22.22-.49.151-.742.1q-7.165-1.6-14.338-3.2a.911.911,0,0,1,.533-.691" transform="translate(-29.975 -105.753)" fill="#f57c00"/>
    <path id="Trazado_181380" data-name="Trazado 181380" d="M270.705,174.088c-.282-.837-1.025-1.33-1.51-2.017-.184-.261-.514-.429-.47-.819a5.182,5.182,0,0,1,1.566.915,1.311,1.311,0,0,1,.414,1.921" transform="translate(-197.929 -126.137)" fill="#ffd1a2"/>
    <path id="Trazado_181381" data-name="Trazado 181381" d="M267.686,170.615c-.188.017-.346-.014-.387-.237.158.032.314.066.387.237" transform="translate(-196.881 -125.493)" fill="#dc74a3"/>
    <path id="Trazado_181382" data-name="Trazado 181382" d="M266.675,170.029l-.248-.148.248.148" transform="translate(-196.239 -125.127)" fill="#dc74a3"/>
    <path id="Trazado_181383" data-name="Trazado 181383" d="M237.533,360.276c-.033-.048-.1-.118-.092-.139.064-.109.153-.075.235-.011l-.143.15" transform="translate(-174.888 -265.21)" fill="#fdfdfd"/>
    <path id="Trazado_181384" data-name="Trazado 181384" d="M148.13,250.316c-3.119,0-6.238.023-9.357-.008a6.862,6.862,0,0,0-5.246,2.041,1.466,1.466,0,0,1-2.253.186,1.56,1.56,0,0,1,.227-2.334,9.43,9.43,0,0,1,7-2.846c6.041,0,12.082-.04,18.122.017a11.483,11.483,0,0,0,8.8-3.657c.931-.972,1.891-1.917,2.856-2.855.791-.77,1.6-.819,2.251-.178a1.521,1.521,0,0,1-.151,2.265c-1.218,1.242-2.43,2.495-3.71,3.671a13.574,13.574,0,0,1-9.48,3.7H148.13" transform="translate(-96.376 -176.949)" fill="#030303"/>
    <path id="Trazado_181385" data-name="Trazado 181385" d="M206.175,207.005c0,1.347.019,2.694-.01,4.04-.01.477.143.636.614.606a16.425,16.425,0,0,1,1.674,0,1.53,1.53,0,0,1,1.638,1.479,1.49,1.49,0,0,1-1.629,1.469q-3.5.023-7,0a1.476,1.476,0,0,1-1.588-1.4,1.516,1.516,0,0,1,1.564-1.548c1.773-.127,1.773-.127,1.773-1.894,0-2.168-.006-4.335,0-6.5,0-1.137.578-1.829,1.483-1.824s1.465.7,1.472,1.836c.008,1.248,0,2.5,0,3.744" transform="translate(-147.221 -148.361)" fill="#030303"/>
    <path id="Trazado_181386" data-name="Trazado 181386" d="M281.741,220.69a2.288,2.288,0,0,1,1.438,1.079c1.908,2.7,2.506,5.555,1.148,8.685a13.766,13.766,0,0,1-1.422,2.215q-1.788,1.756-3.577,3.51c-.861.841-1.754.934-2.4.259s-.541-1.492.285-2.326c1.061-1.073,2.139-2.129,3.2-3.205a5.082,5.082,0,0,0,.744-6.788c-.156-.25-.316-.5-.472-.748-.865-1.394-.528-2.246,1.06-2.68" transform="translate(-203.667 -162.551)" fill="#030303"/>
  </g>
</svg>
