<svg xmlns="http://www.w3.org/2000/svg" xmlns:xlink="http://www.w3.org/1999/xlink" width="400" height="340" viewBox="0 0 400 340">
  <defs>
    <clipPath id="clip-path">
      <rect id="Rectángulo_30929" data-name="Rectángulo 30929" width="378.213" height="340" fill="none"/>
    </clipPath>
    <clipPath id="clip-path-4">
      <rect id="Rectángulo_30890" data-name="Rectángulo 30890" width="5.468" height="58.708" fill="none"/>
    </clipPath>
    <clipPath id="clip-path-6">
      <rect id="Rectángulo_30907" data-name="Rectángulo 30907" width="6.918" height="4.556" fill="none"/>
    </clipPath>
    <clipPath id="clip-path-7">
      <rect id="Rectángulo_30908" data-name="Rectángulo 30908" width="23.529" height="11.617" fill="none"/>
    </clipPath>
    <clipPath id="clip-path-8">
      <rect id="Rectángulo_30909" data-name="Rectángulo 30909" width="5.566" height="4.56" fill="none"/>
    </clipPath>
    <clipPath id="clip-path-9">
      <rect id="Rectángulo_30910" data-name="Rectángulo 30910" width="25.968" height="2.549" fill="none"/>
    </clipPath>
    <clipPath id="clip-path-10">
      <rect id="Rectángulo_30911" data-name="Rectángulo 30911" width="6.461" height="28.633" fill="none"/>
    </clipPath>
    <clipPath id="clip-path-12">
      <rect id="Rectángulo_30913" data-name="Rectángulo 30913" width="5.725" height="4.61" fill="none"/>
    </clipPath>
    <clipPath id="clip-path-13">
      <rect id="Rectángulo_30914" data-name="Rectángulo 30914" width="26.706" height="2.66" fill="none"/>
    </clipPath>
    <clipPath id="clip-path-14">
      <rect id="Rectángulo_30915" data-name="Rectángulo 30915" width="5.726" height="4.61" fill="none"/>
    </clipPath>
    <clipPath id="clip-path-17">
      <rect id="Rectángulo_30920" data-name="Rectángulo 30920" width="5.768" height="7.827" fill="none"/>
    </clipPath>
    <clipPath id="clip-path-18">
      <rect id="Rectángulo_30921" data-name="Rectángulo 30921" width="23.87" height="18.079" fill="none"/>
    </clipPath>
    <clipPath id="clip-path-19">
      <rect id="Rectángulo_30922" data-name="Rectángulo 30922" width="15.053" height="11.258" fill="none"/>
    </clipPath>
    <clipPath id="clip-path-20">
      <rect id="Rectángulo_30923" data-name="Rectángulo 30923" width="7.082" height="4.958" fill="none"/>
    </clipPath>
    <clipPath id="clip-path-21">
      <rect id="Rectángulo_30924" data-name="Rectángulo 30924" width="28.451" height="6.887" fill="none"/>
    </clipPath>
    <clipPath id="clip-path-22">
      <rect id="Rectángulo_30925" data-name="Rectángulo 30925" width="17.187" height="4.667" fill="none"/>
    </clipPath>
  </defs>
  <g id="Grupo_82679" data-name="Grupo 82679" transform="translate(-915 -1228)">
    <path id="Trazado_166052" data-name="Trazado 166052" d="M352.163,307.677c17.746-6.129,32.554-16.956,38.658-36.606,6.071-19.544,5.12-40.747,11.277-60.265,4.052-12.843,11.082-24.617,14.811-37.557,14.414-50.029-22.06-86.4-64.085-105.032-9.655-4.28-19.562-8.036-28.873-13.019-14.14-7.568-26.86-17.742-40.484-26.208C253.146,10.148,218.765-3.36,184.329.734c-19.193,2.281-37.592,9.935-55.01,19.3C109.87,30.49,90.442,44.336,77.54,64.21c-6.348,9.778-8.389,20.738-13.274,31.028-5.771,12.157-16.315,20.821-24.178,31.1C14.681,159.558,14.168,211.9,34.822,249.062S94.1,308.131,132.945,310.9c26.616,1.9,53.38-4.6,79.92-1.72,25.009,2.717,62.852,7.839,80.841,7.01,18.332-.845,39.986-2.133,58.457-8.513" transform="translate(894.887 1244.147)" fill="#ffe881"/>
    <g id="Grupo_56803" data-name="Grupo 56803" transform="translate(918.027 1228)">
      <g id="Grupo_56883" data-name="Grupo 56883" clip-path="url(#clip-path)">
        <g id="Grupo_56794" data-name="Grupo 56794">
          <g id="Grupo_56793" data-name="Grupo 56793" clip-path="url(#clip-path)">
            <path id="Trazado_166052-2" data-name="Trazado 166052" d="M376.423,389.4c0,.124-83.283.224-185.994.224-102.747,0-186.012-.1-186.012-.224s83.265-.224,186.012-.224c102.711,0,185.994.1,185.994.224" transform="translate(-0.607 -53.453)" fill="#263238"/>
          </g>
        </g>
        <rect id="Rectángulo_30870" data-name="Rectángulo 30870" width="162.958" height="149.255" transform="translate(132.176 8.979)" fill="#fafafa"/>
        <path id="Trazado_166053" data-name="Trazado 166053" d="M316.543,160.027H152.722V9.909H316.543Zm-162.959-.863h162.1V10.772h-162.1Z" transform="translate(-20.976 -1.361)" fill="#263238"/>
        <rect id="Rectángulo_30871" data-name="Rectángulo 30871" width="169.67" height="9.516" transform="translate(128.409 0.001)" fill="#263238"/>
        <path id="Trazado_166054" data-name="Trazado 166054" d="M153.653,11.032,315.872,26.956l-.084-15.924Z" transform="translate(-21.104 -1.515)" fill="#e0e0e0"/>
        <rect id="Rectángulo_30872" data-name="Rectángulo 30872" width="5.468" height="61.065" transform="translate(157.526 59.301)" fill="#fdd835"/>
        <rect id="Rectángulo_30873" data-name="Rectángulo 30873" width="5.468" height="40.325" transform="translate(168.082 80.041)" fill="#ffa726"/>
        <rect id="Rectángulo_30874" data-name="Rectángulo 30874" width="5.468" height="53.785" transform="translate(178.639 66.891)" fill="#fdd835"/>
        <rect id="Rectángulo_30875" data-name="Rectángulo 30875" width="5.468" height="58.708" transform="translate(189.195 61.659)" fill="#e8505b"/>
        <rect id="Rectángulo_30876" data-name="Rectángulo 30876" width="5.468" height="39.084" transform="translate(199.751 81.282)" fill="#f57c00"/>
        <rect id="Rectángulo_30877" data-name="Rectángulo 30877" width="5.468" height="31.419" transform="translate(210.307 88.948)" fill="#fdd835"/>
        <rect id="Rectángulo_30878" data-name="Rectángulo 30878" width="5.468" height="54.797" transform="translate(220.864 65.569)" fill="#ffa726"/>
        <rect id="Rectángulo_30879" data-name="Rectángulo 30879" width="5.468" height="44.918" transform="translate(231.42 75.448)" fill="#fdd835"/>
        <rect id="Rectángulo_30880" data-name="Rectángulo 30880" width="5.468" height="52.812" transform="translate(241.976 67.554)" fill="#f57c00"/>
        <rect id="Rectángulo_30881" data-name="Rectángulo 30881" width="5.468" height="35.98" transform="translate(252.532 84.386)" fill="#ffa726"/>
        <rect id="Rectángulo_30882" data-name="Rectángulo 30882" width="5.468" height="42.827" transform="translate(263.089 77.539)" fill="#fdd835"/>
        <g id="Grupo_56829" data-name="Grupo 56829">
          <g id="Grupo_56828" data-name="Grupo 56828" clip-path="url(#clip-path)">
            <path id="Trazado_166055" data-name="Trazado 166055" d="M290.733,84.645a2.1,2.1,0,0,1-.353-.057l-1.021-.21a16.017,16.017,0,0,0-1.672-.265,20.565,20.565,0,0,0-2.3-.192,26.6,26.6,0,0,0-6.285.54,27.712,27.712,0,0,0-7.8,2.952,31.908,31.908,0,0,0-7.9,6.287,60.08,60.08,0,0,0-6.655,9.554c-2.142,3.5-4.322,7.311-7.478,10.57a19.547,19.547,0,0,1-5.511,4.121,11.561,11.561,0,0,1-3.4,1.039,10.99,10.99,0,0,1-3.6-.122,14.691,14.691,0,0,1-6.271-3.289,29.263,29.263,0,0,1-4.645-5.069,107.691,107.691,0,0,1-6.661-11.1,45.835,45.835,0,0,0-6.653-9.526,18.079,18.079,0,0,0-4.113-3.236,17.474,17.474,0,0,0-2.222-1.078,17.657,17.657,0,0,0-2.269-.672,16.457,16.457,0,0,0-8.244.23,18.593,18.593,0,0,0-5.658,2.721,20.662,20.662,0,0,0-2.972,2.664l-.692.78a2.171,2.171,0,0,1-.248.257,1.994,1.994,0,0,1,.212-.286l.66-.811a19.232,19.232,0,0,1,2.936-2.745,18.489,18.489,0,0,1,5.693-2.822,16.651,16.651,0,0,1,8.382-.3,17.307,17.307,0,0,1,8.8,5.036,45.9,45.9,0,0,1,6.746,9.582,108.567,108.567,0,0,0,6.654,11.046,28.94,28.94,0,0,0,4.579,4.99,14.285,14.285,0,0,0,6.077,3.192,10.547,10.547,0,0,0,3.446.116,11.161,11.161,0,0,0,3.268-1,19.179,19.179,0,0,0,5.386-4.024c3.11-3.2,5.287-6.977,7.439-10.478a59.925,59.925,0,0,1,6.734-9.59,32.039,32.039,0,0,1,8.017-6.314,27.722,27.722,0,0,1,7.9-2.92,26.2,26.2,0,0,1,6.343-.469,19.936,19.936,0,0,1,2.311.235,14.524,14.524,0,0,1,1.672.31l1.014.254a2.084,2.084,0,0,1,.342.1" transform="translate(-25.563 -11.499)" fill="#263238"/>
            <path id="Trazado_166056" data-name="Trazado 166056" d="M175.594,132.077c-.124,0-.224-17.413-.224-38.888s.1-38.892.224-38.892.224,17.409.224,38.892-.1,38.888-.224,38.888" transform="translate(-24.087 -7.458)" fill="#263238"/>
            <path id="Trazado_166057" data-name="Trazado 166057" d="M295.457,144.425c0,.124-25.936.224-57.923.224s-57.929-.1-57.929-.224,25.931-.224,57.929-.224,57.923.1,57.923.224" transform="translate(-24.669 -19.806)" fill="#263238"/>
            <path id="Trazado_166058" data-name="Trazado 166058" d="M190.357,150a18.522,18.522,0,0,1-4.058.224,18.522,18.522,0,0,1-4.058-.224,18.524,18.524,0,0,1,4.058-.224,18.524,18.524,0,0,1,4.058.224" transform="translate(-25.031 -20.571)" fill="#263238"/>
            <path id="Trazado_166059" data-name="Trazado 166059" d="M205.708,150.28a26.231,26.231,0,0,1-4.849.225,26.229,26.229,0,0,1-4.85-.225,26.51,26.51,0,0,1,4.85-.223,26.512,26.512,0,0,1,4.849.223" transform="translate(-26.922 -20.61)" fill="#263238"/>
            <path id="Trazado_166060" data-name="Trazado 166060" d="M219.016,150.28a26.231,26.231,0,0,1-4.849.225,26.229,26.229,0,0,1-4.85-.225,26.51,26.51,0,0,1,4.85-.223,26.512,26.512,0,0,1,4.849.223" transform="translate(-28.75 -20.61)" fill="#263238"/>
            <path id="Trazado_166061" data-name="Trazado 166061" d="M232.324,150.28a26.231,26.231,0,0,1-4.849.225,26.229,26.229,0,0,1-4.85-.225,26.51,26.51,0,0,1,4.85-.223,26.512,26.512,0,0,1,4.849.223" transform="translate(-30.577 -20.61)" fill="#263238"/>
            <path id="Trazado_166062" data-name="Trazado 166062" d="M245.632,150.28a26.231,26.231,0,0,1-4.849.225,26.229,26.229,0,0,1-4.85-.225,26.51,26.51,0,0,1,4.85-.223,26.512,26.512,0,0,1,4.849.223" transform="translate(-32.405 -20.61)" fill="#263238"/>
            <path id="Trazado_166063" data-name="Trazado 166063" d="M258.941,150.28a52.338,52.338,0,0,1-9.7,0,52.74,52.74,0,0,1,9.7,0" transform="translate(-34.233 -20.61)" fill="#263238"/>
            <path id="Trazado_166064" data-name="Trazado 166064" d="M272.249,150.28a52.338,52.338,0,0,1-9.7,0,52.741,52.741,0,0,1,9.7,0" transform="translate(-36.061 -20.61)" fill="#263238"/>
            <path id="Trazado_166065" data-name="Trazado 166065" d="M285.558,150.28a52.347,52.347,0,0,1-9.7,0,52.75,52.75,0,0,1,9.7,0" transform="translate(-37.889 -20.61)" fill="#263238"/>
            <path id="Trazado_166066" data-name="Trazado 166066" d="M298.866,150.28a52.338,52.338,0,0,1-9.7,0,52.741,52.741,0,0,1,9.7,0" transform="translate(-39.717 -20.61)" fill="#263238"/>
            <path id="Trazado_166067" data-name="Trazado 166067" d="M312.174,150.28a52.338,52.338,0,0,1-9.7,0,52.74,52.74,0,0,1,9.7,0" transform="translate(-41.545 -20.61)" fill="#263238"/>
            <path id="Trazado_166068" data-name="Trazado 166068" d="M225.676,102.336c0-.068.493.1.65.776a1.651,1.651,0,0,1-.124,1.157,1,1,0,0,1-.586.5,1.065,1.065,0,0,1-.816-.1,1.366,1.366,0,0,1-.7-1.28,1.422,1.422,0,0,1,.559-1.033.926.926,0,0,1,.768-.19c.186.056.249.146.236.166-.019.062-.407-.123-.8.267a1.169,1.169,0,0,0-.349.807.984.984,0,0,0,.5.868.588.588,0,0,0,.829-.21,1.464,1.464,0,0,0,.171-.893,2.027,2.027,0,0,0-.337-.833" transform="translate(-30.78 -14.029)" fill="#263238"/>
            <path id="Trazado_166069" data-name="Trazado 166069" d="M286.962,85.255c0-.025.126-.066.348,0a1.35,1.35,0,0,1,.717.62,1.778,1.778,0,0,1,.177,1.408,1.483,1.483,0,0,1-1.373,1.1,1.183,1.183,0,0,1-.875-.456,1.883,1.883,0,0,1-.369-.782,1.8,1.8,0,0,1,.226-1.4c.493-.7,1.105-.663,1.083-.612.029.066-.481.164-.809.774a1.551,1.551,0,0,0-.1,1.136c.106.413.424.884.856.887a1.1,1.1,0,0,0,.966-.777,1.533,1.533,0,0,0-.065-1.132,1.626,1.626,0,0,0-.783-.768" transform="translate(-39.218 -11.69)" fill="#263238"/>
            <path id="Trazado_166070" data-name="Trazado 166070" d="M288.146,51.624c-.124,0-.224-.29-.224-.647s.1-.647.224-.647.224.29.224.647-.1.647-.224.647" transform="translate(-39.546 -6.913)" fill="#263238"/>
            <path id="Trazado_166071" data-name="Trazado 166071" d="M288.146,57.962c-.124,0-.224-.636-.224-1.42s.1-1.42.224-1.42.224.636.224,1.42-.1,1.42-.224,1.42" transform="translate(-39.546 -7.571)" fill="#263238"/>
            <path id="Trazado_166072" data-name="Trazado 166072" d="M288.146,64.545c-.124,0-.224-.636-.224-1.42s.1-1.42.224-1.42.224.636.224,1.42-.1,1.42-.224,1.42" transform="translate(-39.546 -8.475)" fill="#263238"/>
            <path id="Trazado_166073" data-name="Trazado 166073" d="M288.146,71.128c-.124,0-.224-.636-.224-1.42s.1-1.42.224-1.42.224.636.224,1.42-.1,1.42-.224,1.42" transform="translate(-39.546 -9.379)" fill="#263238"/>
            <path id="Trazado_166074" data-name="Trazado 166074" d="M288.146,77.711c-.124,0-.224-.636-.224-1.42s.1-1.42.224-1.42.224.636.224,1.42-.1,1.42-.224,1.42" transform="translate(-39.546 -10.283)" fill="#263238"/>
            <path id="Trazado_166075" data-name="Trazado 166075" d="M288.146,82.749c-.124,0-.224-.29-.224-.647s.1-.647.224-.647.224.29.224.647-.1.647-.224.647" transform="translate(-39.546 -11.188)" fill="#263238"/>
            <path id="Trazado_166076" data-name="Trazado 166076" d="M326.9,39.129c0,.124-8.97.224-20.032.224s-20.033-.1-20.033-.224,8.967-.224,20.033-.224,20.032.1,20.032.224" transform="translate(-39.396 -5.344)" fill="#263238"/>
            <path id="Trazado_166077" data-name="Trazado 166077" d="M313.312,32.627c0,.124-5.771.224-12.889.224s-12.89-.1-12.89-.224,5.77-.224,12.89-.224,12.889.1,12.889.224" transform="translate(-39.492 -4.451)" fill="#263238"/>
            <g id="Grupo_56806" data-name="Grupo 56806" transform="translate(189.195 61.659)" opacity="0.3">
              <g id="Grupo_56805" data-name="Grupo 56805">
                <g id="Grupo_56804" data-name="Grupo 56804" clip-path="url(#clip-path-4)">
                  <rect id="Rectángulo_30889" data-name="Rectángulo 30889" width="5.468" height="58.708" fill="#fff"/>
                </g>
              </g>
            </g>
          </g>
        </g>
        <rect id="Rectángulo_30906" data-name="Rectángulo 30906" width="5.97" height="71.523" transform="translate(329.579 253.389)" fill="#455a64"/>
        <g id="Grupo_56846" data-name="Grupo 56846">
          <g id="Grupo_56845" data-name="Grupo 56845" clip-path="url(#clip-path)">
            <path id="Trazado_166078" data-name="Trazado 166078" d="M336.55,296.009h85.38a9.268,9.268,0,0,0-9.267-9.267H345.817a9.268,9.268,0,0,0-9.267,9.267" transform="translate(-46.225 -39.384)" fill="#455a64"/>
            <path id="Trazado_166079" data-name="Trazado 166079" d="M378.791,297.663a62.456,62.456,0,0,0,10.475,0,62.464,62.464,0,0,0-10.475,0" transform="translate(-52.027 -40.854)" fill="#263238"/>
            <path id="Trazado_166080" data-name="Trazado 166080" d="M355.244,379.977h.845a25.4,25.4,0,1,1,50.8,0h.845a26.245,26.245,0,1,0-52.491,0" transform="translate(-48.792 -48.585)" fill="#455a64"/>
            <path id="Trazado_166081" data-name="Trazado 166081" d="M411.041,385.039a3.935,3.935,0,1,0,3.935-3.935,3.935,3.935,0,0,0-3.935,3.935" transform="translate(-56.456 -52.344)" fill="#263238"/>
            <path id="Trazado_166082" data-name="Trazado 166082" d="M350.944,384.41a3.935,3.935,0,1,0,3.935-3.935,3.935,3.935,0,0,0-3.935,3.935" transform="translate(-48.202 -52.258)" fill="#455a64"/>
            <path id="Trazado_166083" data-name="Trazado 166083" d="M355.538,376.609c0,.122,11.421.22,25.505.22s25.509-.1,25.509-.22-11.418-.22-25.509-.22-25.505.1-25.505.22" transform="translate(-48.833 -51.697)" fill="#455a64"/>
            <path id="Trazado_166084" data-name="Trazado 166084" d="M429.981,210.766v52.651a12.5,12.5,0,0,1-12.5,12.5h-40.57l5.511-65.153a5.573,5.573,0,0,1,5.572-5.573h36.418a5.573,5.573,0,0,1,5.573,5.573" transform="translate(-51.768 -28.183)" fill="#455a64"/>
            <path id="Trazado_166085" data-name="Trazado 166085" d="M421.807,275.943c-.006,0,.026-.057.093-.154l.3-.432c.269-.372.653-.932,1.115-1.672a27.7,27.7,0,0,0,3.023-6.705,27.217,27.217,0,0,0,1-4.979,51.016,51.016,0,0,0,.16-5.847c-.005-4.141-.011-8.686-.017-13.458.024-9.533.047-18.16.062-24.453.029-3.1.052-5.619.068-7.41q.025-1.268.04-2.015a4.318,4.318,0,0,1,.043-.7,4.4,4.4,0,0,1,.042.7q.016.748.04,2.015c.016,1.79.04,4.312.068,7.41.016,6.293.038,14.92.062,24.453-.006,4.772-.011,9.318-.016,13.458a50.094,50.094,0,0,1-.2,5.886,26.944,26.944,0,0,1-1.068,5.028,26.38,26.38,0,0,1-3.171,6.707c-.487.731-.894,1.277-1.186,1.634a3.667,3.667,0,0,1-.459.534" transform="translate(-57.935 -28.584)" fill="#263238"/>
            <path id="Trazado_166086" data-name="Trazado 166086" d="M396.2,286.755a7.446,7.446,0,0,1,1.289-.073l3.515-.043c2.969-.017,7.072-.011,11.6.021,2.264.022,4.427.025,6.384.075a20.625,20.625,0,0,1,5.209.568,8.054,8.054,0,0,1,3.132,1.641,5.271,5.271,0,0,1,.681.681c.144.166.213.258.2.268-.037.035-.331-.325-.988-.82a8.439,8.439,0,0,0-3.106-1.479,21.572,21.572,0,0,0-5.139-.467l-6.385-.041c-4.527-.033-8.626-.085-11.593-.145l-3.514-.092a7.569,7.569,0,0,1-1.29-.092" transform="translate(-54.417 -39.368)" fill="#263238"/>
            <path id="Trazado_166087" data-name="Trazado 166087" d="M351.7,147.043c-1.2,3.68-2.409,7.447-2.323,11.316.039,1.79.33,3.709-.551,5.267a15.511,15.511,0,0,1-2.546,2.706,7.991,7.991,0,0,0-1.411,8.593,5.418,5.418,0,0,0,2.043,2.432,7.722,7.722,0,0,0,3.575.833,59.924,59.924,0,0,0,12.318-.557c1.946-.291,4.054-.782,5.257-2.338,1.077-1.393,1.154-3.3,1.09-5.055a48.158,48.158,0,0,0-4.84-19.3" transform="translate(-47.274 -20.196)" fill="#263238"/>
            <path id="Trazado_166088" data-name="Trazado 166088" d="M382.809,142.171a3.046,3.046,0,1,1-.4,5.647c1.98-.342,3.878,1.156,4.8,2.943a25.286,25.286,0,0,1,1.6,5.792c.471,1.953,1.322,3.978,3.04,5.02,1.637.993,3.947,1.033,5.007,2.628,1.1,1.657.133,3.917.594,5.853s2.22,3.2,3.781,4.414,3.167,2.821,3.085,4.8a4.511,4.511,0,0,1-2.7,3.64,11.769,11.769,0,0,1-4.639.9,68.2,68.2,0,0,1-23.16-2.984,6.346,6.346,0,0,1-3.2-1.776c-1.186-1.472-.9-3.6-.562-5.457a123.614,123.614,0,0,1,4.11-17.482,41.36,41.36,0,0,1,8.889-15.459" transform="translate(-50.786 -19.317)" fill="#263238"/>
            <path id="Trazado_166089" data-name="Trazado 166089" d="M385.13,203.3h9.219l-3.275-16.426c-2.413-13.444-21.26-14.369-21.26-14.369l-14.792-.24s-10.965-1.475-17.734,6.155c-1.39,1.567-2.842,3.19-4.278,4.785l-16.043,16.784-1.7-21.057-13.741,2.155,1.92,26.448a10.836,10.836,0,0,0,7.264,9.373c2.972.944,5.995.116,9.01-1.387,8-3.991,23.009-16.685,24.16-17.661a19.194,19.194,0,0,0-2.073,7.69c0,4.379,4.493,7.657,4.493,7.657l1.4,13.33-4.645,21.52,48.3-1.938a48.027,48.027,0,0,0-7.121-20.3Zm-41.223-5.505a1.226,1.226,0,0,1-.16-.325l.518-.367s-.143.255-.358.692" transform="translate(-41.414 -23.645)" fill="#f57c00"/>
            <path id="Trazado_166090" data-name="Trazado 166090" d="M370.687,249.627a83.487,83.487,0,0,1-7.818,4.744c-3.426,1.63-3.586,1.328-3.719.9-.356-1.152,5.913-3.1,4.3-3.451s-7.37,3.26-7.692,2.043c-.421-1.586,6.183-3.5,6.729-3.705.53-.2.25-.991-.232-.782-.694.3-8.059,3.284-8.487,1.73-.238-.862,1.367-1.107,1.367-1.107s7.11-2.288,6.883-3.015-4.454.465-5.847.97c-1.377.5-2.19.054-1.921-.733.183-.537,4.411-2.185,5.8-2.653s5.227-1.685,2.809-2.608-3.941-2.522-4.053-3.23.848-1.1,1.415-.533a9.666,9.666,0,0,0,2.223,1.366,6.314,6.314,0,0,0,2.006.594c.6.072,1.138.118,1.62.15l5.135.387,2.591,6.8Z" transform="translate(-48.587 -32.679)" fill="#ffbe9d"/>
            <path id="Trazado_166091" data-name="Trazado 166091" d="M395.227,179.64a18.1,18.1,0,0,1,6.079,9.1c1.14,3.73,4.411,16.36,6.818,25.76a12.05,12.05,0,0,1-7.889,14.429l-27.186,14.688-4.44-11.489,23.852-15.677L386.694,195.1c-.948-3.25-1.357-6.552-.168-9.721,1.22-3.248,3.691-6.344,8.7-5.737" transform="translate(-50.628 -24.663)" fill="#f57c00"/>
            <path id="Trazado_166092" data-name="Trazado 166092" d="M302.292,180.278,300.644,175c-.77-3.78,2.219-4.387,2.72-4.949a7.894,7.894,0,0,1,2.666-2.155l-.24-1.523a36.3,36.3,0,0,1-.86-4.956c.037-.907,1.663-.97,1.9-.092.538,2,1.476,5.379,1.978,6.624.662,1.638,2.131,5.932,3.675,3.267a13.366,13.366,0,0,0,1.648-5.05c.279-.874,2.213-1.035,1.835.776-.158.757-.252,2.1-.727,3.917-.211.809-.659,1.806-.886,2.611-.262.939-.38,4.443-.522,5.132Z" transform="translate(-41.276 -22.072)" fill="#ffbe9d"/>
            <path id="Trazado_166093" data-name="Trazado 166093" d="M303.246,172.714a13.978,13.978,0,0,1,.414,1.556,11.587,11.587,0,0,0,.6,1.615,3.091,3.091,0,0,1,.342,1.052,1.109,1.109,0,0,1-.622,1.142,1.362,1.362,0,0,1-1.256-.248,3.1,3.1,0,0,1-.755-.812,4.729,4.729,0,0,1-.655-1.691,4.328,4.328,0,0,1-.1-1.632,9.231,9.231,0,0,1,.413,1.559,4.953,4.953,0,0,0,.688,1.531,2.855,2.855,0,0,0,.664.684.962.962,0,0,0,.837.191.683.683,0,0,0,.35-.7,2.92,2.92,0,0,0-.282-.913,9.215,9.215,0,0,1-.528-1.7,3.77,3.77,0,0,1-.106-1.632" transform="translate(-41.366 -23.722)" fill="#eb996e"/>
            <path id="Trazado_166094" data-name="Trazado 166094" d="M305.929,170.686a10.239,10.239,0,0,1,.785,2l.732,2.209c.128.424.291.833.4,1.341a1.577,1.577,0,0,1-.039.832,1.251,1.251,0,0,1-.589.668,1.591,1.591,0,0,1-1.626-.084,2.625,2.625,0,0,1-.952-1.127,16.637,16.637,0,0,1-.7-2.25,10.211,10.211,0,0,1-.467-2.1,10.244,10.244,0,0,1,.771,2.007,22.349,22.349,0,0,0,.769,2.159,2.266,2.266,0,0,0,.812.934,1.156,1.156,0,0,0,1.18.065.873.873,0,0,0,.411-1.027c-.085-.426-.249-.882-.364-1.3-.229-.8-.444-1.549-.641-2.238a10.232,10.232,0,0,1-.481-2.1" transform="translate(-41.68 -23.444)" fill="#eb996e"/>
            <path id="Trazado_166095" data-name="Trazado 166095" d="M317,209.316a16.689,16.689,0,0,1,2.123-5.025A16.689,16.689,0,0,1,317,209.316" transform="translate(-43.537 -28.059)" fill="#263238"/>
            <path id="Trazado_166096" data-name="Trazado 166096" d="M340.246,204.842a13.643,13.643,0,0,1-2.424-.562l-2.6-.733a14.759,14.759,0,0,1-3.1-1.248,6.855,6.855,0,0,1-2.469-2.3,4.921,4.921,0,0,1-.728-2.656,16.2,16.2,0,0,0-.06-1.8,4.07,4.07,0,0,1-.1-.656c.023-.01.157.2.268.624a10.266,10.266,0,0,1,.206,1.818,4.8,4.8,0,0,0,.761,2.452,6.738,6.738,0,0,0,2.341,2.127,16.019,16.019,0,0,0,3,1.243l2.564.824a13.674,13.674,0,0,1,2.333.866" transform="translate(-45.156 -26.768)" fill="#e0e0e0"/>
            <path id="Trazado_166097" data-name="Trazado 166097" d="M387.813,243.469c-.076-.006.018-.776-.217-1.972a12.088,12.088,0,0,0-1.9-4.327c-.515-.781-1.057-1.494-1.552-2.144a12.621,12.621,0,0,0-1.365-1.643,2.091,2.091,0,0,0-1.239-.555c-.329-.02-.512.057-.525.021-.013-.019.152-.159.522-.195a2.1,2.1,0,0,1,1.442.483,10.6,10.6,0,0,1,1.489,1.633c.516.639,1.075,1.354,1.6,2.152a10.84,10.84,0,0,1,1.843,4.523,4.071,4.071,0,0,1-.1,2.024" transform="translate(-52.331 -31.954)" fill="#e0e0e0"/>
            <path id="Trazado_166098" data-name="Trazado 166098" d="M396.538,189.984a4.034,4.034,0,0,1-.669-.192l-1.9-.6a23.192,23.192,0,0,0-7.144-1.254,11.486,11.486,0,0,0-4.817,1.134,23.226,23.226,0,0,0-4.748,3.235,55.39,55.39,0,0,1-5.044,4.005,13.33,13.33,0,0,1-6.517,2.352,7.535,7.535,0,0,1-3.5-.7,8.964,8.964,0,0,1-2.769-2.07,62.332,62.332,0,0,1-3.883-5.136,14.842,14.842,0,0,0-8.846-5.665,15.569,15.569,0,0,0-7.2.1c-1.663.447-2.509.92-2.534.864a10.727,10.727,0,0,1,2.487-1.032,15.269,15.269,0,0,1,7.313-.247,15.568,15.568,0,0,1,4.758,1.821,14.642,14.642,0,0,1,4.351,3.9c1.262,1.627,2.366,3.487,3.873,5.085a7.569,7.569,0,0,0,5.932,2.622,12.974,12.974,0,0,0,6.3-2.272A56.765,56.765,0,0,0,377,191.983a23.379,23.379,0,0,1,4.853-3.253,11.71,11.71,0,0,1,4.971-1.114,22.271,22.271,0,0,1,7.2,1.405c.82.282,1.449.52,1.874.686a4.019,4.019,0,0,1,.639.277" transform="translate(-46.283 -25.334)" fill="#e0e0e0"/>
            <path id="Trazado_166099" data-name="Trazado 166099" d="M387.575,216.347a9.022,9.022,0,0,0-1.555-.357,8.761,8.761,0,0,0-4.191.966,48.7,48.7,0,0,1-6,2.63,24.589,24.589,0,0,1-7.953,1.156,23.942,23.942,0,0,1-7.9-1.494,24.464,24.464,0,0,1-5.791-3.092,23.2,23.2,0,0,1-3.319-2.923c-.359-.38-.619-.691-.788-.908a1.451,1.451,0,0,1-.244-.342c.032-.028.41.407,1.157,1.127a26.967,26.967,0,0,0,3.378,2.786,25.259,25.259,0,0,0,5.75,2.961,24.185,24.185,0,0,0,7.764,1.435,24.844,24.844,0,0,0,7.82-1.1,53.263,53.263,0,0,0,6-2.528,8.548,8.548,0,0,1,4.334-.848,3.612,3.612,0,0,1,1.536.531" transform="translate(-48.05 -29.116)" fill="#e0e0e0"/>
            <path id="Trazado_166100" data-name="Trazado 166100" d="M410.142,212.826a1.726,1.726,0,0,1-.213.65,8.011,8.011,0,0,1-.957,1.6,8.81,8.81,0,0,1-5.122,3.291,14.987,14.987,0,0,1-6.116-.151,11.661,11.661,0,0,1-2.441-.654,17.645,17.645,0,0,1,2.5.341,16.607,16.607,0,0,0,5.964.026,9.044,9.044,0,0,0,4.972-3.051c.985-1.178,1.343-2.089,1.418-2.052" transform="translate(-54.293 -29.231)" fill="#e0e0e0"/>
            <path id="Trazado_166101" data-name="Trazado 166101" d="M386.221,195.447a2.309,2.309,0,0,1,.122.415l.3,1.222c.269,1.1.651,2.663,1.134,4.636.992,3.991,2.45,9.685,4.278,16.5l.035.131-.112.078-20.1,13.868-3.183,2.189.081-.267,4.519,11.349-.291-.111c8.339-4.116,15.36-7.875,20.3-10.591l5.763-3.2,1.536-.85a3.753,3.753,0,0,1,.542-.273,4,4,0,0,1-.506.335l-1.5.909c-1.318.784-3.251,1.912-5.706,3.3-4.907,2.781-11.906,6.594-20.24,10.741l-.205.1-.085-.213-4.542-11.34-.066-.166.147-.1,3.182-2.19,20.135-13.816-.077.209c-1.792-6.831-3.2-12.541-4.124-16.55-.466-2-.806-3.583-1.031-4.662-.1-.518-.179-.926-.24-1.234a2.3,2.3,0,0,1-.062-.428" transform="translate(-50.584 -26.844)" fill="#263238"/>
            <path id="Trazado_166102" data-name="Trazado 166102" d="M402.177,223.854a21.122,21.122,0,0,0-3.143-1.47,9.964,9.964,0,0,0-2.386-.456c-.623-.039-1.014,0-1.029-.064-.013-.053.37-.21,1.028-.254a7.014,7.014,0,0,1,2.522.346,5.432,5.432,0,0,1,3.008,1.9" transform="translate(-54.338 -30.436)" fill="#263238"/>
            <path id="Trazado_166103" data-name="Trazado 166103" d="M284.721,330.846l3.571-7.409,13.922,6.6-5.109,10.9-.889-.354c-3.943-1.608-19.935-8.452-22.134-10.448-2.453-2.227,10.639.717,10.639.717" transform="translate(-37.603 -44.424)" fill="#f57c00"/>
            <g id="Grupo_56832" data-name="Grupo 56832" transform="translate(254.506 291.746)" opacity="0.5">
              <g id="Grupo_56831" data-name="Grupo 56831">
                <g id="Grupo_56830" data-name="Grupo 56830" clip-path="url(#clip-path-6)">
                  <path id="Trazado_166104" data-name="Trazado 166104" d="M295.028,340.457a5.347,5.347,0,0,1,3.183-2.126,5.2,5.2,0,0,1,3.734.531l-1.842,3.892Z" transform="translate(-295.028 -338.197)" fill="#fff"/>
                </g>
              </g>
            </g>
            <g id="Grupo_56835" data-name="Grupo 56835" transform="translate(236.099 284.891)" opacity="0.4">
              <g id="Grupo_56834" data-name="Grupo 56834">
                <g id="Grupo_56833" data-name="Grupo 56833" clip-path="url(#clip-path-7)">
                  <path id="Trazado_166105" data-name="Trazado 166105" d="M278.216,330.55s-4.713-.77-4.519.159,16.094,8.453,23.4,11.158l.125-.322-18.621-8.62s.412-1.958-.382-2.376" transform="translate(-273.69 -330.251)" fill="#fff"/>
                </g>
              </g>
            </g>
            <path id="Trazado_166106" data-name="Trazado 166106" d="M297.459,341.676a1.413,1.413,0,0,1-.252-.087l-.707-.284-2.583-1.09c-2.174-.935-5.16-2.266-8.426-3.808s-6.191-3-8.294-4.09l-2.482-1.3-.669-.366a1.48,1.48,0,0,1-.227-.139,1.412,1.412,0,0,1,.245.105l.684.335,2.508,1.25c2.118,1.055,5.051,2.5,8.315,4.039s6.24,2.891,8.4,3.856l2.559,1.143.693.317a1.436,1.436,0,0,1,.237.122" transform="translate(-37.609 -45.395)" fill="#263238"/>
            <path id="Trazado_166107" data-name="Trazado 166107" d="M279.215,333.157a4.067,4.067,0,0,0-.305-2.81,2.49,2.49,0,0,1,.305,2.81" transform="translate(-38.307 -45.373)" fill="#263238"/>
            <path id="Trazado_166108" data-name="Trazado 166108" d="M285.136,333.2a1.619,1.619,0,0,1-.186-.742,1.647,1.647,0,0,1,0-.765,1.621,1.621,0,0,1,.187.742,1.653,1.653,0,0,1,0,.765" transform="translate(-39.132 -45.558)" fill="#263238"/>
            <path id="Trazado_166109" data-name="Trazado 166109" d="M286.724,333.181c-.047.02-.2-.231-.336-.56s-.211-.612-.164-.632.2.231.336.56.211.612.164.632" transform="translate(-39.311 -45.598)" fill="#263238"/>
            <path id="Trazado_166110" data-name="Trazado 166110" d="M288.12,332.129a1.82,1.82,0,0,1-.77-.251c-.4-.186-.713-.374-.693-.421a1.8,1.8,0,0,1,.77.251c.4.185.714.374.693.421" transform="translate(-39.372 -45.524)" fill="#263238"/>
            <path id="Trazado_166111" data-name="Trazado 166111" d="M288.874,331.193a2.264,2.264,0,0,1-1.707-.656,74.65,74.65,0,0,0,1.707.656" transform="translate(-39.442 -45.398)" fill="#263238"/>
            <path id="Trazado_166112" data-name="Trazado 166112" d="M284.927,331.418a2.847,2.847,0,0,1-.892-.43,5.693,5.693,0,0,1-.853-.661,2.831,2.831,0,0,1-.439-.482.534.534,0,0,1-.091-.383.39.39,0,0,1,.305-.293,1.815,1.815,0,0,1,1.8,1.441,1.769,1.769,0,0,1,.009.735c-.037.17-.081.256-.091.253a2.8,2.8,0,0,0-.047-.957,1.79,1.79,0,0,0-.529-.858,1.536,1.536,0,0,0-1.1-.432c-.192.038-.216.231-.1.4a2.977,2.977,0,0,0,.4.453,6.86,6.86,0,0,0,.808.676c.491.349.832.511.819.538" transform="translate(-38.821 -45.211)" fill="#263238"/>
            <path id="Trazado_166113" data-name="Trazado 166113" d="M285,331.477a.976.976,0,0,1,.191-.67,1.635,1.635,0,0,1,.554-.538,1,1,0,0,1,.961-.1.393.393,0,0,1,.08.543,1.078,1.078,0,0,1-.342.329,2.966,2.966,0,0,1-.678.341,1.425,1.425,0,0,1-.684.12c-.005-.029.254-.076.635-.242a3.461,3.461,0,0,0,.629-.36c.213-.131.457-.43.253-.578a.885.885,0,0,0-.77.1,1.631,1.631,0,0,0-.529.462,3.633,3.633,0,0,0-.3.6" transform="translate(-39.142 -45.336)" fill="#263238"/>
            <path id="Trazado_166114" data-name="Trazado 166114" d="M301.9,338.739c-.018.03-.38-.227-1.046-.45a4.826,4.826,0,0,0-5.023,1.181c-.5.5-.706.888-.735.869a.869.869,0,0,1,.132-.28,4.087,4.087,0,0,1,.507-.68,4.682,4.682,0,0,1,5.164-1.214,4,4,0,0,1,.757.382c.167.11.251.183.244.192" transform="translate(-40.531 -46.403)" fill="#263238"/>
            <path id="Trazado_166115" data-name="Trazado 166115" d="M304.07,331.371a27.123,27.123,0,0,1-1.233,2.917,26.731,26.731,0,0,1-1.4,2.84,53.944,53.944,0,0,1,2.636-5.757" transform="translate(-41.401 -45.514)" fill="#263238"/>
            <path id="Trazado_166116" data-name="Trazado 166116" d="M293.091,337.98A12.643,12.643,0,0,1,289,336.092c.028-.047.911.439,2.038.958s2.068.878,2.05.93" transform="translate(-39.694 -46.162)" fill="#263238"/>
            <path id="Trazado_166117" data-name="Trazado 166117" d="M296.789,339.771c.018.05-.166.157-.357.323s-.33.325-.377.3.033-.254.256-.443.464-.227.478-.179" transform="translate(-40.661 -46.665)" fill="#263238"/>
            <path id="Trazado_166118" data-name="Trazado 166118" d="M298.68,338.851c.017.048-.141.151-.355.229s-.4.1-.418.053.141-.151.354-.229.4-.1.418-.053" transform="translate(-40.917 -46.538)" fill="#263238"/>
            <path id="Trazado_166119" data-name="Trazado 166119" d="M300.684,338.942c-.032.042-.216-.047-.455-.072s-.438.015-.46-.035.186-.186.48-.151.468.221.434.257" transform="translate(-41.173 -46.517)" fill="#263238"/>
            <path id="Trazado_166120" data-name="Trazado 166120" d="M302.117,339.221c0,.052-.117.085-.254.075s-.244-.06-.241-.11.117-.085.254-.075.244.06.241.11" transform="translate(-41.428 -46.576)" fill="#263238"/>
            <path id="Trazado_166121" data-name="Trazado 166121" d="M332.864,382.659l-.169-8.224,15.4-.414.374,12.028-.953.087c-4.243.35-21.6,1.482-24.466.7-3.194-.876,9.813-4.174,9.813-4.174" transform="translate(-44.302 -51.371)" fill="#f57c00"/>
            <g id="Grupo_56838" data-name="Grupo 56838" transform="translate(298.582 330.147)" opacity="0.5">
              <g id="Grupo_56837" data-name="Grupo 56837">
                <g id="Grupo_56836" data-name="Grupo 56836" clip-path="url(#clip-path-8)">
                  <path id="Trazado_166122" data-name="Trazado 166122" d="M346.121,387.273A5.34,5.34,0,0,1,348,383.936a5.191,5.191,0,0,1,3.57-1.216l.119,4.3Z" transform="translate(-346.121 -382.712)" fill="#fff"/>
                </g>
              </g>
            </g>
            <g id="Grupo_56841" data-name="Grupo 56841" transform="translate(278.201 333.127)" opacity="0.4">
              <g id="Grupo_56840" data-name="Grupo 56840">
                <g id="Grupo_56839" data-name="Grupo 56839" clip-path="url(#clip-path-9)">
                  <path id="Trazado_166123" data-name="Trazado 166123" d="M326.508,386.167s-4.551,1.447-3.959,2.187,18.177.256,25.915-.637l-.035-.343-20.506.739s-.518-1.932-1.416-1.946" transform="translate(-322.496 -386.167)" fill="#fff"/>
                </g>
              </g>
            </g>
            <path id="Trazado_166124" data-name="Trazado 166124" d="M348.678,387.547a1.553,1.553,0,0,1-.264.036l-.759.066-2.8.2c-2.362.15-5.628.314-9.238.417s-6.881.122-9.248.106l-2.8-.04-.762-.023a1.363,1.363,0,0,1-.266-.022,1.448,1.448,0,0,1,.266-.016l.762-.011,2.8-.02c2.365-.017,5.634-.06,9.242-.16s6.873-.246,9.236-.362l2.8-.138.762-.032a1.468,1.468,0,0,1,.267,0" transform="translate(-44.301 -53.229)" fill="#263238"/>
            <path id="Trazado_166125" data-name="Trazado 166125" d="M328.555,388.322a4.086,4.086,0,0,0-1.543-2.367,2.492,2.492,0,0,1,1.543,2.367" transform="translate(-44.915 -53.01)" fill="#263238"/>
            <path id="Trazado_166126" data-name="Trazado 166126" d="M333.859,385.682c-.043.028-.267-.229-.5-.577s-.389-.653-.347-.682.267.229.5.578.39.653.347.682" transform="translate(-45.738 -52.8)" fill="#263238"/>
            <path id="Trazado_166127" data-name="Trazado 166127" d="M335.262,384.945c-.034.04-.281-.116-.553-.348s-.465-.45-.432-.489.281.116.553.347.466.45.432.49" transform="translate(-45.912 -52.756)" fill="#263238"/>
            <path id="Trazado_166128" data-name="Trazado 166128" d="M336.031,383.357a3.521,3.521,0,1,1-.808-.062,1.822,1.822,0,0,1,.808.062" transform="translate(-45.933 -52.645)" fill="#263238"/>
            <path id="Trazado_166129" data-name="Trazado 166129" d="M336.278,382.17a2.262,2.262,0,0,1-1.818.187,64.011,64.011,0,0,0,1.818-.187" transform="translate(-45.938 -52.489)" fill="#263238"/>
            <path id="Trazado_166130" data-name="Trazado 166130" d="M332.88,384.13a2.858,2.858,0,0,1-.989.021,5.782,5.782,0,0,1-1.06-.2,2.919,2.919,0,0,1-.61-.232.535.535,0,0,1-.254-.3.389.389,0,0,1,.139-.4,1.816,1.816,0,0,1,2.259.469,1.769,1.769,0,0,1,.341.651c.045.168.044.265.033.267a2.8,2.8,0,0,0-.474-.832,1.787,1.787,0,0,0-.861-.526,1.534,1.534,0,0,0-1.177.113c-.154.121-.088.3.09.4a2.947,2.947,0,0,0,.562.223,6.961,6.961,0,0,0,1.027.237c.6.089.973.079.974.11" transform="translate(-45.319 -52.577)" fill="#263238"/>
            <path id="Trazado_166131" data-name="Trazado 166131" d="M333.029,384.1a.976.976,0,0,1-.133-.684,1.621,1.621,0,0,1,.25-.731.994.994,0,0,1,.81-.527.394.394,0,0,1,.317.449,1.072,1.072,0,0,1-.156.447,2.983,2.983,0,0,1-.45.612,1.445,1.445,0,0,1-.556.417c-.018-.024.192-.184.456-.5a3.44,3.44,0,0,0,.4-.606c.13-.213.213-.591-.036-.629-.248-.017-.494.236-.64.437a1.62,1.62,0,0,0-.262.651,3.622,3.622,0,0,0,0,.668" transform="translate(-45.722 -52.489)" fill="#263238"/>
            <path id="Trazado_166132" data-name="Trazado 166132" d="M351.487,382.66c0,.035-.443-.03-1.136.072a4.827,4.827,0,0,0-3.946,3.326c-.217.667-.227,1.111-.262,1.108a.9.9,0,0,1-.009-.311,4.05,4.05,0,0,1,.145-.836,4.683,4.683,0,0,1,4.055-3.419,4.1,4.1,0,0,1,.848,0,.9.9,0,0,1,.3.061" transform="translate(-47.541 -52.547)" fill="#263238"/>
            <path id="Trazado_166133" data-name="Trazado 166133" d="M350.28,375.294a54.016,54.016,0,0,1,.254,6.327,53.562,53.562,0,0,1-.254-6.327" transform="translate(-48.106 -51.546)" fill="#263238"/>
            <path id="Trazado_166134" data-name="Trazado 166134" d="M343.111,386.318a12.673,12.673,0,0,1-4.5.166c0-.054,1.011-.02,2.251-.068s2.241-.152,2.249-.1" transform="translate(-46.508 -53.058)" fill="#263238"/>
            <path id="Trazado_166135" data-name="Trazado 166135" d="M347.259,386.217c.039.037-.077.216-.173.449s-.148.439-.2.437-.086-.241.028-.51.311-.413.345-.377" transform="translate(-47.638 -53.046)" fill="#263238"/>
            <path id="Trazado_166136" data-name="Trazado 166136" d="M348.508,384.54c.038.035-.058.2-.212.364s-.311.272-.349.236.057-.2.212-.364.311-.272.348-.236" transform="translate(-47.789 -52.815)" fill="#263238"/>
            <path id="Trazado_166137" data-name="Trazado 166137" d="M350.327,383.726c-.01.053-.215.056-.439.142s-.383.21-.424.177.081-.25.36-.352.518-.016.5.033" transform="translate(-47.998 -52.693)" fill="#263238"/>
            <path id="Trazado_166138" data-name="Trazado 166138" d="M351.726,383.343c.02.047-.066.129-.192.182s-.245.058-.266.01.066-.129.193-.182.245-.058.265-.01" transform="translate(-48.246 -52.647)" fill="#263238"/>
            <path id="Trazado_166139" data-name="Trazado 166139" d="M348.546,206.4a12.43,12.43,0,0,1,.581-2.22c.2-.678.452-1.485.762-2.371.155-.444.327-.908.524-1.383.108-.257.242-.476.311-.689a2.155,2.155,0,0,0,.088-.709,10.619,10.619,0,0,0-.229-1.517q-.139-.743-.268-1.443l-.427-2.448a10.963,10.963,0,0,1-.274-2.279,11,11,0,0,1,.6,2.214c.162.746.338,1.559.527,2.429l.3,1.437a9.97,9.97,0,0,1,.248,1.6,2.586,2.586,0,0,1-.114.869c-.1.287-.242.511-.331.722-.2.462-.376.917-.541,1.352-.306.834-.592,1.612-.855,2.327a9.852,9.852,0,0,1-.9,2.113" transform="translate(-47.871 -26.281)" fill="#263238"/>
            <g id="Grupo_56844" data-name="Grupo 56844" transform="translate(334.819 166.194)" opacity="0.3">
              <g id="Grupo_56843" data-name="Grupo 56843">
                <g id="Grupo_56842" data-name="Grupo 56842" clip-path="url(#clip-path-10)">
                  <path id="Trazado_166140" data-name="Trazado 166140" d="M388.128,192.655c.6,9.161,1.523,19.454,1.7,28.633,1.408-.637,4.761-3.061,4.761-3.4,0,0-4.374-15.363-6.461-25.233" transform="translate(-388.128 -192.655)"/>
                </g>
              </g>
            </g>
            <path id="Trazado_166141" data-name="Trazado 166141" d="M389.331,253.68s-63.161-13.231-69.277-10.335-34.315,72.6-34.315,72.6l19.021,6.987L330.582,265.1s46.518,17.543,54.243,15.938,4.506-27.354,4.506-27.354" transform="translate(-39.246 -33.366)" fill="#263238"/>
            <path id="Trazado_166142" data-name="Trazado 166142" d="M366.622,259.7c-.965.322-37.5,15.341-40.076,20.169S330.3,364.86,330.3,364.86h20.78l-1.287-71.249,40.556-10.275Z" transform="translate(-44.766 -35.669)" fill="#263238"/>
            <path id="Trazado_166143" data-name="Trazado 166143" d="M391.848,284.554a2.831,2.831,0,0,1-.6-.073l-1.7-.3c-1.474-.272-3.6-.691-6.224-1.248-5.245-1.108-12.465-2.781-20.333-5.037-3.932-1.139-7.647-2.326-11-3.479-3.341-1.189-6.337-2.3-8.8-3.357-1.244-.5-2.35-1-3.32-1.442s-1.8-.82-2.473-1.162l-1.542-.777a2.8,2.8,0,0,1-.524-.3,2.89,2.89,0,0,1,.565.214l1.579.7c.679.316,1.52.679,2.5,1.086s2.091.894,3.34,1.375c2.477,1.014,5.478,2.09,8.82,3.254,3.355,1.128,7.066,2.3,10.991,3.436,7.853,2.252,15.051,3.975,20.273,5.166L389.586,284l1.682.389a2.841,2.841,0,0,1,.58.167" transform="translate(-46.057 -36.724)" fill="#455a64"/>
            <path id="Trazado_166144" data-name="Trazado 166144" d="M326.46,300.466a5.976,5.976,0,0,1-.192-1.2c-.091-.87-.208-1.973-.347-3.288-.132-1.422-.286-3.069-.454-4.881a22.278,22.278,0,0,1-.009-6.045,9.433,9.433,0,0,1,3.033-5.224,15.947,15.947,0,0,1,4.157-2.672,32.409,32.409,0,0,1,3.085-1.215,5.789,5.789,0,0,1,1.167-.341c.035.085-1.606.656-4.106,1.86a16.461,16.461,0,0,0-4,2.691,9.136,9.136,0,0,0-2.864,4.992,23.017,23.017,0,0,0-.022,5.919c.13,1.815.249,3.465.352,4.889.078,1.32.144,2.427.2,3.3a5.941,5.941,0,0,1,.008,1.216" transform="translate(-44.672 -37.853)" fill="#455a64"/>
            <path id="Trazado_166145" data-name="Trazado 166145" d="M347.784,296.44a15.306,15.306,0,0,1,4.92,2.164,15.285,15.285,0,0,1-4.92-2.164" transform="translate(-47.768 -40.713)" fill="#263238"/>
            <path id="Trazado_166146" data-name="Trazado 166146" d="M349.906,293.9c.129-.054.7,1.1,1.655,2.346s1.893,2.125,1.8,2.233a7.5,7.5,0,0,1-3.459-4.578" transform="translate(-48.057 -40.367)" fill="#263238"/>
            <path id="Trazado_166147" data-name="Trazado 166147" d="M358.4,297.715c.016.011-.061.172-.32.327a2.46,2.46,0,0,1-1.2.285,14.169,14.169,0,0,0-1.727.044,1.207,1.207,0,0,0-1.033,1.323,33.661,33.661,0,0,1-.259,5.546,31.634,31.634,0,0,1-.217-5.574,1.95,1.95,0,0,1,.393-1.181,1.613,1.613,0,0,1,1.044-.548,9.992,9.992,0,0,1,1.8.053,2.967,2.967,0,0,0,1.522-.275" transform="translate(-48.571 -40.89)" fill="#263238"/>
            <path id="Trazado_166148" data-name="Trazado 166148" d="M353.791,127.529c-3.155,1.021-6.824,3.119-5.006,13,.8,4.347,1.815,8.78,4.731,12.1a2.076,2.076,0,0,0,1.689.933,2.122,2.122,0,0,0,1.167-.79c3.314-3.611,6.135-7.874,7.03-12.693s-.447-10.25-4.241-13.353" transform="translate(-47.839 -17.406)" fill="#263238"/>
            <path id="Trazado_166149" data-name="Trazado 166149" d="M360.43,169.955c-.1-4.546-.3-9.425-.3-9.425s-6.917-.872-7.215-7.932-.369-19.426-.369-19.426l13.5-10.005,9.488,13.052.232,33.5a7.672,7.672,0,0,1-15.342.233" transform="translate(-48.422 -16.917)" fill="#ffbe9d"/>
            <path id="Trazado_166150" data-name="Trazado 166150" d="M361.34,166a16.842,16.842,0,0,0,9.159-3s-2.152,5.143-9.039,4.732Z" transform="translate(-49.63 -22.388)" fill="#eb996e"/>
            <path id="Trazado_166151" data-name="Trazado 166151" d="M362.052,156.574a.829.829,0,0,1,.843-1.171,1.307,1.307,0,0,1,1.322-1.156,1.479,1.479,0,0,1,1.338,1.2,1.7,1.7,0,0,1-.755,1.673,2.019,2.019,0,0,1-1.862.136,1.471,1.471,0,0,1-.939-1.109" transform="translate(-49.718 -21.186)" fill="#eb996e"/>
            <path id="Trazado_166152" data-name="Trazado 166152" d="M354.2,144.551a.969.969,0,0,0,.934.977.927.927,0,0,0,1-.874.97.97,0,0,0-.933-.978.928.928,0,0,0-1,.875" transform="translate(-48.649 -19.734)" fill="#263238"/>
            <path id="Trazado_166153" data-name="Trazado 166153" d="M354.249,143.606c.12.126.854-.417,1.9-.414s1.806.524,1.919.4c.056-.057-.066-.285-.4-.528a2.666,2.666,0,0,0-1.537-.474,2.562,2.562,0,0,0-1.51.487c-.321.246-.43.474-.37.531" transform="translate(-48.654 -19.584)" fill="#263238"/>
            <path id="Trazado_166154" data-name="Trazado 166154" d="M366.333,144.665a.969.969,0,0,0,.934.977.927.927,0,0,0,1-.874.97.97,0,0,0-.933-.978.928.928,0,0,0-1,.875" transform="translate(-50.315 -19.749)" fill="#263238"/>
            <path id="Trazado_166155" data-name="Trazado 166155" d="M366.13,143.831c.12.126.855-.417,1.9-.414s1.807.524,1.92.4c.055-.056-.066-.284-.4-.526a2.654,2.654,0,0,0-1.537-.474,2.558,2.558,0,0,0-1.51.487c-.32.246-.429.474-.37.531" transform="translate(-50.285 -19.615)" fill="#263238"/>
            <path id="Trazado_166156" data-name="Trazado 166156" d="M361.323,151.574a6.869,6.869,0,0,0-1.693-.305c-.267-.028-.518-.08-.563-.262a1.351,1.351,0,0,1,.178-.789l.788-2.027a34.923,34.923,0,0,0,1.768-5.3,34.831,34.831,0,0,0-2.191,5.148c-.263.712-.515,1.39-.755,2.039a1.547,1.547,0,0,0-.138,1.045.667.667,0,0,0,.438.389,1.774,1.774,0,0,0,.452.063,6.776,6.776,0,0,0,1.717,0" transform="translate(-49.263 -19.625)" fill="#263238"/>
            <path id="Trazado_166157" data-name="Trazado 166157" d="M364.774,153.793c-.17-.009-.172,1.122-1.14,1.925s-2.173.679-2.182.837c-.016.071.269.22.778.234a2.816,2.816,0,0,0,1.822-.635,2.455,2.455,0,0,0,.883-1.614c.043-.474-.083-.754-.16-.747" transform="translate(-49.645 -21.123)" fill="#263238"/>
            <path id="Trazado_166158" data-name="Trazado 166158" d="M365.588,141.171c.1.284,1.144.149,2.367.3,1.226.122,2.213.48,2.375.227.072-.122-.1-.389-.5-.663a4.148,4.148,0,0,0-3.613-.4c-.449.181-.675.4-.631.538" transform="translate(-50.213 -19.282)" fill="#263238"/>
            <path id="Trazado_166159" data-name="Trazado 166159" d="M354.692,140.1c.184.237.9-.009,1.766-.021.863-.041,1.6.16,1.763-.088.073-.121-.041-.358-.361-.582a2.555,2.555,0,0,0-2.843.088c-.305.243-.405.487-.324.6" transform="translate(-48.713 -19.094)" fill="#263238"/>
            <path id="Trazado_166160" data-name="Trazado 166160" d="M369.457,138.026a5.423,5.423,0,0,0,3.437-1.226c.625,1.666.613,3.512,1.184,5.2s1.137,17.916,2.9,17.651c1.616-.243,3.544-16.533,3.956-18.114a14.444,14.444,0,0,0-3.192-12.636c-3.446-4.1-9.192-7.6-14.536-7.22a12.011,12.011,0,0,0-6.623,2.333s-2.883,2.223-2.643,5.059c.336,3.953,6.1,6.5,10.065,6.378l.563.549a6.859,6.859,0,0,0,4.892,2.03" transform="translate(-48.611 -16.708)" fill="#263238"/>
            <path id="Trazado_166161" data-name="Trazado 166161" d="M352.475,137.88a5.857,5.857,0,0,0,1.969-3.163,17.479,17.479,0,0,0,.459-3.758c.018-.366-.035-.837-.389-.933s-.628.259-.794.572a12.174,12.174,0,0,0-1.247,7.646c.075-.07-.236.2-.16.129" transform="translate(-48.388 -17.857)" fill="#263238"/>
          </g>
        </g>
        <g id="Grupo_56860" data-name="Grupo 56860">
          <g id="Grupo_56859" data-name="Grupo 56859" clip-path="url(#clip-path)">
            <path id="Trazado_166162" data-name="Trazado 166162" d="M236.482,384.1l.048-8.457-15.841-.191-.2,12.372.981.075c4.368.3,22.232,1.195,25.165.345,3.271-.95-10.152-4.143-10.152-4.143" transform="translate(-30.284 -51.568)" fill="#26ccda"/>
            <g id="Grupo_56849" data-name="Grupo 56849" transform="translate(190.223 331.589)" opacity="0.4">
              <g id="Grupo_56848" data-name="Grupo 56848">
                <g id="Grupo_56847" data-name="Grupo 56847" clip-path="url(#clip-path-12)">
                  <path id="Trazado_166163" data-name="Trazado 166163" d="M226.236,388.993a5.5,5.5,0,0,0-1.981-3.4,5.343,5.343,0,0,0-3.689-1.2l-.057,4.427Z" transform="translate(-220.51 -384.383)"/>
                </g>
              </g>
            </g>
            <g id="Grupo_56852" data-name="Grupo 56852" transform="translate(190.204 334.325)" opacity="0.4">
              <g id="Grupo_56851" data-name="Grupo 56851">
                <g id="Grupo_56850" data-name="Grupo 56850" clip-path="url(#clip-path-13)">
                  <path id="Trazado_166164" data-name="Trazado 166164" d="M243.038,387.556s4.7,1.418,4.1,2.188-18.684.54-26.653-.26l.03-.354,21.094.448s.5-1.994,1.427-2.022" transform="translate(-220.488 -387.556)"/>
                </g>
              </g>
            </g>
            <path id="Trazado_166165" data-name="Trazado 166165" d="M220.234,389.365a1.4,1.4,0,0,0,.272.033l.782.058,2.878.16c2.431.118,5.791.237,9.5.287s7.077.022,9.51-.031l2.88-.084.783-.035a1.424,1.424,0,0,0,.273-.026,1.4,1.4,0,0,0-.273-.013h-.784l-2.88.022c-2.433.018-5.794.025-9.506-.024s-7.069-.148-9.5-.232l-2.88-.1-.783-.021a1.485,1.485,0,0,0-.274.005" transform="translate(-30.249 -53.478)" fill="#263238"/>
            <path id="Trazado_166166" data-name="Trazado 166166" d="M244.963,389.794a4.191,4.191,0,0,1,1.55-2.457,2.554,2.554,0,0,0-1.55,2.457" transform="translate(-33.642 -53.2)" fill="#263238"/>
            <path id="Trazado_166167" data-name="Trazado 166167" d="M239.582,387.159c.044.029.272-.241.507-.6s.391-.677.346-.707-.271.24-.507.6-.39.677-.346.707" transform="translate(-32.905 -52.996)" fill="#263238"/>
            <path id="Trazado_166168" data-name="Trazado 166168" d="M238.105,386.423c.035.04.287-.124.563-.366s.471-.469.436-.51-.287.124-.563.366-.472.47-.436.51" transform="translate(-32.703 -52.954)" fill="#263238"/>
            <path id="Trazado_166169" data-name="Trazado 166169" d="M237.188,384.806a3.623,3.623,0,0,0,1.655.04,3.623,3.623,0,0,0-1.655-.04" transform="translate(-32.578 -52.842)" fill="#263238"/>
            <path id="Trazado_166170" data-name="Trazado 166170" d="M236.881,383.589a2.327,2.327,0,0,0,1.873.166,5.027,5.027,0,0,0-.937-.077,5.093,5.093,0,0,0-.936-.089" transform="translate(-32.535 -52.684)" fill="#263238"/>
            <path id="Trazado_166171" data-name="Trazado 166171" d="M240.227,385.551a2.925,2.925,0,0,0,1.018.006,5.9,5.9,0,0,0,1.087-.224,2.98,2.98,0,0,0,.624-.248.547.547,0,0,0,.255-.312.4.4,0,0,0-.148-.409,1.866,1.866,0,0,0-2.315.517,1.8,1.8,0,0,0-.341.675.565.565,0,0,0-.03.274,2.877,2.877,0,0,1,.474-.862,1.843,1.843,0,0,1,.877-.555,1.581,1.581,0,0,1,1.212.1c.16.122.095.311-.086.416a3.039,3.039,0,0,1-.575.237,7.028,7.028,0,0,1-1.052.26c-.612.1-1,.1-1,.128" transform="translate(-32.995 -52.763)" fill="#263238"/>
            <path id="Trazado_166172" data-name="Trazado 166172" d="M240.323,385.52a1,1,0,0,0,.126-.706,1.669,1.669,0,0,0-.268-.747,1.022,1.022,0,0,0-.84-.53.406.406,0,0,0-.32.467,1.1,1.1,0,0,0,.167.456,3.064,3.064,0,0,0,.473.622,1.464,1.464,0,0,0,.577.42c.018-.025-.2-.185-.477-.512a3.6,3.6,0,0,1-.418-.616c-.137-.217-.228-.6.028-.648.254-.022.512.236.665.441a1.688,1.688,0,0,1,.279.665,3.691,3.691,0,0,1,.008.687" transform="translate(-32.828 -52.679)" fill="#263238"/>
            <path id="Trazado_166173" data-name="Trazado 166173" d="M220.673,384.331c0,.035.455-.038,1.169.056a4.963,4.963,0,0,1,4.107,3.36c.234.682.251,1.139.286,1.134a.9.9,0,0,0,.005-.319,4.194,4.194,0,0,0-.162-.857,4.811,4.811,0,0,0-4.221-3.453,4.1,4.1,0,0,0-.872.011.916.916,0,0,0-.312.067" transform="translate(-30.309 -52.774)" fill="#263238"/>
            <path id="Trazado_166174" data-name="Trazado 166174" d="M222.64,376.729a55.365,55.365,0,0,0-.166,6.509,27.348,27.348,0,0,0,.179-3.252,27.82,27.82,0,0,0-.013-3.257" transform="translate(-30.551 -51.743)" fill="#263238"/>
            <path id="Trazado_166175" data-name="Trazado 166175" d="M229.481,387.963a13.016,13.016,0,0,0,4.629.1c-.005-.055-1.039-.005-2.315-.035s-2.307-.122-2.314-.067" transform="translate(-31.519 -53.284)" fill="#263238"/>
            <path id="Trazado_166176" data-name="Trazado 166176" d="M225.881,387.914c-.039.038.082.22.185.459s.158.45.212.447.085-.249-.036-.524-.326-.42-.361-.382" transform="translate(-31.024 -53.279)" fill="#263238"/>
            <path id="Trazado_166177" data-name="Trazado 166177" d="M224.546,386.209c-.038.037.062.2.223.371s.324.275.362.238-.062-.2-.223-.371-.324-.275-.362-.238" transform="translate(-30.84 -53.044)" fill="#263238"/>
            <path id="Trazado_166178" data-name="Trazado 166178" d="M222.616,385.4c.01.053.221.054.453.14s.4.21.439.175-.087-.255-.375-.356-.532-.008-.517.041" transform="translate(-30.576 -52.922)" fill="#263238"/>
            <path id="Trazado_166179" data-name="Trazado 166179" d="M221.239,385.027c-.02.049.07.132.2.185s.253.055.273.006-.07-.132-.2-.185-.253-.055-.273-.006" transform="translate(-30.387 -52.878)" fill="#263238"/>
            <path id="Trazado_166180" data-name="Trazado 166180" d="M166.013,384.1l-.048-8.457,15.841-.191.2,12.372-.981.075c-4.368.3-22.232,1.195-25.165.345-3.271-.95,10.152-4.143,10.152-4.143" transform="translate(-21.337 -51.568)" fill="#26ccda"/>
            <g id="Grupo_56855" data-name="Grupo 56855" transform="translate(154.926 331.589)" opacity="0.4">
              <g id="Grupo_56854" data-name="Grupo 56854">
                <g id="Grupo_56853" data-name="Grupo 56853" clip-path="url(#clip-path-14)">
                  <path id="Trazado_166181" data-name="Trazado 166181" d="M179.593,388.993a5.5,5.5,0,0,1,1.981-3.4,5.342,5.342,0,0,1,3.689-1.2l.057,4.427Z" transform="translate(-179.593 -384.383)"/>
                </g>
              </g>
            </g>
            <g id="Grupo_56858" data-name="Grupo 56858" transform="translate(133.965 334.325)" opacity="0.4">
              <g id="Grupo_56857" data-name="Grupo 56857">
                <g id="Grupo_56856" data-name="Grupo 56856" clip-path="url(#clip-path-13)">
                  <path id="Trazado_166182" data-name="Trazado 166182" d="M159.45,387.556s-4.7,1.418-4.1,2.188,18.684.54,26.653-.26l-.03-.354-21.094.448s-.5-1.994-1.427-2.022" transform="translate(-155.295 -387.556)"/>
                </g>
              </g>
            </g>
            <path id="Trazado_166183" data-name="Trazado 166183" d="M182.227,389.365a1.415,1.415,0,0,1-.273.033l-.782.058-2.878.16c-2.43.118-5.791.237-9.5.287s-7.076.022-9.51-.031l-2.88-.084-.783-.035a1.424,1.424,0,0,1-.273-.026,1.4,1.4,0,0,1,.273-.013h.784l2.88.022c2.433.018,5.794.025,9.506-.024s7.069-.148,9.5-.232l2.88-.1.783-.021a1.5,1.5,0,0,1,.275.005" transform="translate(-21.337 -53.478)" fill="#263238"/>
            <path id="Trazado_166184" data-name="Trazado 166184" d="M161.527,389.794a6.476,6.476,0,0,0-.556-1.367,6.391,6.391,0,0,0-1-1.09,2.557,2.557,0,0,1,1.551,2.457" transform="translate(-21.972 -53.2)" fill="#263238"/>
            <path id="Trazado_166185" data-name="Trazado 166185" d="M167.02,387.159c-.045.029-.272-.241-.507-.6s-.391-.677-.346-.707.271.24.506.6.391.677.347.707" transform="translate(-22.822 -52.996)" fill="#263238"/>
            <path id="Trazado_166186" data-name="Trazado 166186" d="M168.474,386.423c-.035.04-.287-.124-.563-.366s-.471-.469-.436-.51.287.124.563.366.472.47.436.51" transform="translate(-23.002 -52.954)" fill="#263238"/>
            <path id="Trazado_166187" data-name="Trazado 166187" d="M169.289,384.806a3.623,3.623,0,0,1-1.655.04,3.623,3.623,0,0,1,1.655-.04" transform="translate(-23.024 -52.842)" fill="#263238"/>
            <path id="Trazado_166188" data-name="Trazado 166188" d="M169.561,383.589a2.327,2.327,0,0,1-1.873.166,5.027,5.027,0,0,1,.937-.077,5.1,5.1,0,0,1,.936-.089" transform="translate(-23.032 -52.684)" fill="#263238"/>
            <path id="Trazado_166189" data-name="Trazado 166189" d="M166.037,385.551a2.925,2.925,0,0,1-1.018.006,5.9,5.9,0,0,1-1.087-.224,2.98,2.98,0,0,1-.624-.248.55.55,0,0,1-.255-.312.4.4,0,0,1,.148-.409,1.866,1.866,0,0,1,2.315.517,1.8,1.8,0,0,1,.341.675.565.565,0,0,1,.03.274,2.877,2.877,0,0,0-.474-.862,1.838,1.838,0,0,0-.877-.555,1.582,1.582,0,0,0-1.212.1c-.16.122-.095.311.086.416a3.039,3.039,0,0,0,.575.237,7.012,7.012,0,0,0,1.052.26c.611.1,1,.1,1,.128" transform="translate(-22.394 -52.763)" fill="#263238"/>
            <path id="Trazado_166190" data-name="Trazado 166190" d="M166.188,385.52a1,1,0,0,1-.127-.706,1.671,1.671,0,0,1,.269-.747,1.022,1.022,0,0,1,.84-.53.406.406,0,0,1,.32.467,1.114,1.114,0,0,1-.167.456,3.063,3.063,0,0,1-.473.622,1.47,1.47,0,0,1-.577.42c-.018-.025.2-.185.477-.512a3.6,3.6,0,0,0,.418-.616c.137-.217.228-.6-.028-.648-.255-.022-.512.236-.665.441a1.688,1.688,0,0,0-.279.665,3.689,3.689,0,0,0-.008.687" transform="translate(-22.807 -52.679)" fill="#263238"/>
            <path id="Trazado_166191" data-name="Trazado 166191" d="M185.18,384.331c0,.035-.455-.038-1.169.056a4.963,4.963,0,0,0-4.107,3.36c-.234.682-.251,1.139-.286,1.134a.9.9,0,0,1-.005-.319,4.194,4.194,0,0,1,.162-.857A4.811,4.811,0,0,1,184,384.252a4.093,4.093,0,0,1,.871.011.916.916,0,0,1,.312.067" transform="translate(-24.669 -52.774)" fill="#263238"/>
            <path id="Trazado_166192" data-name="Trazado 166192" d="M184.06,376.729a55.37,55.37,0,0,1,.166,6.509,27.354,27.354,0,0,1-.179-3.252,27.812,27.812,0,0,1,.013-3.257" transform="translate(-25.275 -51.743)" fill="#263238"/>
            <path id="Trazado_166193" data-name="Trazado 166193" d="M176.522,387.963a13.016,13.016,0,0,1-4.629.1c.005-.055,1.039-.005,2.315-.035s2.307-.122,2.314-.067" transform="translate(-23.609 -53.284)" fill="#263238"/>
            <path id="Trazado_166194" data-name="Trazado 166194" d="M180.787,387.914c.039.038-.082.22-.185.459s-.158.45-.212.447-.085-.249.036-.524.326-.42.361-.382" transform="translate(-24.77 -53.279)" fill="#263238"/>
            <path id="Trazado_166195" data-name="Trazado 166195" d="M182.1,386.209c.038.037-.062.2-.223.371s-.324.275-.362.238.062-.2.223-.371.324-.275.362-.238" transform="translate(-24.93 -53.044)" fill="#263238"/>
            <path id="Trazado_166196" data-name="Trazado 166196" d="M183.981,385.4c-.01.053-.221.054-.453.14s-.4.21-.439.175.087-.255.375-.356.532-.008.517.041" transform="translate(-25.146 -52.922)" fill="#263238"/>
            <path id="Trazado_166197" data-name="Trazado 166197" d="M185.425,385.027c.02.049-.07.132-.2.185s-.253.055-.273.006.07-.132.2-.185.253-.055.273-.006" transform="translate(-25.403 -52.878)" fill="#263238"/>
            <path id="Trazado_166198" data-name="Trazado 166198" d="M239.023,197.718l-6.077,158.764L208.279,357l4.1-137.563L184.628,358.051H161.174l30.214-160.01Z" transform="translate(-22.137 -27.156)" fill="#263238"/>
            <path id="Trazado_166199" data-name="Trazado 166199" d="M226.145,204.414a15.719,15.719,0,0,1-.284,2.617c-.23,1.607-.578,3.823-.988,6.266a26.307,26.307,0,0,1-.7,3.447,4.882,4.882,0,0,1-1.611,2.423,3.8,3.8,0,0,1-1.791.8,1.436,1.436,0,0,1-.717-.012,4.432,4.432,0,0,0,3.737-3.332,30.632,30.632,0,0,0,.658-3.4c.41-2.443.806-4.651,1.114-6.245a15.686,15.686,0,0,1,.587-2.566" transform="translate(-30.224 -28.076)" fill="#263238"/>
            <path id="Trazado_166200" data-name="Trazado 166200" d="M221.112,205.231c.054.04-.148.294-.032.713a.835.835,0,0,0,.412.531.747.747,0,0,0,.975-.856.837.837,0,0,0-.473-.478c-.4-.169-.68,0-.712-.06-.051-.023.228-.361.8-.233a1.094,1.094,0,0,1,.756.632,1.117,1.117,0,0,1-1.537,1.349,1.1,1.1,0,0,1-.529-.831c-.053-.588.318-.821.335-.768" transform="translate(-30.323 -28.132)" fill="#263238"/>
            <path id="Trazado_166201" data-name="Trazado 166201" d="M205.751,207.22a4.648,4.648,0,0,1,.471-4.406c.116.053-.241.987-.362,2.189s.016,2.189-.109,2.217" transform="translate(-28.211 -27.856)" fill="#263238"/>
            <path id="Trazado_166202" data-name="Trazado 166202" d="M209.188,206.97a5.392,5.392,0,0,1,.321-4.594,20.169,20.169,0,0,1-.242,2.291,20.331,20.331,0,0,1-.079,2.3" transform="translate(-28.681 -27.796)" fill="#263238"/>
            <path id="Trazado_166203" data-name="Trazado 166203" d="M238.8,207.694a14.582,14.582,0,0,1,.139-2.384,14.529,14.529,0,0,1,.107-2.385,6.543,6.543,0,0,1-.246,4.77" transform="translate(-32.793 -27.871)" fill="#263238"/>
            <path id="Trazado_166204" data-name="Trazado 166204" d="M242.533,207.471c-.118-.05.267-1.088.352-2.421.1-1.333-.136-2.413-.012-2.446a5.128,5.128,0,0,1-.34,4.867" transform="translate(-33.309 -27.827)" fill="#263238"/>
            <path id="Trazado_166205" data-name="Trazado 166205" d="M211.182,114.8l15.23-1.216c.095-1.778-.033-8.658-.033-8.658s6.337-.985,6.416-7.32-1.021-20.885-1.021-20.885a22.02,22.02,0,0,0-22.125,2.782l-.939.723Z" transform="translate(-28.666 -10.292)" fill="#ffbe9d"/>
            <path id="Trazado_166206" data-name="Trazado 166206" d="M227.891,109.224a14.73,14.73,0,0,1-8.26-2.347s1.952,4.56,8.275,3.989Z" transform="translate(-30.166 -14.679)" fill="#eb996e"/>
            <path id="Trazado_166207" data-name="Trazado 166207" d="M208.944,88.646c-.108-.047-4.353-1.288-4.215,3.044s4.459,3.3,4.462,3.175-.248-6.219-.248-6.219" transform="translate(-28.119 -12.148)" fill="#ffbe9d"/>
            <path id="Trazado_166208" data-name="Trazado 166208" d="M207.992,93.492c-.02-.013-.074.055-.2.118a.761.761,0,0,1-.564.029,1.869,1.869,0,0,1-.917-1.648,2.488,2.488,0,0,1,.177-1.087.873.873,0,0,1,.549-.6.384.384,0,0,1,.452.193c.062.119.037.206.06.213s.091-.076.05-.254a.481.481,0,0,0-.179-.266.572.572,0,0,0-.421-.1,1.062,1.062,0,0,0-.767.7,2.568,2.568,0,0,0-.223,1.215,1.961,1.961,0,0,0,1.161,1.836.8.8,0,0,0,.686-.137c.131-.11.151-.209.135-.216" transform="translate(-28.295 -12.374)" fill="#eb996e"/>
            <path id="Trazado_166209" data-name="Trazado 166209" d="M233.542,88.39a.9.9,0,0,1-.872.913.865.865,0,0,1-.933-.816.9.9,0,0,1,.871-.913.865.865,0,0,1,.933.816" transform="translate(-31.829 -12.028)" fill="#263238"/>
            <path id="Trazado_166210" data-name="Trazado 166210" d="M233.489,87.189c-.112.118-.8-.389-1.771-.386s-1.687.489-1.793.37c-.052-.053.063-.266.374-.493a2.493,2.493,0,0,1,1.435-.443,2.382,2.382,0,0,1,1.41.455c.3.229.4.443.346.5" transform="translate(-31.578 -11.845)" fill="#263238"/>
            <path id="Trazado_166211" data-name="Trazado 166211" d="M222.489,88.655a.9.9,0,0,1-.872.913.865.865,0,0,1-.933-.815.9.9,0,0,1,.871-.914.865.865,0,0,1,.933.816" transform="translate(-30.311 -12.064)" fill="#263238"/>
            <path id="Trazado_166212" data-name="Trazado 166212" d="M222.395,87.4c-.112.118-.8-.389-1.772-.386s-1.686.489-1.793.37c-.052-.053.061-.266.374-.492a2.48,2.48,0,0,1,1.435-.443,2.384,2.384,0,0,1,1.41.455c.3.229.4.443.346.5" transform="translate(-30.054 -11.874)" fill="#263238"/>
            <path id="Trazado_166213" data-name="Trazado 166213" d="M226.987,94.629a6.477,6.477,0,0,1,1.581-.286c.248-.026.484-.075.526-.245a1.264,1.264,0,0,0-.167-.737q-.351-.9-.735-1.893a32.493,32.493,0,0,1-1.651-4.952,32.732,32.732,0,0,1,2.046,4.808c.245.665.48,1.3.7,1.9a1.434,1.434,0,0,1,.129.976.622.622,0,0,1-.408.363,1.644,1.644,0,0,1-.423.059,6.332,6.332,0,0,1-1.6,0" transform="translate(-31.114 -11.883)" fill="#263238"/>
            <path id="Trazado_166214" data-name="Trazado 166214" d="M223.713,96.7c.158-.009.16,1.047,1.064,1.8s2.03.634,2.038.782c.015.066-.251.205-.726.218a2.628,2.628,0,0,1-1.7-.593,2.292,2.292,0,0,1-.826-1.507c-.041-.443.078-.7.15-.7" transform="translate(-30.705 -13.282)" fill="#263238"/>
            <path id="Trazado_166215" data-name="Trazado 166215" d="M222.548,83.012c-.1.265-1.068.139-2.21.277-1.146.115-2.067.449-2.218.211-.068-.113.093-.362.465-.619a3.875,3.875,0,0,1,3.374-.373c.419.169.631.377.589.5" transform="translate(-29.956 -11.301)" fill="#263238"/>
            <path id="Trazado_166216" data-name="Trazado 166216" d="M233.115,83.913c-.172.221-.842-.009-1.649-.019-.806-.04-1.49.148-1.647-.083-.069-.112.039-.334.337-.543a2.386,2.386,0,0,1,2.655.083c.285.227.379.455.3.562" transform="translate(-31.563 -11.387)" fill="#263238"/>
            <path id="Trazado_166217" data-name="Trazado 166217" d="M234.5,71.519a2.337,2.337,0,0,0-.864-2.089,1.66,1.66,0,0,0-2.15.16,1.935,1.935,0,0,0-1.664-2.347c-1.033-.066-1.914.714-2.913.989a4.708,4.708,0,0,1-2.958-.342c-.938-.378-1.814-.9-2.763-1.246A8.1,8.1,0,0,0,210.823,71.4a3.6,3.6,0,0,0-3.815,1.444,5.9,5.9,0,0,0-.9,4.157,13.2,13.2,0,0,0,.725,2.842c0,.082-.009.161-.007.243.066,3.484.459,7.575,1.945,7.6,2.591.04,1.974-4.841,1.974-4.841,3.179-1.228,1.994-5.992,2.79-6.715s2.458-2.4,9.114,1a12.892,12.892,0,0,0,7.9.854c.055-.012.11-.02.166-.034l.038-.008c.021-.005.035-.016.055-.022a5.983,5.983,0,0,0,1.707-.724,3.371,3.371,0,0,0,1.407-1.564,1.847,1.847,0,0,0-.363-1.983,4.07,4.07,0,0,0,.944-2.132" transform="translate(-28.301 -9.087)" fill="#263238"/>
            <path id="Trazado_166218" data-name="Trazado 166218" d="M199.489,118.18c2.135-.409,4.214-1.182,6.724-1.288a26.948,26.948,0,0,0,16.239.009c.66.083,1.574.169,2.727.305,7.055.834,9.761,2.322,14.826,7.3l-.553,28.552s1.7,32.487,1.575,37.737h-48.2l-.039-22.031.011-6-15.87,5.762,1.445-8.329s7.1-27.592,8.212-31.315c1.345-4.522,6.183-9.419,12.907-10.707" transform="translate(-24.301 -16.055)" fill="#26ccda"/>
            <path id="Trazado_166219" data-name="Trazado 166219" d="M184.192,167.11l23.759-3.376,4.517,8.089-22.087,9.958a9.535,9.535,0,0,1-12.739-5.073l-.715-1.743Z" transform="translate(-24.301 -22.489)" fill="#26ccda"/>
            <path id="Trazado_166220" data-name="Trazado 166220" d="M234.324,158.787l-.516-.387a11.866,11.866,0,0,0-9.349-2.161,16.278,16.278,0,0,0-7.281,3.419l-4.071,3.351,4.33,7.756,2.946-4.123s2.748,3.731,3.239,3.338a6.309,6.309,0,0,0,1.08-1.571l-1.963-2.749,4.713.982,6.873-3.142-2.945-3.731,2.945.982Z" transform="translate(-29.27 -21.43)" fill="#ffbe9d"/>
            <path id="Trazado_166221" data-name="Trazado 166221" d="M241.043,119.364s6.713,2.287,9.533,8.745c1.839,4.213,4.544,24.492,4.544,24.492l3.41,6.577a11.087,11.087,0,0,1,1.245,5.1v1a11.09,11.09,0,0,1-10.109,11.045c-3.4.3-7.52.438-8.4-.567a42.594,42.594,0,0,1-3.878-6.538l9.926-5.273-4.274-7.915Z" transform="translate(-32.605 -16.395)" fill="#26ccda"/>
            <path id="Trazado_166222" data-name="Trazado 166222" d="M193.085,181a1.89,1.89,0,0,1,.384-.215l1.138-.553,4.263-1.992,14.558-6.645-.1.3-2.787-4.984-1.731-3.1.21.109-17.4,1.709-5.173.463-1.4.1a2.211,2.211,0,0,1-.488.009,2.163,2.163,0,0,1,.48-.09l1.39-.181,5.16-.593,17.39-1.85.141-.015.07.124,1.734,3.1,2.779,4.988.114.2-.212.094-14.619,6.509-4.316,1.876-1.168.487a1.9,1.9,0,0,1-.415.145" transform="translate(-25.349 -22.452)" fill="#263238"/>
            <path id="Trazado_166223" data-name="Trazado 166223" d="M199.3,161.906c-.12,0-.217-4.248-.217-9.487s.1-9.487.217-9.487.217,4.247.217,9.487-.1,9.487-.217,9.487" transform="translate(-27.343 -19.632)" fill="#263238"/>
            <path id="Trazado_166224" data-name="Trazado 166224" d="M245.814,172.256a2.142,2.142,0,0,1,.722-.114,6.606,6.606,0,0,1,2,.121,2.375,2.375,0,0,1,1.257.711,3.275,3.275,0,0,1,.656,1.513,3.51,3.51,0,0,1-.162,1.81,3.372,3.372,0,0,1-1.2,1.542,8.974,8.974,0,0,1-3.441,1.227,15.6,15.6,0,0,1-2.946.286,5.33,5.33,0,0,1-2.673-.466,14.079,14.079,0,0,0,2.666.159,17.846,17.846,0,0,0,2.873-.372,9.056,9.056,0,0,0,3.265-1.187,3.1,3.1,0,0,0,.685-4.283,2.106,2.106,0,0,0-1.061-.644,7.991,7.991,0,0,0-1.919-.248,2.675,2.675,0,0,1-.725-.055" transform="translate(-32.968 -23.64)" fill="#263238"/>
            <path id="Trazado_166225" data-name="Trazado 166225" d="M249.753,184.859a5.021,5.021,0,0,1-1.706.2,10.832,10.832,0,0,1-4.1-.681,8.87,8.87,0,0,1-2.043-1.087,4.914,4.914,0,0,1-1.262-1.426,3.748,3.748,0,0,1-.609-1.616c.07-.029.294.6.868,1.45a5.1,5.1,0,0,0,1.241,1.269,9.63,9.63,0,0,0,1.963,1,12.815,12.815,0,0,0,3.952.779,10.32,10.32,0,0,1,1.7.105" transform="translate(-32.967 -24.757)" fill="#263238"/>
            <path id="Trazado_166226" data-name="Trazado 166226" d="M255.413,161.733a8.242,8.242,0,0,1-1.172,1.408c-.763.838-1.838,1.974-3.044,3.211s-2.315,2.341-3.134,3.125a7.787,7.787,0,0,1-1.389,1.206,7.733,7.733,0,0,1,1.169-1.421c.762-.839,1.836-1.976,3.043-3.214a42.047,42.047,0,0,1,4.528-4.315" transform="translate(-33.88 -22.213)" fill="#263238"/>
            <path id="Trazado_166227" data-name="Trazado 166227" d="M244.227,154.873a34.04,34.04,0,0,1-.217-5.423,34.032,34.032,0,0,1,.217-5.423,34.032,34.032,0,0,1,.217,5.423,34.04,34.04,0,0,1-.217,5.423" transform="translate(-33.515 -19.782)" fill="#263238"/>
            <path id="Trazado_166228" data-name="Trazado 166228" d="M243.19,129.584c0,.12-12.167.217-27.171.217s-27.173-.1-27.173-.217,12.163-.217,27.173-.217,27.171.1,27.171.217" transform="translate(-25.938 -17.768)" fill="#e0e0e0"/>
            <path id="Trazado_166229" data-name="Trazado 166229" d="M244.347,134.6c0,.12-12.822.217-28.635.217s-28.637-.1-28.637-.217,12.819-.217,28.637-.217,28.635.1,28.635.217" transform="translate(-25.695 -18.457)" fill="#e0e0e0"/>
            <path id="Trazado_166230" data-name="Trazado 166230" d="M241.392,125.01c0,.12-11.17.217-24.944.217s-24.946-.1-24.946-.217,11.166-.217,24.946-.217,24.944.1,24.944.217" transform="translate(-26.303 -17.14)" fill="#e0e0e0"/>
            <path id="Trazado_166231" data-name="Trazado 166231" d="M244.208,200.733c0,.12-10.933.217-24.417.217s-24.42-.1-24.42-.217,10.932-.217,24.42-.217,24.417.1,24.417.217" transform="translate(-26.834 -27.541)" fill="#e0e0e0"/>
            <path id="Trazado_166232" data-name="Trazado 166232" d="M243.933,197.514c0,.12-10.787.217-24.09.217s-24.094-.1-24.094-.217,10.785-.217,24.094-.217,24.09.1,24.09.217" transform="translate(-26.886 -27.099)" fill="#e0e0e0"/>
            <path id="Trazado_166233" data-name="Trazado 166233" d="M243.391,193.349c0,.12-10.75.217-24.009.217s-24.011-.1-24.011-.217,10.748-.217,24.011-.217,24.009.1,24.009.217" transform="translate(-26.834 -26.527)" fill="#e0e0e0"/>
            <path id="Trazado_166234" data-name="Trazado 166234" d="M209.8,174.516a4.33,4.33,0,0,1-1.217-1.135,11.5,11.5,0,0,1-2.638-7.469,4.331,4.331,0,0,1,.234-1.648,14.749,14.749,0,0,0,3.621,10.252" transform="translate(-28.286 -22.562)" fill="#e0e0e0"/>
            <path id="Trazado_166235" data-name="Trazado 166235" d="M207.166,175.9a5,5,0,0,1-1.316-1.253,12.586,12.586,0,0,1-2.842-8.169,5.02,5.02,0,0,1,.254-1.8,15.758,15.758,0,0,0,3.9,11.221" transform="translate(-27.883 -22.619)" fill="#e0e0e0"/>
            <path id="Trazado_166236" data-name="Trazado 166236" d="M204.651,177.063a5.116,5.116,0,0,1-1.478-1.253,11.406,11.406,0,0,1-2.847-8.708,5.112,5.112,0,0,1,.453-1.883c.073.017-.093.735-.146,1.906a12.706,12.706,0,0,0,2.773,8.487c.734.914,1.293,1.394,1.244,1.452" transform="translate(-27.507 -22.693)" fill="#e0e0e0"/>
            <path id="Trazado_166237" data-name="Trazado 166237" d="M240.848,179.439c.028-.029.25.194.732.456a5.256,5.256,0,0,0,2.233.56,18.9,18.9,0,0,0,3.471-.225,5.428,5.428,0,0,0,3.64-1.779,5.148,5.148,0,0,0,1.081-3.878,5.509,5.509,0,0,0-1.5-3,8.273,8.273,0,0,0-2.66-1.731,2.315,2.315,0,0,1,.854.214,6.078,6.078,0,0,1,2.024,1.3,5.66,5.66,0,0,1,1.683,3.154,5.458,5.458,0,0,1-1.14,4.211,4.732,4.732,0,0,1-1.857,1.379,8.014,8.014,0,0,1-2.063.521,17.274,17.274,0,0,1-3.552.135,4.971,4.971,0,0,1-2.3-.721,1.832,1.832,0,0,1-.645-.6" transform="translate(-33.08 -23.328)" fill="#e0e0e0"/>
            <path id="Trazado_166238" data-name="Trazado 166238" d="M249.691,168.259c0-.015.091-.023.266-.023a2.845,2.845,0,0,1,.755.128,4.8,4.8,0,0,1,2.229,1.68,11.413,11.413,0,0,1,1.856,3.705,6.894,6.894,0,0,1,.273,2.466,5.423,5.423,0,0,1-.89,2.523,7.706,7.706,0,0,1-4.1,2.977,12.227,12.227,0,0,1-4.113.473,23.4,23.4,0,0,1-2.76-.294,4.235,4.235,0,0,1-.994-.217c.009-.082,1.444.154,3.761.2a12.564,12.564,0,0,0,3.982-.546,7.452,7.452,0,0,0,3.859-2.835,5.064,5.064,0,0,0,.829-2.322,6.614,6.614,0,0,0-.236-2.321,11.7,11.7,0,0,0-1.714-3.625,4.91,4.91,0,0,0-2.042-1.708c-.6-.227-.967-.221-.964-.264" transform="translate(-33.268 -23.107)" fill="#e0e0e0"/>
            <path id="Trazado_166239" data-name="Trazado 166239" d="M226.883,157.844l-15.121,18.312,1.159,1.256,24.539-3.74L249.63,155.36l-1.129-1.016Z" transform="translate(-29.085 -21.199)" fill="#263238"/>
            <path id="Trazado_166240" data-name="Trazado 166240" d="M244.155,164h0a2.332,2.332,0,0,0-2.181,1.49,5.051,5.051,0,0,1-1.487,2.377c-1.09.594-2.974,1.069-3.966.584s-4.956-4.054-5.65-3.658-1.289,1.289-.594,2.082,4.362,3.172,3.668,3.965-8.426-2.7-9.616-2.39-1.884,1.039-1.19,1.517,5.948,2.459,6.245,3.153c0,0-7.93-2.082-8.228-1.586s-.793,1.289,0,1.586,7.634,2.082,8.228,2.379a14.415,14.415,0,0,0,3.057.893,32.54,32.54,0,0,1,3.194,1.013,7,7,0,0,0,4.933-.132l.8-.327a3.149,3.149,0,0,0,1.955-3.1l-.162-2.7.865-2.231Z" transform="translate(-30.317 -22.526)" fill="#ffbe9d"/>
            <path id="Trazado_166241" data-name="Trazado 166241" d="M249.859,155.627a1.889,1.889,0,0,1-.453.11l-1.312.233-4.836.777-7.181,1.1-4.236.641a8.1,8.1,0,0,0-4.107,1.663,27.579,27.579,0,0,0-2.992,3.437l-2.685,3.347-4.564,5.652-3.106,3.786-.862,1.016a1.9,1.9,0,0,1-.323.336,1.832,1.832,0,0,1,.255-.39l.8-1.067,3-3.872,4.492-5.71,2.664-3.363a27.08,27.08,0,0,1,3.045-3.5,8.468,8.468,0,0,1,4.316-1.751l4.249-.618,7.195-1,4.857-.64,1.323-.152a1.9,1.9,0,0,1,.466-.024" transform="translate(-29.283 -21.374)" fill="#455a64"/>
            <path id="Trazado_166242" data-name="Trazado 166242" d="M242.259,160.28a2.063,2.063,0,0,0-.68.552.709.709,0,0,0-.03.823.759.759,0,0,0,1.012.016.99.99,0,0,0,.393-.587.7.7,0,0,0-.211-.656.539.539,0,0,0-.665-.027" transform="translate(-33.16 -22.014)" fill="#fafafa"/>
          </g>
        </g>
        <rect id="Rectángulo_30918" data-name="Rectángulo 30918" width="39.613" height="79.894" transform="translate(7.494 159.103)" fill="#455a64"/>
        <g id="Grupo_56880" data-name="Grupo 56880">
          <g id="Grupo_56879" data-name="Grupo 56879" clip-path="url(#clip-path)">
            <path id="Trazado_166243" data-name="Trazado 166243" d="M9.836,264.14h0a6.181,6.181,0,0,1-6.181-6.181V190.616a6.181,6.181,0,0,1,12.362,0V257.96a6.181,6.181,0,0,1-6.181,6.181" transform="translate(-0.502 -25.332)" fill="#455a64"/>
            <path id="Trazado_166244" data-name="Trazado 166244" d="M14.561,188.159a.66.66,0,0,1,.035.2c.016.159.035.35.06.585q.067.829.185,2.252c.143,2,.346,4.819.594,8.287.462,7.036,1.094,16.688,1.793,27.35.662,10.688,1.291,20.353,1.631,27.369a21.375,21.375,0,0,1-1.027,8.236,10.764,10.764,0,0,1-1,2.033l-.339.482c-.079.107-.122.16-.128.155a15.332,15.332,0,0,0,1.306-2.73,21.956,21.956,0,0,0,.876-8.166c-.454-7.035-1.076-16.686-1.763-27.351-.647-10.666-1.234-20.321-1.661-27.359-.19-3.471-.343-6.3-.453-8.3q-.063-1.425-.1-2.257c-.006-.236-.01-.429-.015-.588a.676.676,0,0,1,.01-.2" transform="translate(-1.999 -25.843)" fill="#263238"/>
            <rect id="Rectángulo_30919" data-name="Rectángulo 30919" width="6.385" height="76.505" transform="translate(43.555 248.914)" fill="#455a64"/>
            <path id="Trazado_166245" data-name="Trazado 166245" d="M91.328,286.967H0a9.913,9.913,0,0,1,9.914-9.914h71.5a9.913,9.913,0,0,1,9.914,9.914" transform="translate(0 -38.053)" fill="#455a64"/>
            <path id="Trazado_166246" data-name="Trazado 166246" d="M58.9,288.734a33.5,33.5,0,0,1-5.6.236,33.5,33.5,0,0,1-5.6-.236,33.609,33.609,0,0,1,5.6-.236,33.611,33.611,0,0,1,5.6.236" transform="translate(-6.551 -39.625)" fill="#263238"/>
            <path id="Trazado_166247" data-name="Trazado 166247" d="M77.629,380.8h-.9a27.17,27.17,0,1,0-54.341,0h-.9a28.073,28.073,0,1,1,56.146,0" transform="translate(-2.951 -48.446)" fill="#455a64"/>
            <path id="Trazado_166248" data-name="Trazado 166248" d="M25.545,384a4.209,4.209,0,1,1-4.209-4.21A4.21,4.21,0,0,1,25.545,384" transform="translate(-2.352 -52.164)" fill="#263238"/>
            <path id="Trazado_166249" data-name="Trazado 166249" d="M89.794,384.229a4.209,4.209,0,1,1-4.209-4.209,4.209,4.209,0,0,1,4.209,4.209" transform="translate(-11.177 -52.195)" fill="#455a64"/>
            <path id="Trazado_166250" data-name="Trazado 166250" d="M77.567,377.194c0,.13-12.216.236-27.282.236S23,377.324,23,377.194s12.213-.236,27.285-.236,27.282.106,27.282.236" transform="translate(-3.159 -51.775)" fill="#455a64"/>
            <path id="Trazado_166251" data-name="Trazado 166251" d="M37.309,276.837a8.112,8.112,0,0,1-1.379.1l-3.759.1c-3.175.064-7.559.12-12.4.154l-6.83.045a23.087,23.087,0,0,0-5.5.5,9.048,9.048,0,0,0-3.323,1.582c-.7.53-1.017.915-1.056.877-.012-.01.063-.109.217-.286a5.612,5.612,0,0,1,.728-.728,8.612,8.612,0,0,1,3.351-1.755,22.04,22.04,0,0,1,5.571-.607c2.095-.054,4.407-.057,6.83-.08,4.846-.035,9.234-.041,12.409-.022l3.761.046a8.053,8.053,0,0,1,1.379.078" transform="translate(-0.421 -38.005)" fill="#263238"/>
            <path id="Trazado_166252" data-name="Trazado 166252" d="M38.267,171.279h0c4.752,0,8.7-3.1,8.765-17.549.013-2.906-.082-5.419-.082-5.419s6.859-.625,7.362-7.275.122-22.084.122-22.084A23.77,23.77,0,0,0,30.7,120.52l-1.055.7.325,32.69c.046,4.586,3.621,17.37,8.3,17.37" transform="translate(-4.071 -16.001)" fill="#b78876"/>
            <path id="Trazado_166253" data-name="Trazado 166253" d="M48.342,152.787a16.053,16.053,0,0,1-8.7-3s1.791,4.916,8.607,4.726Z" transform="translate(-5.445 -20.573)" fill="#aa6550"/>
            <path id="Trazado_166254" data-name="Trazado 166254" d="M56.2,131.643a.941.941,0,0,1-.918.941.9.9,0,0,1-.982-.841.942.942,0,0,1,.917-.942.906.906,0,0,1,.983.842" transform="translate(-7.457 -17.965)" fill="#263238"/>
            <path id="Trazado_166255" data-name="Trazado 166255" d="M56.14,130.4c-.118.122-.839-.4-1.864-.4s-1.775.5-1.887.381c-.054-.054.066-.273.393-.507a2.646,2.646,0,0,1,1.51-.456,2.542,2.542,0,0,1,1.484.469c.316.237.422.457.364.512" transform="translate(-7.194 -17.776)" fill="#263238"/>
            <path id="Trazado_166256" data-name="Trazado 166256" d="M44.563,131.917a.941.941,0,0,1-.918.941.9.9,0,0,1-.982-.841.942.942,0,0,1,.917-.942.905.905,0,0,1,.983.842" transform="translate(-5.86 -18.003)" fill="#263238"/>
            <path id="Trazado_166257" data-name="Trazado 166257" d="M44.465,130.623c-.118.122-.84-.4-1.864-.4s-1.775.5-1.887.381c-.054-.054.065-.273.393-.507a2.643,2.643,0,0,1,1.51-.456,2.545,2.545,0,0,1,1.484.469c.314.237.422.457.364.512" transform="translate(-5.59 -17.806)" fill="#263238"/>
            <path id="Trazado_166258" data-name="Trazado 166258" d="M49.3,138.077a6.917,6.917,0,0,1,1.664-.294c.261-.027.509-.078.554-.252a1.286,1.286,0,0,0-.175-.76q-.369-.93-.774-1.952a33.088,33.088,0,0,1-1.737-5.106,33.337,33.337,0,0,1,2.153,4.957c.258.686.506,1.339.741,1.964a1.454,1.454,0,0,1,.135,1.006.652.652,0,0,1-.43.374,1.79,1.79,0,0,1-.445.06,6.792,6.792,0,0,1-1.686,0" transform="translate(-6.705 -17.816)" fill="#263238"/>
            <path id="Trazado_166259" data-name="Trazado 166259" d="M45.853,140.214c.166-.009.169,1.08,1.121,1.854s2.136.653,2.145.806c.016.068-.264.211-.764.225a2.8,2.8,0,0,1-1.79-.612,2.35,2.35,0,0,1-.869-1.554c-.042-.455.082-.725.158-.719" transform="translate(-6.275 -19.258)" fill="#263238"/>
            <path id="Trazado_166260" data-name="Trazado 166260" d="M44.627,126.1c-.1.273-1.124.143-2.326.286-1.205.118-2.175.463-2.334.218-.071-.117.1-.374.49-.638a4.146,4.146,0,0,1,3.55-.384c.442.174.663.389.62.518" transform="translate(-5.487 -17.216)" fill="#263238"/>
            <path id="Trazado_166261" data-name="Trazado 166261" d="M55.746,127.028c-.18.228-.886-.009-1.735-.02-.848-.041-1.567.154-1.733-.085-.072-.116.041-.344.355-.56a2.555,2.555,0,0,1,2.793.085c.3.235.4.469.319.581" transform="translate(-7.178 -17.304)" fill="#263238"/>
            <path id="Trazado_166262" data-name="Trazado 166262" d="M54.239,116.483a6.8,6.8,0,0,0-1.035-2.9,2.894,2.894,0,0,0-.354-2.984,2.935,2.935,0,0,0-4.02-.216c-.017-.005-.035-.014-.053-.019a1.573,1.573,0,0,0-.481-1.888,3.683,3.683,0,0,0-2.353-.556c-1.529.026-5.134,1.237-7.9,2.273-.176.033-.359.06-.532.095a14.547,14.547,0,0,0-6.319,2.729,13.53,13.53,0,0,0-3.954,6.992c-.707,2.644-.719,5.421-.177,9.912.831-.736,3.746-2.583,4.182-1.561a6.109,6.109,0,0,1,.223,1.868,1.6,1.6,0,0,0,.952,1.5,1.269,1.269,0,0,0,1.312-.575,2.958,2.958,0,0,0,.417-1.452c.166-2.071-.351-4.17-.022-6.221a7.636,7.636,0,0,1,9.04-6.28,16.163,16.163,0,0,0,3.713.761c1.82-.07,3.683-1.379,5.325-.592.325.156.651.308.963.49.619.365.926.725,1.078.4a6.214,6.214,0,0,0,0-1.767" transform="translate(-3.664 -14.822)" fill="#263238"/>
            <path id="Trazado_166263" data-name="Trazado 166263" d="M31.047,130.488c-.126-.047-4.3-.578-3.9,4.249s5.239,2.841,5.236,2.7-1.333-6.95-1.333-6.95" transform="translate(-3.725 -17.917)" fill="#b78876"/>
            <path id="Trazado_166264" data-name="Trazado 166264" d="M30.933,136.128c-.023-.014-.081.066-.221.142a.877.877,0,0,1-.64.063,2.086,2.086,0,0,1-1.135-1.79,2.726,2.726,0,0,1,.142-1.222.98.98,0,0,1,.593-.7.442.442,0,0,1,.525.191c.077.13.053.229.08.235s.1-.089.043-.285a.537.537,0,0,0-.218-.287.659.659,0,0,0-.485-.086,1.2,1.2,0,0,0-.835.819,2.807,2.807,0,0,0-.188,1.369,2.195,2.195,0,0,0,1.423,1.986.931.931,0,0,0,.774-.189c.143-.131.16-.241.142-.248" transform="translate(-3.925 -18.182)" fill="#aa6550"/>
            <path id="Trazado_166265" data-name="Trazado 166265" d="M82.2,363.827l3.761-5.27L71.485,348.422l-5.994,8.133.83.713c3.716,3.136,19.113,15.692,22.284,16.878,3.538,1.322-6.407-10.318-6.407-10.318" transform="translate(-8.995 -47.855)" fill="#f57c00"/>
            <g id="Grupo_56863" data-name="Grupo 56863" transform="translate(56.659 304.609)" opacity="0.5">
              <g id="Grupo_56862" data-name="Grupo 56862">
                <g id="Grupo_56861" data-name="Grupo 56861" clip-path="url(#clip-path-17)">
                  <path id="Trazado_166266" data-name="Trazado 166266" d="M70.691,360.935a6.056,6.056,0,0,0,.58-4.3,5.206,5.206,0,0,0-2.739-3.522l-2.852,3.905Z" transform="translate(-65.68 -353.108)" fill="#fff"/>
                </g>
              </g>
            </g>
            <g id="Grupo_56866" data-name="Grupo 56866" transform="translate(56.496 308.409)" opacity="0.5">
              <g id="Grupo_56865" data-name="Grupo 56865">
                <g id="Grupo_56864" data-name="Grupo 56864" clip-path="url(#clip-path-18)">
                  <path id="Trazado_166267" data-name="Trazado 166267" d="M86.9,370.968s3.289,4.339,2.258,4.62S72.1,363.754,65.492,357.8l.254-.29L84.323,371.8s1.737-1.417,2.581-.833" transform="translate(-65.492 -357.514)" fill="#fff"/>
                </g>
              </g>
            </g>
            <path id="Trazado_166268" data-name="Trazado 166268" d="M65.539,357.311a1.636,1.636,0,0,0,.222.208l.663.565,2.47,2.036c2.1,1.705,5.027,4.023,8.314,6.513s6.316,4.68,8.526,6.236l2.63,1.824.724.484a1.639,1.639,0,0,0,.26.157,1.6,1.6,0,0,0-.236-.192l-.7-.516-2.591-1.879c-2.188-1.586-5.2-3.794-8.486-6.282s-6.227-4.787-8.348-6.461l-2.511-1.984-.687-.534a1.74,1.74,0,0,0-.248-.176" transform="translate(-9.002 -49.076)" fill="#263238"/>
            <path id="Trazado_166269" data-name="Trazado 166269" d="M87.129,374.124a6.98,6.98,0,0,1,1.379-.833,7.149,7.149,0,0,1,1.593-.3,2.363,2.363,0,0,0-1.673.1,2.278,2.278,0,0,0-1.3,1.03" transform="translate(-11.967 -51.216)" fill="#263238"/>
            <path id="Trazado_166270" data-name="Trazado 166270" d="M84.133,368.208a1.839,1.839,0,0,0,.842-.193c.443-.161.786-.336.765-.391a1.836,1.836,0,0,0-.842.193c-.443.161-.786.336-.765.391" transform="translate(-11.555 -50.491)" fill="#263238"/>
            <path id="Trazado_166271" data-name="Trazado 166271" d="M83.331,366.6c.006.058.336.08.739.051s.725-.1.719-.16-.336-.081-.739-.051-.725.1-.719.16" transform="translate(-11.445 -50.328)" fill="#263238"/>
            <path id="Trazado_166272" data-name="Trazado 166272" d="M83.636,364.491c-.035.046.261.335.663.645s.756.525.791.48-.261-.335-.663-.645-.756-.525-.791-.48" transform="translate(-11.487 -50.062)" fill="#263238"/>
            <path id="Trazado_166273" data-name="Trazado 166273" d="M84.151,363.214a2.634,2.634,0,0,0,1.568,1.379c.028-.054-.363-.308-.788-.684s-.731-.729-.78-.694" transform="translate(-11.557 -49.887)" fill="#263238"/>
            <path id="Trazado_166274" data-name="Trazado 166274" d="M85.73,367.281a3.293,3.293,0,0,0,.906.676,6.755,6.755,0,0,0,1.117.518,3.311,3.311,0,0,0,.717.193.6.6,0,0,0,.431-.105.43.43,0,0,0,.13-.456,2.1,2.1,0,0,0-2.4-1.073,1.962,1.962,0,0,0-.739.367c-.151.124-.213.212-.2.221a3.132,3.132,0,0,1,.981-.443,2.042,2.042,0,0,1,1.141.091,1.783,1.783,0,0,1,1.02.884c.065.212-.116.336-.345.308a3.405,3.405,0,0,1-.668-.171,7.922,7.922,0,0,1-1.108-.466c-.611-.314-.957-.574-.976-.546" transform="translate(-11.768 -50.402)" fill="#263238"/>
            <path id="Trazado_166275" data-name="Trazado 166275" d="M85.913,367.2c.005.019.31-.106.568-.535a1.8,1.8,0,0,0,.242-.832,1.139,1.139,0,0,0-.411-1.018.442.442,0,0,0-.587.2,1.181,1.181,0,0,0-.145.511,3.362,3.362,0,0,0,.022.857,1.644,1.644,0,0,0,.246.748c.032-.009-.06-.294-.1-.763a3.85,3.85,0,0,1,.023-.815c.017-.281.186-.681.443-.549a1.015,1.015,0,0,1,.311.824,1.815,1.815,0,0,1-.179.768,3.922,3.922,0,0,1-.436.607" transform="translate(-11.752 -50.1)" fill="#263238"/>
            <path id="Trazado_166276" data-name="Trazado 166276" d="M69.169,353.2c-.021.034.43.267,1.009.819a5.746,5.746,0,0,1,1.573,2.624,5.574,5.574,0,0,1-.066,3.026c-.231.751-.51,1.163-.475,1.184a.989.989,0,0,0,.21-.278,4.465,4.465,0,0,0,.408-.857,5.33,5.33,0,0,0,.129-3.126,5.507,5.507,0,0,0-1.677-2.682,4.715,4.715,0,0,0-.786-.564,1.038,1.038,0,0,0-.323-.147" transform="translate(-9.5 -48.512)" fill="#263238"/>
            <path id="Trazado_166277" data-name="Trazado 166277" d="M74.712,362.175a14.738,14.738,0,0,0,4.073,3.139c.032-.052-.926-.69-2.047-1.556s-1.984-1.627-2.026-1.583" transform="translate(-10.261 -49.744)" fill="#263238"/>
            <path id="Trazado_166278" data-name="Trazado 166278" d="M71.487,359.76c-.06.008-.069.247-.131.524s-.149.5-.1.532.236-.163.305-.484-.021-.582-.076-.572" transform="translate(-9.785 -49.413)" fill="#263238"/>
            <path id="Trazado_166279" data-name="Trazado 166279" d="M71.423,357.386c-.058.007-.076.219-.04.473s.112.455.171.447.075-.218.039-.473-.112-.454-.17-.447" transform="translate(-9.802 -49.087)" fill="#263238"/>
            <path id="Trazado_166280" data-name="Trazado 166280" d="M70.218,355.413c-.025.054.162.193.315.42s.22.447.28.443.086-.281-.107-.56-.47-.357-.488-.3" transform="translate(-9.644 -48.814)" fill="#263238"/>
            <path id="Trazado_166281" data-name="Trazado 166281" d="M69.229,354.174c-.049.03-.022.161.061.294s.19.215.24.185.022-.161-.061-.293-.191-.216-.24-.185" transform="translate(-9.505 -48.645)" fill="#263238"/>
            <g id="Grupo_56869" data-name="Grupo 56869" transform="translate(60.084 302.658)" opacity="0.3">
              <g id="Grupo_56868" data-name="Grupo 56868">
                <g id="Grupo_56867" data-name="Grupo 56867" clip-path="url(#clip-path-19)">
                  <path id="Trazado_166282" data-name="Trazado 166282" d="M69.65,352.02,84.28,362.1l.424-.563L70.483,350.846Z" transform="translate(-69.65 -350.847)"/>
                </g>
              </g>
            </g>
            <path id="Trazado_166283" data-name="Trazado 166283" d="M163.4,384.646l-1.354-6.175-16.818,3.846,1.966,9.666,1.058-.135c4.7-.637,23.879-3.566,26.815-5.086,3.275-1.7-11.667-2.116-11.667-2.116" transform="translate(-19.947 -51.983)" fill="#f57c00"/>
            <g id="Grupo_56872" data-name="Grupo 56872" transform="translate(126.259 334.802)" opacity="0.5">
              <g id="Grupo_56871" data-name="Grupo 56871">
                <g id="Grupo_56870" data-name="Grupo 56870" clip-path="url(#clip-path-20)">
                  <path id="Trazado_166284" data-name="Trazado 166284" d="M153.444,392.006a5.909,5.909,0,0,0-2.738-3.238,5.081,5.081,0,0,0-4.344-.323l.961,4.622Z" transform="translate(-146.362 -388.109)" fill="#fff"/>
                </g>
              </g>
            </g>
            <g id="Grupo_56875" data-name="Grupo 56875" transform="translate(127.205 333.113)" opacity="0.5">
              <g id="Grupo_56874" data-name="Grupo 56874">
                <g id="Grupo_56873" data-name="Grupo 56873" clip-path="url(#clip-path-21)">
                  <path id="Trazado_166285" data-name="Trazado 166285" d="M171.055,386.151s5.3.459,4.825,1.39-19.74,4.6-28.379,5.5l-.043-.374,22.511-4.1s.111-2.186,1.086-2.414" transform="translate(-147.458 -386.151)" fill="#fff"/>
                </g>
              </g>
            </g>
            <path id="Trazado_166286" data-name="Trazado 166286" d="M147.148,392.88a1.645,1.645,0,0,0,.3-.024l.843-.11,3.092-.456c2.609-.4,6.2-1.006,10.16-1.756s7.525-1.509,10.1-2.09l3.043-.71.825-.207a1.57,1.57,0,0,0,.284-.085,1.59,1.59,0,0,0-.293.045l-.832.17-3.057.646c-2.581.545-6.151,1.279-10.105,2.032s-7.545,1.376-10.146,1.815l-3.081.519-.837.148a1.613,1.613,0,0,0-.29.065" transform="translate(-20.211 -53.215)" fill="#263238"/>
            <path id="Trazado_166287" data-name="Trazado 166287" d="M173.59,388.787a6.819,6.819,0,0,1,.3-1.544,6.955,6.955,0,0,1,.826-1.349,2.3,2.3,0,0,0-1.021,1.278,2.228,2.228,0,0,0-.105,1.615" transform="translate(-23.829 -53.002)" fill="#263238"/>
            <path id="Trazado_166288" data-name="Trazado 166288" d="M167.283,387.234c.053.021.237-.309.411-.736s.271-.79.217-.81-.237.309-.411.736-.272.789-.218.81" transform="translate(-22.974 -52.974)" fill="#263238"/>
            <path id="Trazado_166289" data-name="Trazado 166289" d="M165.544,386.781c.046.034.279-.191.521-.5s.4-.592.355-.625-.279.191-.521.5-.4.591-.355.625" transform="translate(-22.736 -52.969)" fill="#263238"/>
            <path id="Trazado_166290" data-name="Trazado 166290" d="M164.2,385.288a3.995,3.995,0,1,0,.865-.259,2.07,2.07,0,0,0-.865.259" transform="translate(-22.553 -52.872)" fill="#263238"/>
            <path id="Trazado_166291" data-name="Trazado 166291" d="M163.612,384.094a1.758,1.758,0,0,0,1.036.092,1.776,1.776,0,0,0,.989-.325,5.545,5.545,0,0,0-1.012.122,5.623,5.623,0,0,0-1.014.11" transform="translate(-22.472 -52.721)" fill="#263238"/>
            <path id="Trazado_166292" data-name="Trazado 166292" d="M167.63,385.374a3.265,3.265,0,0,0,1.083-.213,6.619,6.619,0,0,0,1.107-.47,3.235,3.235,0,0,0,.61-.393.587.587,0,0,0,.205-.381.421.421,0,0,0-.245-.393,2.05,2.05,0,0,0-2.351,1.039,1.923,1.923,0,0,0-.219.777.589.589,0,0,0,.027.292,3.059,3.059,0,0,1,.322-1,1.991,1.991,0,0,1,.813-.766,1.744,1.744,0,0,1,1.31-.16c.2.092.166.3,0,.452a3.317,3.317,0,0,1-.562.371,7.745,7.745,0,0,1-1.062.5c-.628.237-1.042.317-1.035.349" transform="translate(-23.024 -52.666)" fill="#263238"/>
            <path id="Trazado_166293" data-name="Trazado 166293" d="M167.692,385.381a1.052,1.052,0,0,0-.016-.762,1.747,1.747,0,0,0-.444-.719,1.11,1.11,0,0,0-1.006-.37.431.431,0,0,0-.241.555,1.175,1.175,0,0,0,.274.44,3.328,3.328,0,0,0,.635.545,1.587,1.587,0,0,0,.7.311c.014-.029-.253-.149-.616-.429a3.788,3.788,0,0,1-.575-.551c-.191-.2-.371-.58-.108-.68a.989.989,0,0,1,.8.315,1.746,1.746,0,0,1,.438.632,3.79,3.79,0,0,1,.154.713" transform="translate(-22.794 -52.674)" fill="#263238"/>
            <path id="Trazado_166294" data-name="Trazado 166294" d="M146.548,388.366c.011.036.474-.137,1.254-.195a5.616,5.616,0,0,1,2.93.581,5.438,5.438,0,0,1,2.149,2.029c.392.66.508,1.132.545,1.12a.962.962,0,0,0-.063-.334,4.338,4.338,0,0,0-.354-.857,5.2,5.2,0,0,0-2.18-2.139,5.37,5.37,0,0,0-3.04-.543,4.644,4.644,0,0,0-.924.2,1,1,0,0,0-.317.138" transform="translate(-20.128 -53.29)" fill="#263238"/>
            <path id="Trazado_166295" data-name="Trazado 166295" d="M156.677,390.144a14.4,14.4,0,0,0,4.94-.895c-.016-.057-1.106.219-2.467.464s-2.478.371-2.473.43" transform="translate(-21.519 -53.462)" fill="#263238"/>
            <path id="Trazado_166296" data-name="Trazado 166296" d="M152.841,391.012c-.034.048.134.211.293.438s.263.434.321.419.037-.278-.15-.537-.436-.367-.464-.32" transform="translate(-20.992 -53.704)" fill="#263238"/>
            <path id="Trazado_166297" data-name="Trazado 166297" d="M151.06,389.526c-.033.047.109.2.317.338s.4.216.436.169-.11-.2-.317-.337-.4-.216-.436-.17" transform="translate(-20.747 -53.499)" fill="#263238"/>
            <path id="Trazado_166298" data-name="Trazado 166298" d="M148.84,389.091c.022.053.247.009.511.047s.468.134.5.087-.148-.247-.475-.289-.567.107-.54.154" transform="translate(-20.443 -53.419)" fill="#263238"/>
            <path id="Trazado_166299" data-name="Trazado 166299" d="M147.3,389.008c-.01.055.1.122.253.148s.28,0,.292-.053-.1-.122-.254-.148-.28,0-.291.053" transform="translate(-20.231 -53.421)" fill="#263238"/>
            <g id="Grupo_56878" data-name="Grupo 56878" transform="translate(125.767 329.546)" opacity="0.3">
              <g id="Grupo_56877" data-name="Grupo 56877">
                <g id="Grupo_56876" data-name="Grupo 56876" clip-path="url(#clip-path-22)">
                  <path id="Trazado_166300" data-name="Trazado 166300" d="M146.1,386.683l16.883-3.991-.131-.676-17.056,3.3Z" transform="translate(-145.791 -382.016)"/>
                </g>
              </g>
            </g>
            <path id="Trazado_166301" data-name="Trazado 166301" d="M115.54,210.96a16.532,16.532,0,0,1,3.363-3.206c.469-.156,8.914-3.675,9.071-3.284s1.172,2.316-.548,3.231l-1.329.445,4.848.391s5.4,3.988,5.317,4.848-.782,1.408-1.251,1.016,1.252,2.737,1.252,2.737,0,1.329-.7,1.095a6.5,6.5,0,0,1-1.8-1.485s1.017,1.642.7,1.955-1.876.391-2.033,0-.391-1.095-.391-1.095l-.939.078v1.282l-14.31.439Z" transform="translate(-15.869 -28.08)" fill="#aa6550"/>
            <path id="Trazado_166302" data-name="Trazado 166302" d="M50.529,166.221l4.369,5.172,17.478,30.588,34.083,3.37.749,9.864L67.95,218.922,46.034,179.259Z" transform="translate(-6.323 -22.83)" fill="#e0e0e0"/>
            <path id="Trazado_166303" data-name="Trazado 166303" d="M49.271,179.451,45.89,166.688l-.072-4.155-18.971-8.614L23.2,158.451l.441.231c-1.493,1.57-12.538,13.5-11.879,22.3.6,7.933,17.3,57.912,17.3,57.912l38.07-11.127Z" transform="translate(-1.612 -21.141)" fill="#ebebeb"/>
            <path id="Trazado_166304" data-name="Trazado 166304" d="M50.678,168.921l-1.068,5.227,2.784,5.232v3.871l19.943,46.58,5.9,1.986,1-3.995S62.631,199.48,59.76,191.491s-7.117-19.476-7.117-19.476Z" transform="translate(-6.814 -23.201)" fill="#f57c00"/>
            <path id="Trazado_166305" data-name="Trazado 166305" d="M15.748,193.473c0,.5,34.384,33.723,34.384,33.723L96.583,218.1,95.1,208.185l-31.716.86a9.351,9.351,0,0,1-8.341-3.766c-6.8-8.836-21.552-27.994-21.933-28.5-.5-.662-17.357,16.7-17.357,16.7" transform="translate(-2.163 -24.278)" fill="#ebebeb"/>
            <path id="Trazado_166306" data-name="Trazado 166306" d="M95.17,207.906s.043.2.113.624c.072.438.173,1.064.306,1.883.266,1.693.656,4.174,1.162,7.4l.015.09-.091.017-37.081,7.166-3.054.586a13.861,13.861,0,0,1-3.2.284,12.921,12.921,0,0,1-8.979-4.059c-.782-.849-1.511-1.723-2.28-2.595l-4.641-5.334L17.582,191.128l-.025-.029-.012-.032c-.045-.113-.092-.237-.14-.361a15,15,0,0,1-1.115-5.35,9.851,9.851,0,0,1,1.325-5.229,11.022,11.022,0,0,1,3.821-3.7,11.856,11.856,0,0,1,4.971-1.647,9.445,9.445,0,0,1,5.063.9,13.159,13.159,0,0,1,3.949,3.138,41.533,41.533,0,0,1,2.991,3.895l2.777,3.885c3.695,5.09,7.358,9.817,10.892,14.153l2.625,3.178a27.849,27.849,0,0,0,2.64,2.925,6.172,6.172,0,0,0,3.391,1.385,26.409,26.409,0,0,0,3.63.1l22.584-.344,6.113-.076,1.581-.012c.354,0,.528.007.528.007s-.194.016-.557.028l-1.607.048-6.145.156-22.5.511a26.453,26.453,0,0,1-3.669-.085,6.518,6.518,0,0,1-3.573-1.449,27.9,27.9,0,0,1-2.691-2.959l-2.638-3.175c-3.552-4.331-7.23-9.054-10.938-14.145l-2.787-3.885A41.47,41.47,0,0,0,35.1,179.1a12.733,12.733,0,0,0-3.822-3.034,9.008,9.008,0,0,0-4.832-.853A11.365,11.365,0,0,0,18,180.354a9.4,9.4,0,0,0-1.261,5,14.574,14.574,0,0,0,1.084,5.191c.047.121.094.242.136.352l-.038-.06,19.84,22.851,4.632,5.34c.763.869,1.505,1.761,2.265,2.587a12.521,12.521,0,0,0,8.691,3.949,13.5,13.5,0,0,0,3.118-.269l3.055-.578,37.116-6.981-.076.107c-.458-3.208-.811-5.678-1.052-7.363-.115-.831-.2-1.465-.263-1.91s-.079-.66-.079-.66" transform="translate(-2.237 -23.999)" fill="#455a64"/>
            <path id="Trazado_166307" data-name="Trazado 166307" d="M47.7,163.313c.046.011-.132.851-.3,2.335-.2,1.48-.283,3.62-.817,6.151l-.055.261-.236-.135-6.786-3.906c-3.912-2.27-7.44-4.348-9.983-5.87l-3-1.823a7.06,7.06,0,0,1-1.069-.722,7.14,7.14,0,0,1,1.157.57l3.071,1.7c2.584,1.452,6.137,3.485,10.049,5.756l6.758,3.954-.291.124c.56-2.465.7-4.615.97-6.091.121-.742.241-1.322.34-1.712a2.266,2.266,0,0,1,.191-.591" transform="translate(-3.497 -21.921)" fill="#455a64"/>
            <path id="Trazado_166308" data-name="Trazado 166308" d="M127.686,212.848,119.4,210.58l-6.881,3.441h-3.91l-.626.256,1.114,7.421.985.141a9.627,9.627,0,0,0,3.3,1.251c2.189.469,5.4-.938,5.4-.938l4.379-2.424,3.129-.89,2.345,1.36a9.055,9.055,0,0,1,.235,1.251c0,.313.86.7,1.329.7s.625-1.095.625-1.095l-.548-2.342,1.095,1.013H134.1v-1.72Z" transform="translate(-14.831 -28.923)" fill="#b78876"/>
            <path id="Trazado_166309" data-name="Trazado 166309" d="M103.766,276.319l-35.722,63.6,19.09,12.948,31.57-56.036-5.317-20.509Z" transform="translate(-9.346 -37.952)" fill="#263238"/>
            <path id="Trazado_166310" data-name="Trazado 166310" d="M31.707,250.656s-4.1,17.278,7.028,20.792,69.016,5.345,69.016,5.345l21.515,88.862,18.418-2.617L131.8,267.8a16.117,16.117,0,0,0-13.04-13.08c-17.166-3.068-48.264-8.7-48.688-9.336-.586-.879-2.929-5.857-2.929-5.857Z" transform="translate(-4.254 -32.899)" fill="#263238"/>
            <path id="Trazado_166311" data-name="Trazado 166311" d="M123.482,309.626a2.084,2.084,0,0,1-.185-.458c-.111-.3-.258-.757-.425-1.348-.342-1.179-.763-2.905-1.217-5.051-.443-2.164-.965-4.715-1.542-7.539a41.166,41.166,0,0,0-2.679-8.953,5.987,5.987,0,0,0-3.166-3.321,24.337,24.337,0,0,0-4.387-.96c-2.859-.4-5.461-.583-7.644-.719s-3.955-.2-5.179-.251l-1.409-.058a2.032,2.032,0,0,1-.492-.048,2.057,2.057,0,0,1,.492-.042c.323-.015.8-.024,1.412-.027,1.226-.005,3,.015,5.192.109s4.8.25,7.685.626a24.2,24.2,0,0,1,4.483.958,5.825,5.825,0,0,1,1.113.56,5.522,5.522,0,0,1,.933.851,10.009,10.009,0,0,1,1.37,2.124,40.211,40.211,0,0,1,2.681,9.067c.575,2.843,1.031,5.411,1.449,7.56s.786,3.88,1.075,5.069.481,1.838.442,1.851" transform="translate(-13.069 -38.575)" fill="#455a64"/>
          </g>
        </g>
        <path id="Trazado_166312" data-name="Trazado 166312" d="M335.106,227.749l-229.9-.825-.025,6.826,13.647.049-.477,132.953,4.82.017.477-132.953,189.963.681-.477,132.953,4.82.017.477-132.953,16.65.06Z" transform="translate(-14.447 -31.168)" fill="#455a64"/>
        <path id="Trazado_166313" data-name="Trazado 166313" d="M280.179,184.152l12.753,37.266h57.744l-.426-1.919-23.349-.722-10.756-34.644Z" transform="translate(-38.482 -25.29)" fill="#e0e0e0"/>
        <g id="Grupo_56882" data-name="Grupo 56882">
          <g id="Grupo_56881" data-name="Grupo 56881" clip-path="url(#clip-path)">
            <path id="Trazado_166314" data-name="Trazado 166314" d="M309.139,204.088c.381,1.527-.273,3.022-1.46,3.34s-2.46-.663-2.842-2.189.273-3.022,1.46-3.34,2.46.663,2.842,2.189" transform="translate(-41.854 -27.722)" fill="#fff"/>
            <path id="Trazado_166315" data-name="Trazado 166315" d="M203.087,182.941l-12.753,37.266H132.59l.426-1.919,23.349-.722,10.756-34.644Z" transform="translate(-18.211 -25.124)" fill="#e0e0e0"/>
            <path id="Trazado_166316" data-name="Trazado 166316" d="M184.632,202.877c-.381,1.527.273,3.023,1.46,3.34s2.46-.663,2.842-2.189-.273-3.022-1.46-3.34-2.46.663-2.842,2.189" transform="translate(-25.344 -27.556)" fill="#fff"/>
            <path id="Trazado_166317" data-name="Trazado 166317" d="M247.417,209.9a7.069,7.069,0,1,1-7.069-7.069,7.068,7.068,0,0,1,7.069,7.069" transform="translate(-32.041 -27.859)" fill="#455a64"/>
            <rect id="Rectángulo_30927" data-name="Rectángulo 30927" width="46.17" height="16.876" transform="translate(185.222 179.252)" fill="#e0e0e0"/>
            <path id="Trazado_166318" data-name="Trazado 166318" d="M232.891,213.152a63.338,63.338,0,0,1-7.532.224,63.326,63.326,0,0,1-7.532-.224,63.33,63.33,0,0,1,7.532-.224,63.342,63.342,0,0,1,7.532.224" transform="translate(-29.918 -29.245)" fill="#263238"/>
            <path id="Trazado_166319" data-name="Trazado 166319" d="M232.891,215.961a63.334,63.334,0,0,1-7.532.224,63.322,63.322,0,0,1-7.532-.224,63.326,63.326,0,0,1,7.532-.224,63.338,63.338,0,0,1,7.532.224" transform="translate(-29.918 -29.631)" fill="#263238"/>
            <path id="Trazado_166320" data-name="Trazado 166320" d="M232.891,218.77a63.338,63.338,0,0,1-7.532.224,63.326,63.326,0,0,1-7.532-.224,63.326,63.326,0,0,1,7.532-.224,63.338,63.338,0,0,1,7.532.224" transform="translate(-29.918 -30.017)" fill="#263238"/>
            <path id="Trazado_166321" data-name="Trazado 166321" d="M232.891,221.578a63.338,63.338,0,0,1-7.532.224,63.326,63.326,0,0,1-7.532-.224,63.332,63.332,0,0,1,7.532-.224,63.344,63.344,0,0,1,7.532.224" transform="translate(-29.918 -30.403)" fill="#263238"/>
            <path id="Trazado_166322" data-name="Trazado 166322" d="M245.018,224.316a73.333,73.333,0,0,1-.224-8.105,73.343,73.343,0,0,1,.224-8.106,73.336,73.336,0,0,1,.224,8.106,73.326,73.326,0,0,1-.224,8.105" transform="translate(-33.622 -28.583)" fill="#263238"/>
          </g>
        </g>
      </g>
    </g>
  </g>
</svg>
