<svg xmlns="http://www.w3.org/2000/svg" width="152.098" height="240.825" viewBox="0 0 152.098 240.825">
  <g id="Grupo_120362" data-name="Grupo 120362" transform="translate(-621.042 -164.686)">
    <path id="Trazado_166805" data-name="Trazado 166805" d="M266.39,749.862a101.111,101.111,0,0,1-34.8-6.137l34.8,26.128,34.8-26.128a101.111,101.111,0,0,1-34.8,6.137" transform="translate(430.701 -364.342)" fill="#26ccda"/>
    <path id="Trazado_166809" data-name="Trazado 166809" d="M937.908,169.393a76.049,76.049,0,1,1-76.049-76.049,76.049,76.049,0,0,1,76.049,76.049" transform="translate(-164.768 71.342)" fill="#b1f9ff"/>
    <circle id="Elipse_4273" data-name="Elipse 4273" cx="11" cy="11" r="11" transform="translate(686.289 357.174)" fill="#26ccda"/>
    <circle id="Elipse_4277" data-name="Elipse 4277" cx="7" cy="7" r="7" transform="translate(690.289 361.174)" fill="#b1f9ff"/>
    <path id="Trazado_181410" data-name="Trazado 181410" d="M11.277,10.243V14H9.08V3.336h4.16a4.813,4.813,0,0,1,2.113.439,3.238,3.238,0,0,1,1.4,1.249,3.482,3.482,0,0,1,.491,1.842,3.062,3.062,0,0,1-1.073,2.472,4.469,4.469,0,0,1-2.97.9Zm0-1.78H13.24a1.93,1.93,0,0,0,1.329-.41,1.492,1.492,0,0,0,.458-1.172,1.759,1.759,0,0,0-.461-1.267,1.724,1.724,0,0,0-1.274-.5H11.277ZM20.85,14H18.726V2.75H20.85Zm6.335,0a2.351,2.351,0,0,1-.212-.71,2.561,2.561,0,0,1-2,.857,2.814,2.814,0,0,1-1.93-.674,2.167,2.167,0,0,1-.765-1.7,2.24,2.24,0,0,1,.934-1.934,4.608,4.608,0,0,1,2.7-.681h.974V8.7a1.306,1.306,0,0,0-.282-.879,1.109,1.109,0,0,0-.89-.33,1.261,1.261,0,0,0-.839.256.871.871,0,0,0-.3.7H22.454a2.126,2.126,0,0,1,.425-1.274,2.808,2.808,0,0,1,1.2-.919,4.378,4.378,0,0,1,1.743-.333,3.459,3.459,0,0,1,2.325.736,2.575,2.575,0,0,1,.861,2.069v3.435a3.789,3.789,0,0,0,.315,1.707V14Zm-1.75-1.472a1.823,1.823,0,0,0,.864-.209,1.371,1.371,0,0,0,.586-.56V10.4h-.791q-1.589,0-1.692,1.1l-.007.125a.847.847,0,0,0,.278.652A1.081,1.081,0,0,0,25.435,12.528Zm7.148-6.453.066.916a2.767,2.767,0,0,1,2.278-1.062,2.3,2.3,0,0,1,1.875.74,3.451,3.451,0,0,1,.63,2.212V14H35.315V8.92a1.379,1.379,0,0,0-.293-.98,1.31,1.31,0,0,0-.974-.3,1.456,1.456,0,0,0-1.34.763V14H30.591V6.075ZM41.27,14H39.146V6.075H41.27ZM39.021,4.024a1.042,1.042,0,0,1,.319-.784,1.373,1.373,0,0,1,1.732,0,1.036,1.036,0,0,1,.322.784,1.039,1.039,0,0,1-.326.791,1.358,1.358,0,0,1-1.721,0A1.039,1.039,0,0,1,39.021,4.024ZM43.526,14V7.628H42.347V6.075h1.179V5.709a2.972,2.972,0,0,1,.919-2.3A3.7,3.7,0,0,1,47,2.6a8.466,8.466,0,0,1,2.4.432l-.308,1.75A9.373,9.373,0,0,0,47.979,4.5a5.47,5.47,0,0,0-.85-.062q-1.479,0-1.479,1.311v.322h1.56V7.628H45.65V14Zm6.863,0H48.265V6.075h2.124Zm5.046-1.56a1.388,1.388,0,0,0,.952-.322,1.129,1.129,0,0,0,.381-.857h1.985a2.715,2.715,0,0,1-.439,1.476,2.9,2.9,0,0,1-1.183,1.04,3.7,3.7,0,0,1-1.659.37,3.44,3.44,0,0,1-2.681-1.08,4.275,4.275,0,0,1-.981-2.985V9.942a4.226,4.226,0,0,1,.974-2.922,3.4,3.4,0,0,1,2.673-1.091,3.333,3.333,0,0,1,2.384.846,3,3,0,0,1,.912,2.252H56.768a1.455,1.455,0,0,0-.381-1.005,1.416,1.416,0,0,0-2.084.153,3.125,3.125,0,0,0-.377,1.749v.22A3.164,3.164,0,0,0,54.3,11.9,1.291,1.291,0,0,0,55.435,12.44ZM64.554,14a2.351,2.351,0,0,1-.212-.71,2.561,2.561,0,0,1-2,.857,2.814,2.814,0,0,1-1.93-.674,2.167,2.167,0,0,1-.765-1.7A2.24,2.24,0,0,1,60.58,9.84a4.608,4.608,0,0,1,2.7-.681h.974V8.7a1.306,1.306,0,0,0-.282-.879,1.109,1.109,0,0,0-.89-.33,1.261,1.261,0,0,0-.839.256.871.871,0,0,0-.3.7H59.822a2.126,2.126,0,0,1,.425-1.274,2.808,2.808,0,0,1,1.2-.919,4.378,4.378,0,0,1,1.743-.333,3.459,3.459,0,0,1,2.325.736,2.575,2.575,0,0,1,.861,2.069v3.435a3.789,3.789,0,0,0,.315,1.707V14ZM62.8,12.528a1.823,1.823,0,0,0,.864-.209,1.371,1.371,0,0,0,.586-.56V10.4h-.791q-1.589,0-1.692,1.1l-.007.125a.847.847,0,0,0,.278.652A1.081,1.081,0,0,0,62.8,12.528Zm8.5-.088a1.388,1.388,0,0,0,.952-.322,1.129,1.129,0,0,0,.381-.857h1.985a2.715,2.715,0,0,1-.439,1.476,2.9,2.9,0,0,1-1.183,1.04,3.7,3.7,0,0,1-1.659.37,3.44,3.44,0,0,1-2.681-1.08,4.275,4.275,0,0,1-.981-2.985V9.942a4.226,4.226,0,0,1,.974-2.922,3.4,3.4,0,0,1,2.673-1.091,3.333,3.333,0,0,1,2.384.846,3,3,0,0,1,.912,2.252H72.632a1.455,1.455,0,0,0-.381-1.005,1.416,1.416,0,0,0-2.084.153,3.125,3.125,0,0,0-.377,1.749v.22a3.164,3.164,0,0,0,.374,1.761A1.291,1.291,0,0,0,71.3,12.44ZM78.06,14H75.936V6.075H78.06ZM75.811,4.024a1.042,1.042,0,0,1,.319-.784,1.373,1.373,0,0,1,1.732,0,1.036,1.036,0,0,1,.322.784,1.039,1.039,0,0,1-.326.791,1.358,1.358,0,0,1-1.721,0A1.039,1.039,0,0,1,75.811,4.024Zm3.662,5.94a4.7,4.7,0,0,1,.454-2.1,3.324,3.324,0,0,1,1.307-1.428,3.814,3.814,0,0,1,1.981-.505,3.609,3.609,0,0,1,2.618.981,3.939,3.939,0,0,1,1.132,2.666l.015.542a4.142,4.142,0,0,1-1.018,2.926,3.946,3.946,0,0,1-5.468,0,4.215,4.215,0,0,1-1.022-2.988Zm2.117.15a2.962,2.962,0,0,0,.425,1.727,1.526,1.526,0,0,0,2.417.007,3.241,3.241,0,0,0,.432-1.889,2.933,2.933,0,0,0-.432-1.716,1.4,1.4,0,0,0-1.216-.609,1.382,1.382,0,0,0-1.2.605A3.3,3.3,0,0,0,81.59,10.115ZM83.633,2.75H85.94L83.912,5.021H82.19Zm6.6,3.325.066.916a2.767,2.767,0,0,1,2.278-1.062,2.3,2.3,0,0,1,1.875.74,3.451,3.451,0,0,1,.63,2.212V14H92.964V8.92a1.379,1.379,0,0,0-.293-.98,1.31,1.31,0,0,0-.974-.3,1.456,1.456,0,0,0-1.34.763V14H88.24V6.075Zm-79.244,19.9a4.776,4.776,0,0,1,.831-2.952,2.7,2.7,0,0,1,2.274-1.1,2.427,2.427,0,0,1,1.912.864V18.75h2.124V30H16.218l-.1-.842a2.491,2.491,0,0,1-2.036.989,2.69,2.69,0,0,1-2.245-1.1A4.93,4.93,0,0,1,10.988,25.979Zm2.117.151a3.146,3.146,0,0,0,.388,1.714,1.263,1.263,0,0,0,1.128.6,1.416,1.416,0,0,0,1.384-.831V24.467a1.4,1.4,0,0,0-1.37-.831Q13.1,23.635,13.1,26.13Zm10.313,4.017a3.89,3.89,0,0,1-2.838-1.069,3.8,3.8,0,0,1-1.095-2.849v-.205a4.787,4.787,0,0,1,.461-2.135,3.386,3.386,0,0,1,1.307-1.45,3.669,3.669,0,0,1,1.93-.509,3.289,3.289,0,0,1,2.56,1.025,4.167,4.167,0,0,1,.934,2.908v.864H21.63a1.966,1.966,0,0,0,.619,1.245,1.871,1.871,0,0,0,1.307.469,2.285,2.285,0,0,0,1.912-.886l1.04,1.165a3.178,3.178,0,0,1-1.289,1.051A4.229,4.229,0,0,1,23.417,30.146Zm-.242-6.511a1.323,1.323,0,0,0-1.022.427,2.209,2.209,0,0,0-.5,1.221H24.6v-.169a1.576,1.576,0,0,0-.381-1.092A1.365,1.365,0,0,0,23.176,23.635ZM30.112,30H27.988V18.75h2.124Zm12.612-3.889a4.753,4.753,0,0,1-.831,2.933,2.665,2.665,0,0,1-2.245,1.1,2.469,2.469,0,0,1-1.941-.835v3.735H35.59V22.075h1.963l.073.776a2.488,2.488,0,0,1,2.007-.923,2.683,2.683,0,0,1,2.278,1.084A4.882,4.882,0,0,1,42.724,26Zm-2.117-.161a3.136,3.136,0,0,0-.392-1.712,1.275,1.275,0,0,0-1.139-.6,1.385,1.385,0,0,0-1.37.764v3.255a1.409,1.409,0,0,0,1.384.786Q40.607,28.44,40.607,25.949Zm7.881-1.889A5.75,5.75,0,0,0,47.726,24a1.55,1.55,0,0,0-1.575.813V30H44.035V22.075h2l.059.945a1.961,1.961,0,0,1,1.765-1.091,2.218,2.218,0,0,1,.659.1Zm.425,1.9a4.7,4.7,0,0,1,.454-2.1,3.324,3.324,0,0,1,1.307-1.428,3.814,3.814,0,0,1,1.981-.505,3.609,3.609,0,0,1,2.618.981,3.939,3.939,0,0,1,1.132,2.666l.015.542A4.142,4.142,0,0,1,55.4,29.044a3.946,3.946,0,0,1-5.468,0,4.215,4.215,0,0,1-1.022-2.988Zm2.117.15a2.962,2.962,0,0,0,.425,1.727,1.526,1.526,0,0,0,2.417.007,3.241,3.241,0,0,0,.432-1.889,2.933,2.933,0,0,0-.432-1.716,1.4,1.4,0,0,0-1.216-.609,1.382,1.382,0,0,0-1.2.605A3.3,3.3,0,0,0,51.03,26.115Zm9.543.89,1.465-4.929h2.271L61.122,31.23l-.176.417A2.416,2.416,0,0,1,58.6,33.2a3.33,3.33,0,0,1-.937-.139v-1.6l.322.007a1.741,1.741,0,0,0,.9-.183,1.2,1.2,0,0,0,.465-.608l.249-.652-2.776-7.947H59.1ZM68.7,30.146a3.89,3.89,0,0,1-2.838-1.069,3.8,3.8,0,0,1-1.095-2.849v-.205a4.787,4.787,0,0,1,.461-2.135,3.386,3.386,0,0,1,1.307-1.45,3.669,3.669,0,0,1,1.93-.509,3.289,3.289,0,0,1,2.56,1.025,4.167,4.167,0,0,1,.934,2.908v.864H66.908a1.966,1.966,0,0,0,.619,1.245,1.871,1.871,0,0,0,1.307.469,2.285,2.285,0,0,0,1.912-.886l1.04,1.165A3.178,3.178,0,0,1,70.5,29.769,4.229,4.229,0,0,1,68.7,30.146Zm-.242-6.511a1.323,1.323,0,0,0-1.022.427,2.209,2.209,0,0,0-.5,1.221h2.944v-.169a1.576,1.576,0,0,0-.381-1.092A1.365,1.365,0,0,0,68.454,23.635Zm8,4.8a1.388,1.388,0,0,0,.952-.322,1.129,1.129,0,0,0,.381-.857H79.77a2.715,2.715,0,0,1-.439,1.476,2.9,2.9,0,0,1-1.183,1.04,3.7,3.7,0,0,1-1.659.37,3.44,3.44,0,0,1-2.681-1.08,4.275,4.275,0,0,1-.981-2.985v-.139A4.226,4.226,0,0,1,73.8,23.02a3.4,3.4,0,0,1,2.673-1.091,3.333,3.333,0,0,1,2.384.846,3,3,0,0,1,.912,2.252H77.785a1.455,1.455,0,0,0-.381-1.005,1.416,1.416,0,0,0-2.084.153,3.125,3.125,0,0,0-.377,1.749v.22a3.164,3.164,0,0,0,.374,1.761A1.291,1.291,0,0,0,76.452,28.44Zm7.061-8.313v1.948h1.355v1.553H83.512v3.955a.944.944,0,0,0,.168.63.846.846,0,0,0,.645.19,3.376,3.376,0,0,0,.623-.051v1.6a4.358,4.358,0,0,1-1.282.19A2.021,2.021,0,0,1,81.4,27.9v-4.27H80.239V22.075H81.4V20.127ZM85.5,25.964a4.7,4.7,0,0,1,.454-2.1,3.324,3.324,0,0,1,1.307-1.428,3.814,3.814,0,0,1,1.981-.505,3.609,3.609,0,0,1,2.618.981,3.939,3.939,0,0,1,1.132,2.666l.015.542a4.142,4.142,0,0,1-1.018,2.926,3.946,3.946,0,0,1-5.468,0A4.215,4.215,0,0,1,85.5,26.06Zm2.117.15a2.962,2.962,0,0,0,.425,1.727,1.526,1.526,0,0,0,2.417.007,3.241,3.241,0,0,0,.432-1.889,2.933,2.933,0,0,0-.432-1.716,1.4,1.4,0,0,0-1.216-.609,1.382,1.382,0,0,0-1.2.605A3.3,3.3,0,0,0,87.614,26.115Z" transform="translate(643.43 255.874)" fill="#12263f"/>
    <g id="moodboard" transform="translate(666.133 150.887)">
      <path id="Trazado_104045" data-name="Trazado 104045" d="M0,0H57.656V48.633H0Z" transform="translate(58.828 88.305) rotate(180)" fill="#26ccda"/>
      <path id="Trazado_104046" data-name="Trazado 104046" d="M0,0H8.837V10.6H0Z" transform="matrix(0.981, -0.196, 0.196, 0.981, 5.766, 51.526)" fill="#fdd835"/>
      <path id="Trazado_104047" data-name="Trazado 104047" d="M0,0H8.271V8.271H0Z" transform="translate(37.242 49.813) rotate(12.939)" fill="#fff"/>
      <path id="Trazado_104048" data-name="Trazado 104048" d="M0,0H8.271V8.271H0Z" transform="translate(25.048 60.569) rotate(12.939)" fill="#f57c00"/>
      <path id="Trazado_104049" data-name="Trazado 104049" d="M0,0H8.271V8.271H0Z" transform="translate(10.692 75.744) rotate(-17.33)" fill="#fff"/>
      <path id="Trazado_104050" data-name="Trazado 104050" d="M0,0H8.271V8.271H0Z" transform="translate(40.235 76.208) rotate(-17.33)" fill="#ffa726"/>
      <g id="Grupo_56564" data-name="Grupo 56564" transform="translate(0 38.5)">
        <circle id="Elipse_4158" data-name="Elipse 4158" cx="1.154" cy="1.154" r="1.154" transform="translate(57.692 35.592)"/>
        <path id="Trazado_104051" data-name="Trazado 104051" d="M59.657,38.843a1.18,1.18,0,0,0-.828-.343H1.172A1.172,1.172,0,0,0,0,39.672V88.3a1.172,1.172,0,0,0,1.172,1.172H58.828A1.173,1.173,0,0,0,60,88.3V80.453a1.172,1.172,0,0,0-2.344,0h0v6.68H2.344V40.844H57.656V69.906a1.172,1.172,0,1,0,2.344,0V39.672A1.18,1.18,0,0,0,59.657,38.843Z" transform="translate(0 -38.5)"/>
        <path id="Trazado_104052" data-name="Trazado 104052" d="M50.185,125.729a1.172,1.172,0,0,0-1.379-.919l-8.665,1.734a1.172,1.172,0,0,0-.919,1.379l2.08,10.4a1.171,1.171,0,0,0,1.379.919l8.665-1.734a1.172,1.172,0,0,0,.919-1.379Zm-6.815,10.983-1.621-8.1,6.367-1.274,1.621,8.1Z" transform="translate(-34.605 -114.675)"/>
        <path id="Trazado_104053" data-name="Trazado 104053" d="M294.3,125.114a1.172,1.172,0,0,0-.52.731l-1.852,8.061a1.172,1.172,0,0,0,.88,1.4l8.061,1.851a1.17,1.17,0,0,0,1.4-.88l1.852-8.061a1.172,1.172,0,0,0-.88-1.4l-8.061-1.852A1.173,1.173,0,0,0,294.3,125.114Zm7.279,3.724-1.327,5.777-5.777-1.327,1.327-5.777Z" transform="translate(-257.692 -114.806)"/>
        <path id="Trazado_104054" data-name="Trazado 104054" d="M188.812,227.075l8.061,1.851a1.17,1.17,0,0,0,1.4-.88l1.852-8.061a1.172,1.172,0,0,0-.88-1.4l-8.061-1.851a1.172,1.172,0,0,0-1.4.88l-1.851,8.061a1.172,1.172,0,0,0,.88,1.4Zm2.994-7.8,5.777,1.327-1.327,5.777-5.777-1.327Z" transform="translate(-165.883 -195.817)"/>
        <path id="Trazado_104055" data-name="Trazado 104055" d="M83.651,337.07a1.172,1.172,0,0,0,1.468.77l7.9-2.463a1.172,1.172,0,0,0,.77-1.468l-2.463-7.9a1.172,1.172,0,0,0-1.468-.77l-7.9,2.463a1.172,1.172,0,0,0-.77,1.468Zm5.781-9.24,1.765,5.658-5.658,1.765L83.774,329.6Z" transform="translate(-71.627 -291.594)"/>
        <path id="Trazado_104056" data-name="Trazado 104056" d="M341.854,329.242l-7.9,2.463a1.172,1.172,0,0,0-.77,1.468l2.463,7.9a1.171,1.171,0,0,0,1.468.77l7.9-2.463a1.171,1.171,0,0,0,.77-1.468l-2.463-7.9A1.171,1.171,0,0,0,341.854,329.242Zm-4.314,10.01-1.765-5.658,5.658-1.765,1.765,5.658Z" transform="translate(-294.096 -295.123)"/>
        <path id="Trazado_104057" data-name="Trazado 104057" d="M178.5,78.5H160.839a1.172,1.172,0,0,0,0,2.344H178.5a1.172,1.172,0,1,0,0-2.344Z" transform="translate(-140.956 -73.813)"/>
        <path id="Trazado_104058" data-name="Trazado 104058" d="M170.417,135.482a1.171,1.171,0,0,0,1.608.4l3.015-1.809a1.172,1.172,0,0,0,.4-1.608l-1.809-3.014a1.172,1.172,0,0,0-2.01,1.206l.329.549a22.359,22.359,0,0,0-9.139.753,1.172,1.172,0,1,0,.712,2.233,20.365,20.365,0,0,1,7.919-.694l-.624.375A1.172,1.172,0,0,0,170.417,135.482Z" transform="translate(-143.012 -118.292)"/>
        <path id="Trazado_104059" data-name="Trazado 104059" d="M217.24,373.093a1.171,1.171,0,0,0,1.608-.4l1.809-3.014a1.172,1.172,0,0,0-.4-1.608l-3.014-1.809a1.172,1.172,0,0,0-1.206,2.01l.622.373a20.514,20.514,0,0,1-7.918-.692,1.172,1.172,0,0,0-.711,2.233,23.44,23.44,0,0,0,6.473.951,17.3,17.3,0,0,0,2.667-.2l-.33.549A1.172,1.172,0,0,0,217.24,373.093Z" transform="translate(-182.929 -327.703)"/>
        <path id="Trazado_104060" data-name="Trazado 104060" d="M327.2,179.725l-.585-.178a1.172,1.172,0,1,0-.682,2.242l.585.178a3.439,3.439,0,0,1,2.318,4.055,4.367,4.367,0,0,1-3.682,3.157l-6.955.729.416-.514a1.172,1.172,0,1,0-1.821-1.476l-2.213,2.731a1.172,1.172,0,0,0,.173,1.648l2.731,2.214a1.172,1.172,0,1,0,1.475-1.821l-.553-.448,6.991-.732a6.766,6.766,0,0,0,5.7-4.89,5.829,5.829,0,0,0-3.9-6.9Z" transform="translate(-277.483 -162.973)"/>
        <path id="Trazado_104061" data-name="Trazado 104061" d="M91.629,251.969a5.393,5.393,0,0,0-3.495,1.278,4.911,4.911,0,0,0-1.505,2.251l-.225-.386a1.172,1.172,0,1,0-2.025,1.18l1.77,3.037a1.171,1.171,0,0,0,1.6.422l3.037-1.77a1.172,1.172,0,0,0-1.18-2.025l-.8.467a2.56,2.56,0,0,1,.855-1.4,3.047,3.047,0,0,1,1.978-.71c.352,0,1.512-.014,2.052-.017a1.172,1.172,0,0,0-.008-2.344h-.008Z" transform="translate(-74.35 -226.938)"/>
      </g>
    </g>
  </g>
</svg>
