<svg id="psicologia" xmlns="http://www.w3.org/2000/svg" width="83.734" height="100.362" viewBox="0 0 83.734 100.362">
  <path id="Trazado_103929" data-name="Trazado 103929" d="M156.085,24.8a11.655,11.655,0,0,0-.2-2.121l5.436-3.139-3.87-6.7-5.437,3.139a11.587,11.587,0,0,0-3.672-2.124V7.574H140.6v6.275a11.592,11.592,0,0,0-3.672,2.124l-5.438-3.139-3.87,6.7,5.437,3.139a11.524,11.524,0,0,0,0,4.241l-5.437,3.139,3.87,6.7,5.438-3.139a11.584,11.584,0,0,0,3.672,2.124v6.275h7.741V35.743a11.587,11.587,0,0,0,3.672-2.124l5.437,3.139,3.87-6.7-5.436-3.139A11.653,11.653,0,0,0,156.085,24.8Zm-11.61,3.87a3.87,3.87,0,1,1,3.87-3.87A3.87,3.87,0,0,1,144.475,28.666Zm0,0" transform="translate(-102.608 -6.09)" fill="#26ccda"/>
  <path id="Trazado_103930" data-name="Trazado 103930" d="M207.4,46.369a11.655,11.655,0,0,0-.2-2.121l5.436-3.139-3.87-6.7-3.1,1.792a18.118,18.118,0,0,1-14.215,20.94c.155.062.311.122.469.178V63.59h7.74V57.315a11.586,11.586,0,0,0,3.672-2.123l5.437,3.139,3.871-6.7L207.2,48.49A11.668,11.668,0,0,0,207.4,46.369Zm0,0" transform="translate(-153.921 -27.662)" fill="#26ccda" style="mix-blend-mode: multiply;isolation: isolate"/>
  <path id="Trazado_103931" data-name="Trazado 103931" d="M36.079,379.2l-16.908,4.7a15.838,15.838,0,0,0-11.6,15.259v4.591H88.339v-4.591a15.837,15.837,0,0,0-11.6-15.259l-16.908-4.7Zm0,0" transform="translate(-6.09 -304.872)" fill="#f57c00"/>
  <path id="Trazado_103932" data-name="Trazado 103932" d="M339.674,397.4l-5.061-1.406a15.835,15.835,0,0,1,9.532,14.525v6.731h7.126v-4.591A15.836,15.836,0,0,0,339.674,397.4Zm0,0" transform="translate(-269.022 -318.37)" fill="#ee9336" style="mix-blend-mode: multiply;isolation: isolate"/>
  <path id="Trazado_103933" data-name="Trazado 103933" d="M158.422,392.664a13.475,13.475,0,0,0,13.45-13.024L170.3,379.2H146.545l-1.572.437A13.474,13.474,0,0,0,158.422,392.664Zm0,0" transform="translate(-116.555 -304.872)" fill="#ffa726"/>
  <path id="Trazado_103934" data-name="Trazado 103934" d="M191.483,344.867V351.6a7.126,7.126,0,0,1-14.253,0v-6.731Zm0,0" transform="translate(-142.49 -277.266)" fill="#f9b3a7"/>
  <path id="Trazado_103935" data-name="Trazado 103935" d="M308.512,183.289h5.147v6.532h-5.147Zm0,0" transform="translate(-248.037 -147.361)" fill="#ffd664"/>
  <path id="Trazado_103936" data-name="Trazado 103936" d="M92.4,183.289h5.146v6.532H92.4Zm0,0" transform="translate(-74.29 -147.361)" fill="#ffd664"/>
  <path id="Trazado_103937" data-name="Trazado 103937" d="M87.272,227.3h3.959v-10.69H87.272a3.959,3.959,0,0,0-3.959,3.959v2.771A3.959,3.959,0,0,0,87.272,227.3Zm0,0" transform="translate(-66.982 -174.153)" fill="#feccc1"/>
  <path id="Trazado_103938" data-name="Trazado 103938" d="M307.424,227.3h-3.959v-10.69h3.959a3.959,3.959,0,0,1,3.959,3.959v2.771A3.959,3.959,0,0,1,307.424,227.3Zm0,0" transform="translate(-243.98 -174.153)" fill="#f9b3a7"/>
  <path id="Trazado_103939" data-name="Trazado 103939" d="M137.264,183.289H118.656v14.253a18.608,18.608,0,0,0,37.216,0V183.289Zm0,0" transform="translate(-95.397 -147.361)" fill="#feccc1"/>
  <path id="Trazado_103940" data-name="Trazado 103940" d="M215.282,183.289v14.253a18.612,18.612,0,0,1-15.836,18.4,18.8,18.8,0,0,0,2.772.205,18.607,18.607,0,0,0,18.607-18.607V183.289Zm0,0" transform="translate(-160.35 -147.361)" fill="#f9b3a7"/>
  <path id="Trazado_103941" data-name="Trazado 103941" d="M196.976,73.469a5.355,5.355,0,1,0-5.355,5.355A5.361,5.361,0,0,0,196.976,73.469Zm-5.355,2.385a2.386,2.386,0,1,1,2.385-2.385A2.389,2.389,0,0,1,191.621,75.854Zm0,0" transform="translate(-149.754 -54.762)"/>
  <path id="Trazado_103942" data-name="Trazado 103942" d="M71.049,392.023l-3.179-.884A1.485,1.485,0,0,0,67.075,394l3.18.883a14.392,14.392,0,0,1,10.51,13.828v3.106H67.9v-5.84a1.485,1.485,0,1,0-2.969,0v5.84H18.806v-5.84a1.485,1.485,0,1,0-2.969,0v5.84H2.969v-3.106A14.391,14.391,0,0,1,13.48,394.884L16.659,394a1.485,1.485,0,1,0-.795-2.861l-3.178.884A17.369,17.369,0,0,0,0,408.711v4.59a1.485,1.485,0,0,0,1.485,1.485H82.25a1.485,1.485,0,0,0,1.485-1.485v-4.59A17.369,17.369,0,0,0,71.049,392.023Zm0,0" transform="translate(0 -314.424)"/>
  <path id="Trazado_103943" data-name="Trazado 103943" d="M77.52,42.4a5.432,5.432,0,0,0-1.782,4.025v2.771a5.45,5.45,0,0,0,5.444,5.444h1.982a20.172,20.172,0,0,0,10.983,13.7v4.515H90.882a1.491,1.491,0,0,0-.4.054l-7.05,1.959a1.484,1.484,0,1,0,.794,2.861L88,76.672a14.939,14.939,0,0,0,29.508,0l3.777,1.049a1.46,1.46,0,0,0,.4.055,1.485,1.485,0,0,0,.4-2.916L115.034,72.9a1.517,1.517,0,0,0-.4-.054H111.37V68.333a20.169,20.169,0,0,0,10.982-13.7h1.983a5.449,5.449,0,0,0,5.443-5.443V46.421A5.433,5.433,0,0,0,128,42.4V35.928a1.485,1.485,0,0,0-1.485-1.485h-18.4V30.657a12.993,12.993,0,0,0,2.315-1.339L115,31.955a1.485,1.485,0,0,0,2.028-.544l3.871-6.7a1.486,1.486,0,0,0-.544-2.028l-4.567-2.637a12.862,12.862,0,0,0,0-2.674l4.567-2.637a1.485,1.485,0,0,0,.544-2.028L117.024,6A1.485,1.485,0,0,0,115,5.457l-4.567,2.637a12.993,12.993,0,0,0-2.315-1.339V1.485A1.485,1.485,0,0,0,106.629,0h-7.74A1.485,1.485,0,0,0,97.4,1.485V6.756A12.993,12.993,0,0,0,95.089,8.1L90.522,5.458A1.485,1.485,0,0,0,88.494,6l-3.871,6.7a1.483,1.483,0,0,0,.544,2.028l4.567,2.637a12.862,12.862,0,0,0,0,2.674l-4.567,2.637a1.484,1.484,0,0,0-.544,2.028l3.871,6.7a1.485,1.485,0,0,0,2.028.544l4.567-2.637A12.993,12.993,0,0,0,97.4,30.658v3.786h-3.1a1.485,1.485,0,1,0,0,2.969h25.573V50.181a17.123,17.123,0,0,1-34.246,0V37.413h1.757a1.485,1.485,0,1,0,0-2.969H79a1.485,1.485,0,0,0-1.485,1.485Zm22.853-7.952v-4.79a1.485,1.485,0,0,0-.989-1.4,10.066,10.066,0,0,1-3.2-1.852,1.486,1.486,0,0,0-1.708-.158l-4.152,2.4-2.385-4.132,4.15-2.4a1.485,1.485,0,0,0,.718-1.555,10.035,10.035,0,0,1,0-3.7,1.485,1.485,0,0,0-.718-1.555l-4.15-2.4,2.385-4.132,4.152,2.4a1.484,1.484,0,0,0,1.708-.157,10.066,10.066,0,0,1,3.2-1.852,1.485,1.485,0,0,0,.989-1.4V2.969h4.771V7.76a1.484,1.484,0,0,0,.99,1.4,10.077,10.077,0,0,1,3.2,1.852,1.485,1.485,0,0,0,1.708.158l4.152-2.4L117.58,12.9l-4.15,2.4a1.483,1.483,0,0,0-.717,1.555,10.074,10.074,0,0,1,0,3.7,1.484,1.484,0,0,0,.717,1.556l4.15,2.4L115.2,28.641l-4.152-2.4a1.484,1.484,0,0,0-1.708.158,10.091,10.091,0,0,1-3.2,1.852,1.484,1.484,0,0,0-.99,1.4v4.79h-4.771ZM126.81,49.191a2.477,2.477,0,0,1-2.474,2.475H122.8q.054-.735.055-1.485V43.945h1.485a2.477,2.477,0,0,1,2.474,2.475Zm-1.781-8.169a5.457,5.457,0,0,0-.693-.046h-1.485V37.413h2.177v3.609Zm-10.4,34.85a11.973,11.973,0,0,1-23.748,0l.2-.056h3.195a8.609,8.609,0,0,0,16.96,0h3.194ZM108.4,69.466v4.865a5.642,5.642,0,0,1-11.283,0V69.466a20.123,20.123,0,0,0,11.283,0Zm-27.218-17.8a2.478,2.478,0,0,1-2.475-2.475V46.42a2.477,2.477,0,0,1,2.475-2.474h1.485v6.235q0,.749.054,1.485Zm1.485-14.253v3.564H81.182a5.583,5.583,0,0,0-.693.045V37.413Zm0,0" transform="translate(-60.892)"/>
  <path id="Trazado_103944" data-name="Trazado 103944" d="M342.87,54.452a1.483,1.483,0,0,0,1.956-.763,30.628,30.628,0,0,0,0-24.568,1.485,1.485,0,0,0-2.719,1.193,27.659,27.659,0,0,1,0,22.181A1.485,1.485,0,0,0,342.87,54.452Zm0,0" transform="translate(-274.946 -22.699)"/>
  <path id="Trazado_103945" data-name="Trazado 103945" d="M315.129,61.856a1.484,1.484,0,0,0,1.956-.763,24.7,24.7,0,0,0,0-19.794,1.485,1.485,0,1,0-2.719,1.194,21.727,21.727,0,0,1,0,17.407A1.484,1.484,0,0,0,315.129,61.856Zm0,0" transform="translate(-252.643 -32.49)"/>
  <path id="Trazado_103946" data-name="Trazado 103946" d="M61.494,54.579A1.485,1.485,0,0,0,62.852,52.5a27.665,27.665,0,0,1,0-22.18,1.485,1.485,0,0,0-2.719-1.194,30.636,30.636,0,0,0,0,24.568A1.485,1.485,0,0,0,61.494,54.579Zm0,0" transform="translate(-46.279 -22.701)"/>
  <path id="Trazado_103947" data-name="Trazado 103947" d="M91.286,61.983A1.485,1.485,0,0,0,92.644,59.9a21.728,21.728,0,0,1,0-17.407A1.484,1.484,0,0,0,89.926,41.3a24.688,24.688,0,0,0,0,19.793A1.484,1.484,0,0,0,91.286,61.983Zm0,0" transform="translate(-70.634 -32.491)"/>
</svg>
