<svg id="puntualidad" xmlns="http://www.w3.org/2000/svg" width="109.515" height="109.515" viewBox="0 0 109.515 109.515">
  <path id="Trazado_102785" data-name="Trazado 102785" d="M85.72,46.86A38.86,38.86,0,1,1,46.86,8,38.86,38.86,0,0,1,85.72,46.86Zm0,0" transform="translate(-6.234 -6.234)" fill="#26ccda"/>
  <path id="Trazado_102786" data-name="Trazado 102786" d="M272.729,134.3a38.747,38.747,0,0,0-2.643-14.082,21.3,21.3,0,0,0-15.436,7.613A11.265,11.265,0,0,0,248,138.124V160.8h.749a8.827,8.827,0,0,0,7.52,5.25A38.8,38.8,0,0,0,272.729,134.3Zm0,0" transform="translate(-193.242 -93.678)" fill="#26ccda" style="mix-blend-mode: multiply;isolation: isolate"/>
  <path id="Trazado_102787" data-name="Trazado 102787" d="M103.589,71.795A31.795,31.795,0,1,1,71.795,40,31.8,31.8,0,0,1,103.589,71.795Zm0,0" transform="translate(-31.168 -31.168)" fill="#e6e9ed"/>
  <path id="Trazado_102788" data-name="Trazado 102788" d="M265.664,140.562A31.644,31.644,0,0,0,263.075,128a21.269,21.269,0,0,0-8.424,6.094A11.263,11.263,0,0,0,248,144.381v19.144a8.753,8.753,0,0,0,1.414,4.757A31.768,31.768,0,0,0,265.664,140.562Zm0,0" transform="translate(-193.242 -99.738)" fill="#ccd1d9"/>
  <path id="Trazado_102789" data-name="Trazado 102789" d="M264,169.561V150.417a7.749,7.749,0,0,1,5.3-7.352A17.664,17.664,0,0,1,283.43,136a19.43,19.43,0,0,1,19.43,19.43v14.131Zm0,0" transform="translate(-205.71 -105.972)" fill="#636363"/>
  <path id="Trazado_102790" data-name="Trazado 102790" d="M238.963,341.953V347.7l-15.3,4.414A10.6,10.6,0,0,0,216,362.3v11.9h60.057V362.3a10.6,10.6,0,0,0-7.661-10.183l-15.3-4.414v-5.751Zm0,0" transform="translate(-168.308 -266.451)" fill="#e6e9ed"/>
  <path id="Trazado_102791" data-name="Trazado 102791" d="M320,328h14.131v15.9H320Zm0,0" transform="translate(-249.345 -255.579)" fill="#f0d0b4"/>
  <path id="Trazado_102792" data-name="Trazado 102792" d="M320,335.153a15.711,15.711,0,0,0,14.131,0V328H320Zm0,0" transform="translate(-249.345 -255.579)" fill="#ecc19c"/>
  <path id="Trazado_102793" data-name="Trazado 102793" d="M296,236.287v9.844a12.365,12.365,0,0,0,24.729,0v-7.065a3.532,3.532,0,0,0-3.533-3.533h-6.331a10.61,10.61,0,0,1-4.739-1.118l-3.923-1.961a4.285,4.285,0,0,0-6.2,3.833Zm0,0" transform="translate(-230.644 -180.775)" fill="#f0d0b4"/>
  <path id="Trazado_102794" data-name="Trazado 102794" d="M364.437,369.549,359.065,368,352,375.065l8.832,7.065Zm0,0" transform="translate(-274.28 -286.747)" fill="#ccd1d9"/>
  <path id="Trazado_102795" data-name="Trazado 102795" d="M299.228,382.131l8.832-7.065L300.995,368l-5.385,1.554Zm0,0" transform="translate(-230.34 -286.747)" fill="#ccd1d9"/>
  <path id="Trazado_102796" data-name="Trazado 102796" d="M271.065,264H269.3a5.3,5.3,0,0,0,0,10.6h28.262a5.3,5.3,0,0,0,0-10.6Zm0,0" transform="translate(-205.71 -205.71)" fill="#f0d0b4"/>
  <path id="Trazado_102797" data-name="Trazado 102797" d="M251.533,450.6V440L248,450.6Zm0,0" transform="translate(-193.242 -342.849)" fill="#ccd1d9"/>
  <path id="Trazado_102798" data-name="Trazado 102798" d="M325.336,404.711l4.121,4.121-3.533,10.6h10.6l-3.533-10.6,4.121-4.121L331.223,400Zm0,0" transform="translate(-253.503 -311.681)" fill="#f57c00"/>
  <path id="Trazado_102799" data-name="Trazado 102799" d="M440,450.6V440l3.533,10.6Zm0,0" transform="translate(-342.849 -342.849)" fill="#ccd1d9"/>
  <path id="Trazado_102800" data-name="Trazado 102800" d="M175.065,171.533A3.533,3.533,0,1,1,171.533,168,3.533,3.533,0,0,1,175.065,171.533Zm0,0" transform="translate(-130.906 -130.906)" fill="#aab2bd"/>
  <path id="Trazado_102801" data-name="Trazado 102801" d="M100.577,83.97,86.552,79.925V76.369a14.179,14.179,0,0,0,4.259-5.714h1.04a7.072,7.072,0,0,0,7.065-7.065V49.458a21.209,21.209,0,0,0-19.6-21.115A40.668,40.668,0,1,0,65.61,72.6a14.215,14.215,0,0,0,3.278,3.767v3.556L54.864,83.972a12.419,12.419,0,0,0-8.938,11.879v13.664h63.589V95.851A12.422,12.422,0,0,0,100.577,83.97Zm-12.612.039-2.382,8.337-5.218-4.174L85.3,83.239ZM77.228,98.917h.985l2.355,7.065h-5.7Zm1.527-3.533h-2.07l-2.208-2.208,3.243-2.6,3.243,2.6Zm13.1-28.262H91.73a14.215,14.215,0,0,0,.122-1.766v-5.3a3.533,3.533,0,0,1,0,7.065Zm3.533-17.664v8.048a6.988,6.988,0,0,0-3.533-.982h-.325a5.292,5.292,0,0,0-4.974-3.533H80.223a8.892,8.892,0,0,1-3.949-.932L72.351,50.1a6.054,6.054,0,0,0-8.761,5.414v1.013a6.988,6.988,0,0,0-3.533.982V44.446a5.976,5.976,0,0,1,4.091-5.675l.523-.175L65,38.154A15.977,15.977,0,0,1,77.72,31.795,17.683,17.683,0,0,1,95.384,49.458Zm-38.86-5.013V63.589a6.988,6.988,0,0,0,.389,2.21,29.759,29.759,0,0,1-16.286,4.856A30.028,30.028,0,1,1,68.85,30.44,19.425,19.425,0,0,0,62.5,35.61,9.507,9.507,0,0,0,56.524,44.446Zm3.533,19.144a3.536,3.536,0,0,1,3.533-3.533v5.3a14.214,14.214,0,0,0,.122,1.766h-.122A3.536,3.536,0,0,1,60.057,63.589ZM3.533,40.627A37.077,37.077,0,0,1,75.613,28.384a19.32,19.32,0,0,0-3.485.74,33.55,33.55,0,1,0-31.5,45.064A33.248,33.248,0,0,0,58.82,68.769a7.008,7.008,0,0,0,3.71,1.778,37.077,37.077,0,0,1-59-29.921ZM67.122,65.356V55.511a2.52,2.52,0,0,1,3.647-2.254l3.923,1.961a12.414,12.414,0,0,0,5.53,1.3h6.329a1.77,1.77,0,0,1,1.766,1.766v7.065a10.6,10.6,0,0,1-21.2,0Zm10.6,14.131a14.034,14.034,0,0,0,5.3-1.04v2.075l-5.3,5.3-5.3-5.3V78.447A14.034,14.034,0,0,0,77.72,79.487Zm-7.578,3.752,4.933,4.933-5.218,4.174-2.382-8.337ZM49.458,95.851a8.873,8.873,0,0,1,6.383-8.486l8.238-2.375,3.839,13.433L71.7,95.4l2.231,2.231-2.784,8.355H60.057V97.151H56.524v8.832H49.458Zm56.524,10.132H98.917V97.151H95.384v8.832H84.293l-2.786-8.355L83.739,95.4l3.781,3.026,3.839-13.433L99.6,87.365a8.872,8.872,0,0,1,6.386,8.486Zm0,0"/>
  <path id="Trazado_102802" data-name="Trazado 102802" d="M131.21,85.522V64h-3.533V85.522a5.292,5.292,0,0,0-3.533,4.974,5.237,5.237,0,0,0,.613,2.422L113.984,105.23l2.658,2.327,10.683-12.209a5.287,5.287,0,1,0,3.885-9.826Zm-1.766,6.74A1.766,1.766,0,1,1,131.21,90.5,1.77,1.77,0,0,1,129.444,92.262Zm0,0" transform="translate(-88.817 -49.869)"/>
  <path id="Trazado_102803" data-name="Trazado 102803" d="M3.261,272.3,0,267.129V284.1H3.533v-5.358a47.427,47.427,0,0,0,37.094,17.722v-3.533A43.967,43.967,0,0,1,3.261,272.3Zm0,0" transform="translate(0 -208.148)"/>
  <path id="Trazado_102804" data-name="Trazado 102804" d="M224,176h3.533v3.533H224Zm0,0" transform="translate(-174.542 -137.14)"/>
  <path id="Trazado_102805" data-name="Trazado 102805" d="M128,176h3.533v3.533H128Zm0,0" transform="translate(-99.738 -137.14)"/>
</svg>
