<svg id="Grupo_54754" data-name="Grupo 54754" xmlns="http://www.w3.org/2000/svg" xmlns:xlink="http://www.w3.org/1999/xlink" width="131.991" height="132" viewBox="0 0 131.991 132">
  <defs>
    <clipPath id="clip-path">
      <rect id="Rectángulo_5174" data-name="Rectángulo 5174" width="131.991" height="132" fill="none"/>
    </clipPath>
  </defs>
  <g id="Grupo_54753" data-name="Grupo 54753" clip-path="url(#clip-path)">
    <path id="Trazado_104168" data-name="Trazado 104168" d="M92.807,132H39.186c-.814-.66-1.588-1.347-1.147-2.56.433-1.19,1.407-1.336,2.511-1.327,3.222.027,6.445-.029,9.666.033.921.018,1.119-.247,1.114-1.135q-.061-9.538,0-19.075c.009-1.117-.2-1.485-1.425-1.48-13.619.051-27.238.035-40.857.03C3.543,106.485,0,102.971,0,97.5Q0,58.513,0,19.525c0-5.42,3.518-8.951,8.933-8.965,5.456-.013,10.912.007,16.368-.012,1.021,0,2.347.443,2.982-.189s.174-1.958.191-2.978c.08-4.545,2.915-7.362,7.462-7.363Q62.683.014,89.427,0a3.855,3.855,0,0,1,2.586.9c3.037,2.459,6.106,4.877,9.159,7.315a7.714,7.714,0,0,1,1.839,1.588,1.639,1.639,0,0,0,1.688.759q8.957-.018,17.915-.006c4.971,0,7.531,1.848,9.176,6.6.019.056.133.08.2.119v82.752c-.343.048-.319.369-.4.585a8.411,8.411,0,0,1-8.574,5.869c-4.162.006-8.324-.023-12.485.016a2.177,2.177,0,0,1-2.518-1.828c.332-1.584.859-2.048,2.425-2.054,4.38-.015,8.761.021,13.141-.035a4.466,4.466,0,0,0,4.519-4.5c.045-1.889-.014-3.779.024-5.668.014-.667-.178-.908-.867-.881-1.2.047-2.4,0-3.607,0H5.633a7.342,7.342,0,0,1-.9-.006c-.679-.085-.892.188-.874.865.043,1.631.012,3.264.014,4.9,0,3.568,1.734,5.322,5.263,5.324q6.184,0,12.368,0H100.22c1.959,0,2.483.406,2.737,2.1-.246,1.345-1.116,1.783-2.4,1.779-6.263-.022-12.525,0-18.787-.024-.759,0-1.112.077-1.106,1q.069,9.843,0,19.688c0,.821.235.985,1.007.975,3.259-.044,6.52,0,9.779-.028,1.1-.009,2.071.143,2.5,1.331.44,1.213-.34,1.894-1.146,2.556M123.23,14.475c-6.1-.016-12.2,0-18.3-.078-1.186-.016-1.452.308-1.45,1.464q.053,35.186.027,70.372a4.955,4.955,0,0,1,0,.644c-.08.608.141.808.778.8,6.915-.038,13.831-.044,20.747-.06.728.016,1.46-.01,2.183.059s.927-.18.927-.913q-.029-33.85-.024-67.7a4.452,4.452,0,0,0-4.886-4.591M96.411,87.626c.514.015,1.028.042,1.542.044,1.7.006,1.7,0,1.7-1.7V15.9c0-3.138,0-3.138-3.242-2.94-1.329-.015-2.658-.027-3.987-.046a3.957,3.957,0,0,1-4.158-3.974,29.366,29.366,0,0,1,.007-3.6c.086-1.125-.2-1.492-1.428-1.488q-25.17.071-50.34.032c-3.2,0-4.14.934-4.141,4.127q0,12.94,0,25.879c0,1.78-.279,2.148-1.933,2.709-1.659-.558-1.934-.923-1.937-2.707-.007-6.141-.019-12.282.017-18.423,0-.839-.215-1.068-1.059-1.062-6.227.036-12.454.011-18.681.024a4.536,4.536,0,0,0-4.89,4.9q-.008,33.626-.025,67.252c0,.931.268,1.1,1.14,1.1,7.386-.037,14.773-.054,22.159.013,1.188.011,1.363-.35,1.36-1.42q-.054-20.936-.022-41.871c0-1.941.256-2.3,1.932-2.827,1.683.526,1.939.885,1.939,2.822,0,13.912.025,27.823-.036,41.734-.006,1.353.389,1.56,1.622,1.558Q64.47,87.636,95,87.666c.471,0,.943-.027,1.414-.04M66,128.127v-.014c3.179,0,6.36-.059,9.537.031,1.134.032,1.306-.346,1.3-1.366-.05-5.757-.024-11.514-.024-17.272,0-3.019,0-2.984-3.077-3.037-.859-.015-1.073.225-1.059,1.059.05,2.878.044,5.758.012,8.636a6.689,6.689,0,1,1-13.375-.059c-.021-2.191,0-4.382,0-6.574,0-3.115,0-3.082-3.161-3.072-.815,0-.991.237-.987,1.014q.045,9.8,0,19.592c0,.813.17,1.1,1.045,1.083,3.265-.055,6.53-.022,9.8-.022m2.829-16.3c0-1.46-.055-2.924.021-4.38.043-.838-.256-1.01-1.018-.973-1.243.061-2.492.055-3.736,0-.711-.03-.955.163-.943.912.043,2.877,0,5.756.024,8.634a2.83,2.83,0,1,0,5.645.058c.03-1.417.006-2.835.007-4.252M92.258,6.068a9.1,9.1,0,0,0-.13,2.528c0,.414.312.45.629.45H96L92.258,6.068" transform="translate(0 0)" fill="#030303"/>
    <path id="Trazado_104169" data-name="Trazado 104169" d="M88.3,43.933c1.654-.562,1.932-.929,1.933-2.709q.009-12.939,0-25.879c0-3.192.94-4.127,4.141-4.127q25.17,0,50.34-.032c1.226,0,1.514.364,1.428,1.488a29.232,29.232,0,0,0-.007,3.6,3.956,3.956,0,0,0,4.158,3.974c1.329.019,2.658.031,3.988.046q0,37.331,0,74.661c-.471.014-.942.04-1.414.04q-30.527,0-61.054.03c-1.233,0-1.628-.2-1.622-1.558.061-13.911.039-27.822.035-41.734,0-1.938-.257-2.3-1.939-2.822q0-2.491.005-4.981m44.56,17.917c4.932,0,9.865.013,14.8-.009a1.943,1.943,0,0,0,2.155-1.891,2,2,0,0,0-2.106-1.961c-.256-.018-.514-.008-.772-.008q-14.089,0-28.178,0a7.53,7.53,0,0,0-1.4.109,1.756,1.756,0,0,0-1.416,1.489,1.824,1.824,0,0,0,.789,1.906,2.644,2.644,0,0,0,1.725.362q7.205,0,14.411,0m-.014,23.72q7.012,0,14.025,0a7.833,7.833,0,0,0,1.409-.083,1.888,1.888,0,0,0,.073-3.684,5.681,5.681,0,0,0-1.275-.1q-14.218-.008-28.436,0a5.625,5.625,0,0,0-1.276.1,1.885,1.885,0,0,0,.048,3.679,7.043,7.043,0,0,0,1.408.089q7.013.009,14.025,0m-28.562-45.4c-1.117,0-2.234-.03-3.349.007a2.783,2.783,0,0,0-3.007,2.973q-.079,3.348,0,6.7a2.757,2.757,0,0,0,2.975,3q3.347.09,6.7,0a2.735,2.735,0,0,0,2.993-2.968q.081-3.347,0-6.7c-.044-1.964-1.1-2.96-3.09-3.009-1.073-.027-2.147,0-3.22,0m-.113,46.349v-.006c1.246,0,2.493.037,3.737-.01a2.519,2.519,0,0,0,2.626-2.472c.1-2.529.1-5.067.01-7.6a2.571,2.571,0,0,0-2.7-2.552c-2.362-.05-4.725-.045-7.087,0A2.644,2.644,0,0,0,97.956,76.5c-.1,2.444-.1,4.9-.008,7.343a2.656,2.656,0,0,0,2.869,2.669c1.116.028,2.234.005,3.35.005m.086-29.461v-.006h-3.221c-.086,0-.172,0-.258,0a2.666,2.666,0,0,0-2.831,2.709c-.081,2.4-.079,4.811,0,7.213a2.656,2.656,0,0,0,2.719,2.71q3.605.1,7.214,0a2.589,2.589,0,0,0,2.668-2.6c.086-2.487.088-4.982,0-7.469a2.544,2.544,0,0,0-2.685-2.551c-1.2-.041-2.4-.008-3.607-.008m28.614-9.029q-7.271,0-14.543,0c-1.522,0-2.4.7-2.431,1.866-.031,1.231.885,2,2.458,2q14.478.009,28.957,0c1.577,0,2.51-.75,2.5-1.962s-.894-1.9-2.528-1.9q-7.207-.009-14.414,0M132.9,74.85c-4.891,0-9.782.013-14.673-.01a2.042,2.042,0,0,0-2.272,1.47c-.39,1.327.668,2.4,2.363,2.4q14.48.011,28.959,0c1.593,0,2.523-.72,2.536-1.928.013-1.225-.884-1.934-2.5-1.937q-7.208-.009-14.415,0M132.844,45q7.272,0,14.544,0c1.521,0,2.393-.693,2.42-1.88.028-1.218-.905-1.972-2.475-1.984-1.2-.009-2.4,0-3.6,0H119.017c-.343,0-.687-.014-1.029,0a1.981,1.981,0,0,0-2.095,1.97,1.941,1.941,0,0,0,2.149,1.887c4.934.015,9.868.006,14.8.007m.059,23.707q7.273,0,14.545,0c1.488,0,2.381-.749,2.366-1.94-.015-1.175-.921-1.921-2.411-1.922q-14.545-.011-29.09,0c-1.508,0-2.393.719-2.422,1.9-.029,1.223.887,1.961,2.467,1.962q7.273.006,14.545,0M100.058,28.571c0,1.459-.016,2.919,0,4.378.019,1.389.366,1.714,1.785,1.726.944.008,1.89.018,2.833-.014a3.691,3.691,0,0,0,3.387-2.175,3.578,3.578,0,0,0-.392-3.993,1.368,1.368,0,0,1-.255-1.467,3.4,3.4,0,0,0-3.074-4.479c-.9-.06-1.8-.008-2.7-.033a1.352,1.352,0,0,0-1.584,1.548c.006,1.5,0,3,0,4.508m14.65,2.77.3-.08c.843.954,1.681,1.913,2.531,2.86a1.227,1.227,0,0,0,1.911.213,1.25,1.25,0,0,0,0-1.93c-.7-.807-1.4-1.612-2.141-2.469.227-.143.394-.25.562-.355a3.669,3.669,0,0,0,1.892-4.228,3.876,3.876,0,0,0-3.709-2.82c-.813-.03-1.629,0-2.443-.012a1.289,1.289,0,0,0-1.467,1.406q-.035,4.693,0,9.386a1.2,1.2,0,0,0,1.247,1.345c.906.009,1.281-.579,1.307-1.418.021-.632,0-1.266,0-1.9m16.729-2.769c0,1.5-.006,3.007,0,4.51,0,.806.268,1.517,1.174,1.564,1.413.073,2.835.06,4.25,0a1.163,1.163,0,0,0,1.157-1.291,1.2,1.2,0,0,0-1.106-1.224,9.176,9.176,0,0,0-1.672-.029c-.715.027-1.283.1-1.268-.994.013-1,.326-1.288,1.254-1.179a5.157,5.157,0,0,0,1.412-.038,1.258,1.258,0,0,0-.1-2.5A10.9,10.9,0,0,0,135,27.369c-.685.047-.986-.143-1.006-.916-.024-.949.162-1.478,1.25-1.3a8.749,8.749,0,0,0,1.286.011c.852.01,1.471-.358,1.486-1.239.016-.949-.629-1.339-1.531-1.341-1.117,0-2.234.02-3.35-.006-1.212-.028-1.708.587-1.7,1.743.013,1.417,0,2.834,0,4.252m11.273.022h0c0,1.588-.03,3.175.013,4.762a1.279,1.279,0,1,0,2.556-.021c.01-.257,0-.515.006-.772.009-.814-.243-1.767.1-2.408.409-.772,1.464-.216,2.228-.339a1.255,1.255,0,0,0,1.23-1.241,1.215,1.215,0,0,0-1.161-1.305c-.547-.076-1.113-.015-1.67-.037-.273-.011-.577.093-.721-.33-.369-1.079.087-1.748,1.244-1.753.386,0,.772,0,1.158,0,.851-.007,1.435-.376,1.437-1.277s-.584-1.283-1.428-1.295c-1.115-.015-2.231.007-3.346-.008a1.433,1.433,0,0,0-1.647,1.651c.009,1.458,0,2.917,0,4.376m-15.745.057c0-1.5-.01-3,0-4.5.009-.89-.307-1.565-1.269-1.581s-1.316.638-1.315,1.534q0,4.5,0,8.992c0,.881.288,1.565,1.271,1.572,1.065.007,1.326-.727,1.315-1.655-.017-1.456,0-2.912,0-4.367" transform="translate(-57.873 -7.332)" fill="#fff3bf"/>
    <path id="Trazado_104170" data-name="Trazado 104170" d="M37.744,64.012q0,2.49-.005,4.981c-1.676.524-1.932.886-1.932,2.827q0,20.936.022,41.871c0,1.07-.172,1.431-1.361,1.42-7.386-.067-14.773-.049-22.159-.013-.873,0-1.142-.169-1.141-1.1q.044-33.626.026-67.252a4.536,4.536,0,0,1,4.89-4.9c6.227-.013,12.454.013,18.681-.024.844,0,1.064.223,1.059,1.062-.036,6.141-.023,12.282-.017,18.423,0,1.784.278,2.149,1.936,2.707" transform="translate(-7.321 -27.412)" fill="#b1f9ff"/>
    <path id="Trazado_104171" data-name="Trazado 104171" d="M321.918,115.012c-6.915.015-13.831.022-20.747.06-.637,0-.858-.2-.778-.8a4.956,4.956,0,0,0,0-.644q0-35.186-.027-70.372c0-1.156.264-1.479,1.45-1.464,6.1.081,12.2.062,18.3.079,1.57,2.054,1.816,4.432,1.814,6.919q-.032,33.113-.013,66.226" transform="translate(-196.888 -27.391)" fill="#b1f9ff"/>
    <path id="Trazado_104172" data-name="Trazado 104172" d="M115.348,278.8a30.747,30.747,0,0,0-5.053.045c-.255-1.7-.778-2.1-2.737-2.1H28.841q-6.184,0-12.368,0c-3.529,0-5.26-1.757-5.263-5.325,0-1.632.029-3.265-.014-4.9-.018-.677.195-.95.874-.865a7.268,7.268,0,0,0,.9.006H130.983c1.2,0,2.406.048,3.607,0,.689-.027.881.214.867.881-.039,1.889.021,3.78-.024,5.668a4.466,4.466,0,0,1-4.519,4.5c-4.379.057-8.76.02-13.141.035-1.566.005-2.093.47-2.425,2.054" transform="translate(-7.338 -174.121)" fill="#8c9ba7"/>
    <path id="Trazado_104173" data-name="Trazado 104173" d="M170.937,330.679c-3.265,0-6.531-.033-9.8.022-.875.015-1.049-.271-1.045-1.083q.047-9.8,0-19.592c0-.776.172-1.011.987-1.013,3.161-.009,3.161-.043,3.161,3.072,0,2.191-.017,4.383,0,6.574a6.689,6.689,0,1,0,13.375.059c.032-2.878.038-5.758-.012-8.636-.014-.834.2-1.074,1.059-1.06,3.076.053,3.077.018,3.077,3.037,0,5.757-.026,11.515.024,17.272.009,1.02-.163,1.4-1.3,1.366-3.177-.09-6.358-.031-9.537-.031Z" transform="translate(-104.94 -202.552)" fill="#c7d0d4"/>
    <path id="Trazado_104174" data-name="Trazado 104174" d="M279.836,112.156q0-37.331,0-74.661c3.242-.2,3.242-.2,3.242,2.94v70.07c0,1.7,0,1.7-1.7,1.7-.514,0-1.028-.029-1.542-.044" transform="translate(-183.425 -24.53)" fill="#fff3bf"/>
    <path id="Trazado_104175" data-name="Trazado 104175" d="M359.49,115.156q0-33.113.013-66.226c0-2.487-.244-4.865-1.814-6.919a4.452,4.452,0,0,1,4.886,4.591q.023,33.851.024,67.7c0,.733-.2.981-.927.912s-1.455-.043-2.183-.059" transform="translate(-234.459 -27.535)" fill="#b1f9ff"/>
    <path id="Trazado_104176" data-name="Trazado 104176" d="M188.973,314.392c0,1.417.024,2.835-.007,4.252a2.83,2.83,0,1,1-5.645-.058c-.024-2.878.019-5.756-.024-8.633-.011-.75.233-.943.944-.912,1.243.053,2.493.059,3.735,0,.763-.038,1.062.135,1.019.973-.076,1.457-.021,2.92-.022,4.38" transform="translate(-120.148 -202.567)" fill="#e2e9ed"/>
    <path id="Trazado_104177" data-name="Trazado 104177" d="M267.494,17.613l3.746,2.978h-3.247c-.317,0-.632-.036-.629-.45a9.1,9.1,0,0,1,.13-2.528" transform="translate(-175.235 -11.545)" fill="#ffe881"/>
    <path id="Trazado_104178" data-name="Trazado 104178" d="M185.362,150.876q-7.205,0-14.411,0a2.643,2.643,0,0,1-1.725-.362,1.823,1.823,0,0,1-.789-1.906,1.755,1.755,0,0,1,1.416-1.489,7.528,7.528,0,0,1,1.4-.109q14.089-.009,28.178,0c.257,0,.516-.01.772.008a2,2,0,0,1,2.106,1.961,1.943,1.943,0,0,1-2.155,1.891c-4.932.023-9.865.009-14.8.01" transform="translate(-110.38 -96.358)" fill="#030303"/>
    <path id="Trazado_104179" data-name="Trazado 104179" d="M185.389,219.725q-7.013,0-14.025,0a7.1,7.1,0,0,1-1.408-.089,1.885,1.885,0,0,1-.048-3.68,5.622,5.622,0,0,1,1.276-.1q14.217-.007,28.435,0a5.707,5.707,0,0,1,1.276.1,1.888,1.888,0,0,1-.074,3.684,7.8,7.8,0,0,1-1.409.083q-7.012.008-14.025,0" transform="translate(-110.421 -141.488)" fill="#030303"/>
    <path id="Trazado_104180" data-name="Trazado 104180" d="M122.532,95.283c1.074,0,2.147-.022,3.22,0,1.989.049,3.046,1.045,3.09,3.009q.075,3.348,0,6.7a2.734,2.734,0,0,1-2.994,2.968q-3.347.083-6.7,0a2.757,2.757,0,0,1-2.975-3q-.073-3.348,0-6.7a2.784,2.784,0,0,1,3.007-2.973c1.115-.036,2.233-.007,3.349-.007m-.127,8.849c2.573-.1,2.573-.1,2.573-2.688,0-2.215,0-2.215-2.184-2.282-2.787-.085-2.787-.085-2.787,2.653,0,2.406,0,2.406,2.4,2.317" transform="translate(-76.126 -62.449)" fill="#030303"/>
    <path id="Trazado_104181" data-name="Trazado 104181" d="M122.417,205.725c-1.117,0-2.235.022-3.351-.005a2.656,2.656,0,0,1-2.869-2.669c-.087-2.445-.087-4.9.009-7.343A2.644,2.644,0,0,1,119,193.085c2.362-.042,4.726-.046,7.087,0a2.571,2.571,0,0,1,2.7,2.552c.09,2.529.089,5.067-.01,7.6a2.519,2.519,0,0,1-2.626,2.472c-1.244.047-2.491.009-3.737.009v.007m.146-8.781C120,196.871,120,196.871,120,199.31c0,2.619,0,2.619,2.642,2.534,2.329-.075,2.329-.075,2.329-2.364,0-2.466,0-2.466-2.413-2.535" transform="translate(-76.123 -126.543)" fill="#030303"/>
    <path id="Trazado_104182" data-name="Trazado 104182" d="M122.5,144.3c1.2,0,2.406-.033,3.607.008a2.544,2.544,0,0,1,2.685,2.551c.091,2.487.089,4.982,0,7.469a2.589,2.589,0,0,1-2.669,2.6q-3.6.1-7.214,0a2.655,2.655,0,0,1-2.718-2.71c-.083-2.4-.085-4.811,0-7.213a2.667,2.667,0,0,1,2.832-2.709c.086,0,.171,0,.257,0H122.5v.006m-.019,3.863c-2.478-.089-2.478-.089-2.478,2.33,0,2.653,0,2.653,2.72,2.58,2.25-.061,2.25-.061,2.25-2.306,0-2.513,0-2.513-2.492-2.6" transform="translate(-76.124 -94.578)" fill="#030303"/>
    <path id="Trazado_104183" data-name="Trazado 104183" d="M185.383,118.112q7.207,0,14.414,0c1.633,0,2.518.681,2.528,1.9s-.923,1.961-2.5,1.962q-14.479.008-28.957,0c-1.573,0-2.49-.766-2.459-2,.03-1.171.909-1.863,2.431-1.866q7.272-.012,14.543,0" transform="translate(-110.389 -77.419)" fill="#030303"/>
    <path id="Trazado_104184" data-name="Trazado 104184" d="M185.381,195.961q7.207,0,14.415,0c1.614,0,2.512.711,2.5,1.937-.013,1.208-.944,1.928-2.536,1.928q-14.479.006-28.959,0c-1.7,0-2.753-1.078-2.363-2.4a2.042,2.042,0,0,1,2.272-1.47c4.891.023,9.782.01,14.673.01" transform="translate(-110.354 -128.443)" fill="#030303"/>
    <path id="Trazado_104185" data-name="Trazado 104185" d="M185.358,101.963c-4.934,0-9.868.009-14.8-.007a1.941,1.941,0,0,1-2.15-1.887A1.981,1.981,0,0,1,170.5,98.1c.342-.019.686,0,1.029,0h24.713c1.2,0,2.4-.008,3.6,0,1.57.012,2.5.767,2.476,1.984-.027,1.187-.9,1.879-2.421,1.88q-7.272.009-14.544,0" transform="translate(-110.388 -64.296)" fill="#030303"/>
    <path id="Trazado_104186" data-name="Trazado 104186" d="M185.415,170.782q-7.272,0-14.545,0c-1.58,0-2.5-.739-2.467-1.962.028-1.183.914-1.9,2.422-1.9q14.545-.01,29.09,0c1.49,0,2.4.747,2.411,1.922.015,1.191-.877,1.938-2.366,1.94q-7.272.01-14.545,0" transform="translate(-110.385 -109.408)" fill="#030303"/>
    <path id="Trazado_104187" data-name="Trazado 104187" d="M122.435,50.123c0-1.5.006-3.005,0-4.508a1.352,1.352,0,0,1,1.584-1.548c.9.025,1.805-.027,2.7.033a3.4,3.4,0,0,1,3.074,4.479,1.368,1.368,0,0,0,.255,1.467,3.578,3.578,0,0,1,.393,3.993,3.691,3.691,0,0,1-3.387,2.175c-.944.031-1.889.022-2.833.014-1.419-.012-1.766-.337-1.786-1.726-.02-1.459,0-2.919,0-4.378m3.793,3.518c1.042.033,2.019-.04,1.988-1.3-.037-1.462-1.215-1.191-2.18-1.293-1.479-.157-.905.9-1.026,1.576-.211,1.175.548,1.091,1.217,1.017m-.33-5.163c.769.045,1.468-.072,1.48-.908.012-.857-.707-.88-1.39-.937-.8-.068-1.014.2-1,.995s.288.993.913.851" transform="translate(-80.25 -28.884)" fill="#030303"/>
    <path id="Trazado_104188" data-name="Trazado 104188" d="M160.064,52.9c0,.633.017,1.266,0,1.9-.027.838-.4,1.427-1.307,1.418A1.2,1.2,0,0,1,157.5,54.87q-.035-4.693,0-9.386a1.288,1.288,0,0,1,1.467-1.406c.814.008,1.629-.018,2.443.012a3.877,3.877,0,0,1,3.709,2.82,3.67,3.67,0,0,1-1.892,4.228c-.168.1-.336.212-.562.355.743.856,1.443,1.662,2.142,2.468a1.251,1.251,0,0,1,0,1.93,1.227,1.227,0,0,1-1.911-.212c-.851-.947-1.688-1.906-2.531-2.86Zm.848-6.24c-.306-.006-1.021-.147-.8.762.136.561-.667,1.59.717,1.622.885.02,1.754-.107,1.808-1.166.045-.884-.647-1.226-1.724-1.219" transform="translate(-103.23 -28.891)" fill="#030303"/>
    <path id="Trazado_104189" data-name="Trazado 104189" d="M213.519,50.243c0-1.417.01-2.835,0-4.252-.011-1.155.485-1.77,1.7-1.742,1.116.026,2.233,0,3.35.006.9,0,1.548.391,1.531,1.341-.015.881-.634,1.249-1.486,1.239a8.748,8.748,0,0,1-1.286-.011c-1.088-.177-1.274.352-1.25,1.3.02.774.321.963,1.006.916a10.9,10.9,0,0,1,1.544.021,1.258,1.258,0,0,1,.1,2.5,5.171,5.171,0,0,1-1.412.038c-.927-.109-1.241.178-1.254,1.179-.014,1.091.554,1.02,1.268.994A9.175,9.175,0,0,1,219,53.8a1.2,1.2,0,0,1,1.106,1.224,1.163,1.163,0,0,1-1.157,1.291c-1.415.058-2.836.071-4.25,0-.906-.047-1.169-.758-1.174-1.564-.008-1.5,0-3.007,0-4.51" transform="translate(-139.956 -29.003)" fill="#030303"/>
    <path id="Trazado_104190" data-name="Trazado 104190" d="M246.237,50.246c0-1.459.006-2.917,0-4.376a1.433,1.433,0,0,1,1.646-1.651c1.115.014,2.231-.007,3.346.008.844.011,1.429.4,1.428,1.295s-.585,1.27-1.436,1.277c-.386,0-.772,0-1.158,0-1.157,0-1.613.674-1.245,1.753.144.422.448.319.722.33.557.022,1.122-.04,1.67.037a1.215,1.215,0,0,1,1.161,1.305,1.256,1.256,0,0,1-1.23,1.241c-.763.122-1.819-.434-2.228.339-.339.64-.086,1.593-.1,2.407,0,.258,0,.515-.006.772a1.278,1.278,0,1,1-2.556.021c-.043-1.586-.013-3.174-.013-4.762Z" transform="translate(-161.401 -28.985)" fill="#030303"/>
    <path id="Trazado_104191" data-name="Trazado 104191" d="M195.634,50.315c0,1.456-.013,2.912,0,4.367.011.928-.25,1.662-1.315,1.655-.983-.007-1.273-.691-1.271-1.572q.009-4.5,0-8.992c0-.9.356-1.551,1.315-1.534s1.277.691,1.269,1.581c-.014,1.5,0,3,0,4.5" transform="translate(-126.543 -28.997)" fill="#030303"/>
    <path id="Trazado_104192" data-name="Trazado 104192" d="M129.77,111.489c-2.4.089-2.4.089-2.4-2.317,0-2.738,0-2.738,2.787-2.653,2.184.067,2.184.067,2.184,2.282,0,2.593,0,2.593-2.573,2.688" transform="translate(-83.49 -69.806)" fill="#26ccda"/>
    <path id="Trazado_104193" data-name="Trazado 104193" d="M129.93,204.311c2.413.069,2.413.069,2.413,2.535,0,2.289,0,2.289-2.329,2.364-2.642.085-2.642.085-2.642-2.534,0-2.439,0-2.439,2.558-2.366" transform="translate(-83.49 -133.91)" fill="#26ccda"/>
    <path id="Trazado_104194" data-name="Trazado 104194" d="M129.851,155.486c2.492.09,2.492.09,2.492,2.6,0,2.246,0,2.246-2.25,2.306-2.72.073-2.72.073-2.72-2.58,0-2.419,0-2.419,2.478-2.33" transform="translate(-83.491 -101.901)" fill="#26ccda"/>
    <path id="Trazado_104195" data-name="Trazado 104195" d="M131.074,66.894c-.669.073-1.428.157-1.217-1.018.121-.671-.453-1.732,1.025-1.576.964.1,2.143-.169,2.179,1.293.032,1.26-.946,1.334-1.988,1.3" transform="translate(-85.096 -42.138)" fill="#e2e9ed"/>
    <path id="Trazado_104196" data-name="Trazado 104196" d="M130.763,53.341c-.625.143-.9-.073-.913-.851s.2-1.063,1-.995c.683.058,1.4.081,1.39.937-.012.836-.712.953-1.48.908" transform="translate(-85.114 -33.748)" fill="#e2e9ed"/>
    <path id="Trazado_104197" data-name="Trazado 104197" d="M165.7,51.553c1.077-.007,1.769.334,1.724,1.219-.054,1.059-.922,1.186-1.808,1.165-1.384-.032-.581-1.062-.717-1.622-.221-.908.495-.768.8-.762" transform="translate(-108.014 -33.785)" fill="#e2e9ed"/>
  </g>
</svg>
