<svg xmlns="http://www.w3.org/2000/svg" width="83.901" height="100" viewBox="0 0 83.901 100">
  <g id="briefing" transform="translate(-0.5)">
    <path id="Trazado_103881" data-name="Trazado 103881" d="M70.819,136.859H11.332a3.32,3.32,0,0,1-3.32-3.32V50.949a3.32,3.32,0,0,1,3.32-3.32H70.819a3.32,3.32,0,0,1,3.32,3.32v82.59A3.32,3.32,0,0,1,70.819,136.859Zm0,0" transform="translate(-6.045 -38.326)" fill="#f6f6f6"/>
    <path id="Trazado_103882" data-name="Trazado 103882" d="M70.785,47.629H67.272v78.844a3.354,3.354,0,0,1-3.355,3.354H8.012v3.679a3.354,3.354,0,0,0,3.354,3.354H70.785a3.354,3.354,0,0,0,3.355-3.354V50.984A3.354,3.354,0,0,0,70.785,47.629Zm0,0" transform="translate(-6.045 -38.326)" fill="#e8e8e8"/>
    <path id="Trazado_103883" data-name="Trazado 103883" d="M134.4,21.124H112.055a1.953,1.953,0,0,1-1.953-1.953V12.2a4.688,4.688,0,0,1,4.687-4.687h16.874A4.688,4.688,0,0,1,136.35,12.2v6.972A1.953,1.953,0,0,1,134.4,21.124Zm0,0" transform="translate(-88.195 -6.045)" fill="#ffa726"/>
    <path id="Trazado_103884" data-name="Trazado 103884" d="M131.615,7.512h-1.208a4.752,4.752,0,0,1,.151,1.191v6.9a1.973,1.973,0,0,1-1.973,1.973H110.1v1.572a1.973,1.973,0,0,0,1.973,1.973h22.3a1.973,1.973,0,0,0,1.973-1.973v-6.9A4.736,4.736,0,0,0,131.615,7.512Zm0,0" transform="translate(-88.195 -6.045)" fill="#ffa726" style="mix-blend-mode: multiply;isolation: isolate"/>
    <path id="Trazado_103885" data-name="Trazado 103885" d="M266.592,94.489A17.169,17.169,0,1,1,249.423,77.32,17.169,17.169,0,0,1,266.592,94.489Zm0,0" transform="translate(-186.489 -62.219)" fill="#26ccda"/>
    <path id="Trazado_103886" data-name="Trazado 103886" d="M274.646,83.473a17.173,17.173,0,0,1-18.9,27.648,17.17,17.17,0,1,0,18.9-27.648Zm0,0" transform="translate(-205.39 -67.169)" fill="#26ccda" style="mix-blend-mode: multiply;isolation: isolate"/>
    <path id="Trazado_103887" data-name="Trazado 103887" d="M267.878,104.012a3.355,3.355,0,0,1-2.372-.982l-8.214-8.214a3.354,3.354,0,0,1,4.744-4.744l5.842,5.842,15.177-15.177a3.354,3.354,0,1,1,4.743,4.744L270.25,103.03A3.357,3.357,0,0,1,267.878,104.012Zm0,0" transform="translate(-205.847 -64.178)" fill="#f57c00"/>
    <path id="Trazado_103888" data-name="Trazado 103888" d="M316.3,81.293a3.338,3.338,0,0,0-1.43-.848,3.352,3.352,0,0,1-.848,3.313l-17.549,17.549a3.353,3.353,0,0,1-4.743,0l2.278,2.279a3.356,3.356,0,0,0,4.744,0L316.3,86.037A3.354,3.354,0,0,0,316.3,81.293Zm0,0" transform="translate(-234.35 -64.733)" fill="#f57c00" style="mix-blend-mode: multiply;isolation: isolate"/>
    <g id="Grupo_56523" data-name="Grupo 56523" transform="translate(8.414 21.682)">
      <path id="Trazado_103889" data-name="Trazado 103889" d="M125.245,191.481H107.369a1.467,1.467,0,0,1,0-2.934h17.876a1.467,1.467,0,0,1,0,2.934Zm0,0" transform="translate(-93.23 -173.403)" fill="#0882bf"/>
      <path id="Trazado_103890" data-name="Trazado 103890" d="M52.358,113.946H42.487a1.467,1.467,0,1,1,0-2.934h9.872a1.467,1.467,0,1,1,0,2.934Zm0,0" transform="translate(-41.02 -111.012)" fill="#0882bf"/>
      <path id="Trazado_103891" data-name="Trazado 103891" d="M125.245,226.328H107.369a1.467,1.467,0,0,1,0-2.934h17.876a1.467,1.467,0,1,1,0,2.934Zm0,0" transform="translate(-93.23 -201.445)" fill="#0882bf"/>
      <path id="Trazado_103892" data-name="Trazado 103892" d="M131.42,282.583H107.369a1.467,1.467,0,0,1,0-2.934H131.42a1.467,1.467,0,1,1,0,2.934Zm0,0" transform="translate(-93.23 -246.712)" fill="#0882bf"/>
      <path id="Trazado_103893" data-name="Trazado 103893" d="M119.395,317.43H107.369a1.467,1.467,0,0,1,0-2.934h12.026a1.467,1.467,0,0,1,0,2.934Zm0,0" transform="translate(-93.23 -274.753)" fill="#0882bf"/>
      <path id="Trazado_103894" data-name="Trazado 103894" d="M125.245,373.782H107.369a1.467,1.467,0,0,1,0-2.934h17.876a1.467,1.467,0,0,1,0,2.934Zm0,0" transform="translate(-93.23 -320.098)" fill="#0882bf"/>
      <path id="Trazado_103895" data-name="Trazado 103895" d="M131.42,408.629H107.369a1.467,1.467,0,0,1,0-2.934H131.42a1.467,1.467,0,1,1,0,2.934Zm0,0" transform="translate(-93.23 -348.14)" fill="#0882bf"/>
    </g>
    <path id="Trazado_103896" data-name="Trazado 103896" d="M50.562,194.006a4.459,4.459,0,1,1-4.459-4.459A4.458,4.458,0,0,1,50.562,194.006Zm0,0" transform="translate(-33.108 -152.526)" fill="#26ccda"/>
    <path id="Trazado_103897" data-name="Trazado 103897" d="M50.562,286.216a4.459,4.459,0,1,1-4.459-4.459A4.458,4.458,0,0,1,50.562,286.216Zm0,0" transform="translate(-33.108 -226.727)" fill="#26ccda"/>
    <path id="Trazado_103898" data-name="Trazado 103898" d="M50.562,377.412a4.459,4.459,0,1,1-4.459-4.459A4.459,4.459,0,0,1,50.562,377.412Zm0,0" transform="translate(-33.108 -300.111)" fill="#26ccda"/>
    <path id="Trazado_103899" data-name="Trazado 103899" d="M125.245,191.481H107.369a1.467,1.467,0,0,1,0-2.934h17.876a1.467,1.467,0,0,1,0,2.934Zm0,0" transform="translate(-84.816 -151.721)"/>
    <path id="Trazado_103900" data-name="Trazado 103900" d="M52.358,113.946H42.487a1.467,1.467,0,1,1,0-2.934h9.872a1.467,1.467,0,1,1,0,2.934Zm0,0" transform="translate(-32.606 -89.33)"/>
    <path id="Trazado_103901" data-name="Trazado 103901" d="M125.245,226.328H107.369a1.467,1.467,0,0,1,0-2.934h17.876a1.467,1.467,0,1,1,0,2.934Zm0,0" transform="translate(-84.816 -179.763)"/>
    <path id="Trazado_103902" data-name="Trazado 103902" d="M131.42,282.583H107.369a1.467,1.467,0,0,1,0-2.934H131.42a1.467,1.467,0,1,1,0,2.934Zm0,0" transform="translate(-84.816 -225.03)"/>
    <path id="Trazado_103903" data-name="Trazado 103903" d="M119.395,317.43H107.369a1.467,1.467,0,0,1,0-2.934h12.026a1.467,1.467,0,0,1,0,2.934Zm0,0" transform="translate(-84.816 -253.071)"/>
    <path id="Trazado_103904" data-name="Trazado 103904" d="M125.245,373.782H107.369a1.467,1.467,0,0,1,0-2.934h17.876a1.467,1.467,0,0,1,0,2.934Zm0,0" transform="translate(-84.816 -298.416)"/>
    <path id="Trazado_103905" data-name="Trazado 103905" d="M131.42,408.629H107.369a1.467,1.467,0,0,1,0-2.934H131.42a1.467,1.467,0,1,1,0,2.934Zm0,0" transform="translate(-84.816 -326.458)"/>
    <path id="Trazado_103906" data-name="Trazado 103906" d="M40.059,193.887a5.926,5.926,0,1,1,5.926-5.926A5.932,5.932,0,0,1,40.059,193.887Zm0-8.917a2.992,2.992,0,1,0,2.991,2.991A2.995,2.995,0,0,0,40.059,184.969Zm0,0" transform="translate(-27.064 -146.481)"/>
    <path id="Trazado_103907" data-name="Trazado 103907" d="M40.059,286.094a5.926,5.926,0,1,1,5.926-5.926A5.932,5.932,0,0,1,40.059,286.094Zm0-8.917a2.992,2.992,0,1,0,2.991,2.992A3,3,0,0,0,40.059,277.176Zm0,0" transform="translate(-27.064 -220.679)"/>
    <path id="Trazado_103908" data-name="Trazado 103908" d="M40.059,377.293a5.926,5.926,0,1,1,5.926-5.926A5.932,5.932,0,0,1,40.059,377.293Zm0-8.917a2.991,2.991,0,1,0,2.991,2.991A2.995,2.995,0,0,0,40.059,368.376Zm0,0" transform="translate(-27.064 -294.066)"/>
    <path id="Trazado_103909" data-name="Trazado 103909" d="M57.227,24.857a4.822,4.822,0,1,0-6.819,6.818l8.214,8.214a4.821,4.821,0,0,0,6.818,0L82.989,22.34a4.821,4.821,0,1,0-6.818-6.818l-1.935,1.935a18.637,18.637,0,0,0-4.674-2.606V12.657a4.827,4.827,0,0,0-4.821-4.822H49.623V6.161A6.169,6.169,0,0,0,43.461,0H26.6a6.169,6.169,0,0,0-6.161,6.161v6.962a3.427,3.427,0,0,0,3.423,3.423H46.2a3.427,3.427,0,0,0,3.423-3.423V10.77H64.74a1.89,1.89,0,0,1,1.888,1.888v1.351a18.633,18.633,0,1,0,0,36.531v44.64a1.889,1.889,0,0,1-1.888,1.887H5.321a1.889,1.889,0,0,1-1.887-1.887V12.657A1.889,1.889,0,0,1,5.321,10.77h9.753a1.467,1.467,0,0,0,0-2.934H5.321A4.827,4.827,0,0,0,.5,12.657V95.179A4.827,4.827,0,0,0,5.321,100h59.42a4.827,4.827,0,0,0,4.821-4.821V49.691a18.646,18.646,0,0,0,12-16.769,1.467,1.467,0,0,0-2.933-.1,15.624,15.624,0,0,1-10.868,14.4,1.393,1.393,0,0,0-.245.08,15.708,15.708,0,1,1-4.58-30.735,15.675,15.675,0,0,1,9.206,2.984L62.031,29.662ZM46.688,13.123a.489.489,0,0,1-.489.489H23.863a.489.489,0,0,1-.489-.489V6.161A3.23,3.23,0,0,1,26.6,2.934h16.86a3.231,3.231,0,0,1,3.227,3.227ZM78.246,17.6a1.887,1.887,0,0,1,2.669,2.669L63.365,37.815a1.886,1.886,0,0,1-2.669,0L52.482,29.6a1.887,1.887,0,1,1,2.67-2.669l5.842,5.842a1.467,1.467,0,0,0,2.074,0Zm0,0"/>
  </g>
</svg>
