<svg xmlns="http://www.w3.org/2000/svg" width="152.098" height="240.825" viewBox="0 0 152.098 240.825">
  <g id="Grupo_120363" data-name="Grupo 120363" transform="translate(-824.079 -973.686)">
    <path id="Trazado_166815" data-name="Trazado 166815" d="M266.39,749.862a101.111,101.111,0,0,1-34.8-6.137l34.8,26.128,34.8-26.128a101.111,101.111,0,0,1-34.8,6.137" transform="translate(636.375 444.658)" fill="#26ccda"/>
    <path id="Trazado_166816" data-name="Trazado 166816" d="M1626.761,169.393a76.049,76.049,0,1,1-76.049-76.049,76.049,76.049,0,0,1,76.049,76.049" transform="translate(-650.584 880.342)" fill="#b1f9ff"/>
    <circle id="Elipse_4284" data-name="Elipse 4284" cx="11" cy="11" r="11" transform="translate(891.961 1166.174)" fill="#26ccda"/>
    <circle id="Elipse_4285" data-name="Elipse 4285" cx="7" cy="7" r="7" transform="translate(895.961 1170.174)" fill="#b1f9ff"/>
    <path id="Trazado_181412" data-name="Trazado 181412" d="M34.628,8.673H30.691v2.68h4.621V13H28.64V3.047H35.3V4.708H30.691V7.08h3.938ZM38.477,5.6v7.8a2.646,2.646,0,0,1-.649,1.9,2.468,2.468,0,0,1-1.873.68,4.017,4.017,0,0,1-.978-.116V14.306a3.708,3.708,0,0,0,.622.062q.9,0,.9-.95V5.6Zm-2.14-1.914a.973.973,0,0,1,.3-.731,1.286,1.286,0,0,1,1.62,0,.973.973,0,0,1,.3.731.97.97,0,0,1-.3.738,1.267,1.267,0,0,1-1.606,0A.97.97,0,0,1,36.337,3.689Zm7.089,9.447a3.631,3.631,0,0,1-2.649-1,3.548,3.548,0,0,1-1.022-2.659V9.288A4.468,4.468,0,0,1,40.186,7.3a3.161,3.161,0,0,1,1.22-1.354,3.425,3.425,0,0,1,1.8-.475,3.07,3.07,0,0,1,2.389.957,3.889,3.889,0,0,1,.872,2.714v.807h-4.71a1.835,1.835,0,0,0,.578,1.162,1.746,1.746,0,0,0,1.22.438,2.132,2.132,0,0,0,1.784-.827l.971,1.087a2.966,2.966,0,0,1-1.2.981A3.947,3.947,0,0,1,43.426,13.137ZM43.2,7.06a1.234,1.234,0,0,0-.954.4,2.062,2.062,0,0,0-.468,1.14h2.748V8.44a1.471,1.471,0,0,0-.355-1.02A1.274,1.274,0,0,0,43.2,7.06Zm7.465,4.484a1.3,1.3,0,0,0,.889-.3,1.054,1.054,0,0,0,.355-.8h1.853a2.534,2.534,0,0,1-.41,1.377,2.706,2.706,0,0,1-1.1.971,3.455,3.455,0,0,1-1.548.345,3.211,3.211,0,0,1-2.5-1.008,3.99,3.99,0,0,1-.916-2.786v-.13a3.944,3.944,0,0,1,.909-2.728,3.174,3.174,0,0,1,2.5-1.019,3.111,3.111,0,0,1,2.225.79,2.8,2.8,0,0,1,.851,2.1H51.91a1.358,1.358,0,0,0-.355-.938,1.321,1.321,0,0,0-1.945.142A2.916,2.916,0,0,0,49.257,9.2V9.4a2.953,2.953,0,0,0,.349,1.643A1.2,1.2,0,0,0,50.666,11.544Zm8.654.7a2.477,2.477,0,0,1-2.023.889,2.337,2.337,0,0,1-1.815-.684,2.918,2.918,0,0,1-.639-2V5.6h1.976v4.784q0,1.157,1.053,1.157a1.426,1.426,0,0,0,1.381-.7V5.6h1.982V13H59.375Zm6.48-.7a1.3,1.3,0,0,0,.889-.3,1.054,1.054,0,0,0,.355-.8H68.9a2.534,2.534,0,0,1-.41,1.377,2.706,2.706,0,0,1-1.1.971,3.455,3.455,0,0,1-1.548.345,3.211,3.211,0,0,1-2.5-1.008,3.99,3.99,0,0,1-.916-2.786v-.13a3.944,3.944,0,0,1,.909-2.728,3.174,3.174,0,0,1,2.5-1.019,3.111,3.111,0,0,1,2.225.79,2.8,2.8,0,0,1,.851,2.1H67.044a1.358,1.358,0,0,0-.355-.938,1.321,1.321,0,0,0-1.945.142A2.916,2.916,0,0,0,64.392,9.2V9.4a2.953,2.953,0,0,0,.349,1.643A1.2,1.2,0,0,0,65.8,11.544ZM72.11,13H70.127V5.6H72.11Zm-2.1-9.311a.973.973,0,0,1,.3-.731,1.281,1.281,0,0,1,1.617,0,.967.967,0,0,1,.3.731.97.97,0,0,1-.3.738,1.267,1.267,0,0,1-1.606,0A.97.97,0,0,1,70.011,3.689Zm3.418,5.544a4.387,4.387,0,0,1,.424-1.962,3.1,3.1,0,0,1,1.22-1.333,3.56,3.56,0,0,1,1.849-.472,3.368,3.368,0,0,1,2.444.916,3.676,3.676,0,0,1,1.056,2.488l.014.506a3.866,3.866,0,0,1-.95,2.731,3.683,3.683,0,0,1-5.1,0,3.934,3.934,0,0,1-.954-2.789Zm1.976.14a2.765,2.765,0,0,0,.4,1.612,1.424,1.424,0,0,0,2.256.007,3.025,3.025,0,0,0,.4-1.763,2.737,2.737,0,0,0-.4-1.6,1.311,1.311,0,0,0-1.135-.568,1.29,1.29,0,0,0-1.121.565A3.076,3.076,0,0,0,75.4,9.374ZM77.312,2.5h2.153L77.572,4.619H75.965Zm6.159,3.1.062.854a2.582,2.582,0,0,1,2.126-.991,2.146,2.146,0,0,1,1.75.69A3.221,3.221,0,0,1,88,8.222V13H86.021V8.259a1.287,1.287,0,0,0-.273-.915,1.222,1.222,0,0,0-.909-.284,1.359,1.359,0,0,0-1.251.713V13H81.612V5.6Zm12.271,4.6,1.367-4.6h2.119l-2.974,8.545-.164.39A2.255,2.255,0,0,1,93.9,15.987a3.108,3.108,0,0,1-.875-.13v-1.5l.3.007a1.625,1.625,0,0,0,.837-.171,1.123,1.123,0,0,0,.434-.567l.232-.608L92.242,5.6h2.126Zm-77.8,16.752a.637.637,0,0,0-.359-.571,4.077,4.077,0,0,0-1.152-.373Q13.8,25.459,13.8,23.771a2.032,2.032,0,0,1,.817-1.644,3.3,3.3,0,0,1,2.136-.66A3.547,3.547,0,0,1,19,22.13a2.09,2.09,0,0,1,.844,1.723H17.87a.956.956,0,0,0-.273-.7,1.157,1.157,0,0,0-.854-.277,1.182,1.182,0,0,0-.772.226.712.712,0,0,0-.273.574.609.609,0,0,0,.311.53,3.2,3.2,0,0,0,1.049.349,8.571,8.571,0,0,1,1.244.332,2.044,2.044,0,0,1,1.565,1.989A1.929,1.929,0,0,1,19,28.511a3.745,3.745,0,0,1-2.242.625,3.912,3.912,0,0,1-1.651-.332,2.77,2.77,0,0,1-1.131-.909,2.113,2.113,0,0,1-.41-1.248h1.873a1.031,1.031,0,0,0,.39.807,1.546,1.546,0,0,0,.971.28,1.43,1.43,0,0,0,.858-.215A.67.67,0,0,0,17.945,26.956Zm6.6,2.181a3.631,3.631,0,0,1-2.649-1,3.548,3.548,0,0,1-1.022-2.659v-.191A4.468,4.468,0,0,1,21.3,23.3a3.161,3.161,0,0,1,1.22-1.354,3.425,3.425,0,0,1,1.8-.475,3.07,3.07,0,0,1,2.389.957,3.889,3.889,0,0,1,.872,2.714v.807h-4.71a1.835,1.835,0,0,0,.578,1.162,1.746,1.746,0,0,0,1.22.438,2.132,2.132,0,0,0,1.784-.827l.971,1.087a2.966,2.966,0,0,1-1.2.981A3.947,3.947,0,0,1,24.542,29.137Zm-.226-6.077a1.234,1.234,0,0,0-.954.4,2.062,2.062,0,0,0-.468,1.14h2.748V24.44a1.471,1.471,0,0,0-.355-1.02A1.274,1.274,0,0,0,24.316,23.06Zm4.1,2.188a4.335,4.335,0,0,1,.81-2.741,2.625,2.625,0,0,1,2.184-1.039,2.3,2.3,0,0,1,1.894.834l.082-.7h1.791v7.15a3.161,3.161,0,0,1-.441,1.688A2.832,2.832,0,0,1,33.5,31.536a4.362,4.362,0,0,1-1.873.376,4.056,4.056,0,0,1-1.586-.325,2.815,2.815,0,0,1-1.169-.837l.875-1.2a2.314,2.314,0,0,0,1.791.827,1.694,1.694,0,0,0,1.224-.42,1.577,1.577,0,0,0,.438-1.193v-.4a2.285,2.285,0,0,1-1.8.772,2.618,2.618,0,0,1-2.157-1.042,4.334,4.334,0,0,1-.824-2.765Zm1.976.141a2.714,2.714,0,0,0,.4,1.583,1.282,1.282,0,0,0,1.107.573,1.371,1.371,0,0,0,1.292-.68V23.739a1.368,1.368,0,0,0-1.278-.68,1.29,1.29,0,0,0-1.118.584A3.059,3.059,0,0,0,30.394,25.388Zm10.732,2.86a2.477,2.477,0,0,1-2.023.889,2.337,2.337,0,0,1-1.815-.684,2.918,2.918,0,0,1-.639-2V21.6h1.976v4.784q0,1.157,1.053,1.157a1.426,1.426,0,0,0,1.381-.7V21.6H43.04V29H41.181ZM46.615,29H44.633V21.6h1.982Zm-2.1-9.311a.973.973,0,0,1,.3-.731,1.281,1.281,0,0,1,1.617,0,1.044,1.044,0,0,1,0,1.47,1.267,1.267,0,0,1-1.606,0A.97.97,0,0,1,44.517,19.689ZM50.095,21.6l.062.827a2.6,2.6,0,0,1,2.126-.964,1.973,1.973,0,0,1,1.962,1.128,2.54,2.54,0,0,1,2.222-1.128,2.206,2.206,0,0,1,1.791.7,3.221,3.221,0,0,1,.588,2.109V29H56.862V24.272a1.414,1.414,0,0,0-.246-.922,1.089,1.089,0,0,0-.868-.291,1.233,1.233,0,0,0-1.23.85L54.524,29H52.549V24.279a1.4,1.4,0,0,0-.253-.932,1.1,1.1,0,0,0-.861-.288,1.28,1.28,0,0,0-1.217.7V29H48.242V21.6ZM62.447,29H60.465V21.6h1.982Zm-2.1-9.311a.973.973,0,0,1,.3-.731,1.281,1.281,0,0,1,1.617,0,1.044,1.044,0,0,1,0,1.47,1.267,1.267,0,0,1-1.606,0A.97.97,0,0,1,60.349,19.689Zm7.13,9.447a3.631,3.631,0,0,1-2.649-1,3.548,3.548,0,0,1-1.022-2.659v-.191a4.468,4.468,0,0,1,.431-1.993,3.161,3.161,0,0,1,1.22-1.354,3.425,3.425,0,0,1,1.8-.475,3.07,3.07,0,0,1,2.389.957,3.889,3.889,0,0,1,.872,2.714v.807h-4.71a1.835,1.835,0,0,0,.578,1.162,1.746,1.746,0,0,0,1.22.438,2.132,2.132,0,0,0,1.784-.827l.971,1.087a2.966,2.966,0,0,1-1.2.981A3.947,3.947,0,0,1,67.479,29.137Zm-.226-6.077a1.234,1.234,0,0,0-.954.4,2.062,2.062,0,0,0-.468,1.14h2.748V24.44a1.471,1.471,0,0,0-.355-1.02A1.274,1.274,0,0,0,67.253,23.06ZM73.46,21.6l.062.854a2.582,2.582,0,0,1,2.126-.991,2.146,2.146,0,0,1,1.75.69,3.221,3.221,0,0,1,.588,2.064V29H76.01V24.259a1.287,1.287,0,0,0-.273-.915,1.222,1.222,0,0,0-.909-.284,1.359,1.359,0,0,0-1.251.713V29H71.6V21.6Zm8.388-1.818V21.6h1.265v1.449H81.848v3.691a.881.881,0,0,0,.157.588.79.79,0,0,0,.6.178,3.151,3.151,0,0,0,.581-.048v1.5a4.067,4.067,0,0,1-1.2.178,1.886,1.886,0,0,1-2.119-2.1V23.053h-1.08V21.6h1.08V19.785ZM83.7,25.233a4.387,4.387,0,0,1,.424-1.962,3.1,3.1,0,0,1,1.22-1.333,3.56,3.56,0,0,1,1.849-.472,3.368,3.368,0,0,1,2.444.916,3.676,3.676,0,0,1,1.056,2.488l.014.506a3.866,3.866,0,0,1-.95,2.731,3.683,3.683,0,0,1-5.1,0,3.934,3.934,0,0,1-.954-2.789Zm1.976.14a2.765,2.765,0,0,0,.4,1.612,1.424,1.424,0,0,0,2.256.007,3.025,3.025,0,0,0,.4-1.763,2.737,2.737,0,0,0-.4-1.6,1.311,1.311,0,0,0-1.135-.568,1.29,1.29,0,0,0-1.121.565A3.076,3.076,0,0,0,85.676,25.374Zm9.427-.127a4.457,4.457,0,0,1,.776-2.755A2.517,2.517,0,0,1,98,21.467a2.265,2.265,0,0,1,1.784.807V18.5h1.982V29H99.983l-.1-.786a2.325,2.325,0,0,1-1.9.923,2.511,2.511,0,0,1-2.1-1.029A4.6,4.6,0,0,1,95.1,25.247Zm1.976.141a2.936,2.936,0,0,0,.362,1.6,1.179,1.179,0,0,0,1.053.556,1.321,1.321,0,0,0,1.292-.776V23.836a1.3,1.3,0,0,0-1.278-.776Q97.078,23.06,97.078,25.388Zm9.625,3.749a3.631,3.631,0,0,1-2.649-1,3.548,3.548,0,0,1-1.022-2.659v-.191a4.468,4.468,0,0,1,.431-1.993,3.161,3.161,0,0,1,1.22-1.354,3.425,3.425,0,0,1,1.8-.475,3.07,3.07,0,0,1,2.389.957,3.889,3.889,0,0,1,.872,2.714v.807h-4.71a1.835,1.835,0,0,0,.578,1.162,1.746,1.746,0,0,0,1.22.438,2.132,2.132,0,0,0,1.784-.827l.971,1.087a2.966,2.966,0,0,1-1.2.981A3.947,3.947,0,0,1,106.7,29.137Zm-.226-6.077a1.234,1.234,0,0,0-.954.4,2.062,2.062,0,0,0-.468,1.14H107.8V24.44a1.471,1.471,0,0,0-.355-1.02A1.274,1.274,0,0,0,106.478,23.06ZM112.951,29h-1.982V18.5h1.982ZM43.515,41.37a4.436,4.436,0,0,1-.776,2.738,2.488,2.488,0,0,1-2.1,1.029,2.3,2.3,0,0,1-1.812-.779v3.486H36.857V37.6h1.832l.068.725a2.322,2.322,0,0,1,1.873-.861,2.5,2.5,0,0,1,2.126,1.012,4.556,4.556,0,0,1,.759,2.789ZM41.54,41.22a2.927,2.927,0,0,0-.366-1.6,1.19,1.19,0,0,0-1.063-.562,1.293,1.293,0,0,0-1.278.713V42.81a1.315,1.315,0,0,0,1.292.734Q41.54,43.544,41.54,41.22ZM48.9,39.456a5.367,5.367,0,0,0-.711-.055,1.447,1.447,0,0,0-1.47.759V45H44.739V37.6H46.6l.055.882a1.831,1.831,0,0,1,1.647-1.019,2.07,2.07,0,0,1,.615.089Zm.4,1.777a4.387,4.387,0,0,1,.424-1.962,3.1,3.1,0,0,1,1.22-1.333,3.56,3.56,0,0,1,1.849-.472,3.368,3.368,0,0,1,2.444.916,3.676,3.676,0,0,1,1.056,2.488l.014.506a3.866,3.866,0,0,1-.95,2.731,3.683,3.683,0,0,1-5.1,0,3.934,3.934,0,0,1-.954-2.789Zm1.976.14a2.765,2.765,0,0,0,.4,1.612,1.424,1.424,0,0,0,2.256.007,3.025,3.025,0,0,0,.4-1.763,2.737,2.737,0,0,0-.4-1.6,1.311,1.311,0,0,0-1.135-.568,1.29,1.29,0,0,0-1.121.565A3.076,3.076,0,0,0,51.267,41.374Zm8.907.83,1.367-4.6h2.119l-2.974,8.545-.164.39a2.255,2.255,0,0,1-2.187,1.449,3.108,3.108,0,0,1-.875-.13v-1.5l.3.007A1.625,1.625,0,0,0,58.6,46.2a1.123,1.123,0,0,0,.434-.567l.232-.608L56.674,37.6H58.8Zm7.581,2.933a3.631,3.631,0,0,1-2.649-1,3.548,3.548,0,0,1-1.022-2.659v-.191a4.468,4.468,0,0,1,.431-1.993,3.161,3.161,0,0,1,1.22-1.354,3.425,3.425,0,0,1,1.8-.475,3.07,3.07,0,0,1,2.389.957,3.889,3.889,0,0,1,.872,2.714v.807h-4.71a1.835,1.835,0,0,0,.578,1.162,1.746,1.746,0,0,0,1.22.438,2.132,2.132,0,0,0,1.784-.827L70.64,43.8a2.966,2.966,0,0,1-1.2.981A3.947,3.947,0,0,1,67.755,45.137ZM67.53,39.06a1.234,1.234,0,0,0-.954.4,2.062,2.062,0,0,0-.468,1.14h2.748V40.44a1.471,1.471,0,0,0-.355-1.02A1.274,1.274,0,0,0,67.53,39.06Zm7.465,4.484a1.3,1.3,0,0,0,.889-.3,1.054,1.054,0,0,0,.355-.8h1.853a2.534,2.534,0,0,1-.41,1.377,2.706,2.706,0,0,1-1.1.971,3.455,3.455,0,0,1-1.548.345,3.211,3.211,0,0,1-2.5-1.008,3.99,3.99,0,0,1-.916-2.786v-.13a3.944,3.944,0,0,1,.909-2.728,3.174,3.174,0,0,1,2.5-1.019,3.111,3.111,0,0,1,2.225.79,2.8,2.8,0,0,1,.851,2.1H76.239a1.358,1.358,0,0,0-.355-.938,1.321,1.321,0,0,0-1.945.142,2.916,2.916,0,0,0-.352,1.633V41.4a2.953,2.953,0,0,0,.349,1.643A1.2,1.2,0,0,0,74.995,43.544Zm6.59-7.759V37.6h1.265v1.449H81.584v3.691a.881.881,0,0,0,.157.588.79.79,0,0,0,.6.178,3.15,3.15,0,0,0,.581-.048v1.5a4.067,4.067,0,0,1-1.2.178,1.886,1.886,0,0,1-2.119-2.1V39.053h-1.08V37.6h1.08V35.785Zm1.853,5.448a4.387,4.387,0,0,1,.424-1.962,3.1,3.1,0,0,1,1.22-1.333,3.56,3.56,0,0,1,1.849-.472,3.368,3.368,0,0,1,2.444.916,3.676,3.676,0,0,1,1.056,2.488l.014.506a3.866,3.866,0,0,1-.95,2.731,3.683,3.683,0,0,1-5.1,0,3.934,3.934,0,0,1-.954-2.789Zm1.976.14a2.765,2.765,0,0,0,.4,1.612,1.424,1.424,0,0,0,2.256.007,3.025,3.025,0,0,0,.4-1.763,2.737,2.737,0,0,0-.4-1.6,1.311,1.311,0,0,0-1.135-.568,1.29,1.29,0,0,0-1.121.565A3.076,3.076,0,0,0,85.413,41.374Z" transform="translate(839.461 1057.874)" fill="#12263f"/>
    <g id="administracion" transform="translate(873.629 990.623)">
      <path id="Trazado_104038" data-name="Trazado 104038" d="M66,41.867V34.128a1.138,1.138,0,0,0-1.138-1.138H60.6a23,23,0,0,0-3.077-7.434l3.01-3.01a1.138,1.138,0,0,0,0-1.609l-5.472-5.472a1.138,1.138,0,0,0-1.609,0l-3.01,3.01A23,23,0,0,0,43.005,15.4V11.138A1.138,1.138,0,0,0,41.867,10H34.128a1.138,1.138,0,0,0-1.138,1.138V15.4a23,23,0,0,0-7.423,3.082l-3.021-3.021a1.138,1.138,0,0,0-1.609,0l-5.472,5.472a1.138,1.138,0,0,0,0,1.609l3.028,3.028a23,23,0,0,0-3.066,7.416H11.138A1.138,1.138,0,0,0,10,34.128v7.739a1.138,1.138,0,0,0,1.138,1.138h4.294A23.005,23.005,0,0,0,18.5,50.411l-3.039,3.039a1.138,1.138,0,0,0,0,1.609l5.472,5.472a1.138,1.138,0,0,0,1.609,0l3.039-3.039a23.005,23.005,0,0,0,7.405,3.071v4.294A1.138,1.138,0,0,0,34.128,66h7.739a1.138,1.138,0,0,0,1.138-1.138V60.57A22.989,22.989,0,0,0,50.421,57.5l3.028,3.028a1.138,1.138,0,0,0,1.609,0l5.472-5.472a1.138,1.138,0,0,0,0-1.609L57.51,50.428a23,23,0,0,0,3.082-7.423h4.265A1.138,1.138,0,0,0,66,41.867Zm0,0" transform="translate(-8.862 -8.862)" fill="#ffa726"/>
      <path id="Trazado_104039" data-name="Trazado 104039" d="M33.005,58.271H25.266A2.279,2.279,0,0,1,22.99,56V52.6a24.044,24.044,0,0,1-6.1-2.528l-2.4,2.4a2.279,2.279,0,0,1-3.219,0L5.8,47a2.279,2.279,0,0,1,0-3.219l2.4-2.405a24.044,24.044,0,0,1-2.528-6.1h-3.4A2.279,2.279,0,0,1,0,33.005V25.266A2.279,2.279,0,0,1,2.276,22.99h3.39a24.044,24.044,0,0,1,2.525-6.107L5.8,14.489a2.279,2.279,0,0,1,0-3.219L11.27,5.8a2.279,2.279,0,0,1,3.219,0l2.386,2.386A24.043,24.043,0,0,1,22.99,5.645V2.276A2.279,2.279,0,0,1,25.266,0h7.739a2.279,2.279,0,0,1,2.276,2.276V5.638a24.055,24.055,0,0,1,6.125,2.535L43.783,5.8A2.279,2.279,0,0,1,47,5.8l5.473,5.473a2.279,2.279,0,0,1,0,3.219L50.1,16.865a24.055,24.055,0,0,1,2.535,6.125H56a2.279,2.279,0,0,1,2.276,2.276v7.739A2.279,2.279,0,0,1,56,35.282H52.626A24.059,24.059,0,0,1,50.088,41.4l2.386,2.386a2.279,2.279,0,0,1,0,3.219L47,52.474a2.279,2.279,0,0,1-3.219,0L41.388,50.08A24.057,24.057,0,0,1,35.282,52.6V56A2.279,2.279,0,0,1,33.005,58.271ZM16.723,47.492a1.137,1.137,0,0,1,.612.179,21.792,21.792,0,0,0,7.039,2.919,1.138,1.138,0,0,1,.892,1.111V56h7.739V51.708A1.138,1.138,0,0,1,33.9,50.6a21.809,21.809,0,0,0,7.049-2.915,1.138,1.138,0,0,1,1.416.155l3.028,3.028,5.472-5.472-3.021-3.021a1.138,1.138,0,0,1-.154-1.418,21.807,21.807,0,0,0,2.93-7.055,1.138,1.138,0,0,1,1.111-.892H56V25.266H51.737a1.138,1.138,0,0,1-1.111-.894A21.794,21.794,0,0,0,47.7,17.306a1.139,1.139,0,0,1,.155-1.417l3.01-3.01L45.392,7.407l-3.01,3.01a1.139,1.139,0,0,1-1.417.155A21.8,21.8,0,0,0,33.9,7.646a1.138,1.138,0,0,1-.894-1.111V2.276H25.266V6.541a1.138,1.138,0,0,1-.892,1.111,21.8,21.8,0,0,0-7.056,2.929,1.138,1.138,0,0,1-1.418-.154L12.879,7.407,7.407,12.879l3.028,3.028a1.138,1.138,0,0,1,.155,1.416,21.809,21.809,0,0,0-2.915,7.049,1.138,1.138,0,0,1-1.111.894H2.276v7.739H6.57a1.139,1.139,0,0,1,1.111.892A21.8,21.8,0,0,0,10.6,40.936a1.138,1.138,0,0,1-.155,1.417L7.407,45.392l5.472,5.473,3.039-3.039A1.138,1.138,0,0,1,16.723,47.492Zm0,0"/>
      <path id="Trazado_104040" data-name="Trazado 104040" d="M150.957,135.478A15.478,15.478,0,1,1,135.478,120,15.479,15.479,0,0,1,150.957,135.478Zm0,0" transform="translate(-106.343 -106.343)" fill="#fff"/>
      <path id="Trazado_104041" data-name="Trazado 104041" d="M126.676,143.242a16.613,16.613,0,1,1,8.122-31.109,1.138,1.138,0,1,1-1.113,1.985,14.34,14.34,0,1,0,5.824,6.107,1.138,1.138,0,1,1,2.036-1.017,16.611,16.611,0,0,1-14.87,24.034Zm0,0" transform="translate(-97.54 -97.498)"/>
      <path id="Trazado_104042" data-name="Trazado 104042" d="M345.49,154.288a1.139,1.139,0,1,1,.8-.334A1.145,1.145,0,0,1,345.49,154.288Zm0,0" transform="translate(-305.16 -134.711)"/>
      <path id="Trazado_104043" data-name="Trazado 104043" d="M192.173,192.332l-6.328,6.328-3.115-3.115-4.082,4.082,3.115,3.115,4.082,4.083,10.41-10.41Zm0,0" transform="translate(-158.316 -170.442)" fill="#26ccda"/>
      <path id="Trazado_104044" data-name="Trazado 104044" d="M176.984,199.1a1.138,1.138,0,0,1-.8-.333l-7.2-7.2a1.138,1.138,0,0,1,0-1.609l4.082-4.083a1.139,1.139,0,0,1,1.61,0l2.31,2.31,5.523-5.523a1.138,1.138,0,0,1,1.609,0l4.083,4.083a1.139,1.139,0,0,1,0,1.609l-10.41,10.41A1.14,1.14,0,0,1,176.984,199.1Zm-5.588-8.336,5.588,5.588,8.8-8.8-2.473-2.473-5.523,5.523a1.138,1.138,0,0,1-1.61,0l-2.31-2.31Zm0,0" transform="translate(-149.454 -161.581)"/>
    </g>
  </g>
</svg>
