<svg xmlns="http://www.w3.org/2000/svg" width="152.098" height="240.825" viewBox="0 0 152.098 240.825">
  <g id="Grupo_120362" data-name="Grupo 120362" transform="translate(-824.649 -4797.512)">
    <path id="Trazado_166801" data-name="Trazado 166801" d="M266.39,749.862a101.111,101.111,0,0,1-34.8-6.137l34.8,26.128,34.8-26.128a101.111,101.111,0,0,1-34.8,6.137" transform="translate(636.945 4268.484)" fill="#f57c00"/>
    <path id="Trazado_166794" data-name="Trazado 166794" d="M1626.761,169.393a76.049,76.049,0,1,1-76.049-76.049,76.049,76.049,0,0,1,76.049,76.049" transform="translate(-650.014 4704.168)" fill="#fff3bf"/>
    <circle id="Elipse_4268" data-name="Elipse 4268" cx="11" cy="11" r="11" transform="translate(892.531 4990)" fill="#ffa726"/>
    <circle id="Elipse_4269" data-name="Elipse 4269" cx="7" cy="7" r="7" transform="translate(896.531 4994)" fill="#ffd1a2"/>
    <path id="Trazado_181410" data-name="Trazado 181410" d="M35.138,8.4H30.824v3.527h5.011V13H29.512V3.047h6.255V4.12H30.824V7.326h4.313Zm3.438-2.8v8.251q0,2.133-1.935,2.133a2.36,2.36,0,0,1-.772-.122V14.859a2.445,2.445,0,0,0,.574.055.859.859,0,0,0,.646-.229,1.133,1.133,0,0,0,.222-.8V5.6ZM37.182,3.642a.758.758,0,0,1,.188-.516.691.691,0,0,1,.55-.215.717.717,0,0,1,.561.212.747.747,0,0,1,.191.52.722.722,0,0,1-.191.513.73.73,0,0,1-.561.205.707.707,0,0,1-.554-.205A.738.738,0,0,1,37.182,3.642Zm6.5,9.5a3.232,3.232,0,0,1-2.447-.988,3.666,3.666,0,0,1-.943-2.642V9.274a4.438,4.438,0,0,1,.42-1.965,3.28,3.28,0,0,1,1.176-1.354,2.956,2.956,0,0,1,1.637-.489,2.77,2.77,0,0,1,2.242.95,4.114,4.114,0,0,1,.8,2.721v.526H41.557a2.629,2.629,0,0,0,.639,1.767,2.009,2.009,0,0,0,1.555.673,2.2,2.2,0,0,0,1.135-.273,2.851,2.851,0,0,0,.813-.725l.772.6A3.106,3.106,0,0,1,43.683,13.137Zm-.157-6.631a1.687,1.687,0,0,0-1.285.557A2.708,2.708,0,0,0,41.6,8.625H45.3v-.1a2.409,2.409,0,0,0-.52-1.494A1.588,1.588,0,0,0,43.525,6.506ZM51,12.1a1.822,1.822,0,0,0,1.183-.41,1.443,1.443,0,0,0,.561-1.025h1.2a2.293,2.293,0,0,1-.437,1.21,2.881,2.881,0,0,1-1.077.916A3.107,3.107,0,0,1,51,13.137a3.047,3.047,0,0,1-2.4-1.008A4.016,4.016,0,0,1,47.7,9.37V9.158a4.453,4.453,0,0,1,.4-1.921,3.02,3.02,0,0,1,1.138-1.306,3.233,3.233,0,0,1,1.753-.465,2.966,2.966,0,0,1,2.068.745,2.663,2.663,0,0,1,.878,1.935h-1.2A1.743,1.743,0,0,0,52.2,6.967a1.691,1.691,0,0,0-1.207-.461A1.77,1.77,0,0,0,49.5,7.2a3.259,3.259,0,0,0-.53,2.006v.239a3.194,3.194,0,0,0,.526,1.969A1.779,1.779,0,0,0,51,12.1Zm8.928.164a2.686,2.686,0,0,1-2.167.868,2.3,2.3,0,0,1-1.8-.687,2.974,2.974,0,0,1-.625-2.034V5.6H56.6v4.778q0,1.682,1.367,1.682a1.893,1.893,0,0,0,1.928-1.08V5.6h1.265V13h-1.2Zm6.118-.164a1.822,1.822,0,0,0,1.183-.41,1.443,1.443,0,0,0,.561-1.025h1.2a2.293,2.293,0,0,1-.437,1.21,2.882,2.882,0,0,1-1.077.916,3.107,3.107,0,0,1-1.425.342,3.047,3.047,0,0,1-2.4-1.008,4.016,4.016,0,0,1-.892-2.758V9.158a4.453,4.453,0,0,1,.4-1.921,3.02,3.02,0,0,1,1.138-1.306,3.233,3.233,0,0,1,1.753-.465,2.966,2.966,0,0,1,2.068.745,2.663,2.663,0,0,1,.878,1.935h-1.2a1.743,1.743,0,0,0-.543-1.179,1.691,1.691,0,0,0-1.207-.461,1.77,1.77,0,0,0-1.494.694,3.259,3.259,0,0,0-.53,2.006v.239a3.194,3.194,0,0,0,.526,1.969A1.779,1.779,0,0,0,66.043,12.1Zm5.735.9H70.514V5.6h1.265ZM70.411,3.642a.755.755,0,0,1,.188-.52.706.706,0,0,1,.557-.212.717.717,0,0,1,.561.212.747.747,0,0,1,.191.52.722.722,0,0,1-.191.513.73.73,0,0,1-.561.205.718.718,0,0,1-.557-.205A.73.73,0,0,1,70.411,3.642Zm3.056,5.592a4.369,4.369,0,0,1,.427-1.955,3.187,3.187,0,0,1,1.189-1.34,3.238,3.238,0,0,1,1.74-.472,3.119,3.119,0,0,1,2.444,1.046A4.024,4.024,0,0,1,80.2,9.295v.089a4.407,4.407,0,0,1-.414,1.938A3.14,3.14,0,0,1,78.6,12.658a3.275,3.275,0,0,1-1.767.479A3.111,3.111,0,0,1,74.4,12.091a4,4,0,0,1-.933-2.769Zm1.271.15a3.164,3.164,0,0,0,.571,1.976,1.934,1.934,0,0,0,3.059-.01,3.46,3.46,0,0,0,.567-2.116,3.159,3.159,0,0,0-.578-1.972,1.836,1.836,0,0,0-1.535-.755,1.816,1.816,0,0,0-1.511.745A3.435,3.435,0,0,0,74.738,9.384ZM77.4,2.514h1.531L77.1,4.523l-1.019,0ZM82.982,5.6l.041.93a2.7,2.7,0,0,1,2.215-1.066q2.345,0,2.365,2.646V13H86.339V8.105a1.7,1.7,0,0,0-.366-1.183,1.466,1.466,0,0,0-1.118-.383,1.825,1.825,0,0,0-1.08.328,2.228,2.228,0,0,0-.725.861V13H81.786V5.6ZM95.4,11.147,97.119,5.6h1.354L95.5,14.142q-.69,1.846-2.194,1.846l-.239-.021-.472-.089V14.853l.342.027a1.683,1.683,0,0,0,1-.26,1.88,1.88,0,0,0,.591-.95l.28-.752L92.17,5.6h1.381ZM19.258,27.038a.931.931,0,0,0-.386-.8,3.718,3.718,0,0,0-1.347-.489A6.367,6.367,0,0,1,16,25.261a2.169,2.169,0,0,1-.834-.684,1.635,1.635,0,0,1-.27-.943,1.919,1.919,0,0,1,.769-1.538,3,3,0,0,1,1.965-.629,3.091,3.091,0,0,1,2.041.649,2.063,2.063,0,0,1,.783,1.661H19.183a1.142,1.142,0,0,0-.441-.9,1.652,1.652,0,0,0-1.111-.376,1.729,1.729,0,0,0-1.08.3.947.947,0,0,0-.39.786.767.767,0,0,0,.362.69,4.458,4.458,0,0,0,1.309.444,6.821,6.821,0,0,1,1.535.506,2.239,2.239,0,0,1,.872.708,1.74,1.74,0,0,1,.284,1.008,1.893,1.893,0,0,1-.793,1.589,3.326,3.326,0,0,1-2.058.6,3.725,3.725,0,0,1-1.572-.314,2.557,2.557,0,0,1-1.07-.878,2.117,2.117,0,0,1-.386-1.22h1.265a1.309,1.309,0,0,0,.509,1.008,1.976,1.976,0,0,0,1.254.373,2.039,2.039,0,0,0,1.152-.291A.893.893,0,0,0,19.258,27.038Zm5.981,2.1a3.232,3.232,0,0,1-2.447-.988,3.666,3.666,0,0,1-.943-2.642v-.232a4.438,4.438,0,0,1,.42-1.965,3.28,3.28,0,0,1,1.176-1.354,2.956,2.956,0,0,1,1.637-.489,2.77,2.77,0,0,1,2.242.95,4.114,4.114,0,0,1,.8,2.721v.526H23.113a2.629,2.629,0,0,0,.639,1.767,2.009,2.009,0,0,0,1.555.673,2.2,2.2,0,0,0,1.135-.273,2.851,2.851,0,0,0,.813-.725l.772.6A3.106,3.106,0,0,1,25.239,29.137Zm-.157-6.631a1.687,1.687,0,0,0-1.285.557,2.708,2.708,0,0,0-.643,1.562h3.705v-.1a2.409,2.409,0,0,0-.52-1.494A1.588,1.588,0,0,0,25.082,22.506Zm4.2,2.734a4.347,4.347,0,0,1,.8-2.751,2.757,2.757,0,0,1,4.231-.065l.062-.82h1.155v7.219a3.009,3.009,0,0,1-.851,2.263,3.141,3.141,0,0,1-2.287.827,3.8,3.8,0,0,1-1.565-.342,2.7,2.7,0,0,1-1.169-.937l.656-.759a2.473,2.473,0,0,0,1.989,1,1.938,1.938,0,0,0,1.439-.52,1.986,1.986,0,0,0,.516-1.463v-.636a2.6,2.6,0,0,1-2.071.875,2.527,2.527,0,0,1-2.1-1.046A4.571,4.571,0,0,1,29.286,25.24Zm1.271.144a3.316,3.316,0,0,0,.513,1.965,1.666,1.666,0,0,0,1.436.714,1.852,1.852,0,0,0,1.757-1.087V23.6a1.874,1.874,0,0,0-1.743-1.06,1.681,1.681,0,0,0-1.442.718A3.612,3.612,0,0,0,30.558,25.384Zm11.45,2.885a2.686,2.686,0,0,1-2.167.868,2.3,2.3,0,0,1-1.8-.687,2.974,2.974,0,0,1-.625-2.034V21.6h1.265v4.778q0,1.682,1.367,1.682a1.893,1.893,0,0,0,1.928-1.08V21.6h1.265V29h-1.2ZM46.533,29H45.269V21.6h1.265Zm-1.367-9.358a.755.755,0,0,1,.188-.52.706.706,0,0,1,.557-.212.717.717,0,0,1,.561.212.747.747,0,0,1,.191.52.722.722,0,0,1-.191.513.73.73,0,0,1-.561.205.718.718,0,0,1-.557-.205A.73.73,0,0,1,45.166,19.642Zm4.58,1.962.034.82a2.732,2.732,0,0,1,2.194-.957,2.115,2.115,0,0,1,2.112,1.189,2.8,2.8,0,0,1,.96-.861,2.837,2.837,0,0,1,1.4-.328q2.434,0,2.475,2.577V29H57.655V24.119a1.7,1.7,0,0,0-.362-1.186,1.6,1.6,0,0,0-1.217-.393,1.677,1.677,0,0,0-1.169.42,1.706,1.706,0,0,0-.54,1.131V29H53.1V24.153a1.411,1.411,0,0,0-1.579-1.613,1.692,1.692,0,0,0-1.7,1.06V29H48.55V21.6ZM62.2,29H60.937V21.6H62.2Zm-1.367-9.358a.755.755,0,0,1,.188-.52.706.706,0,0,1,.557-.212.717.717,0,0,1,.561.212.747.747,0,0,1,.191.52.722.722,0,0,1-.191.513.73.73,0,0,1-.561.205.718.718,0,0,1-.557-.205A.73.73,0,0,1,60.834,19.642Zm6.46,9.5a3.232,3.232,0,0,1-2.447-.988,3.666,3.666,0,0,1-.943-2.642v-.232a4.438,4.438,0,0,1,.42-1.965A3.28,3.28,0,0,1,65.5,21.956a2.956,2.956,0,0,1,1.637-.489,2.77,2.77,0,0,1,2.242.95,4.114,4.114,0,0,1,.8,2.721v.526H65.168a2.629,2.629,0,0,0,.639,1.767,2.009,2.009,0,0,0,1.555.673,2.2,2.2,0,0,0,1.135-.273,2.851,2.851,0,0,0,.813-.725l.772.6A3.106,3.106,0,0,1,67.294,29.137Zm-.157-6.631a1.687,1.687,0,0,0-1.285.557,2.708,2.708,0,0,0-.643,1.562h3.705v-.1a2.409,2.409,0,0,0-.52-1.494A1.588,1.588,0,0,0,67.137,22.506Zm5.7-.9.041.93a2.7,2.7,0,0,1,2.215-1.066q2.345,0,2.365,2.646V29H76.194V24.105a1.7,1.7,0,0,0-.366-1.183,1.466,1.466,0,0,0-1.118-.383,1.825,1.825,0,0,0-1.08.328,2.228,2.228,0,0,0-.725.861V29H71.642V21.6Zm8.244-1.791V21.6h1.381v.978H81.082v4.593a1.027,1.027,0,0,0,.185.667.777.777,0,0,0,.629.222,3.062,3.062,0,0,0,.6-.082V29a3.688,3.688,0,0,1-.971.136,1.575,1.575,0,0,1-1.278-.513,2.2,2.2,0,0,1-.431-1.456V22.581H78.471V21.6h1.347V19.813Zm2.386,5.421a4.369,4.369,0,0,1,.427-1.955,3.187,3.187,0,0,1,1.189-1.34,3.238,3.238,0,0,1,1.74-.472,3.119,3.119,0,0,1,2.444,1.046,4.024,4.024,0,0,1,.933,2.782v.089a4.407,4.407,0,0,1-.414,1.938A3.14,3.14,0,0,1,88.6,28.658a3.275,3.275,0,0,1-1.767.479A3.111,3.111,0,0,1,84.4,28.091a4,4,0,0,1-.933-2.769Zm1.271.15a3.164,3.164,0,0,0,.571,1.976,1.934,1.934,0,0,0,3.059-.01,3.46,3.46,0,0,0,.567-2.116,3.159,3.159,0,0,0-.578-1.972,1.836,1.836,0,0,0-1.535-.755,1.816,1.816,0,0,0-1.511.745A3.434,3.434,0,0,0,84.739,25.384Zm10.206-.144a4.333,4.333,0,0,1,.807-2.738,2.745,2.745,0,0,1,4.17-.147V18.5h1.265V29h-1.162l-.062-.793a2.575,2.575,0,0,1-2.112.93,2.526,2.526,0,0,1-2.1-1.053,4.382,4.382,0,0,1-.81-2.748Zm1.265.144a3.281,3.281,0,0,0,.52,1.969,1.68,1.68,0,0,0,1.436.711,1.845,1.845,0,0,0,1.757-1.08v-3.4a1.859,1.859,0,0,0-1.743-1.046,1.687,1.687,0,0,0-1.449.718A3.612,3.612,0,0,0,96.21,25.384Zm10.008,3.753a3.232,3.232,0,0,1-2.447-.988,3.666,3.666,0,0,1-.943-2.642v-.232a4.438,4.438,0,0,1,.42-1.965,3.28,3.28,0,0,1,1.176-1.354,2.956,2.956,0,0,1,1.637-.489,2.77,2.77,0,0,1,2.242.95,4.114,4.114,0,0,1,.8,2.721v.526h-5.011a2.629,2.629,0,0,0,.639,1.767,2.009,2.009,0,0,0,1.555.673,2.2,2.2,0,0,0,1.135-.273,2.851,2.851,0,0,0,.813-.725l.772.6A3.106,3.106,0,0,1,106.218,29.137Zm-.157-6.631a1.687,1.687,0,0,0-1.285.557,2.708,2.708,0,0,0-.643,1.562h3.705v-.1a2.409,2.409,0,0,0-.52-1.494A1.588,1.588,0,0,0,106.061,22.506ZM111.939,29h-1.265V18.5h1.265ZM43.686,41.384a4.429,4.429,0,0,1-.772,2.721,2.476,2.476,0,0,1-2.092,1.032,2.713,2.713,0,0,1-2.119-.854v3.562H37.438V37.6h1.155l.062.82a2.605,2.605,0,0,1,2.146-.957,2.522,2.522,0,0,1,2.109,1,4.477,4.477,0,0,1,.776,2.8Zm-1.265-.144a3.268,3.268,0,0,0-.533-1.976,1.718,1.718,0,0,0-1.463-.725A1.859,1.859,0,0,0,38.7,39.559v3.534A1.863,1.863,0,0,0,40.439,44.1a1.71,1.71,0,0,0,1.446-.721A3.567,3.567,0,0,0,42.421,41.24Zm6.446-2.5a3.79,3.79,0,0,0-.622-.048,1.667,1.667,0,0,0-1.688,1.06V45H45.292V37.6h1.23l.021.854a1.969,1.969,0,0,1,1.764-.991,1.292,1.292,0,0,1,.561.1Zm.69,2.5a4.369,4.369,0,0,1,.427-1.955,3.187,3.187,0,0,1,1.189-1.34,3.238,3.238,0,0,1,1.74-.472,3.119,3.119,0,0,1,2.444,1.046,4.024,4.024,0,0,1,.933,2.782v.089a4.407,4.407,0,0,1-.414,1.938A3.14,3.14,0,0,1,54.7,44.658a3.275,3.275,0,0,1-1.767.479,3.111,3.111,0,0,1-2.437-1.046,4,4,0,0,1-.933-2.769Zm1.271.15a3.164,3.164,0,0,0,.571,1.976,1.934,1.934,0,0,0,3.059-.01,3.46,3.46,0,0,0,.567-2.116,3.159,3.159,0,0,0-.578-1.972,1.836,1.836,0,0,0-1.535-.755,1.816,1.816,0,0,0-1.511.745A3.435,3.435,0,0,0,50.83,41.384Zm9.365,1.764L61.917,37.6h1.354L60.3,46.142q-.69,1.846-2.194,1.846l-.239-.021-.472-.089V46.853l.342.027a1.683,1.683,0,0,0,1-.26,1.88,1.88,0,0,0,.591-.95l.28-.752L56.968,37.6h1.381Zm7.185,1.989a3.232,3.232,0,0,1-2.447-.988,3.666,3.666,0,0,1-.943-2.642v-.232a4.438,4.438,0,0,1,.42-1.965,3.28,3.28,0,0,1,1.176-1.354,2.956,2.956,0,0,1,1.637-.489,2.77,2.77,0,0,1,2.242.95,4.114,4.114,0,0,1,.8,2.721v.526H65.253a2.629,2.629,0,0,0,.639,1.767,2.009,2.009,0,0,0,1.555.673,2.2,2.2,0,0,0,1.135-.273,2.851,2.851,0,0,0,.813-.725l.772.6A3.106,3.106,0,0,1,67.379,45.137Zm-.157-6.631a1.687,1.687,0,0,0-1.285.557,2.708,2.708,0,0,0-.643,1.562H69v-.1a2.409,2.409,0,0,0-.52-1.494A1.588,1.588,0,0,0,67.222,38.506Zm7.472,5.6a1.822,1.822,0,0,0,1.183-.41,1.443,1.443,0,0,0,.561-1.025h1.2a2.293,2.293,0,0,1-.437,1.21,2.881,2.881,0,0,1-1.077.916,3.107,3.107,0,0,1-1.425.342,3.047,3.047,0,0,1-2.4-1.008A4.016,4.016,0,0,1,71.4,41.37v-.212a4.453,4.453,0,0,1,.4-1.921,3.02,3.02,0,0,1,1.138-1.306,3.233,3.233,0,0,1,1.753-.465,2.966,2.966,0,0,1,2.068.745,2.663,2.663,0,0,1,.878,1.935h-1.2a1.743,1.743,0,0,0-.543-1.179,1.691,1.691,0,0,0-1.207-.461,1.77,1.77,0,0,0-1.494.694,3.259,3.259,0,0,0-.53,2.006v.239a3.194,3.194,0,0,0,.526,1.969A1.779,1.779,0,0,0,74.694,44.1Zm6.077-8.292V37.6h1.381v.978H80.771v4.593a1.027,1.027,0,0,0,.185.667.777.777,0,0,0,.629.222,3.062,3.062,0,0,0,.6-.082V45a3.688,3.688,0,0,1-.971.136,1.575,1.575,0,0,1-1.278-.513,2.2,2.2,0,0,1-.431-1.456V38.581H78.16V37.6h1.347V35.813Zm2.386,5.421a4.369,4.369,0,0,1,.427-1.955,3.187,3.187,0,0,1,1.189-1.34,3.238,3.238,0,0,1,1.74-.472,3.119,3.119,0,0,1,2.444,1.046,4.024,4.024,0,0,1,.933,2.782v.089a4.407,4.407,0,0,1-.414,1.938,3.14,3.14,0,0,1-1.183,1.336,3.275,3.275,0,0,1-1.767.479,3.111,3.111,0,0,1-2.437-1.046,4,4,0,0,1-.933-2.769Zm1.271.15A3.164,3.164,0,0,0,85,43.359a1.934,1.934,0,0,0,3.059-.01,3.46,3.46,0,0,0,.567-2.116,3.159,3.159,0,0,0-.578-1.972,1.836,1.836,0,0,0-1.535-.755A1.816,1.816,0,0,0,85,39.251,3.435,3.435,0,0,0,84.428,41.384Z" transform="translate(840.031 4881.7)" fill="#12263f"/>
    <g id="administracion" transform="translate(874.199 4814.449)">
      <path id="Trazado_104038" data-name="Trazado 104038" d="M66,41.867V34.128a1.138,1.138,0,0,0-1.138-1.138H60.6a23,23,0,0,0-3.077-7.434l3.01-3.01a1.138,1.138,0,0,0,0-1.609l-5.472-5.472a1.138,1.138,0,0,0-1.609,0l-3.01,3.01A23,23,0,0,0,43.005,15.4V11.138A1.138,1.138,0,0,0,41.867,10H34.128a1.138,1.138,0,0,0-1.138,1.138V15.4a23,23,0,0,0-7.423,3.082l-3.021-3.021a1.138,1.138,0,0,0-1.609,0l-5.472,5.472a1.138,1.138,0,0,0,0,1.609l3.028,3.028a23,23,0,0,0-3.066,7.416H11.138A1.138,1.138,0,0,0,10,34.128v7.739a1.138,1.138,0,0,0,1.138,1.138h4.294A23.005,23.005,0,0,0,18.5,50.411l-3.039,3.039a1.138,1.138,0,0,0,0,1.609l5.472,5.472a1.138,1.138,0,0,0,1.609,0l3.039-3.039a23.005,23.005,0,0,0,7.405,3.071v4.294A1.138,1.138,0,0,0,34.128,66h7.739a1.138,1.138,0,0,0,1.138-1.138V60.57A22.989,22.989,0,0,0,50.421,57.5l3.028,3.028a1.138,1.138,0,0,0,1.609,0l5.472-5.472a1.138,1.138,0,0,0,0-1.609L57.51,50.428a23,23,0,0,0,3.082-7.423h4.265A1.138,1.138,0,0,0,66,41.867Zm0,0" transform="translate(-8.862 -8.862)" fill="#ffa726"/>
      <path id="Trazado_104039" data-name="Trazado 104039" d="M33.005,58.271H25.266A2.279,2.279,0,0,1,22.99,56V52.6a24.044,24.044,0,0,1-6.1-2.528l-2.4,2.4a2.279,2.279,0,0,1-3.219,0L5.8,47a2.279,2.279,0,0,1,0-3.219l2.4-2.405a24.044,24.044,0,0,1-2.528-6.1h-3.4A2.279,2.279,0,0,1,0,33.005V25.266A2.279,2.279,0,0,1,2.276,22.99h3.39a24.044,24.044,0,0,1,2.525-6.107L5.8,14.489a2.279,2.279,0,0,1,0-3.219L11.27,5.8a2.279,2.279,0,0,1,3.219,0l2.386,2.386A24.043,24.043,0,0,1,22.99,5.645V2.276A2.279,2.279,0,0,1,25.266,0h7.739a2.279,2.279,0,0,1,2.276,2.276V5.638a24.055,24.055,0,0,1,6.125,2.535L43.783,5.8A2.279,2.279,0,0,1,47,5.8l5.473,5.473a2.279,2.279,0,0,1,0,3.219L50.1,16.865a24.055,24.055,0,0,1,2.535,6.125H56a2.279,2.279,0,0,1,2.276,2.276v7.739A2.279,2.279,0,0,1,56,35.282H52.626A24.059,24.059,0,0,1,50.088,41.4l2.386,2.386a2.279,2.279,0,0,1,0,3.219L47,52.474a2.279,2.279,0,0,1-3.219,0L41.388,50.08A24.057,24.057,0,0,1,35.282,52.6V56A2.279,2.279,0,0,1,33.005,58.271ZM16.723,47.492a1.137,1.137,0,0,1,.612.179,21.792,21.792,0,0,0,7.039,2.919,1.138,1.138,0,0,1,.892,1.111V56h7.739V51.708A1.138,1.138,0,0,1,33.9,50.6a21.809,21.809,0,0,0,7.049-2.915,1.138,1.138,0,0,1,1.416.155l3.028,3.028,5.472-5.472-3.021-3.021a1.138,1.138,0,0,1-.154-1.418,21.807,21.807,0,0,0,2.93-7.055,1.138,1.138,0,0,1,1.111-.892H56V25.266H51.737a1.138,1.138,0,0,1-1.111-.894A21.794,21.794,0,0,0,47.7,17.306a1.139,1.139,0,0,1,.155-1.417l3.01-3.01L45.392,7.407l-3.01,3.01a1.139,1.139,0,0,1-1.417.155A21.8,21.8,0,0,0,33.9,7.646a1.138,1.138,0,0,1-.894-1.111V2.276H25.266V6.541a1.138,1.138,0,0,1-.892,1.111,21.8,21.8,0,0,0-7.056,2.929,1.138,1.138,0,0,1-1.418-.154L12.879,7.407,7.407,12.879l3.028,3.028a1.138,1.138,0,0,1,.155,1.416,21.809,21.809,0,0,0-2.915,7.049,1.138,1.138,0,0,1-1.111.894H2.276v7.739H6.57a1.139,1.139,0,0,1,1.111.892A21.8,21.8,0,0,0,10.6,40.936a1.138,1.138,0,0,1-.155,1.417L7.407,45.392l5.472,5.473,3.039-3.039A1.138,1.138,0,0,1,16.723,47.492Zm0,0"/>
      <path id="Trazado_104040" data-name="Trazado 104040" d="M150.957,135.478A15.478,15.478,0,1,1,135.478,120,15.479,15.479,0,0,1,150.957,135.478Zm0,0" transform="translate(-106.343 -106.343)" fill="#fff"/>
      <path id="Trazado_104041" data-name="Trazado 104041" d="M126.676,143.242a16.613,16.613,0,1,1,8.122-31.109,1.138,1.138,0,1,1-1.113,1.985,14.34,14.34,0,1,0,5.824,6.107,1.138,1.138,0,1,1,2.036-1.017,16.611,16.611,0,0,1-14.87,24.034Zm0,0" transform="translate(-97.54 -97.498)"/>
      <path id="Trazado_104042" data-name="Trazado 104042" d="M345.49,154.288a1.139,1.139,0,1,1,.8-.334A1.145,1.145,0,0,1,345.49,154.288Zm0,0" transform="translate(-305.16 -134.711)"/>
      <path id="Trazado_104043" data-name="Trazado 104043" d="M192.173,192.332l-6.328,6.328-3.115-3.115-4.082,4.082,3.115,3.115,4.082,4.083,10.41-10.41Zm0,0" transform="translate(-158.316 -170.442)" fill="#26ccda"/>
      <path id="Trazado_104044" data-name="Trazado 104044" d="M176.984,199.1a1.138,1.138,0,0,1-.8-.333l-7.2-7.2a1.138,1.138,0,0,1,0-1.609l4.082-4.083a1.139,1.139,0,0,1,1.61,0l2.31,2.31,5.523-5.523a1.138,1.138,0,0,1,1.609,0l4.083,4.083a1.139,1.139,0,0,1,0,1.609l-10.41,10.41A1.14,1.14,0,0,1,176.984,199.1Zm-5.588-8.336,5.588,5.588,8.8-8.8-2.473-2.473-5.523,5.523a1.138,1.138,0,0,1-1.61,0l-2.31-2.31Zm0,0" transform="translate(-149.454 -161.581)"/>
    </g>
  </g>
</svg>
