<svg xmlns="http://www.w3.org/2000/svg" width="448.586" height="198.678" viewBox="0 0 448.586 198.678">
  <g id="Grupo_120359" data-name="Grupo 120359" transform="translate(-921.76 -1437.923)">
    <g id="Grupo_56306" data-name="Grupo 56306" transform="translate(6599.997 24019.816)">
      <g id="Grupo_56244" data-name="Grupo 56244" transform="translate(-5326.571 -22447.705)">
        <g id="Grupo_56239" data-name="Grupo 56239" transform="translate(34.208 25.548)">
          <path id="Trazado_102987" data-name="Trazado 102987" d="M2699.509,1497s-4.477-5.223-.276-8.54c0,0,3.068-1.858,5.571-1.707,0,0-3.545,5.945-2.4,6.536s3.473-6.909,3.473-6.909,6.983-.677,9.229.4c0,0-5.969,4.885-4.712,5.176s7.705-4.5,7.705-4.5,6.5,1.106,6.152,5.071-2.586,5.189-3.57,5.083-6.742-2.3-6.867-1.5,3.34,3.442,5.767,3.565c0,0-4.582,5.053-7.627,3.595s-3.3-3.77-5.2-4.637-3.519-.865-2.735.019,4.219,1.744,5.3,3.664,2.059,3.215-1.091,2.741-8.272-2.78-8.5-5.419Z" transform="translate(-2691.942 -1486.168)" fill="#fdd835"/>
          <g id="Grupo_56238" data-name="Grupo 56238" transform="translate(0 6.431)">
            <path id="Trazado_102988" data-name="Trazado 102988" d="M2710.823,1528.13s-17.652-.68-21.55,4.368a12.763,12.763,0,0,1-3.515,4.933l-.413,1.127s3.059-3.225,4.153-3.42C2689.5,1535.137,2687.787,1528.883,2710.823,1528.13Z" transform="translate(-2681.706 -1528.099)" fill="#77a4e5"/>
            <path id="Trazado_102989" data-name="Trazado 102989" d="M2665.674,1586.488a11.084,11.084,0,0,0-4.052,7.809l.688.061s1.21-5.177,3.4-7.2S2665.674,1586.488,2665.674,1586.488Z" transform="translate(-2661.622 -1577.156)" fill="#77a4e5"/>
          </g>
        </g>
        <g id="Grupo_56241" data-name="Grupo 56241" transform="translate(0 11.368)">
          <path id="Trazado_102990" data-name="Trazado 102990" d="M2464.713,1412.154s7.122-3.988,3.8-9.4c0,0-2.659-3.323-5.508-4.178,0,0,1.52,8.071,0,8.261s-1.044-9.116-1.044-9.116-7.5-3.608-10.445-3.323c0,0,4.653,7.881,3.134,7.691s-6.742-8.166-6.742-8.166-7.691-1.424-8.926,3.134.76,6.837,1.9,7.121,8.451.19,8.261,1.14-5.128,2.469-7.881,1.614c0,0,3.039,7.5,7.027,7.122s5.222-2.849,7.691-3.039,4.273.475,3.039,1.14-5.412.218-7.406,1.913-3.608,2.74.1,3.5,10.35.285,11.679-2.564Z" transform="translate(-2438.591 -1393.712)" fill="#fdd835"/>
          <g id="Grupo_56240" data-name="Grupo 56240" transform="translate(3.903 4.769)">
            <path id="Trazado_102991" data-name="Trazado 102991" d="M2464.037,1424.8s19.94,6.457,22.219,13.673a15.151,15.151,0,0,0,1.9,6.932v1.424s-2.089-4.843-3.228-5.508C2484.927,1441.325,2489.389,1435.058,2464.037,1424.8Z" transform="translate(-2464.037 -1424.803)" fill="#77a4e5"/>
            <path id="Trazado_102992" data-name="Trazado 102992" d="M2616.026,1554.253a13.152,13.152,0,0,1,1.322,10.354l-.791-.212s.768-6.261-.841-9.41S2616.026,1554.253,2616.026,1554.253Z" transform="translate(-2591.908 -1533.647)" fill="#77a4e5"/>
          </g>
        </g>
        <g id="Grupo_56243" data-name="Grupo 56243" transform="translate(31.28 0)">
          <path id="Trazado_102993" data-name="Trazado 102993" d="M2648.707,1343.9s-9.387-5.257-5.007-12.392c0,0,3.5-4.381,7.26-5.507,0,0-2,10.639,0,10.889s1.377-12.016,1.377-12.016,9.888-4.756,13.768-4.381c0,0-6.133,10.389-4.131,10.139s8.887-10.764,8.887-10.764,10.139-1.878,11.766,4.131-1,9.012-2.5,9.387-11.14.25-10.889,1.5,6.759,3.254,10.389,2.128c0,0-4.005,9.888-9.262,9.387s-6.884-3.755-10.138-4.005-5.633.626-4.006,1.5,7.134.287,9.763,2.522,4.756,3.611-.125,4.613-13.644.375-15.4-3.38Z" transform="translate(-2642.535 -1319.594)" fill="#ffefac"/>
          <g id="Grupo_56242" data-name="Grupo 56242" transform="translate(1.213 6.286)">
            <path id="Trazado_102994" data-name="Trazado 102994" d="M2698.243,1360.576s-26.285,8.511-29.289,18.024a19.97,19.97,0,0,1-2.5,9.137v1.877s2.754-6.384,4.256-7.26C2670.707,1382.355,2664.824,1374.094,2698.243,1360.576Z" transform="translate(-2663.996 -1360.576)" fill="#ffefac"/>
            <path id="Trazado_102995" data-name="Trazado 102995" d="M2652.9,1531.215a17.336,17.336,0,0,0-1.743,13.649l1.043-.28s-1.012-8.253,1.108-12.4S2652.9,1531.215,2652.9,1531.215Z" transform="translate(-2650.447 -1504.054)" fill="#ffefac"/>
          </g>
        </g>
        <path id="Trazado_102996" data-name="Trazado 102996" d="M2579.207,1631.092A18.388,18.388,0,0,0,2597.6,1612.7h-36.777A18.388,18.388,0,0,0,2579.207,1631.092Z" transform="translate(-2542.071 -1567.747)" fill="#f57c00"/>
        <path id="Trazado_102997" data-name="Trazado 102997" d="M2596.1,1630.95a18.4,18.4,0,0,1-20.672-18.248H2580A18.392,18.392,0,0,0,2596.1,1630.95Z" transform="translate(-2554.443 -1567.746)" fill="#ffa726"/>
        <rect id="Rectángulo_9394" data-name="Rectángulo 9394" width="37.8" height="0.564" transform="translate(18.142 44.956)" fill="#9fc1f4"/>
      </g>
      <g id="Grupo_56269" data-name="Grupo 56269" transform="translate(-5461.401 -22500.328)">
        <g id="Grupo_56245" data-name="Grupo 56245" transform="translate(68.289 37.114)">
          <path id="Trazado_102998" data-name="Trazado 102998" d="M2022.82,1296.425l-18.07-75,1.262-2.952,17.9,77.942a.319.319,0,0,1-.311.39h-.3A.5.5,0,0,1,2022.82,1296.425Z" transform="translate(-2004.75 -1218.475)" fill="#636363"/>
        </g>
        <g id="Grupo_56268" data-name="Grupo 56268" transform="translate(0 0)">
          <g id="Grupo_56246" data-name="Grupo 56246" transform="translate(4.208 82.488)">
            <path id="Trazado_102999" data-name="Trazado 102999" d="M1587.55,1547.268h0a.6.6,0,0,1-.594-.7l5.322-32.258h2.281l-6.346,32.413A.675.675,0,0,1,1587.55,1547.268Z" transform="translate(-1586.948 -1514.31)" fill="#636363"/>
          </g>
          <g id="Grupo_56247" data-name="Grupo 56247" transform="translate(55.261 82.488)">
            <path id="Trazado_103000" data-name="Trazado 103000" d="M1920.412,1547.268h0a.6.6,0,0,1-.594-.7l5.322-32.258h2.281l-6.347,32.413A.675.675,0,0,1,1920.412,1547.268Z" transform="translate(-1919.81 -1514.31)" fill="#636363"/>
          </g>
          <path id="Trazado_103001" data-name="Trazado 103001" d="M1653.6,1059.054h-63.56L1603.2,976.5h63.56Z" transform="translate(-1585.354 -976.498)" fill="#f5fbff"/>
          <rect id="Rectángulo_9395" data-name="Rectángulo 9395" width="72.997" height="2.429" transform="translate(0 81.926)" fill="#636363"/>
          <g id="Grupo_56248" data-name="Grupo 56248" transform="translate(19.202 4.962)">
            <path id="Trazado_103002" data-name="Trazado 103002" d="M1708.523,1021.164a13.353,13.353,0,0,1-12.8,12.352c-6.569.011-11.486-5.5-10.985-12.311s6.232-12.341,12.8-12.352a11.032,11.032,0,0,1,3.878.684,10.633,10.633,0,0,1,4.357,3.019,11.1,11.1,0,0,1,1.191,1.66,10.957,10.957,0,0,1,.552,1.067,11.709,11.709,0,0,1,.935,3.3,12.578,12.578,0,0,1,.105,1.8Q1708.552,1020.772,1708.523,1021.164Z" transform="translate(-1684.704 -1008.853)" fill="#26ccda"/>
            <path id="Trazado_103003" data-name="Trazado 103003" d="M1773.359,1023.022l-10.885,5.9s4.491-7.91,6.335-10.93a10.728,10.728,0,0,1,2.808,2.3,11.213,11.213,0,0,1,1.743,2.727Z" transform="translate(-1750.546 -1016.593)" fill="#fff"/>
            <path id="Trazado_103004" data-name="Trazado 103004" d="M1785.934,1015.692l-9.943,5.392s4.1-7.225,5.787-9.983a9.791,9.791,0,0,1,2.564,2.1,10.1,10.1,0,0,1,1.088,1.516A9.947,9.947,0,0,1,1785.934,1015.692Z" transform="translate(-1761.99 -1010.755)" fill="#f99746"/>
          </g>
          <g id="Grupo_56254" data-name="Grupo 56254" transform="translate(10.866 46.091)">
            <g id="Grupo_56249" data-name="Grupo 56249">
              <path id="Trazado_103005" data-name="Trazado 103005" d="M1682.669,1307.2l-52.315,0,5.3-30.185,52.316,0Zm-51.893-.308,51.577,0,5.19-29.577-51.577,0Z" transform="translate(-1630.354 -1277.01)" fill="#bdd1f9"/>
            </g>
            <g id="Grupo_56251" data-name="Grupo 56251" transform="translate(2.798 16.707)">
              <path id="Trazado_103006" data-name="Trazado 103006" d="M1694.994,1402.649l-46.4,0s8.23-4.413,10.488-4.182,5.5,2.018,7.589,2.088,4.346-6.2,6.669-5.9,3.2,5.836,4.4,5.3a12.171,12.171,0,0,1,6.894,0c2.08.776,5.11-2.466,6.939-2.365S1694.994,1402.649,1694.994,1402.649Z" transform="translate(-1648.596 -1393.306)" fill="#f99746"/>
              <g id="Grupo_56250" data-name="Grupo 56250" transform="translate(2.119)">
                <path id="Trazado_103007" data-name="Trazado 103007" d="M1672.419,1386.41h-8.862l.083-.47h8.862Z" transform="translate(-1663.381 -1385.939)" fill="#f99746"/>
                <path id="Trazado_103008" data-name="Trazado 103008" d="M1671.271,1392.955h-8.862l.083-.47h8.862Z" transform="translate(-1662.409 -1391.48)" fill="#f99746"/>
              </g>
            </g>
            <g id="Grupo_56253" data-name="Grupo 56253" transform="translate(5.453 2.44)">
              <path id="Trazado_103009" data-name="Trazado 103009" d="M1665.905,1304l46.4,0s-6.681-4.415-9.021-4.183-6.211,2.017-8.321,2.086-2.172-6.2-4.6-5.9-5.245,5.836-6.258,5.295-4.541-.776-6.893,0-4.245-2.467-6.109-2.366S1665.905,1304,1665.905,1304Z" transform="translate(-1665.905 -1295.519)" fill="#26ccda"/>
              <g id="Grupo_56252" data-name="Grupo 56252" transform="translate(1.967)">
                <path id="Trazado_103010" data-name="Trazado 103010" d="M1688.742,1293.387h-8.862l.082-.47h8.862Z" transform="translate(-1679.704 -1292.916)" fill="#26ccda"/>
                <path id="Trazado_103011" data-name="Trazado 103011" d="M1687.593,1299.932h-8.862l.082-.47h8.862Z" transform="translate(-1678.731 -1298.457)" fill="#26ccda"/>
              </g>
            </g>
          </g>
          <g id="Grupo_56255" data-name="Grupo 56255" transform="translate(17.291 32.345)">
            <path id="Trazado_103012" data-name="Trazado 103012" d="M1674.284,1196.924h-2.035l1.768-9.536h2.035Z" transform="translate(-1672.249 -1187.388)" fill="#26ccda"/>
            <path id="Trazado_103013" data-name="Trazado 103013" d="M1692.358,1208.786h-2.035l1.37-7.387h2.035Z" transform="translate(-1687.551 -1199.25)" fill="#26ccda"/>
            <path id="Trazado_103014" data-name="Trazado 103014" d="M1710.433,1207.039H1708.4l1.428-7.7h2.035Z" transform="translate(-1702.854 -1197.503)" fill="#26ccda"/>
            <path id="Trazado_103015" data-name="Trazado 103015" d="M1728.508,1217.216h-2.035l1.087-5.86h2.035Z" transform="translate(-1718.156 -1207.68)" fill="#26ccda"/>
            <path id="Trazado_103016" data-name="Trazado 103016" d="M1746.582,1214.862h-2.035l1.166-6.286h2.035Z" transform="translate(-1733.458 -1205.326)" fill="#26ccda"/>
            <path id="Trazado_103017" data-name="Trazado 103017" d="M1764.657,1222.651h-2.035l.9-4.875h2.035Z" transform="translate(-1748.761 -1213.115)" fill="#26ccda"/>
          </g>
          <g id="Grupo_56256" data-name="Grupo 56256" transform="translate(44.514 32.345)">
            <path id="Trazado_103018" data-name="Trazado 103018" d="M1851.776,1196.924h-2.035l1.768-9.536h2.035Z" transform="translate(-1849.741 -1187.388)" fill="#f99746"/>
            <path id="Trazado_103019" data-name="Trazado 103019" d="M1869.85,1208.786h-2.035l1.37-7.387h2.035Z" transform="translate(-1865.043 -1199.25)" fill="#f99746"/>
            <path id="Trazado_103020" data-name="Trazado 103020" d="M1887.925,1207.039h-2.035l1.428-7.7h2.035Z" transform="translate(-1880.346 -1197.503)" fill="#f99746"/>
            <path id="Trazado_103021" data-name="Trazado 103021" d="M1906,1217.216h-2.035l1.087-5.86h2.035Z" transform="translate(-1895.648 -1207.68)" fill="#f99746"/>
            <path id="Trazado_103022" data-name="Trazado 103022" d="M1924.074,1214.862h-2.035l1.166-6.286h2.035Z" transform="translate(-1910.95 -1205.326)" fill="#f99746"/>
            <path id="Trazado_103023" data-name="Trazado 103023" d="M1942.149,1222.651h-2.035l.9-4.875h2.035Z" transform="translate(-1926.253 -1213.115)" fill="#f99746"/>
          </g>
          <g id="Grupo_56265" data-name="Grupo 56265" transform="translate(47.587 7.727)">
            <g id="Grupo_56257" data-name="Grupo 56257" transform="translate(2.136 2.117)">
              <path id="Trazado_103024" data-name="Trazado 103024" d="M1890.324,1041.593H1883.7l.17-.907h6.625Z" transform="translate(-1883.699 -1040.685)" fill="#26ccda"/>
              <path id="Trazado_103025" data-name="Trazado 103025" d="M1939.5,1041.593h-7.314l.17-.907h7.314Z" transform="translate(-1924.748 -1040.685)" fill="#26ccda"/>
              <path id="Trazado_103026" data-name="Trazado 103026" d="M1988.126,1041.593h-4.663l.17-.907h4.663Z" transform="translate(-1968.161 -1040.685)" fill="#26ccda"/>
              <path id="Trazado_103027" data-name="Trazado 103027" d="M2022.389,1041.593h-3.6l.17-.907h3.6Z" transform="translate(-1998.07 -1040.685)" fill="#26ccda"/>
            </g>
            <g id="Grupo_56258" data-name="Grupo 56258" transform="translate(1.409 5.989)">
              <path id="Trazado_103028" data-name="Trazado 103028" d="M1885.583,1066.837h-6.624l.17-.907h6.625Z" transform="translate(-1878.959 -1065.93)" fill="#26ccda"/>
              <path id="Trazado_103029" data-name="Trazado 103029" d="M1934.759,1066.837h-7.315l.17-.907h7.315Z" transform="translate(-1920.008 -1065.93)" fill="#26ccda"/>
              <path id="Trazado_103030" data-name="Trazado 103030" d="M1983.386,1066.837h-4.663l.17-.907h4.663Z" transform="translate(-1963.421 -1065.93)" fill="#26ccda"/>
              <path id="Trazado_103031" data-name="Trazado 103031" d="M2017.648,1066.837h-3.6l.17-.907h3.6Z" transform="translate(-1993.33 -1065.93)" fill="#26ccda"/>
            </g>
            <g id="Grupo_56259" data-name="Grupo 56259" transform="translate(2.533)">
              <path id="Trazado_103032" data-name="Trazado 103032" d="M1896.456,1027.787h-10.164l.17-.908h10.164Z" transform="translate(-1886.292 -1026.88)" fill="#26ccda"/>
              <path id="Trazado_103033" data-name="Trazado 103033" d="M1964.729,1027.787h-5.859l.17-.908h5.859Z" transform="translate(-1947.738 -1026.88)" fill="#26ccda"/>
              <path id="Trazado_103034" data-name="Trazado 103034" d="M2008.962,1027.787h-6.506l.17-.908h6.506Z" transform="translate(-1984.639 -1026.88)" fill="#26ccda"/>
            </g>
            <g id="Grupo_56260" data-name="Grupo 56260" transform="translate(1.76 4.117)">
              <path id="Trazado_103035" data-name="Trazado 103035" d="M1891.416,1054.629h-10.164l.17-.908h10.164Z" transform="translate(-1881.252 -1053.722)" fill="#26ccda"/>
              <path id="Trazado_103036" data-name="Trazado 103036" d="M1959.688,1054.629h-5.858l.17-.908h5.858Z" transform="translate(-1942.698 -1053.722)" fill="#26ccda"/>
              <path id="Trazado_103037" data-name="Trazado 103037" d="M2003.922,1054.629h-6.506l.17-.908h6.506Z" transform="translate(-1979.599 -1053.722)" fill="#26ccda"/>
            </g>
            <g id="Grupo_56261" data-name="Grupo 56261" transform="translate(0.682 9.861)">
              <path id="Trazado_103038" data-name="Trazado 103038" d="M1880.843,1092.081h-6.625l.17-.907h6.625Z" transform="translate(-1874.219 -1091.174)" fill="#26ccda"/>
              <path id="Trazado_103039" data-name="Trazado 103039" d="M1930.018,1092.081H1922.7l.17-.907h7.314Z" transform="translate(-1915.267 -1091.174)" fill="#26ccda"/>
              <path id="Trazado_103040" data-name="Trazado 103040" d="M1978.645,1092.081h-4.663l.171-.907h4.663Z" transform="translate(-1958.68 -1091.174)" fill="#26ccda"/>
              <path id="Trazado_103041" data-name="Trazado 103041" d="M2012.908,1092.081h-3.6l.17-.907h3.6Z" transform="translate(-1988.59 -1091.174)" fill="#26ccda"/>
            </g>
            <g id="Grupo_56262" data-name="Grupo 56262" transform="translate(1.033 7.989)">
              <path id="Trazado_103042" data-name="Trazado 103042" d="M1886.674,1079.874h-10.164l.171-.907h10.164Z" transform="translate(-1876.511 -1078.967)" fill="#26ccda"/>
              <path id="Trazado_103043" data-name="Trazado 103043" d="M1954.948,1079.874h-5.859l.17-.907h5.859Z" transform="translate(-1937.957 -1078.967)" fill="#26ccda"/>
              <path id="Trazado_103044" data-name="Trazado 103044" d="M1999.181,1079.874h-6.506l.17-.907h6.506Z" transform="translate(-1974.858 -1078.967)" fill="#26ccda"/>
            </g>
            <g id="Grupo_56263" data-name="Grupo 56263" transform="translate(0 13.491)">
              <path id="Trazado_103045" data-name="Trazado 103045" d="M1876.4,1115.748h-6.625l.17-.907h6.625Z" transform="translate(-1869.774 -1114.841)" fill="#26ccda"/>
              <path id="Trazado_103046" data-name="Trazado 103046" d="M1925.574,1115.748h-7.314l.17-.907h7.314Z" transform="translate(-1910.823 -1114.841)" fill="#26ccda"/>
              <path id="Trazado_103047" data-name="Trazado 103047" d="M1974.2,1115.748h-4.664l.171-.907h4.663Z" transform="translate(-1954.236 -1114.841)" fill="#26ccda"/>
              <path id="Trazado_103048" data-name="Trazado 103048" d="M2008.464,1115.748h-3.6l.17-.907h3.6Z" transform="translate(-1984.145 -1114.841)" fill="#26ccda"/>
            </g>
            <g id="Grupo_56264" data-name="Grupo 56264" transform="translate(0.352 11.619)">
              <path id="Trazado_103049" data-name="Trazado 103049" d="M1882.23,1103.54h-10.164l.17-.907H1882.4Z" transform="translate(-1872.066 -1102.633)" fill="#26ccda"/>
              <path id="Trazado_103050" data-name="Trazado 103050" d="M1950.5,1103.54h-5.859l.17-.907h5.859Z" transform="translate(-1933.513 -1102.633)" fill="#26ccda"/>
              <path id="Trazado_103051" data-name="Trazado 103051" d="M1994.737,1103.54h-6.506l.17-.907h6.506Z" transform="translate(-1970.414 -1102.633)" fill="#26ccda"/>
            </g>
          </g>
          <g id="Grupo_56266" data-name="Grupo 56266" transform="translate(35.538 32.283)">
            <path id="Trazado_103052" data-name="Trazado 103052" d="M1796.777,1194.182h-3.242l.083-.444h3.242Z" transform="translate(-1793.178 -1192.702)" fill="#bdd1f9"/>
            <path id="Trazado_103053" data-name="Trazado 103053" d="M1820.846,1194.182h-3.58l.084-.444h3.58Z" transform="translate(-1813.27 -1192.702)" fill="#bdd1f9"/>
            <path id="Trazado_103054" data-name="Trazado 103054" d="M1794.456,1206.539h-3.243l.083-.444h3.243Z" transform="translate(-1791.214 -1203.163)" fill="#bdd1f9"/>
            <path id="Trazado_103055" data-name="Trazado 103055" d="M1818.525,1206.539h-3.58l.083-.444h3.58Z" transform="translate(-1811.305 -1203.163)" fill="#bdd1f9"/>
            <path id="Trazado_103056" data-name="Trazado 103056" d="M1799.777,1187.426H1794.8l.084-.444h4.975Z" transform="translate(-1794.252 -1186.981)" fill="#bdd1f9"/>
            <path id="Trazado_103057" data-name="Trazado 103057" d="M1833.195,1187.426h-2.868l.083-.444h2.868Z" transform="translate(-1824.328 -1186.981)" fill="#bdd1f9"/>
            <path id="Trazado_103058" data-name="Trazado 103058" d="M1797.311,1200.564h-4.975l.083-.444h4.975Z" transform="translate(-1792.164 -1198.105)" fill="#bdd1f9"/>
            <path id="Trazado_103059" data-name="Trazado 103059" d="M1830.728,1200.564h-2.867l.083-.444h2.867Z" transform="translate(-1822.24 -1198.105)" fill="#bdd1f9"/>
          </g>
          <g id="Grupo_56267" data-name="Grupo 56267" transform="translate(61.512 32.283)">
            <path id="Trazado_103060" data-name="Trazado 103060" d="M1966.124,1194.182h-3.242l.083-.444h3.243Z" transform="translate(-1962.526 -1192.702)" fill="#bdd1f9"/>
            <path id="Trazado_103061" data-name="Trazado 103061" d="M1990.194,1194.182h-3.58l.083-.444h3.58Z" transform="translate(-1982.619 -1192.702)" fill="#bdd1f9"/>
            <path id="Trazado_103062" data-name="Trazado 103062" d="M1963.8,1206.539h-3.242l.083-.444h3.243Z" transform="translate(-1960.563 -1203.163)" fill="#bdd1f9"/>
            <path id="Trazado_103063" data-name="Trazado 103063" d="M1987.874,1206.539h-3.58l.083-.444h3.58Z" transform="translate(-1980.654 -1203.163)" fill="#bdd1f9"/>
            <path id="Trazado_103064" data-name="Trazado 103064" d="M1969.126,1187.426h-4.975l.083-.444h4.975Z" transform="translate(-1963.601 -1186.981)" fill="#bdd1f9"/>
            <path id="Trazado_103065" data-name="Trazado 103065" d="M2002.543,1187.426h-2.868l.084-.444h2.867Z" transform="translate(-1993.677 -1186.981)" fill="#bdd1f9"/>
            <path id="Trazado_103066" data-name="Trazado 103066" d="M1966.658,1200.564h-4.975l.083-.444h4.975Z" transform="translate(-1961.511 -1198.105)" fill="#bdd1f9"/>
            <path id="Trazado_103067" data-name="Trazado 103067" d="M2000.076,1200.564h-2.868l.083-.444h2.868Z" transform="translate(-1991.588 -1198.105)" fill="#bdd1f9"/>
          </g>
        </g>
      </g>
      <g id="Grupo_56273" data-name="Grupo 56273" transform="translate(-5393.986 -22524.102)">
        <g id="Grupo_56270" data-name="Grupo 56270" transform="translate(0 127.311)">
          <path id="Trazado_103068" data-name="Trazado 103068" d="M2014,1662.22c-.114,1.552-2.3,1.568-4.788,1.28s-1.824.34-5.3.389-4.678-1.1-4.846-1.6c-.15-.441,1.525-.812,3.318-1.249.226-.054.452-.111.678-.168,2.021-.514,3.359-2.026,5.089-3.347,1.638-1.251,3.75-5.779,3.75-5.779l4.752-.215s-2,4.059-2.753,5.809a5.732,5.732,0,0,0-.062,3.264A6.08,6.08,0,0,1,2014,1662.22Z" transform="translate(-1999.051 -1651.533)" fill="#ffb27d"/>
          <path id="Trazado_103069" data-name="Trazado 103069" d="M2009.209,1713.582c-2.485-.288-1.824.34-5.3.389s-4.678-1.1-4.846-1.6c-.15-.441,1.525-.812,3.318-1.249l.021.033a9.748,9.748,0,0,0,5.1.914c2.335-.234,4.717-1.209,6.328-1.383a6.08,6.08,0,0,1,.165,1.614C2013.883,1713.854,2011.693,1713.87,2009.209,1713.582Z" transform="translate(-1999.051 -1701.615)" fill="#233862"/>
        </g>
        <g id="Grupo_56271" data-name="Grupo 56271" transform="translate(32.82 124.454)">
          <path id="Trazado_103070" data-name="Trazado 103070" d="M2227.981,1646.773c-.112,1.552-2.3,1.571-4.787,1.285s-1.824.342-5.3.394-4.679-1.1-4.848-1.594c-.151-.441,1.524-.814,3.316-1.252.226-.054.451-.112.678-.169,2.021-.516,3.357-2.03,5.085-3.352,1.637-1.253,0-8.669,0-8.669l5.227-.509s-.251,6.245-.248,9.084a15.988,15.988,0,0,0,.71,3.168A6.1,6.1,0,0,1,2227.981,1646.773Z" transform="translate(-2213.035 -1632.907)" fill="#ffb27d"/>
          <path id="Trazado_103071" data-name="Trazado 103071" d="M2223.194,1715.686c-2.485-.286-1.824.342-5.3.394s-4.679-1.1-4.848-1.594c-.151-.441,1.524-.814,3.316-1.252l.021.033a9.753,9.753,0,0,0,5.106.909c2.334-.236,4.716-1.213,6.327-1.39a6.1,6.1,0,0,1,.166,1.614C2227.869,1715.953,2225.679,1715.972,2223.194,1715.686Z" transform="translate(-2213.035 -1700.535)" fill="#233862"/>
        </g>
        <path id="Trazado_103072" data-name="Trazado 103072" d="M2209.365,831.611c-.9-3.7.4-5.424,1.582-6.342a5.607,5.607,0,0,1,1.846-2.714,6.666,6.666,0,0,1,3.607-.69,1.688,1.688,0,0,0-.761-.361,5.592,5.592,0,0,1,2,.521c8.589-3.309,9.938,9.336,9.758,12.274s-.156,6.4,4.313,8.713c8.525,4.417-2.833,21.061-2.833,21.061.217-2.374-10.738-14.9-16.453-18.655a16.52,16.52,0,0,1-1.923-5.951,15.616,15.616,0,0,0,1.17,5.384C2209.061,842.452,2208.675,836.7,2209.365,831.611Z" transform="translate(-2176.853 -821.477)" fill="#a9453d"/>
        <path id="Trazado_103073" data-name="Trazado 103073" d="M2233.146,932.075c-.029.013,2.76,1.461,4.857.887,1.972-.538,3.261-3.1,3.234-3.1-.835-.166-1.076-1.314-1.059-6.247l-.378.074-6.35,1.257s.144,2,.148,3.881C2233.6,930.407,2233.508,931.907,2233.146,932.075Z" transform="translate(-2197.241 -907.949)" fill="#ffb27d"/>
        <path id="Trazado_103074" data-name="Trazado 103074" d="M2235.135,925.356s.145,2,.149,3.881c3.553-.1,5.432-3.342,6.2-5.138Z" transform="translate(-2198.925 -908.359)" fill="#ed975d"/>
        <path id="Trazado_103075" data-name="Trazado 103075" d="M2066.271,1278.575a1.558,1.558,0,0,0,1.412,2.03l2.481.116,2.625.08a2.109,2.109,0,0,0,1.7-.776,73.8,73.8,0,0,0,12.456-23.584q.166-.523.349-1.06c2.583-7.533,7.939-16.989,10.762-25.548.449-1.363.853-2.646,1.215-3.861.116-.389.229-.771.336-1.147a90.763,90.763,0,0,0,3.237-17.042l-20.381.163A448.958,448.958,0,0,1,2066.271,1278.575Z" transform="translate(-2055.898 -1148.533)" fill="#2a4e96"/>
        <path id="Trazado_103076" data-name="Trazado 103076" d="M2174.542,986.7c.052,9.7-1.423,13.859-1.423,13.859a27.386,27.386,0,0,0,19.1,1.17c.122-.038,7.42-2.1,7.42-2.1-.174-.393-1.615-6.882-1.785-7.242-2.189-4.7-2.787-6.677-3.046-8.122a30.748,30.748,0,0,1-.252-8.125,65.2,65.2,0,0,1,2.515-12.76,66.238,66.238,0,0,1-8.413-2.876,6.571,6.571,0,0,1-4.539,1.684c-2.066-.046-2.736-.93-2.628-1.9-2.2,1.225-3.958,2.382-3.958,2.382-1.871,3.25-5.666,6.406-5.941,11.392C2171.521,975.286,2174.54,986.427,2174.542,986.7Z" transform="translate(-2145.124 -938.996)" fill="#fff"/>
        <path id="Trazado_103077" data-name="Trazado 103077" d="M2288.226,1046.507c.891,1.261,2.6,8.925,6.849,9.888-2.19-5.462-3.853-7.857-4.112-9.537a41.422,41.422,0,0,1-.252-9.438c-1.422-2.493-2.484-4.2-2.484-4.2-.112-.4-2.26-7.048-2.949-1.108S2287.231,1045.1,2288.226,1046.507Z" transform="translate(-2241.281 -997.723)" fill="#5f9aa8"/>
        <path id="Trazado_103078" data-name="Trazado 103078" d="M2211.941,865.612s8.407.139,8.413-5.1,1.1-8.746-4.272-9.056-6.413,1.687-6.84,3.435S2209.754,865.441,2211.941,865.612Z" transform="translate(-2176.918 -846.832)" fill="#ffb27d"/>
        <path id="Trazado_103079" data-name="Trazado 103079" d="M2229.426,844.922s2.3,6.144,5.834,7.052,5.065-.038,5.065-.038a10,10,0,0,1-3.272-5.91S2231.162,842,2229.426,844.922Z" transform="translate(-2194.092 -840.425)" fill="#a9453d"/>
        <path id="Trazado_103080" data-name="Trazado 103080" d="M2209.648,848.52a7.422,7.422,0,0,0-2.138,2.705c-.419,1.334-.608,4.079-1.408,3.986,0,0-1.734-4.176.215-6.538C2208.383,846.167,2209.648,848.52,2209.648,848.52Z" transform="translate(-2173.743 -843.524)" fill="#a9453d"/>
        <path id="Trazado_103081" data-name="Trazado 103081" d="M2119.228,1176.382l-3.971,12.107,2.265.908,6.565-10.7Z" transform="translate(-2097.434 -1121.948)" fill="#ffb27d"/>
        <path id="Trazado_103082" data-name="Trazado 103082" d="M2146.406,971.168s-4.682,1.858-6.037,4.755-3.407,22.327-4.224,24.323-1.432,3.575-1.432,3.575a9.766,9.766,0,0,0,4.735,2.135C2141.822,1006.1,2146.406,971.168,2146.406,971.168Z" transform="translate(-2113.905 -948.209)" fill="#ffa726"/>
        <path id="Trazado_103083" data-name="Trazado 103083" d="M2165.855,960.286s-4.865,12.017-5.008,14.448-.572,39.769-.572,39.769.286,1.717-3,1-4.149-1.431-4.149-1.431,3.147-23.031,2.289-31.042,6.58-21.077,6.58-21.077Z" transform="translate(-2129.492 -938.996)" fill="#ffa726"/>
        <path id="Trazado_103084" data-name="Trazado 103084" d="M2092.063,1362.219l2.85.087a1.647,1.647,0,0,0,1.322-.6,73.553,73.553,0,0,0,12.608-23.77c.11-.349.226-.7.349-1.06,2.583-7.533,7.939-16.989,10.762-25.548.449-1.363.853-2.647,1.215-3.861.116-.389.229-.771.336-1.147l-3-2.277s-9.011,14.591-11.8,28.323C2104.28,1344.3,2094.575,1358.65,2092.063,1362.219Z" transform="translate(-2077.797 -1230.032)" fill="#1e3d70"/>
        <path id="Trazado_103085" data-name="Trazado 103085" d="M2251.354,1312.273c-.049,6.317.251,20.4,1.02,27.281a1.243,1.243,0,0,0,1.237,1.105h2.126c.9,0,1.567-.007,2.012-.013a.818.818,0,0,0,.789-.66c2.115-10.761,3.628-19.7,4.736-27.426.927-6.466,1.751-12.009,2.385-16.781.638-4.8,1.081-8.823,1.24-12.221.024-.535.042-1.055.052-1.561s.013-1,.009-1.481l-17.61-1.716C2249.574,1290.5,2251.383,1308.392,2251.354,1312.273Z" transform="translate(-2210.962 -1208.656)" fill="#2a4e96"/>
        <path id="Trazado_103086" data-name="Trazado 103086" d="M2290.986,1366.922c.805,0,1.428-.005,1.87-.011a.993.993,0,0,0,.959-.8c2.1-10.7,3.606-19.6,4.709-27.288.927-6.466,1.75-12.009,2.385-16.781.638-4.8,1.082-8.823,1.24-12.221l-6.462,3.8s4.124,1.455,2.551,12.47S2293.176,1365.363,2290.986,1366.922Z" transform="translate(-2246.21 -1234.919)" fill="#1e3d70"/>
        <path id="Trazado_103087" data-name="Trazado 103087" d="M2252.348,1015.139s1.24,4.482,5.532,3.91a51.722,51.722,0,0,0,10.394-3.147s-1.834-5.795-4.114-13.408c-2.761-9.217-6.178-21.1-7.789-28.594a46.417,46.417,0,0,1-.876-5.11l-3.56-6.908s-5.309,11.915-5.595,14.919S2252.348,1015.139,2252.348,1015.139Z" transform="translate(-2208.404 -940.347)" fill="#ffa726"/>
        <path id="Trazado_103088" data-name="Trazado 103088" d="M2221.942,976.353l-4.7-14.471a72.535,72.535,0,0,1,8.914,3.267s1.862,2.4,3.014,7.939c0,0,1.217,13.3-1.5,18.161,0,0-8.583,1.717-22.316-3V985.1s15.021.787,18.1,1.145Z" transform="translate(-2173.712 -940.347)" fill="#ffb27d"/>
        <path id="Trazado_103089" data-name="Trazado 103089" d="M2286.784,1049.432c.192,4.864,1.336,14.305,11.54,19.359.027.013.054.027.082.039-2.761-9.217-6.178-21.1-7.789-28.594C2288.742,1043.038,2286.679,1046.755,2286.784,1049.432Z" transform="translate(-2242.649 -1006.684)" fill="#f57c00"/>
        <path id="Trazado_103090" data-name="Trazado 103090" d="M2280.087,961.882s8.711.614,10.809,5.287,2.766,20.218.1,24.8c0,0-3.676,1.047-10.179-.169l-.24-.046s-2.074-5.078-.215-6.08c0,0,5.484.286,4.912-1.526S2280.087,961.882,2280.087,961.882Z" transform="translate(-2236.556 -940.347)" fill="#ffa726"/>
        <g id="Grupo_56272" data-name="Grupo 56272" transform="translate(20.656 42.249)">
          <path id="Trazado_103091" data-name="Trazado 103091" d="M2140.469,1101.382l.256.825,14.294-4.446a.551.551,0,0,0,.1-.506.405.405,0,0,0-.354-.319Z" transform="translate(-2139.435 -1096.935)" fill="#a9453d"/>
          <path id="Trazado_103092" data-name="Trazado 103092" d="M2133.729,1126.705l1.034-.779.257.825Z" transform="translate(-2133.729 -1121.479)" fill="#a9453d"/>
        </g>
        <path id="Trazado_103093" data-name="Trazado 103093" d="M2095.02,1253.157s-3.626,2-4.1,3.531-.149,4.723.426,4.676,1.434-3.435,1.912-3.674,1.145-.954,1.145-.429-.477,1.479-.239,1.622,1-1.335,1.527-1.622.745-2.646,1.255-3.279S2095.02,1253.157,2095.02,1253.157Z" transform="translate(-2076.633 -1186.947)" fill="#ffb27d"/>
        <path id="Trazado_103094" data-name="Trazado 103094" d="M2160.052,1103.743s-3.243-2-4.6-1.69-4.827,2.818-3.16,3.362,3.018-.027,3.659.368,1.115,1.117,4.1,1.107S2160.052,1103.743,2160.052,1103.743Z" transform="translate(-2128.41 -1058.992)" fill="#ffb27d"/>
      </g>
      <g id="Grupo_56283" data-name="Grupo 56283" transform="translate(-5541.732 -22493.465)">
        <g id="Grupo_56277" data-name="Grupo 56277" transform="translate(6.061 35.469)" opacity="0.6">
          <g id="Grupo_56274" data-name="Grupo 56274" transform="translate(15.662 35.341)">
            <path id="Trazado_103095" data-name="Trazado 103095" d="M1178.012,1520.673h-.053a.562.562,0,0,1-.562-.575l.852-36.9,2.508-.292-2.139,37.2A.607.607,0,0,1,1178.012,1520.673Z" transform="translate(-1177.397 -1482.903)" fill="#636363"/>
          </g>
          <g id="Grupo_56275" data-name="Grupo 56275" transform="translate(1.047 35.341)">
            <path id="Trazado_103096" data-name="Trazado 103096" d="M1082.723,1520.673h-.054a.561.561,0,0,1-.561-.575l.851-36.9,2.508-.292-2.139,37.2A.607.607,0,0,1,1082.723,1520.673Z" transform="translate(-1082.108 -1482.903)" fill="#636363"/>
          </g>
          <g id="Grupo_56276" data-name="Grupo 56276" transform="translate(39.247 35.341)">
            <path id="Trazado_103097" data-name="Trazado 103097" d="M1333.914,1520.673h.053a.562.562,0,0,0,.562-.575l-.852-36.9-2.508-.292,2.139,37.2A.607.607,0,0,0,1333.914,1520.673Z" transform="translate(-1331.169 -1482.903)" fill="#636363"/>
          </g>
          <path id="Trazado_103098" data-name="Trazado 103098" d="M1075.283,1285.83v-25.288a8.057,8.057,0,0,1,8.057-8.057h18.219a8.057,8.057,0,0,1,8.057,8.057V1286.8Z" transform="translate(-1075.283 -1252.486)" fill="#636363"/>
          <path id="Rectángulo_9396" data-name="Rectángulo 9396" d="M0,0H37.6a0,0,0,0,1,0,0V3.992a0,0,0,0,1,0,0H3.992A3.992,3.992,0,0,1,0,0V0A0,0,0,0,1,0,0Z" transform="translate(0 33.344)" fill="#636363"/>
          <path id="Rectángulo_9397" data-name="Rectángulo 9397" d="M2,0h26.2a2,2,0,0,1,2,2V2a2,2,0,0,1-2,2H2A2,2,0,0,1,0,2V2A2,2,0,0,1,2,0Z" transform="translate(13.41 33.344)" fill="#636363"/>
        </g>
        <g id="Grupo_56282" data-name="Grupo 56282" transform="translate(0 0)">
          <path id="Trazado_103099" data-name="Trazado 103099" d="M1459.535,1584.236c.254,1.271,2.066,1.059,4.09.564s1.543.094,4.424-.225,3.753-1.393,3.841-1.821c.079-.38-1.345-.514-2.872-.69-.192-.022-.385-.045-.578-.069-1.724-.216-2.986-1.328-4.552-2.242-1.483-.865-3.7-4.391-3.7-4.391l-3.951.313s2.073,3.149,2.875,4.518a4.775,4.775,0,0,1,.388,2.692A5.066,5.066,0,0,0,1459.535,1584.236Z" transform="translate(-1391.75 -1490.371)" fill="#ffb27d"/>
          <path id="Trazado_103100" data-name="Trazado 103100" d="M1481.47,1621.8c2.024-.495,1.543.093,4.424-.225s3.753-1.393,3.842-1.821c.078-.38-1.345-.514-2.872-.69l-.014.029a8.121,8.121,0,0,1-4.126,1.282c-1.954.048-4.025-.512-5.374-.491a5.087,5.087,0,0,0,.03,1.352C1477.634,1622.5,1479.446,1622.291,1481.47,1621.8Z" transform="translate(-1409.595 -1527.366)" fill="#233862"/>
          <path id="Trazado_103101" data-name="Trazado 103101" d="M1255.09,1625.4c-.785,1.032.572,2.25,2.282,3.441s.951,1.219,3.1,3.168,3.528,1.893,3.907,1.676c.337-.193-.5-1.349-1.382-2.61-.111-.158-.221-.319-.33-.479-.978-1.436-.979-3.118-1.33-4.9-.332-1.685,2.419-7.876,2.419-7.876l-4.42-.556a49.42,49.42,0,0,1-1.074,5.246c-.292.886-1.52,1.471-2.175,1.971A5.07,5.07,0,0,0,1255.09,1625.4Z" transform="translate(-1221.257 -1525.846)" fill="#ffb27d"/>
          <path id="Trazado_103102" data-name="Trazado 103102" d="M1257.372,1668.672c1.71,1.191.951,1.219,3.1,3.168s3.528,1.894,3.907,1.676c.337-.192-.5-1.349-1.382-2.61l-.031.009a8.12,8.12,0,0,1-3.691-2.245c-1.329-1.435-2.278-3.357-3.187-4.355a5.06,5.06,0,0,0-.993.917C1254.3,1666.263,1255.662,1667.482,1257.372,1668.672Z" transform="translate(-1221.257 -1565.681)" fill="#233862"/>
          <path id="Trazado_103103" data-name="Trazado 103103" d="M1292.26,1425.713l-4.037,10.862-5.27,14.183a8.534,8.534,0,0,1-2.8-.256,12.142,12.142,0,0,1-2.708-1.318s1.463-15.228,4.193-23.969a15.563,15.563,0,0,1,2.349-5.08C1288.22,1415.132,1292.26,1425.713,1292.26,1425.713Z" transform="translate(-1240.378 -1357.815)" fill="#163560"/>
          <path id="Trazado_103104" data-name="Trazado 103104" d="M1131.754,1339.476c-2.644-.853-10.613-.344-18.19,1.139l-1.16-2.03-16.365-1.278s-5.4,11.976-2.444,19.607a2.767,2.767,0,0,0,2.77,1.865h.239s9.74-.006,12.9-.006c8.139,0,17.224-5.595,18.4-5.83,1.924-.385,2.693,3.463,4.617,7.5s18.083,17.891,18.083,17.891a14.225,14.225,0,0,0,3.51-.36,3.456,3.456,0,0,0,1.507-.951S1137.717,1341.4,1131.754,1339.476Z" transform="translate(-1083.975 -1288.829)" fill="#2a4e96"/>
          <path id="Trazado_103105" data-name="Trazado 103105" d="M1071.584,1021.452a17.251,17.251,0,0,0-5.951.156c-6.215.725-7.6,10.38-7.142,13.08.852,4.976-1.538,6.378-4.39,10.359-5.719,7.981-1.769,14.552,2.887,16.181,2.793.977,6.6-1.683,6.6-1.683.07.026,9.881-9.342,14.735-13.891C1086.48,1042.29,1077.454,1022.85,1071.584,1021.452Z" transform="translate(-1048.887 -1021.232)" fill="#233862"/>
          <path id="Trazado_103106" data-name="Trazado 103106" d="M1144.788,1129.612c.029.01-2.53,1.682-4.616,1.33-1.962-.329-4.038-2.89-4.012-2.9.793-.242,1.494-1.168,1-5.942l.373.035,6.27.6s.054,1.949.232,3.772C1144.183,1128.042,1144.421,1129.484,1144.788,1129.612Z" transform="translate(-1120.761 -1106.631)" fill="#ffb27d"/>
          <path id="Trazado_103107" data-name="Trazado 103107" d="M1151.374,1122.934s.054,1.949.232,3.772c-3.45.248-5.583-2.709-6.5-4.374Z" transform="translate(-1128.334 -1106.826)" fill="#ed975d"/>
          <path id="Trazado_103108" data-name="Trazado 103108" d="M1143.8,1062.208s-8.127.949-8.64-4.12-1.908-8.362,3.259-9.183,6.373,1.012,6.956,2.662S1145.9,1061.831,1143.8,1062.208Z" transform="translate(-1119.44 -1044.49)" fill="#ffb27d"/>
          <path id="Trazado_103109" data-name="Trazado 103109" d="M1131.4,1044.772s-3.925,5.618-7.257,6.84-4.908.454-4.908.454a13.786,13.786,0,0,0,2.114-5.2,2.482,2.482,0,0,1,1.622-1.924C1125.362,1044.107,1129.969,1042.83,1131.4,1044.772Z" transform="translate(-1106.434 -1040.297)" fill="#233862"/>
          <path id="Trazado_103110" data-name="Trazado 103110" d="M1177.4,1045.053a12.782,12.782,0,0,1,2.936,2.269,9.815,9.815,0,0,1,1.547,4.99s1.322-5.767-.795-7.865C1178.846,1042.223,1177.4,1045.053,1177.4,1045.053Z" transform="translate(-1155.678 -1040.164)" fill="#233862"/>
          <path id="Trazado_103111" data-name="Trazado 103111" d="M1113.04,1171.967c-.245,16.415-.067,12.985-1.863,14.543a6.9,6.9,0,0,1-3.25.7c-5.034.334-13.882-.5-14.218-1.425-1.161-3.219-.341-4.219-1.31-9.146-.1-.524-.226-1.091-.373-1.709-.807-3.384-1.594-4.536,1.272-9.973,2.6-4.925,5.4-8.86,5.647-8.716,6.855,4.07,7.3.586,7.3.586S1113.16,1163.96,1113.04,1171.967Z" transform="translate(-1082.764 -1135.534)" fill="#fff"/>
          <path id="Trazado_103112" data-name="Trazado 103112" d="M1287.212,1472.029l-5.39,14.773a9.1,9.1,0,0,1-3.346.426,4.189,4.189,0,0,1-2.224-.993s1.647-16.825,4.376-25.567Z" transform="translate(-1239.366 -1393.269)" fill="#2a4e96"/>
          <path id="Trazado_103113" data-name="Trazado 103113" d="M1188.872,1160.08s7.054,1.2,7.883,4.233,6.886,19.774,6.886,19.774-4.769,1.763-6.426.106-5.765-15.37-5.765-15.37Z" transform="translate(-1165.389 -1138.784)" fill="#fff"/>
          <path id="Trazado_103114" data-name="Trazado 103114" d="M1114.111,1270.158c-5.033.334-13.882-.5-14.218-1.425-1.161-3.219-.342-4.219-1.31-9.146l2.361-5.375s-.335,6.151,1.911,8.154,9.192,3.865,10.283,5.538A6.119,6.119,0,0,1,1114.111,1270.158Z" transform="translate(-1088.948 -1218.478)" fill="#dfebfd"/>
          <g id="Grupo_56278" data-name="Grupo 56278" transform="translate(18.543 46.625)">
            <path id="Trazado_103115" data-name="Trazado 103115" d="M1202.5,1335.344a11.2,11.2,0,0,0,1.926,1.4,1.186,1.186,0,0,0,.669.008l-1.093-1.28Z" transform="translate(-1195.467 -1333.791)" fill="#ffb27d"/>
            <path id="Trazado_103116" data-name="Trazado 103116" d="M1198.624,1325.41l3.8.98a.628.628,0,0,1-.528.337,8.416,8.416,0,0,1-1.582-.109Z" transform="translate(-1192.188 -1325.381)" fill="#ffb27d"/>
            <path id="Trazado_103117" data-name="Trazado 103117" d="M1156.664,1327.342s5.418-2.411,6.436-2.092a13.6,13.6,0,0,1,4.035,2.281c.409.582-2.136-.072-2.931-.122a6.855,6.855,0,0,0-2.3,1.015,8.169,8.169,0,0,1-4.231,1.307Z" transform="translate(-1156.664 -1325.221)" fill="#ffb27d"/>
          </g>
          <path id="Trazado_103118" data-name="Trazado 103118" d="M1051.945,1156.266s-7.667,1.439-9.087,3.564c-3.1,4.636-9.695,23.845-6,26.421,4.16,2.9,18.934.759,18.934.759s.492-2.3-.192-3.41-11.8-2.907-12.313-3.42,5.068-7.931,4.474-9.351C1045.855,1166.28,1051.945,1156.266,1051.945,1156.266Z" transform="translate(-1035.764 -1135.555)" fill="#fff"/>
          <g id="Grupo_56279" data-name="Grupo 56279" transform="translate(45.805 47.927)">
            <path id="Trazado_103119" data-name="Trazado 103119" d="M1335.09,1333.711s5.365,1.449,5.916,2.282a12.737,12.737,0,0,1,1.586,4.043c-.046.665-1.51-1.315-2.059-1.821a6.41,6.41,0,0,0-2.275-.623,6.778,6.778,0,0,1-2.961-1.352,1.624,1.624,0,0,0-.888-.2Z" transform="translate(-1334.409 -1333.711)" fill="#ffb27d"/>
            <path id="Trazado_103120" data-name="Trazado 103120" d="M1374.368,1358.1a10.5,10.5,0,0,0,.575,2.154,1.113,1.113,0,0,0,.482.4l-.038-1.577Z" transform="translate(-1368.239 -1354.36)" fill="#ffb27d"/>
            <path id="Trazado_103121" data-name="Trazado 103121" d="M1377.423,1348.588l2.181,2.955a.589.589,0,0,1-.583-.067,7.875,7.875,0,0,1-1.086-1.014Z" transform="translate(-1370.826 -1346.306)" fill="#ffb27d"/>
            <path id="Trazado_103122" data-name="Trazado 103122" d="M1340.2,1350.2a3.38,3.38,0,0,0,1.49,1.64c.993.433,1.722,1.083,1.881.849s-.752-1.464-.752-1.464Z" transform="translate(-1339.308 -1347.672)" fill="#ffb27d"/>
          </g>
          <path id="Trazado_103123" data-name="Trazado 103123" d="M1248.267,1290.8l11.283,7.133a9.337,9.337,0,0,1-1.58,1.73c-2.09.766-11.486.032-14.7-4.8Z" transform="translate(-1211.439 -1249.453)" fill="#fff"/>
          <g id="Grupo_56281" data-name="Grupo 56281" transform="translate(20.817 48.566)">
            <path id="Trazado_103124" data-name="Trazado 103124" d="M1245.209,1338.811c.666,0,7.289-.459,7.289-.459a3.133,3.133,0,0,0,.218,1.8l-6.454,1.235-1.327-.389Z" transform="translate(-1233.67 -1338.279)" fill="#f9ddbf"/>
            <g id="Grupo_56280" data-name="Grupo 56280">
              <path id="Trazado_103125" data-name="Trazado 103125" d="M1171.983,1342.409l11.046-1.064s-.389,2.043,1.053,2.577l-12.178.891A1.91,1.91,0,0,1,1171.983,1342.409Z" transform="translate(-1171.491 -1340.813)" fill="#f99746"/>
              <path id="Trazado_103126" data-name="Trazado 103126" d="M1252.911,1338.1l-7.465.574s.056-.258.2-.261,7.416-.532,7.416-.532l-.026.2Z" transform="translate(-1234.103 -1337.877)" fill="#f99746"/>
              <path id="Trazado_103127" data-name="Trazado 103127" d="M1250.863,1350.314l6.574-1.249-.06-.17-7.007,1.342Z" transform="translate(-1238.272 -1347.205)" fill="#f99746"/>
            </g>
          </g>
        </g>
      </g>
      <g id="Grupo_56292" data-name="Grupo 56292" transform="translate(-5602.899 -22500.51)">
        <g id="Grupo_56287" data-name="Grupo 56287" transform="translate(0 33.931)">
          <g id="Grupo_56284" data-name="Grupo 56284" transform="translate(17.386 39.461)">
            <path id="Trazado_103128" data-name="Trazado 103128" d="M751,1495.984h-.059a.625.625,0,0,1-.623-.641l.945-41.206,2.784-.327-2.374,41.535A.675.675,0,0,1,751,1495.984Z" transform="translate(-750.318 -1453.81)" fill="#636363"/>
          </g>
          <g id="Grupo_56285" data-name="Grupo 56285" transform="translate(1.162 39.461)">
            <path id="Trazado_103129" data-name="Trazado 103129" d="M645.22,1495.984h-.059a.625.625,0,0,1-.623-.641l.945-41.206,2.784-.327-2.374,41.535A.675.675,0,0,1,645.22,1495.984Z" transform="translate(-644.537 -1453.81)" fill="#636363"/>
          </g>
          <g id="Grupo_56286" data-name="Grupo 56286" transform="translate(43.568 39.461)">
            <path id="Trazado_103130" data-name="Trazado 103130" d="M924.067,1495.984h.059a.625.625,0,0,0,.623-.641l-.945-41.206-2.784-.327,2.374,41.535A.675.675,0,0,0,924.067,1495.984Z" transform="translate(-921.02 -1453.81)" fill="#636363"/>
          </g>
          <path id="Trazado_103131" data-name="Trazado 103131" d="M636.961,1233.759v-28.236a8.97,8.97,0,0,1,8.944-9H666.13a8.97,8.97,0,0,1,8.944,9v29.315Z" transform="translate(-636.961 -1196.527)" fill="#636363"/>
          <path id="Rectángulo_9398" data-name="Rectángulo 9398" d="M0,0H41.736a0,0,0,0,1,0,0V4.458a0,0,0,0,1,0,0H4.458A4.458,4.458,0,0,1,0,0V0A0,0,0,0,1,0,0Z" transform="translate(0 37.232)" fill="#636363"/>
          <rect id="Rectángulo_9399" data-name="Rectángulo 9399" width="33.515" height="4.458" rx="2.229" transform="translate(14.887 37.232)" fill="#636363"/>
        </g>
        <g id="Grupo_56291" data-name="Grupo 56291" transform="translate(8.846 0)">
          <path id="Trazado_103132" data-name="Trazado 103132" d="M824.49,1128.53s-1.693,1.44-2.061,5.175c-.279,2.836,1.688,24.852,3.168,26.6,4.165,4.923,9.385,2.843,11.43,3.59l1.929-1.733s-6.782-5.006-7.3-6.639C829.671,1149.238,830.9,1130.9,824.49,1128.53Z" transform="translate(-802.806 -1105.029)" fill="#f9ddbf"/>
          <path id="Trazado_103133" data-name="Trazado 103133" d="M743.306,983.426s.115-4.038-5.21-4.83-6.8.453-7.7,1.811-2.6,6.9-2.433,9.111,6.244,4.936,6.144,6.224S743.306,983.426,743.306,983.426Z" transform="translate(-722.839 -977.881)" fill="#163560"/>
          <path id="Trazado_103134" data-name="Trazado 103134" d="M986.911,1652.375c-.173,1.364,1.688,1.766,3.853,1.956s1.493.618,4.446,1.275,4.173-.127,4.4-.528c.2-.356-1.157-.974-2.607-1.669-.182-.087-.365-.176-.548-.265-1.631-.8-2.507-2.35-3.75-3.8-1.177-1.373-2.188-5.67-2.188-5.67l-4.008-1.026s1,3.87,1.334,5.519a5.143,5.143,0,0,1-.515,2.839A5.46,5.46,0,0,0,986.911,1652.375Z" transform="translate(-941.746 -1540.293)" fill="#ffb27d"/>
          <path id="Trazado_103135" data-name="Trazado 103135" d="M992.9,1700.466c2.165.19,1.493.618,4.446,1.275s4.173-.127,4.4-.528c.2-.355-1.157-.974-2.607-1.669l-.024.025a8.326,8.326,0,0,1-4.5-.111c-1.947-.616-3.805-1.881-5.146-2.317a5.461,5.461,0,0,0-.421,1.369C988.877,1699.875,990.738,1700.276,992.9,1700.466Z" transform="translate(-943.884 -1586.428)" fill="#233862"/>
          <path id="Trazado_103136" data-name="Trazado 103136" d="M761.053,1322.541s26.792,2.78,31.209,6.881,3.63,42.311,3.63,42.311c-.688.713-1.195.7-2.281.611a15.176,15.176,0,0,1-3.168-.978s-5.738-18.762-5.81-23.106-.979-11.716-2.8-12.151-23.513,2-25.891-4.854a14.768,14.768,0,0,1,1.57-12.488Z" transform="translate(-745.893 -1266.088)" fill="#ed7d2b"/>
          <path id="Trazado_103137" data-name="Trazado 103137" d="M706.194,1165.283a12.194,12.194,0,0,0,6.692,2.091c6.206.226,13.951-.514,15.475-1.954a2.623,2.623,0,0,0,.643-1.769c.168-2.382-.969-6.3-1.733-9.542-.5-2.107-.833-3.927-.557-4.857.842-2.832,3.458-8.6,3.684-10.5s-2.037-12.057-5.166-13.315-15.206,0-15.206,0c-4.718.958-4.916,11.016-3.349,19.577.041.221.081.44.124.657C708.5,1154.367,702.969,1163.122,706.194,1165.283Z" transform="translate(-703.548 -1101.938)" fill="#f9ddbf"/>
          <g id="Grupo_56288" data-name="Grupo 56288" transform="translate(8.049 4.754)">
            <path id="Trazado_103138" data-name="Trazado 103138" d="M767.857,1093.207c-.085.552-1.6,1.446-4.823.6-3.093-.815-3.464-1.823-3.464-2.488,0-.787,1.344-1.848,1.327-6.693l.371.073,6.236,1.235s-.142,1.963-.146,3.811C767.354,1091.293,768,1092.288,767.857,1093.207Z" transform="translate(-757.661 -1072.609)" fill="#ffb27d"/>
            <path id="Trazado_103139" data-name="Trazado 103139" d="M776.877,1086.333s-.142,1.962-.146,3.811c-3.49-.1-5.334-3.281-6.09-5.046Z" transform="translate(-767.033 -1073.012)" fill="#ed975d"/>
            <path id="Trazado_103140" data-name="Trazado 103140" d="M772.78,1027.662s-8.256.136-8.262-5.007-1.075-8.589,4.2-8.893,6.3,1.657,6.717,3.373S774.927,1027.494,772.78,1027.662Z" transform="translate(-761.771 -1012.591)" fill="#ffb27d"/>
            <path id="Trazado_103141" data-name="Trazado 103141" d="M757.821,1007.346s-2.261,6.033-5.73,6.926-4.974-.037-4.974-.037a9.824,9.824,0,0,0,3.213-5.8S756.115,1004.474,757.821,1007.346Z" transform="translate(-747.117 -1006.3)" fill="#163560"/>
            <path id="Trazado_103142" data-name="Trazado 103142" d="M813.251,1010.879a7.289,7.289,0,0,1,2.1,2.656c.412,1.31.6,4.006,1.383,3.914,0,0,1.7-4.1-.211-6.421C814.493,1008.568,813.251,1010.879,813.251,1010.879Z" transform="translate(-803.108 -1009.343)" fill="#163560"/>
          </g>
          <path id="Trazado_103143" data-name="Trazado 103143" d="M857.916,1643.013c-.02,1.376,1.874,1.56,4.046,1.5s1.552.442,4.559.754,4.132-.607,4.316-1.031c.164-.377-1.258-.834-2.776-1.357-.191-.065-.382-.133-.574-.2-1.71-.609-2.752-2.045-4.148-3.343-1.322-1.229,1.6-7.175,1.6-7.175l-3.825-1.893s-.726,4.245-1.66,7.958c-.241.959-1.028,2.54-1.268,3.38A5.459,5.459,0,0,0,857.916,1643.013Z" transform="translate(-832.872 -1529.81)" fill="#ffb27d"/>
          <path id="Trazado_103144" data-name="Trazado 103144" d="M707.139,1250.32c1.156.774,3.059,2.989,6.527,3.113,5.724-1.3,12.241-2.818,16.119-3.723.168-2.382-.969-6.3-1.733-9.542-4.521,1.38-11.248-3.322-13.51-5.181-2.377-1.952-2.3-8.458-2.3-8.458l-4.782,4.546c.041.221.081.44.124.657C709.279,1240.426,703.914,1248.159,707.139,1250.32Z" transform="translate(-704.329 -1187.997)" fill="#f2ccaa"/>
          <path id="Trazado_103145" data-name="Trazado 103145" d="M861.962,1707.1c2.172-.061,1.552.442,4.559.754s4.132-.607,4.316-1.031c.164-.377-1.258-.834-2.776-1.357l-.021.027a8.334,8.334,0,0,1-4.487.409c-2-.387-3.99-1.431-5.371-1.709a5.461,5.461,0,0,0-.266,1.409C857.9,1706.976,859.79,1707.161,861.962,1707.1Z" transform="translate(-832.872 -1592.397)" fill="#233862"/>
          <path id="Trazado_103146" data-name="Trazado 103146" d="M709.657,1344.769c6.8-.194,27.119,1.428,31.022,4.37,4.8,3.622-8.92,42.792-8.92,42.792a17.741,17.741,0,0,1-2.1.1,6.725,6.725,0,0,1-3.067-.911s.053-23.055,1.657-27.465c1.482-4.075,2.39-5.516.533-5.76s-25.025,2.712-26.959-4.282a17.326,17.326,0,0,1,.721-10.52S703.381,1344.948,709.657,1344.769Z" transform="translate(-700.277 -1286.682)" fill="#f99746"/>
          <path id="Trazado_103147" data-name="Trazado 103147" d="M701.113,1128.447s-4.725.4-5.093,4.136c-.279,2.836-2.335,22.951-.855,24.7,4.165,4.923,18.053,5.967,20.1,6.714l.562-2.328s-14.826-7.469-14.6-9.167S705.645,1127.775,701.113,1128.447Z" transform="translate(-694.635 -1104.946)" fill="#f9ddbf"/>
          <path id="Trazado_103148" data-name="Trazado 103148" d="M727.075,978.047s.339-2.154-2.649-2.71-3.044,5.79-3.364,7.32.478,2.447,1.617,2.54S727.075,978.047,727.075,978.047Z" transform="translate(-716.948 -975.303)" fill="#163560"/>
          <g id="Grupo_56289" data-name="Grupo 56289" transform="translate(20.09 54.906)">
            <path id="Trazado_103149" data-name="Trazado 103149" d="M826.882,1339.175s4.222-1.195,5.228-.916,4.452,2.561,3.967,3.181-3.52-.371-4.917-.183-2.477.877-3.483.728a11.685,11.685,0,0,1-2.057-.544Z" transform="translate(-825.62 -1337.461)" fill="#ffb27d"/>
            <path id="Trazado_103150" data-name="Trazado 103150" d="M833.848,1335a15.827,15.827,0,0,0,2.653-1.666.165.165,0,0,1,.257.03c.158.248.3.728-.42,1.2A3.9,3.9,0,0,1,833.848,1335Z" transform="translate(-832.586 -1333.287)" fill="#ffb27d"/>
          </g>
          <g id="Grupo_56290" data-name="Grupo 56290" transform="translate(34.221 57.135)">
            <path id="Trazado_103151" data-name="Trazado 103151" d="M919.684,1347.815s4.382.24,5.242.83,3.38,3.867,2.72,4.3-3.209-1.493-4.592-1.769-2.627.025-3.531-.442a11.674,11.674,0,0,1-1.769-1.183Z" transform="translate(-917.755 -1347.815)" fill="#ffb27d"/>
          </g>
        </g>
      </g>
      <g id="Grupo_56298" data-name="Grupo 56298" transform="translate(-5666.059 -22507.725)">
        <g id="Grupo_56293" data-name="Grupo 56293" transform="translate(15.288 0)">
          <path id="Trazado_103152" data-name="Trazado 103152" d="M632.488,1680.8H614.66c-.857-1.046-.542-4.908-.412-6.168.027-.254.045-.4.045-.4s6.088-4.87,6.924-1.141c.025.117.056.231.09.344,1.053,3.487,5.779,5.072,8.508,5.514A3.091,3.091,0,0,1,632.488,1680.8Z" transform="translate(-569.721 -1557.663)" fill="#1b3051"/>
          <path id="Trazado_103153" data-name="Trazado 103153" d="M355.093,1353.435c.644,0,30.538,5.613,35.483,11.734,2.47,3.058,2.837,38.372,2.837,38.372s-3.056,3.789-9.657,1.589c0,0-4.839-24.162-4.482-31.49.1-2.026-20.425-.293-24.182-1.266s-12.935-9.144-10.912-13.125S355.093,1353.435,355.093,1353.435Z" transform="translate(-340.971 -1288.223)" fill="#233862"/>
          <path id="Trazado_103154" data-name="Trazado 103154" d="M553.606,1342.619a11.024,11.024,0,0,0,3.875,2.118,17.529,17.529,0,0,1,2.848.865c1.775.815,5.143,4.452,4.829,4.814-1,1.159-5.048-1.86-5.822-1.647s1.269,1.968.459,2.445c-.423.249-1.221-1.267-1.967-1.48-1.009-.289-1.679-1.813-1.981-1.917a24.1,24.1,0,0,1-3.045-2.405Z" transform="translate(-517.839 -1279.066)" fill="#ffb27d"/>
          <path id="Trazado_103155" data-name="Trazado 103155" d="M683.859,1680.8H666.031c-.857-1.046-.542-4.908-.412-6.168.027-.254.045-.4.045-.4s6.088-4.87,6.924-1.141c.026.117.056.231.09.344,1.053,3.487,5.779,5.072,8.508,5.514A3.091,3.091,0,0,1,683.859,1680.8Z" transform="translate(-613.213 -1557.663)" fill="#1e3c68"/>
          <path id="Trazado_103156" data-name="Trazado 103156" d="M412.529,1353.435c.644,0,30.538,5.613,35.483,11.734,2.47,3.058,2.837,38.372,2.837,38.372s-3.056,3.789-9.656,1.589c0,0-4.84-24.162-4.482-31.49.1-2.026-20.425-.293-24.182-1.266s-12.935-9.144-10.913-13.125S412.529,1353.435,412.529,1353.435Z" transform="translate(-389.598 -1288.223)" fill="#2b478b"/>
          <path id="Trazado_103157" data-name="Trazado 103157" d="M407.594,1028.319a29,29,0,0,1-6.354-1.383c-2.436-.791-4.4-1.946-3.134-4.172,1.166-2.052,3.054-6.636,2.926-10.434l4.533,3.653,3.079,2.481a36.931,36.931,0,0,1-.349,4.026q-.092.7-.219,1.511a1.1,1.1,0,0,0,.506,1.1l.07.043A1.72,1.72,0,0,1,407.594,1028.319Z" transform="translate(-386.534 -999.436)" fill="#ffb27d"/>
          <path id="Trazado_103158" data-name="Trazado 103158" d="M439.056,1037.86a7.491,7.491,0,0,1-.113,2.492,12.877,12.877,0,0,1-5.311-2.637c1.4-.384,1.906-1.894,2.947-1.753Z" transform="translate(-416.947 -1019.435)" fill="#ed975d"/>
          <path id="Trazado_103159" data-name="Trazado 103159" d="M415.835,954.874s-10.56,1.754-11.551-4.838-3.022-10.807,3.678-12.205,8.391.92,9.257,3.04S418.556,954.247,415.835,954.874Z" transform="translate(-391.186 -936.002)" fill="#ffb27d"/>
          <path id="Trazado_103160" data-name="Trazado 103160" d="M405.859,930.21c.454,1.588-.76,3.521-2.8,4.158-3.024.945-2.356,4.655-3.716,4.6s-1.91-2.132-3.125-.469c-1.037,1.419.863,3.1.732,3.878-.224,1.336-2.317,4.068-4.2,3.931s-5.413-9.1-4.708-11.869,3.528-5.7,6.2-6.1,6.381.75,7.237.75S405.615,929.352,405.859,930.21Z" transform="translate(-378.272 -928.26)" fill="#12263f"/>
          <path id="Trazado_103161" data-name="Trazado 103161" d="M355.05,1110.2c-.177,1.522-.5,2.557-1,2.893-1.574,1.054-3.662,2.365-5.991,3.663-8.26,4.606-19.569,9.051-21.868,1.267-2.7-9.143-.927-26.31,1.723-36.973,1.525-6.143,5.744-12.589,8.6-12.582,4.86.008,11.847,1.292,14.668,8.25,1.092,2.7,2.7,12.037,3.516,20.595A70.851,70.851,0,0,1,355.05,1110.2Z" transform="translate(-324.844 -1046.961)" fill="#fff"/>
          <path id="Trazado_103162" data-name="Trazado 103162" d="M397.71,1055.163l1.1-2.479s9.756.993,11.412,6.6C410.222,1059.283,402.681,1055.283,397.71,1055.163Z" transform="translate(-386.534 -1033.6)" fill="#dfebfd"/>
          <path id="Trazado_103163" data-name="Trazado 103163" d="M431.258,1259.286c-.177,1.522-.5,2.557-1,2.893-1.574,1.054-3.662,2.365-5.991,3.663-2.431-1.478-7.421-5-8.588-9.159-1.525-5.433-.456-12.119-.456-12.119Z" transform="translate(-401.052 -1196.05)" fill="#dfebfd"/>
          <path id="Trazado_103164" data-name="Trazado 103164" d="M410.614,1113.874s.846,23.352,2.174,27.969c2.264,7.873,22.917,10.677,22.917,10.677a4.229,4.229,0,0,0,.674-3.67s-12.347-9.732-12.708-11.585,2.69-14.408-.8-18.973S412.957,1109.771,410.614,1113.874Z" transform="translate(-397.459 -1083.95)" fill="#fff"/>
        </g>
        <g id="Grupo_56297" data-name="Grupo 56297" transform="translate(0 38.813)">
          <g id="Grupo_56294" data-name="Grupo 56294" transform="translate(1.545 46.062)">
            <path id="Trazado_103165" data-name="Trazado 103165" d="M236.245,1519.683h-.068a.924.924,0,0,1-.933-.988l3.71-37.054,3.238.289-5.328,37.254A.6.6,0,0,1,236.245,1519.683Z" transform="translate(-235.24 -1481.64)" fill="#636363"/>
          </g>
          <g id="Grupo_56295" data-name="Grupo 56295" transform="translate(20.642 46.062)">
            <path id="Trazado_103166" data-name="Trazado 103166" d="M360.758,1519.683h-.068a.924.924,0,0,1-.933-.988l3.71-37.054,3.237.289-5.328,37.254A.6.6,0,0,1,360.758,1519.683Z" transform="translate(-359.753 -1481.64)" fill="#636363"/>
          </g>
          <g id="Grupo_56296" data-name="Grupo 56296" transform="translate(51.554 46.062)">
            <path id="Trazado_103167" data-name="Trazado 103167" d="M567.239,1519.683h.068a.924.924,0,0,0,.933-.988l-3.71-37.054-3.238.289,5.328,37.254A.6.6,0,0,0,567.239,1519.683Z" transform="translate(-561.293 -1481.64)" fill="#636363"/>
          </g>
          <path id="Trazado_103168" data-name="Trazado 103168" d="M228.767,1222.132l-3.522-30.948c-.462-4.46,1.031-8.827,7.467-9.165l11.322-.69c6.711-.277,9.741,5.308,10.59,9.608l6.722,34.02Z" transform="translate(-225.168 -1181.319)" fill="#636363"/>
          <path id="Rectángulo_9400" data-name="Rectángulo 9400" d="M2.966,0H50.958a2.966,2.966,0,0,1,2.966,2.966V5.932a0,0,0,0,1,0,0H2.966A2.966,2.966,0,0,1,0,2.966v0A2.966,2.966,0,0,1,2.966,0Z" transform="translate(57.579 46.604) rotate(180)" fill="#636363"/>
          <path id="Rectángulo_9401" data-name="Rectángulo 9401" d="M2.966,0H29.557a2.966,2.966,0,0,1,2.966,2.966V5.932a0,0,0,0,1,0,0H2.966A2.966,2.966,0,0,1,0,2.966v0A2.966,2.966,0,0,1,2.966,0Z" transform="translate(36.178 46.604) rotate(180)" fill="#636363"/>
        </g>
      </g>
      <path id="Rectángulo_9402" data-name="Rectángulo 9402" d="M.919,0H447.667a.919.919,0,0,1,.919.919v0a.919.919,0,0,1-.919.919H.919A.919.919,0,0,1,0,.919v0A.919.919,0,0,1,.919,0Z" transform="translate(-5678.237 -22385.053)" fill="#2e3552"/>
      <path id="Trazado_102817" data-name="Trazado 102817" d="M516.211,290.845a37.7,37.7,0,0,0,4.112-9.683l7.278-1.394.075-8.05.075-8.05-7.25-1.53a37.71,37.71,0,0,0-3.93-9.758l4.157-6.127-5.64-5.745-5.639-5.745-6.2,4.042a37.693,37.693,0,0,0-9.683-4.112l-1.395-7.278-8.05-.075-8.05-.075-1.53,7.25a37.712,37.712,0,0,0-9.758,3.93l-6.127-4.157-5.745,5.639-5.745,5.639,4.042,6.2a37.642,37.642,0,0,0-4.112,9.683l-7.278,1.395-.075,8.05-.075,8.049,7.251,1.53a37.7,37.7,0,0,0,3.93,9.758l-4.157,6.127,5.639,5.745,5.639,5.746,6.2-4.042a37.714,37.714,0,0,0,9.683,4.112l1.394,7.277,8.05.075,8.05.075,1.529-7.251a37.661,37.661,0,0,0,9.758-3.93l6.127,4.158,5.746-5.639,5.745-5.639Zm-46.591-5.711a19.739,19.739,0,1,1,27.913.26A19.739,19.739,0,0,1,469.62,285.134Z" transform="translate(-5958.172 -22808.818)" fill="#26ccda"/>
      <path id="Trazado_103178" data-name="Trazado 103178" d="M489.884,268.978a24.732,24.732,0,0,0,2.7-6.353l4.775-.915.049-5.281.049-5.282-4.757-1a24.744,24.744,0,0,0-2.579-6.4l2.727-4.02-3.7-3.769-3.7-3.769-4.07,2.652a24.731,24.731,0,0,0-6.352-2.7l-.915-4.775-5.281-.049-5.281-.049-1,4.757a24.743,24.743,0,0,0-6.4,2.579l-4.02-2.727-3.769,3.7-3.769,3.7,2.652,4.07a24.7,24.7,0,0,0-2.7,6.352l-4.775.915-.049,5.281-.049,5.281,4.757,1a24.731,24.731,0,0,0,2.579,6.4l-2.727,4.02,3.7,3.769,3.7,3.77,4.07-2.652a24.743,24.743,0,0,0,6.353,2.7l.915,4.774,5.281.049,5.281.049,1-4.758a24.708,24.708,0,0,0,6.4-2.579l4.02,2.728,3.77-3.7,3.769-3.7Zm-30.567-3.747a12.95,12.95,0,1,1,18.313.171A12.95,12.95,0,0,1,459.318,265.232Z" transform="translate(-5862.546 -22809.158)" fill="#fdd835"/>
    </g>
  </g>
</svg>
