<svg xmlns="http://www.w3.org/2000/svg" width="152.098" height="240.756" viewBox="0 0 152.098 240.756">
  <g id="Grupo_120365" data-name="Grupo 120365" transform="translate(-1028.846 -1779.755)">
    <path id="Trazado_166823" data-name="Trazado 166823" d="M266.39,749.862a101.111,101.111,0,0,1-34.8-6.137l34.8,26.128,34.8-26.128a101.111,101.111,0,0,1-34.8,6.137" transform="translate(845.047 1250.658)" fill="#26ccda"/>
    <path id="Trazado_166826" data-name="Trazado 166826" d="M2321.489,169.622a76.049,76.049,0,1,1-76.049-76.049,76.049,76.049,0,0,1,76.049,76.049" transform="translate(-1140.545 1686.182)" fill="#b1f9ff"/>
    <circle id="Elipse_4291" data-name="Elipse 4291" cx="11" cy="11" r="11" transform="translate(1100.633 1972.174)" fill="#26ccda"/>
    <circle id="Elipse_4295" data-name="Elipse 4295" cx="7" cy="7" r="7" transform="translate(1104.633 1976.174)" fill="#b1f9ff"/>
    <path id="Trazado_181414" data-name="Trazado 181414" d="M13.551,8.673H9.614v2.68h4.621V13H7.563V3.047h6.658V4.708H9.614V7.08h3.938ZM17.9,10.587,19.273,5.6h2.064l-2.5,7.4H16.956l-2.5-7.4h2.064ZM26.389,13a2.194,2.194,0,0,1-.2-.663,2.39,2.39,0,0,1-1.866.8,2.626,2.626,0,0,1-1.8-.629,2.023,2.023,0,0,1-.714-1.586,2.09,2.09,0,0,1,.872-1.8A4.3,4.3,0,0,1,25.2,8.481h.909V8.058a1.219,1.219,0,0,0-.263-.82,1.035,1.035,0,0,0-.831-.308,1.177,1.177,0,0,0-.783.239.813.813,0,0,0-.284.656H21.973a1.984,1.984,0,0,1,.4-1.189,2.621,2.621,0,0,1,1.121-.858,4.086,4.086,0,0,1,1.627-.311,3.228,3.228,0,0,1,2.17.687,2.4,2.4,0,0,1,.8,1.931v3.206a3.536,3.536,0,0,0,.294,1.593V13Zm-1.634-1.374a1.7,1.7,0,0,0,.807-.195,1.28,1.28,0,0,0,.547-.523V9.637h-.738q-1.483,0-1.579,1.025l-.007.116a.791.791,0,0,0,.26.608A1.009,1.009,0,0,0,24.755,11.626ZM31.694,13H29.711V2.5h1.982Zm6.057-.752a2.477,2.477,0,0,1-2.023.889,2.337,2.337,0,0,1-1.815-.684,2.918,2.918,0,0,1-.639-2V5.6h1.976v4.784q0,1.157,1.053,1.157a1.426,1.426,0,0,0,1.381-.7V5.6h1.982V13H37.805Zm7.69.752a2.194,2.194,0,0,1-.2-.663,2.39,2.39,0,0,1-1.866.8,2.626,2.626,0,0,1-1.8-.629,2.023,2.023,0,0,1-.714-1.586,2.09,2.09,0,0,1,.872-1.8,4.3,4.3,0,0,1,2.519-.636h.909V8.058a1.219,1.219,0,0,0-.263-.82,1.035,1.035,0,0,0-.831-.308,1.177,1.177,0,0,0-.783.239A.813.813,0,0,0,43,7.825H41.025a1.984,1.984,0,0,1,.4-1.189,2.621,2.621,0,0,1,1.121-.858,4.086,4.086,0,0,1,1.627-.311,3.228,3.228,0,0,1,2.17.687,2.4,2.4,0,0,1,.8,1.931v3.206a3.536,3.536,0,0,0,.294,1.593V13Zm-1.634-1.374a1.7,1.7,0,0,0,.807-.195,1.28,1.28,0,0,0,.547-.523V9.637h-.738q-1.483,0-1.579,1.025l-.007.116a.791.791,0,0,0,.26.608A1.009,1.009,0,0,0,43.807,11.626Zm7.93-.082a1.3,1.3,0,0,0,.889-.3,1.054,1.054,0,0,0,.355-.8h1.853a2.534,2.534,0,0,1-.41,1.377,2.706,2.706,0,0,1-1.1.971,3.455,3.455,0,0,1-1.548.345,3.211,3.211,0,0,1-2.5-1.008,3.99,3.99,0,0,1-.916-2.786v-.13a3.944,3.944,0,0,1,.909-2.728,3.174,3.174,0,0,1,2.5-1.019,3.111,3.111,0,0,1,2.225.79,2.8,2.8,0,0,1,.851,2.1H52.981a1.358,1.358,0,0,0-.355-.938,1.321,1.321,0,0,0-1.945.142A2.916,2.916,0,0,0,50.329,9.2V9.4a2.953,2.953,0,0,0,.349,1.643A1.2,1.2,0,0,0,51.737,11.544ZM58.046,13H56.064V5.6h1.982Zm-2.1-9.311a.973.973,0,0,1,.3-.731,1.281,1.281,0,0,1,1.617,0,.967.967,0,0,1,.3.731.97.97,0,0,1-.3.738,1.267,1.267,0,0,1-1.606,0A.97.97,0,0,1,55.948,3.689Zm3.418,5.544a4.387,4.387,0,0,1,.424-1.962,3.1,3.1,0,0,1,1.22-1.333,3.56,3.56,0,0,1,1.849-.472,3.368,3.368,0,0,1,2.444.916,3.676,3.676,0,0,1,1.056,2.488l.014.506a3.866,3.866,0,0,1-.95,2.731,3.683,3.683,0,0,1-5.1,0,3.934,3.934,0,0,1-.954-2.789Zm1.976.14a2.765,2.765,0,0,0,.4,1.612,1.424,1.424,0,0,0,2.256.007,3.025,3.025,0,0,0,.4-1.763,2.737,2.737,0,0,0-.4-1.6,1.311,1.311,0,0,0-1.135-.568,1.29,1.29,0,0,0-1.121.565A3.076,3.076,0,0,0,61.341,9.374ZM63.249,2.5H65.4L63.508,4.619H61.9Zm6.159,3.1.062.854A2.582,2.582,0,0,1,71.6,5.467a2.146,2.146,0,0,1,1.75.69,3.221,3.221,0,0,1,.588,2.064V13H71.958V8.259a1.287,1.287,0,0,0-.273-.915,1.222,1.222,0,0,0-.909-.284,1.359,1.359,0,0,0-1.251.713V13H67.548V5.6Zm9.2,3.644a4.457,4.457,0,0,1,.776-2.755,2.517,2.517,0,0,1,2.123-1.025,2.265,2.265,0,0,1,1.784.807V2.5h1.982V13H83.49l-.1-.786a2.325,2.325,0,0,1-1.9.923,2.511,2.511,0,0,1-2.1-1.029A4.6,4.6,0,0,1,78.609,9.247Zm1.976.141a2.936,2.936,0,0,0,.362,1.6A1.179,1.179,0,0,0,82,11.544a1.321,1.321,0,0,0,1.292-.776V7.836a1.3,1.3,0,0,0-1.278-.776Q80.584,7.06,80.584,9.388Zm9.625,3.749a3.631,3.631,0,0,1-2.649-1,3.548,3.548,0,0,1-1.022-2.659V9.288A4.468,4.468,0,0,1,86.969,7.3a3.161,3.161,0,0,1,1.22-1.354,3.425,3.425,0,0,1,1.8-.475,3.07,3.07,0,0,1,2.389.957,3.889,3.889,0,0,1,.872,2.714v.807h-4.71a1.835,1.835,0,0,0,.578,1.162,1.746,1.746,0,0,0,1.22.438,2.132,2.132,0,0,0,1.784-.827l.971,1.087a2.966,2.966,0,0,1-1.2.981A3.947,3.947,0,0,1,90.209,13.137ZM89.984,7.06a1.234,1.234,0,0,0-.954.4,2.062,2.062,0,0,0-.468,1.14H91.31V8.44a1.471,1.471,0,0,0-.355-1.02A1.274,1.274,0,0,0,89.984,7.06ZM96.458,13H94.475V2.5h1.982Zm-69.7,12.37a4.436,4.436,0,0,1-.776,2.738,2.488,2.488,0,0,1-2.1,1.029,2.3,2.3,0,0,1-1.812-.779v3.486H20.1V21.6h1.832l.068.725a2.322,2.322,0,0,1,1.873-.861A2.5,2.5,0,0,1,26,22.479a4.556,4.556,0,0,1,.759,2.789Zm-1.976-.151a2.927,2.927,0,0,0-.366-1.6,1.19,1.19,0,0,0-1.063-.562,1.293,1.293,0,0,0-1.278.713V26.81a1.315,1.315,0,0,0,1.292.734Q24.783,27.544,24.783,25.22Zm7.355-1.763a5.367,5.367,0,0,0-.711-.055,1.447,1.447,0,0,0-1.47.759V29H27.982V21.6h1.866l.055.882a1.831,1.831,0,0,1,1.647-1.019,2.07,2.07,0,0,1,.615.089Zm.4,1.777a4.387,4.387,0,0,1,.424-1.962,3.1,3.1,0,0,1,1.22-1.333,3.56,3.56,0,0,1,1.849-.472,3.368,3.368,0,0,1,2.444.916,3.676,3.676,0,0,1,1.056,2.488l.014.506a3.866,3.866,0,0,1-.95,2.731,3.683,3.683,0,0,1-5.1,0,3.934,3.934,0,0,1-.954-2.789Zm1.976.14a2.765,2.765,0,0,0,.4,1.612,1.424,1.424,0,0,0,2.256.007,3.025,3.025,0,0,0,.4-1.763,2.737,2.737,0,0,0-.4-1.6,1.311,1.311,0,0,0-1.135-.568,1.29,1.29,0,0,0-1.121.565A3.076,3.076,0,0,0,34.51,25.374Zm8.907.83,1.367-4.6H46.9L43.93,30.148l-.164.39a2.255,2.255,0,0,1-2.187,1.449,3.108,3.108,0,0,1-.875-.13v-1.5l.3.007a1.625,1.625,0,0,0,.837-.171,1.123,1.123,0,0,0,.434-.567l.232-.608L39.917,21.6h2.126ZM51,29.137a3.631,3.631,0,0,1-2.649-1,3.548,3.548,0,0,1-1.022-2.659v-.191a4.468,4.468,0,0,1,.431-1.993,3.161,3.161,0,0,1,1.22-1.354,3.425,3.425,0,0,1,1.8-.475,3.07,3.07,0,0,1,2.389.957,3.889,3.889,0,0,1,.872,2.714v.807h-4.71a1.835,1.835,0,0,0,.578,1.162,1.746,1.746,0,0,0,1.22.438,2.132,2.132,0,0,0,1.784-.827l.971,1.087a2.966,2.966,0,0,1-1.2.981A3.947,3.947,0,0,1,51,29.137Zm-.226-6.077a1.234,1.234,0,0,0-.954.4,2.062,2.062,0,0,0-.468,1.14H52.1V24.44a1.471,1.471,0,0,0-.355-1.02A1.274,1.274,0,0,0,50.773,23.06Zm7.465,4.484a1.3,1.3,0,0,0,.889-.3,1.054,1.054,0,0,0,.355-.8h1.853a2.534,2.534,0,0,1-.41,1.377,2.706,2.706,0,0,1-1.1.971,3.455,3.455,0,0,1-1.548.345,3.211,3.211,0,0,1-2.5-1.008,3.99,3.99,0,0,1-.916-2.786v-.13a3.944,3.944,0,0,1,.909-2.728,3.174,3.174,0,0,1,2.5-1.019,3.111,3.111,0,0,1,2.225.79,2.8,2.8,0,0,1,.851,2.1H59.482a1.358,1.358,0,0,0-.355-.938,1.321,1.321,0,0,0-1.945.142A2.916,2.916,0,0,0,56.83,25.2V25.4a2.953,2.953,0,0,0,.349,1.643A1.2,1.2,0,0,0,58.238,27.544Zm6.59-7.759V21.6h1.265v1.449H64.828v3.691a.881.881,0,0,0,.157.588.79.79,0,0,0,.6.178,3.151,3.151,0,0,0,.581-.048v1.5a4.067,4.067,0,0,1-1.2.178,1.886,1.886,0,0,1-2.119-2.1V23.053h-1.08V21.6h1.08V19.785Zm1.853,5.448a4.387,4.387,0,0,1,.424-1.962,3.1,3.1,0,0,1,1.22-1.333,3.56,3.56,0,0,1,1.849-.472,3.368,3.368,0,0,1,2.444.916,3.676,3.676,0,0,1,1.056,2.488l.014.506a3.866,3.866,0,0,1-.95,2.731,3.683,3.683,0,0,1-5.1,0,3.934,3.934,0,0,1-.954-2.789Zm1.976.14a2.765,2.765,0,0,0,.4,1.612,1.424,1.424,0,0,0,2.256.007,3.025,3.025,0,0,0,.4-1.763,2.737,2.737,0,0,0-.4-1.6,1.311,1.311,0,0,0-1.135-.568,1.29,1.29,0,0,0-1.121.565A3.076,3.076,0,0,0,68.656,25.374Zm12.5.83,1.367-4.6h2.119l-2.974,8.545-.164.39a2.255,2.255,0,0,1-2.187,1.449,3.108,3.108,0,0,1-.875-.13v-1.5l.3.007a1.625,1.625,0,0,0,.837-.171,1.123,1.123,0,0,0,.434-.567l.232-.608L77.652,21.6h2.126ZM41.657,41.685a3.522,3.522,0,0,1-1.186,2.529,4.165,4.165,0,0,1-2.82.923,3.745,3.745,0,0,1-3.011-1.289,5.284,5.284,0,0,1-1.1-3.538V39.7a5.966,5.966,0,0,1,.506-2.529,3.791,3.791,0,0,1,1.446-1.678,4.518,4.518,0,0,1,4.959.338,3.785,3.785,0,0,1,1.217,2.591H39.62a2.079,2.079,0,0,0-.537-1.4,1.987,1.987,0,0,0-1.4-.434,1.742,1.742,0,0,0-1.535.735,4.118,4.118,0,0,0-.523,2.28v.752a4.408,4.408,0,0,0,.489,2.358,1.71,1.71,0,0,0,1.542.745,2.025,2.025,0,0,0,1.418-.434,1.961,1.961,0,0,0,.537-1.343ZM44.959,45H42.977V37.6h1.982Zm-2.1-9.311a.973.973,0,0,1,.3-.731,1.281,1.281,0,0,1,1.617,0,1.044,1.044,0,0,1,0,1.47,1.267,1.267,0,0,1-1.606,0A.97.97,0,0,1,42.86,35.689Zm7.13,9.447a3.631,3.631,0,0,1-2.649-1,3.548,3.548,0,0,1-1.022-2.659v-.191A4.468,4.468,0,0,1,46.75,39.3a3.161,3.161,0,0,1,1.22-1.354,3.425,3.425,0,0,1,1.8-.475,3.07,3.07,0,0,1,2.389.957,3.889,3.889,0,0,1,.872,2.714v.807h-4.71a1.835,1.835,0,0,0,.578,1.162,1.746,1.746,0,0,0,1.22.438,2.132,2.132,0,0,0,1.784-.827l.971,1.087a2.966,2.966,0,0,1-1.2.981A3.947,3.947,0,0,1,49.99,45.137Zm-.226-6.077a1.234,1.234,0,0,0-.954.4,2.062,2.062,0,0,0-.468,1.14h2.748V40.44a1.471,1.471,0,0,0-.355-1.02A1.274,1.274,0,0,0,49.765,39.06Zm8.545.4A5.367,5.367,0,0,0,57.6,39.4a1.447,1.447,0,0,0-1.47.759V45H54.153V37.6H56.02l.055.882a1.831,1.831,0,0,1,1.647-1.019,2.07,2.07,0,0,1,.615.089Zm5.106,0a5.367,5.367,0,0,0-.711-.055,1.447,1.447,0,0,0-1.47.759V45H59.26V37.6h1.866l.055.882a1.831,1.831,0,0,1,1.647-1.019,2.07,2.07,0,0,1,.615.089Zm4.225,5.681a3.631,3.631,0,0,1-2.649-1,3.548,3.548,0,0,1-1.022-2.659v-.191A4.468,4.468,0,0,1,64.4,39.3a3.161,3.161,0,0,1,1.22-1.354,3.425,3.425,0,0,1,1.8-.475,3.07,3.07,0,0,1,2.389.957,3.889,3.889,0,0,1,.872,2.714v.807h-4.71a1.835,1.835,0,0,0,.578,1.162,1.746,1.746,0,0,0,1.22.438,2.132,2.132,0,0,0,1.784-.827l.971,1.087a2.966,2.966,0,0,1-1.2.981A3.947,3.947,0,0,1,67.641,45.137Zm-.226-6.077a1.234,1.234,0,0,0-.954.4,2.062,2.062,0,0,0-.468,1.14h2.748V40.44a1.471,1.471,0,0,0-.355-1.02A1.274,1.274,0,0,0,67.415,39.06Z" transform="translate(1059.633 1870.874)" fill="#12263f"/>
    <g id="rompecabezas" transform="translate(1082.438 1800.4)">
      <g id="Grupo_56549" data-name="Grupo 56549" transform="translate(32.531 0)">
        <g id="Grupo_56546" data-name="Grupo 56546" transform="translate(1.151 1.151)">
          <g id="Grupo_56545" data-name="Grupo 56545">
            <path id="Trazado_104030" data-name="Trazado 104030" d="M311.645,10h-19.1v8.506l.069-.013a3.518,3.518,0,1,1,0,6.92l-.069-.013v7.765h8.686l-.157.858a3.56,3.56,0,0,0,3.5,4.223,3.518,3.518,0,0,0,3.407-4.15l-.17-.93h7.9v-19.1A4.066,4.066,0,0,0,311.645,10Z" transform="translate(-292.545 -10)" fill="#26ccda"/>
          </g>
        </g>
        <g id="Grupo_56548" data-name="Grupo 56548">
          <g id="Grupo_56547" data-name="Grupo 56547">
            <path id="Trazado_104031" data-name="Trazado 104031" d="M295.673,30.55a4.616,4.616,0,0,1-3.531-1.648,4.747,4.747,0,0,1-1.115-3.433H283.7a1.151,1.151,0,0,1-1.151-1.151V16.553A1.151,1.151,0,0,1,283.9,15.42l.069.013a2.366,2.366,0,1,0,0-4.655l-.069.013a1.151,1.151,0,0,1-1.359-1.132V1.151A1.151,1.151,0,0,1,283.7,0h19.1a5.223,5.223,0,0,1,5.217,5.217v19.1a1.151,1.151,0,0,1-1.151,1.151h-6.539a4.669,4.669,0,0,1-4.581,5.081Zm-10.826-7.384h7.534a1.151,1.151,0,0,1,1.133,1.359l-.157.858a2.453,2.453,0,0,0,.543,2.032,2.3,2.3,0,0,0,1.807.833A2.366,2.366,0,0,0,298,25.455l-.17-.931a1.151,1.151,0,0,1,1.133-1.359h6.749V5.217A2.918,2.918,0,0,0,302.8,2.3H284.847V8.457a4.67,4.67,0,0,1,0,9.3Z" transform="translate(-282.544 0)"/>
          </g>
        </g>
      </g>
      <g id="Grupo_56563" data-name="Grupo 56563" transform="translate(0 0)">
        <g id="Grupo_56552" data-name="Grupo 56552" transform="translate(2.101 31.274)">
          <g id="Grupo_56551" data-name="Grupo 56551">
            <g id="Grupo_56550" data-name="Grupo 56550">
              <path id="Trazado_104032" data-name="Trazado 104032" d="M41.347,289.585a3.517,3.517,0,0,1-4.151-3.46h0a3.518,3.518,0,0,1,4.151-3.46l.069.013v-7.693H34.354a3.519,3.519,0,0,0-7.03,0H18.25v19.1a4.066,4.066,0,0,0,4.066,4.066h19.1v-8.578Z" transform="translate(-18.25 -271.626)" fill="#f57c00"/>
            </g>
          </g>
        </g>
        <g id="Grupo_56554" data-name="Grupo 56554" transform="translate(21.047 34.632)">
          <g id="Grupo_56553" data-name="Grupo 56553">
            <path id="Trazado_104033" data-name="Trazado 104033" d="M210.191,304.963v-4.169h-7.9l.17.93a3.518,3.518,0,0,1-3.407,4.15,3.56,3.56,0,0,1-3.5-4.223l.157-.858h-8.686v7.693l-.069-.013a3.518,3.518,0,0,0-4.151,3.46h0a3.517,3.517,0,0,0,4.151,3.46l.069-.013v8.578h19.1a4.066,4.066,0,0,0,4.066-4.066v-3.341" transform="translate(-182.805 -300.794)" fill="#ffa726"/>
          </g>
        </g>
        <g id="Grupo_56557" data-name="Grupo 56557" transform="translate(0.95 10.315)">
          <g id="Grupo_56556" data-name="Grupo 56556" transform="translate(1.151 1.151)">
            <g id="Grupo_56555" data-name="Grupo 56555">
              <path id="Trazado_104034" data-name="Trazado 104034" d="M41.485,108.082l-.069.013V99.588h-19.1a4.066,4.066,0,0,0-4.066,4.066v19.1h9.074a3.519,3.519,0,0,1,7.03,0h7.062V114.99l.069.013a3.518,3.518,0,1,0,0-6.92Z" transform="translate(-18.25 -99.588)" fill="#fdd835"/>
            </g>
          </g>
          <path id="Trazado_104035" data-name="Trazado 104035" d="M55.733,119.225a1.151,1.151,0,0,0,1.151-1.151v-4.169a1.151,1.151,0,0,0-1.151-1.151h-7.9a1.151,1.151,0,0,0-1.133,1.359l.17.931a2.366,2.366,0,0,1-2.291,2.792A2.3,2.3,0,0,1,42.772,117a2.453,2.453,0,0,1-.543-2.032l.157-.858a1.151,1.151,0,0,0-1.133-1.359H33.719v-5.412a4.67,4.67,0,0,0,0-9.3V90.739a1.151,1.151,0,0,0-1.151-1.151h-19.1A5.223,5.223,0,0,0,8.25,94.805v38.2a5.223,5.223,0,0,0,5.217,5.217h38.2a5.223,5.223,0,0,0,5.217-5.217v-3.341a1.151,1.151,0,1,0-2.3,0v3.341a2.918,2.918,0,0,1-2.914,2.914H33.719v-7.427a1.151,1.151,0,0,0-1.358-1.133l-.07.013a2.366,2.366,0,1,1,0-4.655l.069.013a1.151,1.151,0,0,0,1.358-1.133v-6.542H39.9a4.745,4.745,0,0,0,1.115,3.433,4.654,4.654,0,0,0,8.18-3.433h5.388v3.017A1.151,1.151,0,0,0,55.733,119.225ZM10.553,94.805a2.918,2.918,0,0,1,2.914-2.914H31.416v7.355a1.151,1.151,0,0,0,1.358,1.133l.069-.013h0a2.366,2.366,0,1,1,0,4.655l-.069-.013a1.151,1.151,0,0,0-1.359,1.133v6.613h-4.94a4.675,4.675,0,0,0-8.971,0H10.553ZM28.876,121.46a4.67,4.67,0,0,0,2.54,8.235v6.226H13.467a2.918,2.918,0,0,1-2.914-2.914V115.057h7.922a1.151,1.151,0,0,0,1.15-1.1,2.367,2.367,0,0,1,4.73,0,1.151,1.151,0,0,0,1.15,1.1h5.911V120.4a4.656,4.656,0,0,0-2.54,1.062Z" transform="translate(-8.25 -89.588)"/>
        </g>
        <g id="Grupo_56562" data-name="Grupo 56562">
          <g id="Grupo_56559" data-name="Grupo 56559">
            <g id="Grupo_56558" data-name="Grupo 56558">
              <path id="Trazado_104036" data-name="Trazado 104036" fill="#f5737f"/>
            </g>
          </g>
          <g id="Grupo_56561" data-name="Grupo 56561" transform="translate(47.284 43.388)">
            <g id="Grupo_56560" data-name="Grupo 56560">
              <path id="Trazado_104037" data-name="Trazado 104037" d="M411.827,379.14a1.151,1.151,0,1,1,1.129-.926,1.16,1.16,0,0,1-1.129.926Z" transform="translate(-410.678 -376.841)"/>
            </g>
          </g>
        </g>
      </g>
    </g>
  </g>
</svg>
