<svg xmlns="http://www.w3.org/2000/svg" width="110.75" height="132" viewBox="0 0 110.75 132">
  <g id="briefing" transform="translate(-0.5)">
    <path id="Trazado_102410" data-name="Trazado 102410" d="M90.918,165.413H12.395a4.382,4.382,0,0,1-4.383-4.383V52.012a4.382,4.382,0,0,1,4.383-4.383H90.918A4.382,4.382,0,0,1,95.3,52.012V161.03A4.382,4.382,0,0,1,90.918,165.413Zm0,0" transform="translate(-5.575 -35.35)" fill="#f6f6f6"/>
    <path id="Trazado_102412" data-name="Trazado 102412" d="M142.172,25.48H112.68A2.578,2.578,0,0,1,110.1,22.9V13.7a6.188,6.188,0,0,1,6.188-6.187h22.274A6.188,6.188,0,0,1,144.75,13.7v9.2A2.578,2.578,0,0,1,142.172,25.48Zm0,0" transform="translate(-81.345 -5.575)" fill="#fdd835"/>
    <path id="Trazado_102414" data-name="Trazado 102414" d="M277.581,99.984A22.663,22.663,0,1,1,254.917,77.32,22.663,22.663,0,0,1,277.581,99.984Zm0,0" transform="translate(-172.005 -57.386)" fill="#fdd835"/>
    <path id="Trazado_102416" data-name="Trazado 102416" d="M271.58,111.775a4.429,4.429,0,0,1-3.131-1.3L257.606,99.636a4.428,4.428,0,0,1,6.262-6.262l7.711,7.711,20.034-20.034a4.428,4.428,0,0,1,6.261,6.262l-23.164,23.165A4.431,4.431,0,0,1,271.58,111.775Zm0,0" transform="translate(-189.859 -59.193)" fill="#26ccda"/>
    <g id="Grupo_54750" data-name="Grupo 54750" transform="translate(10.946 28.62)">
      <path id="Trazado_102418" data-name="Trazado 102418" d="M131.435,192.42h-23.6a1.937,1.937,0,0,1,0-3.873h23.6a1.937,1.937,0,1,1,0,3.873Zm0,0" transform="translate(-89.175 -168.557)" fill="#0882bf"/>
      <path id="Trazado_102419" data-name="Trazado 102419" d="M55.987,114.885H42.956a1.937,1.937,0,1,1,0-3.873H55.987a1.937,1.937,0,1,1,0,3.873Zm0,0" transform="translate(-41.02 -111.012)" fill="#0882bf"/>
      <path id="Trazado_102420" data-name="Trazado 102420" d="M131.435,227.267h-23.6a1.936,1.936,0,0,1,0-3.872h23.6a1.936,1.936,0,1,1,0,3.872Zm0,0" transform="translate(-89.175 -194.421)" fill="#0882bf"/>
      <path id="Trazado_102421" data-name="Trazado 102421" d="M139.586,283.522H107.838a1.937,1.937,0,0,1,0-3.873h31.748a1.937,1.937,0,1,1,0,3.873Zm0,0" transform="translate(-89.175 -236.172)" fill="#0882bf"/>
      <path id="Trazado_102422" data-name="Trazado 102422" d="M123.713,318.369H107.838a1.937,1.937,0,0,1,0-3.873h15.875a1.937,1.937,0,0,1,0,3.873Zm0,0" transform="translate(-89.175 -262.035)" fill="#0882bf"/>
      <path id="Trazado_102423" data-name="Trazado 102423" d="M131.435,374.721h-23.6a1.937,1.937,0,0,1,0-3.873h23.6a1.937,1.937,0,1,1,0,3.873Zm0,0" transform="translate(-89.175 -303.859)" fill="#0882bf"/>
      <path id="Trazado_102424" data-name="Trazado 102424" d="M139.586,409.568H107.838a1.936,1.936,0,0,1,0-3.872h31.748a1.936,1.936,0,1,1,0,3.872Zm0,0" transform="translate(-89.175 -329.722)" fill="#0882bf"/>
    </g>
    <path id="Trazado_102425" data-name="Trazado 102425" d="M53.415,195.432a5.885,5.885,0,1,1-5.885-5.885A5.885,5.885,0,0,1,53.415,195.432Zm0,0" transform="translate(-30.537 -140.679)" fill="#26ccda"/>
    <path id="Trazado_102426" data-name="Trazado 102426" d="M53.415,287.643a5.885,5.885,0,1,1-5.885-5.885A5.885,5.885,0,0,1,53.415,287.643Zm0,0" transform="translate(-30.537 -209.117)" fill="#26ccda"/>
    <path id="Trazado_102427" data-name="Trazado 102427" d="M53.415,378.839a5.885,5.885,0,1,1-5.885-5.885A5.885,5.885,0,0,1,53.415,378.839Zm0,0" transform="translate(-30.537 -276.801)" fill="#26ccda"/>
    <path id="Trazado_102428" data-name="Trazado 102428" d="M131.435,192.42h-23.6a1.937,1.937,0,0,1,0-3.873h23.6a1.937,1.937,0,1,1,0,3.873Zm0,0" transform="translate(-78.228 -139.937)"/>
    <path id="Trazado_102429" data-name="Trazado 102429" d="M55.987,114.885H42.956a1.937,1.937,0,1,1,0-3.873H55.987a1.937,1.937,0,1,1,0,3.873Zm0,0" transform="translate(-30.073 -82.392)"/>
    <path id="Trazado_102430" data-name="Trazado 102430" d="M131.435,227.267h-23.6a1.936,1.936,0,0,1,0-3.872h23.6a1.936,1.936,0,1,1,0,3.872Zm0,0" transform="translate(-78.228 -165.801)"/>
    <path id="Trazado_102431" data-name="Trazado 102431" d="M139.586,283.522H107.838a1.937,1.937,0,0,1,0-3.873h31.748a1.937,1.937,0,1,1,0,3.873Zm0,0" transform="translate(-78.228 -207.552)"/>
    <path id="Trazado_102432" data-name="Trazado 102432" d="M123.713,318.369H107.838a1.937,1.937,0,0,1,0-3.873h15.875a1.937,1.937,0,0,1,0,3.873Zm0,0" transform="translate(-78.228 -233.415)"/>
    <path id="Trazado_102433" data-name="Trazado 102433" d="M131.435,374.721h-23.6a1.937,1.937,0,0,1,0-3.873h23.6a1.937,1.937,0,1,1,0,3.873Zm0,0" transform="translate(-78.228 -275.239)"/>
    <path id="Trazado_102434" data-name="Trazado 102434" d="M139.586,409.568H107.838a1.936,1.936,0,0,1,0-3.872h31.748a1.936,1.936,0,1,1,0,3.872Zm0,0" transform="translate(-78.228 -301.102)"/>
    <path id="Trazado_102435" data-name="Trazado 102435" d="M41.955,197.679a7.822,7.822,0,1,1,7.822-7.822A7.831,7.831,0,0,1,41.955,197.679Zm0-11.771a3.949,3.949,0,1,0,3.949,3.949A3.953,3.953,0,0,0,41.955,185.908Zm0,0" transform="translate(-24.962 -135.104)"/>
    <path id="Trazado_102436" data-name="Trazado 102436" d="M41.955,289.886a7.822,7.822,0,1,1,7.822-7.822A7.83,7.83,0,0,1,41.955,289.886Zm0-11.771a3.949,3.949,0,1,0,3.949,3.95A3.953,3.953,0,0,0,41.955,278.115Zm0,0" transform="translate(-24.962 -203.539)"/>
    <path id="Trazado_102437" data-name="Trazado 102437" d="M41.955,381.085a7.822,7.822,0,1,1,7.822-7.822A7.831,7.831,0,0,1,41.955,381.085Zm0-11.771a3.949,3.949,0,1,0,3.949,3.949A3.953,3.953,0,0,0,41.955,369.315Zm0,0" transform="translate(-24.962 -271.226)"/>
    <path id="Trazado_102438" data-name="Trazado 102438" d="M75.379,32.812a6.365,6.365,0,1,0-9,9L77.22,52.654a6.364,6.364,0,0,0,9,0l23.165-23.165a6.364,6.364,0,1,0-9-9l-2.554,2.554a24.6,24.6,0,0,0-6.169-3.44v-2.9A6.372,6.372,0,0,0,85.3,10.343H65.342V8.133A8.143,8.143,0,0,0,57.209,0H34.953A8.143,8.143,0,0,0,26.82,8.133v9.19a4.524,4.524,0,0,0,4.519,4.519H60.823a4.524,4.524,0,0,0,4.519-4.519V14.216H85.3a2.5,2.5,0,0,1,2.492,2.492v1.784a24.6,24.6,0,1,0,0,48.221v58.924a2.494,2.494,0,0,1-2.492,2.491H6.864a2.493,2.493,0,0,1-2.491-2.491V16.707a2.494,2.494,0,0,1,2.491-2.492H19.737a1.937,1.937,0,1,0,0-3.873H6.864A6.372,6.372,0,0,0,.5,16.707V125.636A6.371,6.371,0,0,0,6.864,132H85.3a6.371,6.371,0,0,0,6.364-6.364V65.592A24.613,24.613,0,0,0,107.5,43.457a1.937,1.937,0,1,0-3.871-.133A20.623,20.623,0,0,1,89.281,62.335a1.839,1.839,0,0,0-.323.106,20.734,20.734,0,1,1-6.046-40.57,20.691,20.691,0,0,1,12.152,3.939L81.721,39.154ZM61.469,17.323a.646.646,0,0,1-.646.646H31.339a.646.646,0,0,1-.646-.646V8.133a4.264,4.264,0,0,1,4.26-4.26H57.209a4.265,4.265,0,0,1,4.26,4.26Zm41.656,5.906a2.491,2.491,0,0,1,3.523,3.523L83.481,49.916a2.49,2.49,0,0,1-3.523,0L69.116,39.074a2.491,2.491,0,1,1,3.524-3.523l7.711,7.711a1.936,1.936,0,0,0,2.738,0Zm0,0"/>
  </g>
</svg>
