<svg id="Grupo_82718" data-name="Grupo 82718" xmlns="http://www.w3.org/2000/svg" xmlns:xlink="http://www.w3.org/1999/xlink" width="295" height="207.98" viewBox="0 0 295 207.98">
  <defs>
    <clipPath id="clip-path">
      <rect id="Rectángulo_35490" data-name="Rectángulo 35490" width="295" height="207.98" fill="none"/>
    </clipPath>
    <clipPath id="clip-path-4">
      <path id="Trazado_166650" data-name="Trazado 166650" d="M219.289,121.01,240.8,111.2,217.3,107.705Z" transform="translate(-217.299 -107.705)" fill="none"/>
    </clipPath>
    <clipPath id="clip-path-6">
      <rect id="Rectángulo_35484" data-name="Rectángulo 35484" width="107.593" height="17.999" fill="none"/>
    </clipPath>
    <clipPath id="clip-path-7">
      <rect id="Rectángulo_35485" data-name="Rectángulo 35485" width="108.441" height="18.268" fill="none"/>
    </clipPath>
    <clipPath id="clip-path-8">
      <path id="Trazado_166657" data-name="Trazado 166657" d="M24.6,130.284a2.424,2.424,0,0,0-2.149,2.736l1.322,9.758a2.424,2.424,0,0,0,2.726,2.076l14.6-1.969-1.851-14.14Z" transform="translate(-22.429 -128.745)" fill="none"/>
    </clipPath>
    <clipPath id="clip-path-10">
      <rect id="Rectángulo_35487" data-name="Rectángulo 35487" width="25.096" height="75.767" fill="none"/>
    </clipPath>
    <clipPath id="clip-path-11">
      <rect id="Rectángulo_35488" data-name="Rectángulo 35488" width="27.703" height="58.159" fill="none"/>
    </clipPath>
  </defs>
  <g id="Grupo_82717" data-name="Grupo 82717" clip-path="url(#clip-path)">
    <g id="Grupo_82694" data-name="Grupo 82694">
      <g id="Grupo_82693" data-name="Grupo 82693" clip-path="url(#clip-path)">
        <path id="Trazado_166622" data-name="Trazado 166622" d="M28.435,207.417H274.817c-.047-.292-.1-.586-.159-.883a28.555,28.555,0,0,0-2.135-6.088c-2.027-4.409-4.64-8.633-5.234-13.42-.989-7.974,3.76-15.354,6.859-22.768a48.78,48.78,0,0,0,3.423-25.31c-1.117-8.186-5.182-13.491-9.488-20.272-4.253-6.7-4.072-12.931-.542-19.886,4.779-9.415,7.272-17.661,4.413-28.205A45.961,45.961,0,0,0,256.736,47.2c-9.2-7.431-21.351-9.27-32.706-11.039L200.1,32.438c-5.164-.8-13.047-.388-17.678-2.909-5.249-2.857-9.394-9.071-14.272-12.693-5.1-3.789-10.862-6.784-17.233-7.612C132.225,6.795,116.4,22.964,97.976,26.94c-8.573,1.85-17.707,1.029-25.925,4.094C61.1,35.12,53.551,45.638,50.087,56.8s-3.453,23.072-3.412,34.763q.049,14,.1,27.991c.025,7.1-.085,14.668-4.019,20.576-4.633,6.956-13.462,9.923-18.934,16.241-4.74,5.472-6.505,13.025-6.311,20.262a53.473,53.473,0,0,0,10.926,30.78" transform="translate(-6.541 -3.356)" fill="#26ccda"/>
      </g>
    </g>
    <g id="Grupo_82696" data-name="Grupo 82696">
      <g id="Grupo_82695" data-name="Grupo 82695" clip-path="url(#clip-path)">
        <path id="Trazado_166623" data-name="Trazado 166623" d="M0,323.573c0,2.165,66.038,3.919,147.5,3.919S295,325.737,295,323.573s-66.038-3.919-147.5-3.919S0,321.408,0,323.573" transform="translate(0 -119.512)" fill="#1fa4af"/>
        <path id="Trazado_166624" data-name="Trazado 166624" d="M294.509,214.617H170.322a2.5,2.5,0,0,1-2.5-2.5V29.787a2.5,2.5,0,0,1,2.5-2.5H294.509a2.5,2.5,0,0,1,2.5,2.5V212.112a2.5,2.5,0,0,1-2.5,2.5" transform="translate(-62.744 -10.201)" fill="#f57c00"/>
        <path id="Trazado_166625" data-name="Trazado 166625" d="M290.983,214.617H166.8a2.5,2.5,0,0,1-2.5-2.5V29.787a2.5,2.5,0,0,1,2.5-2.5H290.983a2.5,2.5,0,0,1,2.5,2.5V212.112a2.5,2.5,0,0,1-2.5,2.5" transform="translate(-61.425 -10.201)" fill="#ffd1a2"/>
        <rect id="Rectángulo_35477" data-name="Rectángulo 35477" width="111.751" height="171.113" transform="translate(113.797 25.193)" fill="#c1c6e0"/>
        <rect id="Rectángulo_35478" data-name="Rectángulo 35478" width="111.751" height="171.113" transform="translate(111.589 25.193)" fill="#fff"/>
        <path id="Trazado_166626" data-name="Trazado 166626" d="M278.393,36.6H224.131V23.307a3.131,3.131,0,0,1,3.131-3.131h48a3.13,3.13,0,0,1,3.131,3.131Z" transform="translate(-83.798 -7.543)" fill="#106f77"/>
        <path id="Trazado_166627" data-name="Trazado 166627" d="M259.92,0a12.632,12.632,0,1,0,12.632,12.632A12.632,12.632,0,0,0,259.92,0m0,18.948a6.316,6.316,0,1,1,6.316-6.316,6.316,6.316,0,0,1-6.316,6.316" transform="translate(-92.456 0)" fill="#106f77"/>
        <rect id="Rectángulo_35479" data-name="Rectángulo 35479" width="13.591" height="13.591" rx="2" transform="translate(193.69 59.762)" fill="none" stroke="#b1f9ff" stroke-miterlimit="10" stroke-width="1"/>
        <path id="Trazado_166628" data-name="Trazado 166628" d="M302.965,96.3l6.727,6.728a1.589,1.589,0,0,0,2.214,0l13.813-13.813,1.947-1.947a1.566,1.566,0,0,0-2.213-2.214L311.639,98.866l-1.947,1.947h2.214l-6.727-6.727a1.566,1.566,0,0,0-2.214,2.213" transform="translate(-113.1 -31.627)" fill="#f57c00"/>
        <rect id="Rectángulo_35480" data-name="Rectángulo 35480" width="13.591" height="13.591" rx="2" transform="translate(193.69 86.128)" fill="none" stroke="#b1f9ff" stroke-miterlimit="10" stroke-width="1"/>
        <path id="Trazado_166629" data-name="Trazado 166629" d="M302.965,138.409l6.727,6.727a1.589,1.589,0,0,0,2.214,0l13.813-13.813,1.947-1.947a1.566,1.566,0,0,0-2.213-2.213l-13.814,13.813-1.947,1.947h2.214l-6.727-6.727a1.566,1.566,0,0,0-2.214,2.214" transform="translate(-113.1 -47.371)" fill="#f57c00"/>
        <rect id="Rectángulo_35481" data-name="Rectángulo 35481" width="13.591" height="13.591" rx="2" transform="translate(193.69 111.271)" fill="none" stroke="#b1f9ff" stroke-miterlimit="10" stroke-width="1"/>
        <path id="Trazado_166630" data-name="Trazado 166630" d="M302.965,178.566l6.727,6.727a1.589,1.589,0,0,0,2.214,0l13.813-13.814,1.947-1.947a1.566,1.566,0,0,0-2.213-2.213l-13.814,13.813-1.947,1.947h2.214l-6.727-6.727a1.566,1.566,0,0,0-2.214,2.214" transform="translate(-113.1 -62.385)" fill="#f57c00"/>
        <rect id="Rectángulo_35482" data-name="Rectángulo 35482" width="13.591" height="13.591" rx="2" transform="translate(193.69 136.821)" fill="none" stroke="#b1f9ff" stroke-miterlimit="10" stroke-width="1"/>
        <path id="Trazado_166631" data-name="Trazado 166631" d="M302.965,219.373l6.727,6.727a1.589,1.589,0,0,0,2.214,0l13.813-13.813,1.947-1.947a1.566,1.566,0,0,0-2.213-2.213l-13.814,13.813-1.947,1.947h2.214l-6.727-6.727a1.566,1.566,0,0,0-2.214,2.214" transform="translate(-113.1 -77.642)" fill="#f57c00"/>
        <path id="Trazado_166632" data-name="Trazado 166632" d="M258.848,96.713h-56.1a.626.626,0,0,1-.626-.626V95.1a.626.626,0,0,1,.626-.626h56.1a.626.626,0,0,1,.626.626v.989a.626.626,0,0,1-.626.626" transform="translate(-75.569 -35.321)" fill="#b1f9ff"/>
        <path id="Trazado_166633" data-name="Trazado 166633" d="M258.848,105.939h-56.1a.626.626,0,0,1-.626-.626v-.989a.626.626,0,0,1,.626-.626h56.1a.626.626,0,0,1,.626.626v.989a.626.626,0,0,1-.626.626" transform="translate(-75.569 -38.77)" fill="#b1f9ff"/>
        <path id="Trazado_166634" data-name="Trazado 166634" d="M245.325,115.165H202.747a.626.626,0,0,1-.626-.626v-.989a.626.626,0,0,1,.626-.626h42.577a.626.626,0,0,1,.626.626v.989a.626.626,0,0,1-.626.626" transform="translate(-75.569 -42.22)" fill="#b1f9ff"/>
        <path id="Trazado_166635" data-name="Trazado 166635" d="M258.848,138.823h-56.1a.626.626,0,0,1-.626-.626v-.989a.626.626,0,0,1,.626-.626h56.1a.626.626,0,0,1,.626.626v.989a.626.626,0,0,1-.626.626" transform="translate(-75.569 -51.065)" fill="#b1f9ff"/>
        <path id="Trazado_166636" data-name="Trazado 166636" d="M258.848,148.049h-56.1a.626.626,0,0,1-.626-.626v-.989a.626.626,0,0,1,.626-.626h56.1a.626.626,0,0,1,.626.626v.989a.626.626,0,0,1-.626.626" transform="translate(-75.569 -54.514)" fill="#b1f9ff"/>
        <path id="Trazado_166637" data-name="Trazado 166637" d="M245.325,157.275H202.747a.626.626,0,0,1-.626-.626v-.989a.626.626,0,0,1,.626-.626h42.577a.626.626,0,0,1,.626.626v.989a.626.626,0,0,1-.626.626" transform="translate(-75.569 -57.964)" fill="#b1f9ff"/>
        <path id="Trazado_166638" data-name="Trazado 166638" d="M258.848,178.98h-56.1a.626.626,0,0,1-.626-.626v-.989a.626.626,0,0,1,.626-.626h56.1a.626.626,0,0,1,.626.626v.989a.626.626,0,0,1-.626.626" transform="translate(-75.569 -66.079)" fill="#b1f9ff"/>
        <path id="Trazado_166639" data-name="Trazado 166639" d="M258.848,188.2h-56.1a.626.626,0,0,1-.626-.626v-.989a.626.626,0,0,1,.626-.626h56.1a.626.626,0,0,1,.626.626v.989a.626.626,0,0,1-.626.626" transform="translate(-75.569 -69.528)" fill="#b1f9ff"/>
        <path id="Trazado_166640" data-name="Trazado 166640" d="M245.325,197.431H202.747a.626.626,0,0,1-.626-.626v-.989a.626.626,0,0,1,.626-.626h42.577a.626.626,0,0,1,.626.626v.989a.626.626,0,0,1-.626.626" transform="translate(-75.569 -72.977)" fill="#b1f9ff"/>
        <path id="Trazado_166641" data-name="Trazado 166641" d="M258.848,219.786h-56.1a.626.626,0,0,1-.626-.626v-.989a.626.626,0,0,1,.626-.626h56.1a.626.626,0,0,1,.626.626v.989a.626.626,0,0,1-.626.626" transform="translate(-75.569 -81.336)" fill="#b1f9ff"/>
        <path id="Trazado_166642" data-name="Trazado 166642" d="M258.848,229.013h-56.1a.626.626,0,0,1-.626-.626V227.4a.626.626,0,0,1,.626-.626h56.1a.626.626,0,0,1,.626.626v.989a.626.626,0,0,1-.626.626" transform="translate(-75.569 -84.785)" fill="#b1f9ff"/>
        <path id="Trazado_166643" data-name="Trazado 166643" d="M245.325,238.239H202.747a.626.626,0,0,1-.626-.626v-.989a.626.626,0,0,1,.626-.626h42.577a.626.626,0,0,1,.626.626v.989a.626.626,0,0,1-.626.626" transform="translate(-75.569 -88.234)" fill="#b1f9ff"/>
        <path id="Trazado_166644" data-name="Trazado 166644" d="M172.818,108.17c2.836.227,7.9,2.194,6.891,5.969a.89.89,0,0,1-.237.451,1.024,1.024,0,0,1-.664.178,5.285,5.285,0,0,1-3.608-.867c-.608-.512-.989-1.264-1.635-1.727a4.827,4.827,0,0,0-1.245-.575l-2.25-.79c-.4-.139-.845-.33-.965-.733a1.155,1.155,0,0,1,.583-1.154,4.68,4.68,0,0,1,3.131-.751" transform="translate(-63.214 -40.435)" fill="#f57c00"/>
        <path id="Trazado_166645" data-name="Trazado 166645" d="M69.3,322.45l.043.009a18.77,18.77,0,0,0,3.593.2c2.184.018,4.36.039,6.544-.059,1.342-.061,1.887-.728,2.136-1.972a15.947,15.947,0,0,0,.291-3.945.766.766,0,0,0-.085-.371.748.748,0,0,0-.4-.266,7.074,7.074,0,0,0-1.649-.388c-.386-.043-1.1-.183-1.423.063a5.082,5.082,0,0,0-.8,1.157,7.854,7.854,0,0,1-.962,1.213,6.329,6.329,0,0,1-2.641,1.438c-.969.292-1.972.45-2.958.68a5.661,5.661,0,0,0-2.082.835.888.888,0,0,0-.455.765c.051.376.477.555.853.637" transform="translate(-25.588 -117.99)" fill="#9b5003"/>
        <path id="Trazado_166646" data-name="Trazado 166646" d="M147.574,322.45l-.043.009a18.78,18.78,0,0,1-3.593.2c-2.184.018-4.36.039-6.544-.059-1.342-.061-1.887-.728-2.136-1.972a15.918,15.918,0,0,1-.291-3.945.773.773,0,0,1,.085-.371.747.747,0,0,1,.4-.266,7.062,7.062,0,0,1,1.648-.388c.386-.043,1.1-.183,1.423.063a5.081,5.081,0,0,1,.8,1.157,7.855,7.855,0,0,0,.962,1.213,6.33,6.33,0,0,0,2.641,1.438c.969.292,1.972.45,2.958.68a5.661,5.661,0,0,1,2.082.835.889.889,0,0,1,.455.765c-.051.376-.477.555-.853.637" transform="translate(-50.454 -117.99)" fill="#9b5003"/>
        <path id="Trazado_166647" data-name="Trazado 166647" d="M111.029,89.85a5.83,5.83,0,0,1-.133.967c-.344,1.434-1.4,2.5-2.18,3.7a5.091,5.091,0,0,0-.628,3.512,13.862,13.862,0,0,0,3.63,6.844,6.376,6.376,0,0,0,1.253,1.2,9.486,9.486,0,0,0,1.881.708,24.961,24.961,0,0,0,5.271,1.135c.881.092,1.766.129,2.65.143a5.4,5.4,0,0,0,2.316-.807,9.763,9.763,0,0,0,2.32-1.535,14.032,14.032,0,0,0,1.9-2.293,5.752,5.752,0,0,0,1.054-2.036,17.307,17.307,0,0,1,.3-2.728A8.732,8.732,0,0,1,131.6,97.2c1.048-1.625-.44-3.6.412-5.289.53-1.051,1.6-1.7,2.059-2.791a4.382,4.382,0,0,0-.006-3.295,7.328,7.328,0,0,0-4.011-3.653c-1.943-.848-4.4-1.131-6.031.226-.346.288-.636.637-.964.945-2.629,2.472-6.034.5-9.061,1.641a4.4,4.4,0,0,0-2.744,2.743,9.95,9.95,0,0,0-.229,2.126" transform="translate(-40.385 -30.454)" fill="#12263f"/>
        <path id="Trazado_166648" data-name="Trazado 166648" d="M240.805,111.2,217.3,107.705l1.99,13.3Z" transform="translate(-81.243 -40.269)" fill="#eeeaed"/>
      </g>
    </g>
    <g id="Grupo_82698" data-name="Grupo 82698" transform="translate(136.055 67.436)">
      <g id="Grupo_82697" data-name="Grupo 82697" clip-path="url(#clip-path-4)">
        <path id="Trazado_166649" data-name="Trazado 166649" d="M240.236,113.5a5.747,5.747,0,0,0,1.014,2.15c1.656,2.108,5.57.708,7.521-.172a6.751,6.751,0,0,0,4.131-5.6,3.491,3.491,0,0,0-.373-2.02c-.762-1.337-2.646-1.613-4.013-1.921a10.046,10.046,0,0,0-5.082.066c-2.9.868-3.927,4.591-3.2,7.494" transform="translate(-225.79 -106.937)" fill="#f57c00"/>
      </g>
    </g>
    <g id="Grupo_82706" data-name="Grupo 82706">
      <g id="Grupo_82705" data-name="Grupo 82705" clip-path="url(#clip-path)">
        <path id="Trazado_166651" data-name="Trazado 166651" d="M153.113,107.658l-104.578,13.2-1.267,14.56,107.973-14.292Z" transform="translate(-17.673 -40.251)" fill="#fdd835"/>
        <g id="Grupo_82701" data-name="Grupo 82701" transform="translate(28.576 67.407)" opacity="0.2">
          <g id="Grupo_82700" data-name="Grupo 82700">
            <g id="Grupo_82699" data-name="Grupo 82699" clip-path="url(#clip-path-6)">
              <path id="Trazado_166652" data-name="Trazado 166652" d="M45.64,125.657l107.593-13.386-.729-4.613-104.578,13.2Z" transform="translate(-45.64 -107.658)" fill="#fff"/>
            </g>
          </g>
        </g>
        <g id="Grupo_82704" data-name="Grupo 82704" transform="translate(29.128 76.903)" opacity="0.2">
          <g id="Grupo_82703" data-name="Grupo 82703">
            <g id="Grupo_82702" data-name="Grupo 82702" clip-path="url(#clip-path-7)">
              <path id="Trazado_166653" data-name="Trazado 166653" d="M46.522,136.614l107.813-13.79.628,3.975L46.99,141.092Z" transform="translate(-46.522 -122.824)" fill="#231f20"/>
            </g>
          </g>
        </g>
        <path id="Trazado_166654" data-name="Trazado 166654" d="M39.248,128.745l1.851,14.14-14.6,1.97a2.424,2.424,0,0,1-2.726-2.077l-1.322-9.758a2.423,2.423,0,0,1,2.149-2.736Z" transform="translate(-8.386 -48.135)" fill="#68838c"/>
      </g>
    </g>
    <g id="Grupo_82708" data-name="Grupo 82708" transform="translate(14.043 80.61)">
      <g id="Grupo_82707" data-name="Grupo 82707" clip-path="url(#clip-path-8)">
        <path id="Trazado_166655" data-name="Trazado 166655" d="M27.148,128l2.277,17.054-7.518.533-2.441-15.8Z" transform="translate(-21.321 -128.468)" fill="#c95b59"/>
        <path id="Trazado_166656" data-name="Trazado 166656" d="M37.027,127.391l2.32,17.358,3.677-.287L40.58,127.089" transform="translate(-27.887 -128.126)" fill="none" stroke="#506d75" stroke-miterlimit="10" stroke-width="1"/>
      </g>
    </g>
    <g id="Grupo_82716" data-name="Grupo 82716">
      <g id="Grupo_82715" data-name="Grupo 82715" clip-path="url(#clip-path)">
        <path id="Trazado_166658" data-name="Trazado 166658" d="M217.514,119.879a2.609,2.609,0,1,1,1.595-3.165,2.51,2.51,0,0,1-1.595,3.165" transform="translate(-80.149 -42.918)" fill="#eeeaed"/>
        <path id="Trazado_166659" data-name="Trazado 166659" d="M218.49,126.642a2.058,2.058,0,1,1,1.536-2.578,2.124,2.124,0,0,1-1.536,2.578" transform="translate(-80.662 -45.839)" fill="#eeeaed"/>
        <path id="Trazado_166660" data-name="Trazado 166660" d="M216.24,112.277a2.367,2.367,0,1,1,1.451-2.873,2.278,2.278,0,0,1-1.451,2.873" transform="translate(-79.78 -40.252)" fill="#eeeaed"/>
        <path id="Trazado_166661" data-name="Trazado 166661" d="M89.007,250.15a263.28,263.28,0,0,0,5.67-28.745c.4-3.106.775-6.214,1.207-9.315.468-3.357,1.006-6.549,1.672-11.312.241-1.722,3.8-1.69,5.495-2.082,4.229-.98,8.587-.462,12.876-.391,1.578.027,3.719-.637,4.759.744,1.111,1.476,1.085,4.076,1.185,5.83.885,15.57-.985,31.113-1.42,46.664-.183,6.532-.071,13.012.254,19.536.064,1.291-.259,2.57-1.729,2.759a5.5,5.5,0,0,1-2.669-.33c-1.39-.8-2.263-3.442-2.739-4.847a40.831,40.831,0,0,1-1.413-6.227,114.574,114.574,0,0,1-1.262-11.738c-.858-12.795-1.524-21.053-.571-34.961-1.3,7.485-1.274,12.372-3.57,19.614a128.874,128.874,0,0,1-8.635,19.75c-1.821,3.545-3.553,7.139-5.531,10.6-.987,1.729-2.034,3.425-3.179,5.054-1.006,1.43-1.8,2.878-3.685,3.1a10.465,10.465,0,0,1-2.446-.1c-.225-.027-.485-.076-.59-.277a.7.7,0,0,1-.029-.423c.555-3.8,2.444-7.517,3.464-11.237,1.06-3.864,1.943-7.775,2.887-11.668" transform="translate(-30.896 -74.067)" fill="#106f77"/>
        <path id="Trazado_166662" data-name="Trazado 166662" d="M103.465,202.368a3.911,3.911,0,0,1,.789-.413,10.118,10.118,0,0,1,1.675-.522c1.332-.292,1.22.5,1.487,1.425.322,1.116.989,2.216,1.417,3.3.47,1.2,1.324,2.238-.052,3.017a5.83,5.83,0,0,1-2.288.725.946.946,0,0,1-.466-.038.931.931,0,0,1-.335-.288c-.614-.744-1.213-1.565-1.773-2.355-.8-1.131-1.453-2.1-1.217-3.565a2.094,2.094,0,0,1,.26-.768,1.78,1.78,0,0,1,.5-.522" transform="translate(-38.379 -75.288)" fill="#fab594"/>
        <path id="Trazado_166663" data-name="Trazado 166663" d="M104.916,212.8a7.516,7.516,0,0,0,4.986-.986,8.433,8.433,0,0,0,2.917-3.749c.156-.371-.45-.533-.6-.167a7.633,7.633,0,0,1-2.717,3.434,5.247,5.247,0,0,1-1.8.772,10.306,10.306,0,0,1-2.78.068c-.4-.026-.4.6,0,.626" transform="translate(-39.113 -77.653)" fill="#4c83c3"/>
        <path id="Trazado_166664" data-name="Trazado 166664" d="M141.773,214.944a2.156,2.156,0,0,1-2.148-.533,5.951,5.951,0,0,1-.97-1.58,21.086,21.086,0,0,1-1.467-5.447c-.063-.4-.667-.229-.6.166a20.275,20.275,0,0,0,1.695,5.941,5.208,5.208,0,0,0,1.111,1.568,2.841,2.841,0,0,0,2.55.488c.4-.066.229-.669-.167-.6" transform="translate(-51.064 -77.452)" fill="#4c83c3"/>
        <g id="Grupo_82711" data-name="Grupo 82711" transform="translate(66.044 124.038)" opacity="0.2">
          <g id="Grupo_82710" data-name="Grupo 82710">
            <g id="Grupo_82709" data-name="Grupo 82709" clip-path="url(#clip-path-10)">
              <path id="Trazado_166665" data-name="Trazado 166665" d="M124.555,198.3c-.052,0-.1,0-.155,0-4.289-.071-8.647-.589-12.876.391-1.694.393-5.254.361-5.495,2.082-.193,1.377-.374,2.62-.547,3.777a10.255,10.255,0,0,0,2.549,1.429,40.158,40.158,0,0,0,8.811,2.415c3.449.587,8.155,0,9.939,3.745a13.743,13.743,0,0,1,.922,5.719,266.7,266.7,0,0,1-.464,27.658,106.136,106.136,0,0,1-2.09,13.928c-.808,3.622-2.189,7.53-2.321,11.332a5.8,5.8,0,0,0,1.952,2.726,5.505,5.505,0,0,0,2.669.33c1.47-.188,1.794-1.468,1.729-2.759-.325-6.524-.437-13-.254-19.536.435-15.551,2.3-31.093,1.419-46.664-.043-.753-.063-1.664-.16-2.574a11.977,11.977,0,0,0-5.628-4" transform="translate(-105.482 -198.105)" fill="#231f20"/>
            </g>
          </g>
        </g>
        <path id="Trazado_166666" data-name="Trazado 166666" d="M146.524,136.455a4.623,4.623,0,0,0-1.106.83,3.129,3.129,0,0,0,.92,4.857c2.195.956,4.857.3,7.058-.3a70.126,70.126,0,0,0,14.941-6.359,18.4,18.4,0,0,0,2.5-1.4,2.815,2.815,0,0,0,.857-.99Z" transform="translate(-54.076 -49.761)" fill="#fab594"/>
        <path id="Trazado_166667" data-name="Trazado 166667" d="M132.94,146.369a31.179,31.179,0,0,0-1.71-5.743c-.864-2.1-2.282-4.623-4.293-5.837-1.883-1.138-5.6-.051-7.686.435-1.969.458-4.925,1.074-6.522,2.392-1.475,1.217-1.309,4.256-1.131,6.014.2,2.024.7,4.012.878,6.038a34.258,34.258,0,0,1-1.281,11.021,91.8,91.8,0,0,1-3.975,12.728,4.09,4.09,0,0,0-.44,1.905,3.7,3.7,0,0,0,2.1,2.485c6.385,3.779,14.2,3.2,21.371,2.846a3.181,3.181,0,0,0,1.707-.419,3.081,3.081,0,0,0,1-1.932,53.5,53.5,0,0,0,.9-12.025c-.029-6.534.382-13.426-.92-19.906" transform="translate(-39.919 -50.207)" fill="#f6f6f6"/>
        <path id="Trazado_166668" data-name="Trazado 166668" d="M128.131,131.434q-2.148-.656-4.247-1.458a1.073,1.073,0,0,1-.4-.225c-.292-.3-.24-.966-.264-1.357a11.869,11.869,0,0,1,.024-1.543c.066-.94.223-1.881.217-2.824a4.763,4.763,0,0,1,.342-2.223,3.2,3.2,0,0,1,2.152-1.528,9.512,9.512,0,0,1,2.711-.116,1.23,1.23,0,0,1,.747.207c.672.574.517,1.711.6,2.5a30.931,30.931,0,0,0,.632,3.4c.116.523.279,1.036.405,1.558a2.479,2.479,0,0,1,.151,1.36,5.636,5.636,0,0,1-1.9,2.268.832.832,0,0,1-.339.17.89.89,0,0,1-.39-.054l-.435-.131" transform="translate(-46.063 -44.909)" fill="#fab594"/>
        <path id="Trazado_166669" data-name="Trazado 166669" d="M124.632,126.408a8.318,8.318,0,0,0,6.406,1.222c-.085-.453-.175-.907-.278-1.367a30.939,30.939,0,0,1-.632-3.4c-.084-.786.072-1.923-.6-2.5a1.222,1.222,0,0,0-.747-.207,9.489,9.489,0,0,0-2.711.116,3.2,3.2,0,0,0-2.152,1.528,4.765,4.765,0,0,0-.342,2.224c0,.49-.023,1.016-.053,1.557a10.252,10.252,0,0,0,1.109.825" transform="translate(-46.183 -44.909)" fill="#eb977d"/>
        <path id="Trazado_166670" data-name="Trazado 166670" d="M117.1,107.547a11.708,11.708,0,0,0,5.078,8.2c2.153,1.378,5.351,2.092,7.662.682,3.1-1.893,3.725-6.489,3.646-9.79-.093-3.9-1.628-8.274-5.412-10.01-2.66-1.221-6.828-1.344-8.729,1.2a13.417,13.417,0,0,0-2.247,9.716" transform="translate(-43.73 -35.813)" fill="#fab594"/>
        <path id="Trazado_166671" data-name="Trazado 166671" d="M169.537,109.379c1.5,1.382,2.549,3.137,1.009,4.047-.5.3-1.116-.171-1.431-.66s-.609-1.094-1.177-1.225a1.847,1.847,0,0,0-1.273.356l-4.406,2.519a2.987,2.987,0,0,1-.736.337,1.86,1.86,0,0,1-2.041-1.13,3.044,3.044,0,0,1,.153-2.459c1.275-2.724,3.183-3,5.884-3.094a5.083,5.083,0,0,1,4.018,1.309" transform="translate(-59.554 -40.402)" fill="#fab594"/>
        <path id="Trazado_166672" data-name="Trazado 166672" d="M127.667,95.359a5.145,5.145,0,0,0-2.269.842c-1.354.917-2.188,2.421-3.407,3.51a16.1,16.1,0,0,1-3.983,2.3,1.88,1.88,0,0,0-.71.485,1.547,1.547,0,0,0-.246,1.058c.126,2.093,1.529,3.946.45,6.036a1.622,1.622,0,0,1-.447.574c-1.2.892-2.27-1.351-2.694-2.17a10.877,10.877,0,0,1-1.154-3.94c-.265-2.745.269-6.365,2.468-8.211a12.137,12.137,0,0,1,7.627-2.991,10.161,10.161,0,0,1,2.833.389,3.4,3.4,0,0,1,1.334.724,3.324,3.324,0,0,1,.694.635,6.241,6.241,0,0,1,.317.724,5.036,5.036,0,0,0-.813.031" transform="translate(-42.302 -34.717)" fill="#12263f"/>
        <path id="Trazado_166673" data-name="Trazado 166673" d="M129.543,119.75a25.161,25.161,0,0,0,3.533-.346,13.931,13.931,0,0,0,3.427-1.258s-.113,1.27-.152,1.4a4.627,4.627,0,0,1-.7,1.428,3.809,3.809,0,0,1-4.79.867,2.98,2.98,0,0,1-.949-.971c-.045-.074-.5-1.113-.369-1.125" transform="translate(-48.424 -44.173)" fill="#fff"/>
        <path id="Trazado_166674" data-name="Trazado 166674" d="M135.933,105.286a2.5,2.5,0,0,1,2.97.293.316.316,0,0,0,.443,0,.32.32,0,0,0,0-.443c-.915-1.081-2.568-.956-3.729-.391a.316.316,0,0,0-.112.428.32.32,0,0,0,.428.112" transform="translate(-50.647 -39.003)" fill="#12263f"/>
        <g id="Grupo_82714" data-name="Grupo 82714" transform="translate(51.741 141.667)" opacity="0.2">
          <g id="Grupo_82713" data-name="Grupo 82713">
            <g id="Grupo_82712" data-name="Grupo 82712" clip-path="url(#clip-path-11)">
              <path id="Trazado_166675" data-name="Trazado 166675" d="M110,226.786c-.36,1.151-.624,2.356-.947,3.526a72.729,72.729,0,0,1-6.062,15.659c-2.952,5.378-7.116,9.607-11.058,14.237-1.391,1.633-2.759,3.328-4.028,5.089-.564,2.357-1.14,4.711-1.781,7.049-1.02,3.719-2.908,7.433-3.463,11.237a.688.688,0,0,0,.029.423c.105.2.365.25.59.277a10.429,10.429,0,0,0,2.446.1c1.886-.221,2.679-1.669,3.685-3.1,1.146-1.629,2.193-3.325,3.179-5.054,1.978-3.462,3.71-7.056,5.531-10.6a128.859,128.859,0,0,0,8.635-19.752c2.3-7.241,2.27-12.129,3.57-19.613-.076,0-.3.453-.326.525" transform="translate(-82.638 -226.261)" fill="#231f20"/>
              <path id="Trazado_166676" data-name="Trazado 166676" d="M126.841,226.261c-.006.094-.012.185-.018.278.029-.136.058-.277.018-.278" transform="translate(-99.158 -226.261)" fill="#231f20"/>
            </g>
          </g>
        </g>
        <path id="Trazado_166677" data-name="Trazado 166677" d="M122.324,154.873q.023,1.481.044,2.962a7.016,7.016,0,0,1-.138,1.858,2.362,2.362,0,0,1-1.039,1.494c-1.135.647-2.924-.329-3.563-1.32a9.564,9.564,0,0,1-1.378-5l6.073-.016c0,.008,0,.016,0,.023" transform="translate(-43.464 -57.895)" fill="#72c384"/>
        <path id="Trazado_166678" data-name="Trazado 166678" d="M117.725,117.371c.742,1.286.7,2.7-.091,3.156s-2.037-.214-2.779-1.5-.7-2.7.091-3.156,2.037.214,2.779,1.5" transform="translate(-42.743 -43.269)" fill="#fab594"/>
        <path id="Trazado_166679" data-name="Trazado 166679" d="M127.6,111.792c.18.837-.033,1.593-.477,1.689s-.95-.507-1.13-1.344.033-1.593.477-1.689.949.506,1.13,1.343" transform="translate(-47.082 -41.291)" fill="#12263f"/>
        <path id="Trazado_166680" data-name="Trazado 166680" d="M138.96,109.451c.068.854-.245,1.575-.7,1.611s-.874-.627-.942-1.481.245-1.575.7-1.611.874.627.942,1.481" transform="translate(-51.338 -40.367)" fill="#12263f"/>
        <path id="Trazado_166681" data-name="Trazado 166681" d="M125.878,106.69a3.348,3.348,0,0,0-3.446,2.226.315.315,0,0,0,.219.385.32.32,0,0,0,.385-.219,2.515,2.515,0,0,1,.989-1.285,2.592,2.592,0,0,1,1.686-.5.323.323,0,0,0,.385-.219.315.315,0,0,0-.219-.385" transform="translate(-45.769 -39.879)" fill="#12263f"/>
        <path id="Trazado_166682" data-name="Trazado 166682" d="M134.685,133.5l-2.136,3.044,3.187,2.7v-5.19Z" transform="translate(-49.557 -49.912)" fill="#fff"/>
        <path id="Trazado_166683" data-name="Trazado 166683" d="M118.66,136.279l2.92-2.021,5.775,2.569-1.49,3.757Z" transform="translate(-44.365 -50.196)" fill="#fff"/>
        <path id="Trazado_166684" data-name="Trazado 166684" d="M107.181,177.854c-1.649.075-2.726-1.318-2.782-3.017q-.029-.9.021-1.8c.258-4.714,2.182-9.061,3.836-13.412a31.278,31.278,0,0,0,2.215-11.906,27.537,27.537,0,0,0-1.94-9.561.367.367,0,0,1-.039-.2.352.352,0,0,1,.086-.153,10.063,10.063,0,0,1,2.761-2.086,15.45,15.45,0,0,1,3.33-1.614,5.926,5.926,0,0,1,1.181-.368c.958.232,2.013,3.251,2.392,4.09,3.972,8.8,2.368,19.3-1.665,27.778-1.969,4.136-4.228,8.228-7.527,11.407a2.631,2.631,0,0,1-.9.64,3.343,3.343,0,0,1-.968.2" transform="translate(-39.029 -50.002)" fill="#f57c00"/>
        <path id="Trazado_166685" data-name="Trazado 166685" d="M92.433,155.711c-1.126,1.9-2.462,3.966-2.829,6.113-.472,2.742.28,5.328,1.138,7.94a57.348,57.348,0,0,0,6.873,13.755c.116.175.272.371.483.357a.6.6,0,0,0,.279-.122l4.136-2.731a1.078,1.078,0,0,0,.436-1.647L99.2,169.9a15.98,15.98,0,0,1-1.249-4.3,10.391,10.391,0,0,1,1.7-6.356,24.931,24.931,0,0,1,4.411-5.013,6.015,6.015,0,0,0,1.516-1.811c1.053-2.312.879-5.005.646-7.468-.123-1.308.071-5.648-2-5.605a1.826,1.826,0,0,0-1.028.472c-2.371,1.832-3.927,4.444-5.422,6.988-1.615,2.749-3.354,5.415-4.926,8.192-.133.234-.271.471-.413.711" transform="translate(-33.447 -52.099)" fill="#f57c00"/>
        <path id="Trazado_166686" data-name="Trazado 166686" d="M146.259,169.792c.1-6.443.19-12.894-.173-19.331q-.138-2.444-.371-4.879c-.1-1.055-.227-1.007.54-1.545a10.164,10.164,0,0,1,2.186-.8c3.958-1.442,7.917-2.89,11.848-4.4,3.5-1.349,6.947-3.063,9.429-5.961a92.67,92.67,0,0,1-11.032,1.469,126.808,126.808,0,0,1-14.971.793,14.5,14.5,0,0,1-6.078-1.321,19.732,19.732,0,0,1,1.628,5.887c.071,2.34.23,4.68.312,7.021q.24,6.887.225,13.78c-.016,7.113-.522,14-1.2,21.058a13.708,13.708,0,0,0,4.606-.411,1.787,1.787,0,0,0,.741-.333,1.849,1.849,0,0,0,.433-.711,23.666,23.666,0,0,0,1.652-6.045,38.931,38.931,0,0,0,.219-4.273" transform="translate(-51.46 -49.68)" fill="#f57c00"/>
        <path id="Trazado_166687" data-name="Trazado 166687" d="M122.593,165.609c4.034-8.476,5.638-18.98,1.665-27.778-.378-.838-1.434-3.858-2.392-4.09a5.939,5.939,0,0,0-1.181.368c-.07.022-.135.051-.2.075a6.051,6.051,0,0,0,.525,1.163,13.815,13.815,0,0,1,.806,2.74,32.976,32.976,0,0,1,.332,12.552,4.03,4.03,0,0,1,1.776.207,6.052,6.052,0,0,1-.876,1.741,6.763,6.763,0,0,0-.213,3.818,28.719,28.719,0,0,1-.617,9.98c.126-.258.254-.516.378-.775" transform="translate(-45.046 -50.002)" fill="#ffac57"/>
        <path id="Trazado_166688" data-name="Trazado 166688" d="M143.235,151.69c-.445-2.968-.858-5.942-1.321-8.908a25.249,25.249,0,0,0-2.558-7.727,10.388,10.388,0,0,1-1.717-.674,19.712,19.712,0,0,1,1.627,5.887c.071,2.34.23,4.68.312,7.021q.24,6.887.225,13.78c0,1.275-.026,2.541-.059,3.8.878-2.734,2.22-5.363,2.579-8.213a24.538,24.538,0,0,0-.075-5.13,1.8,1.8,0,0,0,.986.16" transform="translate(-51.46 -50.242)" fill="#ffac57"/>
        <path id="Trazado_166689" data-name="Trazado 166689" d="M132.381,141.032a28.337,28.337,0,0,1,1.4,7.766,78.98,78.98,0,0,1,.118,7.947,85.4,85.4,0,0,1-1.608,15.838c-.629,2.9-1.3,5.79-1.831,8.712-.071.394.532.563.6.166.946-5.234,2.439-10.368,2.978-15.671.269-2.648.359-5.314.45-7.973.095-2.749.13-5.5-.034-8.252a30.366,30.366,0,0,0-1.469-8.7c-.138-.374-.744-.213-.6.167" transform="translate(-48.773 -52.587)" fill="#fff"/>
        <path id="Trazado_166690" data-name="Trazado 166690" d="M393.2,240.8l-8.239-2.918-4.338,7.736.262.093a20.481,20.481,0,0,0-4.812.252l.252-.12L371.2,238.6l-7.889,3.762,2.4,8.538.252-.12a20.46,20.46,0,0,0-3.225,3.58l.093-.262-8.742-1.5-2.918,8.239,7.736,4.338.093-.262a20.447,20.447,0,0,0,.252,4.812l-.12-.252-7.24,5.123,3.762,7.889,8.538-2.4-.12-.251a20.435,20.435,0,0,0,3.581,3.224l-.262-.093-1.5,8.742,8.238,2.918,4.339-7.736-.262-.093a20.449,20.449,0,0,0,4.812-.252l-.252.12,5.122,7.24,7.89-3.762-2.4-8.538-.252.12a20.463,20.463,0,0,0,3.225-3.581l-.093.262,8.742,1.5,2.918-8.239-7.736-4.339-.093.262a20.447,20.447,0,0,0-.252-4.812l.12.252,7.241-5.122-3.762-7.89-8.538,2.4.12.252a20.461,20.461,0,0,0-3.58-3.225l.262.093Z" transform="translate(-131.296 -88.939)" fill="#fdd835"/>
        <path id="Trazado_166691" data-name="Trazado 166691" d="M391.783,255.7a17.856,17.856,0,1,1-22.793,10.869A17.856,17.856,0,0,1,391.783,255.7" transform="translate(-137.573 -95.217)" fill="#d9ba2e"/>
        <path id="Trazado_166692" data-name="Trazado 166692" d="M392.953,262.544a13.412,13.412,0,1,1-17.121,8.165,13.412,13.412,0,0,1,17.121-8.165" transform="translate(-140.227 -97.871)" fill="#fdd835"/>
        <path id="Trazado_166693" data-name="Trazado 166693" d="M394.028,268.829a9.331,9.331,0,1,1-11.911,5.68,9.331,9.331,0,0,1,11.911-5.68" transform="translate(-142.664 -100.308)" fill="#fff3bf"/>
        <path id="Trazado_166694" data-name="Trazado 166694" d="M381.184,178.387l-5.271-2.551-3.461,4.832.168.081a13.729,13.729,0,0,0-3.223-.187l.177-.061-2.878-5.2-5.532,1.923.97,5.864.176-.061a13.717,13.717,0,0,0-2.411,2.146l.081-.168-5.711-1.642-2.551,5.272,4.832,3.46.081-.168a13.725,13.725,0,0,0-.187,3.223l-.061-.176-5.2,2.878,1.923,5.531,5.864-.97-.062-.177a13.7,13.7,0,0,0,2.147,2.411l-.168-.081-1.642,5.711,5.272,2.551,3.46-4.832-.168-.081a13.69,13.69,0,0,0,3.223.187l-.176.061,2.877,5.2,5.532-1.924-.97-5.863-.177.061a13.7,13.7,0,0,0,2.411-2.147l-.081.168,5.712,1.642,2.551-5.271-4.832-3.46-.081.168a13.7,13.7,0,0,0,.187-3.223l.061.177,5.2-2.878-1.924-5.531-5.863.97.061.177a13.7,13.7,0,0,0-2.147-2.412l.168.081Z" transform="translate(-131.3 -65.541)" fill="#fdd835"/>
        <path id="Trazado_166695" data-name="Trazado 166695" d="M379.644,187.782a11.964,11.964,0,1,1-15.98,5.558,11.964,11.964,0,0,1,15.98-5.558" transform="translate(-135.519 -69.76)" fill="#d9ba2e"/>
        <path id="Trazado_166696" data-name="Trazado 166696" d="M380.126,192.24a8.987,8.987,0,1,1-12,4.175,8.987,8.987,0,0,1,12-4.175" transform="translate(-137.297 -71.538)" fill="#fdd835"/>
        <path id="Trazado_166697" data-name="Trazado 166697" d="M380.568,196.334a6.252,6.252,0,1,1-8.351,2.9,6.253,6.253,0,0,1,8.351-2.9" transform="translate(-138.93 -73.171)" fill="#fff3bf"/>
      </g>
    </g>
  </g>
</svg>
