<svg xmlns="http://www.w3.org/2000/svg" xmlns:xlink="http://www.w3.org/1999/xlink" width="208" height="208" viewBox="0 0 208 208">
  <defs>
    <filter id="Elipse_4262" x="0" y="0" width="208" height="208" filterUnits="userSpaceOnUse">
      <feOffset dx="-6" dy="6" input="SourceAlpha"/>
      <feGaussianBlur stdDeviation="3" result="blur"/>
      <feFlood flood-opacity="0.161"/>
      <feComposite operator="in" in2="blur"/>
      <feComposite in="SourceGraphic"/>
    </filter>
  </defs>
  <g id="Grupo_120362" data-name="Grupo 120362" transform="translate(-690.285 -2726)">
    <g transform="matrix(1, 0, 0, 1, 690.29, 2726)" filter="url(#Elipse_4262)">
      <g id="Elipse_4262-2" data-name="Elipse 4262" transform="translate(15 3)" fill="#fff" stroke="#fdd835" stroke-width="6">
        <circle cx="95" cy="95" r="95" stroke="none"/>
        <circle cx="95" cy="95" r="92" fill="none"/>
      </g>
    </g>
    <g id="favorito" transform="translate(743.953 2766.906)">
      <path id="Trazado_103978" data-name="Trazado 103978" d="M112.706,53.037c.632,3.2,4.759,7.439,4.759,10.82s-4.127,7.628-4.759,10.824c-.651,3.29,2.027,7.575.772,10.6-1.279,3.082-6.216,4.212-8.048,6.951-1.848,2.762-1.016,7.75-3.357,10.091s-7.327,1.5-10.091,3.356c-2.738,1.833-3.868,6.767-6.951,8.046-3.027,1.255-7.312-1.421-10.6-.768-3.2.63-7.439,4.755-10.82,4.755s-7.628-4.125-10.824-4.755c-3.29-.653-7.575,2.023-10.6.768-3.082-1.279-4.212-6.213-6.951-8.046-2.762-1.852-7.75-1.016-10.091-3.356s-1.5-7.333-3.356-10.091c-1.833-2.739-6.767-3.869-8.046-6.951-1.255-3.028,1.421-7.313.768-10.6-.63-3.2-4.755-7.442-4.755-10.824s4.125-7.623,4.755-10.82c.653-3.293-2.023-7.575-.768-10.6,1.279-3.083,6.213-4.213,8.046-6.951,1.852-2.763,1.016-7.751,3.356-10.091s7.333-1.509,10.091-3.354c2.739-1.834,3.869-6.772,6.951-8.05,3.028-1.255,7.313,1.423,10.6.772C55.98,14.127,60.225,10,63.608,10s7.623,4.127,10.82,4.759c3.293.651,7.577-2.027,10.6-.772,3.083,1.279,4.213,6.216,6.951,8.05,2.763,1.846,7.751,1.013,10.091,3.354s1.509,7.327,3.357,10.091c1.832,2.738,6.769,3.868,8.048,6.951C114.733,45.463,112.055,49.745,112.706,53.037Zm0,0" transform="translate(-7.615 -7.811)" fill="#ffe781"/>
      <path id="Trazado_103979" data-name="Trazado 103979" d="M151.154,110.722C151.154,88.992,132.162,70,110.433,70S69.711,88.992,69.711,110.722s18.992,40.722,40.722,40.722S151.154,132.451,151.154,110.722Zm0,0" transform="translate(-54.449 -54.675)" fill="#f57c00"/>
      <path id="Trazado_103980" data-name="Trazado 103980" d="M204.836,191.141l-9.87,9.619,2.33,13.585-12.2-6.415-12.2,6.415,2.33-13.585-9.87-9.619L179,189.159l6.1-12.359,6.1,12.359Zm0,0" transform="translate(-129.157 -138.093)" fill="#ffe781"/>
      <path id="Trazado_103981" data-name="Trazado 103981" d="M102.15,266a2.189,2.189,0,1,0,2.189,2.189A2.19,2.19,0,0,0,102.15,266Zm0,0" transform="translate(-78.076 -207.764)"/>
      <path id="Trazado_103982" data-name="Trazado 103982" d="M107.293,44.8a11.049,11.049,0,0,1,.491-4.026c.518-2.206,1.1-4.7.157-6.994-.967-2.33-3.174-3.694-5.121-4.9a10.877,10.877,0,0,1-3.129-2.433,10.948,10.948,0,0,1-1.074-3.863c-.369-2.246-.787-4.792-2.555-6.559s-4.315-2.185-6.56-2.554a10.969,10.969,0,0,1-3.86-1.071,10.875,10.875,0,0,1-2.434-3.132C82,7.328,80.641,5.12,78.31,4.154c-2.288-.948-4.787-.362-6.991.156a11.061,11.061,0,0,1-4.027.492,16.013,16.013,0,0,1-4-1.967C60.952,1.441,58.533,0,56.047,0S51.139,1.441,48.8,2.834a16.013,16.013,0,0,1-4,1.967,11.047,11.047,0,0,1-4.025-.492c-2.206-.517-4.7-1.1-6.993-.156-2.33.967-3.694,3.175-4.9,5.122a10.871,10.871,0,0,1-2.432,3.131,10.95,10.95,0,0,1-3.86,1.072c-2.247.369-4.793.787-6.562,2.555s-2.183,4.309-2.552,6.554A10.918,10.918,0,0,1,12.4,26.453a10.86,10.86,0,0,1-3.129,2.434c-1.946,1.2-4.153,2.566-5.119,4.9-.948,2.288-.363,4.786.154,6.99A11.035,11.035,0,0,1,4.8,44.8a15.983,15.983,0,0,1-1.966,4C1.439,51.144,0,53.562,0,56.047s1.439,4.906,2.832,7.246a15.974,15.974,0,0,1,1.965,4,11.044,11.044,0,0,1-.489,4.025c-.517,2.2-1.1,4.7-.154,6.99.967,2.331,3.173,3.694,5.119,4.9A10.855,10.855,0,0,1,12.4,85.646a10.922,10.922,0,0,1,1.074,3.862c.368,2.244.785,4.787,2.551,6.556s4.31,2.183,6.554,2.552a10.918,10.918,0,0,1,3.867,1.076,10.875,10.875,0,0,1,2.434,3.129c1.2,1.946,2.566,4.152,4.9,5.119,2.286.948,4.784.362,6.989-.154A11.053,11.053,0,0,1,44.8,107.3a16.02,16.02,0,0,1,4,1.965c2.34,1.392,4.759,2.832,7.246,2.832s4.9-1.439,7.242-2.831a15.976,15.976,0,0,1,4-1.966,11.061,11.061,0,0,1,4.029.489c2.2.517,4.7,1.1,6.99.154,2.33-.966,3.694-3.173,4.9-5.119a10.85,10.85,0,0,1,2.436-3.13,10.916,10.916,0,0,1,3.865-1.075c2.244-.369,4.788-.786,6.554-2.552s2.186-4.313,2.555-6.559a10.962,10.962,0,0,1,1.073-3.863,10.88,10.88,0,0,1,3.13-2.434c1.947-1.2,4.154-2.566,5.121-4.9.948-2.288.362-4.787-.157-6.991a11.059,11.059,0,0,1-.491-4.024,16,16,0,0,1,1.966-4c1.394-2.341,2.835-4.761,2.835-7.249s-1.441-4.905-2.834-7.244A16.024,16.024,0,0,1,107.293,44.8Zm-1.8,16.252a18.457,18.457,0,0,0-2.5,5.39h0a13.916,13.916,0,0,0,.524,5.874c.385,1.638.782,3.331.375,4.315-.425,1.025-1.926,1.952-3.377,2.849a13.68,13.68,0,0,0-4.468,3.724A13.814,13.814,0,0,0,94.3,88.8c-.275,1.672-.558,3.4-1.33,4.172s-2.5,1.054-4.167,1.327a13.777,13.777,0,0,0-5.593,1.758,13.7,13.7,0,0,0-3.724,4.467c-.9,1.45-1.822,2.95-2.848,3.376-.984.408-2.677.011-4.315-.372A13.923,13.923,0,0,0,66.443,103a18.4,18.4,0,0,0-5.393,2.5c-1.745,1.038-3.722,2.215-5,2.215s-3.261-1.178-5.007-2.216a18.409,18.409,0,0,0-5.39-2.5,13.9,13.9,0,0,0-5.877.522c-1.637.383-3.33.78-4.314.373-1.025-.426-1.952-1.926-2.849-3.376a13.686,13.686,0,0,0-3.722-4.466,13.781,13.781,0,0,0-5.595-1.759c-1.669-.274-3.4-.557-4.166-1.326S18.074,90.47,17.8,88.8a13.764,13.764,0,0,0-1.757-5.591,13.7,13.7,0,0,0-4.467-3.724c-1.451-.9-2.951-1.823-3.376-2.848-.408-.984-.011-2.678.372-4.315a13.919,13.919,0,0,0,.522-5.874,18.392,18.392,0,0,0-2.5-5.393c-1.038-1.745-2.216-3.724-2.216-5.007s1.177-3.258,2.215-5a18.382,18.382,0,0,0,2.5-5.391,13.912,13.912,0,0,0-.521-5.877c-.383-1.638-.78-3.33-.373-4.315.426-1.026,1.926-1.952,3.376-2.849A13.7,13.7,0,0,0,16.04,28.89,13.781,13.781,0,0,0,17.8,23.295c.274-1.67.557-3.4,1.326-4.166s2.5-1.055,4.176-1.33a13.8,13.8,0,0,0,5.585-1.754,13.714,13.714,0,0,0,3.723-4.468c.9-1.452,1.823-2.953,2.848-3.378.984-.408,2.678-.011,4.315.374a13.918,13.918,0,0,0,5.875.524,18.413,18.413,0,0,0,5.39-2.5c1.746-1.04,3.726-2.218,5.009-2.218s3.259,1.178,5,2.218a18.427,18.427,0,0,0,5.391,2.5,13.923,13.923,0,0,0,5.876-.524c1.638-.384,3.331-.782,4.315-.375,1.025.426,1.952,1.927,2.849,3.379a13.724,13.724,0,0,0,3.725,4.47A13.811,13.811,0,0,0,88.792,17.8c1.673.275,3.4.558,4.173,1.33s1.055,2.5,1.33,4.172a13.8,13.8,0,0,0,1.755,5.588,13.7,13.7,0,0,0,4.468,3.724c1.451.9,2.951,1.822,3.376,2.847.408.985.01,2.679-.374,4.316A13.923,13.923,0,0,0,103,45.652a18.427,18.427,0,0,0,2.5,5.391c1.039,1.745,2.218,3.723,2.218,5S106.537,59.309,105.5,61.056Zm0,0"/>
      <path id="Trazado_103983" data-name="Trazado 103983" d="M102.872,60c-22.884,0-42.911,19.951-42.911,42.911,0,22.884,19.951,42.911,42.911,42.911,22.884,0,42.911-19.951,42.911-42.911C145.783,80.026,125.832,60,102.872,60Zm0,81.443c-20.527,0-38.532-18.006-38.532-38.532s18.006-38.532,38.532-38.532S141.4,82.384,141.4,102.911,123.4,141.443,102.872,141.443Zm0,0" transform="translate(-46.834 -46.864)"/>
      <path id="Trazado_103984" data-name="Trazado 103984" d="M135.221,104.379a2.189,2.189,0,0,0,0-4.379c-16.471,0-31.528,13.489-33.821,29.469a2.189,2.189,0,0,0,1.857,2.478,2.16,2.16,0,0,0,.314.022,2.189,2.189,0,0,0,2.164-1.879C107.734,116.153,121.237,104.379,135.221,104.379Zm0,0" transform="translate(-79.183 -78.107)"/>
      <path id="Trazado_103985" data-name="Trazado 103985" d="M197.591,181.163l-12.5-1.816L179.5,168.021a2.189,2.189,0,0,0-3.926,0l-5.59,11.326-12.5,1.816a2.19,2.19,0,0,0-1.213,3.735l9.045,8.816-2.135,12.451a2.19,2.19,0,0,0,3.177,2.307l11.179-5.879,11.178,5.879a2.189,2.189,0,0,0,3.177-2.308l-2.135-12.45,9.046-8.816a2.189,2.189,0,0,0-1.214-3.735Zm-11.712,10.219a2.189,2.189,0,0,0-.629,1.938l1.58,9.212-8.27-4.35a2.191,2.191,0,0,0-2.038,0l-8.272,4.35,1.58-9.212a2.192,2.192,0,0,0-.629-1.938l-6.693-6.523,9.249-1.344a2.189,2.189,0,0,0,1.649-1.2l4.136-8.38,4.134,8.38a2.189,2.189,0,0,0,1.649,1.2l9.249,1.344Zm0,0" transform="translate(-121.543 -130.283)"/>
    </g>
  </g>
</svg>
