<svg id="Grupo_120307" data-name="Grupo 120307" xmlns="http://www.w3.org/2000/svg" xmlns:xlink="http://www.w3.org/1999/xlink" width="74.412" height="80" viewBox="0 0 74.412 80">
  <defs>
    <clipPath id="clip-path">
      <rect id="Rectángulo_37266" data-name="Rectángulo 37266" width="74.412" height="80" fill="none"/>
    </clipPath>
  </defs>
  <g id="Grupo_120303" data-name="Grupo 120303" clip-path="url(#clip-path)">
    <path id="Trazado_181353" data-name="Trazado 181353" d="M37.153,236.065H1.777A1.642,1.642,0,0,1,.1,233.78c1.2-4.108,3.826-7.205,7.071-9.841a34.875,34.875,0,0,1,9.745-5.471c.586-.222.667-.446.457-1.01-1.2-3.222-2.367-6.457-3.541-9.689a1.607,1.607,0,0,1,1.575-2.252,38.225,38.225,0,0,1,21.058,7.074,1.047,1.047,0,0,0,1.451-.022,38.179,38.179,0,0,1,21.156-7.054,1.616,1.616,0,0,1,1.538,2.148q-1.687,4.636-3.378,9.271c-.451,1.238-.444,1.228.75,1.712a33.455,33.455,0,0,1,11.574,7.4,18.045,18.045,0,0,1,4.787,7.9,1.636,1.636,0,0,1-1.636,2.115H37.153M16.28,207.785a1.7,1.7,0,0,0,.206.9q1.623,4.476,3.251,8.95a1.762,1.762,0,0,1-1.116,2.477,36.488,36.488,0,0,0-9.063,4.709,19.688,19.688,0,0,0-6.875,8.144c-.377.9-.349.935.636.935q7.784,0,15.569,0h52.2c1.029,0,1.027,0,.622-.965a17.98,17.98,0,0,0-4.852-6.505,33.262,33.262,0,0,0-10.771-6.192c-1.547-.564-1.9-1.309-1.321-2.885q1.43-3.925,2.856-7.852c.682-1.877.678-1.9-1.372-1.649a38.132,38.132,0,0,0-22.379,10.889c-.508.489-.445.752.022,1.2,1.554,1.5,3.031,3.08,4.608,4.554.664.62.648,1.034-.044,1.526a.817.817,0,0,0-.19.19c-.384.545-.7.525-1.178.027-1.856-1.919-3.766-3.785-5.648-5.678a1.671,1.671,0,0,1-.1-2.32,25.225,25.225,0,0,1,3.371-3.236c.532-.423.63-.631-.021-1.057a38.388,38.388,0,0,0-11.5-5.181,27.27,27.27,0,0,0-6.908-.989" transform="translate(0 -156.065)" fill="#040405"/>
    <path id="Trazado_181354" data-name="Trazado 181354" d="M63.262,31.974a79.668,79.668,0,0,1-20.4-2.356,18.933,18.933,0,0,1-6.146-2.66c-3.078-2.187-3.107-4.931-.035-7.121a22.053,22.053,0,0,1,8.051-3.159,1.262,1.262,0,0,0,1.126-1.109c.822-3.8,1.687-7.6,2.551-11.393a5.015,5.015,0,0,1,7.653-3.4A13.821,13.821,0,0,0,70.582.772a4.977,4.977,0,0,1,7.59,3.241c.93,3.84,1.789,7.7,2.617,11.561a1.24,1.24,0,0,0,1.127,1.1,26.72,26.72,0,0,1,6.756,2.358,8.34,8.34,0,0,1,2.679,2.084,3.423,3.423,0,0,1-.048,4.6,9,9,0,0,1-3.1,2.265A36.929,36.929,0,0,1,78.14,30.852c-1.358.232-2.727.414-4.1.558a95.061,95.061,0,0,1-10.78.564M62.725,23.9A63.017,63.017,0,0,0,79.14,21.652c.507-.133.758-.3.618-.914C78.5,15.286,77.311,9.82,76.03,4.374a2.8,2.8,0,0,0-4.262-1.783,15.971,15.971,0,0,1-16.818.042,2.845,2.845,0,0,0-4.405,1.994c-1.223,5.368-2.424,10.74-3.669,16.1-.149.641.047.816.615.984A51.6,51.6,0,0,0,62.725,23.9m18.823-5.066c.195.85.356,1.549.515,2.249a1.811,1.811,0,0,1-1.427,2.408,68.315,68.315,0,0,1-11.361,2.217,55.312,55.312,0,0,1-23.531-2.278,1.754,1.754,0,0,1-1.206-2.168c.073-.321.162-.639.235-.96.338-1.489.326-1.524-1.167-1.091a17.906,17.906,0,0,0-5.913,2.544c-1.46,1.09-1.454,2.136-.021,3.244a12.188,12.188,0,0,0,3.433,1.743c6.292,2.245,12.854,2.8,19.456,3.033a89.157,89.157,0,0,0,13.473-.539A48.708,48.708,0,0,0,85.6,26.727a9.985,9.985,0,0,0,3.878-2.2,1.458,1.458,0,0,0,.02-2.293,5.471,5.471,0,0,0-1.363-1.024,24.752,24.752,0,0,0-6.585-2.378" transform="translate(-26.12 0)" fill="#030304"/>
    <path id="Trazado_181355" data-name="Trazado 181355" d="M82.065,143.268c7.316,0,14.633.013,21.949-.02.782,0,1.027.167.976.97-.076,1.208-.019,1.191-1.244,1.22-.8.019-1.859-.353-2.314.163-.391.444-.118,1.482-.122,2.257-.007,1.559.01,3.119-.005,4.678a3.369,3.369,0,0,1-3.484,3.536q-4.542.036-9.085,0a3.345,3.345,0,0,1-3.444-2.708c-.645-2.4-1.281-4.8-1.88-7.2-.139-.558-.346-.762-.95-.748-1.649.037-1.649,0-2.068,1.6-.539,2.054-1.074,4.108-1.619,6.16a3.471,3.471,0,0,1-3.757,2.907q-4.318.014-8.636,0a3.377,3.377,0,0,1-3.676-3.7c-.015-2.069-.024-4.138.009-6.207.009-.574-.125-.794-.734-.75-.775.056-1.56-.018-2.337.024-.517.028-.644-.149-.645-.652,0-1.522-.027-1.522,1.477-1.522h21.59m3.373,2.163c.678,2.56,1.331,5.014,1.978,7.469a1.222,1.222,0,0,0,1.293,1.013c3.028,0,6.057.011,9.085-.007a1.212,1.212,0,0,0,1.344-1.34c.022-2.189,0-4.377.016-6.566,0-.406-.083-.58-.539-.579-4.346.016-8.692.009-13.176.009m-13.724,0c-2.069,0-4.138.009-6.207-.007-.433,0-.65.07-.645.579.025,2.189-.005,4.378.021,6.567.011.933.455,1.337,1.423,1.341,2.969.013,5.937,0,8.906.009a1.328,1.328,0,0,0,1.417-1.112c.588-2.227,1.162-4.458,1.768-6.681.153-.561.029-.719-.567-.709-2.038.035-4.078.013-6.117.013" transform="translate(-44.803 -108.781)" fill="#030302"/>
    <path id="Trazado_181356" data-name="Trazado 181356" d="M24.036,214.837a27.27,27.27,0,0,1,6.908.989,38.388,38.388,0,0,1,11.5,5.181c.652.425.553.634.021,1.057A25.225,25.225,0,0,0,39.1,225.3a1.671,1.671,0,0,0,.1,2.32c1.883,1.893,3.792,3.759,5.648,5.678.481.5.794.518,1.178-.027a.816.816,0,0,1,.19-.19c.692-.492.707-.906.044-1.526C44.676,230.082,43.2,228.5,41.645,227c-.467-.451-.53-.713-.022-1.2A38.132,38.132,0,0,1,64,214.91c2.05-.246,2.053-.228,1.372,1.649q-1.426,3.927-2.856,7.852c-.574,1.576-.226,2.32,1.321,2.885a33.262,33.262,0,0,1,10.771,6.192,17.981,17.981,0,0,1,4.852,6.505c.405.962.407.965-.622.965h-52.2q-7.784,0-15.569,0c-.985,0-1.013-.04-.636-.935a19.688,19.688,0,0,1,6.875-8.144,36.487,36.487,0,0,1,9.063-4.709,1.762,1.762,0,0,0,1.116-2.477q-1.631-4.473-3.251-8.95a1.7,1.7,0,0,1-.206-.9" transform="translate(-7.757 -163.117)" fill="#9b5003"/>
    <path id="Trazado_181357" data-name="Trazado 181357" d="M101.961,30.721a51.55,51.55,0,0,1-15.235-2.184c-.568-.168-.764-.344-.615-.984,1.245-5.363,2.446-10.735,3.669-16.1a2.845,2.845,0,0,1,4.405-1.994A15.97,15.97,0,0,0,111,9.414a2.8,2.8,0,0,1,4.262,1.784c1.281,5.446,2.474,10.912,3.728,16.364.14.61-.111.781-.618.914a62.952,62.952,0,0,1-16.414,2.246" transform="translate(-65.355 -6.823)" fill="#9b5003"/>
    <path id="Trazado_181358" data-name="Trazado 181358" d="M88.5,78.272a24.752,24.752,0,0,1,6.585,2.378,5.47,5.47,0,0,1,1.363,1.024,1.458,1.458,0,0,1-.02,2.293,9.985,9.985,0,0,1-3.878,2.2,48.708,48.708,0,0,1-11.562,2.508,89.157,89.157,0,0,1-13.473.539c-6.6-.233-13.165-.788-19.456-3.033a12.188,12.188,0,0,1-3.433-1.743c-1.433-1.108-1.439-2.154.021-3.244a17.906,17.906,0,0,1,5.913-2.544c1.493-.434,1.5-.4,1.167,1.091-.073.321-.161.639-.235.96a1.754,1.754,0,0,0,1.206,2.168,55.312,55.312,0,0,0,23.531,2.278,68.317,68.317,0,0,0,11.361-2.217,1.811,1.811,0,0,0,1.427-2.408c-.158-.7-.32-1.4-.515-2.249" transform="translate(-33.07 -59.439)" fill="#9b5003"/>
    <path id="Trazado_181359" data-name="Trazado 181359" d="M168.885,152.289c4.484,0,8.83.006,13.176-.009.456,0,.542.173.539.579-.016,2.189.006,4.378-.015,6.566a1.212,1.212,0,0,1-1.344,1.34c-3.028.017-6.057.007-9.085.006a1.222,1.222,0,0,1-1.293-1.013c-.647-2.455-1.3-4.909-1.978-7.469" transform="translate(-128.25 -115.64)" fill="#106f77"/>
    <path id="Trazado_181360" data-name="Trazado 181360" d="M90.22,152.273c2.039,0,4.079.022,6.117-.013.6-.01.719.148.567.709-.606,2.223-1.18,4.454-1.768,6.681a1.328,1.328,0,0,1-1.417,1.112c-2.969-.011-5.937,0-8.906-.009-.968,0-1.412-.408-1.423-1.341-.026-2.189,0-4.378-.021-6.567-.006-.509.211-.583.645-.579,2.069.017,4.138.007,6.207.007" transform="translate(-63.309 -115.624)" fill="#106f77"/>
  </g>
</svg>
