<svg xmlns="http://www.w3.org/2000/svg" width="1036.162" height="654.755" viewBox="0 0 1036.162 654.755">
  <g id="Grupo_120358" data-name="Grupo 120358" transform="translate(-281.942 -3998.7)">
    <g id="Grupo_56543" data-name="Grupo 56543" transform="translate(1915.872 4759.978) rotate(180)">
      <path id="Trazado_103987" data-name="Trazado 103987" d="M1178.754,360.337c-5.457,52.6-51.532,92.548-104.395,90.983-.318-.008-.638-.02-.955-.034a84.966,84.966,0,0,1-33.974-8.943L850.012,349.51l189.463-92.857a84.6,84.6,0,0,1,33.295-8.9q2.334-.105,4.688-.1A101.972,101.972,0,0,1,1178.754,360.337Z" transform="translate(452.602 251.631)" fill="none" stroke="#fdd835" stroke-miterlimit="10" stroke-width="4"/>
      <path id="Trazado_103988" data-name="Trazado 103988" d="M1061.3,251.654a90.621,90.621,0,1,1-38.258,172.773v.017l-.351-.177L858.946,342.275l163.726-81.984.368-.185v.02A90.238,90.238,0,0,1,1061.3,251.654Z" transform="translate(468.762 258.866)" fill="#fff3bf"/>
      <path id="Trazado_104005" data-name="Trazado 104005" d="M52.718,0H0" transform="translate(1253.722 601.139)" fill="none" stroke="#fdd835" stroke-width="4"/>
      <line id="Línea_314" data-name="Línea 314" x1="37.555" y2="36.998" transform="translate(1200.31 479.559)" fill="none" stroke="#ffa726" stroke-miterlimit="10" stroke-width="4"/>
      <path id="Trazado_103990" data-name="Trazado 103990" d="M1068.552,186.047c33.05,41.285,28.3,102.08-10.446,138.083-.233.216-.466.433-.7.646a85,85,0,0,1-30.472,17.49l-200.052,66.9,69.7-199.147a84.565,84.565,0,0,1,17.462-29.711q1.588-1.715,3.264-3.368A101.97,101.97,0,0,1,1068.552,186.047Z" transform="translate(410.768 70.76)" fill="none" stroke="#ffa726" stroke-miterlimit="10" stroke-width="4"/>
      <path id="Trazado_103991" data-name="Trazado 103991" d="M913.688,177.739a90.623,90.623,0,1,1,94.078,149.879l.011.011-.371.121-174.164,56.6,59.009-173.338.132-.388.014.014A90.223,90.223,0,0,1,913.688,177.739Z" transform="translate(422.272 77.965)" fill="#ffd1a2"/>
      <path id="Trazado_103993" data-name="Trazado 103993" d="M600.343,360.337c5.457,52.6,51.532,92.548,104.395,90.983q.476-.013.952-.034a84.954,84.954,0,0,0,33.974-8.943L929.082,349.51l-189.46-92.857a84.617,84.617,0,0,0-33.294-8.9q-2.334-.105-4.688-.1A101.971,101.971,0,0,0,600.343,360.337Z" transform="translate(0 251.631)" fill="none" stroke="#fdd835" stroke-miterlimit="10" stroke-width="4"/>
      <path id="Trazado_103994" data-name="Trazado 103994" d="M694.405,251.654a90.621,90.621,0,1,0,38.258,172.773v.017l.348-.177,163.746-81.992L733.028,260.291l-.365-.185v.02A90.24,90.24,0,0,0,694.405,251.654Z" transform="translate(7.234 258.866)" fill="#fff3bf"/>
      <line id="Línea_315" data-name="Línea 315" x2="52.718" transform="translate(925.258 601.139)" fill="none" stroke="#fdd835" stroke-miterlimit="10" stroke-width="4"/>
      <path id="Trazado_104003" data-name="Trazado 104003" d="M0,0,37.555,37" transform="translate(993.832 479.559)" fill="none" stroke="#ffa726" stroke-width="4"/>
      <path id="Trazado_103997" data-name="Trazado 103997" d="M838.578,109.1c-52.6,5.457-92.55,51.532-90.983,104.395.008.317.02.635.031.952a85.016,85.016,0,0,0,8.943,33.977l92.837,189.418,92.854-189.463a84.521,84.521,0,0,0,8.9-33.295q.105-2.334.107-4.688A101.972,101.972,0,0,0,838.578,109.1Z" transform="translate(267.277 0)" fill="none" stroke="#fdd835" stroke-miterlimit="10" stroke-width="4"/>
      <path id="Trazado_103998" data-name="Trazado 103998" d="M932.793,203.159A90.622,90.622,0,1,0,760.02,241.417H760l.174.348,82,163.746,81.984-163.729.182-.365h-.017A90.239,90.239,0,0,0,932.793,203.159Z" transform="translate(274.51 7.234)" fill="#fff3bf"/>
      <path id="Trazado_103999" data-name="Trazado 103999" d="M668.277,186.047c-33.05,41.285-28.295,102.08,10.443,138.083.233.216.466.433.7.646a85.019,85.019,0,0,0,30.469,17.49l200.054,66.9-69.7-199.147a84.519,84.519,0,0,0-17.459-29.711q-1.588-1.715-3.264-3.368A101.97,101.97,0,0,0,668.277,186.047Z" transform="translate(84.102 70.76)" fill="none" stroke="#ffa726" stroke-miterlimit="10" stroke-width="4"/>
      <path id="Trazado_104000" data-name="Trazado 104000" d="M804.487,177.739a90.622,90.622,0,1,0-94.076,149.879l-.011.011.371.121,174.161,56.6L825.923,211.009l-.132-.388-.011.014A90.2,90.2,0,0,0,804.487,177.739Z" transform="translate(91.25 77.965)" fill="#ffd1a2"/>
      <path id="Trazado_104004" data-name="Trazado 104004" d="M0,0V52.718" transform="translate(1116.682 434.012)" fill="none" stroke="#fdd835" stroke-width="4"/>
      <path id="Trazado_104001" data-name="Trazado 104001" d="M1006.366,379.909A135.375,135.375,0,1,1,870.991,244.537,135.371,135.371,0,0,1,1006.366,379.909Z" transform="translate(245.691 245.993)" fill="#fff"/>
      <g id="Grupo_56542" data-name="Grupo 56542" transform="translate(981.307 490.53)">
        <path id="Trazado_104002" data-name="Trazado 104002" d="M870.991,250.155A129.756,129.756,0,1,1,741.234,379.909c0-71.547,58.211-129.755,129.758-129.755m0-5.617a135.374,135.374,0,1,0,135.375,135.372A135.371,135.371,0,0,0,870.991,244.537Z" transform="translate(-735.616 -244.537)" fill="#26ccda"/>
      </g>
      <path id="Trazado_166698" data-name="Trazado 166698" d="M121.082,0A121.082,121.082,0,1,1,0,121.082,121.082,121.082,0,0,1,121.082,0Z" transform="translate(983.729 517.992) rotate(-5.935)" fill="#b1f9ff"/>
      <path id="Trazado_103986" data-name="Trazado 103986" d="M849.641,290.585a10.363,10.363,0,1,0-10.361,10.359A10.365,10.365,0,0,0,849.641,290.585Z" transform="translate(414.444 310.536)" fill="#fdd835"/>
      <path id="Trazado_103989" data-name="Trazado 103989" d="M827.641,253.2a10.364,10.364,0,1,0-.112,14.653A10.364,10.364,0,0,0,827.641,253.2Z" transform="translate(380.038 256.071)" fill="#ffa726"/>
      <path id="Trazado_103996" data-name="Trazado 103996" d="M790.484,239.495a10.363,10.363,0,1,1-10.359,10.361A10.365,10.365,0,0,1,790.484,239.495Z" transform="translate(326.196 236.874)" fill="#fdd835"/>
      <path id="Trazado_103992" data-name="Trazado 103992" d="M730.74,290.585A10.364,10.364,0,1,1,741.1,300.944,10.365,10.365,0,0,1,730.74,290.585Z" transform="translate(236.872 310.536)" fill="#fdd835"/>
      <path id="Trazado_103995" data-name="Trazado 103995" d="M752.738,253.2a10.364,10.364,0,1,1,.112,14.653A10.367,10.367,0,0,1,752.738,253.2Z" transform="translate(271.279 256.071)" fill="#ffa726"/>
    </g>
    <path id="Trazado_181407" data-name="Trazado 181407" d="M61.1,25.238H50.6V36H44.087V8.984H62.159v5.028H50.6v6.216H61.1ZM75.259,36a7.06,7.06,0,0,1-.594-1.8,5.814,5.814,0,0,1-4.824,2.171,7.123,7.123,0,0,1-4.824-1.716,5.463,5.463,0,0,1-1.985-4.314,5.615,5.615,0,0,1,2.412-4.936q2.412-1.67,7.014-1.67h1.93V22.673q0-2.778-2.394-2.778a1.956,1.956,0,0,0-2.227,2.2H63.514a5.605,5.605,0,0,1,2.477-4.726,10.41,10.41,0,0,1,6.318-1.816,9.127,9.127,0,0,1,6.067,1.874,6.516,6.516,0,0,1,2.282,5.14v8.888a9.1,9.1,0,0,0,.854,4.23V36Zm-3.915-4.082a3.488,3.488,0,0,0,1.939-.5,3.14,3.14,0,0,0,1.1-1.132v-3.21H72.568q-3.266,0-3.266,2.932a1.79,1.79,0,0,0,.575,1.382A2.082,2.082,0,0,0,71.344,31.918ZM94.63,30.359a1.445,1.445,0,0,0-.835-1.28,12.7,12.7,0,0,0-3.173-1,14.468,14.468,0,0,1-3.859-1.364,6.465,6.465,0,0,1-2.319-2.05,4.9,4.9,0,0,1-.8-2.765,5.549,5.549,0,0,1,2.282-4.555A9.4,9.4,0,0,1,91.9,15.553a10.416,10.416,0,0,1,6.383,1.8,5.628,5.628,0,0,1,2.412,4.731H94.426q0-2.412-2.542-2.412a2.52,2.52,0,0,0-1.651.547,1.7,1.7,0,0,0-.668,1.364,1.556,1.556,0,0,0,.816,1.354,7.714,7.714,0,0,0,2.607.854,22.528,22.528,0,0,1,3.145.8q4.527,1.559,4.527,5.585a5.258,5.258,0,0,1-2.44,4.472A10.7,10.7,0,0,1,91.9,36.371a10.919,10.919,0,0,1-4.6-.928,7.7,7.7,0,0,1-3.154-2.523,5.714,5.714,0,0,1-1.132-3.358h5.845a2.416,2.416,0,0,0,.928,2.032,3.816,3.816,0,0,0,2.282.64,3,3,0,0,0,1.92-.52A1.662,1.662,0,0,0,94.63,30.359ZM113.3,36.371a10.32,10.32,0,0,1-7.478-2.755,9.515,9.515,0,0,1-2.857-7.171v-.52a12.329,12.329,0,0,1,1.141-5.437,8.35,8.35,0,0,1,3.331-3.646,10.054,10.054,0,0,1,5.2-1.29,8.69,8.69,0,0,1,6.68,2.625,10.317,10.317,0,0,1,2.449,7.32v2.431H109.325a4.507,4.507,0,0,0,1.466,2.653,4.362,4.362,0,0,0,2.932.965,5.62,5.62,0,0,0,4.639-2.078l2.857,3.377a7.988,7.988,0,0,1-3.312,2.57A11.192,11.192,0,0,1,113.3,36.371Zm-.705-15.994q-2.746,0-3.266,3.637h6.309v-.482a3.1,3.1,0,0,0-.761-2.329A3.027,3.027,0,0,0,112.591,20.377Zm22.191,9.982a1.445,1.445,0,0,0-.835-1.28,12.7,12.7,0,0,0-3.173-1,14.468,14.468,0,0,1-3.859-1.364,6.465,6.465,0,0,1-2.319-2.05,4.9,4.9,0,0,1-.8-2.765,5.549,5.549,0,0,1,2.282-4.555,9.4,9.4,0,0,1,5.975-1.791,10.416,10.416,0,0,1,6.383,1.8,5.628,5.628,0,0,1,2.412,4.731h-6.271q0-2.412-2.542-2.412a2.52,2.52,0,0,0-1.651.547,1.7,1.7,0,0,0-.668,1.364,1.556,1.556,0,0,0,.816,1.354,7.714,7.714,0,0,0,2.607.854,22.528,22.528,0,0,1,3.145.8q4.527,1.559,4.527,5.585a5.258,5.258,0,0,1-2.44,4.472,10.7,10.7,0,0,1-6.318,1.726,10.919,10.919,0,0,1-4.6-.928A7.7,7.7,0,0,1,124.3,32.92a5.714,5.714,0,0,1-1.132-3.358h5.845a2.416,2.416,0,0,0,.928,2.032,3.816,3.816,0,0,0,2.282.64,3,3,0,0,0,1.92-.52A1.662,1.662,0,0,0,134.782,30.359Zm17.627-4.546a12.264,12.264,0,0,1,2.06-7.515,6.779,6.779,0,0,1,5.752-2.746,5.766,5.766,0,0,1,4.527,2.115V7.5h6.271V36H165.4l-.315-2.152a5.921,5.921,0,0,1-4.9,2.523,6.767,6.767,0,0,1-5.678-2.746Q152.409,30.879,152.409,25.813Zm6.253.39q0,5.344,3.117,5.344a3.078,3.078,0,0,0,2.969-1.744V22.158a3,3,0,0,0-2.932-1.781q-2.895,0-3.136,4.676Zm25.624,10.168a10.32,10.32,0,0,1-7.478-2.755,9.515,9.515,0,0,1-2.857-7.171v-.52a12.329,12.329,0,0,1,1.141-5.437,8.35,8.35,0,0,1,3.331-3.646,10.054,10.054,0,0,1,5.2-1.29,8.69,8.69,0,0,1,6.68,2.625,10.317,10.317,0,0,1,2.449,7.32v2.431H180.315a4.507,4.507,0,0,0,1.466,2.653,4.362,4.362,0,0,0,2.932.965,5.62,5.62,0,0,0,4.639-2.078l2.857,3.377a7.988,7.988,0,0,1-3.312,2.57A11.192,11.192,0,0,1,184.286,36.371Zm-.705-15.994q-2.746,0-3.266,3.637h6.309v-.482a3.1,3.1,0,0,0-.761-2.329A3.027,3.027,0,0,0,183.581,20.377ZM201.857,36h-6.271V7.5h6.271ZM68.449,68.11a12.107,12.107,0,0,1-2.106,7.468,6.752,6.752,0,0,1-5.687,2.792,5.788,5.788,0,0,1-4.546-2.022v9.37H49.857V57.924H55.7l.186,1.855a5.788,5.788,0,0,1,4.731-2.227A6.806,6.806,0,0,1,66.39,60.29a12.256,12.256,0,0,1,2.06,7.524Zm-6.253-.39q0-5.344-3.117-5.344a2.943,2.943,0,0,0-2.969,1.6v7.9a3.038,3.038,0,0,0,3.006,1.67q2.987,0,3.08-5.158Zm21.152-4.138-2.06-.148q-2.95,0-3.785,1.855V78H71.251V57.924h5.863l.2,2.579a4.842,4.842,0,0,1,4.4-2.95,6.1,6.1,0,0,1,1.744.223Zm.8,4.193a11.849,11.849,0,0,1,1.169-5.353,8.359,8.359,0,0,1,3.358-3.609,10.115,10.115,0,0,1,5.14-1.262,9.231,9.231,0,0,1,7.106,2.792,10.715,10.715,0,0,1,2.6,7.6v.223a10.4,10.4,0,0,1-2.607,7.45,9.256,9.256,0,0,1-7.06,2.755,9.361,9.361,0,0,1-6.884-2.57,10.051,10.051,0,0,1-2.8-6.967Zm6.253.39a7.47,7.47,0,0,0,.872,4.082,2.905,2.905,0,0,0,2.579,1.3q3.34,0,3.414-5.14v-.631q0-5.4-3.451-5.4-3.136,0-3.4,4.657Zm23.62,1.076,3.34-11.318h6.7l-8.183,23.435-.353.854a6.216,6.216,0,0,1-6.16,3.9,9.8,9.8,0,0,1-2.579-.37V81.284h.816a4.277,4.277,0,0,0,2.013-.381,2.31,2.31,0,0,0,1.03-1.365l.5-1.337-6.977-20.278h6.68Zm21.134,9.129a10.32,10.32,0,0,1-7.478-2.755,9.515,9.515,0,0,1-2.857-7.171v-.52a12.329,12.329,0,0,1,1.141-5.437,8.35,8.35,0,0,1,3.331-3.646,10.054,10.054,0,0,1,5.2-1.29,8.69,8.69,0,0,1,6.68,2.625,10.317,10.317,0,0,1,2.449,7.32v2.431H131.183a4.507,4.507,0,0,0,1.466,2.653,4.362,4.362,0,0,0,2.932.965,5.62,5.62,0,0,0,4.639-2.078l2.857,3.377a7.988,7.988,0,0,1-3.312,2.57A11.192,11.192,0,0,1,135.153,78.371Zm-.705-15.994q-2.746,0-3.266,3.637h6.309v-.482a3.1,3.1,0,0,0-.761-2.329A3.027,3.027,0,0,0,134.448,62.377Zm20.169,11.17a2.781,2.781,0,0,0,2.041-.714,2.62,2.62,0,0,0,.705-1.995h5.863a6.941,6.941,0,0,1-2.366,5.418,8.8,8.8,0,0,1-6.1,2.115,8.91,8.91,0,0,1-6.9-2.746q-2.523-2.746-2.523-7.607v-.26a12.229,12.229,0,0,1,1.123-5.372,8.173,8.173,0,0,1,3.238-3.581,9.654,9.654,0,0,1,5.01-1.252,8.689,8.689,0,0,1,6.216,2.171,7.7,7.7,0,0,1,2.3,5.882h-5.863a3.432,3.432,0,0,0-.761-2.394,2.626,2.626,0,0,0-2.041-.835q-2.431,0-2.839,3.1a21.864,21.864,0,0,0-.13,2.709,8.588,8.588,0,0,0,.724,4.193A2.505,2.505,0,0,0,154.617,73.547Zm18.536-20.614v4.991h3.3v4.342h-3.3V71.45a2.345,2.345,0,0,0,.408,1.577,2.19,2.19,0,0,0,1.614.445,9.173,9.173,0,0,0,1.559-.111v4.472a11.54,11.54,0,0,1-3.525.538,6.55,6.55,0,0,1-4.769-1.521,6.236,6.236,0,0,1-1.54-4.62V62.266H164.34V57.924H166.9V52.933Zm4.416,14.844a11.849,11.849,0,0,1,1.169-5.353,8.359,8.359,0,0,1,3.358-3.609,10.115,10.115,0,0,1,5.14-1.262,9.231,9.231,0,0,1,7.106,2.792,10.715,10.715,0,0,1,2.6,7.6v.223a10.4,10.4,0,0,1-2.607,7.45,9.256,9.256,0,0,1-7.06,2.755,9.361,9.361,0,0,1-6.884-2.57,10.051,10.051,0,0,1-2.8-6.967Zm6.253.39a7.47,7.47,0,0,0,.872,4.082,2.905,2.905,0,0,0,2.579,1.3q3.34,0,3.414-5.14v-.631q0-5.4-3.451-5.4-3.136,0-3.4,4.657Z" transform="translate(677.285 4093.7)" fill="#12263f"/>
    <path id="Trazado_181412" data-name="Trazado 181412" d="M11.324,19.484H5.16L3.988,23H.25L6.6,5.938H9.859L16.246,23H12.508ZM6.109,16.637h4.266L8.23,10.25ZM20.172,10.32l.105,1.465a4.427,4.427,0,0,1,3.645-1.7,3.679,3.679,0,0,1,3,1.184,5.522,5.522,0,0,1,1.008,3.539V23H24.543V14.872a2.206,2.206,0,0,0-.469-1.568,2.1,2.1,0,0,0-1.559-.487,2.329,2.329,0,0,0-2.145,1.221V23H16.984V10.32ZM37.844,23a3.761,3.761,0,0,1-.34-1.137,4.1,4.1,0,0,1-3.2,1.371,4.5,4.5,0,0,1-3.088-1.078,3.467,3.467,0,0,1-1.225-2.719,3.583,3.583,0,0,1,1.494-3.094,7.373,7.373,0,0,1,4.318-1.09h1.559v-.727a2.089,2.089,0,0,0-.451-1.406,1.775,1.775,0,0,0-1.424-.527,2.018,2.018,0,0,0-1.342.41,1.393,1.393,0,0,0-.486,1.125H30.273a3.4,3.4,0,0,1,.68-2.039,4.493,4.493,0,0,1,1.922-1.471,7,7,0,0,1,2.789-.533,5.534,5.534,0,0,1,3.721,1.178,4.12,4.12,0,0,1,1.377,3.311v5.5a6.062,6.062,0,0,0,.5,2.73V23Zm-2.8-2.355a2.917,2.917,0,0,0,1.383-.334,2.194,2.194,0,0,0,.938-.9v-2.18H36.1q-2.543,0-2.707,1.758l-.012.2a1.356,1.356,0,0,0,.445,1.043A1.73,1.73,0,0,0,35.043,20.645ZM36.332,5h3.691L36.777,8.633H34.023ZM46.938,23h-3.4V5h3.4ZM53.3,23H49.9V10.32h3.4ZM49.7,7.039a1.668,1.668,0,0,1,.51-1.254,2.2,2.2,0,0,1,2.771,0A1.658,1.658,0,0,1,53.5,7.039,1.663,1.663,0,0,1,52.979,8.3a2.172,2.172,0,0,1-2.754,0A1.663,1.663,0,0,1,49.7,7.039ZM62.957,19.5a1.091,1.091,0,0,0-.615-.979,6.989,6.989,0,0,0-1.975-.639q-4.523-.949-4.523-3.844a3.484,3.484,0,0,1,1.4-2.818,5.649,5.649,0,0,1,3.662-1.131,6.08,6.08,0,0,1,3.861,1.137,3.582,3.582,0,0,1,1.447,2.953H62.828a1.639,1.639,0,0,0-.469-1.2,1.984,1.984,0,0,0-1.465-.475,2.027,2.027,0,0,0-1.324.387,1.221,1.221,0,0,0-.469.984,1.044,1.044,0,0,0,.533.908,5.485,5.485,0,0,0,1.8.6,14.693,14.693,0,0,1,2.133.568q2.684.984,2.684,3.41a3.307,3.307,0,0,1-1.488,2.807,6.42,6.42,0,0,1-3.844,1.072,6.706,6.706,0,0,1-2.83-.568,4.748,4.748,0,0,1-1.939-1.559,3.621,3.621,0,0,1-.7-2.139h3.211a1.768,1.768,0,0,0,.668,1.383,2.649,2.649,0,0,0,1.664.48,2.452,2.452,0,0,0,1.471-.369A1.149,1.149,0,0,0,62.957,19.5ZM72,23h-3.4V10.32H72Zm-3.6-15.961a1.668,1.668,0,0,1,.51-1.254,2.2,2.2,0,0,1,2.771,0A1.658,1.658,0,0,1,72.2,7.039,1.663,1.663,0,0,1,71.682,8.3a2.172,2.172,0,0,1-2.754,0A1.663,1.663,0,0,1,68.406,7.039ZM81.66,19.5a1.091,1.091,0,0,0-.615-.979,6.989,6.989,0,0,0-1.975-.639q-4.523-.949-4.523-3.844a3.484,3.484,0,0,1,1.4-2.818,5.649,5.649,0,0,1,3.662-1.131,6.08,6.08,0,0,1,3.861,1.137,3.582,3.582,0,0,1,1.447,2.953H81.531a1.639,1.639,0,0,0-.469-1.2A1.984,1.984,0,0,0,79.6,12.5a2.027,2.027,0,0,0-1.324.387,1.221,1.221,0,0,0-.469.984,1.044,1.044,0,0,0,.533.908,5.485,5.485,0,0,0,1.8.6,14.693,14.693,0,0,1,2.133.568q2.684.984,2.684,3.41a3.307,3.307,0,0,1-1.488,2.807,6.42,6.42,0,0,1-3.844,1.072,6.706,6.706,0,0,1-2.83-.568,4.748,4.748,0,0,1-1.939-1.559,3.621,3.621,0,0,1-.7-2.139h3.211a1.768,1.768,0,0,0,.668,1.383,2.649,2.649,0,0,0,1.664.48,2.452,2.452,0,0,0,1.471-.369A1.149,1.149,0,0,0,81.66,19.5Z" transform="translate(344.285 4186.7)" fill="#12263f"/>
    <path id="Trazado_181408" data-name="Trazado 181408" d="M-57.68-4.477a1.8,1.8,0,0,0-.7-1.529,9.222,9.222,0,0,0-2.531-1.125A17.944,17.944,0,0,1-63.809-8.3q-2.906-1.57-2.906-4.23a4.12,4.12,0,0,1,.779-2.467A5.083,5.083,0,0,1-63.7-16.687a8.425,8.425,0,0,1,3.275-.609,7.668,7.668,0,0,1,3.258.662,5.187,5.187,0,0,1,2.221,1.869,4.891,4.891,0,0,1,.791,2.742h-3.516a2.3,2.3,0,0,0-.738-1.822,3.035,3.035,0,0,0-2.074-.65,3.242,3.242,0,0,0-2,.545,1.719,1.719,0,0,0-.715,1.436,1.646,1.646,0,0,0,.838,1.395,9.466,9.466,0,0,0,2.467,1.055,10.658,10.658,0,0,1,4.371,2.238A4.458,4.458,0,0,1-54.152-4.5a4.106,4.106,0,0,1-1.676,3.475A7.336,7.336,0,0,1-60.34.234a8.712,8.712,0,0,1-3.586-.721,5.674,5.674,0,0,1-2.467-1.975,5.057,5.057,0,0,1-.85-2.906h3.527q0,2.824,3.375,2.824a3.283,3.283,0,0,0,1.957-.51A1.658,1.658,0,0,0-57.68-4.477ZM-46.16.234A6.225,6.225,0,0,1-50.7-1.477a6.082,6.082,0,0,1-1.752-4.559v-.328a7.66,7.66,0,0,1,.738-3.416,5.418,5.418,0,0,1,2.092-2.32,5.871,5.871,0,0,1,3.088-.814,5.262,5.262,0,0,1,4.1,1.641,6.667,6.667,0,0,1,1.494,4.652v1.383H-49.02a3.146,3.146,0,0,0,.99,1.992,2.993,2.993,0,0,0,2.092.75,3.656,3.656,0,0,0,3.059-1.418l1.664,1.863A5.084,5.084,0,0,1-43.277-.369,6.767,6.767,0,0,1-46.16.234Zm-.387-10.418a2.116,2.116,0,0,0-1.635.683,3.535,3.535,0,0,0-.8,1.954h4.711v-.271a2.521,2.521,0,0,0-.609-1.748A2.183,2.183,0,0,0-46.547-10.184Zm7.031,3.75a7.431,7.431,0,0,1,1.389-4.7,4.5,4.5,0,0,1,3.744-1.781,3.946,3.946,0,0,1,3.246,1.43l.141-1.2h3.07V-.422a5.419,5.419,0,0,1-.756,2.895,4.854,4.854,0,0,1-2.127,1.875,7.477,7.477,0,0,1-3.211.645,6.953,6.953,0,0,1-2.719-.557,4.825,4.825,0,0,1-2-1.436l1.5-2.062a3.967,3.967,0,0,0,3.07,1.418,2.9,2.9,0,0,0,2.1-.721,2.7,2.7,0,0,0,.75-2.045v-.68A3.917,3.917,0,0,1-34.406.234a4.488,4.488,0,0,1-3.7-1.787,7.429,7.429,0,0,1-1.412-4.74Zm3.387.241a4.652,4.652,0,0,0,.691,2.714,2.2,2.2,0,0,0,1.9.983,2.35,2.35,0,0,0,2.215-1.165V-9.018a2.345,2.345,0,0,0-2.191-1.165,2.211,2.211,0,0,0-1.916,1A5.244,5.244,0,0,0-36.129-6.193Zm18.4,4.9A4.247,4.247,0,0,1-21.2.234,4.005,4.005,0,0,1-24.311-.937a5,5,0,0,1-1.1-3.434V-12.68h3.387v8.2q0,1.983,1.8,1.983a2.445,2.445,0,0,0,2.367-1.2V-12.68h3.4V0h-3.187ZM-8.32,0h-3.4V-12.68h3.4Zm-3.6-15.961a1.668,1.668,0,0,1,.51-1.254,1.915,1.915,0,0,1,1.389-.492,1.919,1.919,0,0,1,1.383.492,1.658,1.658,0,0,1,.516,1.254A1.663,1.663,0,0,1-8.643-14.7a1.924,1.924,0,0,1-1.377.492A1.924,1.924,0,0,1-11.4-14.7,1.663,1.663,0,0,1-11.918-15.961Zm9.563,3.281.105,1.418a4.456,4.456,0,0,1,3.645-1.652A3.382,3.382,0,0,1,4.758-10.98a4.354,4.354,0,0,1,3.809-1.934,3.782,3.782,0,0,1,3.07,1.2A5.521,5.521,0,0,1,12.645-8.1V0h-3.4V-8.1a2.424,2.424,0,0,0-.422-1.58,1.867,1.867,0,0,0-1.488-.5A2.114,2.114,0,0,0,5.227-8.727L5.238,0H1.852V-8.093a2.394,2.394,0,0,0-.434-1.6,1.885,1.885,0,0,0-1.477-.493,2.194,2.194,0,0,0-2.086,1.2V0H-5.531V-12.68ZM18.82,0h-3.4V-12.68h3.4Zm-3.6-15.961a1.668,1.668,0,0,1,.51-1.254,1.915,1.915,0,0,1,1.389-.492,1.919,1.919,0,0,1,1.383.492,1.658,1.658,0,0,1,.516,1.254A1.663,1.663,0,0,1,18.5-14.7a1.924,1.924,0,0,1-1.377.492,1.924,1.924,0,0,1-1.377-.492A1.663,1.663,0,0,1,15.223-15.961ZM27.445.234A6.225,6.225,0,0,1,22.9-1.477a6.082,6.082,0,0,1-1.752-4.559v-.328a7.66,7.66,0,0,1,.738-3.416,5.418,5.418,0,0,1,2.092-2.32,5.871,5.871,0,0,1,3.088-.814,5.262,5.262,0,0,1,4.1,1.641A6.667,6.667,0,0,1,32.66-6.621v1.383H24.586a3.146,3.146,0,0,0,.99,1.992,2.993,2.993,0,0,0,2.092.75,3.656,3.656,0,0,0,3.059-1.418l1.664,1.863A5.084,5.084,0,0,1,30.328-.369,6.767,6.767,0,0,1,27.445.234Zm-.387-10.418a2.116,2.116,0,0,0-1.635.683,3.535,3.535,0,0,0-.8,1.954h4.711v-.271a2.521,2.521,0,0,0-.609-1.748A2.183,2.183,0,0,0,27.059-10.184ZM37.7-12.68l.105,1.465a4.427,4.427,0,0,1,3.645-1.7,3.679,3.679,0,0,1,3,1.184,5.522,5.522,0,0,1,1.008,3.539V0H42.07V-8.128A2.206,2.206,0,0,0,41.6-9.7a2.1,2.1,0,0,0-1.559-.487A2.329,2.329,0,0,0,37.9-8.962V0H34.512V-12.68ZM52.078-15.8v3.117h2.168V-10.2H52.078v6.328a1.511,1.511,0,0,0,.27,1.008,1.354,1.354,0,0,0,1.031.3,5.4,5.4,0,0,0,1-.082V-.07a6.972,6.972,0,0,1-2.051.3q-3.562,0-3.633-3.6V-10.2H46.84V-12.68h1.852V-15.8Zm3.176,9.34A7.52,7.52,0,0,1,55.98-9.82a5.319,5.319,0,0,1,2.092-2.285,6.1,6.1,0,0,1,3.17-.809,5.774,5.774,0,0,1,4.189,1.57,6.3,6.3,0,0,1,1.811,4.266l.023.867a6.627,6.627,0,0,1-1.629,4.682A5.662,5.662,0,0,1,61.266.234a5.69,5.69,0,0,1-4.377-1.758A6.744,6.744,0,0,1,55.254-6.3Zm3.387.24a4.74,4.74,0,0,0,.68,2.764,2.242,2.242,0,0,0,1.945.957,2.247,2.247,0,0,0,1.922-.945,5.186,5.186,0,0,0,.691-3.022,4.692,4.692,0,0,0-.691-2.746,2.248,2.248,0,0,0-1.945-.974,2.211,2.211,0,0,0-1.922.968A5.274,5.274,0,0,0,58.641-6.217Z" transform="translate(1086.285 4479.7)" fill="#12263f"/>
    <path id="Trazado_181409" data-name="Trazado 181409" d="M-17.73-5.684a6.038,6.038,0,0,1-2.033,4.336A7.141,7.141,0,0,1-24.6.234,6.421,6.421,0,0,1-29.76-1.975a9.058,9.058,0,0,1-1.881-6.064V-9.082a10.228,10.228,0,0,1,.867-4.336,6.5,6.5,0,0,1,2.479-2.877,6.943,6.943,0,0,1,3.744-1,6.956,6.956,0,0,1,4.758,1.582,6.488,6.488,0,0,1,2.086,4.441h-3.516a3.563,3.563,0,0,0-.92-2.4,3.407,3.407,0,0,0-2.408-.744,2.987,2.987,0,0,0-2.631,1.26,7.06,7.06,0,0,0-.9,3.908v1.289a7.556,7.556,0,0,0,.838,4.043A2.932,2.932,0,0,0-24.6-2.637a3.471,3.471,0,0,0,2.432-.744,3.361,3.361,0,0,0,.92-2.3ZM-12.07,0h-3.4V-12.68h3.4Zm-3.6-15.961a1.668,1.668,0,0,1,.51-1.254,1.915,1.915,0,0,1,1.389-.492,1.919,1.919,0,0,1,1.383.492,1.658,1.658,0,0,1,.516,1.254,1.663,1.663,0,0,1-.521,1.266,1.924,1.924,0,0,1-1.377.492,1.924,1.924,0,0,1-1.377-.492A1.663,1.663,0,0,1-15.668-15.961ZM-3.445.234A6.225,6.225,0,0,1-7.986-1.477,6.082,6.082,0,0,1-9.738-6.035v-.328A7.66,7.66,0,0,1-9-9.779,5.418,5.418,0,0,1-6.908-12.1a5.871,5.871,0,0,1,3.088-.814,5.262,5.262,0,0,1,4.1,1.641A6.667,6.667,0,0,1,1.77-6.621v1.383H-6.3a3.146,3.146,0,0,0,.99,1.992,2.993,2.993,0,0,0,2.092.75A3.656,3.656,0,0,0-.164-3.914L1.5-2.051A5.084,5.084,0,0,1-.562-.369,6.767,6.767,0,0,1-3.445.234Zm-.387-10.418A2.116,2.116,0,0,0-5.467-9.5a3.535,3.535,0,0,0-.8,1.954h4.711v-.271a2.521,2.521,0,0,0-.609-1.748A2.183,2.183,0,0,0-3.832-10.184Zm14.648.68A9.2,9.2,0,0,0,9.6-9.6a2.481,2.481,0,0,0-2.52,1.3V0H3.691V-12.68h3.2l.094,1.512a3.138,3.138,0,0,1,2.824-1.746,3.549,3.549,0,0,1,1.055.152Zm8.754,0A9.2,9.2,0,0,0,18.352-9.6a2.481,2.481,0,0,0-2.52,1.3V0H12.445V-12.68h3.2l.094,1.512a3.138,3.138,0,0,1,2.824-1.746,3.549,3.549,0,0,1,1.055.152ZM26.813.234a6.225,6.225,0,0,1-4.541-1.711A6.082,6.082,0,0,1,20.52-6.035v-.328a7.66,7.66,0,0,1,.738-3.416A5.418,5.418,0,0,1,23.35-12.1a5.871,5.871,0,0,1,3.088-.814,5.262,5.262,0,0,1,4.1,1.641,6.667,6.667,0,0,1,1.494,4.652v1.383H23.953a3.146,3.146,0,0,0,.99,1.992,2.993,2.993,0,0,0,2.092.75,3.656,3.656,0,0,0,3.059-1.418l1.664,1.863A5.084,5.084,0,0,1,29.7-.369,6.767,6.767,0,0,1,26.813.234Zm-.387-10.418a2.116,2.116,0,0,0-1.635.683,3.535,3.535,0,0,0-.8,1.954H28.7v-.271a2.521,2.521,0,0,0-.609-1.748A2.183,2.183,0,0,0,26.426-10.184Z" transform="translate(1212.285 4208.7)" fill="#12263f"/>
    <path id="Trazado_181410" data-name="Trazado 181410" d="M-54.9-6.012V0h-3.516V-17.062h6.656a7.7,7.7,0,0,1,3.381.7,5.181,5.181,0,0,1,2.244,2,5.571,5.571,0,0,1,.785,2.947,4.9,4.9,0,0,1-1.717,3.955A7.15,7.15,0,0,1-51.82-6.012Zm0-2.848h3.141a3.088,3.088,0,0,0,2.127-.656,2.387,2.387,0,0,0,.732-1.875,2.814,2.814,0,0,0-.738-2.027,2.758,2.758,0,0,0-2.039-.8H-54.9ZM-39.586,0h-3.4V-18h3.4Zm10.137,0a3.761,3.761,0,0,1-.34-1.137,4.1,4.1,0,0,1-3.2,1.371A4.5,4.5,0,0,1-36.076-.844,3.467,3.467,0,0,1-37.3-3.562a3.583,3.583,0,0,1,1.494-3.094,7.373,7.373,0,0,1,4.318-1.09h1.559v-.727a2.089,2.089,0,0,0-.451-1.406,1.775,1.775,0,0,0-1.424-.527,2.018,2.018,0,0,0-1.342.41,1.393,1.393,0,0,0-.486,1.125H-37.02a3.4,3.4,0,0,1,.68-2.039,4.493,4.493,0,0,1,1.922-1.471,7,7,0,0,1,2.789-.533,5.534,5.534,0,0,1,3.721,1.178,4.12,4.12,0,0,1,1.377,3.311v5.5a6.062,6.062,0,0,0,.5,2.73V0Zm-2.8-2.355a2.917,2.917,0,0,0,1.383-.334,2.194,2.194,0,0,0,.938-.9v-2.18H-31.2q-2.543,0-2.707,1.758l-.012.2a1.356,1.356,0,0,0,.445,1.043A1.73,1.73,0,0,0-32.25-2.355ZM-20.812-12.68l.105,1.465a4.427,4.427,0,0,1,3.645-1.7,3.679,3.679,0,0,1,3,1.184,5.522,5.522,0,0,1,1.008,3.539V0h-3.387V-8.128A2.206,2.206,0,0,0-16.91-9.7a2.1,2.1,0,0,0-1.559-.487,2.329,2.329,0,0,0-2.145,1.221V0H-24V-12.68ZM-4.652.234A6.225,6.225,0,0,1-9.193-1.477a6.082,6.082,0,0,1-1.752-4.559v-.328a7.66,7.66,0,0,1,.738-3.416A5.418,5.418,0,0,1-8.115-12.1a5.871,5.871,0,0,1,3.088-.814,5.262,5.262,0,0,1,4.1,1.641A6.667,6.667,0,0,1,.563-6.621v1.383H-7.512a3.146,3.146,0,0,0,.99,1.992A2.993,2.993,0,0,0-4.43-2.5,3.656,3.656,0,0,0-1.371-3.914L.293-2.051A5.084,5.084,0,0,1-1.77-.369,6.767,6.767,0,0,1-4.652.234Zm-.387-10.418A2.116,2.116,0,0,0-6.674-9.5a3.535,3.535,0,0,0-.8,1.954h4.711v-.271a2.521,2.521,0,0,0-.609-1.748A2.183,2.183,0,0,0-5.039-10.184ZM9.832,0a3.761,3.761,0,0,1-.34-1.137A4.1,4.1,0,0,1,6.293.234,4.5,4.5,0,0,1,3.205-.844,3.467,3.467,0,0,1,1.98-3.562,3.583,3.583,0,0,1,3.475-6.656a7.373,7.373,0,0,1,4.318-1.09H9.352v-.727A2.089,2.089,0,0,0,8.9-9.879a1.775,1.775,0,0,0-1.424-.527A2.018,2.018,0,0,0,6.135-10a1.393,1.393,0,0,0-.486,1.125H2.262a3.4,3.4,0,0,1,.68-2.039,4.493,4.493,0,0,1,1.922-1.471,7,7,0,0,1,2.789-.533,5.534,5.534,0,0,1,3.721,1.178A4.12,4.12,0,0,1,12.75-8.426v5.5a6.062,6.062,0,0,0,.5,2.73V0Zm-2.8-2.355a2.917,2.917,0,0,0,1.383-.334,2.194,2.194,0,0,0,.938-.9v-2.18H8.086q-2.543,0-2.707,1.758l-.012.2a1.356,1.356,0,0,0,.445,1.043A1.73,1.73,0,0,0,7.031-2.355ZM20.625-2.5a2.221,2.221,0,0,0,1.523-.516,1.807,1.807,0,0,0,.609-1.371h3.176a4.344,4.344,0,0,1-.7,2.361A4.64,4.64,0,0,1,23.338-.357a5.923,5.923,0,0,1-2.654.592,5.5,5.5,0,0,1-4.289-1.729,6.84,6.84,0,0,1-1.57-4.775v-.223a6.762,6.762,0,0,1,1.559-4.676,5.441,5.441,0,0,1,4.277-1.746,5.333,5.333,0,0,1,3.814,1.354,4.792,4.792,0,0,1,1.459,3.6H22.758a2.327,2.327,0,0,0-.609-1.608,2.032,2.032,0,0,0-1.547-.619,2.04,2.04,0,0,0-1.787.863,5,5,0,0,0-.6,2.8v.352a5.063,5.063,0,0,0,.6,2.817A2.065,2.065,0,0,0,20.625-2.5ZM31.441,0h-3.4V-12.68h3.4Zm-3.6-15.961a1.668,1.668,0,0,1,.51-1.254,1.915,1.915,0,0,1,1.389-.492,1.919,1.919,0,0,1,1.383.492,1.658,1.658,0,0,1,.516,1.254,1.663,1.663,0,0,1-.521,1.266,1.924,1.924,0,0,1-1.377.492,1.924,1.924,0,0,1-1.377-.492A1.663,1.663,0,0,1,27.844-15.961Zm5.859,9.5A7.52,7.52,0,0,1,34.43-9.82a5.319,5.319,0,0,1,2.092-2.285,6.1,6.1,0,0,1,3.17-.809,5.774,5.774,0,0,1,4.189,1.57,6.3,6.3,0,0,1,1.811,4.266l.023.867a6.627,6.627,0,0,1-1.629,4.682A5.662,5.662,0,0,1,39.715.234a5.69,5.69,0,0,1-4.377-1.758A6.744,6.744,0,0,1,33.7-6.3Zm3.387.24a4.74,4.74,0,0,0,.68,2.764,2.242,2.242,0,0,0,1.945.957,2.247,2.247,0,0,0,1.922-.945,5.186,5.186,0,0,0,.691-3.022,4.692,4.692,0,0,0-.691-2.746,2.248,2.248,0,0,0-1.945-.974,2.211,2.211,0,0,0-1.922.968A5.274,5.274,0,0,0,37.09-6.217ZM40.359-18h3.691L40.8-14.367H38.051Zm10.559,5.32.105,1.465a4.427,4.427,0,0,1,3.645-1.7,3.679,3.679,0,0,1,3,1.184,5.522,5.522,0,0,1,1.008,3.539V0H55.289V-8.128A2.206,2.206,0,0,0,54.82-9.7a2.1,2.1,0,0,0-1.559-.487,2.329,2.329,0,0,0-2.145,1.221V0H47.73V-12.68Z" transform="translate(515.953 4479.7)" fill="#12263f"/>
    <path id="Trazado_181411" data-name="Trazado 181411" d="M-40.482-7.418h-6.75v4.594h7.922V0H-50.748V-17.062h11.414v2.848h-7.9v4.066h6.75Zm6.6-5.262V.691A4.536,4.536,0,0,1-35,3.955a4.231,4.231,0,0,1-3.211,1.166,6.886,6.886,0,0,1-1.676-.2V2.238a6.357,6.357,0,0,0,1.066.105q1.535,0,1.535-1.629V-12.68Zm-3.668-3.281a1.668,1.668,0,0,1,.51-1.254,1.915,1.915,0,0,1,1.389-.492,1.915,1.915,0,0,1,1.389.492,1.668,1.668,0,0,1,.51,1.254,1.663,1.663,0,0,1-.521,1.266,1.924,1.924,0,0,1-1.377.492,1.924,1.924,0,0,1-1.377-.492A1.663,1.663,0,0,1-37.553-15.961ZM-25.4.234a6.225,6.225,0,0,1-4.541-1.711,6.082,6.082,0,0,1-1.752-4.559v-.328a7.66,7.66,0,0,1,.738-3.416,5.418,5.418,0,0,1,2.092-2.32,5.871,5.871,0,0,1,3.088-.814,5.262,5.262,0,0,1,4.1,1.641,6.667,6.667,0,0,1,1.494,4.652v1.383H-28.26a3.146,3.146,0,0,0,.99,1.992,2.993,2.993,0,0,0,2.092.75,3.656,3.656,0,0,0,3.059-1.418l1.664,1.863A5.084,5.084,0,0,1-22.518-.369,6.767,6.767,0,0,1-25.4.234Zm-.387-10.418a2.116,2.116,0,0,0-1.635.683,3.535,3.535,0,0,0-.8,1.954h4.711v-.271a2.521,2.521,0,0,0-.609-1.748A2.183,2.183,0,0,0-25.787-10.184ZM-12.99-2.5a2.221,2.221,0,0,0,1.523-.516,1.807,1.807,0,0,0,.609-1.371h3.176a4.344,4.344,0,0,1-.7,2.361A4.64,4.64,0,0,1-10.277-.357a5.923,5.923,0,0,1-2.654.592,5.5,5.5,0,0,1-4.289-1.729,6.84,6.84,0,0,1-1.57-4.775v-.223a6.762,6.762,0,0,1,1.559-4.676,5.441,5.441,0,0,1,4.277-1.746,5.333,5.333,0,0,1,3.814,1.354,4.792,4.792,0,0,1,1.459,3.6h-3.176a2.327,2.327,0,0,0-.609-1.608,2.032,2.032,0,0,0-1.547-.619,2.04,2.04,0,0,0-1.787.863,5,5,0,0,0-.6,2.8v.352a5.063,5.063,0,0,0,.6,2.817A2.065,2.065,0,0,0-12.99-2.5ZM1.846-1.289A4.247,4.247,0,0,1-1.623.234,4.005,4.005,0,0,1-4.734-.937a5,5,0,0,1-1.1-3.434V-12.68h3.387v8.2q0,1.983,1.8,1.983a2.445,2.445,0,0,0,2.367-1.2V-12.68h3.4V0H1.939ZM12.955-2.5a2.221,2.221,0,0,0,1.523-.516,1.807,1.807,0,0,0,.609-1.371h3.176a4.344,4.344,0,0,1-.7,2.361A4.64,4.64,0,0,1,15.668-.357a5.923,5.923,0,0,1-2.654.592A5.5,5.5,0,0,1,8.725-1.494,6.84,6.84,0,0,1,7.154-6.27v-.223a6.762,6.762,0,0,1,1.559-4.676,5.441,5.441,0,0,1,4.277-1.746A5.333,5.333,0,0,1,16.8-11.561a4.792,4.792,0,0,1,1.459,3.6H15.088a2.327,2.327,0,0,0-.609-1.608,2.032,2.032,0,0,0-1.547-.619,2.04,2.04,0,0,0-1.787.863,5,5,0,0,0-.6,2.8v.352a5.063,5.063,0,0,0,.6,2.817A2.065,2.065,0,0,0,12.955-2.5ZM23.771,0h-3.4V-12.68h3.4Zm-3.6-15.961a1.668,1.668,0,0,1,.51-1.254,1.915,1.915,0,0,1,1.389-.492,1.919,1.919,0,0,1,1.383.492,1.658,1.658,0,0,1,.516,1.254,1.663,1.663,0,0,1-.521,1.266,1.924,1.924,0,0,1-1.377.492A1.924,1.924,0,0,1,20.7-14.7,1.663,1.663,0,0,1,20.174-15.961Zm5.859,9.5A7.52,7.52,0,0,1,26.76-9.82a5.319,5.319,0,0,1,2.092-2.285,6.1,6.1,0,0,1,3.17-.809,5.774,5.774,0,0,1,4.189,1.57,6.3,6.3,0,0,1,1.811,4.266l.023.867a6.627,6.627,0,0,1-1.629,4.682A5.662,5.662,0,0,1,32.045.234a5.69,5.69,0,0,1-4.377-1.758A6.744,6.744,0,0,1,26.033-6.3Zm3.387.24a4.74,4.74,0,0,0,.68,2.764,2.242,2.242,0,0,0,1.945.957,2.247,2.247,0,0,0,1.922-.945,5.186,5.186,0,0,0,.691-3.022,4.692,4.692,0,0,0-.691-2.746,2.248,2.248,0,0,0-1.945-.974,2.211,2.211,0,0,0-1.922.968A5.274,5.274,0,0,0,29.42-6.217ZM32.689-18h3.691l-3.246,3.633H30.381Zm10.559,5.32.105,1.465A4.427,4.427,0,0,1,47-12.914a3.679,3.679,0,0,1,3,1.184,5.522,5.522,0,0,1,1.008,3.539V0H47.619V-8.128A2.206,2.206,0,0,0,47.15-9.7a2.1,2.1,0,0,0-1.559-.487,2.329,2.329,0,0,0-2.145,1.221V0H40.061V-12.68Z" transform="translate(800 4602.7)" fill="#12263f"/>
    <g id="analisis" transform="translate(348.285 4096.7)">
      <path id="Trazado_104006" data-name="Trazado 104006" d="M111.67,84.953h41.44a3.047,3.047,0,0,0,3.047-3.047V23.861L142.293,10H97.047A3.047,3.047,0,0,0,94,13.047V81.906a3.047,3.047,0,0,0,3.047,3.047Z" transform="translate(-79.68 -8.477)" fill="#fff"/>
      <path id="Trazado_104007" data-name="Trazado 104007" d="M411,11.167V21.806a3.047,3.047,0,0,0,3.047,3.047h10.639Z" transform="translate(-348.387 -9.466)" fill="#fdd835"/>
      <path id="Trazado_104008" data-name="Trazado 104008" d="M64.419,85.819a18.6,18.6,0,1,1-18.6,18.6h18.6v-18.6Z" transform="translate(-38.839 -72.745)" fill="#26ccda"/>
      <path id="Trazado_104009" data-name="Trazado 104009" d="M167.909,104.419v-18.6a18.541,18.541,0,0,1,13.152,5.448Z" transform="translate(-142.329 -72.745)" fill="#fdd835"/>
      <path id="Trazado_104010" data-name="Trazado 104010" d="M28.6,50V68.6H10A18.6,18.6,0,0,1,28.6,50Z" transform="translate(-8.477 -42.383)" fill="#f57c00"/>
      <circle id="Elipse_4154" data-name="Elipse 4154" cx="3.047" cy="3.047" r="3.047" transform="translate(63.69 49.603)" fill="#f57c00"/>
      <circle id="Elipse_4155" data-name="Elipse 4155" cx="3.047" cy="3.047" r="3.047" transform="translate(48.71 64.274)" fill="#fdd835"/>
      <circle id="Elipse_4156" data-name="Elipse 4156" cx="3.047" cy="3.047" r="3.047" transform="translate(36.674 52.65)" fill="#26ccda"/>
      <circle id="Elipse_4157" data-name="Elipse 4157" cx="3.047" cy="3.047" r="3.047" transform="translate(24.969 64.28)" fill="#ffa726"/>
      <path id="Trazado_104011" data-name="Trazado 104011" d="M77.554,14.308,63.69.446A1.523,1.523,0,0,0,62.613,0H17.367A4.575,4.575,0,0,0,12.8,4.57v2.9A20.156,20.156,0,0,0,0,26.217,1.524,1.524,0,0,0,1.523,27.74h18.6a1.524,1.524,0,0,0,1.523-1.523V7.617a1.524,1.524,0,0,0-1.523-1.523,20.114,20.114,0,0,0-4.279.46V4.57a1.525,1.525,0,0,1,1.523-1.523H61.09V12.34a4.575,4.575,0,0,0,4.57,4.57h9.293V73.43a1.525,1.525,0,0,1-1.523,1.523H17.367a1.525,1.525,0,0,1-1.523-1.523V60.379a1.523,1.523,0,0,0-3.047,0V73.43A4.575,4.575,0,0,0,17.367,78H73.43A4.575,4.575,0,0,0,78,73.43V15.385A1.523,1.523,0,0,0,77.554,14.308ZM18.6,24.694H3.114A17.1,17.1,0,0,1,18.6,9.208V24.694ZM64.137,12.34V5.2L72.8,13.863H65.66A1.525,1.525,0,0,1,64.137,12.34Z"/>
      <path id="Trazado_104012" data-name="Trazado 104012" d="M84.446,350.446A1.523,1.523,0,1,0,85.523,350,1.535,1.535,0,0,0,84.446,350.446Z" transform="translate(-71.203 -296.68)"/>
      <path id="Trazado_104013" data-name="Trazado 104013" d="M76.065,95.942A20.146,20.146,0,0,0,55.942,75.819a1.524,1.524,0,0,0-1.523,1.523V94.419H37.342a1.524,1.524,0,0,0-1.523,1.523,20.123,20.123,0,1,0,40.246,0Zm-9.179-13.1-9.42,9.42V78.933A17,17,0,0,1,66.886,82.844ZM38.933,97.466H55.942a1.519,1.519,0,0,0,1.077-.446h0L69.041,85A17.073,17.073,0,1,1,38.933,97.466Z" transform="translate(-30.362 -64.268)"/>
      <path id="Trazado_104014" data-name="Trazado 104014" d="M174.75,323.222a4.57,4.57,0,1,0-8.719,1.913l-5.59,5.59a4.571,4.571,0,1,0,2.157,2.152l5.559-5.559a4.556,4.556,0,0,0,4.28-.124l5.664,5.664a4.571,4.571,0,1,0,8.251.044l8.7-8.7a4.568,4.568,0,1,0-2.059-2.25l-8.777,8.777a4.562,4.562,0,0,0-3.946-.021l-5.828-5.828A4.547,4.547,0,0,0,174.75,323.222Zm-16.275,13.152a1.523,1.523,0,1,1,1.054-2.621l.018.02.023.02a1.522,1.522,0,0,1-1.094,2.581Zm11.7-11.629a1.523,1.523,0,1,1,1.523-1.523A1.525,1.525,0,0,1,170.179,324.745Zm27.016-6.094a1.523,1.523,0,1,1-1.523,1.523A1.525,1.525,0,0,1,197.2,318.652Zm-13.457,16.193a1.523,1.523,0,1,1-1.523-1.523A1.525,1.525,0,0,1,183.739,334.845Z" transform="translate(-130.459 -267.525)"/>
      <path id="Trazado_104015" data-name="Trazado 104015" d="M326.834,238.047h8.041a1.523,1.523,0,0,0,0-3.047h-8.041a1.523,1.523,0,0,0,0,3.047Z" transform="translate(-275.752 -199.199)"/>
      <path id="Trazado_104016" data-name="Trazado 104016" d="M424.066,235.446a1.522,1.522,0,1,0,1.077-.446A1.535,1.535,0,0,0,424.066,235.446Z" transform="translate(-359.084 -199.199)"/>
      <path id="Trazado_104017" data-name="Trazado 104017" d="M326.834,142.047h18.609a1.523,1.523,0,0,0,0-3.047H326.834a1.523,1.523,0,0,0,0,3.047Z" transform="translate(-275.752 -117.824)"/>
      <path id="Trazado_104018" data-name="Trazado 104018" d="M326.834,190.047h18.609a1.523,1.523,0,0,0,0-3.047H326.834a1.523,1.523,0,0,0,0,3.047Z" transform="translate(-275.752 -158.512)"/>
    </g>
    <g id="lista" transform="translate(1028.514 4368.7)">
      <g id="Grupo_56544" data-name="Grupo 56544" transform="translate(23.295 1.523)">
        <path id="Trazado_104029" data-name="Trazado 104029" d="M0,0H26.645V4.795H0Z" transform="translate(15.557)" fill="#fdd835"/>
        <path id="Trazado_104019" data-name="Trazado 104019" d="M73.973,41.472H35.906a4.146,4.146,0,0,0-4.134,4.134V107.5a4.146,4.146,0,0,0,4.134,4.133H85.4A4.146,4.146,0,0,0,89.53,107.5v-7.139l-4.75,5.169c-2.6,2.83-4.873,3.208-7.877.866l-2.625-2.047H37.77V48.757H83.533V94.693l6-6.526V45.606A4.146,4.146,0,0,0,85.4,41.472Z" transform="translate(-31.772 -36.677)" fill="#ffa726"/>
        <path id="Trazado_104020" data-name="Trazado 104020" d="M116.9,89.295H71.141v55.587h36.508l-2.088-1.628c-5.863-4.935.175-11.714,5.071-6.5l2.841,2.215,3.431-3.734V89.295Z" transform="translate(-65.143 -77.215)" fill="#f0f0f0"/>
        <path id="Trazado_104021" data-name="Trazado 104021" d="M300.974,320.327l-6,6.526-3.431,3.734-2.841-2.215c-4.9-5.209-10.935,1.57-5.071,6.5l2.088,1.628,2.625,2.047c3,2.342,5.277,1.964,7.877-.866l4.75-5.169,9.466-10.3c3.625-3.74-2.6-9.422-6.073-5.581Z" transform="translate(-243.216 -268.837)" fill="#26ccda"/>
      </g>
      <path id="Trazado_104022" data-name="Trazado 104022" d="M92.712,50.3a6.216,6.216,0,0,0-5.527-3.783,5.111,5.111,0,0,0-3.859,1.772l-.748.814V10.452A5.663,5.663,0,0,0,76.92,4.795h-9.9V1.523A1.524,1.524,0,0,0,65.5,0H38.853a1.524,1.524,0,0,0-1.523,1.523V4.795h-9.9a5.663,5.663,0,0,0-5.657,5.657v61.89A5.663,5.663,0,0,0,27.429,78H76.92a5.663,5.663,0,0,0,5.657-5.657V65.8l9.052-9.85A5.08,5.08,0,0,0,92.712,50.3ZM40.376,3.047h23.6V4.795h-23.6Zm39.154,69.3a2.613,2.613,0,0,1-2.61,2.61H27.429a2.613,2.613,0,0,1-2.61-2.61V10.452a2.613,2.613,0,0,1,2.61-2.61H76.92a2.613,2.613,0,0,1,2.61,2.61V52.419L76.58,55.63V13.6a1.524,1.524,0,0,0-1.523-1.523H29.293A1.523,1.523,0,0,0,27.77,13.6V69.191a1.523,1.523,0,0,0,1.523,1.523H65.277l2.212,1.725A7.464,7.464,0,0,0,72.057,74.3c1.848,0,3.554-.919,5.368-2.893l2.1-2.29v3.23ZM61.643,67.667H30.816V15.127H73.533V58.946l-2.079,2.262L69.81,59.926a6.572,6.572,0,0,0-4.774-2.267,5.216,5.216,0,0,0-4.924,3.492A6.4,6.4,0,0,0,61.643,67.667ZM89.426,53.842l-.028.029L75.182,69.341c-1.572,1.71-2.536,1.908-3.124,1.908a4.645,4.645,0,0,1-2.695-1.213l-4.69-3.656c-1.543-1.308-2.178-2.871-1.7-4.185a2.2,2.2,0,0,1,2.062-1.489,3.774,3.774,0,0,1,2.638,1.4,1.52,1.52,0,0,0,.173.158l2.841,2.215a1.524,1.524,0,0,0,2.058-.171L85.578,50.342a2.126,2.126,0,0,1,1.607-.777,3.184,3.184,0,0,1,2.722,1.925A2.02,2.02,0,0,1,89.426,53.842Z"/>
      <path id="Trazado_104023" data-name="Trazado 104023" d="M184.128,143.393a1.523,1.523,0,1,0,0-3.047H161.906a1.523,1.523,0,1,0,0,3.047Z" transform="translate(-117.495 -118.965)"/>
      <path id="Trazado_104024" data-name="Trazado 104024" d="M130.465,140.346H130.2a1.523,1.523,0,0,0,0,3.047h.268a1.523,1.523,0,0,0,0-3.047Z" transform="translate(-90.616 -118.965)"/>
      <path id="Trazado_104025" data-name="Trazado 104025" d="M204.048,205.02H185.406a1.523,1.523,0,1,0,0,3.047h18.642a1.523,1.523,0,0,0,0-3.047Z" transform="translate(-137.415 -173.787)"/>
      <path id="Trazado_104026" data-name="Trazado 104026" d="M189.042,271.427a1.523,1.523,0,0,0-1.523-1.523H165.906a1.523,1.523,0,1,0,0,3.047h21.612A1.524,1.524,0,0,0,189.042,271.427Z" transform="translate(-120.885 -228.786)"/>
      <path id="Trazado_104027" data-name="Trazado 104027" d="M130.465,269.9H130.2a1.523,1.523,0,1,0,0,3.047h.268a1.523,1.523,0,1,0,0-3.047Z" transform="translate(-90.616 -228.786)"/>
      <path id="Trazado_104028" data-name="Trazado 104028" d="M205.572,336.1a1.523,1.523,0,0,0-1.523-1.523H185.406a1.523,1.523,0,0,0,0,3.047h18.642A1.524,1.524,0,0,0,205.572,336.1Z" transform="translate(-137.415 -283.608)"/>
    </g>
    <g id="rompecabezas" transform="translate(1174.285 4100.7)">
      <g id="Grupo_56549" data-name="Grupo 56549" transform="translate(43.043 0)">
        <g id="Grupo_56546" data-name="Grupo 56546" transform="translate(1.524 1.523)">
          <g id="Grupo_56545" data-name="Grupo 56545">
            <path id="Trazado_104030" data-name="Trazado 104030" d="M317.818,10H292.545V21.255l.092-.017a4.654,4.654,0,1,1,0,9.157l-.091-.017V40.652h11.493l-.208,1.135a4.71,4.71,0,0,0,4.631,5.588,4.654,4.654,0,0,0,4.508-5.492l-.225-1.231H323.2V15.38a5.38,5.38,0,0,0-5.38-5.38Z" transform="translate(-292.545 -10)" fill="#26ccda"/>
          </g>
        </g>
        <g id="Grupo_56548" data-name="Grupo 56548">
          <g id="Grupo_56547" data-name="Grupo 56547">
            <path id="Trazado_104031" data-name="Trazado 104031" d="M299.916,40.422a6.107,6.107,0,0,1-4.672-2.181,6.28,6.28,0,0,1-1.475-4.543h-9.7a1.523,1.523,0,0,1-1.523-1.523V21.9a1.523,1.523,0,0,1,1.8-1.5l.091.017a3.131,3.131,0,1,0,0-6.16l-.091.017a1.523,1.523,0,0,1-1.8-1.5V1.523A1.523,1.523,0,0,1,284.068,0H309.34a6.911,6.911,0,0,1,6.9,6.9V32.176A1.523,1.523,0,0,1,314.72,33.7h-8.653a6.178,6.178,0,0,1-6.062,6.723Zm-14.325-9.77h9.969a1.523,1.523,0,0,1,1.5,1.8l-.208,1.135a3.245,3.245,0,0,0,.719,2.689,3.038,3.038,0,0,0,2.391,1.1,3.131,3.131,0,0,0,3.032-3.694l-.225-1.231a1.524,1.524,0,0,1,1.5-1.8h8.93V6.9a3.861,3.861,0,0,0-3.856-3.856H285.591V11.19a6.179,6.179,0,0,1,0,12.3Z" transform="translate(-282.544 0)"/>
          </g>
        </g>
      </g>
      <g id="Grupo_56563" data-name="Grupo 56563" transform="translate(0 0)">
        <g id="Grupo_56552" data-name="Grupo 56552" transform="translate(2.78 41.38)">
          <g id="Grupo_56551" data-name="Grupo 56551">
            <g id="Grupo_56550" data-name="Grupo 56550">
              <path id="Trazado_104032" data-name="Trazado 104032" d="M48.811,295.389a4.654,4.654,0,0,1-5.492-4.578h0a4.654,4.654,0,0,1,5.492-4.578l.091.017V276.07H39.558a4.656,4.656,0,0,0-9.3,0H18.25v25.273a5.38,5.38,0,0,0,5.38,5.38H48.9v-11.35Z" transform="translate(-18.25 -271.626)" fill="#f57c00"/>
            </g>
          </g>
        </g>
        <g id="Grupo_56554" data-name="Grupo 56554" transform="translate(27.849 45.824)">
          <g id="Grupo_56553" data-name="Grupo 56553">
            <path id="Trazado_104033" data-name="Trazado 104033" d="M219.041,306.31v-5.516H208.587l.225,1.231a4.654,4.654,0,0,1-4.508,5.492,4.71,4.71,0,0,1-4.631-5.588l.208-1.135H188.389v10.179l-.091-.017a4.654,4.654,0,0,0-5.492,4.578h0a4.654,4.654,0,0,0,5.492,4.578l.091-.017v11.35h25.273a5.38,5.38,0,0,0,5.38-5.38v-4.421" transform="translate(-182.805 -300.794)" fill="#ffa726"/>
          </g>
        </g>
        <g id="Grupo_56557" data-name="Grupo 56557" transform="translate(1.257 13.648)">
          <g id="Grupo_56556" data-name="Grupo 56556" transform="translate(1.523 1.523)">
            <g id="Grupo_56555" data-name="Grupo 56555">
              <path id="Trazado_104034" data-name="Trazado 104034" d="M48.993,110.827l-.091.017V99.588H23.63a5.38,5.38,0,0,0-5.38,5.38V130.24H30.256a4.656,4.656,0,0,1,9.3,0H48.9V119.967l.092.017a4.654,4.654,0,1,0,0-9.157Z" transform="translate(-18.25 -99.588)" fill="#fdd835"/>
            </g>
          </g>
          <path id="Trazado_104035" data-name="Trazado 104035" d="M71.078,128.8a1.523,1.523,0,0,0,1.523-1.523v-5.516a1.523,1.523,0,0,0-1.523-1.523H60.624a1.524,1.524,0,0,0-1.5,1.8l.225,1.231a3.131,3.131,0,0,1-3.032,3.694,3.04,3.04,0,0,1-2.391-1.1,3.245,3.245,0,0,1-.719-2.689l.208-1.135a1.523,1.523,0,0,0-1.5-1.8H41.949v-7.161a6.179,6.179,0,0,0,0-12.3V91.111a1.523,1.523,0,0,0-1.523-1.523H15.153a6.911,6.911,0,0,0-6.9,6.9v50.545a6.911,6.911,0,0,0,6.9,6.9H65.7a6.911,6.911,0,0,0,6.9-6.9v-4.421a1.523,1.523,0,0,0-3.047,0v4.421a3.861,3.861,0,0,1-3.856,3.856H41.949v-9.826a1.523,1.523,0,0,0-1.8-1.5l-.092.017a3.131,3.131,0,1,1,0-6.16l.091.017a1.523,1.523,0,0,0,1.8-1.5v-8.656h8.177a6.279,6.279,0,0,0,1.475,4.542,6.158,6.158,0,0,0,10.823-4.542h7.129v3.993A1.523,1.523,0,0,0,71.078,128.8ZM11.3,96.491a3.861,3.861,0,0,1,3.856-3.856H38.9v9.732a1.523,1.523,0,0,0,1.8,1.5l.091-.017h0a3.131,3.131,0,1,1,0,6.16l-.092-.017a1.524,1.524,0,0,0-1.8,1.5v8.75H32.365a6.185,6.185,0,0,0-11.87,0H11.3Zm24.244,35.268a6.179,6.179,0,0,0,3.361,10.9v8.237H15.153a3.861,3.861,0,0,1-3.856-3.856V123.287H21.779A1.524,1.524,0,0,0,23.3,121.83a3.133,3.133,0,0,1,6.258,0,1.523,1.523,0,0,0,1.522,1.457H38.9v7.067a6.161,6.161,0,0,0-3.361,1.405Z" transform="translate(-8.25 -89.588)"/>
        </g>
        <g id="Grupo_56562" data-name="Grupo 56562">
          <g id="Grupo_56559" data-name="Grupo 56559">
            <g id="Grupo_56558" data-name="Grupo 56558">
              <path id="Trazado_104036" data-name="Trazado 104036" fill="#f5737f"/>
            </g>
          </g>
          <g id="Grupo_56561" data-name="Grupo 56561" transform="translate(62.564 57.409)">
            <g id="Grupo_56560" data-name="Grupo 56560">
              <path id="Trazado_104037" data-name="Trazado 104037" d="M412.2,379.883a1.522,1.522,0,1,1,1.494-1.225,1.535,1.535,0,0,1-1.494,1.225Z" transform="translate(-410.678 -376.841)"/>
            </g>
          </g>
        </g>
      </g>
    </g>
    <g id="administracion" transform="translate(750.285 4477.7)">
      <path id="Trazado_104038" data-name="Trazado 104038" d="M97.768,59.949V47.819a1.784,1.784,0,0,0-1.784-1.784H89.309a36.049,36.049,0,0,0-4.824-11.653L89.2,29.665a1.783,1.783,0,0,0,0-2.523l-8.577-8.577a1.783,1.783,0,0,0-2.523,0l-4.718,4.718a36.049,36.049,0,0,0-11.653-4.824V11.784A1.784,1.784,0,0,0,59.949,10H47.819a1.784,1.784,0,0,0-1.784,1.784v6.685A36.055,36.055,0,0,0,34.4,23.3l-4.735-4.735a1.783,1.783,0,0,0-2.523,0l-8.577,8.577a1.783,1.783,0,0,0,0,2.523L23.31,34.41A36.044,36.044,0,0,0,18.5,46.035h-6.72A1.784,1.784,0,0,0,10,47.819V59.949a1.784,1.784,0,0,0,1.784,1.784h6.73A36.059,36.059,0,0,0,23.328,73.34L18.565,78.1a1.783,1.783,0,0,0,0,2.523L27.142,89.2a1.783,1.783,0,0,0,2.523,0l4.763-4.763a36.059,36.059,0,0,0,11.607,4.814v6.73a1.784,1.784,0,0,0,1.784,1.784H59.949a1.784,1.784,0,0,0,1.784-1.784v-6.72a36.034,36.034,0,0,0,11.624-4.806L78.1,89.2a1.783,1.783,0,0,0,2.523,0L89.2,80.626a1.783,1.783,0,0,0,0-2.523l-4.735-4.736A36.045,36.045,0,0,0,89.3,61.733h6.685A1.784,1.784,0,0,0,97.768,59.949Zm0,0" transform="translate(-8.216 -8.216)" fill="#ffa726"/>
      <path id="Trazado_104039" data-name="Trazado 104039" d="M51.733,91.336H39.6a3.572,3.572,0,0,1-3.568-3.568V82.442A37.687,37.687,0,0,1,26.48,78.48l-3.769,3.769a3.572,3.572,0,0,1-5.046,0L9.087,73.671a3.572,3.572,0,0,1,0-5.045l3.769-3.77A37.687,37.687,0,0,1,8.894,55.3H3.568A3.572,3.572,0,0,1,0,51.733V39.6a3.572,3.572,0,0,1,3.568-3.568H8.882a37.686,37.686,0,0,1,3.958-9.572L9.087,22.71a3.572,3.572,0,0,1,0-5.045l8.578-8.578a3.572,3.572,0,0,1,5.046,0l3.74,3.741a37.686,37.686,0,0,1,9.584-3.979V3.568A3.572,3.572,0,0,1,39.6,0H51.733A3.572,3.572,0,0,1,55.3,3.568V8.837a37.7,37.7,0,0,1,9.6,3.974l3.725-3.724a3.572,3.572,0,0,1,5.045,0l8.578,8.578a3.572,3.572,0,0,1,0,5.046l-3.724,3.724a37.7,37.7,0,0,1,3.974,9.6h5.269A3.572,3.572,0,0,1,91.336,39.6V51.733A3.572,3.572,0,0,1,87.768,55.3H82.487a37.711,37.711,0,0,1-3.979,9.584l3.74,3.741a3.572,3.572,0,0,1,0,5.045l-8.577,8.578a3.572,3.572,0,0,1-5.046,0L64.873,78.5A37.707,37.707,0,0,1,55.3,82.454v5.314A3.572,3.572,0,0,1,51.733,91.336ZM26.212,74.44a1.781,1.781,0,0,1,.96.28A34.158,34.158,0,0,0,38.2,79.3a1.784,1.784,0,0,1,1.4,1.742v6.73H51.733v-6.72a1.783,1.783,0,0,1,1.4-1.742,34.184,34.184,0,0,0,11.049-4.568,1.784,1.784,0,0,1,2.22.243l4.745,4.745,8.577-8.577-4.735-4.735a1.784,1.784,0,0,1-.241-2.223,34.18,34.18,0,0,0,4.592-11.059,1.783,1.783,0,0,1,1.741-1.4h6.685V39.6H81.093a1.783,1.783,0,0,1-1.742-1.4,34.16,34.16,0,0,0-4.585-11.076,1.785,1.785,0,0,1,.243-2.222l4.718-4.718L71.149,11.61l-4.718,4.718a1.785,1.785,0,0,1-2.222.243,34.176,34.176,0,0,0-11.076-4.585,1.783,1.783,0,0,1-1.4-1.742V3.568H39.6v6.685a1.784,1.784,0,0,1-1.4,1.742,34.176,34.176,0,0,0-11.06,4.591,1.783,1.783,0,0,1-2.222-.241L20.187,11.61,11.61,20.187l4.745,4.746a1.783,1.783,0,0,1,.243,2.219A34.184,34.184,0,0,0,12.03,38.2a1.783,1.783,0,0,1-1.742,1.4H3.568V51.733H10.3a1.785,1.785,0,0,1,1.742,1.4,34.167,34.167,0,0,0,4.575,11.032,1.784,1.784,0,0,1-.242,2.222L11.61,71.149l8.577,8.578,4.763-4.764A1.784,1.784,0,0,1,26.212,74.44Zm0,0"/>
      <path id="Trazado_104040" data-name="Trazado 104040" d="M168.522,144.261A24.261,24.261,0,1,1,144.261,120,24.261,24.261,0,0,1,168.522,144.261Zm0,0" transform="translate(-98.593 -98.593)" fill="#fff"/>
      <path id="Trazado_104041" data-name="Trazado 104041" d="M136.1,162.094a26.04,26.04,0,1,1,12.731-48.761,1.784,1.784,0,1,1-1.745,3.111,22.477,22.477,0,1,0,9.129,9.572,1.784,1.784,0,1,1,3.192-1.594A26.036,26.036,0,0,1,136.1,162.094Zm0,0" transform="translate(-90.432 -90.393)"/>
      <path id="Trazado_104042" data-name="Trazado 104042" d="M346.135,155.58a1.786,1.786,0,1,1,1.261-.523A1.795,1.795,0,0,1,346.135,155.58Zm0,0" transform="translate(-282.923 -124.894)"/>
      <path id="Trazado_104043" data-name="Trazado 104043" d="M199.848,192.332l-9.918,9.918-4.883-4.883-6.4,6.4,4.883,4.883,6.4,6.4,16.316-16.316Zm0,0" transform="translate(-146.779 -158.022)" fill="#26ccda"/>
      <path id="Trazado_104044" data-name="Trazado 104044" d="M181.713,208.615a1.784,1.784,0,0,1-1.261-.523l-11.281-11.282a1.783,1.783,0,0,1,0-2.523l6.4-6.4a1.786,1.786,0,0,1,2.523,0l3.621,3.621,8.657-8.656a1.783,1.783,0,0,1,2.523,0l6.4,6.4a1.785,1.785,0,0,1,0,2.523l-16.316,16.316A1.787,1.787,0,0,1,181.713,208.615Zm-8.759-13.066,8.759,8.759,13.794-13.793-3.876-3.876-8.656,8.656a1.784,1.784,0,0,1-2.523,0l-3.621-3.621Zm0,0" transform="translate(-138.563 -149.806)"/>
    </g>
    <g id="moodboard" transform="translate(476.953 4341.931)">
      <path id="Trazado_104045" data-name="Trazado 104045" d="M0,0H74.953V63.223H0Z" transform="translate(76.477 103.246) rotate(180)" fill="#26ccda"/>
      <path id="Trazado_104046" data-name="Trazado 104046" d="M0,0H11.488V13.786H0Z" transform="matrix(0.981, -0.196, 0.196, 0.981, 7.495, 55.433)" fill="#fdd835"/>
      <path id="Trazado_104047" data-name="Trazado 104047" d="M0,0H10.752V10.752H0Z" transform="translate(48.414 53.206) rotate(12.939)" fill="#fff"/>
      <path id="Trazado_104048" data-name="Trazado 104048" d="M0,0H10.752V10.752H0Z" transform="translate(32.563 67.189) rotate(12.939)" fill="#f57c00"/>
      <path id="Trazado_104049" data-name="Trazado 104049" d="M0,0H10.752V10.752H0Z" transform="translate(13.9 86.918) rotate(-17.33)" fill="#fff"/>
      <path id="Trazado_104050" data-name="Trazado 104050" d="M0,0H10.752V10.752H0Z" transform="translate(52.305 87.52) rotate(-17.33)" fill="#ffa726"/>
      <g id="Grupo_56564" data-name="Grupo 56564" transform="translate(0 38.5)">
        <circle id="Elipse_4158" data-name="Elipse 4158" cx="1.5" cy="1.5" r="1.5" transform="translate(75 46.269)"/>
        <path id="Trazado_104051" data-name="Trazado 104051" d="M77.553,38.946a1.534,1.534,0,0,0-1.077-.446H1.523A1.524,1.524,0,0,0,0,40.023v63.223a1.524,1.524,0,0,0,1.523,1.523H76.477A1.525,1.525,0,0,0,78,103.246V93.039a1.523,1.523,0,0,0-3.047,0v8.685H3.047V41.547H74.953V79.328a1.523,1.523,0,0,0,3.047,0v-39.3A1.534,1.534,0,0,0,77.553,38.946Z" transform="translate(0 -38.5)"/>
        <path id="Trazado_104052" data-name="Trazado 104052" d="M53.481,126.011a1.523,1.523,0,0,0-1.793-1.195L40.424,127.07a1.524,1.524,0,0,0-1.195,1.793l2.7,13.518a1.522,1.522,0,0,0,1.793,1.195l11.265-2.254a1.523,1.523,0,0,0,1.195-1.793Zm-8.859,14.278-2.107-10.53,8.277-1.656,2.107,10.53Z" transform="translate(-33.227 -111.641)"/>
        <path id="Trazado_104053" data-name="Trazado 104053" d="M295.021,125.168a1.523,1.523,0,0,0-.676.95L291.938,136.6a1.523,1.523,0,0,0,1.144,1.826l10.479,2.407a1.522,1.522,0,0,0,1.826-1.144l2.407-10.479a1.523,1.523,0,0,0-1.144-1.826l-10.479-2.407a1.525,1.525,0,0,0-1.15.194Zm9.462,4.842-1.725,7.51-7.51-1.725,1.725-7.51Z" transform="translate(-247.43 -111.767)"/>
        <path id="Trazado_104054" data-name="Trazado 104054" d="M189.085,230.188l10.479,2.407a1.522,1.522,0,0,0,1.826-1.144l2.407-10.479a1.523,1.523,0,0,0-1.144-1.826l-10.479-2.407a1.524,1.524,0,0,0-1.826,1.144l-2.407,10.479a1.523,1.523,0,0,0,1.143,1.826Zm3.892-10.138,7.51,1.725-1.725,7.51-7.51-1.725Z" transform="translate(-159.277 -189.552)"/>
        <path id="Trazado_104055" data-name="Trazado 104055" d="M84.406,340.634a1.523,1.523,0,0,0,1.908,1l10.264-3.2a1.523,1.523,0,0,0,1-1.908l-3.2-10.264a1.523,1.523,0,0,0-1.908-1l-10.264,3.2a1.523,1.523,0,0,0-1,1.908Zm7.516-12.012,2.295,7.355-7.356,2.295-2.295-7.356Z" transform="translate(-68.775 -281.515)"/>
        <path id="Trazado_104056" data-name="Trazado 104056" d="M344.469,329.258l-10.264,3.2a1.523,1.523,0,0,0-1,1.908l3.2,10.264a1.522,1.522,0,0,0,1.908,1l10.264-3.2a1.523,1.523,0,0,0,1-1.908l-3.2-10.264A1.523,1.523,0,0,0,344.469,329.258Zm-5.608,13.013-2.295-7.356,7.356-2.295,2.295,7.355Z" transform="translate(-282.384 -284.904)"/>
        <path id="Trazado_104057" data-name="Trazado 104057" d="M184.143,78.5H161.19a1.523,1.523,0,0,0,0,3.047h22.953a1.523,1.523,0,1,0,0-3.047Z" transform="translate(-135.343 -72.406)"/>
        <path id="Trazado_104058" data-name="Trazado 104058" d="M172.943,137.462a1.523,1.523,0,0,0,2.09.522l3.919-2.352a1.523,1.523,0,0,0,.522-2.09l-2.352-3.919a1.524,1.524,0,0,0-2.613,1.568l.428.714a29.067,29.067,0,0,0-11.881.979,1.523,1.523,0,1,0,.925,2.9,26.474,26.474,0,0,1,10.294-.9l-.812.487A1.524,1.524,0,0,0,172.943,137.462Z" transform="translate(-137.317 -115.114)"/>
        <path id="Trazado_104059" data-name="Trazado 104059" d="M220.248,375.193a1.522,1.522,0,0,0,2.09-.522l2.352-3.919a1.523,1.523,0,0,0-.522-2.09l-3.919-2.352a1.523,1.523,0,1,0-1.568,2.613l.809.485a26.668,26.668,0,0,1-10.293-.9,1.523,1.523,0,0,0-.924,2.9,30.474,30.474,0,0,0,8.415,1.237,22.484,22.484,0,0,0,3.467-.258l-.428.714A1.524,1.524,0,0,0,220.248,375.193Z" transform="translate(-175.644 -316.186)"/>
        <path id="Trazado_104060" data-name="Trazado 104060" d="M331.062,179.794l-.76-.231a1.523,1.523,0,1,0-.887,2.915l.76.232a4.47,4.47,0,0,1,3.014,5.272,5.678,5.678,0,0,1-4.787,4.1l-9.041.947.541-.668a1.523,1.523,0,1,0-2.367-1.918L314.657,194a1.523,1.523,0,0,0,.225,2.143l3.551,2.878a1.523,1.523,0,0,0,1.918-2.367l-.719-.583,9.088-.952a8.8,8.8,0,0,0,7.415-6.357,7.577,7.577,0,0,0-5.072-8.964Z" transform="translate(-266.433 -158.016)"/>
        <path id="Trazado_104061" data-name="Trazado 104061" d="M93.852,251.975a7.011,7.011,0,0,0-4.544,1.661,6.384,6.384,0,0,0-1.957,2.926l-.292-.5a1.523,1.523,0,1,0-2.632,1.534l2.3,3.948a1.523,1.523,0,0,0,2.083.549l3.948-2.3a1.524,1.524,0,0,0-1.534-2.633l-1.041.607a3.328,3.328,0,0,1,1.112-1.821,3.962,3.962,0,0,1,2.572-.922c.458,0,1.966-.018,2.667-.022a1.523,1.523,0,0,0-.01-3.047h-.01C95.81,251.957,94.3,251.972,93.852,251.975Z" transform="translate(-71.389 -219.434)"/>
      </g>
    </g>
  </g>
</svg>
