<svg xmlns="http://www.w3.org/2000/svg" width="403.028" height="250.321" viewBox="0 0 403.028 250.321">
  <g id="Grupo_82673" data-name="Grupo 82673" transform="translate(-131.92 -150.285)">
    <g id="Grupo_56323" data-name="Grupo 56323" transform="translate(452.718 240.113)">
      <g id="Grupo_56319" data-name="Grupo 56319" transform="translate(73.413 84.606)">
        <g id="Grupo_56318" data-name="Grupo 56318">
          <g id="Grupo_56317" data-name="Grupo 56317">
            <path id="Trazado_103179" data-name="Trazado 103179" d="M2812.645,1334.521s-.289,1.568-1.168,1.8a5.1,5.1,0,0,0-1.828,1.236c-.341.327-1.759.941-1.351,1.374s2.387-.9,2.857-1.1-.2,1.983-.013,2.478,3.863,1.407,4.153-.142-.423-3.4-.319-3.658a9.721,9.721,0,0,0,.256-1.119Z" transform="translate(-2808.225 -1334.521)" fill="#eea886"/>
          </g>
        </g>
      </g>
      <g id="Grupo_56322" data-name="Grupo 56322" transform="translate(75.917 90.02)">
        <g id="Grupo_56321" data-name="Grupo 56321">
          <g id="Grupo_56320" data-name="Grupo 56320">
            <path id="Trazado_103180" data-name="Trazado 103180" d="M2825.615,1371.281s-.572,4.8-.342,5.154.492.367.564-.079.687-4.624.687-4.624.278,5.8.4,6.127c.073.193.58.253.64.018s.114-6,.114-6,.269,5.412.457,5.657a.373.373,0,0,0,.649-.25c.008-.4.041-5.44.041-5.44s.444,3.927.724,4.041c.171.069.606.142.46-.868s-.242-3.428-.242-3.428Z" transform="translate(-2825.219 -1371.281)" fill="#eea886"/>
          </g>
        </g>
      </g>
      <rect id="Rectángulo_9409" data-name="Rectángulo 9409" width="23.03" height="23.03" transform="matrix(0.997, -0.072, 0.072, 0.997, 0, 1.664)" fill="#fdd835"/>
      <path id="Trazado_103181" data-name="Trazado 103181" d="M2429.006,881.083a13.191,13.191,0,0,1-1.059-2.648,6.862,6.862,0,0,0-2.334-3.113c-.6-.371-4.93-3.475-5.432-3.475s-.21.963.223,1.244,3.953,3.022,3.953,3.022-4.378-3.021-4.836-2.939-.782.663-.292,1.262a.82.82,0,0,0,.042,1.455l2.069,1.6s-1.218-.633-.765.345c.241.52,2.786,2.039,3.194,2.5a27.624,27.624,0,0,0,3.618,2.028Z" transform="translate(-2402.746 -855.392)" fill="#eea886"/>
      <path id="Trazado_103182" data-name="Trazado 103182" d="M2570.388,1781.213H2569.3s.362-4.1-.643-4.14-3.5,3.335-4.983,3.858-9.122.964-9.162-.442,2.933-1.97,3.857-2.371,5.426-4.783,6.229-5.3,2.13-3.175,2.13-3.175h4.1s.449,2.226.708,4.023a15.789,15.789,0,0,1,.176,1.684C2571.754,1776.873,2570.388,1781.213,2570.388,1781.213Z" transform="translate(-2518.471 -1620.942)" fill="#eea886"/>
      <path id="Trazado_103183" data-name="Trazado 103183" d="M2712.6,1770.677h-.9v-3.816c-.753.063-3.286,2.46-4.07,3.153s-1.858.662-5.159.872-3.612-1.766-3.089-2.439,2.211-.967,3.089-1.387,4.346-4.33,5.271-5.255,1.487-3.573,1.487-3.573l3.858.336a23.618,23.618,0,0,0,.415,4.456h0a.075.075,0,0,1,0,.015q.056.261.124.509C2714.2,1765.664,2712.6,1770.677,2712.6,1770.677Z" transform="translate(-2641.827 -1611.216)" fill="#eea886"/>
      <path id="Trazado_103184" data-name="Trazado 103184" d="M2729.048,957.7s1.883,3.973.877,7.221c0,0,5.793-.79,5.966-1.467s-.726-6.769-.057-8.637S2729.048,957.7,2729.048,957.7Z" transform="translate(-2667.297 -925.767)" fill="#eea886"/>
      <path id="Trazado_103185" data-name="Trazado 103185" d="M2676.151,1012.3s-3.353,1.44-4.883,1.883-4.674,2.178-4,7.8a114.942,114.942,0,0,0,2.526,12.848,49.932,49.932,0,0,1,.4,11.628,44.873,44.873,0,0,0,17.946-1.3s-2.09-4.99-2.142-6.316,4.847-12.629,4.987-14.367.737-9.406-1.986-10.893-4.823-1.113-5.979-1.783S2677.72,1011.643,2676.151,1012.3Z" transform="translate(-2614.538 -974.462)" fill="#f57c00"/>
      <path id="Trazado_103186" data-name="Trazado 103186" d="M2506.567,949.073s1.288-6.756-5.262-6.745c-5.757.009-11.2-1.082-12.107-1.588s-4.434-2.238-6.283-4.139-11.868-9.521-11.868-9.521l-2.769,2.8s10.569,11.477,12.273,12.595,16.011,9.108,17.826,9.361S2505.291,953.476,2506.567,949.073Z" transform="translate(-2444.938 -902.489)" fill="#f57c00"/>
      <path id="Trazado_103187" data-name="Trazado 103187" d="M2807.606,1056.9c.2,2.379-1.1,18.806-1.1,18.806l-4.658.537s.332-16.224.593-19.966a18.82,18.82,0,0,0-.576-4.624h0c-.252-1.164-.562-2.385-.882-3.55-.881-3.218-1.831-6.013-1.831-6.013s-5.215-13.567,1.327-13.019a15.784,15.784,0,0,1,3.461,6.621,81.143,81.143,0,0,1,2.252,12.735C2806.239,1050.884,2807.462,1055.152,2807.606,1056.9Z" transform="translate(-2725.396 -989.443)" fill="#f57c00"/>
      <path id="Trazado_103188" data-name="Trazado 103188" d="M2643.09,1231.488a39.815,39.815,0,0,0-1.636,4.451c-.133.9-4.844,12.629-5.172,16.061-.332,3.471-1.326,12.732-1.68,14.058s.8,7.25.972,8.576.089,22.988-1.5,33.687c0,0,3.713,1.591,6.543,0,0,0,4.687-16.71,4.421-26.348s-1.488-13.7.008-17.595,10.249-15.561,11.133-16.8,6.423-8.078,1.178-15.489S2643.09,1231.488,2643.09,1231.488Z" transform="translate(-2586.311 -1159.624)" fill="#f6f6f6"/>
      <path id="Trazado_103189" data-name="Trazado 103189" d="M2729.236,1260.351c-.465,3.1.024,7.162,1,18.48s-1.7,25.021-1.7,25.021a13.58,13.58,0,0,1-7.228,0c.089-.8,0-27.586,0-29.973s-.686-5.1-.862-7.837a55.891,55.891,0,0,0-1.967-8.825c-.293-1.053-.6-2.112-.89-3.137h0c-.166-.574-.327-1.139-.486-1.686-1.376-4.774-3.228-23.211-3.228-23.211s10.261-8.265,15.257-.484,2.431,13.439,2.255,14.411S2729.7,1257.257,2729.236,1260.351Z" transform="translate(-2654.356 -1156.835)" fill="#e8e8e8"/>
      <path id="Trazado_103190" data-name="Trazado 103190" d="M2672.685,1060.46s.912,14.649-1.815,22.891c0,0,10.836,1.807,24.659-2.851,0,0-3.8-9.847-3.671-11.385s4.132-19.468,2.212-23.479S2673.368,1047.317,2672.685,1060.46Z" transform="translate(-2617.689 -1002.503)" fill="#f57c00"/>
      <path id="Trazado_103191" data-name="Trazado 103191" d="M2698.307,866c-2.477-.1-8.8.859-7.624,10.392s4.62,8.707,8.029,7.441,7.018-8.974,6.874-10.959S2705.376,866.289,2698.307,866Z" transform="translate(-2634.46 -850.404)" fill="#eea886"/>
      <path id="Trazado_103192" data-name="Trazado 103192" d="M2691.712,866.61s3.024,3.329,5.868,3.972c0,0,2.42,3.675,6.228,4.381,0,0,7.418-8.2.3-13.446S2691.457,863.687,2691.712,866.61Z" transform="translate(-2635.454 -845.023)" fill="#454442"/>
      <path id="Trazado_103193" data-name="Trazado 103193" d="M2727.158,919.006a1.205,1.205,0,0,1,2.119-.552c.981,1.125-.449,4.022-1.067,4.066S2726.949,921.015,2727.158,919.006Z" transform="translate(-2665.651 -894.726)" fill="#eea886"/>
      <path id="Trazado_103194" data-name="Trazado 103194" d="M2746.479,1350.022c-.08.176-5.193,11.525-6.508,13.493-.293-1.053-.6-2.111-.89-3.137h0S2746.307,1350.271,2746.479,1350.022Z" transform="translate(-2675.852 -1263.133)" fill="#c9b9b3"/>
      <path id="Trazado_103195" data-name="Trazado 103195" d="M2824.093,1103.5a82.472,82.472,0,0,1-.229,11.633c-.252-1.164-.563-2.385-.882-3.55C2823.007,1111.415,2824,1104.636,2824.093,1103.5Z" transform="translate(-2747.395 -1052.921)" fill="#f57c00"/>
      <path id="Trazado_103196" data-name="Trazado 103196" d="M2704.39,860.852s8.62-.2,7.325,14.614c-1,11.385,3.19,17.009,2.6,18.668s-2.612,4.433-7.137,1.932-1.547-15.548-3.978-20.626a17.241,17.241,0,0,0-7.768-7.43S2696.371,859.365,2704.39,860.852Z" transform="translate(-2638.634 -845.87)" fill="#454442"/>
      <path id="Trazado_103197" data-name="Trazado 103197" d="M2661.276,1065.476s-2.217,7.913-2.684,9.573c-.608,2.158,2.463,5.336,4.963,4.088S2661.276,1065.476,2661.276,1065.476Z" transform="translate(-2607.152 -1020.499)" fill="#f57c00"/>
      <path id="Trazado_103198" data-name="Trazado 103198" d="M2712.6,1794.2h-.9v-3.816c-.753.063-3.286,2.46-4.07,3.154s-1.858.662-5.159.872-3.612-1.766-3.089-2.439,2.211-.967,3.089-1.386c3.531.189,7.84-4.776,9.908-4.766,1.1.006,1.089.614,1.122.73h0a.079.079,0,0,1,0,.015q.056.26.124.509C2714.2,1789.183,2712.6,1794.2,2712.6,1794.2Z" transform="translate(-2641.827 -1634.735)" fill="#f57c00"/>
      <path id="Trazado_103199" data-name="Trazado 103199" d="M2570.388,1803.774H2569.3s.362-4.1-.643-4.14-3.5,3.336-4.983,3.859-9.122.964-9.162-.443,2.933-1.969,3.857-2.371c3.149-.007,8.271-3.474,9.859-4.176a5.733,5.733,0,0,1,3.307-.28,15.786,15.786,0,0,1,.176,1.684C2571.754,1799.434,2570.388,1803.774,2570.388,1803.774Z" transform="translate(-2518.471 -1643.503)" fill="#f57c00"/>
    </g>
    <g id="Grupo_56362" data-name="Grupo 56362" transform="translate(195.807 189.95)">
      <g id="Grupo_56361" data-name="Grupo 56361" transform="translate(0)">
        <g id="Grupo_56324" data-name="Grupo 56324" transform="translate(63.138 156.024)">
          <path id="Trazado_103200" data-name="Trazado 103200" d="M999.068,1478.816s2.33,2.091,3.806,3.238,7.779,2.114,8.031,2.454c.353.477,1.4,2.875-2.907,3.162s-5.288-.779-7.461-.943-4.468.123-5.739-.861.264-6.874.264-6.874Z" transform="translate(-994.294 -1478.816)" fill="#323657"/>
        </g>
        <g id="Grupo_56325" data-name="Grupo 56325" transform="translate(63.476 162.182)">
          <path id="Trazado_103201" data-name="Trazado 103201" d="M1007.992,1522.787a10.5,10.5,0,0,0,4.594-1.015.113.113,0,1,0-.109-.2,10.581,10.581,0,0,1-7.668.494,20.11,20.11,0,0,0-5.522-.88c-1.189-.055-2.048-.095-2.51-.53a.113.113,0,1,0-.155.165c.524.492,1.418.534,2.656.592a19.9,19.9,0,0,1,5.464.868A10.707,10.707,0,0,0,1007.992,1522.787Z" transform="translate(-996.585 -1520.627)" fill="#646aac"/>
        </g>
        <g id="Grupo_56326" data-name="Grupo 56326" transform="translate(67.37 157.632)">
          <path id="Trazado_103202" data-name="Trazado 103202" d="M1023.139,1491.089a.114.114,0,0,0,.067-.023l1.517-1.127a.113.113,0,0,0-.135-.181l-1.517,1.127a.113.113,0,0,0-.024.158A.115.115,0,0,0,1023.139,1491.089Z" transform="translate(-1023.025 -1489.735)" fill="#646aac"/>
        </g>
        <g id="Grupo_56327" data-name="Grupo 56327" transform="translate(68.4 158.196)">
          <path id="Trazado_103203" data-name="Trazado 103203" d="M1030.131,1494.714a.115.115,0,0,0,.068-.022l1.245-.926a.113.113,0,1,0-.135-.182l-1.245.925a.113.113,0,0,0,.068.2Z" transform="translate(-1030.017 -1493.563)" fill="#646aac"/>
        </g>
        <g id="Grupo_56328" data-name="Grupo 56328" transform="translate(69.566 158.759)">
          <path id="Trazado_103204" data-name="Trazado 103204" d="M1038.049,1498.237a.116.116,0,0,0,.067-.022l.838-.623a.113.113,0,0,0-.135-.181l-.838.623a.113.113,0,0,0,.068.2Z" transform="translate(-1037.936 -1497.389)" fill="#646aac"/>
        </g>
        <g id="Grupo_56329" data-name="Grupo 56329" transform="translate(22.399 156.025)">
          <path id="Trazado_103205" data-name="Trazado 103205" d="M722.462,1478.822s2.356,2.09,3.831,3.237,7.779,2.114,8.031,2.454c.353.477,1.4,2.875-2.906,3.162s-5.288-.779-7.461-.942-4.469.123-5.739-.861.288-6.875.288-6.875Z" transform="translate(-717.718 -1478.822)" fill="#323657"/>
        </g>
        <g id="Grupo_56330" data-name="Grupo 56330" transform="translate(17.291 72.582)">
          <path id="Trazado_103206" data-name="Trazado 103206" d="M710.048,920.833s3.456,9.648,4.819,13.021c1.1,2.729,6.641,20.66,7.379,24.81s2.029,8.855,2.306,11.9,8.117,23.428,9.039,24.9-2.493,1.827-4.061,1c0,0-9.434-12.9-11.648-20.467s-1.17-10.875-2.462-13.181-15.85-26.856-16.679-29.069-1.583,9.147-1.859,14.588a122.691,122.691,0,0,1-2.49,17.432c-.554,1.568-2.026,26.808-1.476,29.239.5,2.192-3.5,2.18-3.788,1.494-.589-1.409-4.817-16.915-3.433-24.663a60.439,60.439,0,0,0-.066-20.827c-1.014-6.179-4.953-17.558-.539-32.575S710.048,920.833,710.048,920.833Z" transform="translate(-683.041 -912.33)" fill="#f57c00"/>
        </g>
        <g id="Grupo_56331" data-name="Grupo 56331" transform="translate(23.483 10.883)">
          <path id="Trazado_103207" data-name="Trazado 103207" d="M726.956,493.5a9.146,9.146,0,0,1,9.654,6.457c4.643,13.528-.522,19.585.461,22.721s.586,3.228.586,3.228l-4.292-4.489S720.315,503.274,726.956,493.5Z" transform="translate(-725.072 -493.458)" fill="#1c4154"/>
        </g>
        <g id="Grupo_56332" data-name="Grupo 56332" transform="translate(25.847 29.699)">
          <path id="Trazado_103208" data-name="Trazado 103208" d="M748.587,624.1s-.677,5.051.977,7.766-8.381-.665-8.381-.665.849-5.073,0-8.718S748.587,624.1,748.587,624.1Z" transform="translate(-741.121 -621.199)" fill="#eea886"/>
        </g>
        <g id="Grupo_56333" data-name="Grupo 56333" transform="translate(62.154 25.179)">
          <path id="Trazado_103209" data-name="Trazado 103209" d="M990.27,594.707s.833-3.051.264-4.034-2.921,2.8-2.921,2.8Z" transform="translate(-987.614 -590.51)" fill="#eea886"/>
        </g>
        <g id="Grupo_56336" data-name="Grupo 56336" transform="translate(16.216 80.438)">
          <g id="Grupo_56334" data-name="Grupo 56334">
            <path id="Trazado_103210" data-name="Trazado 103210" d="M677.519,965.782a1.614,1.614,0,0,0,.932.385c.73-.071,1.478-.887,2.318-.28s-.445,3.621-.986,4.009-1.979.436-3.567-1.032S677.519,965.782,677.519,965.782Z" transform="translate(-675.74 -965.664)" fill="#eea886"/>
          </g>
          <g id="Grupo_56335" data-name="Grupo 56335" transform="translate(2.433 0.031)">
            <path id="Trazado_103211" data-name="Trazado 103211" d="M694.518,965.875s1.529.358,3.193.941c1.459.511,3.054,1.363,3.067,1.679.015.351-1.539-.306-3.021-.721-1.365-.382-2.643-.646-2.643-.646a24.961,24.961,0,0,1,2.832,1.158c1.509.741,2.977,1.645,2.947,2.019-.014.182-.6.068-1.4-.177.6.279,1,.519.934.651-.333.68-4.433-.653-5.384-.957.729.238,2.943,1.055,2.45,1.345-.564.332-3.657-.8-4.936-.885S694.518,965.875,694.518,965.875Z" transform="translate(-692.256 -965.875)" fill="#eea886"/>
          </g>
        </g>
        <g id="Grupo_56337" data-name="Grupo 56337" transform="translate(54.902 3.882)">
          <path id="Trazado_103212" data-name="Trazado 103212" d="M941.411,458.053a2.817,2.817,0,1,0-1.422-4.922l1.071-7.207,18.061,2.682-1.085,7.3a2.817,2.817,0,1,0-.513,3.453l-1.085,7.3-18.061-2.683,1.07-7.207A2.808,2.808,0,0,0,941.411,458.053Z" transform="translate(-938.377 -445.924)" fill="#26ccda"/>
        </g>
        <g id="Grupo_56338" data-name="Grupo 56338" transform="translate(60.752 22.914)">
          <path id="Trazado_103213" data-name="Trazado 103213" d="M978.124,577.534a2.817,2.817,0,1,0,3.2-2.373A2.817,2.817,0,0,0,978.124,577.534Z" transform="translate(-978.093 -575.13)" fill="#26ccda"/>
        </g>
        <g id="Grupo_56339" data-name="Grupo 56339" transform="translate(64.155)">
          <path id="Trazado_103214" data-name="Trazado 103214" d="M1001.23,421.973a2.817,2.817,0,1,0,3.2-2.372A2.816,2.816,0,0,0,1001.23,421.973Z" transform="translate(-1001.199 -419.57)" fill="#26ccda"/>
        </g>
        <g id="Grupo_56340" data-name="Grupo 56340" transform="translate(19.791 12.34)">
          <path id="Trazado_103215" data-name="Trazado 103215" d="M712.923,506.456a21.709,21.709,0,0,1,3.362,11.848c-.041,7.092-6.026,6.149-9.224,4.345s-7.01-8.937-7.051-12.708S707.634,499.323,712.923,506.456Z" transform="translate(-700.009 -503.344)" fill="#eea886"/>
        </g>
        <g id="Grupo_56341" data-name="Grupo 56341" transform="translate(0 33.859)">
          <path id="Trazado_103216" data-name="Trazado 103216" d="M601.346,656.077s8.056,3.2,10.269,4.735,8.732,7.932,9.839,7.256,2.952-17.709,3.321-18.632l4.427.984s-.492,25.4-1.476,26.627-4.735.184-10.146-2.706a43.7,43.7,0,0,1-8.639-5.934,13.566,13.566,0,0,1-.112,6.937c-1.649,4.562-1.826,5.043-1.293,9.061.447,3.373,2.773,11.642,2.411,12.257s-13.214,2.4-24.959-2.4c0,0-.676-.369,0-2.337s3.32-5.657,2.091-11.5-2.623-12.5-4.14-10.9c-.568.6-8.9,10.351-9.266,12.319S583.7,695.617,583.7,695.986s-1.337,1.8-2.029,3.321c0,0-15.188-13.1-15.988-15.8s13.836-22.26,15-23.613,8.978-4.489,10.023-4.612S601.346,656.077,601.346,656.077Z" transform="translate(-565.649 -649.436)" fill="#e6c532"/>
        </g>
        <g id="Grupo_56342" data-name="Grupo 56342" transform="translate(58.658 23.049)">
          <path id="Trazado_103217" data-name="Trazado 103217" d="M964.744,586.949s.776-3.684.175-4.147c-.933-.718-1.4-2.482-.715-3.2a33.956,33.956,0,0,0,2.4-3.331c.672-.778.674.559-.341,2.855-.551,1.246,2.375,2.27,3.482,2.557s-.866,2.347-.968,3.331-.369,2.746-.369,2.746Z" transform="translate(-963.879 -576.051)" fill="#eea886"/>
        </g>
        <g id="Grupo_56343" data-name="Grupo 56343" transform="translate(19.526 11.92)">
          <path id="Trazado_103218" data-name="Trazado 103218" d="M707.617,504.6a12.411,12.411,0,0,1-6.7,10.185s-3.714-1.884-2.443-8.709,9.326-5.473,9.7-5.473,5.411,4.181,6.026,7.748a26.187,26.187,0,0,1,.554,3.812S712.106,506.138,707.617,504.6Z" transform="translate(-698.21 -500.494)" fill="#1c4154"/>
        </g>
        <g id="Grupo_56344" data-name="Grupo 56344" transform="translate(62.6 28.111)">
          <path id="Trazado_103219" data-name="Trazado 103219" d="M991.68,612.117l.149-.022a3.06,3.06,0,0,0-1.1-1.679l-.092.119A2.966,2.966,0,0,1,991.68,612.117Z" transform="translate(-990.641 -610.417)" fill="#bc856b"/>
        </g>
        <g id="Grupo_56345" data-name="Grupo 56345" transform="translate(24.972 36.299)">
          <path id="Trazado_103220" data-name="Trazado 103220" d="M745.91,670.2s.226-2.214.37-2.623-5.357-.968-6.662-1.189c-1.258-.213-4.263-.615-4.386-.226a27.145,27.145,0,0,0,.041,3.239S743.614,671.719,745.91,670.2Z" transform="translate(-735.185 -666.001)" fill="#cbdacd"/>
        </g>
        <g id="Grupo_56346" data-name="Grupo 56346" transform="translate(16.08 10.922)">
          <path id="Trazado_103221" data-name="Trazado 103221" d="M684.1,493.722s-7.807.984-5.841,12.421-4.613,17.894-3.26,21.768,5.842,3.013,7.81,0-.086-3.5,1.833-5.409,1.618-6.808-.418-9.37S679.432,508.6,684.1,493.722Z" transform="translate(-674.819 -493.722)" fill="#1c4154"/>
        </g>
        <g id="Grupo_56347" data-name="Grupo 56347" transform="translate(22.732 162.182)">
          <path id="Trazado_103222" data-name="Trazado 103222" d="M731.383,1522.787a10.5,10.5,0,0,0,4.594-1.015.113.113,0,0,0-.109-.2,10.581,10.581,0,0,1-7.668.494,20.112,20.112,0,0,0-5.522-.88c-1.189-.055-2.049-.095-2.511-.53a.113.113,0,1,0-.155.165c.523.492,1.418.534,2.656.592a19.9,19.9,0,0,1,5.463.868A10.708,10.708,0,0,0,731.383,1522.787Z" transform="translate(-719.976 -1520.627)" fill="#646aac"/>
        </g>
        <g id="Grupo_56348" data-name="Grupo 56348" transform="translate(26.626 157.632)">
          <path id="Trazado_103223" data-name="Trazado 103223" d="M746.529,1491.089a.113.113,0,0,0,.067-.023l1.517-1.127a.113.113,0,1,0-.135-.181l-1.517,1.127a.113.113,0,0,0-.023.158A.115.115,0,0,0,746.529,1491.089Z" transform="translate(-746.416 -1489.735)" fill="#646aac"/>
        </g>
        <g id="Grupo_56349" data-name="Grupo 56349" transform="translate(27.656 158.196)">
          <path id="Trazado_103224" data-name="Trazado 103224" d="M753.521,1494.714a.113.113,0,0,0,.067-.022l1.245-.926a.113.113,0,1,0-.135-.182l-1.245.925a.113.113,0,0,0,.067.2Z" transform="translate(-753.408 -1493.563)" fill="#646aac"/>
        </g>
        <g id="Grupo_56350" data-name="Grupo 56350" transform="translate(28.823 158.759)">
          <path id="Trazado_103225" data-name="Trazado 103225" d="M761.44,1498.237a.115.115,0,0,0,.067-.022l.837-.623a.113.113,0,0,0-.135-.181l-.837.623a.113.113,0,0,0,.068.2Z" transform="translate(-761.326 -1497.389)" fill="#646aac"/>
        </g>
        <g id="Grupo_56351" data-name="Grupo 56351" transform="translate(33.439 84.284)">
          <path id="Trazado_103226" data-name="Trazado 103226" d="M792.757,1000.9c2.867-.87,5.082-3.273,6.435-5.137a22.834,22.834,0,0,0,2.268-3.864l-.277-.12c-.031.072-3.173,7.211-8.514,8.832Z" transform="translate(-792.669 -991.774)" fill="#f57c00"/>
        </g>
        <g id="Grupo_56352" data-name="Grupo 56352" transform="translate(34.391 86.087)">
          <path id="Trazado_103227" data-name="Trazado 103227" d="M799.347,1010.913c.177-.18,4.349-4.43,5.008-6.817l-.291-.081c-.638,2.313-4.889,6.642-4.932,6.686Z" transform="translate(-799.132 -1004.015)" fill="#f57c00"/>
        </g>
        <g id="Grupo_56353" data-name="Grupo 56353" transform="translate(40.66 46.915)">
          <path id="Trazado_103228" data-name="Trazado 103228" d="M843.873,743.375l.3-.055c-.026-.142-.652-3.507-2.262-5.241l-.221.206C843.238,739.954,843.867,743.34,843.873,743.375Z" transform="translate(-841.687 -738.079)" fill="#c7ab2d"/>
        </g>
        <g id="Grupo_56354" data-name="Grupo 56354" transform="translate(40.121 48.039)">
          <path id="Trazado_103229" data-name="Trazado 103229" d="M840.605,749.191l.263-.149a13.909,13.909,0,0,0-2.648-3.332l-.192.233A13.869,13.869,0,0,1,840.605,749.191Z" transform="translate(-838.028 -745.71)" fill="#c7ab2d"/>
        </g>
        <g id="Grupo_56355" data-name="Grupo 56355" transform="translate(24.47 60.432)">
          <path id="Trazado_103230" data-name="Trazado 103230" d="M731.907,832.03c5.584-2.746,14.756-1.688,14.848-1.677l.036-.3c-.093-.011-9.354-1.079-15.017,1.706Z" transform="translate(-731.774 -829.843)" fill="#c7ab2d"/>
        </g>
        <g id="Grupo_56356" data-name="Grupo 56356" transform="translate(26.199 61.258)">
          <path id="Trazado_103231" data-name="Trazado 103231" d="M743.562,836.139a33,33,0,0,1,9.728,0l.061-.3a33.387,33.387,0,0,0-9.836,0Z" transform="translate(-743.515 -835.453)" fill="#c7ab2d"/>
        </g>
        <g id="Grupo_56357" data-name="Grupo 56357" transform="translate(4.201 65.682)">
          <path id="Trazado_103232" data-name="Trazado 103232" d="M594.356,866.287c.961-.769,3.016-.423,3.036-.42l.051-.3c-.09-.015-2.211-.371-3.277.482Z" transform="translate(-594.167 -865.484)" fill="#c7ab2d"/>
        </g>
        <g id="Grupo_56358" data-name="Grupo 56358" transform="translate(4.926 65.701)">
          <path id="Trazado_103233" data-name="Trazado 103233" d="M599.387,867.865a3.5,3.5,0,0,1,1.675-1.987l-.141-.267a3.742,3.742,0,0,0-1.83,2.2Z" transform="translate(-599.09 -865.612)" fill="#c7ab2d"/>
        </g>
        <g id="Grupo_56359" data-name="Grupo 56359" transform="translate(26.576 31.419)">
          <path id="Trazado_103234" data-name="Trazado 103234" d="M750.94,634.528a4.049,4.049,0,0,0,1.46-.218l-.087-.209c-.022.009-2.276.9-6.133-1.229l-.109.2A10.181,10.181,0,0,0,750.94,634.528Z" transform="translate(-746.071 -632.872)" fill="#1c4154"/>
        </g>
        <g id="Grupo_56360" data-name="Grupo 56360" transform="translate(60.282 25.924)">
          <path id="Trazado_103235" data-name="Trazado 103235" d="M975.75,595.568a8.273,8.273,0,0,1,.739,2.155c-.063.453-1.584-1.308-1.584-1.308Z" transform="translate(-974.905 -595.568)" fill="#eea886"/>
        </g>
      </g>
    </g>
    <g id="Grupo_56392" data-name="Grupo 56392" transform="translate(252.793 150.285)">
      <g id="Grupo_56391" data-name="Grupo 56391" transform="translate(0 0)">
        <g id="Grupo_56363" data-name="Grupo 56363" transform="translate(42.371 75.989)">
          <path id="Trazado_103236" data-name="Trazado 103236" d="M1309.08,714.169a10.834,10.834,0,1,1,7.877-18.272V666.174h-32.005a10.834,10.834,0,1,1-12.757,0H1240.19V740.5h32.18a10.834,10.834,0,1,1,12.406,0h32.181V710.772A10.8,10.8,0,0,1,1309.08,714.169Z" transform="translate(-1240.19 -666.174)" fill="#26ccda"/>
        </g>
        <g id="Grupo_56364" data-name="Grupo 56364" transform="translate(25.351 102.316)">
          <path id="Trazado_103237" data-name="Trazado 103237" d="M1146.3,855.74a10.834,10.834,0,1,1-10.834-10.834A10.834,10.834,0,0,1,1146.3,855.74Z" transform="translate(-1124.635 -844.906)" fill="#26ccda"/>
        </g>
        <g id="Grupo_56365" data-name="Grupo 56365" transform="translate(92.53 71.603)">
          <path id="Trazado_103238" data-name="Trazado 103238" d="M1585.089,638.228s.015,0,.734.123,2.57-.528,3.248-.288,4.567,2.153,4.751,2.626-8.223.455-10.189-.21c-1.368-.463-2-2.163-2.828-3.663C1580,635.354,1585.089,638.228,1585.089,638.228Z" transform="translate(-1580.72 -636.401)" fill="#eea886"/>
        </g>
        <g id="Grupo_56366" data-name="Grupo 56366" transform="translate(27.061 28.861)">
          <path id="Trazado_103239" data-name="Trazado 103239" d="M1140.142,347.334l-1.344-1.11s-2.709.771-2.544,2.622l2.023,2.428Z" transform="translate(-1136.247 -346.224)" fill="#eea886"/>
        </g>
        <g id="Grupo_56367" data-name="Grupo 56367" transform="translate(33.065 108.703)">
          <path id="Trazado_103240" data-name="Trazado 103240" d="M1186.518,888.383a33.491,33.491,0,0,1-2.659,4.519c-1.288,1.7-6.743,2.686-6.853,3.892s6.962,1.247,9.511.233,5.729-.178,5.866-1.494-1.425-7.265-1.425-7.265Z" transform="translate(-1177.006 -888.27)" fill="#272a45"/>
        </g>
        <g id="Grupo_56368" data-name="Grupo 56368" transform="translate(53.682 108.731)">
          <path id="Trazado_103241" data-name="Trazado 103241" d="M1323.947,890.319s-.688,2.565-1.456,4.555-5.737,4.446-5.509,5.636,7.483-.859,9.652-2.539,5.009-1.623,4.777-2.925-3.379-6.587-3.379-6.587Z" transform="translate(-1316.974 -888.459)" fill="#323657"/>
        </g>
        <g id="Grupo_56369" data-name="Grupo 56369" transform="translate(42.577 107.613)">
          <path id="Trazado_103242" data-name="Trazado 103242" d="M1241.587,880.868v1.2s2.652.956,4.441-.113l-.128-1.09Z" transform="translate(-1241.587 -880.868)" fill="#eea886"/>
        </g>
        <g id="Grupo_56370" data-name="Grupo 56370" transform="translate(60.171 107.718)">
          <path id="Trazado_103243" data-name="Trazado 103243" d="M1361.032,882.775l.483,1.68a5.283,5.283,0,0,0,4.086-1.86l-.424-1.013Z" transform="translate(-1361.032 -881.583)" fill="#eea886"/>
        </g>
        <g id="Grupo_56371" data-name="Grupo 56371" transform="translate(34.819 60.243)">
          <path id="Trazado_103244" data-name="Trazado 103244" d="M1210.214,559.287s-21.187,8.4-21.3,10.592,7.839,33.387,7.4,36.622a6.227,6.227,0,0,0,4.989,0s-.547-15.076-1.1-20.942a32.841,32.841,0,0,1,.493-10.032l26.57-12.107S1221.478,559,1210.214,559.287Z" transform="translate(-1188.916 -559.274)" fill="#e8e8e8"/>
        </g>
        <g id="Grupo_56372" data-name="Grupo 56372" transform="translate(44.213 58.417)">
          <path id="Trazado_103245" data-name="Trazado 103245" d="M1283.292,546.878a13.732,13.732,0,0,1,3.371,11.17c-.822,7.182-11.073,6.359-11.073,6.359h-11.129a58.759,58.759,0,0,1,4.221,13.925c.877,6.579,4.44,17.927,4.44,17.927s-2.357,2.138-4.605,1.919c0,0-11.4-25-12.279-26.534s-4.825-11.129-3.125-12.554,12.116-7.82,17.159-8.954S1283.292,546.878,1283.292,546.878Z" transform="translate(-1252.693 -546.878)" fill="#f6f6f6"/>
        </g>
        <g id="Grupo_56373" data-name="Grupo 56373" transform="translate(56.574)">
          <path id="Trazado_103246" data-name="Trazado 103246" d="M1347.917,150.357s4.934-.6,6.36,3.892,2.138,15.46,4.276,16.886-6.319,1.881-9.573.255-10.725.549-11.6.768S1333.937,148.822,1347.917,150.357Z" transform="translate(-1336.613 -150.285)" fill="#1c4154"/>
        </g>
        <g id="Grupo_56374" data-name="Grupo 56374" transform="translate(20.028 24.671)">
          <path id="Trazado_103247" data-name="Trazado 103247" d="M1090.9,321s-2.285-1.823-2.4-2.866,3.7.5,3.7.5Z" transform="translate(-1088.503 -317.774)" fill="#eea886"/>
        </g>
        <g id="Grupo_56375" data-name="Grupo 56375" transform="translate(0 2.618)">
          <path id="Trazado_103248" data-name="Trazado 103248" d="M972.792,178.3a2.869,2.869,0,1,1-1.751-4.915l-5.17-5.324L952.53,181.014l5.24,5.4a2.869,2.869,0,1,1,2.476,2.551l5.24,5.4L978.827,181.4l-5.169-5.324A2.861,2.861,0,0,1,972.792,178.3Z" transform="translate(-952.53 -168.059)" fill="#fdd835"/>
        </g>
        <g id="Grupo_56376" data-name="Grupo 56376" transform="translate(18.513 21.375)">
          <path id="Trazado_103249" data-name="Trazado 103249" d="M1083.14,296.272a2.869,2.869,0,1,1-4.057-.059A2.87,2.87,0,0,1,1083.14,296.272Z" transform="translate(-1078.213 -295.402)" fill="#fdd835"/>
        </g>
        <g id="Grupo_56377" data-name="Grupo 56377" transform="translate(2.076 4.45)">
          <path id="Trazado_103250" data-name="Trazado 103250" d="M971.553,181.366a2.869,2.869,0,1,1-4.057-.059A2.869,2.869,0,0,1,971.553,181.366Z" transform="translate(-966.626 -180.496)" fill="#fdd835"/>
        </g>
        <g id="Grupo_56378" data-name="Grupo 56378" transform="translate(21.291 20.876)">
          <path id="Trazado_103251" data-name="Trazado 103251" d="M1105.4,299.995s-2.4-2.083-2.177-2.823c.344-1.148-.755-3.612-1.743-3.8a34.537,34.537,0,0,1-3.963-1.329c-1.019-.244-.226.863,1.978,2.158,1.2.7-.615,3.289-1.359,4.185s2.111,1.426,2.781,2.178,1.939,2.053,1.939,2.053Z" transform="translate(-1097.075 -292.009)" fill="#eea886"/>
        </g>
        <g id="Grupo_56379" data-name="Grupo 56379" transform="translate(23.394 25.693)">
          <path id="Trazado_103252" data-name="Trazado 103252" d="M1111.576,326.751a3.1,3.1,0,0,1-.09-2.035l.133.04a3.028,3.028,0,0,0,.081,1.931Z" transform="translate(-1111.35 -324.716)" fill="#bc856b"/>
        </g>
        <g id="Grupo_56380" data-name="Grupo 56380" transform="translate(58.337 1.391)">
          <path id="Trazado_103253" data-name="Trazado 103253" d="M1351.543,162.413s-5.428,5.373-1.59,14.637,11.732-4.5,12.774-7.4S1361.136,154.354,1351.543,162.413Z" transform="translate(-1348.58 -159.73)" fill="#eea886"/>
        </g>
        <g id="Grupo_56381" data-name="Grupo 56381" transform="translate(28.063 23.371)">
          <path id="Trazado_103254" data-name="Trazado 103254" d="M1177.26,309.226s-6.7,2.055-9.867,5.58c-2.942,3.269-10.567,11.06-11.348,10.978s-9.58-10.58-9.785-10.539-3.207,3.878-3.207,3.878,12.554,14.953,13.829,14.83,9.4-7.675,9.4-7.675a26.726,26.726,0,0,0,2.837,5.962,30.4,30.4,0,0,0,1.069,4.728c.577,1.439.21,8.387.786,8.922s15.907,2.221,18.826-1.89c0,0-2.1-2.508-2.262-4.153s.864-10.69,3.865-13.322c0,0,4.345,11.869,4.948,13.349s10.729,18.64,11.167,18.969,4.967.305,4.911-.188-10.047-19.219-10.486-20.7-6.616-22.635-8.169-24.341-9.266-4.66-9.266-4.66Z" transform="translate(-1143.052 -308.954)" fill="#f57c00"/>
        </g>
        <g id="Grupo_56382" data-name="Grupo 56382" transform="translate(61.663 15.625)">
          <path id="Trazado_103255" data-name="Trazado 103255" d="M1371.357,262.291a4.72,4.72,0,0,1,.411,2.091s-1.029,7.636-.411,8.417,7.388-6.277,7.662-8.689a8.959,8.959,0,0,1,0-6.736C1380.444,253.433,1371.357,262.291,1371.357,262.291Z" transform="translate(-1371.159 -256.364)" fill="#eea886"/>
        </g>
        <g id="Grupo_56383" data-name="Grupo 56383" transform="translate(57.79 0.517)">
          <path id="Trazado_103256" data-name="Trazado 103256" d="M1347.5,161.352s-.6,2.891,7.072,3.556a3.741,3.741,0,0,1,2.9,3.677c.225,3.238,3.429-3.565,2.692-7.836-.823-4.77-3.412-7.349-7.017-6.908-8.223,1.006-8.279,11.321-8.279,11.321A44.735,44.735,0,0,0,1347.5,161.352Z" transform="translate(-1344.869 -153.792)" fill="#1c4154"/>
        </g>
        <g id="Grupo_56384" data-name="Grupo 56384" transform="translate(51.158 71.734)">
          <path id="Trazado_103257" data-name="Trazado 103257" d="M1304.22,641.066a10.284,10.284,0,0,0-4.376-3.523l.108-.257a10.583,10.583,0,0,1,4.5,3.631Z" transform="translate(-1299.844 -637.286)" fill="#b3c1b5"/>
        </g>
        <g id="Grupo_56385" data-name="Grupo 56385" transform="translate(53.326 71.114)">
          <path id="Trazado_103258" data-name="Trazado 103258" d="M1316.452,636.926l-.134-.05.107-.089-.031-.134a.131.131,0,0,0-.1.091c0-.012.084-1.349-1.736-3.484l.212-.181c1.8,2.115,1.854,3.571,1.789,3.751A.144.144,0,0,1,1316.452,636.926Z" transform="translate(-1314.563 -633.079)" fill="#b3c1b5"/>
        </g>
        <g id="Grupo_56386" data-name="Grupo 56386" transform="translate(56.84 44.763)">
          <path id="Trazado_103259" data-name="Trazado 103259" d="M1338.59,455.362l-.175-.217c.064-.052,1.677-1.262,11.647-.895l-.011.279C1340.184,454.165,1338.605,455.35,1338.59,455.362Z" transform="translate(-1338.415 -454.181)" fill="#f57c00"/>
        </g>
        <g id="Grupo_56387" data-name="Grupo 56387" transform="translate(58.659 44.193)">
          <path id="Trazado_103260" data-name="Trazado 103260" d="M1359.74,451.2a40.338,40.338,0,0,0-8.957-.546l-.018-.278a40.632,40.632,0,0,1,9.028.551Z" transform="translate(-1350.765 -450.31)" fill="#f57c00"/>
        </g>
        <g id="Grupo_56388" data-name="Grupo 56388" transform="translate(50.672 33.864)">
          <path id="Trazado_103261" data-name="Trazado 103261" d="M1296.987,386.643c-.041-.151-.988-3.733,0-6.457l.262.1c-.96,2.64-.006,6.253,0,6.289Z" transform="translate(-1296.54 -380.186)" fill="#f57c00"/>
        </g>
        <g id="Grupo_56389" data-name="Grupo 56389" transform="translate(50.951 35.631)">
          <path id="Trazado_103262" data-name="Trazado 103262" d="M1298.716,396.108l-.278-.026c.011-.126.3-3.1.977-3.9l.213.18C1299.005,393.1,1298.718,396.078,1298.716,396.108Z" transform="translate(-1298.438 -392.181)" fill="#f57c00"/>
        </g>
        <g id="Grupo_56390" data-name="Grupo 56390" transform="translate(63.007 18.232)">
          <path id="Trazado_103263" data-name="Trazado 103263" d="M1380.556,277.825a1.567,1.567,0,0,1-.272-.019l.038-.206c.025,0,2.478.4,5.152-3.538l.173.118a8.546,8.546,0,0,1-3.708,3.349A3.75,3.75,0,0,1,1380.556,277.825Z" transform="translate(-1380.284 -274.062)" fill="#c58c71"/>
        </g>
      </g>
    </g>
    <g id="Grupo_56439" data-name="Grupo 56439" transform="translate(367.279 192.019)">
      <g id="Grupo_56438" data-name="Grupo 56438">
        <g id="Grupo_56393" data-name="Grupo 56393" transform="translate(71.94 9.885)">
          <path id="Trazado_103264" data-name="Trazado 103264" d="M2218.635,500.9s5.224-1.139,6.712,2.443c1.376,3.313-.072,8.03-4.383,7.441S2218.635,500.9,2218.635,500.9Z" transform="translate(-2218.18 -500.726)" fill="#454442"/>
        </g>
        <g id="Grupo_56394" data-name="Grupo 56394" transform="translate(25.866 65.327)">
          <path id="Trazado_103265" data-name="Trazado 103265" d="M1931.124,883.366s-5.086,17.71-6.714,20.295-6.894,21.446-7.659,25.755-2.107,9.191-2.394,12.351-7.847,23.1-8.8,24.632,2.415,1.477,4.042.616c0,0,9.2-11.085,11.5-18.935s1.4-11.962,2.738-14.355,16.453-27.877,17.314-30.175,1.643,9.494,1.93,15.143,2.011,16.467,2.586,18.095,2.114,13.229.669,28.151c-.225,2.321,3.085,2.815,3.383,2.1.612-1.462,6.211-19.62,4.775-27.663s-.784-11.494.268-17.909,4.492-21.574-.09-37.163S1931.124,883.366,1931.124,883.366Z" transform="translate(-1905.385 -877.125)" fill="#eea886"/>
        </g>
        <g id="Grupo_56395" data-name="Grupo 56395" transform="translate(40.743 71.101)">
          <path id="Trazado_103266" data-name="Trazado 103266" d="M2040.309,916.323s7,15.363,1.363,38.153c0,0-26.242-5.248-35.287-7.01l10.652-30.362Z" transform="translate(-2006.385 -916.323)" fill="#24a8b4"/>
        </g>
        <g id="Grupo_56397" data-name="Grupo 56397" transform="translate(89.968)">
          <g id="Grupo_56396" data-name="Grupo 56396">
            <path id="Trazado_103267" data-name="Trazado 103267" d="M2341.944,445.068s.915-1.978.619-2.545a18.767,18.767,0,0,1-.852-2.277c-.179-.561-1.142-1.921-1.141-2.551a18.063,18.063,0,0,0,.505-2.33c-.049-.527-.262-1.586.138-1.6s.817.891.817.891-.019-.481.324-.616a.9.9,0,0,1,1,.1s.261-.49.567-.517a1.184,1.184,0,0,1,.989.3s.477-.321.766-.177c.853.426.814.726.814.726s.753-.071.954.366a4.805,4.805,0,0,1,.275,1.227,17.267,17.267,0,0,1-1.31,6.139,12.247,12.247,0,0,0-1.094,4.517Z" transform="translate(-2340.57 -433.617)" fill="#eea886"/>
          </g>
        </g>
        <g id="Grupo_56399" data-name="Grupo 56399" transform="translate(91.385 1.358)">
          <g id="Grupo_56398" data-name="Grupo 56398">
            <path id="Trazado_103268" data-name="Trazado 103268" d="M2351.07,446.52a.451.451,0,0,1-.4-.08c-.34-.248-.468-1.247-.481-1.36v-.009l.024-2.234.15,0-.024,2.229c.035.293.178,1.075.42,1.252a.3.3,0,0,0,.324.034.362.362,0,0,0,.2-.243l.151,0a.5.5,0,0,1-.285.373A.565.565,0,0,1,2351.07,446.52Z" transform="translate(-2350.191 -442.836)" fill="#f57c00"/>
          </g>
        </g>
        <g id="Grupo_56401" data-name="Grupo 56401" transform="translate(92.372 1.067)">
          <g id="Grupo_56400" data-name="Grupo 56400">
            <path id="Trazado_103269" data-name="Trazado 103269" d="M2357.85,444.96a.58.58,0,0,1-.144.021.678.678,0,0,1-.529-.233,6.072,6.072,0,0,1-.286-1.7,20.62,20.62,0,0,1,.4-2.191l.146.033a21.746,21.746,0,0,0-.393,2.154,6.341,6.341,0,0,0,.257,1.611.531.531,0,0,0,.4.172.423.423,0,0,0,.353-.2l.124.084A.58.58,0,0,1,2357.85,444.96Z" transform="translate(-2356.89 -440.86)" fill="#f57c00"/>
          </g>
        </g>
        <g id="Grupo_56403" data-name="Grupo 56403" transform="translate(93.552 0.988)">
          <g id="Grupo_56402" data-name="Grupo 56402">
            <path id="Trazado_103270" data-name="Trazado 103270" d="M2365.557,444.49a.574.574,0,0,1-.329-.012c-.449-.139-.324-.9-.241-1.4a2.388,2.388,0,0,0,.039-.289c0-.283.417-2.379.434-2.468l.147.029c-.148.75-.429,2.225-.43,2.44a2.631,2.631,0,0,1-.041.311c-.064.4-.186,1.131.136,1.231.406.125.595-.274.739-.724a9.191,9.191,0,0,0,.217-1.27l.006-.02.526-1.312.14.056-.523,1.3a9.048,9.048,0,0,1-.221,1.29C2366.078,443.894,2365.92,444.387,2365.557,444.49Z" transform="translate(-2364.905 -440.322)" fill="#f57c00"/>
          </g>
        </g>
        <g id="Grupo_56405" data-name="Grupo 56405" transform="translate(94.686 1.837)">
          <g id="Grupo_56404" data-name="Grupo 56404">
            <path id="Trazado_103271" data-name="Trazado 103271" d="M2373.031,448.782a.3.3,0,0,1-.246-.026.462.462,0,0,1-.181-.306l.149-.022-.075.011.075-.011a.312.312,0,0,0,.111.2.159.159,0,0,0,.139.006c.237-.08.491-.751.531-1a9.6,9.6,0,0,1,.849-1.445l.067-.1.059.1a2.589,2.589,0,0,1,.225,1.322l-.151-.005a2.929,2.929,0,0,0-.151-1.124,8.556,8.556,0,0,0-.75,1.272c-.037.231-.3,1.009-.631,1.121Z" transform="translate(-2372.604 -446.087)" fill="#f57c00"/>
          </g>
        </g>
        <g id="Grupo_56407" data-name="Grupo 56407" transform="translate(92.445 4.737)">
          <g id="Grupo_56406" data-name="Grupo 56406">
            <path id="Trazado_103272" data-name="Trazado 103272" d="M2358.945,467.5a5.476,5.476,0,0,0-1.555-1.6l.083-.125a5.533,5.533,0,0,1,1.608,1.655Z" transform="translate(-2357.39 -465.775)" fill="#f57c00"/>
          </g>
        </g>
        <g id="Grupo_56409" data-name="Grupo 56409" transform="translate(91.086 2.942)">
          <g id="Grupo_56408" data-name="Grupo 56408">
            <path id="Trazado_103273" data-name="Trazado 103273" d="M2348.276,454.289l-.118-.095a1.374,1.374,0,0,0,.306-.6h.15A1.541,1.541,0,0,1,2348.276,454.289Z" transform="translate(-2348.158 -453.591)" fill="#f57c00"/>
          </g>
        </g>
        <g id="Grupo_56411" data-name="Grupo 56411" transform="translate(91.66 2.954)">
          <g id="Grupo_56410" data-name="Grupo 56410">
            <path id="Trazado_103274" data-name="Trazado 103274" d="M2352.7,453.955l-.641-.133.031-.147.642.133Z" transform="translate(-2352.055 -453.675)" fill="#f57c00"/>
          </g>
        </g>
        <g id="Grupo_56413" data-name="Grupo 56413" transform="translate(92.702 3.239)">
          <g id="Grupo_56412" data-name="Grupo 56412">
            <path id="Trazado_103275" data-name="Trazado 103275" d="M2359.994,455.778l-.863-.019,0-.151.861.019Z" transform="translate(-2359.132 -455.608)" fill="#f57c00"/>
          </g>
        </g>
        <g id="Grupo_56415" data-name="Grupo 56415" transform="translate(93.981 3.153)">
          <g id="Grupo_56414" data-name="Grupo 56414" transform="translate(0 0)">
            <rect id="Rectángulo_9410" data-name="Rectángulo 9410" width="0.151" height="0.71" transform="translate(0 0.15) rotate(-85.356)" fill="#f57c00"/>
          </g>
        </g>
        <g id="Grupo_56417" data-name="Grupo 56417" transform="translate(95.057 3.042)">
          <g id="Grupo_56416" data-name="Grupo 56416" transform="translate(0 0)">
            <rect id="Rectángulo_9411" data-name="Rectángulo 9411" width="0.151" height="0.531" transform="translate(0 0.146) rotate(-76.575)" fill="#f57c00"/>
          </g>
        </g>
        <g id="Grupo_56418" data-name="Grupo 56418" transform="translate(24.244 9.753)">
          <path id="Trazado_103276" data-name="Trazado 103276" d="M1930.408,526.157s-7.767,2-10.065,3.593-11.12,9.693-12.268,8.991-9.446-16.866-9.829-17.823l-3.877,1.514s8.012,23.055,9.033,24.332,3.078,1.489,8.694-1.511a45.374,45.374,0,0,0,8.968-6.159s-1.046,3.989.116,7.2c1.712,4.735,1.9,5.235,1.342,9.406-.465,3.5-1.378,5.62-1,6.258s11.084,4.2,23.275-.776c0,0,.488-.44-.214-2.483s-1.656-1.813-1.123-4.573c1.174-6.085,2.611-17.165,4.013-18.384.646-.562,12.727-11.05,14.963-12.821,1.628-1.29,3.426-22.355,3.311-22.418-.191-.1-1.645-1.278-4.543-.261,0,0-1.786,16.609-4.228,18.224-4.064,2.685-10.32,6.469-12.114,6.944a13.357,13.357,0,0,1-4.869.056C1938.905,525.337,1930.408,526.157,1930.408,526.157Z" transform="translate(-1894.368 -499.828)" fill="#e8e8e8"/>
        </g>
        <g id="Grupo_56419" data-name="Grupo 56419" transform="translate(6.126 1.224)">
          <path id="Trazado_103277" data-name="Trazado 103277" d="M1796.157,459.2a3.9,3.9,0,1,1,2.834-6.576v-10.7h-11.518a3.9,3.9,0,1,1-4.591,0h-11.518v26.747h11.581a3.9,3.9,0,1,1,4.465,0h11.581v-10.7A3.887,3.887,0,0,1,1796.157,459.2Z" transform="translate(-1771.364 -441.925)" fill="#f57c00"/>
        </g>
        <g id="Grupo_56420" data-name="Grupo 56420" transform="translate(0 10.698)">
          <path id="Trazado_103278" data-name="Trazado 103278" d="M1737.575,510.146a3.9,3.9,0,1,1-3.9-3.9A3.9,3.9,0,0,1,1737.575,510.146Z" transform="translate(-1729.777 -506.246)" fill="#f57c00"/>
        </g>
        <g id="Grupo_56421" data-name="Grupo 56421" transform="translate(13.879 155.139)">
          <path id="Trazado_103279" data-name="Trazado 103279" d="M1828.716,1490.488s-4.54.863-4.7,1.806.842,1.865,1.945,2.206,6.537.4,7.339-.16,4.532-4.291,5.114-3.489.381,3.569.381,3.569,1,.321,1.424-.1a13.734,13.734,0,0,1,.241-3.208,7.331,7.331,0,0,0-.241-4.151C1839.757,1486.138,1828.716,1490.488,1828.716,1490.488Z" transform="translate(-1823.999 -1486.856)" fill="#515154"/>
        </g>
        <g id="Grupo_56422" data-name="Grupo 56422" transform="translate(60.093 25.008)">
          <path id="Trazado_103280" data-name="Trazado 103280" d="M2138.953,606.406s.7,5.243-1.015,8.061,8.7-.69,8.7-.69-.881-5.266,0-9.049S2138.953,606.406,2138.953,606.406Z" transform="translate(-2137.747 -603.393)" fill="#eea886"/>
        </g>
        <g id="Grupo_56423" data-name="Grupo 56423" transform="translate(58.439 8.814)">
          <path id="Trazado_103281" data-name="Trazado 103281" d="M2130.009,496.683a22.541,22.541,0,0,0-3.49,12.3c.043,7.362,6.256,6.383,9.574,4.511s7.277-9.277,7.319-13.191S2135.5,489.279,2130.009,496.683Z" transform="translate(-2126.519 -493.453)" fill="#eea886"/>
        </g>
        <g id="Grupo_56424" data-name="Grupo 56424" transform="translate(52.045 81.669)">
          <path id="Trazado_103282" data-name="Trazado 103282" d="M2092.14,997.533c-2.976-.9-5.274-3.4-6.677-5.331a23.775,23.775,0,0,1-2.355-4.011l.279-.121a23.436,23.436,0,0,0,2.325,3.958c1.376,1.894,3.624,4.335,6.515,5.212Z" transform="translate(-2083.108 -988.071)" fill="#515154"/>
        </g>
        <g id="Grupo_56425" data-name="Grupo 56425" transform="translate(54.761 83.54)">
          <path id="Trazado_103283" data-name="Trazado 103283" d="M2106.75,1007.929c-.184-.186-4.514-4.6-5.2-7.075l.293-.08c.662,2.4,5.076,6.9,5.121,6.942Z" transform="translate(-2101.553 -1000.773)" fill="#515154"/>
        </g>
        <g id="Grupo_56426" data-name="Grupo 56426" transform="translate(51.136 42.907)">
          <path id="Trazado_103284" data-name="Trazado 103284" d="M2077.164,730.373l-.225-.041c.027-.147.674-3.628,2.338-5.419l.167.156C2077.826,726.81,2077.17,730.337,2077.164,730.373Z" transform="translate(-2076.939 -724.913)" fill="#5a619e"/>
        </g>
        <g id="Grupo_56427" data-name="Grupo 56427" transform="translate(51.32 44.077)">
          <path id="Trazado_103285" data-name="Trazado 103285" d="M2078.391,736.418l-.2-.112a14.678,14.678,0,0,1,2.739-3.447l.145.176A14.426,14.426,0,0,0,2078.391,736.418Z" transform="translate(-2078.192 -732.859)" fill="#5a619e"/>
        </g>
        <g id="Grupo_56428" data-name="Grupo 56428" transform="translate(54.894 56.951)">
          <path id="Trazado_103286" data-name="Trazado 103286" d="M2117.919,822.445c-5.806-2.856-15.341-1.756-15.437-1.745l-.027-.227c.1-.012,9.7-1.12,15.564,1.766Z" transform="translate(-2102.456 -820.255)" fill="#5a619e"/>
        </g>
        <g id="Grupo_56429" data-name="Grupo 56429" transform="translate(58.48 57.809)">
          <path id="Trazado_103287" data-name="Trazado 103287" d="M2136.957,826.708c-.058-.009-5.843-.893-10.113,0l-.047-.223c4.312-.9,10.137-.01,10.2,0Z" transform="translate(-2126.797 -826.081)" fill="#5a619e"/>
        </g>
        <g id="Grupo_56430" data-name="Grupo 56430" transform="translate(61.722 28.621)">
          <path id="Trazado_103288" data-name="Trazado 103288" d="M2150.324,629.639a4.208,4.208,0,0,1-1.515-.227l.089-.211-.045.105.045-.105c.023.01,2.363.93,6.369-1.276l.111.2A10.572,10.572,0,0,1,2150.324,629.639Z" transform="translate(-2148.809 -627.926)" fill="#c58c71"/>
        </g>
        <g id="Grupo_56431" data-name="Grupo 56431" transform="translate(13.132 27.692)">
          <path id="Trazado_103289" data-name="Trazado 103289" d="M1833.51,624.927s-.126-2.823-1.379-3.136a98.067,98.067,0,0,0-13.1.106c-.313.261.1,1.321,1.141,1.391s8.25,1.218,8.772,1.48a9.117,9.117,0,0,1,1.54,1.341Z" transform="translate(-1818.931 -621.617)" fill="#eea886"/>
        </g>
        <g id="Grupo_56432" data-name="Grupo 56432" transform="translate(17.705 153.141)">
          <path id="Trazado_103290" data-name="Trazado 103290" d="M1858.987,1473.29s-2.765,2.4-3.594,3.013a25.386,25.386,0,0,1-4.525,2.617s-2.458,1.769.792,1.221,8.2-4.318,10.689-4.776v-.039Z" transform="translate(-1849.977 -1473.29)" fill="#eea886"/>
        </g>
        <g id="Grupo_56433" data-name="Grupo 56433" transform="translate(53.979 155.139)">
          <path id="Trazado_103291" data-name="Trazado 103291" d="M2100.957,1490.488s-4.54.863-4.7,1.806.843,1.865,1.946,2.206,6.537.4,7.339-.16,4.532-4.291,5.114-3.489.381,3.569.381,3.569,1,.321,1.424-.1a13.729,13.729,0,0,1,.241-3.208,7.334,7.334,0,0,0-.241-4.151C2112,1486.138,2100.957,1490.488,2100.957,1490.488Z" transform="translate(-2096.24 -1486.856)" fill="#515154"/>
        </g>
        <g id="Grupo_56434" data-name="Grupo 56434" transform="translate(57.805 152.721)">
          <path id="Trazado_103292" data-name="Trazado 103292" d="M2131.719,1470.438s-3.257,2.816-4.086,3.433a25.384,25.384,0,0,1-4.525,2.617s-2.458,1.769.792,1.221,8.586-3.956,10.71-4.75l-.032-.1Z" transform="translate(-2122.217 -1470.438)" fill="#eea886"/>
        </g>
        <g id="Grupo_56435" data-name="Grupo 56435" transform="translate(73.803 11.225)">
          <path id="Trazado_103293" data-name="Trazado 103293" d="M2230.823,509.826s3.073.452,3.228,3.155a3.931,3.931,0,0,1-1.614,3.72Z" transform="translate(-2230.823 -509.826)" fill="#f57c00"/>
        </g>
        <g id="Grupo_56436" data-name="Grupo 56436" transform="translate(59.443 8.537)">
          <path id="Trazado_103294" data-name="Trazado 103294" d="M2133.333,500.519s2.734,1.817,9.261.564a2.372,2.372,0,0,1,2.355,1.149c.829,1.41,1.823,3.316,2.11,3.329s4.359-6.148,1.592-10.143-8.38-5.065-11.774-2.324S2133.333,500.519,2133.333,500.519Z" transform="translate(-2133.333 -491.572)" fill="#454442"/>
        </g>
        <g id="Grupo_56437" data-name="Grupo 56437" transform="translate(69.432 17.358)">
          <path id="Trazado_103295" data-name="Trazado 103295" d="M2201.468,552.79c.418-1.4,2.859-2,2.937-.274s-1.567,4.112-2.506,4.112S2201.016,554.3,2201.468,552.79Z" transform="translate(-2201.152 -551.46)" fill="#eea886"/>
        </g>
      </g>
    </g>
    <g id="Grupo_56469" data-name="Grupo 56469" transform="translate(131.92 193.698)">
      <g id="Grupo_56468" data-name="Grupo 56468" transform="translate(0)">
        <g id="Grupo_56440" data-name="Grupo 56440" transform="translate(56.235 198.149)">
          <path id="Trazado_103296" data-name="Trazado 103296" d="M520.754,1791.15s3.044,2.286,4.44,3.165,7.1,1.718,7.61,2.318.11,2.29-.859,2.36-8-.07-10.267-.87-6.711-.367-7.637-.8.268-5.554.769-6.677S520.754,1791.15,520.754,1791.15Z" transform="translate(-513.698 -1790.25)" fill="#323657"/>
        </g>
        <g id="Grupo_56441" data-name="Grupo 56441" transform="translate(56.756 204.175)">
          <path id="Trazado_103297" data-name="Trazado 103297" d="M534.717,1833.267l.006-.227c-.077,0-7.736-.212-10.064-1.1-2.368-.907-7.214-.772-7.419-.765l.007.227c.05,0,5.005-.141,7.33.75C526.943,1833.054,534.4,1833.259,534.717,1833.267Z" transform="translate(-517.24 -1831.16)" fill="#5a619e"/>
        </g>
        <g id="Grupo_56442" data-name="Grupo 56442" transform="translate(17.847 197.946)">
          <path id="Trazado_103298" data-name="Trazado 103298" d="M260.139,1789.775s3.044,2.286,4.44,3.165,7.1,1.718,7.61,2.319.11,2.291-.859,2.36-8-.07-10.267-.871-6.711-.366-7.637-.8.268-5.553.769-6.677S260.139,1789.775,260.139,1789.775Z" transform="translate(-253.082 -1788.875)" fill="#323657"/>
        </g>
        <g id="Grupo_56443" data-name="Grupo 56443" transform="translate(57.263 196.536)">
          <path id="Trazado_103299" data-name="Trazado 103299" d="M526.46,1779.3l.285,2.542s-4.5.379-6.068-.328l.251-1.862Z" transform="translate(-520.678 -1779.301)" fill="#cbdacd"/>
        </g>
        <g id="Grupo_56444" data-name="Grupo 56444" transform="translate(18.958 195.942)">
          <path id="Trazado_103300" data-name="Trazado 103300" d="M266.758,1775.974l-.187,2.2s-4.445.333-5.945-.5l.37-2.4Z" transform="translate(-260.626 -1775.272)" fill="#cbdacd"/>
        </g>
        <g id="Grupo_56445" data-name="Grupo 56445" transform="translate(18.369 203.972)">
          <path id="Trazado_103301" data-name="Trazado 103301" d="M274.1,1831.893l.006-.228c-.077,0-7.736-.212-10.065-1.1-2.368-.907-7.213-.771-7.418-.765l.007.227c.05,0,5.005-.14,7.33.751C266.33,1831.68,273.789,1831.885,274.1,1831.893Z" transform="translate(-256.628 -1829.786)" fill="#5a619e"/>
        </g>
        <g id="Grupo_56446" data-name="Grupo 56446" transform="translate(17.761 119.683)">
          <path id="Trazado_103302" data-name="Trazado 103302" d="M255.61,1298.042c-.075,1.543-2.122,35.809-2.122,35.809.077.607,6.668,1.039,6.668,1.039s6.312-34.072,6.538-35.435.431-22.732.508-24.021.378-1.818,1.818-1.438,13,21.772,13.385,25.711,8.361,34.6,8.965,34.976,6.82.151,7.123,0-3.516-27.36-3.894-28.723-.985-9.018-2.273-11.744c-1.093-2.313-9.137-24.451-11.555-31.129-.435-1.2-.688-1.9-.688-1.9s-26.883-7.563-27.428-.907c-.053.637-.09,1.307-.117,2.007C252.082,1274.817,255.683,1296.579,255.61,1298.042Z" transform="translate(-252.499 -1257.543)" fill="#727997"/>
        </g>
        <g id="Grupo_56447" data-name="Grupo 56447" transform="translate(17.801 122.422)">
          <path id="Trazado_103303" data-name="Trazado 103303" d="M252.771,1278.149a209.3,209.3,0,0,0,28.233.8c-.435-1.2-.688-1.9-.688-1.9l-27.428-.908C252.835,1276.78,252.8,1277.45,252.771,1278.149Z" transform="translate(-252.771 -1276.142)" fill="#cbdacd"/>
        </g>
        <g id="Grupo_56448" data-name="Grupo 56448" transform="translate(7.28)">
          <path id="Trazado_103304" data-name="Trazado 103304" d="M185.43,469.914a5.62,5.62,0,1,0-4.086-9.479V445.017h16.6a5.62,5.62,0,1,0,6.617,0h16.6v38.555H204.474a5.62,5.62,0,1,0-6.436,0H181.344V468.153A5.6,5.6,0,0,0,185.43,469.914Z" transform="translate(-181.344 -445.017)" fill="#ffa726"/>
        </g>
        <g id="Grupo_56449" data-name="Grupo 56449" transform="translate(9.495 35.627)">
          <path id="Trazado_103305" data-name="Trazado 103305" d="M200.284,695.171s-.245-2.09.588-3.078,2.184-3.021,2-4.684-1.415,1.136-1.956,1.944-4.116.284-4.33.465a4.066,4.066,0,0,0,.012,2.468,2.951,2.951,0,0,1-.22,1.921S196.556,695.3,200.284,695.171Z" transform="translate(-196.38 -686.891)" fill="#eea886"/>
        </g>
        <g id="Grupo_56450" data-name="Grupo 56450" transform="translate(10.879 38.579)">
          <path id="Trazado_103306" data-name="Trazado 103306" d="M205.909,707.978c.382-.608,2.016-.9,2.032-.9l-.026-.149c-.07.012-1.717.3-2.135.969Z" transform="translate(-205.781 -706.929)" fill="#c58c71"/>
        </g>
        <g id="Grupo_56451" data-name="Grupo 56451" transform="translate(37.338 35.627)">
          <path id="Trazado_103307" data-name="Trazado 103307" d="M388.017,695.171s.245-2.09-.588-3.078-2.184-3.021-2-4.684,1.415,1.136,1.956,1.944,4.127.284,4.34.465a4.092,4.092,0,0,1-.023,2.468,2.949,2.949,0,0,0,.22,1.921S391.746,695.3,388.017,695.171Z" transform="translate(-385.411 -686.891)" fill="#eea886"/>
        </g>
        <g id="Grupo_56452" data-name="Grupo 56452" transform="translate(40.306 38.579)">
          <path id="Trazado_103308" data-name="Trazado 103308" d="M407.56,708.051,407.7,708c-.3-.81-2.05-1.062-2.125-1.072l-.021.15C405.575,707.079,407.295,707.326,407.56,708.051Z" transform="translate(-405.557 -706.927)" fill="#c58c71"/>
        </g>
        <g id="Grupo_56453" data-name="Grupo 56453" transform="translate(44.314 14.036)">
          <path id="Trazado_103309" data-name="Trazado 103309" d="M432.77,545.925a5.62,5.62,0,1,0,5.62-5.62A5.62,5.62,0,0,0,432.77,545.925Z" transform="translate(-432.77 -540.305)" fill="#ffa726"/>
        </g>
        <g id="Grupo_56454" data-name="Grupo 56454" transform="translate(0 42.303)">
          <path id="Trazado_103310" data-name="Trazado 103310" d="M141.07,732.21c-2.727,5-9.42,16.542-9.142,19.648.252,2.815,13.956,21.758,13.956,21.758s2.94,4.533,4.484,20.984c.1,1.1-.834,17.578-.53,17.729s27.353,1.439,27.428.908-1.289-19.7-.834-21.365,2.194-18.493,2.413-19.687c.311-1.7,6.064-16.333,6.574-19.871.454-3.152-9.184-19.8-9.184-19.8l-5.06.505s6.895,19.029,6.364,19.105-5.465,9.977-6.364,10.342c-.808.328-8.026.968-8.026.968l-7.7-.428s-6.62-1.625-7-1.55-8.678-10.254-8.756-10.8c-.285-2,6.432-17.687,6.432-17.687Z" transform="translate(-131.92 -732.21)" fill="#24a8b4"/>
        </g>
        <g id="Grupo_56455" data-name="Grupo 56455" transform="translate(18.933 48.986)">
          <path id="Trazado_103311" data-name="Trazado 103311" d="M268.1,777.6s7.174-.758,8.008,11.971-9.471,8.334-12.35,5.152S256.379,777,268.1,777.6Z" transform="translate(-260.454 -777.585)" fill="#eea886"/>
        </g>
        <g id="Grupo_56456" data-name="Grupo 56456" transform="translate(17.328 47.704)">
          <path id="Trazado_103312" data-name="Trazado 103312" d="M253.423,785.771s-.947-2.985,1.375-4.2l2.575.819s-1.212-3.7-.253-4,7.408.7,8.957-1.041-1.732-12.5-12.845-6.839c0,0-4.721,1.108-3.458,6.815S253.423,785.771,253.423,785.771Z" transform="translate(-249.559 -768.883)" fill="#1c4154"/>
        </g>
        <g id="Grupo_56457" data-name="Grupo 56457" transform="translate(20.848 58.116)">
          <path id="Trazado_103313" data-name="Trazado 103313" d="M276.437,840.948c-.606-1.777-3.384-2.03-2.93.394s2.172,3.788,2.93,3.435S276.879,842.244,276.437,840.948Z" transform="translate(-273.457 -839.569)" fill="#eea886"/>
        </g>
        <g id="Grupo_56458" data-name="Grupo 56458" transform="translate(22.843 66.452)">
          <path id="Trazado_103314" data-name="Trazado 103314" d="M295.384,898.982a17.62,17.62,0,0,0,0,4.25l-.822,6-6.882-6.428s-.056-4.979-.653-6.353S295.384,898.982,295.384,898.982Z" transform="translate(-286.999 -896.157)" fill="#eea886"/>
        </g>
        <g id="Grupo_56459" data-name="Grupo 56459" transform="translate(34.998 126.646)">
          <path id="Trazado_103315" data-name="Trazado 103315" d="M369.758,1313.414a46.921,46.921,0,0,0,4.718-8.479l-.279-.12a46.541,46.541,0,0,1-4.677,8.41Z" transform="translate(-369.521 -1304.816)" fill="#12263f"/>
        </g>
        <g id="Grupo_56460" data-name="Grupo 56460" transform="translate(35.515 129.649)">
          <path id="Trazado_103316" data-name="Trazado 103316" d="M373.238,1330.13a32.211,32.211,0,0,0,4.221-4.756l-.253-.167a31.877,31.877,0,0,1-4.173,4.7Z" transform="translate(-373.033 -1325.207)" fill="#12263f"/>
        </g>
        <g id="Grupo_56461" data-name="Grupo 56461" transform="translate(23.941 67.066)">
          <path id="Trazado_103317" data-name="Trazado 103317" d="M300.178,902.676a5.171,5.171,0,0,0,.579-.027l-.029-.225a8.348,8.348,0,0,1-6.122-2.093l-.153.169A8.61,8.61,0,0,0,300.178,902.676Z" transform="translate(-294.454 -900.331)" fill="#c58c71"/>
        </g>
        <g id="Grupo_56462" data-name="Grupo 56462" transform="translate(39.255 42.596)">
          <path id="Trazado_103318" data-name="Trazado 103318" d="M398.905,736.06l5.323-.538-.749-1.312s-3.721-.126-5.06.505Z" transform="translate(-398.42 -734.199)" fill="#e0dcda"/>
        </g>
        <g id="Grupo_56463" data-name="Grupo 56463" transform="translate(8.464 42.272)">
          <path id="Trazado_103319" data-name="Trazado 103319" d="M195.121,732.789a10.981,10.981,0,0,0-5.051-.758l-.686,1.248,5.129.947Z" transform="translate(-189.384 -732)" fill="#e0dcda"/>
        </g>
        <g id="Grupo_56464" data-name="Grupo 56464" transform="translate(21.848 71.849)">
          <path id="Trazado_103320" data-name="Trazado 103320" d="M281.89,932.8l6.444,6.2-1.553,3.866-6.535-9.225Z" transform="translate(-280.247 -932.797)" fill="#cbdacd"/>
        </g>
        <g id="Grupo_56465" data-name="Grupo 56465" transform="translate(29.936 72.591)">
          <path id="Trazado_103321" data-name="Trazado 103321" d="M336.318,937.84l-1.165,5.46,2.859,2.621V938.63Z" transform="translate(-335.153 -937.84)" fill="#cbdacd"/>
        </g>
        <g id="Grupo_56466" data-name="Grupo 56466" transform="translate(29.034 78.051)">
          <path id="Trazado_103322" data-name="Trazado 103322" d="M329.029,977.154l2.014.958.721-1.522-1.833-1.681Z" transform="translate(-329.029 -974.909)" fill="#b9c7bd"/>
        </g>
        <g id="Grupo_56467" data-name="Grupo 56467" transform="translate(30.286 79.748)">
          <path id="Trazado_103323" data-name="Trazado 103323" d="M341.379,1029.905l.243.009a17.654,17.654,0,0,1-1.221-5.228,35.4,35.4,0,0,1,.042-8.571,86.139,86.139,0,0,0,.464-11.017c-.15-11.657-3.137-18.6-3.166-18.67l-.208.092c.03.068,3,6.974,3.147,18.581a85.994,85.994,0,0,1-.462,10.991,35.588,35.588,0,0,0-.042,8.616A16.885,16.885,0,0,0,341.379,1029.905Z" transform="translate(-337.532 -986.428)" fill="#b9c7bd"/>
        </g>
      </g>
    </g>
  </g>
</svg>
