<svg id="Grupo_120291" data-name="Grupo 120291" xmlns="http://www.w3.org/2000/svg" xmlns:xlink="http://www.w3.org/1999/xlink" width="100.049" height="100" viewBox="0 0 100.049 100">
  <defs>
    <clipPath id="clip-path">
      <rect id="Rectángulo_37253" data-name="Rectángulo 37253" width="100.049" height="100" fill="none"/>
    </clipPath>
  </defs>
  <g id="Grupo_120290" data-name="Grupo 120290" clip-path="url(#clip-path)">
    <path id="Trazado_181282" data-name="Trazado 181282" d="M56.6,20.016q0-8.855,0-17.712c0-1.778.511-2.289,2.286-2.289C64.066.013,69.241.028,74.415,0A2.744,2.744,0,0,1,76.53.888q4.578,4.63,9.21,9.208a2.755,2.755,0,0,1,.89,2.115c-.022,8.543-.012,17.087-.015,25.63,0,1.636-.55,2.186-2.183,2.188-3.438,0-6.876.02-10.314-.015-.676-.007-.86.166-.856.851q.042,9.377,0,18.754c0,.709.268.906.887,1.086q18.5,5.371,37,10.789c1.976.577,2.15.8,2.15,2.812q0,5.886,0,11.773c0,1.583-.253,1.955-1.737,2.389q-19.492,5.7-38.986,11.384a3.1,3.1,0,0,1-1.827.023Q51.155,94.129,31.557,88.417c-1.322-.386-1.626-.784-1.627-2.143q-.006-6.252,0-12.5c0-1.289.331-1.723,1.566-2.084q18.794-5.5,37.6-10.973c.649-.189.87-.421.867-1.106q-.042-9.377,0-18.754c0-.7-.212-.845-.868-.839-3.438.032-6.876.018-10.315.013-1.625,0-2.171-.554-2.172-2.2q0-8.908,0-17.817M37.96,73.26c.07.341.279.3.429.344q16.267,4.754,32.533,9.511a2.771,2.771,0,0,0,1.627-.074q13.921-4.072,27.847-8.126,2.454-.716,4.907-1.437a.791.791,0,0,0-.485-.34Q93.142,69.72,81.467,66.3c-2.495-.729-4.993-1.447-7.49-2.169-.312-.09-.7-.35-.7.3q0,3.989,0,7.978l.221.133c.611-.641,1.209-1.294,1.833-1.921,1.815-1.826,1.8-1.806,3.577,0,.441.45.475.7.006,1.158-1.965,1.914-3.884,3.876-5.832,5.808-1.076,1.068-1.87,1.065-2.946,0-1.555-1.539-3.1-3.092-4.644-4.638-1.772-1.769-1.746-1.743-.006-3.507.551-.558.846-.441,1.308.056.956,1.029,1.965,2.009,3.1,3.156V63.949L37.96,73.26M71.6,36.694c3.611,0,7.223-.008,10.834.009.554,0,.87-.022.867-.749q-.044-10.937,0-21.875c0-.616-.213-.741-.775-.735-2.291.027-4.583.012-6.875.011-1.865,0-2.364-.49-2.366-2.319,0-2.257-.029-4.515.016-6.771.014-.71-.148-.941-.9-.932q-5.781.06-11.563,0c-.747-.008-.907.213-.905.928q.035,15.729-.006,31.459c0,.874.294,1,1.054.99,3.541-.035,7.083-.016,10.625-.016M69.942,91.261c0-1.319-.04-2.639.016-3.955a1.076,1.076,0,0,0-.932-1.294Q51.56,80.963,34.118,75.833c-.732-.215-.876-.065-.867.652.033,2.707.038,5.414,0,8.12-.011.7.257.934.888,1.112,3.233.912,6.449,1.882,9.674,2.822q12.617,3.679,25.232,7.367c.763.224.949.089.917-.69-.055-1.316-.015-2.636-.015-3.955m40.013-15.547a1.74,1.74,0,0,0-.39,0q-17.8,5.188-35.611,10.37c-.614.178-.69.516-.685,1.058.021,2.672.037,5.344-.008,8.015-.014.811.132.994.965.744,5.009-1.5,10.036-2.942,15.056-4.408q9.923-2.9,19.845-5.8c.382-.112.837-.106.834-.717-.014-3.083-.006-6.166-.006-9.267M76.626,5.819c0,1.323,0,2.459,0,3.595,0,.266-.069.589.372.589,1.226,0,2.452,0,3.817,0L76.626,5.819" transform="translate(-21.591 -0.001)" fill="#1c1b1c"/>
    <path id="Trazado_181283" data-name="Trazado 181283" d="M35.008,56.092c1.239-1.269,2.29-2.309,3.3-3.392.4-.43.635-.428,1.063-.013,1.876,1.818,1.891,1.8.061,3.633q-2.284,2.284-4.57,4.566c-1.126,1.117-1.9,1.117-3.017,0-1.945-1.935-3.87-3.891-5.831-5.809-.419-.41-.423-.634-.007-1.061,1.823-1.869,1.809-1.886,3.632-.058.627.628,1.245,1.265,1.994,2.027a26.092,26.092,0,0,0-.024-3.378,4.97,4.97,0,0,0-4.916-4.244,44.781,44.781,0,0,1-6.343-.139,8.138,8.138,0,0,1-6.927-7.276c-.1-.9-.435-.936-1.13-.931-3.369.025-6.738.014-10.107.01C.55,40.026,0,39.477,0,37.838Q0,20.02,0,2.2C0,.564.549.016,2.18.015,7.39.012,12.6.027,17.81,0a2.745,2.745,0,0,1,2.116.886Q24.5,5.517,29.136,10.1a2.756,2.756,0,0,1,.89,2.115C30,20.754,30.014,29.3,30.011,37.842c0,1.634-.551,2.184-2.185,2.186-3.439,0-6.878.025-10.315-.017-.793-.009-.918.232-.762.944a5.1,5.1,0,0,0,4.979,4.079,41.647,41.647,0,0,1,6.548.176A8.272,8.272,0,0,1,35,53.129c.023.885,0,1.772,0,2.963M3.336,19.982c0,5.278.009,10.556-.012,15.834,0,.63.094.9.829.9q10.834-.045,21.667,0c.665,0,.875-.155.872-.852q-.039-10.834,0-21.667c0-.7-.215-.86-.876-.849-2.326.038-4.653.018-6.979.013-1.62,0-2.161-.557-2.164-2.207,0-2.292-.028-4.584.015-6.875.013-.7-.131-.948-.894-.94q-5.781.062-11.563,0c-.737-.008-.917.194-.913.92.032,5.243.017,10.487.017,15.73M20.022,5.991c0,1.148.007,2.258,0,3.368,0,.382.013.666.532.653C21.714,9.984,22.878,10,24.009,10L20.022,5.991" transform="translate(0 0)" fill="#1c1b1c"/>
    <path id="Trazado_181284" data-name="Trazado 181284" d="M221.289,56.1c1.233-1.264,2.282-2.305,3.286-3.388.4-.426.631-.438,1.064-.019,1.879,1.82,1.895,1.8.066,3.633q-2.284,2.284-4.57,4.566c-1.128,1.119-1.9,1.121-3.017.006-1.945-1.935-3.87-3.89-5.831-5.809-.415-.406-.434-.63-.013-1.061,1.826-1.873,1.811-1.89,3.632-.064.628.629,1.247,1.266,1.98,2.011.177-1.509-.038-2.854.228-4.182a8.339,8.339,0,0,1,8.021-6.746c1.736-.033,3.473.016,5.209-.015a5.048,5.048,0,0,0,4.894-4.171c.108-.587.048-.85-.68-.841-3.473.041-6.946.021-10.42.018-1.634,0-2.181-.55-2.182-2.187q0-17.818,0-35.635c0-1.64.547-2.19,2.176-2.191,5.21,0,10.42.01,15.629-.012A2.64,2.64,0,0,1,242.8.817q4.654,4.7,9.357,9.357a2.648,2.648,0,0,1,.817,2.039q-.028,12.816-.013,25.632c0,1.637-.55,2.187-2.181,2.189-3.369,0-6.738.015-10.107-.01-.7-.005-1.026.043-1.129.933a8.274,8.274,0,0,1-8.374,7.413c-1.6.013-3.2-.011-4.793.005a5,5,0,0,0-5.09,5.069c-.011.782,0,1.565,0,2.653m5-36.109c0,5.278.009,10.556-.012,15.834,0,.63.094.9.828.9q10.834-.044,21.668,0c.665,0,.874-.156.872-.852q-.039-10.834,0-21.667c0-.7-.215-.86-.876-.849-2.326.038-4.653.018-6.979.013-1.62,0-2.161-.556-2.164-2.206,0-2.292-.028-4.584.015-6.875.013-.7-.131-.948-.894-.94q-5.781.063-11.563,0c-.737-.008-.918.194-.913.92.032,5.243.017,10.487.017,15.73M242.976,5.824c0,1.323,0,2.459,0,3.595,0,.266-.069.589.371.589,1.226,0,2.452,0,3.817,0l-4.191-4.183" transform="translate(-152.929 -0.006)" fill="#1c1b1c"/>
    <path id="Trazado_181285" data-name="Trazado 181285" d="M58.77,238.909,90.7,229.6v8.715c-1.132-1.147-2.141-2.127-3.1-3.156-.462-.5-.757-.614-1.308-.056-1.741,1.764-1.766,1.738.006,3.507,1.548,1.546,3.089,3.1,4.644,4.639,1.076,1.065,1.869,1.067,2.946,0,1.948-1.932,3.867-3.894,5.832-5.808.469-.457.435-.707-.007-1.158-1.774-1.81-1.761-1.83-3.577,0-.624.628-1.223,1.28-1.833,1.922l-.221-.133q0-3.989,0-7.978c0-.653.387-.393.7-.3q3.745,1.082,7.49,2.169,11.676,3.414,23.35,6.836a.792.792,0,0,1,.485.339q-2.454.719-4.908,1.437-13.924,4.061-27.847,8.126a2.775,2.775,0,0,1-1.626.074Q75.468,244,59.2,239.253c-.151-.044-.359,0-.429-.344" transform="translate(-42.401 -165.65)" fill="#26ccda"/>
    <path id="Trazado_181286" data-name="Trazado 181286" d="M149.286,45.322c-3.542,0-7.084-.02-10.625.016-.76.008-1.057-.117-1.054-.99q.053-15.73.007-31.459c0-.715.158-.936.9-.928q5.781.06,11.563,0c.753-.008.916.223.9.932-.045,2.256-.018,4.514-.016,6.771,0,1.829.5,2.317,2.365,2.319,2.292,0,4.584.016,6.875-.011.563-.007.777.119.775.735q-.03,10.938,0,21.876c0,.727-.313.752-.867.749-3.611-.016-7.223-.008-10.834-.008m-.039-16.672h6.043c2.36,0,2.327,0,2.364-2.371.012-.758-.155-.993-.958-.985-4.41.044-8.822.021-13.233.021-2.553,0-2.518,0-2.523,2.527,0,.75.291.826.908.819,2.466-.028,4.932-.011,7.4-.011m.1,3.334h-6.043c-2.359,0-2.325,0-2.362,2.372-.012.761.16.991.96.983,4.41-.043,8.822-.021,13.233-.021,2.552,0,2.516,0,2.521-2.529,0-.753-.3-.824-.91-.817-2.466.027-4.932.011-7.4.011m-5.023-10h.833c2.595,0,2.594,0,2.473-2.66a.566.566,0,0,1,0-.1c.067-.473-.17-.582-.6-.578-1.84.018-3.681.009-5.522.006-.3,0-.558.01-.545.421.03.931-.216,1.994.162,2.747.252.5,1.409.111,2.159.163.346.024.694,0,1.042,0m-3.363,18.3c0,1.709,0,1.709,1.652,1.709,1.683,0,1.683,0,1.683-1.678,0-1.657,0-1.657-1.7-1.657-1.631,0-1.631,0-1.631,1.626m10,.067c0-1.693,0-1.693-1.668-1.693h-.1c-1.563,0-1.563,0-1.563,1.589,0,1.745,0,1.745,1.719,1.745,1.615,0,1.615,0,1.615-1.641m4.96,1.641c1.709,0,1.709,0,1.709-1.652,0-1.683,0-1.683-1.678-1.683-1.657,0-1.657,0-1.657,1.7,0,1.631,0,1.631,1.626,1.631" transform="translate(-99.28 -8.628)" fill="#ffd1a2"/>
    <path id="Trazado_181287" data-name="Trazado 181287" d="M78.542,287.462c0,1.319-.04,2.639.015,3.955.032.779-.155.914-.917.69q-12.607-3.714-25.232-7.367c-3.225-.94-6.441-1.91-9.674-2.822-.632-.178-.9-.411-.888-1.112.042-2.706.036-5.413,0-8.12-.009-.718.135-.867.867-.652q17.444,5.126,34.908,10.179a1.077,1.077,0,0,1,.932,1.294c-.055,1.316-.016,2.637-.016,3.955" transform="translate(-30.191 -196.201)" fill="#1fa4af"/>
    <path id="Trazado_181288" data-name="Trazado 181288" d="M222.207,271.815c0,3.1-.008,6.184.006,9.267,0,.612-.453.606-.834.717q-9.922,2.9-19.845,5.8c-5.02,1.465-10.047,2.908-15.056,4.408-.833.25-.979.067-.965-.744.045-2.671.028-5.344.008-8.016,0-.541.071-.879.685-1.057q17.811-5.167,35.611-10.37a1.758,1.758,0,0,1,.39,0" transform="translate(-133.843 -196.101)" fill="#1fa4af"/>
    <path id="Trazado_181289" data-name="Trazado 181289" d="M197.592,20.889l4.191,4.183c-1.366,0-2.592,0-3.817,0-.441,0-.37-.323-.372-.589,0-1.136,0-2.272,0-3.595" transform="translate(-142.557 -15.071)" fill="#ffd1a2"/>
    <path id="Trazado_181290" data-name="Trazado 181290" d="M11.935,28.609c0-5.243.015-10.487-.017-15.73,0-.726.176-.927.913-.92q5.781.058,11.563,0c.763-.008.907.24.894.94-.043,2.291-.019,4.583-.015,6.875,0,1.65.544,2.2,2.164,2.207,2.326.005,4.654.024,6.979-.013.661-.011.878.147.876.849q-.04,10.834,0,21.667c0,.7-.207.854-.872.852q-10.834-.034-21.667,0c-.734,0-.831-.265-.829-.9.021-5.278.012-10.556.012-15.834m11.62.04H29.6c2.359,0,2.325,0,2.362-2.372.012-.761-.16-.991-.96-.983-4.41.043-8.822.021-13.233.021-2.552,0-2.516,0-2.521,2.529,0,.753.3.824.91.817,2.466-.027,4.932-.011,7.4-.011m.039,6.669h5.939c2.43,0,2.386,0,2.432-2.411.016-.835-.276-.944-1-.939-4.411.032-8.822.016-13.233.016-2.493,0-2.457,0-2.481,2.464-.008.773.26.9.949.886,2.465-.04,4.932-.016,7.4-.016M23.5,41.987h6.043c2.421,0,2.374,0,2.423-2.422.017-.855-.307-.932-1.016-.927-4.411.028-8.822.014-13.233.014-2.486,0-2.462,0-2.465,2.475,0,.659.145.89.85.877,2.465-.045,4.932-.017,7.4-.017M18.633,18.646H17.8c-2.7,0-2.681,0-2.545,2.706.026.505.175.65.662.638,1.18-.029,2.361-.009,3.542-.009,2.538,0,2.537,0,2.479-2.549a1.33,1.33,0,0,1,0-.208c.064-.466-.155-.6-.6-.585-.9.026-1.806.008-2.709.007" transform="translate(-8.598 -8.628)" fill="#fff3bf"/>
    <path id="Trazado_181291" data-name="Trazado 181291" d="M71.876,21.509l3.986,4.013c-1.131,0-2.3-.02-3.458.009-.519.013-.536-.271-.532-.653.011-1.11,0-2.22,0-3.368" transform="translate(-51.854 -15.518)" fill="#fff3bf"/>
    <path id="Trazado_181292" data-name="Trazado 181292" d="M263.351,28.609c0-5.243.015-10.487-.017-15.73,0-.726.176-.928.913-.921q5.781.058,11.563,0c.763-.008.907.241.894.94-.043,2.291-.019,4.584-.015,6.875,0,1.65.544,2.2,2.164,2.206,2.327.005,4.653.025,6.979-.013.661-.011.878.147.876.849q-.04,10.834,0,21.667c0,.7-.206.854-.872.852q-10.834-.034-21.668,0c-.734,0-.831-.265-.828-.9.021-5.278.012-10.556.012-15.834m11.659.04h5.939c2.429,0,2.385,0,2.432-2.411.016-.835-.276-.944-1-.939-4.411.032-8.822.016-13.233.016-2.492,0-2.457,0-2.481,2.464-.008.773.26.9.949.886,2.465-.04,4.932-.016,7.4-.016m-.032,6.669h6.043c2.352,0,2.316,0,2.356-2.38.013-.776-.183-.982-.969-.975-4.41.042-8.822.02-13.233.02-2.546,0-2.522,0-2.509,2.537,0,.636.159.824.809.814,2.5-.039,5-.016,7.5-.016m.008,6.669h6.043c2.346,0,2.308,0,2.349-2.387.014-.789-.2-.973-.977-.966-4.411.039-8.822.019-13.233.019-2.541,0-2.515,0-2.5,2.544,0,.65.181.814.817.805,2.5-.036,5-.015,7.5-.015m-5-20.007h.834c2.7,0,2.682,0,2.551-2.7-.024-.5-.159-.657-.655-.645-1.18.03-2.361.009-3.542.009-2.542,0-2.542,0-2.486,2.542a1.341,1.341,0,0,1,0,.208c-.061.457.14.606.59.592.9-.028,1.806-.008,2.709-.008" transform="translate(-189.989 -8.627)" fill="#b1f9ff"/>
    <path id="Trazado_181293" data-name="Trazado 181293" d="M323.3,20.889l4.191,4.183c-1.366,0-2.592,0-3.817,0-.441,0-.37-.323-.371-.589-.005-1.136,0-2.272,0-3.595" transform="translate(-233.253 -15.071)" fill="#b1f9ff"/>
    <path id="Trazado_181294" data-name="Trazado 181294" d="M157.885,63.193c-2.466,0-4.932-.016-7.4.011-.617.007-.91-.069-.908-.819.005-2.527-.03-2.527,2.523-2.527,4.411,0,8.822.023,13.233-.021.8-.008.97.226.958.985-.037,2.37,0,2.371-2.364,2.371h-6.043" transform="translate(-107.918 -43.171)" fill="#1a1a1a"/>
    <path id="Trazado_181295" data-name="Trazado 181295" d="M157.991,83.827c2.466,0,4.932.016,7.4-.011.614-.007.912.064.91.817-.005,2.529.031,2.529-2.521,2.529-4.411,0-8.822-.023-13.233.021-.8.008-.972-.221-.96-.983.038-2.372,0-2.372,2.362-2.372h6.043" transform="translate(-107.922 -60.471)" fill="#1a1a1a"/>
    <path id="Trazado_181296" data-name="Trazado 181296" d="M152.887,39.285c-.347,0-.7.02-1.042,0-.75-.052-1.908.338-2.159-.163-.378-.753-.132-1.816-.162-2.747-.013-.411.247-.421.545-.42,1.84,0,3.681.011,5.522-.006.433,0,.669.1.6.578a.567.567,0,0,0,0,.1c.122,2.659.122,2.659-2.472,2.659Z" transform="translate(-107.842 -25.932)" fill="#1a1a1a"/>
    <path id="Trazado_181297" data-name="Trazado 181297" d="M149.656,109.427c0-1.626,0-1.626,1.631-1.626,1.7,0,1.7,0,1.7,1.657,0,1.678,0,1.678-1.683,1.678-1.652,0-1.652,0-1.652-1.709" transform="translate(-107.973 -77.776)" fill="#1a1a1a"/>
    <path id="Trazado_181298" data-name="Trazado 181298" d="M176.935,109.5c0,1.641,0,1.641-1.615,1.641-1.719,0-1.719,0-1.719-1.745,0-1.589,0-1.589,1.563-1.589h.1c1.667,0,1.667,0,1.667,1.693" transform="translate(-125.249 -77.777)" fill="#1a1a1a"/>
    <path id="Trazado_181299" data-name="Trazado 181299" d="M199.171,111.136c-1.626,0-1.626,0-1.626-1.631,0-1.7,0-1.7,1.657-1.7,1.678,0,1.678,0,1.678,1.683,0,1.652,0,1.652-1.709,1.652" transform="translate(-142.524 -77.777)" fill="#1a1a1a"/>
    <path id="Trazado_181300" data-name="Trazado 181300" d="M32.178,63.193c-2.466,0-4.932-.016-7.4.011-.614.007-.912-.064-.91-.817.005-2.529-.03-2.529,2.521-2.529,4.411,0,8.822.023,13.233-.021.8-.008.972.221.96.983-.038,2.372,0,2.372-2.362,2.372H32.178" transform="translate(-17.222 -43.171)" fill="#1a1a1a"/>
    <path id="Trazado_181301" data-name="Trazado 181301" d="M32.219,87.15c-2.466,0-4.932-.024-7.4.015-.689.011-.956-.113-.949-.886.024-2.464-.012-2.464,2.481-2.464,4.411,0,8.822.016,13.233-.016.728-.005,1.02.1,1,.939-.047,2.411,0,2.411-2.432,2.411H32.219" transform="translate(-17.223 -60.459)" fill="#1a1a1a"/>
    <path id="Trazado_181302" data-name="Trazado 181302" d="M32.139,111.1c-2.466,0-4.932-.027-7.4.017-.7.013-.851-.218-.85-.877,0-2.475-.02-2.475,2.465-2.475,4.411,0,8.822.014,13.233-.014.709,0,1.033.072,1.015.927-.048,2.421,0,2.422-2.422,2.422H32.139" transform="translate(-17.237 -77.739)" fill="#1a1a1a"/>
    <path id="Trazado_181303" data-name="Trazado 181303" d="M27.154,35.947c.9,0,1.806.018,2.709-.008.441-.013.661.119.6.585a1.334,1.334,0,0,0,0,.208c.058,2.549.059,2.549-2.479,2.549-1.181,0-2.362-.019-3.542.009-.487.012-.637-.133-.662-.638-.136-2.707-.152-2.706,2.545-2.706h.834" transform="translate(-17.12 -25.929)" fill="#1a1a1a"/>
    <path id="Trazado_181304" data-name="Trazado 181304" d="M283.636,63.206c-2.466,0-4.932-.024-7.4.015-.689.011-.956-.113-.949-.886.024-2.464-.012-2.464,2.481-2.464,4.411,0,8.822.016,13.233-.016.728-.005,1.02.1,1,.939-.047,2.411,0,2.411-2.432,2.411h-5.939" transform="translate(-198.615 -43.184)" fill="#1a1a1a"/>
    <path id="Trazado_181305" data-name="Trazado 181305" d="M283.609,87.139c-2.5,0-5-.023-7.5.016-.65.01-.806-.177-.809-.814-.014-2.537-.038-2.537,2.508-2.537,4.411,0,8.822.021,13.233-.02.786-.007.982.2.969.975-.04,2.379,0,2.38-2.356,2.38h-6.043" transform="translate(-198.62 -60.448)" fill="#1a1a1a"/>
    <path id="Trazado_181306" data-name="Trazado 181306" d="M283.615,111.086c-2.5,0-5-.021-7.5.015-.636.009-.814-.155-.817-.805-.013-2.544-.039-2.544,2.5-2.544,4.411,0,8.822.02,13.233-.019.772-.007.991.177.977.966-.041,2.387,0,2.387-2.349,2.387h-6.043" transform="translate(-198.618 -77.726)" fill="#1a1a1a"/>
    <path id="Trazado_181307" data-name="Trazado 181307" d="M278.627,39.277c-.9,0-1.806-.02-2.709.008-.451.014-.651-.135-.59-.592a1.326,1.326,0,0,0,0-.208c-.056-2.543-.056-2.543,2.486-2.542,1.181,0,2.362.021,3.542-.009.5-.013.631.148.655.645.131,2.7.147,2.7-2.551,2.7h-.834" transform="translate(-198.634 -25.924)" fill="#1a1a1a"/>
  </g>
</svg>
