<svg xmlns="http://www.w3.org/2000/svg" xmlns:xlink="http://www.w3.org/1999/xlink" width="400" height="351.14" viewBox="0 0 400 351.14">
  <defs>
    <clipPath id="clip-path">
      <rect id="Rectángulo_30829" data-name="Rectángulo 30829" width="351.697" height="340" fill="none"/>
    </clipPath>
    <clipPath id="clip-path-4">
      <rect id="Rectángulo_30819" data-name="Rectángulo 30819" width="9.216" height="8.347" fill="none"/>
    </clipPath>
    <clipPath id="clip-path-5">
      <rect id="Rectángulo_30820" data-name="Rectángulo 30820" width="5.643" height="9.133" fill="none"/>
    </clipPath>
    <clipPath id="clip-path-6">
      <rect id="Rectángulo_30821" data-name="Rectángulo 30821" width="26.525" height="8.21" fill="none"/>
    </clipPath>
    <clipPath id="clip-path-8">
      <rect id="Rectángulo_30823" data-name="Rectángulo 30823" width="17.855" height="2.11" fill="none"/>
    </clipPath>
    <clipPath id="clip-path-9">
      <rect id="Rectángulo_30824" data-name="Rectángulo 30824" width="2.275" height="2.271" fill="none"/>
    </clipPath>
    <clipPath id="clip-path-10">
      <rect id="Rectángulo_30825" data-name="Rectángulo 30825" width="29.235" height="2.371" fill="none"/>
    </clipPath>
    <clipPath id="clip-path-11">
      <rect id="Rectángulo_30826" data-name="Rectángulo 30826" width="24.263" height="14.411" fill="none"/>
    </clipPath>
    <clipPath id="clip-path-12">
      <rect id="Rectángulo_30827" data-name="Rectángulo 30827" width="6.719" height="26.167" fill="none"/>
    </clipPath>
  </defs>
  <g id="Grupo_82678" data-name="Grupo 82678" transform="translate(-915 -714)">
    <path id="Trazado_166054" data-name="Trazado 166054" d="M352.163,307.677c17.746-6.129,32.554-16.956,38.658-36.606,6.071-19.544,5.12-40.747,11.277-60.265,4.052-12.843,11.082-24.617,14.811-37.557,14.414-50.029-22.06-86.4-64.085-105.032-9.655-4.28-19.562-8.036-28.873-13.019-14.14-7.568-26.86-17.742-40.484-26.208C253.146,10.148,218.765-3.36,184.329.734c-19.193,2.281-37.592,9.935-55.01,19.3C109.87,30.49,90.442,44.336,77.54,64.21c-6.348,9.778-8.389,20.738-13.274,31.028-5.771,12.157-16.315,20.821-24.178,31.1C14.681,159.558,14.168,211.9,34.822,249.062S94.1,308.131,132.945,310.9c26.616,1.9,53.38-4.6,79.92-1.72,25.009,2.717,62.852,7.839,80.841,7.01,18.332-.845,39.986-2.133,58.457-8.513" transform="translate(894.887 748.86)" fill="#ffe881"/>
    <g id="Grupo_56802" data-name="Grupo 56802" transform="translate(931.285 714)">
      <g id="Grupo_56699" data-name="Grupo 56699" clip-path="url(#clip-path)">
        <g id="Grupo_56670" data-name="Grupo 56670">
          <g id="Grupo_56669" data-name="Grupo 56669" clip-path="url(#clip-path)">
            <path id="Trazado_165489" data-name="Trazado 165489" d="M323.223,1.451s12.124.17,6.936,24.172S325.64,54.165,325.64,63.66a16.559,16.559,0,0,0,8.966,15.11H318.165L306.072,22.745V1.451Z" transform="translate(-63.394 -0.301)" fill="#e0e0e0"/>
            <path id="Trazado_165490" data-name="Trazado 165490" d="M288.83,195.221H122.813L124.291,32.8l156.37-8.172Z" transform="translate(-25.437 -5.101)" fill="#e0e0e0"/>
            <path id="Trazado_165491" data-name="Trazado 165491" d="M281.643,191.246H115.625L117.1,28.822l161.2-3.147Z" transform="translate(-23.949 -5.318)" fill="#ebebeb"/>
            <path id="Trazado_165492" data-name="Trazado 165492" d="M277.389,186.254H111.708V23.831l165.782-.387Z" transform="translate(-23.137 -4.856)" fill="#fafafa"/>
            <path id="Trazado_165493" data-name="Trazado 165493" d="M277.335,186.207c0-1.517-.031-65.155-.078-162.81l.178.178-165.522.415h-.26l.206-.207c-.01,59.417-.02,115.132-.028,162.423l-.178-.179,165.681.179-165.681.179h-.179v-.179c-.008-47.291-.017-103.007-.028-162.423v-.206h.466l165.522-.358h.179V23.4c-.167,97.656-.276,161.294-.278,162.81" transform="translate(-23.083 -4.809)" fill="#263238"/>
            <path id="Trazado_165494" data-name="Trazado 165494" d="M277.344,18.3C268.786,8.33,278.716.953,282.065.8L124.307.709a13.287,13.287,0,0,0-13.1,15.555,18.286,18.286,0,0,0,.64,2.47" transform="translate(-22.991 -0.147)" fill="#f5f5f5"/>
            <path id="Trazado_165495" data-name="Trazado 165495" d="M324.068,78.728a.964.964,0,0,1,.216-.017l.637-.017,2.478-.033,9.343-.059-.037.246a10.011,10.011,0,0,1-3.811-2.182,12.418,12.418,0,0,1-2.844-4.054,27.129,27.129,0,0,1-1.7-5.188c-.215-.924-.405-1.873-.582-2.841-.086-.484-.186-.969-.228-1.477a11.947,11.947,0,0,1-.114-1.525,56.289,56.289,0,0,1,.212-6.312c.159-2.159.4-4.37.661-6.628.541-4.514,1.219-9.214,2.02-14.032.327-2.059.745-4.09,1.085-6.081.325-2,.592-3.983.844-5.933q.351-2.927.691-5.746c.1-.942.231-1.869.251-2.779a16.729,16.729,0,0,0-.151-2.7,16.234,16.234,0,0,0-1.495-4.979,9.928,9.928,0,0,0-3.03-3.778,5.953,5.953,0,0,0-4.312-.963,7.912,7.912,0,0,0-3.84,1.594,9.459,9.459,0,0,0-2.4,2.968,12.806,12.806,0,0,0-1.165,3.23,8.439,8.439,0,0,0,.631,5.371,17.8,17.8,0,0,0,1.747,3.034l.532.744a1.7,1.7,0,0,1,.174.259,1.818,1.818,0,0,1-.208-.234c-.133-.157-.323-.4-.566-.721a16.607,16.607,0,0,1-1.826-3.017,8.562,8.562,0,0,1-.71-5.485,12.936,12.936,0,0,1,1.158-3.3,9.714,9.714,0,0,1,2.448-3.073,8.2,8.2,0,0,1,3.978-1.682,6.28,6.28,0,0,1,4.551,1,10.251,10.251,0,0,1,3.16,3.9,16.592,16.592,0,0,1,1.547,5.089,17.122,17.122,0,0,1,.162,2.767c-.02.942-.15,1.874-.247,2.812q-.314,2.822-.681,5.754c-.25,1.952-.515,3.938-.84,5.948-.343,2.014-.755,4.021-1.083,6.083-.8,4.811-1.482,9.506-2.029,14.011-.265,2.253-.51,4.459-.673,6.61a56.336,56.336,0,0,0-.23,6.268,11.841,11.841,0,0,0,.105,1.491c.039.489.137.978.22,1.46.173.965.358,1.909.567,2.827a26.99,26.99,0,0,0,1.653,5.132,12.167,12.167,0,0,0,2.75,3.977,9.78,9.78,0,0,0,3.691,2.152l.775.251-.813,0L327.4,78.8l-2.478-.033-.637-.017a1.03,1.03,0,0,1-.216-.017" transform="translate(-65.531 -0.259)" fill="#263238"/>
            <path id="Trazado_165496" data-name="Trazado 165496" d="M196.667,7.085c.063.045-.409.676-.878,1.828a10.4,10.4,0,0,0-.6,2.091,11.806,11.806,0,0,0-.125,2.653,11.815,11.815,0,0,0,.529,2.6,10.387,10.387,0,0,0,.907,1.975c.64,1.067,1.2,1.618,1.146,1.673-.02.02-.171-.1-.431-.35a6.769,6.769,0,0,1-.963-1.166,9.287,9.287,0,0,1-1.02-2.006,11.035,11.035,0,0,1-.582-2.7,11.005,11.005,0,0,1,.164-2.754,9.29,9.29,0,0,1,.7-2.138,6.764,6.764,0,0,1,.774-1.3c.219-.282.349-.429.373-.412" transform="translate(-40.313 -1.467)" fill="#263238"/>
            <path id="Trazado_165497" data-name="Trazado 165497" d="M191.142,0a16.9,16.9,0,0,0-2.1,2.559,10.916,10.916,0,0,0-1.5,7.606,10.914,10.914,0,0,0,4.139,6.556,16.917,16.917,0,0,0,2.877,1.633,3.136,3.136,0,0,1-.871-.239,9.483,9.483,0,0,1-2.178-1.158,10.8,10.8,0,0,1-4.373-6.716A10.8,10.8,0,0,1,188.8,2.4,9.482,9.482,0,0,1,190.415.537,3.109,3.109,0,0,1,191.142,0" transform="translate(-38.727 0)" fill="#263238"/>
            <path id="Trazado_165498" data-name="Trazado 165498" d="M270.386,141.663s-.176.014-.519.021l-1.523.02-5.856.039-21.535.066-71.052.06-30.642-.01h-.2v-.2c.03-20.3.056-37.758.074-50.157.025-6.183.044-11.1.057-14.493.014-1.677.025-2.973.033-3.867.007-.43.013-.76.017-1s.017-.338.017-.338.011.113.017.338.01.568.017,1c.007.894.017,2.19.032,3.867.013,3.39.033,8.31.057,14.493.018,12.4.044,29.857.074,50.157l-.2-.2,30.642-.01,71.052.06,21.535.066,5.856.039,1.523.02c.343.007.519.021.519.021" transform="translate(-28.803 -14.874)" fill="#263238"/>
            <rect id="Rectángulo_30812" data-name="Rectángulo 30812" width="13.246" height="13.246" transform="translate(121.114 109.533)" fill="#ffa726"/>
            <rect id="Rectángulo_30813" data-name="Rectángulo 30813" width="13.246" height="22.715" transform="translate(140.532 100.063)" fill="#fdd835"/>
            <rect id="Rectángulo_30814" data-name="Rectángulo 30814" width="13.246" height="33.472" transform="translate(160.028 89.306)" fill="#f57c00"/>
            <rect id="Rectángulo_30815" data-name="Rectángulo 30815" width="13.246" height="45.445" transform="translate(178.928 77.333)" fill="#26ccda"/>
            <rect id="Rectángulo_30816" data-name="Rectángulo 30816" width="13.246" height="60.777" transform="translate(198.268 62.001)" fill="#ffa726"/>
            <rect id="Rectángulo_30817" data-name="Rectángulo 30817" width="13.246" height="71.841" transform="translate(217.463 50.309)" fill="#f57c00"/>
            <path id="Trazado_165499" data-name="Trazado 165499" d="M152.752,105.482a1.032,1.032,0,0,1,.169-.13l.516-.356,2.018-1.35,7.59-5,26.285-17.178.3-.2v.364c0,1.876,0,3.884.006,5.929l-.316-.168,10.358-6.946,36.552-24.421,11.1-7.361,3.03-1.984.794-.507a1.8,1.8,0,0,1,.278-.161,1.9,1.9,0,0,1-.255.2l-.771.542-2.987,2.048-11.03,7.47L199.913,80.786,189.55,87.725l-.315.211v-.379c0-2.045,0-4.053.006-5.929l.3.166L163.18,98.849l-7.653,4.908-2.054,1.3-.534.327a.984.984,0,0,1-.187.1" transform="translate(-31.638 -9.529)" fill="#263238"/>
            <path id="Trazado_165500" data-name="Trazado 165500" d="M275.484,51.553a6.846,6.846,0,0,1-.14-1.633c-.036-1.014-.061-2.423-.065-4l.205.206h-.506c-1.7,0-3.233-.024-4.344-.061a7.846,7.846,0,0,1-1.8-.146,7.845,7.845,0,0,1,1.8-.146c1.112-.037,2.647-.06,4.344-.06h.712v.205c0,1.58-.029,2.989-.066,4a6.848,6.848,0,0,1-.14,1.633" transform="translate(-55.682 -9.468)" fill="#263238"/>
            <path id="Trazado_165501" data-name="Trazado 165501" d="M184.166,173.331c0,.114-4.094.206-9.143.206s-9.144-.092-9.144-.206,4.094-.206,9.144-.206,9.143.092,9.143.206" transform="translate(-34.357 -35.858)" fill="#263238"/>
            <path id="Trazado_165502" data-name="Trazado 165502" d="M177.045,180.162a11.227,11.227,0,0,1,0-4.283,11.227,11.227,0,0,1,0,4.283" transform="translate(-36.627 -36.429)" fill="#263238"/>
            <path id="Trazado_165503" data-name="Trazado 165503" d="M192.533,183.928c0,.114-10.992.206-24.547.206s-24.549-.092-24.549-.206,10.989-.206,24.549-.206,24.547.092,24.547.206" transform="translate(-29.709 -38.053)" fill="#263238"/>
            <path id="Trazado_165504" data-name="Trazado 165504" d="M143.8,190.121a21.431,21.431,0,0,1,0-5.931,21.431,21.431,0,0,1,0,5.931" transform="translate(-29.741 -38.15)" fill="#263238"/>
            <path id="Trazado_165505" data-name="Trazado 165505" d="M165.824,189.5a15.917,15.917,0,0,1,0-5.107,15.917,15.917,0,0,1,0,5.107" transform="translate(-34.303 -38.193)" fill="#263238"/>
            <path id="Trazado_165506" data-name="Trazado 165506" d="M188.473,189.792a19.056,19.056,0,0,1,0-5.6,19.131,19.131,0,0,1,0,5.6" transform="translate(-38.994 -38.15)" fill="#263238"/>
            <path id="Trazado_165507" data-name="Trazado 165507" d="M205.72,189.749a20.268,20.268,0,0,1,0-5.767,20.265,20.265,0,0,1,0,5.767" transform="translate(-42.567 -38.107)" fill="#263238"/>
            <path id="Trazado_165508" data-name="Trazado 165508" d="M148.442,193.694a42.784,42.784,0,0,1-5.931.206,42.791,42.791,0,0,1-5.931-.206,42.78,42.78,0,0,1,5.931-.206,42.774,42.774,0,0,1,5.931.206" transform="translate(-28.289 -40.076)" fill="#263238"/>
            <path id="Trazado_165509" data-name="Trazado 165509" d="M168.291,193.694a25.059,25.059,0,0,1-4.531.206,25.039,25.039,0,0,1-4.53-.206,25.033,25.033,0,0,1,4.53-.206,25.053,25.053,0,0,1,4.531.206" transform="translate(-32.98 -40.076)" fill="#263238"/>
            <path id="Trazado_165510" data-name="Trazado 165510" d="M192.43,194.317a28.793,28.793,0,0,1-4.86.206,28.785,28.785,0,0,1-4.86-.206,28.785,28.785,0,0,1,4.86-.206,28.793,28.793,0,0,1,4.86.206" transform="translate(-37.843 -40.205)" fill="#263238"/>
            <path id="Trazado_165511" data-name="Trazado 165511" d="M212,193.278a32.8,32.8,0,0,1-5.189.206,32.8,32.8,0,0,1-5.19-.206,32.8,32.8,0,0,1,5.19-.206,32.8,32.8,0,0,1,5.189.206" transform="translate(-41.76 -39.99)" fill="#263238"/>
            <path id="Trazado_165512" data-name="Trazado 165512" d="M144.007,200.117a7.335,7.335,0,0,1,0-3.46,7.39,7.39,0,0,1,0,3.46" transform="translate(-29.784 -40.732)" fill="#263238"/>
            <path id="Trazado_165513" data-name="Trazado 165513" d="M152.688,200.967c0,.114-4.8.206-10.709.206s-10.709-.092-10.709-.206,4.795-.206,10.709-.206,10.709.092,10.709.206" transform="translate(-27.189 -41.582)" fill="#263238"/>
            <path id="Trazado_165514" data-name="Trazado 165514" d="M158.229,205.963a14.914,14.914,0,0,1,0-4.943,14.92,14.92,0,0,1,0,4.943" transform="translate(-32.73 -41.636)" fill="#263238"/>
            <path id="Trazado_165515" data-name="Trazado 165515" d="M131.216,206.293a16.955,16.955,0,0,1,0-5.272,16.954,16.954,0,0,1,0,5.272" transform="translate(-27.135 -41.636)" fill="#263238"/>
            <path id="Trazado_165516" data-name="Trazado 165516" d="M189.027,200.117a7.363,7.363,0,0,1,0-3.46,7.362,7.362,0,0,1,0,3.46" transform="translate(-39.109 -40.732)" fill="#263238"/>
            <path id="Trazado_165517" data-name="Trazado 165517" d="M212.467,200.967c0,.114-8.1.206-18.087.206s-18.09-.092-18.09-.206,8.1-.206,18.09-.206,18.087.092,18.087.206" transform="translate(-36.514 -41.582)" fill="#263238"/>
            <path id="Trazado_165518" data-name="Trazado 165518" d="M203.249,205.963a14.917,14.917,0,0,1,0-4.943,14.917,14.917,0,0,1,0,4.943" transform="translate(-42.055 -41.636)" fill="#263238"/>
            <path id="Trazado_165519" data-name="Trazado 165519" d="M222.8,205.963a14.918,14.918,0,0,1,0-4.943,14.917,14.917,0,0,1,0,4.943" transform="translate(-46.103 -41.636)" fill="#263238"/>
            <path id="Trazado_165520" data-name="Trazado 165520" d="M176.236,206.293a16.955,16.955,0,0,1,0-5.272,16.954,16.954,0,0,1,0,5.272" transform="translate(-36.46 -41.636)" fill="#263238"/>
            <path id="Trazado_165521" data-name="Trazado 165521" d="M134.389,211.447a21.761,21.761,0,0,1-4.221.206,21.761,21.761,0,0,1-4.221-.206,21.759,21.759,0,0,1,4.221-.206,21.758,21.758,0,0,1,4.221.206" transform="translate(-26.086 -43.753)" fill="#263238"/>
            <path id="Trazado_165522" data-name="Trazado 165522" d="M160.664,210.685a25.393,25.393,0,0,1-4.562.206,25.393,25.393,0,0,1-4.562-.206,25.39,25.39,0,0,1,4.562-.206,25.39,25.39,0,0,1,4.562.206" transform="translate(-31.387 -43.595)" fill="#263238"/>
            <path id="Trazado_165523" data-name="Trazado 165523" d="M180.066,210.685a19.718,19.718,0,0,1-4.017.206,19.723,19.723,0,0,1-4.018-.206,19.721,19.721,0,0,1,4.018-.206,19.716,19.716,0,0,1,4.017.206" transform="translate(-35.632 -43.595)" fill="#263238"/>
            <path id="Trazado_165524" data-name="Trazado 165524" d="M205.655,210.685a23.174,23.174,0,0,1-4.357.206,23.172,23.172,0,0,1-4.358-.206,23.17,23.17,0,0,1,4.358-.206,23.172,23.172,0,0,1,4.357.206" transform="translate(-40.791 -43.595)" fill="#263238"/>
            <path id="Trazado_165525" data-name="Trazado 165525" d="M226.228,210a47.6,47.6,0,0,1-8.851,0,47.6,47.6,0,0,1,8.851,0" transform="translate(-45.024 -43.453)" fill="#263238"/>
            <path id="Trazado_165526" data-name="Trazado 165526" d="M289.931,205.057H234V170.423h55.934Zm-55.895-.04H289.89V170.463H234.037Z" transform="translate(-48.466 -35.298)" fill="#263238"/>
            <path id="Trazado_165527" data-name="Trazado 165527" d="M277.974,198.12c-3.876-1.469-8.334,2.594-12.133.937-2.211-.964-3.213-3.464-4.3-5.619s-2.949-4.429-5.348-4.179c-2.42.253-4.377,3.055-6.714,2.379-1.473-.426-2.209-2.059-2.578-3.547s-.626-3.133-1.749-4.177-3.463-.765-3.64.759v18.339h43.71s-5.909-4.381-7.251-4.891" transform="translate(-50.023 -37.964)" fill="#26ccda"/>
            <path id="Trazado_165528" data-name="Trazado 165528" d="M285.752,208.144c0,.04-10.6.071-23.661.071s-23.663-.032-23.663-.071,10.593-.071,23.663-.071,23.661.033,23.661.071" transform="translate(-49.384 -43.097)" fill="#e0e0e0"/>
            <path id="Trazado_165529" data-name="Trazado 165529" d="M285.752,198.041c0,.039-10.6.071-23.661.071s-23.663-.033-23.663-.071,10.593-.071,23.663-.071,23.661.033,23.661.071" transform="translate(-49.384 -41.004)" fill="#263238"/>
            <path id="Trazado_165530" data-name="Trazado 165530" d="M285.752,187.938c0,.039-10.6.071-23.661.071s-23.663-.033-23.663-.071,10.593-.071,23.663-.071,23.661.033,23.661.071" transform="translate(-49.384 -38.912)" fill="#263238"/>
            <path id="Trazado_165531" data-name="Trazado 165531" d="M285.752,178.337c0,.039-10.6.071-23.661.071s-23.663-.033-23.663-.071,10.593-.071,23.663-.071,23.661.033,23.661.071" transform="translate(-49.384 -36.923)" fill="#263238"/>
            <path id="Trazado_165532" data-name="Trazado 165532" d="M138.042,38.275a.441.441,0,0,1,.077,0h.227a5.177,5.177,0,0,1,.871.078,4.776,4.776,0,0,1,1.317.45,4.369,4.369,0,0,1,1.4,1.206,5.053,5.053,0,0,1,.924,2.06,4.875,4.875,0,0,1-.325,2.581,7.572,7.572,0,0,1-.641,1.27,13.725,13.725,0,0,0-.724,1.281,11.2,11.2,0,0,0-.967,2.941l-.013.07-.067,0-2.072-.05L135.88,50.1l-.077,0v-.078a6.221,6.221,0,0,0-.892-2.907c-.234-.439-.493-.853-.735-1.271a12.164,12.164,0,0,1-.687-1.231,4.046,4.046,0,0,1-.226-2.567,5.453,5.453,0,0,1,.893-2.058,4.05,4.05,0,0,1,1.414-1.173,5.1,5.1,0,0,1,1.307-.446,5.455,5.455,0,0,1,.862-.105c.1,0,.174,0,.225,0a.312.312,0,0,1,.076.007s-.026,0-.076.007l-.224.013a6.63,6.63,0,0,0-.852.132,5.278,5.278,0,0,0-1.281.462,4.009,4.009,0,0,0-1.369,1.164,5.381,5.381,0,0,0-.855,2.019,3.93,3.93,0,0,0,.232,2.485,12.21,12.21,0,0,0,.687,1.215c.239.411.5.829.741,1.272a6.335,6.335,0,0,1,.915,2.981l-.076-.08,2.172.052,2.072.052-.08.067a11.283,11.283,0,0,1,.988-2.985,13.536,13.536,0,0,1,.735-1.291,7.593,7.593,0,0,0,.635-1.246,4.758,4.758,0,0,0,.332-2.509,4.962,4.962,0,0,0-.886-2.017,4.321,4.321,0,0,0-1.36-1.2A4.862,4.862,0,0,0,139.2,38.4a5.9,5.9,0,0,0-.861-.1l-.225-.016a.23.23,0,0,1-.077-.01" transform="translate(-27.579 -7.926)" fill="#263238"/>
            <path id="Trazado_165533" data-name="Trazado 165533" d="M139.212,50.986s0-.022-.01-.067-.014-.112-.024-.2c-.02-.175-.048-.428-.084-.753-.068-.654-.17-1.6-.216-2.779-.01-.294-.018-.6-.017-.924s0-.656.034-1a2.81,2.81,0,0,1,.279-1.039,1.589,1.589,0,0,1,.832-.768,1.072,1.072,0,0,1,1.132.263.8.8,0,0,1,.221.584,1.019,1.019,0,0,1-.239.592,1.366,1.366,0,0,1-.52.387,2.646,2.646,0,0,1-.632.182,7.453,7.453,0,0,1-1.329.1,7.683,7.683,0,0,1-1.329-.118,2.511,2.511,0,0,1-.624-.208,1.633,1.633,0,0,1-.513-.4,1.219,1.219,0,0,1-.281-.573.945.945,0,0,1,.1-.618.842.842,0,0,1,.455-.409.755.755,0,0,1,.6.052,1.134,1.134,0,0,1,.431.4,1.568,1.568,0,0,1,.2.531,6.236,6.236,0,0,1,.063,1.074c.008.691.016,1.336.023,1.924.012,1.174.021,2.126.028,2.786,0,.327,0,.581,0,.757,0,.085,0,.15,0,.2s0,.067,0,.067,0-.022,0-.067,0-.113-.006-.2c0-.176-.01-.431-.017-.757-.011-.66-.028-1.611-.048-2.785-.01-.588-.02-1.233-.031-1.924a6.294,6.294,0,0,0-.065-1.063,1.5,1.5,0,0,0-.2-.511,1.065,1.065,0,0,0-.408-.374.7.7,0,0,0-.548-.048.78.78,0,0,0-.421.381.886.886,0,0,0-.093.577,1.163,1.163,0,0,0,.268.542,1.891,1.891,0,0,0,1.1.583,7.665,7.665,0,0,0,1.316.117,7.466,7.466,0,0,0,1.318-.1,2.634,2.634,0,0,0,.616-.177,1.306,1.306,0,0,0,.5-.369.962.962,0,0,0,.225-.554.734.734,0,0,0-.2-.538,1.011,1.011,0,0,0-1.067-.249,1.535,1.535,0,0,0-.8.738,2.753,2.753,0,0,0-.275,1.018c-.033.342-.034.676-.038,1s0,.629.013.922c.04,1.175.136,2.123.2,2.778.032.325.056.579.072.754.008.084.013.149.017.2s0,.067,0,.067" transform="translate(-28.143 -8.949)" fill="#263238"/>
            <path id="Trazado_165534" data-name="Trazado 165534" d="M136.57,53.011c.01.01.017.262.026.7q.008.76.021,1.82l-.016-.045,1.346,1.684-.071-.034,1.635-.026-.07.032.852-.959.427-.48-.025.063c.017-.957.033-1.863.047-2.69l.086.088-3.049-.089-.881-.036a2.33,2.33,0,0,1-.328-.025,1.47,1.47,0,0,1,.292-.016l.862-.01,3.107,0h.087v.088c-.009.827-.018,1.733-.028,2.69V55.8l-.024.027-.427.48-.854.958-.029.032h-.042l-1.635.014h-.045l-.027-.034-1.318-1.705-.017-.021,0-.025q.033-1.086.057-1.863a5.635,5.635,0,0,1,.04-.654" transform="translate(-28.266 -10.974)" fill="#263238"/>
            <path id="Trazado_165535" data-name="Trazado 165535" d="M140.723,56.053a.991.991,0,0,1-.152-.071,4.334,4.334,0,0,0-.416-.185,4.135,4.135,0,0,0-2.935-.029c-.18.067-.323.13-.42.177a.909.909,0,0,1-.153.068.762.762,0,0,1,.142-.091,3.5,3.5,0,0,1,.415-.2,3.914,3.914,0,0,1,2.968.029,3.45,3.45,0,0,1,.411.2.775.775,0,0,1,.14.094" transform="translate(-28.302 -11.484)" fill="#263238"/>
            <path id="Trazado_165536" data-name="Trazado 165536" d="M140.755,55.229a.99.99,0,0,1-.152-.071,4.337,4.337,0,0,0-.416-.185,4.136,4.136,0,0,0-2.935-.029c-.18.067-.323.13-.42.177a.91.91,0,0,1-.153.068.761.761,0,0,1,.142-.091,3.318,3.318,0,0,1,.415-.2,3.914,3.914,0,0,1,2.968.029,3.319,3.319,0,0,1,.412.205.792.792,0,0,1,.14.094" transform="translate(-28.309 -11.314)" fill="#263238"/>
            <path id="Trazado_165537" data-name="Trazado 165537" d="M140.738,54.444a.991.991,0,0,1-.152-.071c-.1-.048-.237-.115-.416-.185a4.13,4.13,0,0,0-2.935-.029c-.18.066-.323.129-.42.176a.972.972,0,0,1-.153.069.671.671,0,0,1,.142-.091,3.3,3.3,0,0,1,.415-.2,3.924,3.924,0,0,1,2.968.029,3.319,3.319,0,0,1,.412.205.752.752,0,0,1,.14.094" transform="translate(-28.306 -11.151)" fill="#263238"/>
            <path id="Trazado_165538" data-name="Trazado 165538" d="M160.745,76.136s-1.6,14.625.457,22.633l19.542-.855s-4.187-14.427-1.616-20.819Z" transform="translate(-33.171 -15.77)" fill="#ebebeb"/>
            <path id="Trazado_165539" data-name="Trazado 165539" d="M161,75.543s.134,15.79.937,20.608l19.8-.936s-1.74-15.523-1.07-19.671Z" transform="translate(-33.346 -15.647)" fill="#fdd835"/>
            <path id="Trazado_165540" data-name="Trazado 165540" d="M178.571,83.9c0,.073-2.968.311-6.636.531s-6.649.341-6.654.268,2.967-.311,6.637-.531,6.648-.341,6.653-.268" transform="translate(-34.233 -17.374)" fill="#fff"/>
            <path id="Trazado_165541" data-name="Trazado 165541" d="M178.578,88.121c0,.074-2.968.312-6.637.533s-6.648.34-6.653.267,2.967-.311,6.637-.531,6.648-.341,6.653-.269" transform="translate(-34.235 -18.247)" fill="#fff"/>
            <path id="Trazado_165542" data-name="Trazado 165542" d="M175.826,92.259a4.667,4.667,0,0,1-1.1.16c-.683.065-1.629.136-2.674.2s-1.993.1-2.679.122a4.663,4.663,0,0,1-1.115-.027,4.748,4.748,0,0,1,1.1-.159c.684-.065,1.629-.137,2.675-.2s1.992-.105,2.679-.122a4.694,4.694,0,0,1,1.115.026" transform="translate(-34.849 -19.102)" fill="#fff"/>
            <path id="Trazado_165543" data-name="Trazado 165543" d="M204.437,43.152c0,.114-11.584.206-25.87.206s-25.873-.092-25.873-.206,11.582-.206,25.873-.206,25.87.092,25.87.206" transform="translate(-31.626 -8.895)" fill="#263238"/>
            <path id="Trazado_165544" data-name="Trazado 165544" d="M171.588,49.1c0,.114-4.344.206-9.7.206s-9.7-.092-9.7-.206,4.343-.206,9.7-.206,9.7.092,9.7.206" transform="translate(-31.521 -10.127)" fill="#263238"/>
            <path id="Trazado_165545" data-name="Trazado 165545" d="M187.7,49.1a17.115,17.115,0,0,1-3.739.206,17.109,17.109,0,0,1-3.739-.206,17.109,17.109,0,0,1,3.739-.206,17.115,17.115,0,0,1,3.739.206" transform="translate(-37.329 -10.127)" fill="#263238"/>
            <path id="Trazado_165546" data-name="Trazado 165546" d="M324.979,93.572a.579.579,0,0,1-.032-.18c-.014-.144-.032-.318-.052-.53q-.059-.753-.161-2.041c-.124-1.812-.3-4.368-.514-7.511-.4-6.377-.94-15.125-1.54-24.789-.553-9.669-1.054-18.421-1.419-24.8-.16-3.146-.29-5.7-.383-7.519q-.052-1.289-.083-2.045c0-.213-.008-.389-.011-.532a.092.092,0,1,1,.042,0c.014.144.032.318.052.53q.059.753.161,2.041c.124,1.812.3,4.367.514,7.51.4,6.377.94,15.126,1.54,24.792.553,9.666,1.054,18.416,1.419,24.795.16,3.146.29,5.706.383,7.519q.052,1.29.083,2.046c0,.213.008.388.011.533a.615.615,0,0,1-.01.182" transform="translate(-66.442 -4.856)" fill="#263238"/>
            <path id="Trazado_165547" data-name="Trazado 165547" d="M277.418.693s-.155.013-.459.02L275.61.731l-5.186.027L251.353.782,188.432.7,123.294.5l.033,0a15.677,15.677,0,0,0-8.282,5.162,15.3,15.3,0,0,0-3.219,6.643,15.937,15.937,0,0,0-.306,4.667c.048.534.1.939.144,1.209s.053.412.053.412a10.964,10.964,0,0,1-.276-1.613,15.633,15.633,0,0,1,3.434-11.459A15.867,15.867,0,0,1,123.262.219l.016,0h.017l65.138.077,62.92.2L270.425.6l5.185.051,1.349.023c.3.008.459.022.459.022" transform="translate(-23.065 -0.045)" fill="#263238"/>
          </g>
        </g>
        <g id="Grupo_56681" data-name="Grupo 56681">
          <g id="Grupo_56680" data-name="Grupo 56680" clip-path="url(#clip-path)">
            <path id="Trazado_165548" data-name="Trazado 165548" d="M339.255,386.674l-1.287,16.278s-16.083,5.168-16.176,8.181l31.461.414.93-24.906Z" transform="translate(-66.651 -80.082)" fill="#ffa726"/>
            <path id="Trazado_165549" data-name="Trazado 165549" d="M354.029,405.11a1.286,1.286,0,0,1,.933,1.441,1.237,1.237,0,0,1-1.42.938,1.357,1.357,0,0,1-.98-1.531,1.283,1.283,0,0,1,1.585-.811" transform="translate(-73.016 -83.898)" fill="#ebebeb"/>
            <path id="Trazado_165550" data-name="Trazado 165550" d="M353.238,417.393l-.063-2.525-29.795.183s-1.709,1.017-1.663,2Z" transform="translate(-66.635 -85.929)" fill="#ebebeb"/>
            <path id="Trazado_165551" data-name="Trazado 165551" d="M341.544,406.989c.009.154.781.2,1.552.672.784.452,1.194,1.106,1.334,1.041.141-.034-.116-.947-1.06-1.5s-1.862-.35-1.825-.211" transform="translate(-70.741 -84.264)" fill="#263238"/>
            <path id="Trazado_165552" data-name="Trazado 165552" d="M337.431,408.86c-.031.15.643.392,1.185,1.026.561.618.714,1.318.867,1.307.145.02.224-.884-.465-1.66s-1.587-.819-1.587-.672" transform="translate(-69.889 -84.67)" fill="#263238"/>
            <path id="Trazado_165553" data-name="Trazado 165553" d="M334.874,413.25c.14.029.331-.746-.09-1.576s-1.148-1.143-1.209-1.013c-.083.128.4.567.731,1.254.351.679.414,1.326.568,1.336" transform="translate(-69.089 -85.051)" fill="#263238"/>
            <path id="Trazado_165554" data-name="Trazado 165554" d="M341.751,402.182c.068.138.768-.1,1.638-.063.872.015,1.557.287,1.632.152.086-.113-.591-.663-1.617-.687s-1.732.48-1.653.6" transform="translate(-70.783 -83.177)" fill="#263238"/>
            <path id="Trazado_165555" data-name="Trazado 165555" d="M341.557,397.518a2.96,2.96,0,0,0,1.577-.056,7.093,7.093,0,0,0,1.634-.557,7.459,7.459,0,0,0,.891-.507,1.946,1.946,0,0,0,.465-.385.67.67,0,0,0,.046-.82.844.844,0,0,0-.684-.331,2.049,2.049,0,0,0-.588.1,5.634,5.634,0,0,0-.971.366,5.569,5.569,0,0,0-1.426,1c-.71.7-.942,1.28-.889,1.308.071.048.412-.443,1.139-1.024a6.294,6.294,0,0,1,1.382-.835,5.84,5.84,0,0,1,.9-.306c.331-.1.614-.109.7.037.032.056.037.078-.029.178a1.6,1.6,0,0,1-.342.281,8.491,8.491,0,0,1-.819.5,8.8,8.8,0,0,1-1.506.63,10.783,10.783,0,0,0-1.482.422" transform="translate(-70.744 -81.785)" fill="#263238"/>
            <path id="Trazado_165556" data-name="Trazado 165556" d="M341.25,397.186a2.515,2.515,0,0,0,.37-1.536,5.1,5.1,0,0,0-.7-2.665,1.3,1.3,0,0,0-1.03-.766.736.736,0,0,0-.645.459,2.152,2.152,0,0,0-.144.584,3.5,3.5,0,0,0,.031,1.062,3.62,3.62,0,0,0,.722,1.609c.64.8,1.287.962,1.3.909.049-.078-.5-.359-.989-1.129a3.634,3.634,0,0,1-.544-1.467,3.257,3.257,0,0,1,0-.913c.04-.335.157-.61.283-.579.156-.007.43.236.567.5a5.183,5.183,0,0,1,.416.843,5.644,5.644,0,0,1,.353,1.564c.071.923-.076,1.5.009,1.525" transform="translate(-70.23 -81.237)" fill="#263238"/>
            <path id="Trazado_165557" data-name="Trazado 165557" d="M426.074,383.266l3.636,19.01,7.212,14.206a1.984,1.984,0,0,1-2.8,2.59c-3.483-2.149-16.258-10.115-16.446-11.521-.218-1.629-5.167-19.8-5.167-19.8Z" transform="translate(-85.439 -79.383)" fill="#ffa726"/>
            <path id="Trazado_165558" data-name="Trazado 165558" d="M437.206,425.215l-18.531-12.931.173.8a2.984,2.984,0,0,0,1.1,1.743c1.5,1.153,5.731,4.247,15.392,10.265a1.981,1.981,0,0,0,1.867.12" transform="translate(-86.717 -85.393)" fill="#ebebeb"/>
            <path id="Trazado_165559" data-name="Trazado 165559" d="M421.528,405.224a1.2,1.2,0,0,1,.65,1.463,1.152,1.152,0,0,1-1.444.657,1.265,1.265,0,0,1-.681-1.552,1.2,1.2,0,0,1,1.579-.517" transform="translate(-86.985 -83.913)" fill="#ebebeb"/>
            <path id="Trazado_165560" data-name="Trazado 165560" d="M434.339,418.6a4.279,4.279,0,0,1,3.432-2.714c.006-.05-.265-.146-.721-.113a3.162,3.162,0,0,0-2.655,2.1c-.137.437-.106.722-.056.728" transform="translate(-89.953 -86.115)" fill="#263238"/>
            <path id="Trazado_165561" data-name="Trazado 165561" d="M436.732,421.663c.108.063.583-.684,1.5-1.174a16.3,16.3,0,0,1,1.8-.636,2.2,2.2,0,0,0-2,.263c-1.043.566-1.406,1.518-1.3,1.547" transform="translate(-90.453 -86.935)" fill="#263238"/>
            <path id="Trazado_165562" data-name="Trazado 165562" d="M430.3,415.07A19.567,19.567,0,0,1,432.5,413.1a19.776,19.776,0,0,1,2.666-1.258,5.42,5.42,0,0,0-4.86,3.226" transform="translate(-89.123 -85.294)" fill="#263238"/>
            <path id="Trazado_165563" data-name="Trazado 165563" d="M428.3,408.361c.075.1,1.026-.559,2.376-.9,1.345-.36,2.5-.247,2.513-.373a4.92,4.92,0,0,0-4.89,1.273" transform="translate(-88.71 -84.271)" fill="#263238"/>
            <path id="Trazado_165564" data-name="Trazado 165564" d="M426.776,401.359a6.3,6.3,0,0,1,5.093-.913c.023-.046-.235-.239-.725-.4a4.323,4.323,0,0,0-3.825.686c-.4.319-.58.589-.542.625" transform="translate(-88.394 -82.822)" fill="#263238"/>
            <path id="Trazado_165565" data-name="Trazado 165565" d="M428.684,398.226a1.681,1.681,0,0,0-.128-.721,5.082,5.082,0,0,0-.972-1.751,2.254,2.254,0,0,0-1.172-.85.8.8,0,0,0-.84.362,1.294,1.294,0,0,0-.116.919A2.8,2.8,0,0,0,428.4,398.2a3.252,3.252,0,0,0,2.765-2.334,1.13,1.13,0,0,0-.146-.928.781.781,0,0,0-.886-.232,2.775,2.775,0,0,0-1.108.916,5.664,5.664,0,0,0-.974,1.748,1.732,1.732,0,0,0-.151.716,9.011,9.011,0,0,1,1.354-2.269,2.588,2.588,0,0,1,.985-.775.416.416,0,0,1,.484.124.775.775,0,0,1,.06.616,2.9,2.9,0,0,1-2.421,2,2.432,2.432,0,0,1-2.526-1.678.939.939,0,0,1,.053-.645.433.433,0,0,1,.461-.207,2.044,2.044,0,0,1,1.005.7,7.523,7.523,0,0,1,1.326,2.275" transform="translate(-88.114 -81.742)" fill="#263238"/>
            <path id="Trazado_165566" data-name="Trazado 165566" d="M342.864,196.587c-.2-.006-2.612,159.486-2.612,159.486l19.272-.666L366.195,277l1.6-57.564,13.114,53.24,16.355,83.561,19.246-4.833L392.019,195.549l-23.061-4.462Z" transform="translate(-70.474 -39.579)" fill="#263238"/>
            <path id="Trazado_165567" data-name="Trazado 165567" d="M388.823,66.73c2.306-4.557,3.034-12.733.388-17.263s-8-7.8-13.027-9.289a4.347,4.347,0,0,0-2.583-.165,1.735,1.735,0,0,0-1.223,2.024,10.983,10.983,0,0,0-3.141-1.815,3.726,3.726,0,0,0-3.46.489,2.287,2.287,0,0,0-.332,3.221,3.932,3.932,0,0,0-5.349,4.844,12.492,12.492,0,0,0,2.567,4.033,3.526,3.526,0,0,1,.809,3.528" transform="translate(-74.543 -8.259)" fill="#263238"/>
            <path id="Trazado_165568" data-name="Trazado 165568" d="M370.531,105.213c.14-2.184.493-21.96.49-22.051,0,0-7.34-.909-7.658-8.209-.154-3.527.122-10.816.448-17.408A13.614,13.614,0,0,1,376.988,44.61l.7-.022c7.613.208,11.69,6.789,11.272,14.394L387.923,101.3" transform="translate(-75.252 -9.235)" fill="#ffbe9d"/>
            <path id="Trazado_165569" data-name="Trazado 165569" d="M373.012,92.427a17.654,17.654,0,0,0,9.423-3.107s-2.192,4.569-9.5,4.138Z" transform="translate(-77.243 -18.5)" fill="#eb996e"/>
            <path id="Trazado_165570" data-name="Trazado 165570" d="M365.485,66.9a1.044,1.044,0,0,0,1.039,1.021,1,1,0,0,0,1.046-.974,1.044,1.044,0,0,0-1.038-1.021,1,1,0,0,0-1.047.974" transform="translate(-75.7 -13.654)" fill="#263238"/>
            <path id="Trazado_165571" data-name="Trazado 165571" d="M366.055,65.075c.133.132.905-.477,2.028-.509,1.12-.048,1.962.5,2.08.362.058-.063-.081-.3-.448-.554a2.864,2.864,0,0,0-1.671-.458,2.752,2.752,0,0,0-1.609.575c-.337.276-.446.526-.381.584" transform="translate(-75.815 -13.238)" fill="#263238"/>
            <path id="Trazado_165572" data-name="Trazado 165572" d="M379.673,67.1a1.045,1.045,0,0,0,1.039,1.021,1,1,0,0,0,1.046-.974,1.043,1.043,0,0,0-1.038-1.021,1,1,0,0,0-1.047.974" transform="translate(-78.639 -13.696)" fill="#263238"/>
            <path id="Trazado_165573" data-name="Trazado 165573" d="M379.978,64.906c.134.132.907-.477,2.028-.509,1.121-.048,1.962.5,2.081.362.058-.063-.081-.3-.449-.554a2.863,2.863,0,0,0-1.67-.458,2.752,2.752,0,0,0-1.61.575c-.336.276-.446.526-.381.584" transform="translate(-78.698 -13.203)" fill="#263238"/>
            <path id="Trazado_165574" data-name="Trazado 165574" d="M374.418,73.421a7.387,7.387,0,0,0-1.833-.272c-.288-.021-.561-.07-.615-.264a1.464,1.464,0,0,1,.165-.856q.372-1.053.78-2.209a37.627,37.627,0,0,0,1.726-5.767,37.5,37.5,0,0,0-2.187,5.615q-.389,1.163-.744,2.221a1.662,1.662,0,0,0-.113,1.13.719.719,0,0,0,.484.4,1.955,1.955,0,0,0,.488.052,7.279,7.279,0,0,0,1.848-.055" transform="translate(-76.953 -13.267)" fill="#263238"/>
            <path id="Trazado_165575" data-name="Trazado 165575" d="M378.459,76.717c-.183,0-.147,1.213-1.163,2.111s-2.317.8-2.322.974c-.014.077.3.228.845.225a3.038,3.038,0,0,0,1.94-.745,2.642,2.642,0,0,0,.9-1.767c.031-.511-.114-.808-.2-.8" transform="translate(-77.665 -15.89)" fill="#263238"/>
            <path id="Trazado_165576" data-name="Trazado 165576" d="M379.443,59.434c.12.3,1.237.123,2.558.24,1.325.092,2.4.444,2.565.164.074-.133-.121-.414-.559-.7a4.473,4.473,0,0,0-3.9-.308c-.477.21-.714.457-.661.6" transform="translate(-78.59 -12.122)" fill="#263238"/>
            <path id="Trazado_165577" data-name="Trazado 165577" d="M366.445,60.944c.205.249.97-.04,1.9-.082.928-.074,1.722.118,1.895-.154.076-.132-.056-.384-.408-.614a2.754,2.754,0,0,0-3.058.19c-.32.272-.42.538-.329.66" transform="translate(-75.892 -12.369)" fill="#263238"/>
            <path id="Trazado_165578" data-name="Trazado 165578" d="M395.108,69.512c.123-.058,4.972-1.64,4.968,3.358s-5.021,3.964-5.03,3.82.062-7.178.062-7.178" transform="translate(-81.823 -14.339)" fill="#ffbe9d"/>
            <path id="Trazado_165579" data-name="Trazado 165579" d="M396.973,75.219c.022-.016.087.061.234.128a.87.87,0,0,0,.651.014,2.156,2.156,0,0,0,1-1.932,2.894,2.894,0,0,0-.243-1.247,1,1,0,0,0-.655-.668.443.443,0,0,0-.514.238c-.067.14-.036.239-.062.248s-.107-.084-.067-.29a.556.556,0,0,1,.2-.313.654.654,0,0,1,.481-.127,1.225,1.225,0,0,1,.909.775,2.959,2.959,0,0,1,.3,1.394,2.262,2.262,0,0,1-1.272,2.157.934.934,0,0,1-.8-.133c-.155-.124-.181-.235-.163-.244" transform="translate(-82.221 -14.761)" fill="#eb996e"/>
            <path id="Trazado_165580" data-name="Trazado 165580" d="M359.911,47.8c-.584,6.481,7.4,9.186,10.9,5.563,1.62-1.675,3.033-3.77,5.239-4.525a5.932,5.932,0,0,1,4.556.48l.042.021a7.614,7.614,0,0,1,3.594,5.754c.445,3.2-.068,6.03.764,8.972a1.987,1.987,0,0,0,.617,1.134,1.587,1.587,0,0,0,1.977-.5,6.167,6.167,0,0,0,1.254-3.3,20.553,20.553,0,0,0-.3-8.1,14,14,0,0,0-4.064-6.939,13.258,13.258,0,0,0-9.4-3.223,16.283,16.283,0,0,0-9.331,3.668,9.537,9.537,0,0,0-2.957,3.628" transform="translate(-74.54 -8.932)" fill="#263238"/>
            <path id="Trazado_165581" data-name="Trazado 165581" d="M365.651,44.519a1.462,1.462,0,0,0-.691.029,3.43,3.43,0,0,0-1.652.919,4.243,4.243,0,0,0-1.241,2.517,4.8,4.8,0,0,0,.956,3.294,6.278,6.278,0,0,0,2.7,2.109,8.5,8.5,0,0,0,2.727.606,10.589,10.589,0,0,0,1.871-.057A2.086,2.086,0,0,0,371,53.8c0-.071-.977.071-2.521-.076a8.881,8.881,0,0,1-2.61-.66,6.123,6.123,0,0,1-2.532-2.009,4.544,4.544,0,0,1-.915-3.031,4.083,4.083,0,0,1,1.082-2.364,3.579,3.579,0,0,1,1.5-.966,6.187,6.187,0,0,0,.653-.174" transform="translate(-74.987 -9.216)" fill="#455a64"/>
            <path id="Trazado_165582" data-name="Trazado 165582" d="M370.473,41.633c0-.019-.183-.056-.477.084a1.577,1.577,0,0,0-.779,1.067A2.908,2.908,0,0,0,369.6,44.7a8.352,8.352,0,0,0,1.369,1.912,8.645,8.645,0,0,0,3.574,2.266,4.105,4.105,0,0,0,1.728.293c.012-.068-.652-.154-1.636-.549a9.487,9.487,0,0,1-3.388-2.275,8.818,8.818,0,0,1-1.334-1.813,2.763,2.763,0,0,1-.427-1.7,1.521,1.521,0,0,1,.589-.99c.234-.161.406-.181.4-.212" transform="translate(-76.464 -8.619)" fill="#455a64"/>
            <path id="Trazado_165583" data-name="Trazado 165583" d="M301.435,121.375l-34.374-3.262-5.442-1.307s-12.432-2.223-13.6-2.589c-1.349-.423-1.877.126-2,.634-.19.791.593,1.638,1.739,2.036.4.138,6.733,2.058,6.733,2.058a15.671,15.671,0,0,0-2.088.692c-1.475.566-2.835,2.551-3.465,4.826s-.606,2.968.267,3.254a1.169,1.169,0,0,0,.988-.177,2.311,2.311,0,0,0,.975-1.326c1.059-3.631,3.291-4,3.291-4l.712.171s-2.251,1.705-2.134,3.658a2.232,2.232,0,0,0,.212.831,2.957,2.957,0,0,0,3.449,3.76c.489-.1,1.011-.416,1.062-.913a1.573,1.573,0,0,0-.189-.76,2.429,2.429,0,0,1-.137-.4l2.061.2s4.655.2,6.671.518l32.4,8.386a8.3,8.3,0,1,0,2.863-16.3" transform="translate(-50.951 -23.626)" fill="#ffbe9d"/>
            <path id="Trazado_165584" data-name="Trazado 165584" d="M268.944,119.882a1.724,1.724,0,0,1-1.42,1.422c-.7.175-1.434.108-2.143.232-2.119.371-3.7,2.374-5.834,2.643-.3.037-.676-.01-.776-.293-.093-.262.127-.522.327-.714l5.151-4.925" transform="translate(-53.593 -24.491)" fill="#ffbe9d"/>
            <path id="Trazado_165585" data-name="Trazado 165585" d="M264.2,118.246a2.83,2.83,0,0,0-.611.476c-.376.325-.91.806-1.564,1.4l-2.283,2.123-.656.618c-.193.212-.539.4-.584.894a.6.6,0,0,0,.388.551,1.23,1.23,0,0,0,.579.072,4.684,4.684,0,0,0,1.022-.244,27.439,27.439,0,0,0,3.353-1.87,5.376,5.376,0,0,1,1.5-.566c.492-.094.978-.1,1.427-.147a2.508,2.508,0,0,0,1.916-.919c.3-.445.219-.768.205-.756a2.084,2.084,0,0,1-.331.66,2.432,2.432,0,0,1-1.815.729c-.435.031-.925.016-1.462.1a5.532,5.532,0,0,0-1.617.565,31.749,31.749,0,0,1-3.317,1.819,4.384,4.384,0,0,1-.923.224c-.294.033-.552-.064-.531-.223,0-.175.232-.4.454-.611l.646-.627,2.222-2.186c.629-.626,1.132-1.139,1.474-1.5a2.848,2.848,0,0,0,.5-.59" transform="translate(-53.541 -24.491)" fill="#eb996e"/>
            <path id="Trazado_165586" data-name="Trazado 165586" d="M255.974,124.408a2.929,2.929,0,0,0-1.345.035,2.274,2.274,0,0,0-1.14.851,5.832,5.832,0,0,0-.779,1.631,9.246,9.246,0,0,1-.712,1.736,2.983,2.983,0,0,1-1.076,1.12,1.166,1.166,0,0,1-1.046.065c-.228-.11-.316-.22-.309-.227.013-.022.125.059.346.132a1.1,1.1,0,0,0,.918-.132,2.955,2.955,0,0,0,.958-1.079,10.135,10.135,0,0,0,.673-1.7,5.651,5.651,0,0,1,.835-1.692,2.377,2.377,0,0,1,1.281-.882,2.112,2.112,0,0,1,1.047-.009c.239.063.356.138.35.151" transform="translate(-51.691 -25.724)" fill="#eb996e"/>
            <path id="Trazado_165587" data-name="Trazado 165587" d="M247.668,117.421a7.458,7.458,0,0,1,1.262.373l3.015.975,3.03.931a7.541,7.541,0,0,1,1.248.418,5.862,5.862,0,0,1-1.3-.239c-.792-.189-1.876-.487-3.06-.859s-2.242-.752-3-1.051a5.911,5.911,0,0,1-1.2-.548" transform="translate(-51.298 -24.319)" fill="#eb996e"/>
            <path id="Trazado_165588" data-name="Trazado 165588" d="M258.167,126.823c.014.014-.088.123-.257.323a1.222,1.222,0,0,0-.349.956.652.652,0,0,0,.423.491,3.462,3.462,0,0,0,.836.2,1.473,1.473,0,0,1,.942.458,1.254,1.254,0,0,1,.2,1.118,1.421,1.421,0,0,1-.737.855,1.779,1.779,0,0,1-1.024.193,5.782,5.782,0,0,1-1.609-.53,3.378,3.378,0,0,1-.94-.645c-.187-.2-.239-.348-.228-.353s.1.111.3.278a4.026,4.026,0,0,0,.948.552,6.209,6.209,0,0,0,1.56.457,1.411,1.411,0,0,0,1.48-.881,1.008,1.008,0,0,0-.148-.886,1.258,1.258,0,0,0-.787-.381,3.482,3.482,0,0,1-.884-.236.85.85,0,0,1-.513-.659,1.279,1.279,0,0,1,.458-1.055c.2-.184.32-.264.331-.253" transform="translate(-52.904 -26.268)" fill="#eb996e"/>
            <path id="Trazado_165589" data-name="Trazado 165589" d="M258.962,131.8c0-.013.147-.006.346.146a1.146,1.146,0,0,1,.42.936,1.527,1.527,0,0,1-.859,1.25,2.5,2.5,0,0,1-1.855.1,3.027,3.027,0,0,1-1.519-1.066,2.886,2.886,0,0,1-.553-1.41,2.734,2.734,0,0,1,.071-1.013c.064-.232.13-.347.144-.342a4.786,4.786,0,0,0-.032,1.329,2.847,2.847,0,0,0,.561,1.288,2.889,2.889,0,0,0,1.4.963,2.323,2.323,0,0,0,1.669-.065,1.357,1.357,0,0,0,.783-1.047,1.089,1.089,0,0,0-.3-.847c-.159-.159-.287-.2-.278-.223" transform="translate(-52.801 -27.009)" fill="#eb996e"/>
            <path id="Trazado_165590" data-name="Trazado 165590" d="M266.629,127.3a1.074,1.074,0,0,1,.2-.6,2.481,2.481,0,0,1,1.206-1.067l0,.232a7.461,7.461,0,0,1-.8-.4A5.651,5.651,0,0,1,265,123.335a14.279,14.279,0,0,0,2.364,1.9c.262.152.522.285.768.4l.271.125-.276.106a2.6,2.6,0,0,0-1.166.918c-.219.308-.3.528-.33.517" transform="translate(-54.886 -25.545)" fill="#eb996e"/>
            <path id="Trazado_165591" data-name="Trazado 165591" d="M253.441,124.256c.048-.05.425.335.489.964s-.216,1.085-.274,1.047.079-.472.013-1.019-.291-.947-.228-.992" transform="translate(-52.491 -25.735)" fill="#eb996e"/>
            <path id="Trazado_165592" data-name="Trazado 165592" d="M310.41,134.227l22.419-5.175s-1.16,41.1-1.156,41.491-1.851,1.035-1.692,4.018l1.611,3.548,49.162.66,1.326-39.919,4.486-30.953-10.313-6.381-3.63-4.925-14.18,14.958-3.527-12.765.1-3.8-3.505,3.8-18.907,5.453-24.98,11.647-16.889-1.29-4.385,14.777Z" transform="translate(-59.31 -19.673)" fill="#f57c00"/>
            <path id="Trazado_165593" data-name="Trazado 165593" d="M373.591,108.033a2.283,2.283,0,0,0-1.015,1.132,4.566,4.566,0,0,0-.308,1.726,6.518,6.518,0,0,1-.335,2.352l-.169.411-.178-.41a22.51,22.51,0,0,1-1.108-3.636c-.6-2.569-.98-4.921-1.235-6.625a16.566,16.566,0,0,1-.3-2.775,21.142,21.142,0,0,1,.585,2.727c.328,1.688.756,4.028,1.349,6.579a25,25,0,0,0,1.052,3.576l-.347,0a6.547,6.547,0,0,0,.366-2.215,4.523,4.523,0,0,1,.417-1.808,2.059,2.059,0,0,1,.809-.9c.253-.136.41-.144.413-.13" transform="translate(-76.414 -20.755)" fill="#263238"/>
            <path id="Trazado_165594" data-name="Trazado 165594" d="M394.593,102.169a3.353,3.353,0,0,1-.48.689c-.33.426-.817,1.034-1.425,1.779-1.217,1.491-2.92,3.531-4.821,5.769l-3.027,3.531-.233.274-.088-.347c-.43-1.722-.779-3.179-1.013-4.2-.1-.513-.382-.806-.659-.812a.608.608,0,0,0-.381.109c-.02.006.055-.209.385-.226a.709.709,0,0,1,.522.213,1.531,1.531,0,0,1,.346.656c.3,1.013.7,2.452,1.159,4.167l-.32-.073,2.995-3.558c1.9-2.237,3.639-4.248,4.913-5.69.637-.722,1.158-1.3,1.525-1.694a3.306,3.306,0,0,1,.6-.585" transform="translate(-79.217 -21.161)" fill="#263238"/>
            <path id="Trazado_165595" data-name="Trazado 165595" d="M371.362,171.348a2.591,2.591,0,0,1-.04-.532c-.009-.391-.02-.9-.034-1.525-.025-1.325-.025-3.242,0-5.611.055-4.737.28-11.283.817-18.495s1.292-13.721,1.943-18.414c.324-2.348.61-4.243.831-5.549.108-.619.194-1.118.261-1.5a2.592,2.592,0,0,1,.119-.52,2.532,2.532,0,0,1-.036.533c-.047.388-.108.89-.184,1.514-.172,1.363-.41,3.252-.7,5.564-.576,4.7-1.28,11.2-1.821,18.407s-.807,13.737-.936,18.47c-.055,2.329-.1,4.232-.134,5.606-.018.628-.033,1.134-.044,1.525a2.587,2.587,0,0,1-.043.532" transform="translate(-76.898 -24.689)" fill="#263238"/>
            <path id="Trazado_165596" data-name="Trazado 165596" d="M366.24,195.279a9.239,9.239,0,0,1-.367-3.528,12.7,12.7,0,0,1,.409-3.52,19.18,19.18,0,0,1,0,3.529c-.063,1.937.067,3.5-.046,3.518" transform="translate(-75.779 -38.987)" fill="#263238"/>
            <path id="Trazado_165597" data-name="Trazado 165597" d="M382.932,182.568a8.48,8.48,0,0,1-1.265.477c-.822.285-2.023.663-3.518,1.1a115.993,115.993,0,0,1-23.908,4.248c-1.552.106-2.81.166-3.68.182a8.621,8.621,0,0,1-1.353-.012,8.474,8.474,0,0,1,1.344-.149l3.665-.312c3.091-.285,7.354-.786,12.018-1.612s8.836-1.828,11.836-2.627l3.548-.97a8.526,8.526,0,0,1,1.313-.324" transform="translate(-72.329 -37.813)" fill="#263238"/>
            <path id="Trazado_165598" data-name="Trazado 165598" d="M344.62,142.08c-.114,0-.186-5.833-.16-13.026s.138-13.026.252-13.025.186,5.832.16,13.027-.138,13.025-.252,13.025" transform="translate(-71.344 -24.032)" fill="#263238"/>
            <path id="Trazado_165599" data-name="Trazado 165599" d="M410.157,110.554s6.2,5.314,6.6,8.321c.315,2.326,6.407,24.171,9.152,33.949a14.266,14.266,0,0,1-.519,9.223l-7.915,19.586-12.808-7.577,6.4-18.369-5.3-15.586Z" transform="translate(-83.816 -22.898)" fill="#f57c00"/>
            <path id="Trazado_165600" data-name="Trazado 165600" d="M416.185,182.03a1.157,1.157,0,0,1-.241-.115l-.683-.377-2.59-1.483-9.375-5.465-.112-.066.043-.124c1.792-5.178,3.97-11.473,6.362-18.384v.138l-2.335-6.268-5.294-14.267.006.015c-1.624-3.409-3.029-6.7-3.42-9.853a13.819,13.819,0,0,1,.132-4.427,13.061,13.061,0,0,1,1.286-3.562,14.815,14.815,0,0,1,3.308-4.175,11.813,11.813,0,0,1,1.112-.882,2.821,2.821,0,0,1,.411-.266,2.791,2.791,0,0,1-.373.316c-.251.2-.619.5-1.066.924a15.293,15.293,0,0,0-3.184,4.191,12.946,12.946,0,0,0-1.218,3.507,13.641,13.641,0,0,0-.088,4.331c.408,3.089,1.81,6.332,3.447,9.73l0,.007,0,.009,5.322,14.257,2.33,6.27.025.069-.024.069c-2.424,6.9-4.63,13.185-6.446,18.354l-.069-.189,9.3,5.585,2.546,1.556.66.416a1.16,1.16,0,0,1,.217.156" transform="translate(-82.524 -23.295)" fill="#263238"/>
            <g id="Grupo_56673" data-name="Grupo 56673" transform="translate(300.65 87.667)" opacity="0.3">
              <g id="Grupo_56672" data-name="Grupo 56672">
                <g id="Grupo_56671" data-name="Grupo 56671" clip-path="url(#clip-path-4)">
                  <path id="Trazado_165601" data-name="Trazado 165601" d="M379.19,113.426a1.905,1.905,0,0,1,1.9,1.393c.158.855.04,1.749.262,2.59s.987,1.658,1.838,1.481a2.266,2.266,0,0,0,1.215-.957,29.736,29.736,0,0,0,3.995-7.365c-.024.061-4.39,5.042-4.39,5.042a14.618,14.618,0,0,0-.986-3.669c-.147-.378-.315-1.025-.683-1.194-.6-.273-1.385.6-1.779,1.123a10.436,10.436,0,0,1-1.376,1.479" transform="translate(-379.189 -110.568)"/>
                </g>
              </g>
            </g>
            <g id="Grupo_56676" data-name="Grupo 56676" transform="translate(293.483 85.928)" opacity="0.3">
              <g id="Grupo_56675" data-name="Grupo 56675">
                <g id="Grupo_56674" data-name="Grupo 56674" clip-path="url(#clip-path-5)">
                  <path id="Trazado_165602" data-name="Trazado 165602" d="M370.158,108.45a25.7,25.7,0,0,0,1.6,8.153,1.824,1.824,0,0,0,.429.711.656.656,0,0,0,.771.111,9.191,9.191,0,0,0,.786-1.686c.407-1.132,2.05-1.237,2.05-1.237a29.654,29.654,0,0,0-1.074-3.774,1.046,1.046,0,0,0-1.022-.658,1.7,1.7,0,0,0-1.127,1.292,18.333,18.333,0,0,1-.516,3.677c-.771-2.165-1.4-4.773-1.905-6.664" transform="translate(-370.149 -108.375)"/>
                </g>
              </g>
            </g>
            <g id="Grupo_56679" data-name="Grupo 56679" transform="translate(279.842 142.655)" opacity="0.3">
              <g id="Grupo_56678" data-name="Grupo 56678">
                <g id="Grupo_56677" data-name="Grupo 56677" clip-path="url(#clip-path-6)">
                  <path id="Trazado_165603" data-name="Trazado 165603" d="M378.756,183.332a1.73,1.73,0,0,0,.379-2.446,2.643,2.643,0,0,0-2.475-.942,5.594,5.594,0,0,0-2.508,1.131c-.752.543-1.446,1.166-2.236,1.652a12.866,12.866,0,0,1-6.59,1.5,39.1,39.1,0,0,0-6.825.305,7.845,7.845,0,0,0-5.556,3.6s19.49-1.418,25.811-4.8" transform="translate(-352.945 -179.921)"/>
                </g>
              </g>
            </g>
            <path id="Trazado_165604" data-name="Trazado 165604" d="M398.831,214.67a16.121,16.121,0,0,1-5.106-5.262.205.205,0,0,0,.006-.172.284.284,0,0,0-.194-.117,27.6,27.6,0,0,1-1.495-2.62c1.591-1.035,3.67-2.6,1.409-2.922-2.783-.4-4.772-1.749-5.056-2.49s.644-1.406,1.377-.932a10.239,10.239,0,0,0,2.679.924,6.678,6.678,0,0,0,2.268.144c.471-.052,2.13-1.19,3.9-2.023a1.386,1.386,0,0,1,.808-.107l.678-.046a2.1,2.1,0,0,0,1.722-1.129l2.571-4.949,7.77,4.6-6.15,8.536a102.752,102.752,0,0,1-7.193,8.568" transform="translate(-80.435 -39.968)" fill="#ffbe9d"/>
            <path id="Trazado_165605" data-name="Trazado 165605" d="M401.308,218.912a6.358,6.358,0,0,1-1.792-.845,16.225,16.225,0,0,1-6.311-7.059,6.374,6.374,0,0,1-.641-1.875,20.728,20.728,0,0,0,8.744,9.779" transform="translate(-81.308 -43.316)" fill="#455a64"/>
            <path id="Trazado_165606" data-name="Trazado 165606" d="M371.292,222.323c-.006.013-.079-.01-.217-.068a2.578,2.578,0,0,1-.551-.35,4.654,4.654,0,0,1-1.269-2.016,32.906,32.906,0,0,1-.863-3.4c-.285-1.282-.582-2.7-.873-4.184-.584-2.976-1.03-5.686-1.315-7.653-.141-.983-.244-1.781-.3-2.333a3.472,3.472,0,0,1-.051-.864,3.547,3.547,0,0,1,.209.84q.178.951.434,2.311c.358,1.952.848,4.649,1.432,7.62.3,1.479.58,2.887.84,4.184.275,1.283.473,2.452.767,3.382a4.874,4.874,0,0,0,1.1,1.991c.39.377.678.5.66.538" transform="translate(-75.773 -41.727)" fill="#455a64"/>
            <path id="Trazado_165607" data-name="Trazado 165607" d="M371.4,205.221c0-.023.131-.048.351.025a1.4,1.4,0,0,1,.65,2.094,1.6,1.6,0,0,1-1.666.633,1.653,1.653,0,0,1-1.164-1.348,1.525,1.525,0,0,1,.5-1.362c.658-.566,1.25-.4,1.219-.362a2.469,2.469,0,0,0-1.013.569,1.257,1.257,0,0,0-.33,1.093,1.311,1.311,0,0,0,.894,1.012,1.252,1.252,0,0,0,1.254-.459,1.07,1.07,0,0,0,.119-1.1c-.293-.662-.843-.736-.814-.8" transform="translate(-76.543 -42.429)" fill="#455a64"/>
            <path id="Trazado_165608" data-name="Trazado 165608" d="M349.174,201.3a4.615,4.615,0,0,1,.208,1.826,9.832,9.832,0,0,1-4.1,7.618,4.625,4.625,0,0,1-1.638.833c-.033-.066.595-.376,1.463-1.066a10.765,10.765,0,0,0,3.982-7.4c.1-1.1.011-1.8.084-1.809" transform="translate(-71.177 -41.694)" fill="#455a64"/>
            <path id="Trazado_165609" data-name="Trazado 165609" d="M311.805,129.086a26.574,26.574,0,0,1,.4-3.939,26.7,26.7,0,0,1,.576-3.917,14.991,14.991,0,0,1-.167,3.968,15.041,15.041,0,0,1-.809,3.888" transform="translate(-64.576 -25.109)" fill="#263238"/>
            <path id="Trazado_165610" data-name="Trazado 165610" d="M290.68,119.721a1.131,1.131,0,0,1-.054.279c-.055.211-.124.473-.209.8-.206.735-.488,1.746-.844,3.014-.761,2.631-1.83,6.32-3.108,10.737l-.128-.223c4.483,1.113,9.885,2.018,15.646,3.08,2.87.534,5.641,1.117,8.193,1.752h-.093l16.084-3.638,4.684-1.021,1.257-.257a2.188,2.188,0,0,1,.44-.066,2.113,2.113,0,0,1-.424.134l-1.242.32-4.657,1.135-16.051,3.78-.046.01-.047-.011c-2.545-.623-5.307-1.2-8.173-1.732-5.752-1.06-11.165-1.989-15.655-3.141l-.181-.047.053-.176,3.251-10.7c.394-1.257.709-2.258.937-2.986l.26-.783a1.14,1.14,0,0,1,.107-.263" transform="translate(-59.252 -24.797)" fill="#263238"/>
          </g>
        </g>
        <path id="Trazado_165611" data-name="Trazado 165611" d="M11.554,350.719l-2.289,42.43,15.369,3.713,3.061-41.448Z" transform="translate(-1.919 -72.642)" fill="#aa6550"/>
        <path id="Trazado_165612" data-name="Trazado 165612" d="M8,403.777,5.387,415.292H23.074l.756-7.5Z" transform="translate(-1.116 -83.632)" fill="#26ccda"/>
        <g id="Grupo_56698" data-name="Grupo 56698">
          <g id="Grupo_56697" data-name="Grupo 56697" clip-path="url(#clip-path)">
            <path id="Trazado_165613" data-name="Trazado 165613" d="M23.56,416.039a12.378,12.378,0,0,1-2.577.147c-1.592.017-3.792-.025-6.216-.114l-6.206-.263a14.561,14.561,0,0,1-2.57-.207,12.562,12.562,0,0,1,2.578-.14c1.592-.013,3.791.031,6.216.121l6.2.258a14.658,14.658,0,0,1,2.571.2" transform="translate(-1.241 -86.051)" fill="#263238"/>
            <path id="Trazado_165614" data-name="Trazado 165614" d="M18.542,406.608a14.352,14.352,0,0,1-.006,3.728,14.287,14.287,0,0,1-.495,3.7,28.353,28.353,0,0,1,.5-7.424" transform="translate(-3.716 -84.218)" fill="#263238"/>
            <g id="Grupo_56684" data-name="Grupo 56684" transform="translate(4.271 329.55)" opacity="0.6">
              <g id="Grupo_56683" data-name="Grupo 56683">
                <g id="Grupo_56682" data-name="Grupo 56682" clip-path="url(#clip-path-8)">
                  <path id="Trazado_165615" data-name="Trazado 165615" d="M5.387,417.748H23.074l.169-1.672-17.537-.438-.319,1.91" transform="translate(-5.387 -415.638)" fill="#fff"/>
                </g>
              </g>
            </g>
            <path id="Trazado_165616" data-name="Trazado 165616" d="M85.752,376.737l3.73,28.113,13.6-.947-2.86-25.774Z" transform="translate(-17.761 -78.031)" fill="#aa6550"/>
            <path id="Trazado_165617" data-name="Trazado 165617" d="M104.149,407.152h0s15.283,5.164,15.536,7.951l-29.227.853-.262-7.642,1.081.214a21.721,21.721,0,0,0,12.872-1.376" transform="translate(-18.682 -84.331)" fill="#26ccda"/>
            <g id="Grupo_56687" data-name="Grupo 56687" transform="translate(74.117 325.26)" opacity="0.6">
              <g id="Grupo_56686" data-name="Grupo 56686">
                <g id="Grupo_56685" data-name="Grupo 56685" clip-path="url(#clip-path-9)">
                  <path id="Trazado_165618" data-name="Trazado 165618" d="M94.3,410.284a1.194,1.194,0,0,0-.786,1.386,1.149,1.149,0,0,0,1.368.791,1.26,1.26,0,0,0,.824-1.472,1.19,1.19,0,0,0-1.513-.665" transform="translate(-93.479 -410.227)" fill="#fff"/>
                </g>
              </g>
            </g>
            <g id="Grupo_56690" data-name="Grupo 56690" transform="translate(71.776 329.255)" opacity="0.6">
              <g id="Grupo_56689" data-name="Grupo 56689">
                <g id="Grupo_56688" data-name="Grupo 56688" clip-path="url(#clip-path-10)">
                  <path id="Trazado_165619" data-name="Trazado 165619" d="M90.527,417.637l.011-2.371,28.019.069s1.318.528,1.2,1.449Z" transform="translate(-90.527 -415.266)" fill="#fff"/>
                </g>
              </g>
            </g>
            <path id="Trazado_165620" data-name="Trazado 165620" d="M107.7,406.916c0,.143-.712.228-1.4.708-.7.461-1.046,1.09-1.178,1.037-.132-.024.056-.883.9-1.449s1.706-.428,1.679-.3" transform="translate(-21.765 -84.257)" fill="#263238"/>
            <path id="Trazado_165621" data-name="Trazado 165621" d="M111.807,408.42c.036.137-.574.4-1.041,1.016-.485.6-.589,1.261-.731,1.258-.134.026-.257-.806.339-1.564s1.426-.846,1.434-.71" transform="translate(-22.768 -84.582)" fill="#263238"/>
            <path id="Trazado_165622" data-name="Trazado 165622" d="M114.581,412.345c-.128.034-.348-.673,0-1.465s1-1.123,1.066-1.006c.084.115-.338.547-.61,1.2-.287.649-.311,1.251-.452,1.269" transform="translate(-23.693 -84.89)" fill="#263238"/>
            <path id="Trazado_165623" data-name="Trazado 165623" d="M106.808,406.268a2.746,2.746,0,0,1-1.464.036,6.563,6.563,0,0,1-1.545-.427,6.853,6.853,0,0,1-.854-.421,1.778,1.778,0,0,1-.452-.331.623.623,0,0,1-.088-.757.785.785,0,0,1,.616-.345,1.921,1.921,0,0,1,.551.06,5.156,5.156,0,0,1,2.3,1.132c.7.608.943,1.135.9,1.163-.063.049-.407-.388-1.112-.886a5.856,5.856,0,0,0-1.327-.7,5.324,5.324,0,0,0-.848-.235c-.312-.072-.576-.067-.651.073-.027.054-.03.074.037.163a1.451,1.451,0,0,0,.332.242,7.837,7.837,0,0,0,.786.419,8.16,8.16,0,0,0,1.431.5,10.084,10.084,0,0,1,1.4.309" transform="translate(-21.191 -83.682)" fill="#263238"/>
            <path id="Trazado_165624" data-name="Trazado 165624" d="M107.64,405.9a2.331,2.331,0,0,1-.427-1.4,4.746,4.746,0,0,1,.153-1.608,4.8,4.8,0,0,1,.347-.9,1.211,1.211,0,0,1,.913-.766.682.682,0,0,1,.623.39,1.973,1.973,0,0,1,.166.532,3.244,3.244,0,0,1,.03.986,3.362,3.362,0,0,1-.581,1.53c-.549.774-1.139.962-1.153.913-.05-.07.439-.36.856-1.1a3.378,3.378,0,0,0,.423-1.389,3.041,3.041,0,0,0-.052-.845c-.055-.309-.178-.556-.294-.521-.145,0-.385.243-.5.494a4.891,4.891,0,0,0-.339.8,5.278,5.278,0,0,0-.241,1.469c-.015.859.153,1.389.076,1.413" transform="translate(-22.203 -83.102)" fill="#263238"/>
            <path id="Trazado_165625" data-name="Trazado 165625" d="M22.975,197.252s-10.786,18.022-10.786,28.8L9.529,357.36l17.047,4.063,13-128.316S71.075,361.756,72.086,361.756s16.519-2.781,16.519-2.781L65.086,197.83Z" transform="translate(-1.974 -40.855)" fill="#263238"/>
            <path id="Trazado_165626" data-name="Trazado 165626" d="M31.532,238.024a1.758,1.758,0,0,1-.033.331c-.035.241-.082.56-.141.965-.138.874-.335,2.115-.587,3.7-.527,3.212-1.259,7.865-2.125,13.618-1.733,11.478-3.9,27.419-5.711,45.105-1.8,17.671-2.918,33.714-3.549,45.334-.317,5.81-.544,10.514-.678,13.766-.075,1.6-.134,2.86-.176,3.744-.024.408-.043.73-.057.973a1.8,1.8,0,0,1-.036.331,1.768,1.768,0,0,1-.012-.332c0-.243.006-.566.01-.975.021-.884.05-2.142.087-3.747.078-3.254.255-7.962.53-13.776.545-11.629,1.608-27.686,3.413-45.365s4.029-33.609,5.851-45.108c.909-5.749,1.69-10.4,2.273-13.6.289-1.58.515-2.818.674-3.688l.187-.957a1.719,1.719,0,0,1,.079-.324" transform="translate(-3.817 -49.3)" fill="#455a64"/>
            <path id="Trazado_165627" data-name="Trazado 165627" d="M68.984,240.764c.128-.023,5.328,28.794,11.614,64.356s11.28,64.421,11.153,64.444S86.424,340.776,80.136,305.2s-11.279-64.415-11.152-64.438" transform="translate(-14.288 -49.868)" fill="#455a64"/>
            <path id="Trazado_165628" data-name="Trazado 165628" d="M45.829,232.961a1.3,1.3,0,0,1-.178-.327c-.1-.22-.254-.546-.434-.971a34.428,34.428,0,0,1-1.265-3.7,37.643,37.643,0,0,1-1.218-12.818c.085-1.262.257-2.485.452-3.662.215-1.181.515-2.289.813-3.34.6-2.1,1.224-3.964,1.761-5.524s1-2.811,1.333-3.671l.394-.986a1.257,1.257,0,0,1,.166-.334,1.287,1.287,0,0,1-.087.362L47.244,199c-.306.94-.713,2.192-1.208,3.71-.5,1.568-1.1,3.438-1.671,5.533-.287,1.047-.577,2.153-.781,3.308-.188,1.162-.355,2.375-.439,3.623a39.737,39.737,0,0,0,1.089,12.712c.4,1.594.84,2.85,1.133,3.722a9.984,9.984,0,0,1,.462,1.355" transform="translate(-8.828 -40.933)" fill="#455a64"/>
            <path id="Trazado_165629" data-name="Trazado 165629" d="M52.752,214.33a1.557,1.557,0,0,1,.026.251c.01.192.023.419.037.7.028.645.065,1.513.112,2.593.079,2.253.189,5.388.321,9.135l-.11-.16,6.561,2.674-.18.013,5.328-3.244.346-.21-.1.158c.4-4.334.779-8.406,1.1-11.921l.181.2-9.81-.092-2.8-.048c-.3-.007-.545-.015-.75-.021a1.492,1.492,0,0,1-.272-.021,8.016,8.016,0,0,1,.946-.04l2.754-.048,9.928-.092.2,0-.017.2c-.312,3.516-.672,7.59-1.055,11.926l-.009.1-.09.053-.346.212-5.334,3.233-.086.053-.094-.04L53,227.172l-.108-.044,0-.114c-.058-3.8-.107-6.972-.142-9.254-.007-1.063-.013-1.917-.018-2.553a7.284,7.284,0,0,1,.018-.875" transform="translate(-10.922 -44.355)" fill="#455a64"/>
            <path id="Trazado_165630" data-name="Trazado 165630" d="M21.058,210.005c.01.016-.03.323-.113.882l-.369,2.4-1.366,8.443-.068-.172,4.956,3.676-.173-.033,6.024-1.677.308-.085-.144.141c1.153-3.928,2.235-7.618,3.17-10.8l.134.228-8.9-2.123-2.536-.626c-.591-.149-.913-.236-.924-.252a6.955,6.955,0,0,1,.867.155l2.515.524,9.059,1.969.188.041-.054.186L30.512,223.7l-.032.111-.112.031-.308.085-6.028,1.663-.094.025-.078-.058-4.929-3.711-.088-.067.02-.105c.642-3.494,1.179-6.418,1.567-8.527.188-.973.339-1.756.452-2.345a6.2,6.2,0,0,1,.178-.8" transform="translate(-3.903 -43.496)" fill="#455a64"/>
            <path id="Trazado_165631" data-name="Trazado 165631" d="M61.251,238.975A67.62,67.62,0,0,1,54,240.761a67.746,67.746,0,0,1-7.34,1.383,67.554,67.554,0,0,1,7.253-1.786,67.454,67.454,0,0,1,7.34-1.383" transform="translate(-9.664 -49.494)" fill="#455a64"/>
            <path id="Trazado_165632" data-name="Trazado 165632" d="M35.131,238.958a6.611,6.611,0,0,1-1.861,0,30.6,30.6,0,0,1-4.433-.7,30.006,30.006,0,0,1-4.293-1.31,6.717,6.717,0,0,1-1.674-.813,10.941,10.941,0,0,1,1.772.539c1.084.35,2.593.8,4.286,1.182s3.244.651,4.373.808a11.26,11.26,0,0,1,1.829.291" transform="translate(-4.737 -48.908)" fill="#455a64"/>
            <path id="Trazado_165633" data-name="Trazado 165633" d="M30.395,67.178c.588,1.7-1.423,3.144-3.175,3.546s-3.873.653-4.676,2.26c-.7,1.395.01,3.165-.623,4.589-1.205,2.708-6.072,2.142-7.025,4.95-.655,1.927,1.154,3.913.928,5.935-.2,1.742-1.79,2.927-3.19,3.982s-2.871,2.509-2.651,4.248c.255,2.008,2.706,3.4,2.482,5.411-.221,1.98-2.892,2.9-3.276,4.858-.456,2.319,2.448,3.811,3.382,5.982.713,1.659.273,3.8,1.477,5.142,1.235,1.379,3.424,1.108,5.235.725l18.049-3.826c-1.22-2.853-.073-6.192,1.667-8.76s4.056-4.739,5.55-7.459,1.985-6.357.029-8.765" transform="translate(-1.893 -13.914)" fill="#263238"/>
            <path id="Trazado_165634" data-name="Trazado 165634" d="M75.015,84.181a18.628,18.628,0,0,0-.591-2.85,2.852,2.852,0,0,0-.722-1.171c-.355-.339-.819-.124-1.113.363a8.812,8.812,0,0,0,0,7.317c.294.487.758.7,1.114.363a2.877,2.877,0,0,0,.722-1.172,18.677,18.677,0,0,0,.591-2.85,2.2,2.2,0,0,1,.062.8,7.62,7.62,0,0,1-.339,2.161,3.089,3.089,0,0,1-.787,1.361.97.97,0,0,1-.96.224,1.579,1.579,0,0,1-.763-.646,8.846,8.846,0,0,1,0-7.8,1.579,1.579,0,0,1,.763-.646.97.97,0,0,1,.96.224,3.082,3.082,0,0,1,.787,1.361,7.629,7.629,0,0,1,.339,2.162,2.2,2.2,0,0,1-.062.8" transform="translate(-14.773 -16.484)" fill="#263238"/>
            <path id="Trazado_165635" data-name="Trazado 165635" d="M37.419,96.891c-3.265-5.518-4.2-12.867-5.026-19.225-.389-2.992-1.071-7.252,1.033-9.124,2.254-2.005,2.471-5.1,5.061-6.644a7.959,7.959,0,0,1,8.546.1" transform="translate(-6.622 -12.573)" fill="#263238"/>
            <path id="Trazado_165636" data-name="Trazado 165636" d="M48.34,117.233h0a8.854,8.854,0,0,0,9.549-8.461c.2-4.819.375-9.691.375-9.691s7.3-.663,7.856-7.889.358-23.912.358-23.912A25.184,25.184,0,0,0,41.02,68.843L41.4,94.281l-.04,13.684c.035,4.59,2.408,8.9,6.984,9.267" transform="translate(-8.496 -13.371)" fill="#aa6550"/>
            <path id="Trazado_165637" data-name="Trazado 165637" d="M57.957,80.767a3.706,3.706,0,0,0-4.936-1.093,4.2,4.2,0,0,0-1.414,5.249,5.533,5.533,0,0,0,3.538,2.691,2.776,2.776,0,0,1,2.165,3c-.213,1.813-3.233,2.485-4.6,3.983-2.126,2.329-6.778,3.3-9.91,3.665-3.08.354-2.708.385-4.492-2.149a9.709,9.709,0,0,1-1.74-5.874q-.143-7.995-.285-15.988a22.861,22.861,0,0,1,.381-5.735A7.7,7.7,0,0,1,39.7,63.779c1.762-1.152,3.988-1.244,5.993-1.886,2.505-.8,4.637-2.457,6.982-3.647s5.219-1.9,7.566-.712c1.686.852,2.812,2.54,4.45,3.478,2.333,1.336,5.514,1.044,6.639,4.483a5.825,5.825,0,0,1-.049,3.674c-1.6,4.672-7.4,6.54-11.56,4.507-.084.791.691,2.557-.151,5.056-.269.8-.367,2.018-1.617,2.036" transform="translate(-7.511 -11.79)" fill="#263238"/>
            <path id="Trazado_165638" data-name="Trazado 165638" d="M61.25,91.765c.029.011.029.137-.1.312a1.084,1.084,0,0,1-.806.4,1.991,1.991,0,0,1-1.868-2,2.087,2.087,0,0,1,.536-1.528,2.158,2.158,0,0,1,1.133-.649c.745-.153,1.173.122,1.142.17-.018.082-.445-.035-1.042.182a1.814,1.814,0,0,0-1.253,1.8,1.685,1.685,0,0,0,1.355,1.659c.6.037.852-.393.9-.347" transform="translate(-12.111 -18.28)" fill="#995037"/>
            <path id="Trazado_165639" data-name="Trazado 165639" d="M73.443,84.934a26.432,26.432,0,0,1-4.863,1.034,26.425,26.425,0,0,1-4.939.571A26.49,26.49,0,0,1,68.5,85.505a26.505,26.505,0,0,1,4.939-.571" transform="translate(-13.181 -17.585)" fill="#263238"/>
            <path id="Trazado_165640" data-name="Trazado 165640" d="M39.114,111.068a2.1,2.1,0,0,0,2.512,1.008,6,6,0,0,0,2.429-1.647,6.362,6.362,0,0,1,2.407-1.682c1.928-.585,4.287.7,5.909-.5,1.476-1.089,1.284-3.554,2.734-4.679.769-.6,1.842-.673,2.625-1.252,1.465-1.083,1.223-3.5-.008-4.844S54.637,95.59,52.882,95.1l-15.531,6.62Z" transform="translate(-7.736 -19.698)" fill="#263238"/>
            <path id="Trazado_165641" data-name="Trazado 165641" d="M53.336,79.84c0,.007-.04.039-.129.1a3.958,3.958,0,0,1-.411.23,8.312,8.312,0,0,1-1.7.614,19.642,19.642,0,0,1-2.821.448,28.464,28.464,0,0,0-3.707.512,6.978,6.978,0,0,0-3.835,2.095c-1.049,1.215-1.44,2.965-2.25,4.654a6.03,6.03,0,0,1-1.808,2.276,9.474,9.474,0,0,1-2.7,1.333c-1.908.64-4.009,1.024-5.6,2.371a4.01,4.01,0,0,0-1.434,2.54,17.5,17.5,0,0,0,0,3.017,4.939,4.939,0,0,1-2.674,5c-1.625.956-3.327,1.463-4.686,2.329A5.492,5.492,0,0,0,17.9,108.9a4.068,4.068,0,0,0-.634,1.978,13.844,13.844,0,0,0,.505,3.673,9.594,9.594,0,0,1,.259,2.854,4.046,4.046,0,0,1-.518,1.736,2.033,2.033,0,0,1-.392.5,4.307,4.307,0,0,0,.728-2.245,9.821,9.821,0,0,0-.333-2.782,13.711,13.711,0,0,1-.58-3.752,4.392,4.392,0,0,1,.66-2.154,5.845,5.845,0,0,1,1.768-1.675c1.411-.915,3.118-1.439,4.67-2.371a4.512,4.512,0,0,0,2.438-4.617,17.653,17.653,0,0,1,0-3.1,4.479,4.479,0,0,1,1.591-2.827c1.722-1.451,3.9-1.826,5.756-2.451A9.081,9.081,0,0,0,36.4,90.407a5.61,5.61,0,0,0,1.69-2.111c.794-1.612,1.2-3.409,2.341-4.715a7.29,7.29,0,0,1,4.058-2.166,27.306,27.306,0,0,1,3.757-.45,21.21,21.21,0,0,0,2.8-.365,12.645,12.645,0,0,0,2.282-.76" transform="translate(-3.507 -16.536)" fill="#455a64"/>
            <path id="Trazado_165642" data-name="Trazado 165642" d="M52.17,83.094c0,.051-.557,0-1.512.217a6.873,6.873,0,0,0-3.483,2.081,6.3,6.3,0,0,0-1.387,2.427,10.912,10.912,0,0,0-.284,3.244,8.474,8.474,0,0,1-.537,3.708A3.78,3.78,0,0,1,43.612,96.3a16.41,16.41,0,0,1-1.791.958,4.653,4.653,0,0,0-1.545,1.1,2.772,2.772,0,0,0-.607,1.663c-.085,1.205.178,2.548-.415,3.7a6.1,6.1,0,0,1-2.416,2.4c-.912.543-1.8.943-2.546,1.4a6.275,6.275,0,0,0-1.791,1.483,4.07,4.07,0,0,0-.771,1.564,3.63,3.63,0,0,0,.027,1.5.925.925,0,0,1-.159-.372,2.711,2.711,0,0,1-.048-1.162,4.1,4.1,0,0,1,.741-1.686,6.359,6.359,0,0,1,1.827-1.608c.759-.483,1.643-.9,2.515-1.444a5.771,5.771,0,0,0,2.23-2.251c.515-1,.274-2.237.346-3.549a3.231,3.231,0,0,1,.706-1.928,5.075,5.075,0,0,1,1.691-1.219c1.22-.589,2.444-1.135,2.946-2.267a8.211,8.211,0,0,0,.518-3.506,11.036,11.036,0,0,1,.343-3.358,6.561,6.561,0,0,1,1.516-2.539,6.8,6.8,0,0,1,3.689-2.034,4.736,4.736,0,0,1,1.15-.086,1.285,1.285,0,0,1,.4.048" transform="translate(-6.527 -17.2)" fill="#455a64"/>
            <path id="Trazado_165643" data-name="Trazado 165643" d="M59.578,115.445,57.7,111.577l-16.328-.616-2.562,5.022h20.5" transform="translate(-8.038 -22.983)" fill="#26ccda"/>
            <path id="Trazado_165644" data-name="Trazado 165644" d="M121.942,152.411c-.117-.587,4.32-23.64,5.542-29.971a1.34,1.34,0,0,0-1.317-1.594H93.479a1.341,1.341,0,0,0-1.305,1.032L85.48,150.1l-16.5,1.231.58,1.082Z" transform="translate(-14.288 -25.03)" fill="#455a64"/>
            <path id="Trazado_165645" data-name="Trazado 165645" d="M125.115,150.777l5.289-27.949-32.135.194-7.058,27.794Z" transform="translate(-18.892 -25.44)" fill="#ebebeb"/>
            <path id="Trazado_165646" data-name="Trazado 165646" d="M91.18,150.83l.006-.025L98.248,123h.016l32.158-.194,0,.024-5.292,27.965h-.017Zm7.1-27.794-7.048,27.755,33.862-.04,5.281-27.909Z" transform="translate(-18.885 -25.435)" fill="#263238"/>
            <path id="Trazado_165647" data-name="Trazado 165647" d="M122.96,158.268c0,.114-9.4.206-21,.206s-21-.092-21-.206,9.4-.206,21-.206,21,.092,21,.206" transform="translate(-16.768 -32.738)" fill="#263238"/>
            <path id="Trazado_165648" data-name="Trazado 165648" d="M124.445,145.375a1.658,1.658,0,0,1-.42.042l-1.2.038-4.429.066c-3.74.037-8.906.06-14.612.06l-4.689,0h-.259l.064-.25c1.138-4.4,2.131-8.247,2.859-11.062.361-1.331.654-2.417.875-3.229a7.777,7.777,0,0,1,.362-1.154,7.89,7.89,0,0,1-.228,1.188c-.19.819-.446,1.914-.759,3.258-.692,2.824-1.637,6.682-2.72,11.1l-.2-.251,4.689,0c5.706,0,10.872.023,14.612.06l4.429.066,1.2.039a1.642,1.642,0,0,1,.42.041" transform="translate(-20.47 -26.901)" fill="#455a64"/>
            <path id="Trazado_165649" data-name="Trazado 165649" d="M101.778,147.379l.6-2.7h4.136l-.529,2.7Z" transform="translate(-21.081 -29.967)" fill="#26ccda"/>
            <path id="Trazado_165650" data-name="Trazado 165650" d="M108.871,146.7l1.249-5.305h4.136l-1.177,5.305Z" transform="translate(-22.55 -29.286)" fill="#f57c00"/>
            <path id="Trazado_165651" data-name="Trazado 165651" d="M115.963,147.379l.6-2.7H120.7l-.529,2.7Z" transform="translate(-24.019 -29.967)" fill="#fdd835"/>
            <path id="Trazado_165652" data-name="Trazado 165652" d="M123.056,145.391l2.368-10.308h4.136l-2.3,10.308Z" transform="translate(-25.488 -27.979)" fill="#26ccda"/>
            <path id="Trazado_165653" data-name="Trazado 165653" d="M105,151.826a6.851,6.851,0,0,1-3.339-.031,6.85,6.85,0,0,1,3.339.031" transform="translate(-21.056 -31.4)" fill="#455a64"/>
            <path id="Trazado_165654" data-name="Trazado 165654" d="M111.873,151.815a6.837,6.837,0,0,1-3.339-.032,6.862,6.862,0,0,1,3.339.032" transform="translate(-22.48 -31.398)" fill="#455a64"/>
            <path id="Trazado_165655" data-name="Trazado 165655" d="M118.749,151.8a6.837,6.837,0,0,1-3.339-.032,6.863,6.863,0,0,1,3.339.032" transform="translate(-23.904 -31.396)" fill="#455a64"/>
            <path id="Trazado_165656" data-name="Trazado 165656" d="M125.624,151.793a6.838,6.838,0,0,1-3.339-.032,6.863,6.863,0,0,1,3.339.032" transform="translate(-25.328 -31.394)" fill="#455a64"/>
            <path id="Trazado_165657" data-name="Trazado 165657" d="M113.968,128.3a26.111,26.111,0,0,1-4.627.206,26.11,26.11,0,0,1-4.628-.206,26.108,26.108,0,0,1,4.628-.206,26.11,26.11,0,0,1,4.627.206" transform="translate(-21.688 -26.531)" fill="#455a64"/>
            <path id="Trazado_165658" data-name="Trazado 165658" d="M109.176,126.853a10.312,10.312,0,0,1-4.1,0,10.312,10.312,0,0,1,4.1,0" transform="translate(-21.763 -26.231)" fill="#455a64"/>
            <path id="Trazado_165659" data-name="Trazado 165659" d="M97.316,177.249l18.918-13.694-.7-1.145a9.131,9.131,0,0,0-4.422-3.71l-2.958.531L90.611,161.9Z" transform="translate(-18.768 -32.87)" fill="#26ccda"/>
            <path id="Trazado_165660" data-name="Trazado 165660" d="M14.088,173.092,29.8,166.846,26.3,153.829l-12.81,4.354Z" transform="translate(-2.793 -31.861)" fill="#26ccda"/>
            <path id="Trazado_165661" data-name="Trazado 165661" d="M77.895,168.8c3.915-1.946,4.922-6.619,3.009-10.551l-16.286-34.8a6.266,6.266,0,0,0-1.639-2.245,18.413,18.413,0,0,0-13.47-4.614l-16.984-.446s-13.343,0-18.347,10.515c-.366.77-8.122,16.152-13.235,26.288a8.769,8.769,0,1,0,15.831,7.536L22.328,148.1l3.5,17.737-5.035,14.62,42.11.576-3.238-19.556L58.641,147.53l8.541,17.612A7.967,7.967,0,0,0,77.895,168.8" transform="translate(0 -24.055)" fill="#26ccda"/>
            <g id="Grupo_56693" data-name="Grupo 56693" transform="translate(27.011 128.636)" opacity="0.2">
              <g id="Grupo_56692" data-name="Grupo 56692">
                <g id="Grupo_56691" data-name="Grupo 56691" clip-path="url(#clip-path-11)">
                  <path id="Trazado_165662" data-name="Trazado 165662" d="M34.3,175.042c3.188,2.387,7.884,1.591,11.812.938A17.055,17.055,0,0,0,56.4,170.407a6.921,6.921,0,0,0,1.911-4.864c-.156-1.781-1.731-3.5-3.506-3.286-2.035.244-3.016,2.526-4,4.326A15.78,15.78,0,0,1,34.371,174.3s-.635.312-.067.737" transform="translate(-34.067 -162.24)"/>
                </g>
              </g>
            </g>
            <g id="Grupo_56696" data-name="Grupo 56696" transform="translate(53.25 114.033)" opacity="0.2">
              <g id="Grupo_56695" data-name="Grupo 56695">
                <g id="Grupo_56694" data-name="Grupo 56694" clip-path="url(#clip-path-12)">
                  <path id="Trazado_165663" data-name="Trazado 165663" d="M67.16,143.822c.992,8.011.549,7.4,2.219,15.3.822,3.883,1.82,7.938,4.5,10.868l-1.327-16.725Z" transform="translate(-67.16 -143.822)"/>
                </g>
              </g>
            </g>
            <path id="Trazado_165664" data-name="Trazado 165664" d="M25.907,194.956,24.7,191.44l3.137-2.09,38.63-3.186,2.724,5.117-1.173,4.252Z" transform="translate(-5.116 -38.559)" fill="#26ccda"/>
            <path id="Trazado_165665" data-name="Trazado 165665" d="M34.907,112.5a5.761,5.761,0,0,0-2.683,8.6,2.815,2.815,0,0,1,.737,1.6c-.075,1.426-2.38,1.464-3.107,2.694a2.215,2.215,0,0,0,.618,2.581,17.577,17.577,0,0,0,2.377,1.589,2.9,2.9,0,0,1,1.459,2.321c.806-.021,1.282-1,1.158-1.794a7.826,7.826,0,0,0-.99-2.192,2.3,2.3,0,0,1-.1-2.3c.527-.752,1.6-.781,2.456-1.112a3.426,3.426,0,0,0,1.815-4.411c-.519-1.158-1.725-2.33-1.138-3.455.327-.629,1.081-.868,1.7-1.211a4.424,4.424,0,0,0,.574-7.363" transform="translate(-6.14 -22.378)" fill="#263238"/>
            <path id="Trazado_165666" data-name="Trazado 165666" d="M26.078,158.583a10.418,10.418,0,0,1-.856,1.977c-.586,1.194-1.443,2.821-2.477,4.569s-2.05,3.281-2.816,4.369a10.4,10.4,0,0,1-1.323,1.7,12.029,12.029,0,0,1,1.079-1.863c.7-1.126,1.672-2.678,2.7-4.418s1.923-3.337,2.574-4.493a11.946,11.946,0,0,1,1.115-1.842" transform="translate(-3.853 -32.846)" fill="#263238"/>
            <path id="Trazado_165667" data-name="Trazado 165667" d="M22.9,167.009a5.178,5.178,0,0,1-.267,2.914,5.178,5.178,0,0,1-1.476,2.527c-.1-.071.611-1.154,1.082-2.653.487-1.494.537-2.789.66-2.788" transform="translate(-4.38 -34.591)" fill="#263238"/>
            <path id="Trazado_165668" data-name="Trazado 165668" d="M97.425,159.582c-.1.048-3.4-6.846-7.358-15.4s-7.086-15.523-6.981-15.571,3.4,6.844,7.357,15.4,7.085,15.522,6.982,15.57" transform="translate(-17.208 -26.639)" fill="#263238"/>
            <path id="Trazado_165669" data-name="Trazado 165669" d="M73.989,122.826c.025.066-.71.325-1.759.979a10.95,10.95,0,0,0-5.1,7.777c-.183,1.223-.128,2-.2,2a5.205,5.205,0,0,1-.091-2.038,10.21,10.21,0,0,1,5.247-7.994,5.207,5.207,0,0,1,1.907-.727" transform="translate(-13.835 -25.439)" fill="#263238"/>
            <path id="Trazado_165670" data-name="Trazado 165670" d="M30.4,169.594c-.111.025-2.005-8.044-4.23-18.02s-3.939-18.088-3.828-18.112,2.005,8.042,4.231,18.021,3.938,18.087,3.827,18.111" transform="translate(-4.627 -27.643)" fill="#263238"/>
            <path id="Trazado_165671" data-name="Trazado 165671" d="M122.261,163.961l7.678-3.3H119.71l2.235,2.9" transform="translate(-24.795 -33.276)" fill="#aa6550"/>
            <path id="Trazado_165672" data-name="Trazado 165672" d="M102.072,164.967a13.359,13.359,0,0,1-1.863-1.751,13.239,13.239,0,0,1-1.8-1.811,8.979,8.979,0,0,1,3.667,3.562" transform="translate(-20.381 -33.429)" fill="#263238"/>
            <path id="Trazado_165673" data-name="Trazado 165673" d="M81.4,171.389a7.189,7.189,0,0,1-.646-1.067c-.394-.7-.944-1.722-1.61-2.993-1.333-2.54-3.106-6.085-5.045-10.005s-3.719-7.459-5.037-10l-1.562-3.015a7.147,7.147,0,0,1-.534-1.127,7.3,7.3,0,0,1,.675,1.05c.413.688.986,1.7,1.679,2.955,1.386,2.513,3.208,6.035,5.15,9.958L79.41,167.2l1.491,3.05a7.185,7.185,0,0,1,.5,1.142" transform="translate(-13.871 -29.655)" fill="#263238"/>
            <path id="Trazado_165674" data-name="Trazado 165674" d="M60.406,165.176c.014,0,.01.1-.012.277a6.113,6.113,0,0,1-.132.781,10.217,10.217,0,0,1-1.048,2.72,15.408,15.408,0,0,1-7.11,6.309,31,31,0,0,1-9.283,2.318c-1.217.137-2.2.216-2.886.262a5.233,5.233,0,0,1-1.064.027,5.311,5.311,0,0,1,1.047-.187l2.865-.392a33.807,33.807,0,0,0,9.15-2.4,15.767,15.767,0,0,0,7.027-6.079,15.226,15.226,0,0,0,1.446-3.633" transform="translate(-8.051 -34.212)" fill="#263238"/>
            <path id="Trazado_165675" data-name="Trazado 165675" d="M49.245,190.932c.008.114-5.216.572-11.666,1.025s-11.689.727-11.7.613S31.1,192,37.549,191.545s11.688-.726,11.7-.613" transform="translate(-5.361 -39.541)" fill="#263238"/>
            <path id="Trazado_165676" data-name="Trazado 165676" d="M63.838,186.989a19.091,19.091,0,0,1,.842,8c-.12,0-.17-1.8-.406-4s-.553-3.971-.436-4" transform="translate(-13.217 -38.73)" fill="#263238"/>
            <path id="Trazado_165677" data-name="Trazado 165677" d="M67.055,183.81a5.23,5.23,0,0,1,.351,1.6,20.2,20.2,0,0,1-.549,7.827,5.2,5.2,0,0,1-.569,1.531c-.124-.036.614-2.413.815-5.447.224-3.031-.176-5.488-.048-5.507" transform="translate(-13.727 -38.071)" fill="#263238"/>
            <path id="Trazado_165678" data-name="Trazado 165678" d="M60.661,116.707c-.006.114-3.779-.006-8.424-.266s-8.408-.565-8.4-.679,3.778.006,8.425.267,8.408.565,8.4.679" transform="translate(-9.079 -23.968)" fill="#263238"/>
          </g>
        </g>
      </g>
    </g>
  </g>
</svg>
