<svg xmlns="http://www.w3.org/2000/svg" width="1020" height="487.184" viewBox="0 0 1020 487.184">
  <g id="Grupo_120358" data-name="Grupo 120358" transform="translate(-290.285 -6484.3)">
    <g id="Grupo_56580" data-name="Grupo 56580" transform="translate(474.426 6504.78)">
      <path id="Trazado_103844" data-name="Trazado 103844" d="M1327.584-473.828a1.715,1.715,0,0,0-1.715,1.715v20.923c0,33.283-24.589,55.269-33.005,59.074l-162.443,61.525s-3.209,1.607-3.309,1.677a36.006,36.006,0,0,0-15.482,29.582v17.687a7.414,7.414,0,0,0-5.523,7.154,7.433,7.433,0,0,0,7.433,7.432,7.433,7.433,0,0,0,7.431-7.432,7.431,7.431,0,0,0-5.912-7.274v-17.567a32.579,32.579,0,0,1,13.858-26.66l3.127-1.831,162.306-61.194a1.714,1.714,0,0,0,.321-.175c7.779-3.719,34.628-24.06,34.628-62v-20.923A1.714,1.714,0,0,0,1327.584-473.828Z" transform="translate(-1047.898 470.288)" fill="#26ccda"/>
      <path id="Trazado_103874" data-name="Trazado 103874" d="M1107.822-473.828a1.715,1.715,0,0,1,1.715,1.715v20.923c0,33.283,24.589,55.269,33.005,59.074l162.443,61.525s3.209,1.607,3.309,1.677a36.006,36.006,0,0,1,15.482,29.582v17.687a7.414,7.414,0,0,1,5.523,7.154,7.433,7.433,0,0,1-7.433,7.432,7.433,7.433,0,0,1-7.431-7.432,7.431,7.431,0,0,1,5.912-7.274v-17.567a32.579,32.579,0,0,0-13.859-26.66l-3.127-1.831-162.306-61.194a1.714,1.714,0,0,1-.321-.175c-7.779-3.719-34.628-24.059-34.628-62v-20.923A1.714,1.714,0,0,1,1107.822-473.828Z" transform="translate(-739.215 470.288)" fill="#26ccda"/>
      <path id="Trazado_103848" data-name="Trazado 103848" d="M1235-282.053V-498.4a1.713,1.713,0,0,0-1.715-1.715,1.713,1.713,0,0,0-1.715,1.715v216.348a7.42,7.42,0,0,0-5.717,7.214,7.432,7.432,0,0,0,7.432,7.432,7.431,7.431,0,0,0,7.431-7.432A7.422,7.422,0,0,0,1235-282.053Z" transform="translate(-908.19 484.636)" fill="#26ccda"/>
    </g>
    <path id="Trazado_181413" data-name="Trazado 181413" d="M20,0H376a20,20,0,0,1,20,20V38a20,20,0,0,1-20,20H20A20,20,0,0,1,0,38V20A20,20,0,0,1,20,0Z" transform="translate(602.285 6484.3)" fill="#f57c00"/>
    <path id="Trazado_181414" data-name="Trazado 181414" d="M78.725,19.947H70.639v5.1H80.19V29H65.5V7.672H80.219v3.97h-9.58v4.5h8.086Zm8-6.8.161,1.86a5.45,5.45,0,0,1,4.526-2.153,4.012,4.012,0,0,1,4.058,2.388,5.275,5.275,0,0,1,4.658-2.388q4.819,0,4.951,5.83V29h-4.951V19a3.022,3.022,0,0,0-.41-1.772,1.746,1.746,0,0,0-1.494-.557,2.339,2.339,0,0,0-2.183,1.3l.015.205V29H91.1V19.024a3.176,3.176,0,0,0-.4-1.8,1.741,1.741,0,0,0-1.509-.557,2.367,2.367,0,0,0-2.168,1.3V29H82.094V13.15Zm35.889,8.042a9.558,9.558,0,0,1-1.663,5.9,5.331,5.331,0,0,1-4.49,2.2,4.569,4.569,0,0,1-3.589-1.6v7.4h-4.937V13.15h4.614l.146,1.465a4.57,4.57,0,0,1,3.735-1.758,5.374,5.374,0,0,1,4.556,2.161,9.676,9.676,0,0,1,1.626,5.94Zm-4.937-.308q0-4.219-2.461-4.219a2.323,2.323,0,0,0-2.344,1.26v6.24a2.4,2.4,0,0,0,2.373,1.318q2.358,0,2.432-4.072Zm16.7-3.267-1.626-.117q-2.329,0-2.988,1.465V29h-4.937V13.15h4.629l.161,2.036a3.823,3.823,0,0,1,3.472-2.329,4.814,4.814,0,0,1,1.377.176Zm9.17,11.675a8.148,8.148,0,0,1-5.9-2.175,7.512,7.512,0,0,1-2.256-5.662v-.41a9.734,9.734,0,0,1,.9-4.292,6.592,6.592,0,0,1,2.629-2.878,7.938,7.938,0,0,1,4.1-1.018,6.861,6.861,0,0,1,5.273,2.073,8.145,8.145,0,0,1,1.934,5.779v1.919H140.41a3.558,3.558,0,0,0,1.157,2.095,3.443,3.443,0,0,0,2.314.762,4.437,4.437,0,0,0,3.662-1.641L149.8,26.51a6.306,6.306,0,0,1-2.615,2.029A8.836,8.836,0,0,1,143.544,29.293Zm-.557-12.627q-2.168,0-2.578,2.871h4.98v-.381a2.445,2.445,0,0,0-.6-1.838A2.39,2.39,0,0,0,142.988,16.666Zm17.52,7.881a1.14,1.14,0,0,0-.659-1.011,10.027,10.027,0,0,0-2.5-.791,11.422,11.422,0,0,1-3.047-1.077,5.1,5.1,0,0,1-1.831-1.619,3.865,3.865,0,0,1-.63-2.183,4.381,4.381,0,0,1,1.8-3.6,7.422,7.422,0,0,1,4.717-1.414,8.223,8.223,0,0,1,5.039,1.421,4.443,4.443,0,0,1,1.9,3.735h-4.951q0-1.9-2.007-1.9a1.989,1.989,0,0,0-1.3.432,1.338,1.338,0,0,0-.527,1.077,1.228,1.228,0,0,0,.645,1.069,6.09,6.09,0,0,0,2.058.674,17.785,17.785,0,0,1,2.483.63q3.574,1.23,3.574,4.409a4.151,4.151,0,0,1-1.926,3.53,8.447,8.447,0,0,1-4.988,1.362,8.62,8.62,0,0,1-3.633-.732,6.075,6.075,0,0,1-2.49-1.992,4.511,4.511,0,0,1-.894-2.651h4.614a1.908,1.908,0,0,0,.732,1.6,3.013,3.013,0,0,0,1.8.505,2.37,2.37,0,0,0,1.516-.41A1.312,1.312,0,0,0,160.507,24.547ZM176.5,29a5.574,5.574,0,0,1-.469-1.421,4.59,4.59,0,0,1-3.809,1.714,5.623,5.623,0,0,1-3.809-1.355,4.313,4.313,0,0,1-1.567-3.406,4.433,4.433,0,0,1,1.9-3.9,9.7,9.7,0,0,1,5.537-1.318h1.523v-.839q0-2.193-1.89-2.193a1.545,1.545,0,0,0-1.758,1.737h-4.937a4.425,4.425,0,0,1,1.956-3.731,8.218,8.218,0,0,1,4.988-1.434,7.205,7.205,0,0,1,4.79,1.479,5.144,5.144,0,0,1,1.8,4.058v7.017a7.186,7.186,0,0,0,.674,3.34V29Zm-3.091-3.223a2.754,2.754,0,0,0,1.531-.4,2.479,2.479,0,0,0,.872-.894V21.954h-1.436q-2.578,0-2.578,2.314a1.413,1.413,0,0,0,.454,1.091A1.643,1.643,0,0,0,173.413,25.777Z" transform="translate(677.285 6496.3)" fill="#fff"/>
    <path id="Trazado_181408" data-name="Trazado 181408" d="M20,0H272a20,20,0,0,1,20,20V180a20,20,0,0,1-20,20H20A20,20,0,0,1,0,180V20A20,20,0,0,1,20,0Z" transform="translate(290.285 6720.128)" fill="#b1f9ff"/>
    <path id="Trazado_181407" data-name="Trazado 181407" d="M20,0H272a20,20,0,0,1,20,20V180a20,20,0,0,1-20,20H20A20,20,0,0,1,0,180V20A20,20,0,0,1,20,0Z" transform="translate(1018.285 6720.128)" fill="#b1f9ff"/>
    <path id="Trazado_181409" data-name="Trazado 181409" d="M20,0H272a20,20,0,0,1,20,20V180a20,20,0,0,1-20,20H20A20,20,0,0,1,0,180V20A20,20,0,0,1,20,0Z" transform="translate(654.004 6771.483)" fill="#b1f9ff"/>
    <path id="Trazado_181410" data-name="Trazado 181410" d="M111.5,4.852h-3.656V15h-1.492V4.852H102.7V3.625h8.8Zm4.2,10.3a3.693,3.693,0,0,1-2.8-1.129,4.19,4.19,0,0,1-1.078-3.02v-.266A5.073,5.073,0,0,1,112.3,8.5a3.748,3.748,0,0,1,1.344-1.547,3.378,3.378,0,0,1,1.871-.559,3.166,3.166,0,0,1,2.563,1.086,4.7,4.7,0,0,1,.914,3.109v.6h-5.727a3,3,0,0,0,.73,2.02,2.3,2.3,0,0,0,1.777.77,2.517,2.517,0,0,0,1.3-.312,3.259,3.259,0,0,0,.93-.828l.883.688A3.55,3.55,0,0,1,115.7,15.156Zm-.18-7.578a1.928,1.928,0,0,0-1.469.637A3.1,3.1,0,0,0,113.313,10h4.234V9.891a2.753,2.753,0,0,0-.594-1.707A1.815,1.815,0,0,0,115.516,7.578Zm9.234.266a4.331,4.331,0,0,0-.711-.055A1.9,1.9,0,0,0,122.109,9v6h-1.445V6.547h1.406l.023.977a2.251,2.251,0,0,1,2.016-1.133,1.477,1.477,0,0,1,.641.109Zm5.414,0a4.331,4.331,0,0,0-.711-.055A1.9,1.9,0,0,0,127.523,9v6h-1.445V6.547h1.406l.023.977a2.251,2.251,0,0,1,2.016-1.133,1.477,1.477,0,0,1,.641.109Zm4.688,7.313a3.693,3.693,0,0,1-2.8-1.129,4.19,4.19,0,0,1-1.078-3.02v-.266a5.073,5.073,0,0,1,.48-2.246A3.748,3.748,0,0,1,132.8,6.949a3.378,3.378,0,0,1,1.871-.559,3.166,3.166,0,0,1,2.563,1.086,4.7,4.7,0,0,1,.914,3.109v.6h-5.727a3,3,0,0,0,.73,2.02,2.3,2.3,0,0,0,1.777.77,2.517,2.517,0,0,0,1.3-.312,3.258,3.258,0,0,0,.93-.828l.883.688A3.55,3.55,0,0,1,134.852,15.156Zm-.18-7.578a1.928,1.928,0,0,0-1.469.637A3.1,3.1,0,0,0,132.469,10H136.7V9.891a2.753,2.753,0,0,0-.594-1.707A1.815,1.815,0,0,0,134.672,7.578Zm6.516-1.031.047,1.063a3.08,3.08,0,0,1,2.531-1.219q2.68,0,2.7,3.023V15h-1.445V9.406a1.946,1.946,0,0,0-.418-1.352,1.675,1.675,0,0,0-1.277-.437,2.086,2.086,0,0,0-1.234.375,2.546,2.546,0,0,0-.828.984V15H139.82V6.547Zm7.078,4.148a4.993,4.993,0,0,1,.488-2.234,3.642,3.642,0,0,1,1.359-1.531,3.7,3.7,0,0,1,1.988-.539,3.565,3.565,0,0,1,2.793,1.2,4.6,4.6,0,0,1,1.066,3.18v.1a5.036,5.036,0,0,1-.473,2.215,3.589,3.589,0,0,1-1.352,1.527,3.743,3.743,0,0,1-2.02.547,3.556,3.556,0,0,1-2.785-1.2,4.575,4.575,0,0,1-1.066-3.164Zm1.453.172a3.616,3.616,0,0,0,.652,2.258,2.211,2.211,0,0,0,3.5-.012,3.954,3.954,0,0,0,.648-2.418,3.61,3.61,0,0,0-.66-2.254,2.1,2.1,0,0,0-1.754-.863,2.075,2.075,0,0,0-1.727.852A3.925,3.925,0,0,0,149.719,10.867ZM102.332,27.625l3.719,9.281,3.719-9.281h1.945V39h-1.5V34.57l.141-4.781L106.621,39h-1.148l-3.727-9.187.148,4.758V39h-1.5V27.625Zm17.023,10.539a3.07,3.07,0,0,1-2.477.992,2.628,2.628,0,0,1-2.059-.785,3.4,3.4,0,0,1-.715-2.324v-5.5h1.445v5.461q0,1.922,1.563,1.922a2.163,2.163,0,0,0,2.2-1.234V30.547h1.445V39h-1.375Zm7.109.992a3.693,3.693,0,0,1-2.8-1.129,4.19,4.19,0,0,1-1.078-3.02v-.266a5.073,5.073,0,0,1,.48-2.246,3.748,3.748,0,0,1,1.344-1.547,3.378,3.378,0,0,1,1.871-.559,3.166,3.166,0,0,1,2.563,1.086,4.7,4.7,0,0,1,.914,3.109v.6h-5.727a3,3,0,0,0,.73,2.02,2.3,2.3,0,0,0,1.777.77,2.517,2.517,0,0,0,1.3-.312,3.258,3.258,0,0,0,.93-.828l.883.688A3.55,3.55,0,0,1,126.465,39.156Zm-.18-7.578a1.928,1.928,0,0,0-1.469.637A3.1,3.1,0,0,0,124.082,34h4.234v-.109a2.753,2.753,0,0,0-.594-1.707A1.815,1.815,0,0,0,126.285,31.578Zm12.3,3.289a5.026,5.026,0,0,1-.891,3.113,2.846,2.846,0,0,1-2.391,1.176,2.947,2.947,0,0,1-2.477-1.133l-.07.977h-1.328V27h1.445v4.477a2.93,2.93,0,0,1,2.414-1.086,2.863,2.863,0,0,1,2.418,1.164,5.177,5.177,0,0,1,.879,3.188Zm-1.445-.164a3.906,3.906,0,0,0-.57-2.281,1.888,1.888,0,0,0-1.641-.8,2.122,2.122,0,0,0-2.055,1.328V36.6a2.181,2.181,0,0,0,2.07,1.328,1.878,1.878,0,0,0,1.617-.8A4.153,4.153,0,0,0,137.145,34.7ZM141.98,39h-1.445V27h1.445Zm5.82.156a3.693,3.693,0,0,1-2.8-1.129,4.19,4.19,0,0,1-1.078-3.02v-.266a5.073,5.073,0,0,1,.48-2.246,3.748,3.748,0,0,1,1.344-1.547,3.378,3.378,0,0,1,1.871-.559,3.166,3.166,0,0,1,2.563,1.086,4.7,4.7,0,0,1,.914,3.109v.6h-5.727a3,3,0,0,0,.73,2.02,2.3,2.3,0,0,0,1.777.77,2.517,2.517,0,0,0,1.3-.312,3.258,3.258,0,0,0,.93-.828l.883.688A3.55,3.55,0,0,1,147.8,39.156Zm-.18-7.578a1.928,1.928,0,0,0-1.469.637A3.1,3.1,0,0,0,145.418,34h4.234v-.109a2.753,2.753,0,0,0-.594-1.707A1.815,1.815,0,0,0,147.621,31.578Zm10.07,5.18a1.064,1.064,0,0,0-.441-.91,4.249,4.249,0,0,0-1.539-.559,7.277,7.277,0,0,1-1.742-.562,2.479,2.479,0,0,1-.953-.781,1.869,1.869,0,0,1-.309-1.078,2.193,2.193,0,0,1,.879-1.758,3.432,3.432,0,0,1,2.246-.719,3.532,3.532,0,0,1,2.332.742,2.357,2.357,0,0,1,.895,1.9h-1.453a1.3,1.3,0,0,0-.5-1.023,1.888,1.888,0,0,0-1.27-.43,1.976,1.976,0,0,0-1.234.344,1.082,1.082,0,0,0-.445.9.877.877,0,0,0,.414.789,5.1,5.1,0,0,0,1.5.508,7.8,7.8,0,0,1,1.754.578,2.558,2.558,0,0,1,1,.809,1.988,1.988,0,0,1,.324,1.152,2.163,2.163,0,0,1-.906,1.816,3.8,3.8,0,0,1-2.352.684,4.257,4.257,0,0,1-1.8-.359,2.922,2.922,0,0,1-1.223-1,2.42,2.42,0,0,1-.441-1.395h1.445a1.5,1.5,0,0,0,.582,1.152,2.258,2.258,0,0,0,1.434.426,2.331,2.331,0,0,0,1.316-.332A1.02,1.02,0,0,0,157.691,36.758ZM97.633,51.625l3.719,9.281,3.719-9.281h1.945V63h-1.5V58.57l.141-4.781L101.922,63h-1.148l-3.727-9.187L97.2,58.57V63H95.7V51.625ZM114.656,63a3.036,3.036,0,0,1-.2-.891,3.225,3.225,0,0,1-2.406,1.047A2.984,2.984,0,0,1,110,62.449a2.288,2.288,0,0,1-.8-1.793,2.39,2.39,0,0,1,1-2.051,4.733,4.733,0,0,1,2.824-.73h1.406v-.664A1.623,1.623,0,0,0,113.977,56a1.821,1.821,0,0,0-1.336-.449,2.107,2.107,0,0,0-1.3.391,1.151,1.151,0,0,0-.523.945h-1.453a2,2,0,0,1,.449-1.223,3.066,3.066,0,0,1,1.219-.934,4.1,4.1,0,0,1,1.691-.344,3.342,3.342,0,0,1,2.289.73,2.635,2.635,0,0,1,.859,2.012v3.891a4.757,4.757,0,0,0,.3,1.852V63Zm-2.4-1.1a2.54,2.54,0,0,0,1.289-.352,2.127,2.127,0,0,0,.883-.914V58.9H113.3q-2.656,0-2.656,1.555a1.316,1.316,0,0,0,.453,1.063A1.742,1.742,0,0,0,112.258,61.9Zm1.336-10.883h1.75l-2.094,2.3-1.164,0Zm4.2,7.688a4.961,4.961,0,0,1,.914-3.152,3.226,3.226,0,0,1,4.82-.152l.063-.852h1.328v11.7h-1.445V62.219a3.033,3.033,0,0,1-2.328.938,2.915,2.915,0,0,1-2.441-1.191,5.072,5.072,0,0,1-.91-3.16Zm1.445.164a3.761,3.761,0,0,0,.613,2.281,1.951,1.951,0,0,0,1.652.828,2.164,2.164,0,0,0,1.969-1.141V56.7a2.171,2.171,0,0,0-1.953-1.117,1.965,1.965,0,0,0-1.664.832A4.094,4.094,0,0,0,119.234,58.867Zm13.219,3.3a3.07,3.07,0,0,1-2.477.992,2.628,2.628,0,0,1-2.059-.785,3.4,3.4,0,0,1-.715-2.324v-5.5h1.445v5.461q0,1.922,1.563,1.922a2.163,2.163,0,0,0,2.2-1.234V54.547h1.445V63h-1.375Zm5.172.836H136.18V54.547h1.445Zm-1.562-10.7a.863.863,0,0,1,.215-.594.807.807,0,0,1,.637-.242.819.819,0,0,1,.641.242.854.854,0,0,1,.219.594.826.826,0,0,1-.219.586.834.834,0,0,1-.641.234.821.821,0,0,1-.637-.234A.834.834,0,0,1,136.063,52.3Zm5.242,2.242.047,1.063a3.08,3.08,0,0,1,2.531-1.219q2.68,0,2.7,3.023V63h-1.445V57.406a1.946,1.946,0,0,0-.418-1.352,1.675,1.675,0,0,0-1.277-.437,2.086,2.086,0,0,0-1.234.375,2.546,2.546,0,0,0-.828.984V63h-1.445V54.547ZM153.984,63a3.036,3.036,0,0,1-.2-.891,3.225,3.225,0,0,1-2.406,1.047,2.984,2.984,0,0,1-2.051-.707,2.287,2.287,0,0,1-.8-1.793,2.39,2.39,0,0,1,1-2.051,4.733,4.733,0,0,1,2.824-.73h1.406v-.664A1.623,1.623,0,0,0,153.3,56a1.821,1.821,0,0,0-1.336-.449,2.107,2.107,0,0,0-1.3.391,1.151,1.151,0,0,0-.523.945H148.7a2,2,0,0,1,.449-1.223,3.066,3.066,0,0,1,1.219-.934,4.1,4.1,0,0,1,1.691-.344,3.342,3.342,0,0,1,2.289.73,2.635,2.635,0,0,1,.859,2.012v3.891a4.757,4.757,0,0,0,.3,1.852V63Zm-2.4-1.1a2.54,2.54,0,0,0,1.289-.352,2.127,2.127,0,0,0,.883-.914V58.9h-1.133q-2.656,0-2.656,1.555a1.316,1.316,0,0,0,.453,1.063A1.742,1.742,0,0,0,151.586,61.9Zm10.8-1.141a1.064,1.064,0,0,0-.441-.91,4.249,4.249,0,0,0-1.539-.559,7.277,7.277,0,0,1-1.742-.562,2.479,2.479,0,0,1-.953-.781,1.869,1.869,0,0,1-.309-1.078,2.193,2.193,0,0,1,.879-1.758,3.432,3.432,0,0,1,2.246-.719,3.532,3.532,0,0,1,2.332.742,2.357,2.357,0,0,1,.895,1.9H162.3a1.3,1.3,0,0,0-.5-1.023,1.888,1.888,0,0,0-1.27-.43,1.976,1.976,0,0,0-1.234.344,1.082,1.082,0,0,0-.445.9.877.877,0,0,0,.414.789,5.1,5.1,0,0,0,1.5.508,7.8,7.8,0,0,1,1.754.578,2.558,2.558,0,0,1,1,.809,1.988,1.988,0,0,1,.324,1.152,2.163,2.163,0,0,1-.906,1.816,3.8,3.8,0,0,1-2.352.684,4.257,4.257,0,0,1-1.8-.359,2.922,2.922,0,0,1-1.223-1,2.42,2.42,0,0,1-.441-1.395h1.445a1.5,1.5,0,0,0,.582,1.152,2.258,2.258,0,0,0,1.434.426,2.331,2.331,0,0,0,1.316-.332A1.02,1.02,0,0,0,162.391,60.758Zm-48.1,22.633a4.185,4.185,0,0,1-1.332,2.785,4.365,4.365,0,0,1-2.98.98,4.008,4.008,0,0,1-3.23-1.445,5.815,5.815,0,0,1-1.215-3.867V80.75a6.481,6.481,0,0,1,.566-2.789,4.231,4.231,0,0,1,1.605-1.848,4.47,4.47,0,0,1,2.406-.645,4.11,4.11,0,0,1,2.906,1.012,4.235,4.235,0,0,1,1.273,2.8h-1.508a3.268,3.268,0,0,0-.848-1.975,2.565,2.565,0,0,0-1.824-.611,2.684,2.684,0,0,0-2.254,1.063,4.882,4.882,0,0,0-.816,3.026v1.1a5.018,5.018,0,0,0,.773,2.948,2.5,2.5,0,0,0,2.164,1.095,2.887,2.887,0,0,0,1.918-.566,3.143,3.143,0,0,0,.887-1.973ZM121.332,87a3.036,3.036,0,0,1-.2-.891,3.225,3.225,0,0,1-2.406,1.047,2.984,2.984,0,0,1-2.051-.707,2.287,2.287,0,0,1-.8-1.793,2.39,2.39,0,0,1,1-2.051,4.733,4.733,0,0,1,2.824-.73h1.406v-.664A1.623,1.623,0,0,0,120.652,80a1.821,1.821,0,0,0-1.336-.449,2.108,2.108,0,0,0-1.3.391,1.151,1.151,0,0,0-.523.945h-1.453a2,2,0,0,1,.449-1.223,3.066,3.066,0,0,1,1.219-.934,4.1,4.1,0,0,1,1.691-.344,3.342,3.342,0,0,1,2.289.73,2.635,2.635,0,0,1,.859,2.012v3.891a4.757,4.757,0,0,0,.3,1.852V87Zm-2.4-1.1a2.54,2.54,0,0,0,1.289-.352,2.127,2.127,0,0,0,.883-.914V82.9h-1.133q-2.656,0-2.656,1.555a1.316,1.316,0,0,0,.453,1.063A1.742,1.742,0,0,0,118.934,85.9Zm13.023-3.031a5.062,5.062,0,0,1-.883,3.109,2.829,2.829,0,0,1-2.391,1.18,3.1,3.1,0,0,1-2.422-.977v4.07h-1.445v-11.7h1.32l.07.938a2.977,2.977,0,0,1,2.453-1.094,2.882,2.882,0,0,1,2.41,1.148,5.117,5.117,0,0,1,.887,3.2Zm-1.445-.164a3.735,3.735,0,0,0-.609-2.258,1.963,1.963,0,0,0-1.672-.828,2.125,2.125,0,0,0-1.969,1.164V84.82a2.129,2.129,0,0,0,1.984,1.156,1.954,1.954,0,0,0,1.652-.824A4.077,4.077,0,0,0,130.512,82.7Zm4.852,4.3h-1.445V78.547h1.445ZM133.8,76.3a.863.863,0,0,1,.215-.594.807.807,0,0,1,.637-.242.819.819,0,0,1,.641.242.854.854,0,0,1,.219.594.826.826,0,0,1-.219.586.834.834,0,0,1-.641.234.821.821,0,0,1-.637-.234A.834.834,0,0,1,133.8,76.3Zm5.836.2v2.047h1.578v1.117h-1.578v5.249a1.173,1.173,0,0,0,.211.763.888.888,0,0,0,.719.254,3.5,3.5,0,0,0,.688-.094V87a4.215,4.215,0,0,1-1.109.155,1.8,1.8,0,0,1-1.461-.586,2.517,2.517,0,0,1-.492-1.664V79.664h-1.539V78.547h1.539V76.5ZM148.121,87a3.036,3.036,0,0,1-.2-.891,3.225,3.225,0,0,1-2.406,1.047,2.984,2.984,0,0,1-2.051-.707,2.287,2.287,0,0,1-.8-1.793,2.39,2.39,0,0,1,1-2.051,4.733,4.733,0,0,1,2.824-.73h1.406v-.664A1.623,1.623,0,0,0,147.441,80a1.821,1.821,0,0,0-1.336-.449,2.108,2.108,0,0,0-1.3.391,1.151,1.151,0,0,0-.523.945h-1.453a2,2,0,0,1,.449-1.223,3.066,3.066,0,0,1,1.219-.934,4.1,4.1,0,0,1,1.691-.344,3.342,3.342,0,0,1,2.289.73,2.635,2.635,0,0,1,.859,2.012v3.891a4.757,4.757,0,0,0,.3,1.852V87Zm-2.4-1.1a2.54,2.54,0,0,0,1.289-.352,2.127,2.127,0,0,0,.883-.914V82.9h-1.133q-2.656,0-2.656,1.555a1.316,1.316,0,0,0,.453,1.063A1.742,1.742,0,0,0,145.723,85.9Zm7.453,1.1H151.73V75h1.445Zm-36.883,21.023h-4.766L110.457,111H108.91l4.344-11.375h1.313L118.918,111h-1.539ZM111.98,106.8h3.867l-1.937-5.32Zm13.375,3.367a3.07,3.07,0,0,1-2.477.992,2.628,2.628,0,0,1-2.059-.785,3.4,3.4,0,0,1-.715-2.324v-5.5h1.445v5.461q0,1.922,1.563,1.922a2.163,2.163,0,0,0,2.2-1.234v-6.148h1.445V111h-1.375Zm5.563-9.664v2.047H132.5v1.117h-1.578v5.249a1.173,1.173,0,0,0,.211.763.888.888,0,0,0,.719.254,3.5,3.5,0,0,0,.688-.094V111a4.215,4.215,0,0,1-1.109.155,1.8,1.8,0,0,1-1.461-.586,2.517,2.517,0,0,1-.492-1.664v-5.242h-1.539v-1.117h1.539V100.5Zm2.727,6.2a4.993,4.993,0,0,1,.488-2.234,3.642,3.642,0,0,1,1.359-1.531,3.7,3.7,0,0,1,1.988-.539,3.565,3.565,0,0,1,2.793,1.2,4.6,4.6,0,0,1,1.066,3.18v.1a5.036,5.036,0,0,1-.473,2.215,3.589,3.589,0,0,1-1.352,1.527,3.743,3.743,0,0,1-2.02.547,3.556,3.556,0,0,1-2.785-1.2,4.575,4.575,0,0,1-1.066-3.164Zm1.453.172a3.616,3.616,0,0,0,.652,2.258,2.211,2.211,0,0,0,3.5-.012,3.954,3.954,0,0,0,.648-2.418,3.61,3.61,0,0,0-.66-2.254,2.1,2.1,0,0,0-1.754-.863,2.075,2.075,0,0,0-1.727.852A3.925,3.925,0,0,0,135.1,106.867Zm12.977,1.891a1.064,1.064,0,0,0-.441-.91,4.249,4.249,0,0,0-1.539-.559,7.277,7.277,0,0,1-1.742-.562,2.479,2.479,0,0,1-.953-.781,1.869,1.869,0,0,1-.309-1.078,2.193,2.193,0,0,1,.879-1.758,3.432,3.432,0,0,1,2.246-.719,3.532,3.532,0,0,1,2.332.742,2.357,2.357,0,0,1,.895,1.9h-1.453a1.3,1.3,0,0,0-.5-1.023,1.888,1.888,0,0,0-1.27-.43,1.976,1.976,0,0,0-1.234.344,1.082,1.082,0,0,0-.445.9.877.877,0,0,0,.414.789,5.1,5.1,0,0,0,1.5.508,7.8,7.8,0,0,1,1.754.578,2.558,2.558,0,0,1,1,.809,1.988,1.988,0,0,1,.324,1.152,2.163,2.163,0,0,1-.906,1.816,3.8,3.8,0,0,1-2.352.684,4.257,4.257,0,0,1-1.8-.359,2.922,2.922,0,0,1-1.223-1,2.42,2.42,0,0,1-.441-1.395h1.445a1.5,1.5,0,0,0,.582,1.152,2.258,2.258,0,0,0,1.434.426,2.331,2.331,0,0,0,1.316-.332A1.02,1.02,0,0,0,148.074,108.758Z" transform="translate(306.285 6786.128)" fill="#12263f"/>
    <path id="Trazado_181411" data-name="Trazado 181411" d="M89.609,11.391a4.185,4.185,0,0,1-1.332,2.785,4.365,4.365,0,0,1-2.98.98,4.008,4.008,0,0,1-3.23-1.445,5.815,5.815,0,0,1-1.215-3.867V8.75a6.481,6.481,0,0,1,.566-2.789,4.231,4.231,0,0,1,1.605-1.848,4.47,4.47,0,0,1,2.406-.645A4.11,4.11,0,0,1,88.336,4.48a4.235,4.235,0,0,1,1.273,2.8H88.1a3.268,3.268,0,0,0-.848-1.975A2.565,2.565,0,0,0,85.43,4.7a2.684,2.684,0,0,0-2.254,1.063,4.882,4.882,0,0,0-.816,3.026v1.1a5.018,5.018,0,0,0,.773,2.948A2.5,2.5,0,0,0,85.3,13.93a2.886,2.886,0,0,0,1.918-.566,3.143,3.143,0,0,0,.887-1.973Zm1.438-.7a4.993,4.993,0,0,1,.488-2.234A3.643,3.643,0,0,1,92.895,6.93a3.7,3.7,0,0,1,1.988-.539,3.565,3.565,0,0,1,2.793,1.2,4.6,4.6,0,0,1,1.066,3.18v.1a5.036,5.036,0,0,1-.473,2.215,3.589,3.589,0,0,1-1.352,1.527,3.743,3.743,0,0,1-2.02.547,3.556,3.556,0,0,1-2.785-1.2A4.575,4.575,0,0,1,91.047,10.8Zm1.453.172a3.616,3.616,0,0,0,.652,2.258,2.211,2.211,0,0,0,3.5-.012A3.955,3.955,0,0,0,97.3,10.7a3.61,3.61,0,0,0-.66-2.254,2.1,2.1,0,0,0-1.754-.863,2.075,2.075,0,0,0-1.727.852A3.925,3.925,0,0,0,92.5,10.867Zm9.422-4.32.047,1.063A3.08,3.08,0,0,1,104.5,6.391q2.68,0,2.7,3.023V15h-1.445V9.406a1.946,1.946,0,0,0-.418-1.352,1.675,1.675,0,0,0-1.277-.437,2.086,2.086,0,0,0-1.234.375,2.546,2.546,0,0,0-.828.984V15h-1.445V6.547ZM109,10.7a4.993,4.993,0,0,1,.488-2.234,3.643,3.643,0,0,1,1.359-1.531,3.7,3.7,0,0,1,1.988-.539,3.565,3.565,0,0,1,2.793,1.2,4.6,4.6,0,0,1,1.066,3.18v.1a5.036,5.036,0,0,1-.473,2.215,3.589,3.589,0,0,1-1.352,1.527,3.743,3.743,0,0,1-2.02.547,3.556,3.556,0,0,1-2.785-1.2A4.575,4.575,0,0,1,109,10.8Zm1.453.172a3.616,3.616,0,0,0,.652,2.258,2.211,2.211,0,0,0,3.5-.012,3.955,3.955,0,0,0,.648-2.418,3.61,3.61,0,0,0-.66-2.254,2.1,2.1,0,0,0-1.754-.863,2.075,2.075,0,0,0-1.727.852A3.925,3.925,0,0,0,110.453,10.867ZM121.9,13.977a2.082,2.082,0,0,0,1.352-.469,1.649,1.649,0,0,0,.641-1.172h1.367a2.621,2.621,0,0,1-.5,1.383,3.293,3.293,0,0,1-1.23,1.047,3.55,3.55,0,0,1-1.629.391A3.482,3.482,0,0,1,119.152,14a4.59,4.59,0,0,1-1.02-3.152v-.242a5.089,5.089,0,0,1,.453-2.2,3.451,3.451,0,0,1,1.3-1.492,3.7,3.7,0,0,1,2-.531,3.39,3.39,0,0,1,2.363.852,3.043,3.043,0,0,1,1,2.211h-1.367a1.992,1.992,0,0,0-.621-1.348,1.932,1.932,0,0,0-1.379-.527,2.023,2.023,0,0,0-1.707.793,3.724,3.724,0,0,0-.605,2.293v.273a3.65,3.65,0,0,0,.6,2.25A2.033,2.033,0,0,0,121.9,13.977ZM128.453,15h-1.445V6.547h1.445ZM126.891,4.3a.863.863,0,0,1,.215-.594.807.807,0,0,1,.637-.242.819.819,0,0,1,.641.242.854.854,0,0,1,.219.594.826.826,0,0,1-.219.586.834.834,0,0,1-.641.234.821.821,0,0,1-.637-.234A.834.834,0,0,1,126.891,4.3Zm5.234,2.242.039.938a3.122,3.122,0,0,1,2.508-1.094,2.417,2.417,0,0,1,2.414,1.359,3.2,3.2,0,0,1,1.1-.984,3.242,3.242,0,0,1,1.6-.375q2.781,0,2.828,2.945V15h-1.445V9.422a1.941,1.941,0,0,0-.414-1.355,1.823,1.823,0,0,0-1.391-.449,1.917,1.917,0,0,0-1.336.48,1.949,1.949,0,0,0-.617,1.293V15h-1.453V9.461a1.613,1.613,0,0,0-1.8-1.844A1.934,1.934,0,0,0,132.2,8.828V15h-1.445V6.547ZM146.359,15h-1.445V6.547h1.445ZM144.8,4.3a.863.863,0,0,1,.215-.594.807.807,0,0,1,.637-.242.819.819,0,0,1,.641.242.854.854,0,0,1,.219.594.826.826,0,0,1-.219.586.834.834,0,0,1-.641.234.821.821,0,0,1-.637-.234A.834.834,0,0,1,144.8,4.3Zm7.383,10.852a3.693,3.693,0,0,1-2.8-1.129,4.19,4.19,0,0,1-1.078-3.02v-.266a5.073,5.073,0,0,1,.48-2.246,3.748,3.748,0,0,1,1.344-1.547A3.378,3.378,0,0,1,152,6.391a3.166,3.166,0,0,1,2.563,1.086,4.7,4.7,0,0,1,.914,3.109v.6H149.75a3,3,0,0,0,.73,2.02,2.3,2.3,0,0,0,1.777.77,2.517,2.517,0,0,0,1.3-.312,3.258,3.258,0,0,0,.93-.828l.883.688A3.55,3.55,0,0,1,152.18,15.156ZM152,7.578a1.928,1.928,0,0,0-1.469.637A3.1,3.1,0,0,0,149.8,10h4.234V9.891a2.753,2.753,0,0,0-.594-1.707A1.815,1.815,0,0,0,152,7.578Zm6.516-1.031.047,1.063a3.08,3.08,0,0,1,2.531-1.219q2.68,0,2.7,3.023V15h-1.445V9.406a1.946,1.946,0,0,0-.418-1.352,1.675,1.675,0,0,0-1.277-.437,2.086,2.086,0,0,0-1.234.375,2.546,2.546,0,0,0-.828.984V15h-1.445V6.547ZM167.938,4.5V6.547h1.578V7.664h-1.578v5.249a1.173,1.173,0,0,0,.211.763.888.888,0,0,0,.719.254,3.5,3.5,0,0,0,.688-.094V15a4.215,4.215,0,0,1-1.109.155,1.8,1.8,0,0,1-1.461-.586,2.517,2.517,0,0,1-.492-1.664V7.664h-1.539V6.547h1.539V4.5Zm2.727,6.2a4.993,4.993,0,0,1,.488-2.234,3.642,3.642,0,0,1,1.359-1.531,3.7,3.7,0,0,1,1.988-.539,3.565,3.565,0,0,1,2.793,1.2,4.6,4.6,0,0,1,1.066,3.18v.1a5.036,5.036,0,0,1-.473,2.215,3.589,3.589,0,0,1-1.352,1.527,3.743,3.743,0,0,1-2.02.547,3.556,3.556,0,0,1-2.785-1.2,4.575,4.575,0,0,1-1.066-3.164Zm1.453.172a3.616,3.616,0,0,0,.652,2.258,2.211,2.211,0,0,0,3.5-.012,3.954,3.954,0,0,0,.648-2.418,3.61,3.61,0,0,0-.66-2.254,2.1,2.1,0,0,0-1.754-.863,2.075,2.075,0,0,0-1.727.852A3.925,3.925,0,0,0,172.117,10.867ZM97.457,39H95.949V33.742H90.215V39h-1.5V27.625h1.5v4.891h5.734V27.625h1.508Zm7.656,0a3.036,3.036,0,0,1-.2-.891,3.225,3.225,0,0,1-2.406,1.047,2.984,2.984,0,0,1-2.051-.707,2.288,2.288,0,0,1-.8-1.793,2.39,2.39,0,0,1,1-2.051,4.733,4.733,0,0,1,2.824-.73h1.406v-.664A1.623,1.623,0,0,0,104.434,32a1.821,1.821,0,0,0-1.336-.449,2.108,2.108,0,0,0-1.3.391,1.151,1.151,0,0,0-.523.945H99.824a2,2,0,0,1,.449-1.223,3.066,3.066,0,0,1,1.219-.934,4.1,4.1,0,0,1,1.691-.344,3.342,3.342,0,0,1,2.289.73,2.635,2.635,0,0,1,.859,2.012v3.891a4.757,4.757,0,0,0,.3,1.852V39Zm-2.4-1.1A2.54,2.54,0,0,0,104,37.547a2.127,2.127,0,0,0,.883-.914V34.9h-1.133q-2.656,0-2.656,1.555a1.316,1.316,0,0,0,.453,1.063A1.742,1.742,0,0,0,102.715,37.9Zm13.039-3.031a5.026,5.026,0,0,1-.891,3.113,2.846,2.846,0,0,1-2.391,1.176A2.947,2.947,0,0,1,110,38.023l-.07.977H108.6V27h1.445v4.477a2.93,2.93,0,0,1,2.414-1.086,2.863,2.863,0,0,1,2.418,1.164,5.177,5.177,0,0,1,.879,3.188Zm-1.445-.164a3.906,3.906,0,0,0-.57-2.281,1.888,1.888,0,0,0-1.641-.8,2.122,2.122,0,0,0-2.055,1.328V36.6a2.181,2.181,0,0,0,2.07,1.328,1.878,1.878,0,0,0,1.617-.8A4.153,4.153,0,0,0,114.309,34.7Zm4.836,4.3H117.7V30.547h1.445Zm-1.562-10.7a.863.863,0,0,1,.215-.594.807.807,0,0,1,.637-.242.819.819,0,0,1,.641.242.854.854,0,0,1,.219.594.826.826,0,0,1-.219.586.834.834,0,0,1-.641.234.821.821,0,0,1-.637-.234A.834.834,0,0,1,117.582,28.3ZM123.027,39h-1.445V27h1.445Zm3.883,0h-1.445V30.547h1.445Zm-1.562-10.7a.863.863,0,0,1,.215-.594.807.807,0,0,1,.637-.242.819.819,0,0,1,.641.242.854.854,0,0,1,.219.594.826.826,0,0,1-.219.586.834.834,0,0,1-.641.234.821.821,0,0,1-.637-.234A.834.834,0,0,1,125.348,28.3Zm3.523,6.4a4.952,4.952,0,0,1,.922-3.129,3.137,3.137,0,0,1,4.766-.168V27H136V39h-1.328l-.07-.906a2.943,2.943,0,0,1-2.414,1.063,2.887,2.887,0,0,1-2.395-1.2,5.008,5.008,0,0,1-.926-3.141Zm1.445.164a3.749,3.749,0,0,0,.594,2.25,1.919,1.919,0,0,0,1.641.813,2.108,2.108,0,0,0,2.008-1.234V32.813a2.125,2.125,0,0,0-1.992-1.2,1.929,1.929,0,0,0-1.656.82A4.128,4.128,0,0,0,130.316,34.867ZM143.465,39a3.036,3.036,0,0,1-.2-.891,3.225,3.225,0,0,1-2.406,1.047,2.984,2.984,0,0,1-2.051-.707,2.287,2.287,0,0,1-.8-1.793,2.39,2.39,0,0,1,1-2.051,4.733,4.733,0,0,1,2.824-.73h1.406v-.664A1.623,1.623,0,0,0,142.785,32a1.821,1.821,0,0,0-1.336-.449,2.107,2.107,0,0,0-1.3.391,1.151,1.151,0,0,0-.523.945h-1.453a2,2,0,0,1,.449-1.223,3.066,3.066,0,0,1,1.219-.934,4.1,4.1,0,0,1,1.691-.344,3.342,3.342,0,0,1,2.289.73,2.635,2.635,0,0,1,.859,2.012v3.891a4.757,4.757,0,0,0,.3,1.852V39Zm-2.4-1.1a2.54,2.54,0,0,0,1.289-.352,2.127,2.127,0,0,0,.883-.914V34.9h-1.133q-2.656,0-2.656,1.555a1.316,1.316,0,0,0,.453,1.063A1.742,1.742,0,0,0,141.066,37.9Zm5.531-3.2a4.952,4.952,0,0,1,.922-3.129,3.137,3.137,0,0,1,4.766-.168V27h1.445V39H152.4l-.07-.906a2.943,2.943,0,0,1-2.414,1.063,2.887,2.887,0,0,1-2.395-1.2,5.008,5.008,0,0,1-.926-3.141Zm1.445.164a3.749,3.749,0,0,0,.594,2.25,1.919,1.919,0,0,0,1.641.813,2.108,2.108,0,0,0,2.008-1.234V32.813a2.125,2.125,0,0,0-1.992-1.2,1.929,1.929,0,0,0-1.656.82A4.128,4.128,0,0,0,148.043,34.867Zm11.438,4.289a3.693,3.693,0,0,1-2.8-1.129,4.19,4.19,0,0,1-1.078-3.02v-.266a5.073,5.073,0,0,1,.48-2.246,3.748,3.748,0,0,1,1.344-1.547,3.378,3.378,0,0,1,1.871-.559,3.166,3.166,0,0,1,2.563,1.086,4.7,4.7,0,0,1,.914,3.109v.6h-5.727a3,3,0,0,0,.73,2.02,2.3,2.3,0,0,0,1.777.77,2.517,2.517,0,0,0,1.3-.312,3.258,3.258,0,0,0,.93-.828l.883.688A3.55,3.55,0,0,1,159.48,39.156Zm-.18-7.578a1.928,1.928,0,0,0-1.469.637A3.1,3.1,0,0,0,157.1,34h4.234v-.109a2.753,2.753,0,0,0-.594-1.707A1.815,1.815,0,0,0,159.3,31.578Zm10.07,5.18a1.064,1.064,0,0,0-.441-.91,4.249,4.249,0,0,0-1.539-.559,7.277,7.277,0,0,1-1.742-.562,2.479,2.479,0,0,1-.953-.781,1.869,1.869,0,0,1-.309-1.078,2.193,2.193,0,0,1,.879-1.758,3.432,3.432,0,0,1,2.246-.719,3.532,3.532,0,0,1,2.332.742,2.357,2.357,0,0,1,.895,1.9h-1.453a1.3,1.3,0,0,0-.5-1.023,1.888,1.888,0,0,0-1.27-.43,1.976,1.976,0,0,0-1.234.344,1.082,1.082,0,0,0-.445.9.877.877,0,0,0,.414.789,5.1,5.1,0,0,0,1.5.508,7.8,7.8,0,0,1,1.754.578,2.558,2.558,0,0,1,1,.809,1.988,1.988,0,0,1,.324,1.152,2.163,2.163,0,0,1-.906,1.816,3.8,3.8,0,0,1-2.352.684,4.257,4.257,0,0,1-1.8-.359,2.922,2.922,0,0,1-1.223-1A2.42,2.42,0,0,1,164.1,36.4h1.445a1.5,1.5,0,0,0,.582,1.152,2.258,2.258,0,0,0,1.434.426,2.331,2.331,0,0,0,1.316-.332A1.02,1.02,0,0,0,169.371,36.758ZM103.242,60.023H98.477L97.406,63H95.859L100.2,51.625h1.313L105.867,63h-1.539ZM98.93,58.8H102.8l-1.937-5.32Zm11.633,3.18a2.082,2.082,0,0,0,1.352-.469,1.649,1.649,0,0,0,.641-1.172h1.367a2.621,2.621,0,0,1-.5,1.383,3.293,3.293,0,0,1-1.23,1.047,3.55,3.55,0,0,1-1.629.391A3.482,3.482,0,0,1,107.816,62a4.59,4.59,0,0,1-1.02-3.152v-.242a5.089,5.089,0,0,1,.453-2.2,3.451,3.451,0,0,1,1.3-1.492,3.7,3.7,0,0,1,2-.531,3.39,3.39,0,0,1,2.363.852,3.043,3.043,0,0,1,1,2.211h-1.367a1.992,1.992,0,0,0-.621-1.348,1.932,1.932,0,0,0-1.379-.527,2.023,2.023,0,0,0-1.707.793,3.724,3.724,0,0,0-.605,2.293v.273a3.65,3.65,0,0,0,.6,2.25A2.033,2.033,0,0,0,110.563,61.977Zm6.945-9.477v2.047h1.578v1.117h-1.578v5.249a1.173,1.173,0,0,0,.211.763.888.888,0,0,0,.719.254,3.5,3.5,0,0,0,.688-.094V63a4.215,4.215,0,0,1-1.109.155,1.8,1.8,0,0,1-1.461-.586,2.517,2.517,0,0,1-.492-1.664V55.664h-1.539V54.547h1.539V52.5ZM122.344,63H120.9V54.547h1.445Zm-1.562-10.7a.863.863,0,0,1,.215-.594.807.807,0,0,1,.637-.242.819.819,0,0,1,.641.242.854.854,0,0,1,.219.594.826.826,0,0,1-.219.586.834.834,0,0,1-.641.234.821.821,0,0,1-.637-.234A.834.834,0,0,1,120.781,52.3Zm5.836.2v2.047H128.2v1.117h-1.578v5.249a1.173,1.173,0,0,0,.211.763.888.888,0,0,0,.719.254,3.5,3.5,0,0,0,.688-.094V63a4.215,4.215,0,0,1-1.109.155,1.8,1.8,0,0,1-1.461-.586,2.517,2.517,0,0,1-.492-1.664V55.664h-1.539V54.547h1.539V52.5Zm8.484,9.664a3.07,3.07,0,0,1-2.477.992,2.628,2.628,0,0,1-2.059-.785,3.4,3.4,0,0,1-.715-2.324v-5.5H131.3v5.461q0,1.922,1.563,1.922a2.163,2.163,0,0,0,2.2-1.234V54.547h1.445V63h-1.375Zm3.25-3.461a4.952,4.952,0,0,1,.922-3.129,3.137,3.137,0,0,1,4.766-.168V51h1.445V63h-1.328l-.07-.906a2.943,2.943,0,0,1-2.414,1.063,2.887,2.887,0,0,1-2.395-1.2,5.008,5.008,0,0,1-.926-3.141Zm1.445.164a3.749,3.749,0,0,0,.594,2.25,1.919,1.919,0,0,0,1.641.813,2.108,2.108,0,0,0,2.008-1.234V56.813a2.125,2.125,0,0,0-1.992-1.2,1.929,1.929,0,0,0-1.656.82A4.128,4.128,0,0,0,139.8,58.867Zm11.438,4.289a3.693,3.693,0,0,1-2.8-1.129,4.19,4.19,0,0,1-1.078-3.02v-.266a5.073,5.073,0,0,1,.48-2.246,3.748,3.748,0,0,1,1.344-1.547,3.378,3.378,0,0,1,1.871-.559,3.166,3.166,0,0,1,2.563,1.086,4.7,4.7,0,0,1,.914,3.109v.6H148.8a3,3,0,0,0,.73,2.02,2.3,2.3,0,0,0,1.777.77,2.517,2.517,0,0,0,1.3-.312,3.258,3.258,0,0,0,.93-.828l.883.688A3.55,3.55,0,0,1,151.234,63.156Zm-.18-7.578a1.928,1.928,0,0,0-1.469.637A3.1,3.1,0,0,0,148.852,58h4.234v-.109a2.753,2.753,0,0,0-.594-1.707A1.815,1.815,0,0,0,151.055,55.578Zm10.07,5.18a1.064,1.064,0,0,0-.441-.91,4.249,4.249,0,0,0-1.539-.559,7.277,7.277,0,0,1-1.742-.562,2.479,2.479,0,0,1-.953-.781,1.869,1.869,0,0,1-.309-1.078,2.193,2.193,0,0,1,.879-1.758,3.432,3.432,0,0,1,2.246-.719,3.532,3.532,0,0,1,2.332.742,2.357,2.357,0,0,1,.895,1.9h-1.453a1.3,1.3,0,0,0-.5-1.023,1.888,1.888,0,0,0-1.27-.43,1.976,1.976,0,0,0-1.234.344,1.082,1.082,0,0,0-.445.9.877.877,0,0,0,.414.789,5.1,5.1,0,0,0,1.5.508,7.8,7.8,0,0,1,1.754.578,2.558,2.558,0,0,1,1,.809,1.988,1.988,0,0,1,.324,1.152,2.163,2.163,0,0,1-.906,1.816,3.8,3.8,0,0,1-2.352.684,4.257,4.257,0,0,1-1.8-.359,2.922,2.922,0,0,1-1.223-1,2.42,2.42,0,0,1-.441-1.395H157.3a1.5,1.5,0,0,0,.582,1.152,2.258,2.258,0,0,0,1.434.426,2.331,2.331,0,0,0,1.316-.332A1.02,1.02,0,0,0,161.125,60.758Zm-53.3,24.25,3.25-9.383h1.641L108.5,87h-1.328l-4.211-11.375h1.633ZM118.871,87a3.036,3.036,0,0,1-.2-.891,3.225,3.225,0,0,1-2.406,1.047,2.984,2.984,0,0,1-2.051-.707,2.287,2.287,0,0,1-.8-1.793,2.39,2.39,0,0,1,1-2.051,4.733,4.733,0,0,1,2.824-.73h1.406v-.664A1.623,1.623,0,0,0,118.191,80a1.821,1.821,0,0,0-1.336-.449,2.108,2.108,0,0,0-1.3.391,1.151,1.151,0,0,0-.523.945h-1.453a2,2,0,0,1,.449-1.223,3.066,3.066,0,0,1,1.219-.934,4.1,4.1,0,0,1,1.691-.344,3.342,3.342,0,0,1,2.289.73,2.635,2.635,0,0,1,.859,2.012v3.891a4.757,4.757,0,0,0,.3,1.852V87Zm-2.4-1.1a2.54,2.54,0,0,0,1.289-.352,2.127,2.127,0,0,0,.883-.914V82.9h-1.133q-2.656,0-2.656,1.555a1.316,1.316,0,0,0,.453,1.063A1.742,1.742,0,0,0,116.473,85.9Zm7.453,1.1H122.48V75h1.445Zm1.93-4.3a4.993,4.993,0,0,1,.488-2.234A3.643,3.643,0,0,1,127.7,78.93a3.7,3.7,0,0,1,1.988-.539,3.565,3.565,0,0,1,2.793,1.2,4.6,4.6,0,0,1,1.066,3.18v.1a5.036,5.036,0,0,1-.473,2.215,3.589,3.589,0,0,1-1.352,1.527,3.743,3.743,0,0,1-2.02.547,3.556,3.556,0,0,1-2.785-1.2,4.575,4.575,0,0,1-1.066-3.164Zm1.453.172a3.616,3.616,0,0,0,.652,2.258,2.211,2.211,0,0,0,3.5-.012,3.954,3.954,0,0,0,.648-2.418,3.61,3.61,0,0,0-.66-2.254,2.1,2.1,0,0,0-1.754-.863,2.075,2.075,0,0,0-1.727.852A3.925,3.925,0,0,0,127.309,82.867Zm12.141-3.023a4.331,4.331,0,0,0-.711-.055A1.9,1.9,0,0,0,136.809,81v6h-1.445V78.547h1.406l.023.977a2.251,2.251,0,0,1,2.016-1.133,1.477,1.477,0,0,1,.641.109Zm4.688,7.313a3.693,3.693,0,0,1-2.8-1.129,4.19,4.19,0,0,1-1.078-3.02v-.266a5.073,5.073,0,0,1,.48-2.246,3.748,3.748,0,0,1,1.344-1.547,3.378,3.378,0,0,1,1.871-.559,3.166,3.166,0,0,1,2.563,1.086,4.7,4.7,0,0,1,.914,3.109v.6h-5.727a3,3,0,0,0,.73,2.02,2.3,2.3,0,0,0,1.777.77,2.517,2.517,0,0,0,1.3-.312,3.258,3.258,0,0,0,.93-.828l.883.688A3.55,3.55,0,0,1,144.137,87.156Zm-.18-7.578a1.928,1.928,0,0,0-1.469.637A3.1,3.1,0,0,0,141.754,82h4.234v-.109a2.753,2.753,0,0,0-.594-1.707A1.815,1.815,0,0,0,143.957,79.578Zm10.07,5.18a1.064,1.064,0,0,0-.441-.91,4.249,4.249,0,0,0-1.539-.559,7.277,7.277,0,0,1-1.742-.562,2.479,2.479,0,0,1-.953-.781,1.869,1.869,0,0,1-.309-1.078,2.193,2.193,0,0,1,.879-1.758,3.432,3.432,0,0,1,2.246-.719,3.532,3.532,0,0,1,2.332.742,2.357,2.357,0,0,1,.895,1.9h-1.453a1.3,1.3,0,0,0-.5-1.023,1.888,1.888,0,0,0-1.27-.43,1.976,1.976,0,0,0-1.234.344,1.082,1.082,0,0,0-.445.9.877.877,0,0,0,.414.789,5.1,5.1,0,0,0,1.5.508,7.8,7.8,0,0,1,1.754.578,2.558,2.558,0,0,1,1,.809,1.988,1.988,0,0,1,.324,1.152,2.163,2.163,0,0,1-.906,1.816,3.8,3.8,0,0,1-2.352.684,4.257,4.257,0,0,1-1.8-.359,2.922,2.922,0,0,1-1.223-1,2.42,2.42,0,0,1-.441-1.395H150.2a1.5,1.5,0,0,0,.582,1.152,2.258,2.258,0,0,0,1.434.426,2.331,2.331,0,0,0,1.316-.332A1.02,1.02,0,0,0,154.027,84.758Z" transform="translate(1034.285 6786.128)" fill="#12263f"/>
    <path id="Trazado_181412" data-name="Trazado 181412" d="M97.75,15h-1.5V3.625h1.5Zm3.875-8.453.039.938a3.122,3.122,0,0,1,2.508-1.094,2.417,2.417,0,0,1,2.414,1.359,3.2,3.2,0,0,1,1.1-.984,3.242,3.242,0,0,1,1.6-.375q2.781,0,2.828,2.945V15h-1.445V9.422a1.941,1.941,0,0,0-.414-1.355,1.823,1.823,0,0,0-1.391-.449,1.916,1.916,0,0,0-1.336.48,1.949,1.949,0,0,0-.617,1.293V15h-1.453V9.461a1.613,1.613,0,0,0-1.8-1.844A1.934,1.934,0,0,0,101.7,8.828V15h-1.445V6.547ZM119.508,15a3.036,3.036,0,0,1-.2-.891,3.225,3.225,0,0,1-2.406,1.047,2.984,2.984,0,0,1-2.051-.707,2.288,2.288,0,0,1-.8-1.793,2.39,2.39,0,0,1,1-2.051,4.733,4.733,0,0,1,2.824-.73h1.406V9.211A1.623,1.623,0,0,0,118.828,8a1.821,1.821,0,0,0-1.336-.449,2.108,2.108,0,0,0-1.3.391,1.151,1.151,0,0,0-.523.945h-1.453a2,2,0,0,1,.449-1.223,3.066,3.066,0,0,1,1.219-.934,4.1,4.1,0,0,1,1.691-.344,3.342,3.342,0,0,1,2.289.73,2.635,2.635,0,0,1,.859,2.012v3.891a4.757,4.757,0,0,0,.3,1.852V15Zm-2.4-1.1a2.54,2.54,0,0,0,1.289-.352,2.127,2.127,0,0,0,.883-.914V10.9h-1.133q-2.656,0-2.656,1.555a1.316,1.316,0,0,0,.453,1.063A1.742,1.742,0,0,0,117.109,13.9Zm5.539-3.2a4.968,4.968,0,0,1,.914-3.145,3.151,3.151,0,0,1,4.836-.074l.07-.937h1.32V14.8a3.439,3.439,0,0,1-.973,2.586,3.589,3.589,0,0,1-2.613.945,4.348,4.348,0,0,1-1.789-.391,3.08,3.08,0,0,1-1.336-1.07l.75-.867a2.826,2.826,0,0,0,2.273,1.148,2.214,2.214,0,0,0,1.645-.594,2.269,2.269,0,0,0,.59-1.672v-.727a2.971,2.971,0,0,1-2.367,1,2.887,2.887,0,0,1-2.4-1.2A5.224,5.224,0,0,1,122.648,10.7Zm1.453.164a3.79,3.79,0,0,0,.586,2.246,1.9,1.9,0,0,0,1.641.816,2.117,2.117,0,0,0,2.008-1.242V8.828a2.142,2.142,0,0,0-1.992-1.211,1.921,1.921,0,0,0-1.648.82A4.128,4.128,0,0,0,124.1,10.867Zm11.375,4.289a3.693,3.693,0,0,1-2.8-1.129,4.19,4.19,0,0,1-1.078-3.02v-.266a5.073,5.073,0,0,1,.48-2.246,3.748,3.748,0,0,1,1.344-1.547,3.378,3.378,0,0,1,1.871-.559,3.166,3.166,0,0,1,2.563,1.086,4.7,4.7,0,0,1,.914,3.109v.6h-5.727a3,3,0,0,0,.73,2.02,2.3,2.3,0,0,0,1.777.77,2.517,2.517,0,0,0,1.3-.312,3.258,3.258,0,0,0,.93-.828l.883.688A3.55,3.55,0,0,1,135.477,15.156Zm-.18-7.578a1.928,1.928,0,0,0-1.469.637A3.1,3.1,0,0,0,133.094,10h4.234V9.891a2.753,2.753,0,0,0-.594-1.707A1.815,1.815,0,0,0,135.3,7.578Zm6.516-1.031.047,1.063a3.08,3.08,0,0,1,2.531-1.219q2.68,0,2.7,3.023V15h-1.445V9.406a1.946,1.946,0,0,0-.418-1.352,1.675,1.675,0,0,0-1.277-.437,2.086,2.086,0,0,0-1.234.375,2.546,2.546,0,0,0-.828.984V15h-1.445V6.547Zm-49.082,28V39h-1.5V27.625h4.2a4.215,4.215,0,0,1,2.926.953A3.231,3.231,0,0,1,99.41,31.1a3.189,3.189,0,0,1-1.035,2.551,4.4,4.4,0,0,1-2.965.895Zm0-1.227h2.7a2.7,2.7,0,0,0,1.844-.567,2.075,2.075,0,0,0,.641-1.64,2.143,2.143,0,0,0-.641-1.628,2.525,2.525,0,0,0-1.758-.634H92.73Zm12.453-1.477a4.331,4.331,0,0,0-.711-.055A1.9,1.9,0,0,0,102.543,33v6H101.1V30.547H102.5l.023.977a2.251,2.251,0,0,1,2.016-1.133,1.477,1.477,0,0,1,.641.109Zm4.688,7.313a3.693,3.693,0,0,1-2.8-1.129A4.19,4.19,0,0,1,106,35.008v-.266a5.073,5.073,0,0,1,.48-2.246,3.748,3.748,0,0,1,1.344-1.547,3.378,3.378,0,0,1,1.871-.559,3.166,3.166,0,0,1,2.563,1.086,4.7,4.7,0,0,1,.914,3.109v.6h-5.727a3,3,0,0,0,.73,2.02,2.3,2.3,0,0,0,1.777.77,2.517,2.517,0,0,0,1.3-.312,3.259,3.259,0,0,0,.93-.828l.883.688A3.55,3.55,0,0,1,109.871,39.156Zm-.18-7.578a1.928,1.928,0,0,0-1.469.637A3.1,3.1,0,0,0,107.488,34h4.234v-.109a2.753,2.753,0,0,0-.594-1.707A1.815,1.815,0,0,0,109.691,31.578Zm10.07,5.18a1.064,1.064,0,0,0-.441-.91,4.249,4.249,0,0,0-1.539-.559,7.277,7.277,0,0,1-1.742-.562,2.479,2.479,0,0,1-.953-.781,1.869,1.869,0,0,1-.309-1.078,2.193,2.193,0,0,1,.879-1.758,3.432,3.432,0,0,1,2.246-.719,3.532,3.532,0,0,1,2.332.742,2.357,2.357,0,0,1,.895,1.9h-1.453a1.3,1.3,0,0,0-.5-1.023,1.888,1.888,0,0,0-1.27-.43,1.976,1.976,0,0,0-1.234.344,1.082,1.082,0,0,0-.445.9.877.877,0,0,0,.414.789,5.1,5.1,0,0,0,1.5.508,7.8,7.8,0,0,1,1.754.578,2.558,2.558,0,0,1,1,.809,1.988,1.988,0,0,1,.324,1.152,2.163,2.163,0,0,1-.906,1.816,3.8,3.8,0,0,1-2.352.684,4.257,4.257,0,0,1-1.8-.359,2.922,2.922,0,0,1-1.223-1,2.42,2.42,0,0,1-.441-1.395h1.445a1.5,1.5,0,0,0,.582,1.152,2.258,2.258,0,0,0,1.434.426,2.331,2.331,0,0,0,1.316-.332A1.02,1.02,0,0,0,119.762,36.758Zm5.289-8.258v2.047h1.578v1.117h-1.578v5.249a1.173,1.173,0,0,0,.211.763.888.888,0,0,0,.719.254,3.5,3.5,0,0,0,.688-.094V39a4.215,4.215,0,0,1-1.109.155,1.8,1.8,0,0,1-1.461-.586,2.517,2.517,0,0,1-.492-1.664V31.664h-1.539V30.547h1.539V28.5ZM129.887,39h-1.445V30.547h1.445Zm-1.562-10.7a.863.863,0,0,1,.215-.594.807.807,0,0,1,.637-.242.819.819,0,0,1,.641.242.854.854,0,0,1,.219.594.826.826,0,0,1-.219.586.834.834,0,0,1-.641.234.821.821,0,0,1-.637-.234A.834.834,0,0,1,128.324,28.3Zm3.531,6.4a4.968,4.968,0,0,1,.914-3.145,3.151,3.151,0,0,1,4.836-.074l.07-.937H139V38.8a3.439,3.439,0,0,1-.973,2.586,3.589,3.589,0,0,1-2.613.945,4.348,4.348,0,0,1-1.789-.391,3.08,3.08,0,0,1-1.336-1.07l.75-.867a2.826,2.826,0,0,0,2.273,1.148,2.214,2.214,0,0,0,1.645-.594,2.269,2.269,0,0,0,.59-1.672v-.727a2.971,2.971,0,0,1-2.367,1,2.887,2.887,0,0,1-2.4-1.2A5.224,5.224,0,0,1,131.855,34.7Zm1.453.164a3.79,3.79,0,0,0,.586,2.246,1.9,1.9,0,0,0,1.641.816,2.117,2.117,0,0,0,2.008-1.242V32.828a2.142,2.142,0,0,0-1.992-1.211,1.921,1.921,0,0,0-1.648.82A4.128,4.128,0,0,0,133.309,34.867ZM142.746,39H141.3V30.547h1.445Zm-1.562-10.7a.863.863,0,0,1,.215-.594.807.807,0,0,1,.637-.242.819.819,0,0,1,.641.242.854.854,0,0,1,.219.594.826.826,0,0,1-.219.586.834.834,0,0,1-.641.234.821.821,0,0,1-.637-.234A.834.834,0,0,1,141.184,28.3Zm3.492,6.391a4.993,4.993,0,0,1,.488-2.234,3.642,3.642,0,0,1,1.359-1.531,3.7,3.7,0,0,1,1.988-.539,3.565,3.565,0,0,1,2.793,1.2,4.6,4.6,0,0,1,1.066,3.18v.1a5.036,5.036,0,0,1-.473,2.215,3.589,3.589,0,0,1-1.352,1.527,3.743,3.743,0,0,1-2.02.547,3.556,3.556,0,0,1-2.785-1.2,4.575,4.575,0,0,1-1.066-3.164Zm1.453.172a3.616,3.616,0,0,0,.652,2.258,2.211,2.211,0,0,0,3.5-.012,3.954,3.954,0,0,0,.648-2.418,3.61,3.61,0,0,0-.66-2.254,2.1,2.1,0,0,0-1.754-.863,2.075,2.075,0,0,0-1.727.852A3.925,3.925,0,0,0,146.129,34.867ZM102.25,51.625l3.719,9.281,3.719-9.281h1.945V63h-1.5V58.57l.141-4.781L106.539,63h-1.148l-3.727-9.187.148,4.758V63h-1.5V51.625ZM119.273,63a3.036,3.036,0,0,1-.2-.891,3.225,3.225,0,0,1-2.406,1.047,2.984,2.984,0,0,1-2.051-.707,2.288,2.288,0,0,1-.8-1.793,2.39,2.39,0,0,1,1-2.051,4.733,4.733,0,0,1,2.824-.73h1.406v-.664A1.623,1.623,0,0,0,118.594,56a1.821,1.821,0,0,0-1.336-.449,2.107,2.107,0,0,0-1.3.391,1.151,1.151,0,0,0-.523.945h-1.453a2,2,0,0,1,.449-1.223,3.066,3.066,0,0,1,1.219-.934,4.1,4.1,0,0,1,1.691-.344,3.342,3.342,0,0,1,2.289.73,2.635,2.635,0,0,1,.859,2.012v3.891a4.757,4.757,0,0,0,.3,1.852V63Zm-2.4-1.1a2.54,2.54,0,0,0,1.289-.352,2.127,2.127,0,0,0,.883-.914V58.9h-1.133q-2.656,0-2.656,1.555a1.316,1.316,0,0,0,.453,1.063A1.742,1.742,0,0,0,116.875,61.9Zm9.969-6.055a4.331,4.331,0,0,0-.711-.055A1.9,1.9,0,0,0,124.2,57v6h-1.445V54.547h1.406l.023.977a2.251,2.251,0,0,1,2.016-1.133,1.477,1.477,0,0,1,.641.109Zm4.57,6.133a2.082,2.082,0,0,0,1.352-.469,1.649,1.649,0,0,0,.641-1.172h1.367a2.621,2.621,0,0,1-.5,1.383,3.293,3.293,0,0,1-1.23,1.047,3.55,3.55,0,0,1-1.629.391A3.482,3.482,0,0,1,128.668,62a4.59,4.59,0,0,1-1.02-3.152v-.242a5.089,5.089,0,0,1,.453-2.2,3.451,3.451,0,0,1,1.3-1.492,3.7,3.7,0,0,1,2-.531,3.39,3.39,0,0,1,2.363.852,3.043,3.043,0,0,1,1,2.211h-1.367a1.992,1.992,0,0,0-.621-1.348,1.932,1.932,0,0,0-1.379-.527,2.023,2.023,0,0,0-1.707.793,3.724,3.724,0,0,0-.605,2.293v.273a3.65,3.65,0,0,0,.6,2.25A2.033,2.033,0,0,0,131.414,61.977ZM141.617,63a3.036,3.036,0,0,1-.2-.891,3.225,3.225,0,0,1-2.406,1.047,2.984,2.984,0,0,1-2.051-.707,2.287,2.287,0,0,1-.8-1.793,2.39,2.39,0,0,1,1-2.051,4.733,4.733,0,0,1,2.824-.73h1.406v-.664A1.623,1.623,0,0,0,140.938,56a1.821,1.821,0,0,0-1.336-.449,2.107,2.107,0,0,0-1.3.391,1.151,1.151,0,0,0-.523.945h-1.453a2,2,0,0,1,.449-1.223A3.066,3.066,0,0,1,138,54.734a4.1,4.1,0,0,1,1.691-.344,3.342,3.342,0,0,1,2.289.73,2.635,2.635,0,0,1,.859,2.012v3.891a4.757,4.757,0,0,0,.3,1.852V63Zm-2.4-1.1a2.54,2.54,0,0,0,1.289-.352,2.127,2.127,0,0,0,.883-.914V58.9h-1.133q-2.656,0-2.656,1.555a1.316,1.316,0,0,0,.453,1.063A1.742,1.742,0,0,0,139.219,61.9ZM105.7,83.391a4.185,4.185,0,0,1-1.332,2.785,4.365,4.365,0,0,1-2.98.98,4.008,4.008,0,0,1-3.23-1.445,5.815,5.815,0,0,1-1.215-3.867V80.75a6.481,6.481,0,0,1,.566-2.789,4.231,4.231,0,0,1,1.605-1.848,4.47,4.47,0,0,1,2.406-.645,4.11,4.11,0,0,1,2.906,1.012,4.235,4.235,0,0,1,1.273,2.8H104.2a3.268,3.268,0,0,0-.848-1.975,2.565,2.565,0,0,0-1.824-.611,2.684,2.684,0,0,0-2.254,1.063,4.882,4.882,0,0,0-.816,3.026v1.1a5.018,5.018,0,0,0,.773,2.948,2.5,2.5,0,0,0,2.164,1.095,2.887,2.887,0,0,0,1.918-.566,3.143,3.143,0,0,0,.887-1.973Zm7.039,2.773a3.07,3.07,0,0,1-2.477.992,2.628,2.628,0,0,1-2.059-.785,3.4,3.4,0,0,1-.715-2.324v-5.5h1.445v5.461q0,1.922,1.563,1.922a2.163,2.163,0,0,0,2.2-1.234V78.547h1.445V87h-1.375Zm5.172.836h-1.445V75h1.445Zm4.273-10.5v2.047h1.578v1.117h-1.578v5.249a1.173,1.173,0,0,0,.211.763.888.888,0,0,0,.719.254,3.5,3.5,0,0,0,.688-.094V87a4.215,4.215,0,0,1-1.109.155,1.8,1.8,0,0,1-1.461-.586,2.517,2.517,0,0,1-.492-1.664V79.664H119.2V78.547h1.539V76.5Zm8.484,9.664a3.07,3.07,0,0,1-2.477.992,2.628,2.628,0,0,1-2.059-.785,3.4,3.4,0,0,1-.715-2.324v-5.5h1.445v5.461q0,1.922,1.563,1.922a2.163,2.163,0,0,0,2.2-1.234V78.547h1.445V87H130.7Zm7.688-6.32a4.331,4.331,0,0,0-.711-.055A1.9,1.9,0,0,0,135.719,81v6h-1.445V78.547h1.406l.023.977a2.251,2.251,0,0,1,2.016-1.133,1.477,1.477,0,0,1,.641.109ZM144.594,87a3.036,3.036,0,0,1-.2-.891,3.225,3.225,0,0,1-2.406,1.047,2.984,2.984,0,0,1-2.051-.707,2.287,2.287,0,0,1-.8-1.793,2.39,2.39,0,0,1,1-2.051,4.733,4.733,0,0,1,2.824-.73h1.406v-.664A1.623,1.623,0,0,0,143.914,80a1.821,1.821,0,0,0-1.336-.449,2.108,2.108,0,0,0-1.3.391,1.151,1.151,0,0,0-.523.945H139.3a2,2,0,0,1,.449-1.223,3.066,3.066,0,0,1,1.219-.934,4.1,4.1,0,0,1,1.691-.344,3.342,3.342,0,0,1,2.289.73,2.635,2.635,0,0,1,.859,2.012v3.891a4.757,4.757,0,0,0,.3,1.852V87Zm-2.4-1.1a2.54,2.54,0,0,0,1.289-.352,2.127,2.127,0,0,0,.883-.914V82.9h-1.133q-2.656,0-2.656,1.555a1.316,1.316,0,0,0,.453,1.063A1.742,1.742,0,0,0,142.2,85.9ZM105.027,111h-1.5V99.625h1.5Zm2.164-4.3a4.952,4.952,0,0,1,.922-3.129,3.137,3.137,0,0,1,4.766-.168V99h1.445v12H113l-.07-.906a2.943,2.943,0,0,1-2.414,1.063,2.887,2.887,0,0,1-2.395-1.2,5.008,5.008,0,0,1-.926-3.141Zm1.445.164a3.749,3.749,0,0,0,.594,2.25,1.92,1.92,0,0,0,1.641.813,2.109,2.109,0,0,0,2.008-1.234v-3.883a2.125,2.125,0,0,0-1.992-1.2,1.929,1.929,0,0,0-1.656.82A4.128,4.128,0,0,0,108.637,106.867Zm11.438,4.289a3.693,3.693,0,0,1-2.8-1.129,4.19,4.19,0,0,1-1.078-3.02v-.266a5.073,5.073,0,0,1,.48-2.246,3.748,3.748,0,0,1,1.344-1.547,3.378,3.378,0,0,1,1.871-.559,3.166,3.166,0,0,1,2.563,1.086,4.7,4.7,0,0,1,.914,3.109v.6h-5.727a3,3,0,0,0,.73,2.02,2.3,2.3,0,0,0,1.777.77,2.517,2.517,0,0,0,1.3-.312,3.259,3.259,0,0,0,.93-.828l.883.688A3.55,3.55,0,0,1,120.074,111.156Zm-.18-7.578a1.928,1.928,0,0,0-1.469.637,3.1,3.1,0,0,0-.734,1.785h4.234v-.109a2.753,2.753,0,0,0-.594-1.707A1.815,1.815,0,0,0,119.895,103.578ZM130.262,111a3.036,3.036,0,0,1-.2-.891,3.225,3.225,0,0,1-2.406,1.047,2.984,2.984,0,0,1-2.051-.707,2.287,2.287,0,0,1-.8-1.793,2.39,2.39,0,0,1,1-2.051,4.733,4.733,0,0,1,2.824-.73h1.406v-.664a1.623,1.623,0,0,0-.453-1.207,1.821,1.821,0,0,0-1.336-.449,2.108,2.108,0,0,0-1.3.391,1.151,1.151,0,0,0-.523.945h-1.453a2,2,0,0,1,.449-1.223,3.066,3.066,0,0,1,1.219-.934,4.1,4.1,0,0,1,1.691-.344,3.342,3.342,0,0,1,2.289.73,2.635,2.635,0,0,1,.859,2.012v3.891a4.757,4.757,0,0,0,.3,1.852V111Zm-2.4-1.1a2.54,2.54,0,0,0,1.289-.352,2.127,2.127,0,0,0,.883-.914V106.9H128.9q-2.656,0-2.656,1.555a1.316,1.316,0,0,0,.453,1.063A1.742,1.742,0,0,0,127.863,109.9Zm10.8-1.141a1.064,1.064,0,0,0-.441-.91,4.249,4.249,0,0,0-1.539-.559,7.277,7.277,0,0,1-1.742-.562,2.479,2.479,0,0,1-.953-.781,1.869,1.869,0,0,1-.309-1.078,2.193,2.193,0,0,1,.879-1.758,3.432,3.432,0,0,1,2.246-.719,3.532,3.532,0,0,1,2.332.742,2.357,2.357,0,0,1,.895,1.9h-1.453a1.3,1.3,0,0,0-.5-1.023,1.888,1.888,0,0,0-1.27-.43,1.976,1.976,0,0,0-1.234.344,1.082,1.082,0,0,0-.445.9.877.877,0,0,0,.414.789,5.1,5.1,0,0,0,1.5.508,7.8,7.8,0,0,1,1.754.578,2.558,2.558,0,0,1,1,.809,1.988,1.988,0,0,1,.324,1.152,2.163,2.163,0,0,1-.906,1.816,3.8,3.8,0,0,1-2.352.684,4.257,4.257,0,0,1-1.8-.359,2.922,2.922,0,0,1-1.223-1,2.42,2.42,0,0,1-.441-1.395h1.445a1.5,1.5,0,0,0,.582,1.152,2.258,2.258,0,0,0,1.434.426,2.331,2.331,0,0,0,1.316-.332A1.02,1.02,0,0,0,138.668,108.758Z" transform="translate(680.285 6822.128)" fill="#12263f"/>
    <g id="Filledotuline" transform="translate(372.414 6656.421)">
      <path id="Trazado_104062" data-name="Trazado 104062" d="M331.13,83.36v23.018H308.09V78.24l7.138,1.586Z" transform="translate(-234.03 -49.868)" fill="#fdd835"/>
      <path id="Trazado_104063" data-name="Trazado 104063" d="M315.228,79.826v26.552H308.09V78.24Z" transform="translate(-234.03 -49.868)" fill="#f7aa23"/>
      <path id="Trazado_104064" data-name="Trazado 104064" d="M320,208h28.624v55.657H320Z" transform="translate(-243.573 -153.835)" fill="#f57c00"/>
      <path id="Trazado_104065" data-name="Trazado 104065" d="M328,208h3.18v55.657H328Z" transform="translate(-249.983 -153.835)" fill="#f57c00" style="mix-blend-mode: multiply;isolation: isolate"/>
      <path id="Trazado_104066" data-name="Trazado 104066" d="M152,40h34.984v79.51H152Z" transform="translate(-108.967 -19.229)" fill="#26ccda"/>
      <path id="Trazado_104067" data-name="Trazado 104067" d="M136,24h41.345v6.361H136Z" transform="translate(-96.147 -6.41)" fill="#26ccda"/>
      <path id="Trazado_104068" data-name="Trazado 104068" d="M152,56h34.984v3.18H152Z" transform="translate(-108.967 -32.049)" fill="#26ccda" style="mix-blend-mode: multiply;isolation: isolate"/>
      <path id="Trazado_104069" data-name="Trazado 104069" d="M41.492,192.462l-3.956-5.274a4.075,4.075,0,0,1,5.082-6.089l6.825,3.413,6.825-3.412a4.075,4.075,0,0,1,5.082,6.089l-3.956,5.274v6.361L72.538,220.85a13.347,13.347,0,0,1-11,20.908H37.347a13.347,13.347,0,0,1-11-20.908l15.144-22.027Z" transform="translate(-6.41 -131.937)" fill="#ffa726"/>
      <path id="Trazado_104070" data-name="Trazado 104070" d="M112,240h15.9v6.361H112Z" transform="translate(-76.918 -179.474)" fill="#b0792c"/>
      <rect id="Rectángulo_9462" data-name="Rectángulo 9462" width="25.77" height="6.443" rx="3.221" transform="translate(57.416 96.686)" fill="#f57c00"/>
      <rect id="Rectángulo_9463" data-name="Rectángulo 9463" width="25.77" height="5.522" rx="2.761" transform="translate(60.177 91.163)" fill="#fdd835"/>
      <rect id="Rectángulo_9464" data-name="Rectángulo 9464" width="25.77" height="6.443" rx="3.221" transform="translate(60.177 103.128)" fill="#fdd835"/>
      <path id="Trazado_104071" data-name="Trazado 104071" d="M55.129,233.759H30.937a11.757,11.757,0,0,1-9.688-18.417L35.918,194H50.147L62.793,212.4l2.621-1.8L52.574,191.92v-5.337l3.638-4.85a5.665,5.665,0,0,0-7.065-8.466l-6.114,3.057-6.114-3.057a5.665,5.665,0,0,0-7.065,8.466l3.638,4.85v5.337L18.628,213.54a14.937,14.937,0,0,0,12.309,23.4H55.129c.232,0,.467-.005.7-.016l-.146-3.177C55.5,233.755,55.312,233.759,55.129,233.759ZM36.672,190.824v-3.18H49.394v3.18ZM31.9,178.334a2.485,2.485,0,0,1,3.6-2.222l6.825,3.412a1.59,1.59,0,0,0,1.422,0l6.825-3.412a2.484,2.484,0,0,1,3.1,3.713l-3.479,4.638H35.877L32.4,179.825A2.5,2.5,0,0,1,31.9,178.334Z" transform="translate(0 -125.528)"/>
      <path id="Trazado_104072" data-name="Trazado 104072" d="M137.541,350.361v-.232a4.547,4.547,0,0,0-3.18-4.331V344h-3.18v1.8a4.539,4.539,0,0,0-.671,8.39l3.1,1.55a1.358,1.358,0,0,1-.607,2.573h-.464a1.36,1.36,0,0,1-1.358-1.358v-.232H128v.232a4.547,4.547,0,0,0,3.18,4.331v1.8h3.18v-1.8a4.539,4.539,0,0,0,.671-8.39l-3.1-1.55a1.358,1.358,0,0,1,.607-2.573H133a1.36,1.36,0,0,1,1.358,1.358v.232Z" transform="translate(-89.738 -262.802)"/>
      <path id="Trazado_104073" data-name="Trazado 104073" d="M96,384h3.18v3.18H96Z" transform="translate(-64.098 -294.851)"/>
      <path id="Trazado_104074" data-name="Trazado 104074" d="M192,384h3.18v3.18H192Z" transform="translate(-141.016 -294.851)"/>
      <path id="Trazado_104075" data-name="Trazado 104075" d="M247.817,388.771A4.776,4.776,0,0,0,243.046,384H223.964a4.768,4.768,0,0,0-4.433,6.529,4.771,4.771,0,0,0,0,9.2,4.768,4.768,0,0,0,4.433,6.529h19.082a4.771,4.771,0,0,0,1.252-9.373,4.751,4.751,0,0,0,0-3.517A4.778,4.778,0,0,0,247.817,388.771Zm-27.033,4.771h19.082a1.59,1.59,0,1,1,0,3.18H220.783a1.59,1.59,0,1,1,0-3.18Zm22.263,9.541H223.964a1.59,1.59,0,1,1,0-3.18h19.082a1.59,1.59,0,1,1,0,3.18Zm0-12.722H223.964a1.59,1.59,0,1,1,0-3.18h19.082a1.59,1.59,0,1,1,0,3.18Z" transform="translate(-160.258 -294.851)"/>
      <path id="Trazado_104076" data-name="Trazado 104076" d="M350.265,57.5l13.066,2.9V75.033h3.18v-15.9a1.59,1.59,0,0,0-1.245-1.552l-1.935-.43V51.18h-3.18v5.262l-3.18-.707V48h-3.18v7.029l-2.836-.63Z" transform="translate(-267.822 -25.639)"/>
      <path id="Trazado_104077" data-name="Trazado 104077" d="M176,80h6.361v3.18H176Z" transform="translate(-128.196 -51.278)"/>
      <path id="Trazado_104078" data-name="Trazado 104078" d="M224,80h6.361v3.18H224Z" transform="translate(-166.655 -51.278)"/>
      <path id="Trazado_104079" data-name="Trazado 104079" d="M272,80h6.361v3.18H272Z" transform="translate(-205.114 -51.278)"/>
      <path id="Trazado_104080" data-name="Trazado 104080" d="M176,112h6.361v3.18H176Z" transform="translate(-128.196 -76.918)"/>
      <path id="Trazado_104081" data-name="Trazado 104081" d="M224,112h6.361v3.18H224Z" transform="translate(-166.655 -76.918)"/>
      <path id="Trazado_104082" data-name="Trazado 104082" d="M272,112h6.361v3.18H272Z" transform="translate(-205.114 -76.918)"/>
      <path id="Trazado_104083" data-name="Trazado 104083" d="M224,144h6.361v3.18H224Z" transform="translate(-166.655 -102.557)"/>
      <path id="Trazado_104084" data-name="Trazado 104084" d="M176,144h6.361v3.18H176Z" transform="translate(-128.196 -102.557)"/>
      <path id="Trazado_104085" data-name="Trazado 104085" d="M272,144h6.361v3.18H272Z" transform="translate(-205.114 -102.557)"/>
      <path id="Trazado_104086" data-name="Trazado 104086" d="M240,176h3.18v3.18H240Z" transform="translate(-179.475 -128.196)"/>
      <path id="Trazado_104087" data-name="Trazado 104087" d="M272,176h6.361v3.18H272Z" transform="translate(-205.114 -128.196)"/>
      <path id="Trazado_104088" data-name="Trazado 104088" d="M240,208h3.18v3.18H240Z" transform="translate(-179.475 -153.835)"/>
      <path id="Trazado_104089" data-name="Trazado 104089" d="M272,208h6.361v3.18H272Z" transform="translate(-205.114 -153.835)"/>
      <path id="Trazado_104090" data-name="Trazado 104090" d="M240,240h3.18v3.18H240Z" transform="translate(-179.475 -179.474)"/>
      <path id="Trazado_104091" data-name="Trazado 104091" d="M272,240h6.361v3.18H272Z" transform="translate(-205.114 -179.474)"/>
      <path id="Trazado_104092" data-name="Trazado 104092" d="M240,272h3.18v3.18H240Z" transform="translate(-179.475 -205.114)"/>
      <path id="Trazado_104093" data-name="Trazado 104093" d="M272,272h6.361v3.18H272Z" transform="translate(-205.114 -205.114)"/>
      <path id="Trazado_104094" data-name="Trazado 104094" d="M272,304h6.361v3.18H272Z" transform="translate(-205.114 -230.753)"/>
      <path id="Trazado_104095" data-name="Trazado 104095" d="M408,240h6.361v3.18H408Z" transform="translate(-314.081 -179.474)"/>
      <path id="Trazado_104096" data-name="Trazado 104096" d="M408,272h6.361v3.18H408Z" transform="translate(-314.081 -205.114)"/>
      <path id="Trazado_104097" data-name="Trazado 104097" d="M408,304h6.361v3.18H408Z" transform="translate(-314.081 -230.753)"/>
      <path id="Trazado_104098" data-name="Trazado 104098" d="M408,336h6.361v3.18H408Z" transform="translate(-314.081 -256.392)"/>
      <path id="Trazado_104099" data-name="Trazado 104099" d="M408,368h6.361v3.18H408Z" transform="translate(-314.081 -282.031)"/>
      <path id="Trazado_104100" data-name="Trazado 104100" d="M408,400h6.361v3.18H408Z" transform="translate(-314.081 -307.67)"/>
      <path id="Trazado_104101" data-name="Trazado 104101" d="M408,432h6.361v3.18H408Z" transform="translate(-314.081 -333.31)"/>
      <path id="Trazado_104102" data-name="Trazado 104102" d="M360,240h6.361v3.18H360Z" transform="translate(-275.622 -179.474)"/>
      <path id="Trazado_104103" data-name="Trazado 104103" d="M360,272h6.361v3.18H360Z" transform="translate(-275.622 -205.114)"/>
      <path id="Trazado_104104" data-name="Trazado 104104" d="M360,304h6.361v3.18H360Z" transform="translate(-275.622 -230.753)"/>
      <path id="Trazado_104105" data-name="Trazado 104105" d="M360,336h6.361v3.18H360Z" transform="translate(-275.622 -256.392)"/>
      <path id="Trazado_104106" data-name="Trazado 104106" d="M129.59,25.541h1.59V46.214h3.18V25.541h31.8V85.969h3.18V25.541h1.59a1.59,1.59,0,0,0,1.59-1.59V17.59a1.59,1.59,0,0,0-1.59-1.59H129.59A1.59,1.59,0,0,0,128,17.59v6.361A1.59,1.59,0,0,0,129.59,25.541Zm1.59-6.361h38.165v3.18H131.18Z" transform="translate(-89.738)"/>
      <path id="Trazado_104107" data-name="Trazado 104107" d="M375.853,255.657V201.59a1.59,1.59,0,0,0-1.59-1.59H352v3.18h20.673v52.477H358.361v3.18h22.263v-3.18Z" transform="translate(-269.212 -147.425)"/>
      <path id="Trazado_104108" data-name="Trazado 104108" d="M384,160h3.18v3.18H384Z" transform="translate(-294.851 -115.376)"/>
      <path id="Trazado_104109" data-name="Trazado 104109" d="M352,160h3.18v3.18H352Z" transform="translate(-269.212 -115.376)"/>
      <path id="Trazado_104110" data-name="Trazado 104110" d="M384,128h3.18v3.18H384Z" transform="translate(-294.851 -89.737)"/>
      <path id="Trazado_104111" data-name="Trazado 104111" d="M352,128h3.18v3.18H352Z" transform="translate(-269.212 -89.737)"/>
    </g>
    <g id="prestigio" transform="translate(753.47 6655.53)">
      <g id="Grupo_56583" data-name="Grupo 56583" transform="translate(2.055 87.252)">
        <path id="Trazado_104112" data-name="Trazado 104112" d="M83.912,160.666,69.817,136,55.723,160.666,30,143.047l7.047,42.284h65.54l7.047-42.284Z" transform="translate(-26.77 -128.443)" fill="#fdd835"/>
        <g id="Grupo_56582" data-name="Grupo 56582" transform="translate(0 0)">
          <circle id="Elipse_4159" data-name="Elipse 4159" cx="3.587" cy="3.587" r="3.587" transform="translate(78.921 7.175)" fill="#26ccda"/>
          <path id="Trazado_104118" data-name="Trazado 104118" d="M3.587,0C5.569,0,7.175,3.212,7.175,7.175s-1.606,7.175-3.587,7.175S0,11.137,0,7.175,1.606,0,3.587,0Z" transform="translate(75.333 28.698)" fill="#26ccda"/>
          <path id="Trazado_104113" data-name="Trazado 104113" d="M315.636,169.214l.039.058-11.491,7.87-6.8-11.908L311.232,156Z" transform="translate(-247.042 -144.92)" fill="#f57c00"/>
          <circle id="Elipse_4161" data-name="Elipse 4161" cx="3.587" cy="3.587" r="3.587" transform="translate(60.984 3.587)" fill="#26ccda"/>
          <circle id="Elipse_4162" data-name="Elipse 4162" cx="3.587" cy="3.587" r="3.587" transform="translate(39.46)" fill="#26ccda"/>
          <ellipse id="Elipse_4163" data-name="Elipse 4163" cx="3.587" cy="7.175" rx="3.587" ry="7.175" transform="translate(39.46 28.698)" fill="#26ccda"/>
          <path id="Trazado_104114" data-name="Trazado 104114" d="M129.149,165.234l-6.8,11.908-11.475-7.86L115.3,156Z" transform="translate(-93.392 -144.92)" fill="#f57c00"/>
          <circle id="Elipse_4164" data-name="Elipse 4164" cx="3.587" cy="3.587" r="3.587" transform="translate(17.937 3.587)" fill="#26ccda"/>
          <path id="Trazado_104117" data-name="Trazado 104117" d="M3.587,0C5.569,0,7.175,3.212,7.175,7.175s-1.606,7.175-3.587,7.175S0,11.137,0,7.175,1.606,0,3.587,0Z" transform="translate(3.587 28.698)" fill="#26ccda"/>
          <circle id="Elipse_4166" data-name="Elipse 4166" cx="3.587" cy="3.587" r="3.587" transform="translate(0 7.175)" fill="#26ccda"/>
        </g>
      </g>
      <g id="Grupo_56584" data-name="Grupo 56584" transform="translate(0 86)">
        <path id="Trazado_104115" data-name="Trazado 104115" d="M84.92,93.047a5.282,5.282,0,0,0-3.607,9.144l-9.709,6.65L68.518,99.58a5.29,5.29,0,1,0-5.909-.941l-9.622,6.414-5.25-9.188a5.285,5.285,0,1,0-5.266,0l-5.25,9.188L27.6,98.639a5.283,5.283,0,1,0-5.909.941L18.6,108.841l-9.709-6.65a5.283,5.283,0,1,0-5.137,1.2L5.8,115.655A11.316,11.316,0,0,0,3.524,123c0,4.843,2.113,8.535,4.966,8.793l2.106,12.638a1.762,1.762,0,0,0,1.738,1.472H37.175a1.762,1.762,0,1,0,0-3.524H13.825l-.587-3.524H76.967l-.587,3.524H53.031a1.762,1.762,0,1,0,0,3.524H77.873a1.762,1.762,0,0,0,1.738-1.472l2.106-12.638c2.853-.258,4.966-3.951,4.966-8.793a11.316,11.316,0,0,0-2.275-7.344l2.043-12.263a5.285,5.285,0,0,0-1.53-10.344Zm-18.675,0a1.762,1.762,0,1,1-1.762,1.762A1.764,1.764,0,0,1,66.245,93.047Zm-.942,8.031,3.278,9.834-8.8,6.029-5.04-8.82ZM45.1,89.524a1.762,1.762,0,1,1-1.762,1.762A1.764,1.764,0,0,1,45.1,89.524ZM23.961,93.047A1.762,1.762,0,1,1,22.2,94.809,1.764,1.764,0,0,1,23.961,93.047Zm.942,8.031,10.564,7.042-5.04,8.82-8.8-6.029ZM5.286,96.571a1.762,1.762,0,1,1-1.762,1.762A1.764,1.764,0,0,1,5.286,96.571ZM7.047,123c0-2.85.948-4.768,1.623-5.221.539-.355,1.9,1.907,1.9,5.221,0,2.854-.95,4.772-1.62,5.22C8.325,128.633,7.047,126.053,7.047,123Zm5.6,12.333-.831-4.989A11.316,11.316,0,0,0,14.095,123c0-4.843-2.113-8.536-4.966-8.793L7.7,105.648l22.309,15.28a1.762,1.762,0,0,0,2.525-.58L45.1,98.36l12.565,21.989a1.762,1.762,0,0,0,2.525.58L82.5,105.648l-1.426,8.557c-2.852.258-4.965,3.951-4.965,8.793a11.314,11.314,0,0,0,2.275,7.343l-.832,4.99ZM81.4,128.284c-.5,0-1.762-2.047-1.762-5.285,0-3.183,1.245-5.285,1.762-5.285.473,0,1.762,1.994,1.762,5.285C83.158,126.182,81.913,128.284,81.4,128.284Zm3.524-28.189a1.762,1.762,0,1,1,1.762-1.762A1.764,1.764,0,0,1,84.92,100.095Z" transform="translate(0 -86)"/>
        <path id="Trazado_104116" data-name="Trazado 104116" d="M231.285,246c-3.013,0-5.286,3.787-5.286,8.809s2.272,8.809,5.286,8.809,5.285-3.787,5.285-8.809S234.3,246,231.285,246Zm0,14.095c-.533,0-1.762-2.143-1.762-5.285,0-3.183,1.245-5.285,1.762-5.285.533,0,1.762,2.143,1.762,5.285C233.047,257.992,231.8,260.095,231.285,260.095Z" transform="translate(-186.183 -217.811)"/>
        <ellipse id="Elipse_4167" data-name="Elipse 4167" cx="1.196" cy="1.794" rx="1.196" ry="1.794" transform="translate(43.907 56.258)"/>
      </g>
    </g>
    <g id="team-worker-human-gear-desing" transform="translate(1117.285 6673.741)">
      <path id="Trazado_104119" data-name="Trazado 104119" d="M73.5,42.843a30.662,30.662,0,0,1-1.835,6.909l4.069,3.95-.192.325-2.767,4.794-5.459-1.553a62.245,62.245,0,0,1-5.045,5.045l1.553,5.459-4.794,2.767-.325.192-3.95-4.069A30.661,30.661,0,0,1,47.843,68.5l-.074.311-1.3,5.208H40.549L39.173,68.5a24.978,24.978,0,0,1-6.909-1.835l-3.95,4.069-5.119-2.959,1.553-5.459A47.825,47.825,0,0,1,19.7,57.268l-5.459,1.553L11.284,53.7l4.069-3.95a24.978,24.978,0,0,1-1.835-6.909L8,41.467V35.549l5.519-1.376c.4-3.063.4-4.542,1.835-6.909l-4.069-3.95,2.959-5.119L19.7,19.748a27.2,27.2,0,0,1,1.835-2.086,28.933,28.933,0,0,1,3.21-2.959L23.194,9.243l5.119-2.959,3.95,4.069a30.661,30.661,0,0,1,6.909-1.835L40.549,3h5.918l1.376,5.519a30.661,30.661,0,0,1,6.909,1.835L58.7,6.284l5.119,2.959L62.268,14.7a62.247,62.247,0,0,1,5.045,5.045l5.459-1.553,2.959,5.119-4.069,3.95A30.661,30.661,0,0,1,73.5,34.173l5.519,1.376v5.918l-5.208,1.3Z" transform="translate(2.877 0.479)" fill="#26ccda"/>
      <path id="Trazado_104120" data-name="Trazado 104120" d="M68.573,38.484a30.661,30.661,0,0,1-1.835,6.909l4.069,3.95-.192.325-2.767,4.794-5.459-1.553a62.246,62.246,0,0,1-5.045,5.045L58.9,63.414,54.1,66.18l-.325.192L49.828,62.3a30.661,30.661,0,0,1-6.909,1.835l-.074.311-1.3,5.208H35.624l-1.376-5.519A24.978,24.978,0,0,1,27.339,62.3l-3.95,4.069L18.27,63.414l1.553-5.459c-.325-.281-.681-.577-1.036-.9A62.466,62.466,0,0,0,45.981,38.588a62.114,62.114,0,0,0,13.241-26.5c1.332,1.3,2.8,2.841,3.166,3.3l5.459-1.553,2.959,5.119-4.069,3.95a30.661,30.661,0,0,1,1.835,6.909l5.519,1.376v5.918l-5.208,1.3Z" transform="translate(7.801 4.838)" fill="#26ccda" style="mix-blend-mode: multiply;isolation: isolate"/>
      <circle id="Elipse_4168" data-name="Elipse 4168" cx="19.237" cy="19.237" r="19.237" transform="translate(27.148 20.061)" fill="#fdd835"/>
      <path id="Trazado_104121" data-name="Trazado 104121" d="M56.493,32.26A19.233,19.233,0,0,1,21.03,42.572,19.233,19.233,0,0,0,47.572,16.03a19.185,19.185,0,0,1,8.921,16.23Z" transform="translate(9.125 6.727)" fill="#fdd835" style="mix-blend-mode: multiply;isolation: isolate"/>
      <path id="Trazado_104122" data-name="Trazado 104122" d="M73.467,56.918v8.877H35V56.918L48.315,51H60.151Z" transform="translate(15.823 23.495)" fill="#ffa726"/>
      <path id="Trazado_104123" data-name="Trazado 104123" d="M65.905,56.918v8.877H59.987V56.918l-9.217-4.1L52.59,51Z" transform="translate(23.385 23.495)" fill="#ffa726" style="mix-blend-mode: multiply;isolation: isolate"/>
      <path id="Trazado_104124" data-name="Trazado 104124" d="M52.782,47.56l1.095,6.569-4.438,4.438L45,54.129l1.095-6.569a8.912,8.912,0,0,0,6.687,0Z" transform="translate(20.618 21.846)" fill="#ffdaaa"/>
      <path id="Trazado_104125" data-name="Trazado 104125" d="M65.631,28v5.918A8.855,8.855,0,0,1,61.192,41.6V39.836L49.356,36.877l-5.918,2.959v2.959H41.959A2.968,2.968,0,0,1,39,39.836V36.877A8.877,8.877,0,0,1,47.877,28Z" transform="translate(17.741 12.467)" fill="#898890"/>
      <path id="Trazado_104126" data-name="Trazado 104126" d="M59.047,28v5.918A8.855,8.855,0,0,1,54.609,41.6V39.836l-1.879-.473a8.729,8.729,0,0,0,1.879-5.445V28Z" transform="translate(24.325 12.467)" fill="#57565c"/>
      <path id="Trazado_104127" data-name="Trazado 104127" d="M53.877,47.19v2.959a8.819,8.819,0,0,1-8.877,0V47.19A8.819,8.819,0,0,0,53.877,47.19Z" transform="translate(20.618 21.668)" fill="#ffb655"/>
      <path id="Trazado_104128" data-name="Trazado 104128" d="M59.754,36.959v8.877a8.877,8.877,0,0,1-17.754,0V36.959L47.918,34Z" transform="translate(19.18 15.344)" fill="#ffdaaa"/>
      <path id="Trazado_104129" data-name="Trazado 104129" d="M58.157,36.959v8.877a8.855,8.855,0,0,1-4.438,7.679,8.665,8.665,0,0,1-4.438,1.2,9.663,9.663,0,0,1-1.479-.118,8.566,8.566,0,0,0,2.959-1.08A8.855,8.855,0,0,0,55.2,45.836V36.959L45.33,34.488,46.321,34Z" transform="translate(20.776 15.344)" fill="#ffb655"/>
      <path id="Trazado_104130" data-name="Trazado 104130" d="M33.631,37.877V64.508l-.118.281H7.118L7,64.508V37.877a8.665,8.665,0,0,1,1.2-4.438A8.855,8.855,0,0,1,15.877,29h8.877a8.855,8.855,0,0,1,7.679,4.438A8.665,8.665,0,0,1,33.631,37.877Z" transform="translate(2.397 12.946)" fill="#57565c"/>
      <path id="Trazado_104131" data-name="Trazado 104131" d="M29.315,37.877V64.508l-.118.281H24.759l.118-.281V37.877a8.665,8.665,0,0,0-1.2-4.438A8.855,8.855,0,0,0,16,29h4.438a8.855,8.855,0,0,1,7.679,4.438A8.665,8.665,0,0,1,29.315,37.877Z" transform="translate(6.713 12.946)" fill="#3e3d42"/>
      <path id="Trazado_104132" data-name="Trazado 104132" d="M41.467,56.918v8.877H3V56.918L16.315,51H28.151Z" transform="translate(0.48 23.495)" fill="#f57c00"/>
      <path id="Trazado_104133" data-name="Trazado 104133" d="M33.905,56.918v8.877H27.987V56.918l-9.217-4.1L20.59,51Z" transform="translate(8.041 23.495)" fill="#f57c00" style="mix-blend-mode: multiply;isolation: isolate"/>
      <path id="Trazado_104134" data-name="Trazado 104134" d="M27.754,36.959v8.877a8.877,8.877,0,1,1-17.754,0V36.959L23.315,34Z" transform="translate(3.836 15.344)" fill="#ffdaaa"/>
      <path id="Trazado_104135" data-name="Trazado 104135" d="M25.6,36.959v8.877a8.868,8.868,0,0,1-8.877,8.877,8.459,8.459,0,0,1-2.221-.3,7.1,7.1,0,0,0,1.126-.355,8.89,8.89,0,0,0,5.533-8.226V36.959L17.829,34.74,21.158,34Z" transform="translate(5.993 15.344)" fill="#ffb655"/>
      <path id="Trazado_104136" data-name="Trazado 104136" d="M20.782,47.56l1.095,6.569-4.438,4.438L13,54.129l1.095-6.569A8.912,8.912,0,0,0,20.782,47.56Z" transform="translate(5.274 21.846)" fill="#ffdaaa"/>
      <path id="Trazado_104137" data-name="Trazado 104137" d="M21.877,47.19v2.959a8.819,8.819,0,0,1-8.877,0V47.19A8.819,8.819,0,0,0,21.877,47.19Z" transform="translate(5.274 21.668)" fill="#ffb655"/>
      <path id="Trazado_104138" data-name="Trazado 104138" d="M49,39h2.959v2.959H49Z" transform="translate(22.536 17.741)"/>
      <path id="Trazado_104139" data-name="Trazado 104139" d="M45,39h2.959v2.959H45Z" transform="translate(20.618 17.741)"/>
      <path id="Trazado_104140" data-name="Trazado 104140" d="M89.9,79.067,76.581,73.149a1.479,1.479,0,0,0-1.065-.044l-.473-2.855a10.356,10.356,0,0,0,5.371-9.069V54.847a10.328,10.328,0,0,0,4.438-8.463V40.467a1.479,1.479,0,0,0-1.479-1.479V36.028a1.479,1.479,0,0,0-1.124-1.435l-4.572-1.139a32.729,32.729,0,0,0-1.406-5.326l3.373-3.27a1.48,1.48,0,0,0,.252-1.8l-2.959-5.119a1.466,1.466,0,0,0-1.687-.681l-4.572,1.3c-.976-1.065-2.693-2.811-3.847-3.876l1.287-4.557a1.466,1.466,0,0,0-.681-1.687L62.319,5.477a1.5,1.5,0,0,0-1.8.252L57.244,9.1A32.729,32.729,0,0,0,51.918,7.7L50.779,3.124A1.479,1.479,0,0,0,49.344,2H43.426a1.479,1.479,0,0,0-1.435,1.124L40.851,7.7A32.728,32.728,0,0,0,35.525,9.1l-3.27-3.373a1.479,1.479,0,0,0-1.8-.252L25.332,8.436a1.466,1.466,0,0,0-.681,1.687l1.287,4.527a34.146,34.146,0,0,0-2.589,2.456c-.444.459-.873.932-1.3,1.435L17.52,17.254a1.466,1.466,0,0,0-1.687.681l-2.959,5.119a1.479,1.479,0,0,0,.252,1.8l3.27,3.166a14.481,14.481,0,0,0-1.332,5.3l-.015.148-4.527,1.124A1.479,1.479,0,0,0,9.4,36.028v5.918a1.479,1.479,0,0,0,1.124,1.435l.444.118a10.308,10.308,0,0,0-3.048,7.323V76.818L2.873,79.067A1.46,1.46,0,0,0,2,80.413V89.29A1.479,1.479,0,0,0,3.48,90.77H41.946a1.479,1.479,0,0,0,1.479-1.479V80.413a1.46,1.46,0,0,0-.873-1.346l-5.045-2.249V69.539a23.063,23.063,0,0,0,3.344.755l1.139,4.557a1.48,1.48,0,0,0,1.435,1.124h5.918a1.48,1.48,0,0,0,1.435-1.124l1.139-4.572a32.731,32.731,0,0,0,5.326-1.406l3.27,3.373a1.479,1.479,0,0,0,1.8.252l2.633-1.524L64.6,73.1a1.479,1.479,0,0,0-1.065.044L50.217,79.067a1.46,1.46,0,0,0-.873,1.346V89.29a1.479,1.479,0,0,0,1.479,1.479H89.29A1.479,1.479,0,0,0,90.77,89.29V80.413a1.46,1.46,0,0,0-.873-1.346Zm-8-32.682A7.355,7.355,0,0,1,80,51.3a1.586,1.586,0,0,0-.71-.429L67.453,47.909a1.438,1.438,0,0,0-1.021.118l-5.918,2.959A1.462,1.462,0,0,0,59.7,52.3v1.479A1.479,1.479,0,0,1,58.221,52.3V49.344a7.4,7.4,0,0,1,7.4-7.4H81.893Zm-69.536-9.2,4.394-1.095a1.468,1.468,0,0,0,1.11-1.243l.148-1.169A10.821,10.821,0,0,1,19.5,28.513a1.5,1.5,0,0,0-.237-1.835l-3.24-3.137,1.8-3.137,4.35,1.243a1.454,1.454,0,0,0,1.553-.5c.577-.71,1.139-1.361,1.761-2a29.073,29.073,0,0,1,3.048-2.811,1.454,1.454,0,0,0,.5-1.553L27.8,10.433l3.137-1.8,3.137,3.24a1.48,1.48,0,0,0,1.613.34,29.59,29.59,0,0,1,6.569-1.746,1.469,1.469,0,0,0,1.228-1.11L44.58,4.959h3.61l1.095,4.394a1.469,1.469,0,0,0,1.213,1.11,29.5,29.5,0,0,1,6.584,1.746,1.479,1.479,0,0,0,1.613-.34l3.137-3.24,3.137,1.8-1.243,4.35a1.454,1.454,0,0,0,.5,1.553,66.787,66.787,0,0,1,4.808,4.808,1.462,1.462,0,0,0,1.553.5l4.35-1.243,1.8,3.137L73.5,26.678a1.479,1.479,0,0,0-.34,1.613,29.5,29.5,0,0,1,1.746,6.584,1.469,1.469,0,0,0,1.11,1.213l4.394,1.095v1.8H67.1a20.713,20.713,0,0,0-41.426,0c0,.488.015.991.059,1.479H18.274a10.368,10.368,0,0,0-4.009.8l-1.909-.473ZM10.877,50.823a7.4,7.4,0,0,1,7.4-7.4h8.877a7.4,7.4,0,0,1,7.4,7.4V75.5l-5.311-2.352a1.4,1.4,0,0,0-1.065-.044L27.7,70.249a10.356,10.356,0,0,0,5.371-9.069V52.3a1.479,1.479,0,0,0-.666-1.228l-4.438-2.959a1.531,1.531,0,0,0-1.139-.222L13.51,50.853a1.5,1.5,0,0,0-1.154,1.45V61.18a10.356,10.356,0,0,0,5.371,9.069L17.254,73.1a1.4,1.4,0,0,0-1.065.044L10.877,75.5ZM22.713,68.577a7.4,7.4,0,0,1-7.4-7.4V53.486l11.54-2.56L30.11,53.1V61.18a7.4,7.4,0,0,1-7.4,7.4Zm2.855,6.894-2.855,2.855-2.855-2.855.7-4.172a9.973,9.973,0,0,0,4.32,0Zm14.9,5.9v6.436H4.959V81.375l11.51-5.119,5.193,5.208a1.491,1.491,0,0,0,2.1,0l5.193-5.208ZM28.7,40.6c-.044-.533-.074-1.065-.074-1.613a17.754,17.754,0,0,1,35.508,0v.118a10.356,10.356,0,0,0-8.877,10.238V52.3a4.421,4.421,0,0,0,.4,1.82,17.689,17.689,0,0,1-18.153.222V50.823A10.365,10.365,0,0,0,28.7,40.6ZM61.831,69.361l-3.137-3.255a1.493,1.493,0,0,0-1.613-.34A29.5,29.5,0,0,1,50.5,67.512a1.469,1.469,0,0,0-1.213,1.11L48.19,73.016H44.58l-1.095-4.394a1.468,1.468,0,0,0-1.243-1.11,23.139,23.139,0,0,1-4.734-1.065V57.688a20.578,20.578,0,0,0,20.254-1.42,4.31,4.31,0,0,0,1.938.473V61.18a10.321,10.321,0,0,0,3.27,7.531Zm.829-8.182V53.22l4.616-2.308,10.179,2.545V61.18a7.4,7.4,0,0,1-14.795,0ZM72.912,75.472l-2.855,2.855L67.2,75.472l.7-4.172a9.973,9.973,0,0,0,4.32,0Zm14.9,12.339H52.3V81.375l11.51-5.119,5.193,5.208a1.491,1.491,0,0,0,2.1,0L76.3,76.256l11.51,5.119Z" transform="translate(0 0)"/>
      <path id="Trazado_104141" data-name="Trazado 104141" d="M17,39h2.959v2.959H17Z" transform="translate(7.192 17.741)"/>
      <path id="Trazado_104142" data-name="Trazado 104142" d="M13,39h2.959v2.959H13Z" transform="translate(5.274 17.741)"/>
    </g>
  </g>
</svg>
