<svg xmlns="http://www.w3.org/2000/svg" width="152.098" height="240.825" viewBox="0 0 152.098 240.825">
  <g id="Grupo_120361" data-name="Grupo 120361" transform="translate(-621.613 -4797.512)">
    <path id="Trazado_166800" data-name="Trazado 166800" d="M266.39,749.862a101.111,101.111,0,0,1-34.8-6.137l34.8,26.128,34.8-26.128a101.111,101.111,0,0,1-34.8,6.137" transform="translate(431.271 4268.484)" fill="#f57c00"/>
    <path id="Trazado_166796" data-name="Trazado 166796" d="M937.908,169.393a76.049,76.049,0,1,1-76.049-76.049,76.049,76.049,0,0,1,76.049,76.049" transform="translate(-164.197 4704.168)" fill="#fff3bf"/>
    <circle id="Elipse_4266" data-name="Elipse 4266" cx="11" cy="11" r="11" transform="translate(686.859 4990)" fill="#ffa726"/>
    <circle id="Elipse_4267" data-name="Elipse 4267" cx="7" cy="7" r="7" transform="translate(690.859 4994)" fill="#ffd1a2"/>
    <path id="Trazado_181409" data-name="Trazado 181409" d="M3.332,9.1V13H2.019V3.047H5.69a3.688,3.688,0,0,1,2.56.834,2.827,2.827,0,0,1,.926,2.208,2.79,2.79,0,0,1-.906,2.232A3.853,3.853,0,0,1,5.676,9.1Zm0-1.073H5.69a2.358,2.358,0,0,0,1.613-.5A1.815,1.815,0,0,0,7.864,6.1,1.876,1.876,0,0,0,7.3,4.675,2.209,2.209,0,0,0,5.765,4.12H3.332Zm8.7,4.97H10.762V2.5h1.265Zm6.59,0a2.657,2.657,0,0,1-.178-.779,2.822,2.822,0,0,1-2.105.916,2.611,2.611,0,0,1-1.794-.619,2,2,0,0,1-.7-1.569,2.091,2.091,0,0,1,.878-1.794,4.142,4.142,0,0,1,2.471-.639h1.23V7.935a1.42,1.42,0,0,0-.4-1.056,1.593,1.593,0,0,0-1.169-.393,1.844,1.844,0,0,0-1.135.342,1.007,1.007,0,0,0-.458.827H13.989a1.745,1.745,0,0,1,.393-1.07,2.683,2.683,0,0,1,1.066-.817,3.588,3.588,0,0,1,1.48-.3,2.924,2.924,0,0,1,2,.639,2.306,2.306,0,0,1,.752,1.76v3.4a4.162,4.162,0,0,0,.26,1.62V13Zm-2.1-.964a2.223,2.223,0,0,0,1.128-.308,1.861,1.861,0,0,0,.772-.8V9.411h-.991q-2.324,0-2.324,1.36a1.151,1.151,0,0,0,.4.93A1.524,1.524,0,0,0,16.518,12.036ZM22.862,5.6l.041.93a2.7,2.7,0,0,1,2.215-1.066q2.345,0,2.365,2.646V13H26.218V8.105a1.7,1.7,0,0,0-.366-1.183,1.466,1.466,0,0,0-1.118-.383,1.825,1.825,0,0,0-1.08.328,2.228,2.228,0,0,0-.725.861V13H21.666V5.6Zm7.9,7.4H29.5V5.6h1.265ZM29.4,3.642a.755.755,0,0,1,.188-.52.706.706,0,0,1,.557-.212.717.717,0,0,1,.561.212.747.747,0,0,1,.191.52.722.722,0,0,1-.191.513.73.73,0,0,1-.561.205.718.718,0,0,1-.557-.205A.73.73,0,0,1,29.4,3.642ZM33.211,13V6.581H32.042V5.6h1.169V4.975a2.57,2.57,0,0,1,.708-1.928,2.744,2.744,0,0,1,2-.69,6.021,6.021,0,0,1,1.935.417L37.641,3.84A4.382,4.382,0,0,0,36.014,3.5a1.592,1.592,0,0,0-1.172.366,1.508,1.508,0,0,0-.359,1.1V5.6h1.511v.978H34.483V13Zm5.271,0H37.21V5.6h1.271Zm5.024-.9a1.822,1.822,0,0,0,1.183-.41,1.443,1.443,0,0,0,.561-1.025h1.2a2.293,2.293,0,0,1-.437,1.21,2.881,2.881,0,0,1-1.077.916,3.107,3.107,0,0,1-1.425.342,3.047,3.047,0,0,1-2.4-1.008,4.016,4.016,0,0,1-.892-2.758V9.158a4.453,4.453,0,0,1,.4-1.921,3.02,3.02,0,0,1,1.138-1.306A3.233,3.233,0,0,1,43.5,5.467a2.966,2.966,0,0,1,2.068.745,2.663,2.663,0,0,1,.878,1.935h-1.2a1.743,1.743,0,0,0-.543-1.179A1.691,1.691,0,0,0,43.5,6.506a1.77,1.77,0,0,0-1.494.694,3.259,3.259,0,0,0-.53,2.006v.239A3.194,3.194,0,0,0,42,11.414,1.779,1.779,0,0,0,43.506,12.1Zm8.928.9a2.657,2.657,0,0,1-.178-.779,2.822,2.822,0,0,1-2.105.916,2.611,2.611,0,0,1-1.794-.619,2,2,0,0,1-.7-1.569,2.091,2.091,0,0,1,.878-1.794,4.142,4.142,0,0,1,2.471-.639h1.23V7.935a1.42,1.42,0,0,0-.4-1.056,1.593,1.593,0,0,0-1.169-.393,1.844,1.844,0,0,0-1.135.342,1.007,1.007,0,0,0-.458.827H47.806a1.745,1.745,0,0,1,.393-1.07,2.683,2.683,0,0,1,1.066-.817,3.588,3.588,0,0,1,1.48-.3,2.924,2.924,0,0,1,2,.639,2.306,2.306,0,0,1,.752,1.76v3.4a4.162,4.162,0,0,0,.26,1.62V13Zm-2.1-.964a2.223,2.223,0,0,0,1.128-.308,1.861,1.861,0,0,0,.772-.8V9.411h-.991q-2.324,0-2.324,1.36a1.151,1.151,0,0,0,.4.93A1.524,1.524,0,0,0,50.335,12.036Zm8.114.068a1.822,1.822,0,0,0,1.183-.41,1.443,1.443,0,0,0,.561-1.025h1.2a2.293,2.293,0,0,1-.437,1.21,2.881,2.881,0,0,1-1.077.916,3.107,3.107,0,0,1-1.425.342,3.047,3.047,0,0,1-2.4-1.008,4.016,4.016,0,0,1-.892-2.758V9.158a4.453,4.453,0,0,1,.4-1.921,3.02,3.02,0,0,1,1.138-1.306,3.233,3.233,0,0,1,1.753-.465,2.966,2.966,0,0,1,2.068.745,2.663,2.663,0,0,1,.878,1.935h-1.2a1.743,1.743,0,0,0-.543-1.179,1.691,1.691,0,0,0-1.207-.461,1.77,1.77,0,0,0-1.494.694,3.259,3.259,0,0,0-.53,2.006v.239a3.194,3.194,0,0,0,.526,1.969A1.779,1.779,0,0,0,58.45,12.1Zm5.735.9H62.92V5.6h1.265ZM62.818,3.642a.755.755,0,0,1,.188-.52.706.706,0,0,1,.557-.212.717.717,0,0,1,.561.212.747.747,0,0,1,.191.52.722.722,0,0,1-.191.513.73.73,0,0,1-.561.205.718.718,0,0,1-.557-.205A.73.73,0,0,1,62.818,3.642Zm3.056,5.592A4.369,4.369,0,0,1,66.3,7.278a3.187,3.187,0,0,1,1.189-1.34,3.238,3.238,0,0,1,1.74-.472,3.119,3.119,0,0,1,2.444,1.046,4.024,4.024,0,0,1,.933,2.782v.089a4.407,4.407,0,0,1-.414,1.938,3.14,3.14,0,0,1-1.183,1.336,3.275,3.275,0,0,1-1.767.479,3.111,3.111,0,0,1-2.437-1.046,4,4,0,0,1-.933-2.769Zm1.271.15a3.164,3.164,0,0,0,.571,1.976,1.934,1.934,0,0,0,3.059-.01,3.46,3.46,0,0,0,.567-2.116,3.159,3.159,0,0,0-.578-1.972,1.836,1.836,0,0,0-1.535-.755,1.816,1.816,0,0,0-1.511.745A3.435,3.435,0,0,0,67.145,9.384ZM69.8,2.514h1.531L69.5,4.523l-1.019,0ZM75.389,5.6l.041.93a2.7,2.7,0,0,1,2.215-1.066q2.345,0,2.365,2.646V13H78.746V8.105a1.7,1.7,0,0,0-.366-1.183,1.466,1.466,0,0,0-1.118-.383,1.825,1.825,0,0,0-1.08.328,2.228,2.228,0,0,0-.725.861V13H74.193V5.6ZM85.076,9.24A4.333,4.333,0,0,1,85.882,6.5a2.745,2.745,0,0,1,4.17-.147V2.5h1.265V13H90.155l-.062-.793a2.575,2.575,0,0,1-2.112.93,2.526,2.526,0,0,1-2.1-1.053,4.382,4.382,0,0,1-.81-2.748Zm1.265.144a3.281,3.281,0,0,0,.52,1.969,1.68,1.68,0,0,0,1.436.711,1.845,1.845,0,0,0,1.757-1.08v-3.4A1.859,1.859,0,0,0,88.309,6.54a1.687,1.687,0,0,0-1.449.718A3.612,3.612,0,0,0,86.34,9.384Zm10.008,3.753a3.232,3.232,0,0,1-2.447-.988,3.666,3.666,0,0,1-.943-2.642V9.274a4.438,4.438,0,0,1,.42-1.965,3.28,3.28,0,0,1,1.176-1.354,2.956,2.956,0,0,1,1.637-.489,2.77,2.77,0,0,1,2.242.95,4.114,4.114,0,0,1,.8,2.721v.526H94.222a2.629,2.629,0,0,0,.639,1.767,2.009,2.009,0,0,0,1.555.673,2.2,2.2,0,0,0,1.135-.273,2.851,2.851,0,0,0,.813-.725l.772.6A3.106,3.106,0,0,1,96.348,13.137Zm-.157-6.631a1.687,1.687,0,0,0-1.285.557,2.708,2.708,0,0,0-.643,1.562h3.705v-.1a2.409,2.409,0,0,0-.52-1.494A1.588,1.588,0,0,0,96.191,6.506ZM102.07,13h-1.265V2.5h1.265ZM32.186,25.384a4.429,4.429,0,0,1-.772,2.721,2.476,2.476,0,0,1-2.092,1.032,2.713,2.713,0,0,1-2.119-.854v3.562H25.938V21.6h1.155l.062.82a2.605,2.605,0,0,1,2.146-.957,2.522,2.522,0,0,1,2.109,1,4.477,4.477,0,0,1,.776,2.8Zm-1.265-.144a3.268,3.268,0,0,0-.533-1.976,1.718,1.718,0,0,0-1.463-.725A1.859,1.859,0,0,0,27.2,23.559v3.534A1.863,1.863,0,0,0,28.939,28.1a1.71,1.71,0,0,0,1.446-.721A3.567,3.567,0,0,0,30.921,25.24Zm6.446-2.5a3.79,3.79,0,0,0-.622-.048,1.667,1.667,0,0,0-1.688,1.06V29H33.792V21.6h1.23l.021.854a1.969,1.969,0,0,1,1.764-.991,1.292,1.292,0,0,1,.561.1Zm.69,2.5a4.369,4.369,0,0,1,.427-1.955,3.187,3.187,0,0,1,1.189-1.34,3.238,3.238,0,0,1,1.74-.472,3.119,3.119,0,0,1,2.444,1.046,4.024,4.024,0,0,1,.933,2.782v.089a4.407,4.407,0,0,1-.414,1.938A3.14,3.14,0,0,1,43.2,28.658a3.275,3.275,0,0,1-1.767.479,3.111,3.111,0,0,1-2.437-1.046,4,4,0,0,1-.933-2.769Zm1.271.15a3.164,3.164,0,0,0,.571,1.976,1.934,1.934,0,0,0,3.059-.01,3.46,3.46,0,0,0,.567-2.116,3.159,3.159,0,0,0-.578-1.972,1.836,1.836,0,0,0-1.535-.755,1.816,1.816,0,0,0-1.511.745A3.434,3.434,0,0,0,39.33,25.384Zm9.365,1.764L50.417,21.6h1.354L48.8,30.142q-.69,1.846-2.194,1.846l-.239-.021-.472-.089V30.853l.342.027a1.683,1.683,0,0,0,1-.26,1.88,1.88,0,0,0,.591-.95l.28-.752L45.468,21.6h1.381Zm7.185,1.989a3.232,3.232,0,0,1-2.447-.988,3.666,3.666,0,0,1-.943-2.642v-.232a4.438,4.438,0,0,1,.42-1.965,3.279,3.279,0,0,1,1.176-1.354,2.956,2.956,0,0,1,1.637-.489,2.77,2.77,0,0,1,2.242.95,4.114,4.114,0,0,1,.8,2.721v.526H53.753a2.629,2.629,0,0,0,.639,1.767,2.009,2.009,0,0,0,1.555.673,2.2,2.2,0,0,0,1.135-.273,2.851,2.851,0,0,0,.813-.725l.772.6A3.106,3.106,0,0,1,55.879,29.137Zm-.157-6.631a1.687,1.687,0,0,0-1.285.557,2.708,2.708,0,0,0-.643,1.562H57.5v-.1a2.409,2.409,0,0,0-.52-1.494A1.588,1.588,0,0,0,55.722,22.506Zm7.472,5.6a1.822,1.822,0,0,0,1.183-.41,1.443,1.443,0,0,0,.561-1.025h1.2a2.293,2.293,0,0,1-.437,1.21,2.882,2.882,0,0,1-1.077.916,3.107,3.107,0,0,1-1.425.342,3.047,3.047,0,0,1-2.4-1.008A4.016,4.016,0,0,1,59.9,25.37v-.212a4.453,4.453,0,0,1,.4-1.921,3.02,3.02,0,0,1,1.138-1.306,3.233,3.233,0,0,1,1.753-.465,2.966,2.966,0,0,1,2.068.745,2.663,2.663,0,0,1,.878,1.935h-1.2a1.743,1.743,0,0,0-.543-1.179,1.691,1.691,0,0,0-1.207-.461,1.77,1.77,0,0,0-1.494.694,3.259,3.259,0,0,0-.53,2.006v.239a3.194,3.194,0,0,0,.526,1.969A1.779,1.779,0,0,0,63.194,28.1Zm6.077-8.292V21.6h1.381v.978H69.271v4.593a1.027,1.027,0,0,0,.185.667.777.777,0,0,0,.629.222,3.062,3.062,0,0,0,.6-.082V29a3.688,3.688,0,0,1-.971.136,1.575,1.575,0,0,1-1.278-.513,2.2,2.2,0,0,1-.431-1.456V22.581H66.66V21.6h1.347V19.813Zm2.386,5.421a4.369,4.369,0,0,1,.427-1.955,3.187,3.187,0,0,1,1.189-1.34,3.238,3.238,0,0,1,1.74-.472,3.119,3.119,0,0,1,2.444,1.046,4.024,4.024,0,0,1,.933,2.782v.089a4.407,4.407,0,0,1-.414,1.938,3.14,3.14,0,0,1-1.183,1.336,3.275,3.275,0,0,1-1.767.479,3.111,3.111,0,0,1-2.437-1.046,4,4,0,0,1-.933-2.769Zm1.271.15a3.164,3.164,0,0,0,.571,1.976,1.934,1.934,0,0,0,3.059-.01,3.46,3.46,0,0,0,.567-2.116,3.159,3.159,0,0,0-.578-1.972,1.836,1.836,0,0,0-1.535-.755,1.816,1.816,0,0,0-1.511.745A3.434,3.434,0,0,0,72.928,25.384Z" transform="translate(644 4888.7)" fill="#12263f"/>
    <g id="moodboard" transform="translate(666.704 4783.713)">
      <path id="Trazado_104045" data-name="Trazado 104045" d="M0,0H57.656V48.633H0Z" transform="translate(58.828 88.305) rotate(180)" fill="#26ccda"/>
      <path id="Trazado_104046" data-name="Trazado 104046" d="M0,0H8.837V10.6H0Z" transform="matrix(0.981, -0.196, 0.196, 0.981, 5.766, 51.526)" fill="#fdd835"/>
      <path id="Trazado_104047" data-name="Trazado 104047" d="M0,0H8.271V8.271H0Z" transform="translate(37.242 49.813) rotate(12.939)" fill="#fff"/>
      <path id="Trazado_104048" data-name="Trazado 104048" d="M0,0H8.271V8.271H0Z" transform="translate(25.048 60.569) rotate(12.939)" fill="#f57c00"/>
      <path id="Trazado_104049" data-name="Trazado 104049" d="M0,0H8.271V8.271H0Z" transform="translate(10.692 75.744) rotate(-17.33)" fill="#fff"/>
      <path id="Trazado_104050" data-name="Trazado 104050" d="M0,0H8.271V8.271H0Z" transform="translate(40.235 76.208) rotate(-17.33)" fill="#ffa726"/>
      <g id="Grupo_56564" data-name="Grupo 56564" transform="translate(0 38.5)">
        <circle id="Elipse_4158" data-name="Elipse 4158" cx="1.154" cy="1.154" r="1.154" transform="translate(57.692 35.592)"/>
        <path id="Trazado_104051" data-name="Trazado 104051" d="M59.657,38.843a1.18,1.18,0,0,0-.828-.343H1.172A1.172,1.172,0,0,0,0,39.672V88.3a1.172,1.172,0,0,0,1.172,1.172H58.828A1.173,1.173,0,0,0,60,88.3V80.453a1.172,1.172,0,0,0-2.344,0h0v6.68H2.344V40.844H57.656V69.906a1.172,1.172,0,1,0,2.344,0V39.672A1.18,1.18,0,0,0,59.657,38.843Z" transform="translate(0 -38.5)"/>
        <path id="Trazado_104052" data-name="Trazado 104052" d="M50.185,125.729a1.172,1.172,0,0,0-1.379-.919l-8.665,1.734a1.172,1.172,0,0,0-.919,1.379l2.08,10.4a1.171,1.171,0,0,0,1.379.919l8.665-1.734a1.172,1.172,0,0,0,.919-1.379Zm-6.815,10.983-1.621-8.1,6.367-1.274,1.621,8.1Z" transform="translate(-34.605 -114.675)"/>
        <path id="Trazado_104053" data-name="Trazado 104053" d="M294.3,125.114a1.172,1.172,0,0,0-.52.731l-1.852,8.061a1.172,1.172,0,0,0,.88,1.4l8.061,1.851a1.17,1.17,0,0,0,1.4-.88l1.852-8.061a1.172,1.172,0,0,0-.88-1.4l-8.061-1.852A1.173,1.173,0,0,0,294.3,125.114Zm7.279,3.724-1.327,5.777-5.777-1.327,1.327-5.777Z" transform="translate(-257.692 -114.806)"/>
        <path id="Trazado_104054" data-name="Trazado 104054" d="M188.812,227.075l8.061,1.851a1.17,1.17,0,0,0,1.4-.88l1.852-8.061a1.172,1.172,0,0,0-.88-1.4l-8.061-1.851a1.172,1.172,0,0,0-1.4.88l-1.851,8.061a1.172,1.172,0,0,0,.88,1.4Zm2.994-7.8,5.777,1.327-1.327,5.777-5.777-1.327Z" transform="translate(-165.883 -195.817)"/>
        <path id="Trazado_104055" data-name="Trazado 104055" d="M83.651,337.07a1.172,1.172,0,0,0,1.468.77l7.9-2.463a1.172,1.172,0,0,0,.77-1.468l-2.463-7.9a1.172,1.172,0,0,0-1.468-.77l-7.9,2.463a1.172,1.172,0,0,0-.77,1.468Zm5.781-9.24,1.765,5.658-5.658,1.765L83.774,329.6Z" transform="translate(-71.627 -291.594)"/>
        <path id="Trazado_104056" data-name="Trazado 104056" d="M341.854,329.242l-7.9,2.463a1.172,1.172,0,0,0-.77,1.468l2.463,7.9a1.171,1.171,0,0,0,1.468.77l7.9-2.463a1.171,1.171,0,0,0,.77-1.468l-2.463-7.9A1.171,1.171,0,0,0,341.854,329.242Zm-4.314,10.01-1.765-5.658,5.658-1.765,1.765,5.658Z" transform="translate(-294.096 -295.123)"/>
        <path id="Trazado_104057" data-name="Trazado 104057" d="M178.5,78.5H160.839a1.172,1.172,0,0,0,0,2.344H178.5a1.172,1.172,0,1,0,0-2.344Z" transform="translate(-140.956 -73.813)"/>
        <path id="Trazado_104058" data-name="Trazado 104058" d="M170.417,135.482a1.171,1.171,0,0,0,1.608.4l3.015-1.809a1.172,1.172,0,0,0,.4-1.608l-1.809-3.014a1.172,1.172,0,0,0-2.01,1.206l.329.549a22.359,22.359,0,0,0-9.139.753,1.172,1.172,0,1,0,.712,2.233,20.365,20.365,0,0,1,7.919-.694l-.624.375A1.172,1.172,0,0,0,170.417,135.482Z" transform="translate(-143.012 -118.292)"/>
        <path id="Trazado_104059" data-name="Trazado 104059" d="M217.24,373.093a1.171,1.171,0,0,0,1.608-.4l1.809-3.014a1.172,1.172,0,0,0-.4-1.608l-3.014-1.809a1.172,1.172,0,0,0-1.206,2.01l.622.373a20.514,20.514,0,0,1-7.918-.692,1.172,1.172,0,0,0-.711,2.233,23.44,23.44,0,0,0,6.473.951,17.3,17.3,0,0,0,2.667-.2l-.33.549A1.172,1.172,0,0,0,217.24,373.093Z" transform="translate(-182.929 -327.703)"/>
        <path id="Trazado_104060" data-name="Trazado 104060" d="M327.2,179.725l-.585-.178a1.172,1.172,0,1,0-.682,2.242l.585.178a3.439,3.439,0,0,1,2.318,4.055,4.367,4.367,0,0,1-3.682,3.157l-6.955.729.416-.514a1.172,1.172,0,1,0-1.821-1.476l-2.213,2.731a1.172,1.172,0,0,0,.173,1.648l2.731,2.214a1.172,1.172,0,1,0,1.475-1.821l-.553-.448,6.991-.732a6.766,6.766,0,0,0,5.7-4.89,5.829,5.829,0,0,0-3.9-6.9Z" transform="translate(-277.483 -162.973)"/>
        <path id="Trazado_104061" data-name="Trazado 104061" d="M91.629,251.969a5.393,5.393,0,0,0-3.495,1.278,4.911,4.911,0,0,0-1.505,2.251l-.225-.386a1.172,1.172,0,1,0-2.025,1.18l1.77,3.037a1.171,1.171,0,0,0,1.6.422l3.037-1.77a1.172,1.172,0,0,0-1.18-2.025l-.8.467a2.56,2.56,0,0,1,.855-1.4,3.047,3.047,0,0,1,1.978-.71c.352,0,1.512-.014,2.052-.017a1.172,1.172,0,0,0-.008-2.344h-.008Z" transform="translate(-74.35 -226.938)"/>
      </g>
    </g>
  </g>
</svg>
