<svg id="Grupo_82671" data-name="Grupo 82671" xmlns="http://www.w3.org/2000/svg" xmlns:xlink="http://www.w3.org/1999/xlink" width="119.096" height="132" viewBox="0 0 119.096 132">
  <defs>
    <clipPath id="clip-path">
      <rect id="Rectángulo_35436" data-name="Rectángulo 35436" width="119.096" height="132" fill="none"/>
    </clipPath>
  </defs>
  <g id="Grupo_82671-2" data-name="Grupo 82671" clip-path="url(#clip-path)">
    <path id="Trazado_166548" data-name="Trazado 166548" d="M117.8,132H9.517a2.941,2.941,0,0,1-1.269-2.829c.061-2.728.014-5.459.021-8.188,0-1.693.332-2.117,1.989-2.63a2.272,2.272,0,0,1,1.85,2.662c-.07,1.845.07,3.7-.046,5.54-.082,1.3.292,1.637,1.613,1.634q32.031-.068,64.063-.042c2.617,0,2.066.506,2.8-2.222.4-1.481.364-1.513-1.162-1.513q-11.278,0-22.557,0-18.368,0-36.736,0c-2.482,0-3.01-.541-3.011-3.05,0-2.406-.018-4.812.01-7.219.008-.683-.146-1.021-.923-1-1.974.057-3.951.043-5.926.058-2.62-.01-5.241-.016-7.861-.033-1.485-.01-2.382-.758-2.365-1.946s.911-1.888,2.418-1.9,3.015-.1,4.508.028c1.188.1,1.367-.327,1.365-1.409q-.047-41.825-.025-83.65a4.56,4.56,0,0,1,0-.644c.1-.689-.2-.873-.866-.857-1.675.041-3.351.027-5.026.009C.855,22.784-.011,22.062,0,20.866.016,19.692.889,19,2.424,18.979c1.5-.017,3.011-.072,4.51.019,1.04.064,1.378-.191,1.363-1.3-.067-4.983-.031-9.967-.028-14.951C8.27.581,8.852,0,11.016,0h105.3c2.176,0,2.759.574,2.759,2.722q0,63.285.022,126.57A2.889,2.889,0,0,1,117.8,132M99.289,85.617c-1.706-.563-1.9-.853-1.9-2.841q0-34.865.028-69.73c0-1.259-.238-1.638-1.587-1.635q-36.668.072-73.335.035a5.423,5.423,0,0,1-.644,0c-.723-.087-.971.2-.949.94.049,1.717.079,3.44-.007,5.154-.054,1.076.159,1.535,1.375,1.46a1.909,1.909,0,1,1,.025,3.791c-1.148-.057-1.406.287-1.405,1.42q.053,41.89,0,83.779c0,1.044.2,1.4,1.309,1.358a1.907,1.907,0,0,1,1.975,2.805,1.8,1.8,0,0,1-1.927,1.01c-1.235-.2-1.41.376-1.354,1.428a40.907,40.907,0,0,1,0,4.637c-.065,1.078.283,1.345,1.348,1.344q29.192-.049,58.385,0c1,0,1.38-.276,1.622-1.251,1.411-5.7,2.849-11.391,4.378-17.059A14.552,14.552,0,0,1,95.91,91.995c1.106-.425,2.28-.672,3.423-1h5.149c1.647,0,1.648,0,1.648-1.675q0-37.37,0-74.74c0-3.161,0-3.161-3.178-3.158-1.662,0-1.664,0-1.664,1.669q0,34.793,0,69.585c0,1.95-.318,2.41-2,2.942m15.921,25.992c0-5.154-.029-10.308.024-15.461.011-1.038-.308-1.29-1.3-1.279-4.208.049-8.417,0-12.626.017a11.053,11.053,0,0,0-10.963,8.448c-2.057,7.838-4.026,15.7-6.093,23.535-.288,1.093-.039,1.284,1.006,1.28q14.3-.053,28.6,0c1.21.007,1.388-.406,1.377-1.469-.051-5.024-.022-10.05-.023-15.074M63.8,3.849V3.834H13.939c-.344,0-.689.023-1.03,0-.611-.047-.826.217-.823.823q.023,6.7,0,13.4c0,.674.269.914.918.9.987-.028,1.977-.048,2.962.007.836.046,1.133-.254,1.116-1.1-.045-2.275-.015-4.552-.015-6.829,0-3.053.385-3.445,3.385-3.446l92.509-.029c2.273,0,2.183,0,2.3-2.218.071-1.324-.424-1.512-1.6-1.509q-24.931.055-49.862.025M12.091,65.995v40.092c0,3.249,0,3.258,3.289,3.243,1.885-.008,1.682.232,1.682-1.756q.006-40.673,0-81.346c0-3.414,0-3.359-3.42-3.434-1.229-.027-1.587.3-1.583,1.56.045,13.88.028,27.76.028,41.64m103.082-14.68V14.986c0-3.395,0-3.395-3.41-3.392-1.677,0-1.678,0-1.678,1.657q0,37.038.008,74.075c0,1.149-.49,2.637.207,3.363.763.794,2.285.129,3.462.281,1.115.144,1.444-.229,1.44-1.393-.045-12.754-.029-25.508-.029-38.261" transform="translate(0 0)" fill="#020202"/>
    <path id="Trazado_166549" data-name="Trazado 166549" d="M139.056,112.7c-1.143.329-2.317.576-3.423,1a14.552,14.552,0,0,0-9.287,10.264c-1.529,5.668-2.967,11.361-4.378,17.059-.242.975-.621,1.252-1.622,1.251q-29.192-.051-58.385,0c-1.065,0-1.413-.266-1.348-1.344a40.907,40.907,0,0,0,0-4.637c-.057-1.053.119-1.624,1.354-1.428a1.8,1.8,0,0,0,1.927-1.01,1.907,1.907,0,0,0-1.975-2.805c-1.109.04-1.311-.314-1.309-1.358q.046-41.89,0-83.78c0-1.133.257-1.476,1.405-1.42a1.909,1.909,0,1,0-.025-3.791c-1.216.074-1.43-.383-1.375-1.46.086-1.714.057-3.437.007-5.154-.021-.739.226-1.027.949-.94a5.422,5.422,0,0,0,.644,0q36.668,0,73.335-.035c1.348,0,1.589.376,1.587,1.635q-.059,34.865-.028,69.73c0,1.988.2,2.278,1.9,2.841q.022,2.689.044,5.378M98.119,101.125q0-15.855,0-31.709c0-2.2-.564-2.768-2.743-2.77q-7.8-.008-15.6,0c-3.352,0-6.7-.013-10.054.006-1.754.01-2.424.689-2.433,2.413-.012,2.277-.021,4.555,0,6.832a2.011,2.011,0,0,0,2.036,2.178,1.969,1.969,0,0,0,1.859-2.189c.02-1.418.061-2.838-.016-4.252-.047-.865.242-1.067,1.068-1.063q10.376.045,20.751-.007c1-.007,1.194.311,1.192,1.242q-.039,29.26.005,58.52c0,1.012-.317,1.181-1.237,1.176-6.788-.038-13.577-.059-20.364.014-1.244.013-1.421-.4-1.418-1.5q.051-21.913.022-43.825a10.081,10.081,0,0,0-.022-1.288A1.844,1.844,0,0,0,68.85,83.3c-1.383.318-1.572,1.356-1.571,2.571q.02,23.4.009,46.79c0,2.161.575,2.732,2.751,2.732q12.567,0,25.134,0c2.434,0,2.944-.506,2.944-2.941q0-15.661,0-31.322m19.408-13.213q-5.217,0-10.435,0c-1.878,0-2.488.588-2.49,2.431q-.013,10.049,0,20.1c0,1.83.643,2.453,2.506,2.455q10.435.012,20.871,0c1.845,0,2.491-.648,2.493-2.47q.009-10.049,0-20.1c0-1.78-.622-2.41-2.38-2.415-3.521-.01-7.043,0-10.564,0M67.289,49.746c0,2.492-.015,4.984.006,7.475a1.945,1.945,0,0,0,2.21,2.22c1.76.023,3.524.033,5.282-.043a5.687,5.687,0,0,0,5.286-3.683,5.747,5.747,0,0,0-1.048-6.363,1.282,1.282,0,0,1-.294-1.625A5.384,5.384,0,0,0,73.9,40.209c-1.416-.051-2.835-.024-4.253-.011-1.684.016-2.342.664-2.351,2.33-.013,2.406,0,4.811,0,7.217M91.44,51.932c.269-.136.453-.234.642-.323a5.892,5.892,0,0,0,3.551-6.7,6.131,6.131,0,0,0-6.038-4.651c-1.288-.017-2.577-.021-3.864,0a1.929,1.929,0,0,0-2.167,2.138q-.036,7.471,0,14.942a1.943,1.943,0,1,0,3.853.012c.02-1.265,0-2.529,0-4.115,1.633,1.853,3.037,3.455,4.453,5.047,1.262,1.419,2.283,1.638,3.27.724.921-.853.8-1.951-.352-3.262-1.1-1.249-2.2-2.5-3.348-3.81m15.348-2.076c0,2.445-.007,4.891,0,7.336,0,1.152.437,2.134,1.687,2.19,2.311.1,4.631.081,6.944.008a1.655,1.655,0,0,0,1.65-1.791,1.736,1.736,0,0,0-1.641-1.941,15.377,15.377,0,0,0-2.053-.07c-2.84-.007-2.816,0-2.742-2.881.017-.663.18-.907.866-.879a27.967,27.967,0,0,0,3.344-.025,1.86,1.86,0,0,0,1.761-2,1.839,1.839,0,0,0-1.923-1.821,14.227,14.227,0,0,0-2.7.015c-1.583.244-1.334-.788-1.333-1.7,0-2.135,0-2.135,1.393-2.137.944,0,1.888.013,2.832,0,1.423-.027,2.22-.736,2.208-1.937-.012-1.175-.838-1.9-2.251-1.92-1.844-.022-3.69-.014-5.534,0-1.817.011-2.5.677-2.508,2.483-.015,2.36,0,4.719,0,7.079m-26.1,55.682H80.7c0,.987-.051,1.977.013,2.96a1.953,1.953,0,0,0,2,1.93,1.9,1.9,0,0,0,1.937-1.964,24.893,24.893,0,0,0,.007-2.7,1.59,1.59,0,0,1,1.158-1.891A7.37,7.37,0,0,0,90.064,95.3a7.563,7.563,0,0,0-14.828.451c-.26,1.984.266,3.035,1.619,3.235,1.249.185,1.993-.653,2.314-2.606a3.58,3.58,0,0,1,4.409-2.859,3.587,3.587,0,0,1-.611,7.062c-1.648.2-2.253.861-2.277,2.506-.012.815,0,1.631,0,2.446M120.534,49.8c0,2.363-.012,4.726,0,7.089.011,1.529.713,2.406,1.889,2.431,1.212.025,1.953-.9,1.969-2.486.015-1.461.041-2.923-.011-4.381-.027-.745.234-.962.949-.927a21.662,21.662,0,0,0,2.961-.026,1.938,1.938,0,0,0,1.816-1.981,1.9,1.9,0,0,0-1.944-1.831c-.986-.042-1.976-.017-2.964-.013-.405,0-.711-.008-.814-.558-.483-2.58-.078-3.1,2.513-3.1.473,0,.946.015,1.418,0,1.418-.057,2.263-.78,2.273-1.928s-.837-1.909-2.247-1.928c-1.8-.025-3.609-.021-5.413,0-1.769.018-2.382.635-2.4,2.43-.019,2.406,0,4.812,0,7.218m-2.961,30.536h8.113c.944,0,1.891.032,2.833-.016a1.851,1.851,0,0,0,1.944-1.815,1.9,1.9,0,0,0-1.894-2.012,6.851,6.851,0,0,0-.771-.022q-10.238,0-20.476,0a5.5,5.5,0,0,0-1.277.108,1.893,1.893,0,0,0,.073,3.684,6.557,6.557,0,0,0,1.282.067q5.087.007,10.174,0m-.136-8.9c3.521,0,7.042.005,10.563,0,1.611,0,2.483-.712,2.465-1.971-.017-1.2-.867-1.889-2.4-1.89q-10.564-.008-21.127,0c-1.517,0-2.346.716-2.329,1.95.017,1.211.867,1.905,2.392,1.91,3.478.01,6.956,0,10.434,0m-14.544-21.2c0-2.444.009-4.888,0-7.331-.007-1.476-.772-2.376-1.955-2.346-1.136.028-1.9.908-1.9,2.3q-.021,7.331,0,14.662c0,1.475.782,2.358,1.981,2.334,1.152-.023,1.868-.873,1.875-2.285.013-2.444,0-4.887,0-7.331M82.644,112.643a2.009,2.009,0,1,0,2.1,1.956,2.006,2.006,0,0,0-2.1-1.956" transform="translate(-39.723 -21.706)" fill="#fff3bf"/>
    <path id="Trazado_166550" data-name="Trazado 166550" d="M275.259,292.073c0,5.025-.028,10.05.023,15.075.011,1.062-.167,1.475-1.377,1.468q-14.3-.079-28.6,0c-1.045,0-1.295-.187-1.006-1.28,2.067-7.836,4.036-15.7,6.093-23.535a11.052,11.052,0,0,1,10.963-8.448c4.208-.018,8.418.031,12.626-.017,1-.012,1.315.241,1.3,1.279-.053,5.154-.024,10.307-.024,15.461" transform="translate(-160.049 -180.465)" fill="#f57c00"/>
    <path id="Trazado_166551" data-name="Trazado 166551" d="M86.788,11.124q24.931,0,49.863-.025c1.174,0,1.67.184,1.6,1.509-.119,2.213-.029,2.218-2.3,2.218l-92.509.029c-3,0-3.385.393-3.385,3.446,0,2.276-.03,4.553.015,6.829.017.848-.28,1.148-1.115,1.1-.985-.054-1.976-.034-2.963-.007-.649.018-.921-.222-.918-.9q.025-6.7,0-13.4c0-.606.213-.87.823-.823.342.026.687,0,1.031,0H86.788Z" transform="translate(-22.988 -7.275)" fill="#ffa726"/>
    <path id="Trazado_166552" data-name="Trazado 166552" d="M35.038,109.353c0-13.88.017-27.76-.028-41.64,0-1.256.354-1.587,1.583-1.561,3.419.074,3.42.02,3.42,3.434q0,40.673,0,81.345c0,1.988.2,1.748-1.682,1.756-3.289.014-3.289.006-3.289-3.243V109.353" transform="translate(-22.947 -43.359)" fill="#ffa726"/>
    <path id="Trazado_166553" data-name="Trazado 166553" d="M324.281,73.37c0,12.754-.017,25.508.029,38.261,0,1.164-.325,1.537-1.44,1.393-1.177-.152-2.7.513-3.462-.281-.7-.726-.207-2.213-.207-3.363q-.017-37.038-.008-74.075c0-1.655,0-1.655,1.678-1.657,3.41,0,3.41,0,3.41,3.392V73.37" transform="translate(-209.108 -22.055)" fill="#ffa726"/>
    <path id="Trazado_166554" data-name="Trazado 166554" d="M288.2,112.719q-.022-2.689-.044-5.377c1.68-.532,2-.992,2-2.941q0-34.792,0-69.585c0-1.668,0-1.668,1.664-1.669,3.178,0,3.178,0,3.178,3.158v74.74c0,1.674,0,1.674-1.648,1.675H288.2" transform="translate(-188.872 -21.725)" fill="#ffa726"/>
    <path id="Trazado_166555" data-name="Trazado 166555" d="M29.713,333.576q-.016-2.576-.032-5.153c1.975-.014,3.952,0,5.926-.058.778-.022.931.316.923,1-.028,2.406-.011,4.812-.01,7.219,0,2.508.529,3.049,3.011,3.05q18.368,0,36.736,0,11.278,0,22.557,0c1.526,0,1.558.032,1.162,1.513-.729,2.728-.178,2.22-2.8,2.222q-32.031.025-64.063.042c-1.321,0-1.695-.338-1.613-1.635.116-1.84-.024-3.7.047-5.54a2.273,2.273,0,0,0-1.85-2.662" transform="translate(-19.454 -215.224)" fill="#ffa726"/>
    <path id="Trazado_166556" data-name="Trazado 166556" d="M110.815,164.9q0,15.661,0,31.322c0,2.435-.51,2.941-2.944,2.941q-12.567,0-25.134,0c-2.176,0-2.751-.571-2.751-2.732q0-23.395-.009-46.79c0-1.215.188-2.253,1.57-2.571a1.845,1.845,0,0,1,2.323,1.609,10.082,10.082,0,0,1,.021,1.288q0,21.913-.022,43.825c0,1.1.174,1.509,1.418,1.5,6.787-.072,13.576-.052,20.364-.014.92.005,1.239-.164,1.237-1.176q-.05-29.26-.005-58.52c0-.931-.191-1.249-1.193-1.242q-10.375.069-20.751.007c-.826,0-1.115.2-1.068,1.063.077,1.414.036,2.835.016,4.252a1.968,1.968,0,0,1-1.859,2.189,2.011,2.011,0,0,1-2.036-2.178c-.026-2.277-.016-4.554,0-6.832.009-1.724.679-2.4,2.433-2.413,3.351-.019,6.7-.006,10.054-.006q7.8,0,15.6,0c2.179,0,2.742.57,2.743,2.77q.006,15.855,0,31.709" transform="translate(-52.42 -85.478)" fill="#020202"/>
    <path id="Trazado_166557" data-name="Trazado 166557" d="M201.205,192.145c3.521,0,7.043-.007,10.565,0,1.757,0,2.378.635,2.38,2.415q.009,10.049,0,20.1c0,1.822-.647,2.468-2.493,2.47q-10.435.013-20.871,0c-1.862,0-2.5-.625-2.506-2.455q-.015-10.049,0-20.1c0-1.843.613-2.428,2.49-2.432q5.217-.01,10.435,0m.034,3.862c-2.747,0-5.494.018-8.24-.013-.655-.008-.881.16-.877.851q.041,7.726,0,15.452c-.006.812.266,1,1.032.993q8.048-.044,16.1,0c.86.007,1.068-.245,1.062-1.081q-.058-7.6,0-15.194c.008-.893-.3-1.042-1.09-1.029-2.66.044-5.322.017-7.983.017" transform="translate(-123.402 -125.938)" fill="#020202"/>
    <path id="Trazado_166558" data-name="Trazado 166558" d="M79.993,63.183c0-2.406-.01-4.812,0-7.217.01-1.666.668-2.314,2.351-2.33,1.418-.013,2.837-.04,4.253.01a5.385,5.385,0,0,1,4.835,7.518,1.282,1.282,0,0,0,.294,1.625,5.747,5.747,0,0,1,1.048,6.363,5.687,5.687,0,0,1-5.286,3.683c-1.758.076-3.522.067-5.282.043A1.945,1.945,0,0,1,80,70.658c-.02-2.492-.006-4.983-.006-7.475m3.866,3.586c0,2.3,0,2.3,2.27,2.242.429-.011.86,0,1.285-.047a2.009,2.009,0,0,0,1.937-1.893A2.075,2.075,0,0,0,87.835,64.7a5.139,5.139,0,0,0-1.784-.134c-2.192-.012-2.192-.005-2.192,2.208m1.461-6.083c.4,0,.7.008,1,0a1.5,1.5,0,0,0,1.664-1.545c.025-1.093-.627-1.615-1.692-1.637q-.895-.019-1.79,0c-.2,0-.539-.082-.555.155a9.482,9.482,0,0,0-.012,2.78c.135.564.983.113,1.386.248" transform="translate(-52.427 -35.143)" fill="#020202"/>
    <path id="Trazado_166559" data-name="Trazado 166559" d="M135.077,65.486c1.152,1.31,2.249,2.56,3.349,3.81,1.153,1.311,1.273,2.409.351,3.262-.987.914-2.007.695-3.27-.725-1.416-1.592-2.82-3.195-4.453-5.047,0,1.586.016,2.851,0,4.116a1.943,1.943,0,1,1-3.852-.012q-.029-7.471,0-14.942a1.929,1.929,0,0,1,2.167-2.138c1.288-.022,2.576-.018,3.864,0a6.132,6.132,0,0,1,6.038,4.651,5.891,5.891,0,0,1-3.551,6.7c-.188.089-.372.187-.642.323M131,59.832c.448.605-.77,2.109,1.236,2.008,2.159-.109,3.236-.685,3.278-2.045.042-1.395-1.057-2.008-3.157-2.159-2.042-.147-1.055,1.3-1.357,2.2" transform="translate(-83.361 -35.258)" fill="#020202"/>
    <path id="Trazado_166560" data-name="Trazado 166560" d="M194.632,63.491c0-2.36-.011-4.719,0-7.079.012-1.805.692-2.472,2.508-2.483,1.845-.011,3.69-.019,5.534,0,1.414.017,2.24.745,2.251,1.92.012,1.2-.785,1.911-2.208,1.937-.943.017-1.887,0-2.832,0-1.392,0-1.389,0-1.393,2.137,0,.917-.25,1.948,1.333,1.7a14.227,14.227,0,0,1,2.7-.015,1.839,1.839,0,0,1,1.923,1.821,1.86,1.86,0,0,1-1.761,2,27.965,27.965,0,0,1-3.344.025c-.686-.028-.848.216-.866.879-.074,2.878-.1,2.874,2.742,2.88a15.44,15.44,0,0,1,2.054.071,1.736,1.736,0,0,1,1.641,1.941,1.654,1.654,0,0,1-1.65,1.791c-2.313.073-4.633.1-6.944-.008-1.25-.056-1.682-1.038-1.687-2.19-.01-2.445,0-4.891,0-7.336" transform="translate(-127.567 -35.341)" fill="#020202"/>
    <path id="Trazado_166561" data-name="Trazado 166561" d="M108.4,212.71c0-.816-.01-1.631,0-2.446.023-1.645.628-2.306,2.277-2.506a3.586,3.586,0,0,0,.61-7.062,3.58,3.58,0,0,0-4.409,2.859c-.321,1.953-1.065,2.791-2.314,2.606-1.353-.2-1.879-1.251-1.619-3.235a7.563,7.563,0,0,1,14.828-.451,7.369,7.369,0,0,1-4.251,8.568,1.591,1.591,0,0,0-1.158,1.892,24.892,24.892,0,0,1-.007,2.7,1.9,1.9,0,0,1-1.937,1.963,1.953,1.953,0,0,1-2-1.93c-.064-.983-.013-1.973-.013-2.96Z" transform="translate(-67.432 -128.877)" fill="#020202"/>
    <path id="Trazado_166562" data-name="Trazado 166562" d="M234.523,63.155c0-2.406-.014-4.812,0-7.217.014-1.8.626-2.413,2.4-2.431,1.8-.018,3.609-.022,5.413,0,1.41.019,2.256.771,2.247,1.928s-.854,1.871-2.273,1.927c-.472.019-.945,0-1.418,0-2.591,0-3,.523-2.513,3.1.1.55.408.559.814.558.988,0,1.977-.029,2.964.013a1.9,1.9,0,0,1,1.944,1.831,1.938,1.938,0,0,1-1.816,1.98,21.667,21.667,0,0,1-2.961.026c-.716-.035-.976.182-.949.927.053,1.459.027,2.921.011,4.382-.016,1.59-.757,2.51-1.969,2.485-1.176-.024-1.878-.9-1.888-2.431-.017-2.363,0-4.726,0-7.089" transform="translate(-153.712 -35.061)" fill="#020202"/>
    <path id="Trazado_166563" data-name="Trazado 166563" d="M201.3,162.8q-5.087,0-10.173,0a6.561,6.561,0,0,1-1.282-.067,1.893,1.893,0,0,1-.073-3.684,5.5,5.5,0,0,1,1.277-.108q10.238-.009,20.476,0a6.857,6.857,0,0,1,.772.022,1.9,1.9,0,0,1,1.894,2.012,1.851,1.851,0,0,1-1.945,1.815c-.942.048-1.888.016-2.833.016H201.3" transform="translate(-123.451 -104.175)" fill="#020202"/>
    <path id="Trazado_166564" data-name="Trazado 166564" d="M201.146,136.975c-3.478,0-6.956.007-10.435,0-1.525,0-2.374-.7-2.392-1.91-.018-1.234.812-1.949,2.329-1.95q10.564-.011,21.127,0c1.532,0,2.382.686,2.4,1.89.018,1.259-.853,1.968-2.465,1.971-3.521.008-7.042,0-10.563,0" transform="translate(-123.432 -87.244)" fill="#020202"/>
    <path id="Trazado_166565" data-name="Trazado 166565" d="M175.972,64.382c0,2.444.01,4.888,0,7.331-.008,1.412-.724,2.262-1.875,2.285-1.2.024-1.977-.859-1.981-2.334q-.019-7.331,0-14.662c0-1.39.766-2.27,1.9-2.3,1.183-.029,1.948.87,1.955,2.346.012,2.444,0,4.888,0,7.331" transform="translate(-112.803 -35.855)" fill="#020202"/>
    <path id="Trazado_166566" data-name="Trazado 166566" d="M120.8,263.924a2.009,2.009,0,1,1,.107,4.016,2.009,2.009,0,1,1-.107-4.016" transform="translate(-77.883 -172.986)" fill="#020202"/>
    <path id="Trazado_166567" data-name="Trazado 166567" d="M208.557,203.325c2.661,0,5.323.028,7.983-.017.793-.013,1.1.135,1.09,1.029q-.071,7.6,0,15.194c.006.836-.2,1.087-1.062,1.081q-8.047-.059-16.1,0c-.766,0-1.038-.18-1.032-.993q.051-7.726,0-15.452c0-.692.222-.859.877-.851,2.746.032,5.494.013,8.24.013" transform="translate(-130.719 -133.256)" fill="#26ccda"/>
    <path id="Trazado_166568" data-name="Trazado 166568" d="M91.223,87.564c0-2.212,0-2.219,2.192-2.208a5.156,5.156,0,0,1,1.784.134,2.075,2.075,0,0,1,1.516,2.376,2.009,2.009,0,0,1-1.937,1.893c-.424.049-.856.036-1.285.047-2.27.059-2.27.058-2.27-2.242" transform="translate(-59.791 -55.938)" fill="#fff3bf"/>
    <path id="Trazado_166569" data-name="Trazado 166569" d="M92.627,68.058c-.4-.135-1.251.317-1.386-.248a9.482,9.482,0,0,1,.012-2.78c.016-.237.357-.151.555-.155q.895-.018,1.79,0c1.066.022,1.717.544,1.692,1.637a1.5,1.5,0,0,1-1.664,1.545c-.3.009-.6,0-1,0" transform="translate(-59.734 -42.514)" fill="#fff3bf"/>
    <path id="Trazado_166570" data-name="Trazado 166570" d="M138.266,67.121c.3-.9-.685-2.343,1.357-2.2,2.1.151,3.2.764,3.157,2.159-.041,1.36-1.119,1.936-3.278,2.045-2.006.1-.789-1.4-1.236-2.008" transform="translate(-90.625 -42.547)" fill="#fff3bf"/>
  </g>
</svg>
