<svg xmlns="http://www.w3.org/2000/svg" width="152.098" height="240.756" viewBox="0 0 152.098 240.756">
  <g id="Grupo_120364" data-name="Grupo 120364" transform="translate(-1028.846 -973.755)">
    <path id="Trazado_166817" data-name="Trazado 166817" d="M266.39,749.862a101.111,101.111,0,0,1-34.8-6.137l34.8,26.128,34.8-26.128a101.111,101.111,0,0,1-34.8,6.137" transform="translate(845.047 444.658)" fill="#f57c00"/>
    <path id="Trazado_166818" data-name="Trazado 166818" d="M2321.489,169.622a76.049,76.049,0,1,1-76.049-76.049,76.049,76.049,0,0,1,76.049,76.049" transform="translate(-1140.545 880.182)" fill="#fff3bf"/>
    <circle id="Elipse_4286" data-name="Elipse 4286" cx="11" cy="11" r="11" transform="translate(1100.633 1166.174)" fill="#ffa726"/>
    <circle id="Elipse_4287" data-name="Elipse 4287" cx="7" cy="7" r="7" transform="translate(1104.633 1170.174)" fill="#ffd1a2"/>
    <path id="Trazado_181413" data-name="Trazado 181413" d="M14.074,8.4H9.761v3.527h5.011V13H8.448V3.047H14.7V4.12H9.761V7.326h4.313Zm4.4,2.885L20.3,5.6h1.292L18.941,13h-.964L15.3,5.6H16.59ZM27.274,13a2.657,2.657,0,0,1-.178-.779,2.822,2.822,0,0,1-2.105.916,2.611,2.611,0,0,1-1.794-.619,2,2,0,0,1-.7-1.569,2.091,2.091,0,0,1,.878-1.794,4.142,4.142,0,0,1,2.471-.639h1.23V7.935a1.42,1.42,0,0,0-.4-1.056,1.593,1.593,0,0,0-1.169-.393,1.844,1.844,0,0,0-1.135.342,1.007,1.007,0,0,0-.458.827H22.646a1.745,1.745,0,0,1,.393-1.07,2.683,2.683,0,0,1,1.066-.817,3.588,3.588,0,0,1,1.48-.3,2.924,2.924,0,0,1,2,.639,2.306,2.306,0,0,1,.752,1.76v3.4a4.162,4.162,0,0,0,.26,1.62V13Zm-2.1-.964a2.223,2.223,0,0,0,1.128-.308,1.861,1.861,0,0,0,.772-.8V9.411h-.991q-2.324,0-2.324,1.36a1.151,1.151,0,0,0,.4.93A1.524,1.524,0,0,0,25.176,12.036ZM31.7,13H30.433V2.5H31.7Zm6.59-.731a2.686,2.686,0,0,1-2.167.868,2.3,2.3,0,0,1-1.8-.687,2.974,2.974,0,0,1-.625-2.034V5.6h1.265v4.778q0,1.682,1.367,1.682a1.893,1.893,0,0,0,1.928-1.08V5.6h1.265V13h-1.2ZM46,13a2.657,2.657,0,0,1-.178-.779,2.822,2.822,0,0,1-2.105.916,2.611,2.611,0,0,1-1.794-.619,2,2,0,0,1-.7-1.569A2.091,2.091,0,0,1,42.1,9.155a4.142,4.142,0,0,1,2.471-.639h1.23V7.935a1.42,1.42,0,0,0-.4-1.056,1.593,1.593,0,0,0-1.169-.393,1.844,1.844,0,0,0-1.135.342,1.007,1.007,0,0,0-.458.827H41.377a1.745,1.745,0,0,1,.393-1.07,2.683,2.683,0,0,1,1.066-.817,3.588,3.588,0,0,1,1.48-.3,2.924,2.924,0,0,1,2,.639,2.306,2.306,0,0,1,.752,1.76v3.4a4.162,4.162,0,0,0,.26,1.62V13Zm-2.1-.964a2.223,2.223,0,0,0,1.128-.308,1.861,1.861,0,0,0,.772-.8V9.411h-.991q-2.324,0-2.324,1.36a1.151,1.151,0,0,0,.4.93A1.524,1.524,0,0,0,43.906,12.036Zm8.114.068a1.822,1.822,0,0,0,1.183-.41,1.443,1.443,0,0,0,.561-1.025h1.2a2.293,2.293,0,0,1-.437,1.21,2.881,2.881,0,0,1-1.077.916,3.107,3.107,0,0,1-1.425.342,3.047,3.047,0,0,1-2.4-1.008,4.016,4.016,0,0,1-.892-2.758V9.158a4.453,4.453,0,0,1,.4-1.921A3.02,3.02,0,0,1,50.26,5.932a3.233,3.233,0,0,1,1.753-.465,2.966,2.966,0,0,1,2.068.745,2.663,2.663,0,0,1,.878,1.935h-1.2a1.743,1.743,0,0,0-.543-1.179,1.691,1.691,0,0,0-1.207-.461A1.77,1.77,0,0,0,50.52,7.2a3.259,3.259,0,0,0-.53,2.006v.239a3.194,3.194,0,0,0,.526,1.969A1.779,1.779,0,0,0,52.021,12.1Zm5.735.9H56.491V5.6h1.265ZM56.389,3.642a.755.755,0,0,1,.188-.52.706.706,0,0,1,.557-.212.717.717,0,0,1,.561.212.747.747,0,0,1,.191.52.722.722,0,0,1-.191.513.73.73,0,0,1-.561.205.718.718,0,0,1-.557-.205A.73.73,0,0,1,56.389,3.642Zm3.056,5.592a4.369,4.369,0,0,1,.427-1.955,3.187,3.187,0,0,1,1.189-1.34,3.238,3.238,0,0,1,1.74-.472,3.119,3.119,0,0,1,2.444,1.046,4.024,4.024,0,0,1,.933,2.782v.089a4.407,4.407,0,0,1-.414,1.938,3.14,3.14,0,0,1-1.183,1.336,3.275,3.275,0,0,1-1.767.479,3.111,3.111,0,0,1-2.437-1.046,4,4,0,0,1-.933-2.769Zm1.271.15a3.164,3.164,0,0,0,.571,1.976,1.934,1.934,0,0,0,3.059-.01,3.46,3.46,0,0,0,.567-2.116,3.159,3.159,0,0,0-.578-1.972A1.836,1.836,0,0,0,62.8,6.506a1.816,1.816,0,0,0-1.511.745A3.435,3.435,0,0,0,60.716,9.384Zm2.659-6.87h1.531l-1.832,2.01-1.019,0ZM68.96,5.6l.041.93a2.7,2.7,0,0,1,2.215-1.066q2.345,0,2.365,2.646V13H72.316V8.105a1.7,1.7,0,0,0-.366-1.183,1.466,1.466,0,0,0-1.118-.383,1.825,1.825,0,0,0-1.08.328,2.228,2.228,0,0,0-.725.861V13H67.764V5.6ZM78.646,9.24A4.333,4.333,0,0,1,79.453,6.5a2.745,2.745,0,0,1,4.17-.147V2.5h1.265V13H83.726l-.062-.793a2.575,2.575,0,0,1-2.112.93,2.526,2.526,0,0,1-2.1-1.053,4.382,4.382,0,0,1-.81-2.748Zm1.265.144a3.281,3.281,0,0,0,.52,1.969,1.68,1.68,0,0,0,1.436.711,1.845,1.845,0,0,0,1.757-1.08v-3.4A1.859,1.859,0,0,0,81.88,6.54a1.687,1.687,0,0,0-1.449.718A3.612,3.612,0,0,0,79.911,9.384Zm10.008,3.753a3.232,3.232,0,0,1-2.447-.988,3.666,3.666,0,0,1-.943-2.642V9.274a4.438,4.438,0,0,1,.42-1.965,3.28,3.28,0,0,1,1.176-1.354,2.956,2.956,0,0,1,1.637-.489A2.77,2.77,0,0,1,92,6.417a4.114,4.114,0,0,1,.8,2.721v.526H87.793a2.629,2.629,0,0,0,.639,1.767,2.009,2.009,0,0,0,1.555.673,2.2,2.2,0,0,0,1.135-.273,2.851,2.851,0,0,0,.813-.725l.772.6A3.106,3.106,0,0,1,89.919,13.137Zm-.157-6.631a1.687,1.687,0,0,0-1.285.557,2.708,2.708,0,0,0-.643,1.562h3.705v-.1a2.409,2.409,0,0,0-.52-1.494A1.588,1.588,0,0,0,89.762,6.506ZM95.641,13H94.376V2.5h1.265Zm-68.5,12.384a4.429,4.429,0,0,1-.772,2.721,2.476,2.476,0,0,1-2.092,1.032,2.713,2.713,0,0,1-2.119-.854v3.562H20.893V21.6h1.155l.062.82a2.605,2.605,0,0,1,2.146-.957,2.522,2.522,0,0,1,2.109,1,4.477,4.477,0,0,1,.776,2.8Zm-1.265-.144a3.268,3.268,0,0,0-.533-1.976,1.718,1.718,0,0,0-1.463-.725,1.859,1.859,0,0,0-1.723,1.019v3.534A1.863,1.863,0,0,0,23.894,28.1a1.71,1.71,0,0,0,1.446-.721A3.567,3.567,0,0,0,25.876,25.24Zm6.446-2.5a3.79,3.79,0,0,0-.622-.048,1.667,1.667,0,0,0-1.688,1.06V29H28.748V21.6h1.23l.021.854a1.969,1.969,0,0,1,1.764-.991,1.292,1.292,0,0,1,.561.1Zm.69,2.5a4.369,4.369,0,0,1,.427-1.955,3.187,3.187,0,0,1,1.189-1.34,3.238,3.238,0,0,1,1.74-.472,3.119,3.119,0,0,1,2.444,1.046,4.024,4.024,0,0,1,.933,2.782v.089a4.407,4.407,0,0,1-.414,1.938,3.14,3.14,0,0,1-1.183,1.336,3.275,3.275,0,0,1-1.767.479,3.111,3.111,0,0,1-2.437-1.046,4,4,0,0,1-.933-2.769Zm1.271.15a3.164,3.164,0,0,0,.571,1.976,1.934,1.934,0,0,0,3.059-.01,3.46,3.46,0,0,0,.567-2.116,3.159,3.159,0,0,0-.578-1.972,1.836,1.836,0,0,0-1.535-.755,1.816,1.816,0,0,0-1.511.745A3.434,3.434,0,0,0,34.285,25.384Zm9.365,1.764L45.373,21.6h1.354l-2.974,8.538q-.69,1.846-2.194,1.846l-.239-.021-.472-.089V30.853l.342.027a1.683,1.683,0,0,0,1-.26,1.88,1.88,0,0,0,.591-.95l.28-.752L40.423,21.6H41.8Zm7.185,1.989a3.232,3.232,0,0,1-2.447-.988,3.666,3.666,0,0,1-.943-2.642v-.232a4.438,4.438,0,0,1,.42-1.965,3.279,3.279,0,0,1,1.176-1.354,2.956,2.956,0,0,1,1.637-.489,2.77,2.77,0,0,1,2.242.95,4.114,4.114,0,0,1,.8,2.721v.526H48.708a2.629,2.629,0,0,0,.639,1.767A2.009,2.009,0,0,0,50.9,28.1a2.2,2.2,0,0,0,1.135-.273,2.851,2.851,0,0,0,.813-.725l.772.6A3.106,3.106,0,0,1,50.834,29.137Zm-.157-6.631a1.687,1.687,0,0,0-1.285.557,2.708,2.708,0,0,0-.643,1.562h3.705v-.1a2.409,2.409,0,0,0-.52-1.494A1.588,1.588,0,0,0,50.677,22.506Zm7.472,5.6a1.822,1.822,0,0,0,1.183-.41,1.443,1.443,0,0,0,.561-1.025h1.2a2.293,2.293,0,0,1-.437,1.21,2.881,2.881,0,0,1-1.077.916,3.107,3.107,0,0,1-1.425.342,3.047,3.047,0,0,1-2.4-1.008,4.016,4.016,0,0,1-.892-2.758v-.212a4.453,4.453,0,0,1,.4-1.921,3.02,3.02,0,0,1,1.138-1.306,3.233,3.233,0,0,1,1.753-.465,2.966,2.966,0,0,1,2.068.745,2.663,2.663,0,0,1,.878,1.935h-1.2a1.743,1.743,0,0,0-.543-1.179,1.691,1.691,0,0,0-1.207-.461,1.77,1.77,0,0,0-1.494.694,3.259,3.259,0,0,0-.53,2.006v.239a3.194,3.194,0,0,0,.526,1.969A1.779,1.779,0,0,0,58.149,28.1Zm6.077-8.292V21.6h1.381v.978H64.226v4.593a1.027,1.027,0,0,0,.185.667.777.777,0,0,0,.629.222,3.062,3.062,0,0,0,.6-.082V29a3.688,3.688,0,0,1-.971.136,1.575,1.575,0,0,1-1.278-.513,2.2,2.2,0,0,1-.431-1.456V22.581H61.615V21.6h1.347V19.813Zm2.386,5.421a4.369,4.369,0,0,1,.427-1.955,3.187,3.187,0,0,1,1.189-1.34,3.238,3.238,0,0,1,1.74-.472,3.119,3.119,0,0,1,2.444,1.046,4.024,4.024,0,0,1,.933,2.782v.089a4.407,4.407,0,0,1-.414,1.938,3.14,3.14,0,0,1-1.183,1.336,3.275,3.275,0,0,1-1.767.479,3.111,3.111,0,0,1-2.437-1.046,4,4,0,0,1-.933-2.769Zm1.271.15a3.164,3.164,0,0,0,.571,1.976,1.934,1.934,0,0,0,3.059-.01,3.46,3.46,0,0,0,.567-2.116,3.159,3.159,0,0,0-.578-1.972,1.836,1.836,0,0,0-1.535-.755,1.816,1.816,0,0,0-1.511.745A3.434,3.434,0,0,0,67.883,25.384Zm12.934,1.764L82.54,21.6h1.354l-2.974,8.538q-.69,1.846-2.194,1.846l-.239-.021-.472-.089V30.853l.342.027a1.683,1.683,0,0,0,1-.26,1.88,1.88,0,0,0,.591-.95l.28-.752L77.59,21.6h1.381ZM42.132,41.842a3.662,3.662,0,0,1-1.166,2.437,3.82,3.82,0,0,1-2.608.858,3.507,3.507,0,0,1-2.827-1.265,5.088,5.088,0,0,1-1.063-3.384v-.957a5.671,5.671,0,0,1,.5-2.44,3.7,3.7,0,0,1,1.4-1.617,3.911,3.911,0,0,1,2.105-.564,3.6,3.6,0,0,1,2.543.885,3.706,3.706,0,0,1,1.114,2.451H40.813a2.86,2.86,0,0,0-.742-1.728,2.244,2.244,0,0,0-1.6-.535,2.348,2.348,0,0,0-1.972.93,4.271,4.271,0,0,0-.714,2.648v.965a4.391,4.391,0,0,0,.677,2.579,2.187,2.187,0,0,0,1.894.958,2.526,2.526,0,0,0,1.678-.5,2.75,2.75,0,0,0,.776-1.726ZM45.1,45H43.834V37.6H45.1Zm-1.367-9.358a.755.755,0,0,1,.188-.52.706.706,0,0,1,.557-.212.717.717,0,0,1,.561.212.747.747,0,0,1,.191.52.722.722,0,0,1-.191.513.73.73,0,0,1-.561.205.718.718,0,0,1-.557-.205A.73.73,0,0,1,43.732,35.642Zm6.46,9.5a3.232,3.232,0,0,1-2.447-.988,3.666,3.666,0,0,1-.943-2.642v-.232a4.438,4.438,0,0,1,.42-1.965A3.28,3.28,0,0,1,48.4,37.956a2.956,2.956,0,0,1,1.637-.489,2.77,2.77,0,0,1,2.242.95,4.114,4.114,0,0,1,.8,2.721v.526H48.066a2.629,2.629,0,0,0,.639,1.767,2.009,2.009,0,0,0,1.555.673,2.2,2.2,0,0,0,1.135-.273,2.851,2.851,0,0,0,.813-.725l.772.6A3.106,3.106,0,0,1,50.192,45.137Zm-.157-6.631a1.687,1.687,0,0,0-1.285.557,2.708,2.708,0,0,0-.643,1.562h3.705v-.1a2.409,2.409,0,0,0-.52-1.494A1.588,1.588,0,0,0,50.035,38.506Zm8.08.232a3.79,3.79,0,0,0-.622-.048A1.667,1.667,0,0,0,55.8,39.75V45H54.54V37.6h1.23l.021.854a1.969,1.969,0,0,1,1.764-.991,1.292,1.292,0,0,1,.561.1Zm4.737,0a3.79,3.79,0,0,0-.622-.048,1.667,1.667,0,0,0-1.688,1.06V45H59.277V37.6h1.23l.021.854a1.969,1.969,0,0,1,1.764-.991,1.292,1.292,0,0,1,.561.1Zm4.1,6.4a3.232,3.232,0,0,1-2.447-.988,3.666,3.666,0,0,1-.943-2.642v-.232a4.438,4.438,0,0,1,.42-1.965,3.28,3.28,0,0,1,1.176-1.354,2.956,2.956,0,0,1,1.637-.489,2.77,2.77,0,0,1,2.242.95,4.114,4.114,0,0,1,.8,2.721v.526H64.828a2.629,2.629,0,0,0,.639,1.767,2.009,2.009,0,0,0,1.555.673,2.2,2.2,0,0,0,1.135-.273,2.851,2.851,0,0,0,.813-.725l.772.6A3.106,3.106,0,0,1,66.954,45.137ZM66.8,38.506a1.687,1.687,0,0,0-1.285.557,2.708,2.708,0,0,0-.643,1.562h3.705v-.1a2.409,2.409,0,0,0-.52-1.494A1.588,1.588,0,0,0,66.8,38.506Z" transform="translate(1059.633 1064.874)" fill="#12263f"/>
    <g id="rompecabezas" transform="translate(1082.438 994.4)">
      <g id="Grupo_56549" data-name="Grupo 56549" transform="translate(32.531 0)">
        <g id="Grupo_56546" data-name="Grupo 56546" transform="translate(1.151 1.151)">
          <g id="Grupo_56545" data-name="Grupo 56545">
            <path id="Trazado_104030" data-name="Trazado 104030" d="M311.645,10h-19.1v8.506l.069-.013a3.518,3.518,0,1,1,0,6.92l-.069-.013v7.765h8.686l-.157.858a3.56,3.56,0,0,0,3.5,4.223,3.518,3.518,0,0,0,3.407-4.15l-.17-.93h7.9v-19.1A4.066,4.066,0,0,0,311.645,10Z" transform="translate(-292.545 -10)" fill="#26ccda"/>
          </g>
        </g>
        <g id="Grupo_56548" data-name="Grupo 56548">
          <g id="Grupo_56547" data-name="Grupo 56547">
            <path id="Trazado_104031" data-name="Trazado 104031" d="M295.673,30.55a4.616,4.616,0,0,1-3.531-1.648,4.747,4.747,0,0,1-1.115-3.433H283.7a1.151,1.151,0,0,1-1.151-1.151V16.553A1.151,1.151,0,0,1,283.9,15.42l.069.013a2.366,2.366,0,1,0,0-4.655l-.069.013a1.151,1.151,0,0,1-1.359-1.132V1.151A1.151,1.151,0,0,1,283.7,0h19.1a5.223,5.223,0,0,1,5.217,5.217v19.1a1.151,1.151,0,0,1-1.151,1.151h-6.539a4.669,4.669,0,0,1-4.581,5.081Zm-10.826-7.384h7.534a1.151,1.151,0,0,1,1.133,1.359l-.157.858a2.453,2.453,0,0,0,.543,2.032,2.3,2.3,0,0,0,1.807.833A2.366,2.366,0,0,0,298,25.455l-.17-.931a1.151,1.151,0,0,1,1.133-1.359h6.749V5.217A2.918,2.918,0,0,0,302.8,2.3H284.847V8.457a4.67,4.67,0,0,1,0,9.3Z" transform="translate(-282.544 0)"/>
          </g>
        </g>
      </g>
      <g id="Grupo_56563" data-name="Grupo 56563" transform="translate(0 0)">
        <g id="Grupo_56552" data-name="Grupo 56552" transform="translate(2.101 31.274)">
          <g id="Grupo_56551" data-name="Grupo 56551">
            <g id="Grupo_56550" data-name="Grupo 56550">
              <path id="Trazado_104032" data-name="Trazado 104032" d="M41.347,289.585a3.517,3.517,0,0,1-4.151-3.46h0a3.518,3.518,0,0,1,4.151-3.46l.069.013v-7.693H34.354a3.519,3.519,0,0,0-7.03,0H18.25v19.1a4.066,4.066,0,0,0,4.066,4.066h19.1v-8.578Z" transform="translate(-18.25 -271.626)" fill="#f57c00"/>
            </g>
          </g>
        </g>
        <g id="Grupo_56554" data-name="Grupo 56554" transform="translate(21.047 34.632)">
          <g id="Grupo_56553" data-name="Grupo 56553">
            <path id="Trazado_104033" data-name="Trazado 104033" d="M210.191,304.963v-4.169h-7.9l.17.93a3.518,3.518,0,0,1-3.407,4.15,3.56,3.56,0,0,1-3.5-4.223l.157-.858h-8.686v7.693l-.069-.013a3.518,3.518,0,0,0-4.151,3.46h0a3.517,3.517,0,0,0,4.151,3.46l.069-.013v8.578h19.1a4.066,4.066,0,0,0,4.066-4.066v-3.341" transform="translate(-182.805 -300.794)" fill="#ffa726"/>
          </g>
        </g>
        <g id="Grupo_56557" data-name="Grupo 56557" transform="translate(0.95 10.315)">
          <g id="Grupo_56556" data-name="Grupo 56556" transform="translate(1.151 1.151)">
            <g id="Grupo_56555" data-name="Grupo 56555">
              <path id="Trazado_104034" data-name="Trazado 104034" d="M41.485,108.082l-.069.013V99.588h-19.1a4.066,4.066,0,0,0-4.066,4.066v19.1h9.074a3.519,3.519,0,0,1,7.03,0h7.062V114.99l.069.013a3.518,3.518,0,1,0,0-6.92Z" transform="translate(-18.25 -99.588)" fill="#fdd835"/>
            </g>
          </g>
          <path id="Trazado_104035" data-name="Trazado 104035" d="M55.733,119.225a1.151,1.151,0,0,0,1.151-1.151v-4.169a1.151,1.151,0,0,0-1.151-1.151h-7.9a1.151,1.151,0,0,0-1.133,1.359l.17.931a2.366,2.366,0,0,1-2.291,2.792A2.3,2.3,0,0,1,42.772,117a2.453,2.453,0,0,1-.543-2.032l.157-.858a1.151,1.151,0,0,0-1.133-1.359H33.719v-5.412a4.67,4.67,0,0,0,0-9.3V90.739a1.151,1.151,0,0,0-1.151-1.151h-19.1A5.223,5.223,0,0,0,8.25,94.805v38.2a5.223,5.223,0,0,0,5.217,5.217h38.2a5.223,5.223,0,0,0,5.217-5.217v-3.341a1.151,1.151,0,1,0-2.3,0v3.341a2.918,2.918,0,0,1-2.914,2.914H33.719v-7.427a1.151,1.151,0,0,0-1.358-1.133l-.07.013a2.366,2.366,0,1,1,0-4.655l.069.013a1.151,1.151,0,0,0,1.358-1.133v-6.542H39.9a4.745,4.745,0,0,0,1.115,3.433,4.654,4.654,0,0,0,8.18-3.433h5.388v3.017A1.151,1.151,0,0,0,55.733,119.225ZM10.553,94.805a2.918,2.918,0,0,1,2.914-2.914H31.416v7.355a1.151,1.151,0,0,0,1.358,1.133l.069-.013h0a2.366,2.366,0,1,1,0,4.655l-.069-.013a1.151,1.151,0,0,0-1.359,1.133v6.613h-4.94a4.675,4.675,0,0,0-8.971,0H10.553ZM28.876,121.46a4.67,4.67,0,0,0,2.54,8.235v6.226H13.467a2.918,2.918,0,0,1-2.914-2.914V115.057h7.922a1.151,1.151,0,0,0,1.15-1.1,2.367,2.367,0,0,1,4.73,0,1.151,1.151,0,0,0,1.15,1.1h5.911V120.4a4.656,4.656,0,0,0-2.54,1.062Z" transform="translate(-8.25 -89.588)"/>
        </g>
        <g id="Grupo_56562" data-name="Grupo 56562">
          <g id="Grupo_56559" data-name="Grupo 56559">
            <g id="Grupo_56558" data-name="Grupo 56558">
              <path id="Trazado_104036" data-name="Trazado 104036" fill="#f5737f"/>
            </g>
          </g>
          <g id="Grupo_56561" data-name="Grupo 56561" transform="translate(47.284 43.388)">
            <g id="Grupo_56560" data-name="Grupo 56560">
              <path id="Trazado_104037" data-name="Trazado 104037" d="M411.827,379.14a1.151,1.151,0,1,1,1.129-.926,1.16,1.16,0,0,1-1.129.926Z" transform="translate(-410.678 -376.841)"/>
            </g>
          </g>
        </g>
      </g>
    </g>
  </g>
</svg>
