<svg xmlns="http://www.w3.org/2000/svg" width="119.712" height="100.901" viewBox="0 0 119.712 100.901">
  <g id="grupo-de-edad" transform="translate(0 -40.227)">
    <g id="Grupo_55824" data-name="Grupo 55824" transform="translate(1.871 42.079)">
      <g id="Grupo_55820" data-name="Grupo 55820" transform="translate(0 0)">
        <g id="Grupo_55817" data-name="Grupo 55817" transform="translate(0 24.469)">
          <path id="Trazado_102718" data-name="Trazado 102718" d="M30.287,168.837a9.441,9.441,0,1,0-13.477.029C12.6,170,8,172.614,8,178.616V198.8a3.785,3.785,0,0,0,7.569,0v22.707a4.017,4.017,0,1,0,8.034,0,4.017,4.017,0,1,0,8.034,0V198.8a3.785,3.785,0,0,0,7.569,0V178.616c0-6.054-4.684-8.66-8.919-9.779Z" transform="translate(-8 -152.801)" fill="#fdd835"/>
        </g>
        <g id="Grupo_55818" data-name="Grupo 55818" transform="translate(38.64)">
          <path id="Trazado_102719" data-name="Trazado 102719" d="M197.887,65.867a10.432,10.432,0,1,0-14.892.033c-4.648,1.254-9.735,4.141-9.735,10.773V107.4a4.182,4.182,0,0,0,8.363,0v33.508a4.439,4.439,0,0,0,8.878,0,4.439,4.439,0,0,0,8.877,0V107.4a4.182,4.182,0,1,0,8.363,0V76.673c0-6.689-5.175-9.569-9.855-10.806Z" transform="translate(-173.26 -48.148)" fill="#26ccda"/>
        </g>
        <g id="Grupo_55819" data-name="Grupo 55819" transform="translate(81.489 10.522)">
          <path id="Trazado_102720" data-name="Trazado 102720" d="M381.149,110.867a10.431,10.431,0,1,0-14.892.033c-4.648,1.254-9.735,4.141-9.735,10.773v22.309a4.182,4.182,0,1,0,8.363,0v31.4a4.439,4.439,0,1,0,8.877,0,4.439,4.439,0,1,0,8.877,0V135.564a4.182,4.182,0,0,0,8.364,0V121.673c0-6.689-5.175-9.569-9.855-10.805Z" transform="translate(-356.522 -93.148)" fill="#ffa726"/>
        </g>
      </g>
      <g id="Grupo_55821" data-name="Grupo 55821" transform="translate(7.569 88.971)">
        <path id="Trazado_102721" data-name="Trazado 102721" d="M52.424,432.688a4.009,4.009,0,0,1-3.126-1.494,1.154,1.154,0,0,0-1.782,0,4.017,4.017,0,0,1-7.143-2.523v4.1a4.1,4.1,0,0,0,4.094,4.122,4.017,4.017,0,0,0,3.94-4.016,4.017,4.017,0,0,0,3.94,4.016,4.1,4.1,0,0,0,4.094-4.122v-4.1A4.018,4.018,0,0,1,52.424,432.688Z" transform="translate(-40.373 -428.671)" fill="#ffa726"/>
      </g>
      <g id="Grupo_55822" data-name="Grupo 55822" transform="translate(47.003 88.55)">
        <path id="Trazado_102722" data-name="Trazado 102722" d="M222.347,431.307a4.432,4.432,0,0,1-3.509-1.719,1.173,1.173,0,0,0-1.861,0,4.439,4.439,0,0,1-7.947-2.719v4.1a4.508,4.508,0,0,0,4.277,4.542,4.439,4.439,0,0,0,4.6-4.436,4.439,4.439,0,0,0,4.6,4.436,4.508,4.508,0,0,0,4.277-4.542v-4.1A4.438,4.438,0,0,1,222.347,431.307Z" transform="translate(-209.03 -426.868)" fill="#26ccda" style="mix-blend-mode: multiply;isolation: isolate"/>
      </g>
      <g id="Grupo_55823" data-name="Grupo 55823" transform="translate(89.853 88.55)">
        <path id="Trazado_102723" data-name="Trazado 102723" d="M405.608,431.307a4.43,4.43,0,0,1-3.508-1.719,1.173,1.173,0,0,0-1.861,0,4.439,4.439,0,0,1-7.947-2.719v4.1a4.508,4.508,0,0,0,4.277,4.542,4.439,4.439,0,0,0,4.6-4.436,4.439,4.439,0,0,0,4.6,4.436,4.508,4.508,0,0,0,4.277-4.542v-4.1A4.439,4.439,0,0,1,405.608,431.307Z" transform="translate(-392.292 -426.868)" fill="#f57c00"/>
      </g>
    </g>
    <g id="Grupo_55825" data-name="Grupo 55825" transform="translate(0 40.227)">
      <path id="Trazado_102724" data-name="Trazado 102724" d="M26.977,162.013a11.216,11.216,0,1,0-19.283.046C2.708,164.107,0,167.819,0,172.706V179.2a1.757,1.757,0,0,0,3.514,0v-6.493c0-4.008,2.533-6.724,7.528-8.072a1.757,1.757,0,0,0,.794-2.929,7.7,7.7,0,1,1,10.995-.024,1.757,1.757,0,0,0,.808,2.926c5.062,1.338,7.629,4.063,7.629,8.1v20.229a2.035,2.035,0,1,1-4.07,0V173.927a1.757,1.757,0,1,0-3.514,0v41.759a2.268,2.268,0,1,1-4.536,0V193.26a1.757,1.757,0,1,0-3.514,0v22.427a2.268,2.268,0,1,1-4.536,0V173.927a1.757,1.757,0,1,0-3.514,0v19.008a2.035,2.035,0,1,1-4.07,0v-6.708a1.757,1.757,0,1,0-3.514,0v6.708A5.549,5.549,0,0,0,7.584,198.1v17.589a5.779,5.779,0,0,0,9.807,4.147,5.779,5.779,0,0,0,9.807-4.147V198.1a5.549,5.549,0,0,0,7.584-5.162V172.706c0-4.926-2.748-8.655-7.8-10.693Z" transform="translate(0 -120.567)"/>
      <path id="Trazado_102725" data-name="Trazado 102725" d="M194.937,58.84a12.209,12.209,0,1,0-20.765.049c-5.563,2.216-8.588,6.292-8.588,11.675v30.786a5.947,5.947,0,0,0,8.38,5.426v28.147a6.2,6.2,0,0,0,10.652,4.322,6.2,6.2,0,0,0,10.652-4.322v-8.876a1.757,1.757,0,0,0-3.514,0v8.876a2.69,2.69,0,0,1-5.381,0V101.709a1.757,1.757,0,0,0-3.514,0v33.215a2.69,2.69,0,1,1-5.381,0V71.913a1.757,1.757,0,1,0-3.514,0v29.438a2.433,2.433,0,0,1-4.866,0V70.565c0-4.523,2.845-7.584,8.455-9.1a1.757,1.757,0,0,0,.794-2.929,8.7,8.7,0,1,1,12.412-.027,1.757,1.757,0,0,0,.808,2.926c5.684,1.5,8.567,4.573,8.567,9.128v30.786a2.433,2.433,0,0,1-4.866,0V71.913a1.757,1.757,0,1,0-3.514,0v47.106a1.757,1.757,0,0,0,3.514,0V106.777a5.946,5.946,0,0,0,8.38-5.426V70.565c0-5.425-3.068-9.519-8.71-11.724Z" transform="translate(-126.868 -40.227)"/>
      <path id="Trazado_102726" data-name="Trazado 102726" d="M378.556,103.928a12.209,12.209,0,1,0-20.765.049c-5.563,2.216-8.588,6.292-8.588,11.675v6.471a1.757,1.757,0,0,0,3.514,0v-6.471c0-4.523,2.845-7.584,8.455-9.1a1.757,1.757,0,0,0,.794-2.93,8.7,8.7,0,1,1,12.412-.027,1.757,1.757,0,0,0,.808,2.926c5.684,1.5,8.567,4.573,8.567,9.128v13.918a2.433,2.433,0,0,1-4.866,0V117a1.757,1.757,0,1,0-3.514,0v52.468a2.69,2.69,0,1,1-5.381,0V144.688a1.757,1.757,0,1,0-3.514,0v24.781a2.69,2.69,0,1,1-5.381,0V117a1.757,1.757,0,0,0-3.514,0v21a2.433,2.433,0,0,1-4.866,0v-8.853a1.757,1.757,0,1,0-3.514,0v8.854a5.946,5.946,0,0,0,8.38,5.426v26.038a6.2,6.2,0,0,0,10.652,4.322,6.2,6.2,0,0,0,10.652-4.322V135a5.912,5.912,0,0,0,2.433.521l.073,0v38.4a1.757,1.757,0,0,0,3.514,0V134.31a5.939,5.939,0,0,0,2.36-4.739V115.653c0-5.425-3.069-9.519-8.711-11.724Z" transform="translate(-267.554 -74.773)"/>
    </g>
  </g>
</svg>
