<svg id="objetivo" xmlns="http://www.w3.org/2000/svg" width="117.107" height="115.334" viewBox="0 0 117.107 115.334">
  <path id="Trazado_102806" data-name="Trazado 102806" d="M166.028,251.713l15.435-15.273c5.765-5.765,16.852,1.508,10.862,8.555l-18.689,21.988a13.111,13.111,0,0,1-2.5,2.268A18.644,18.644,0,0,1,161,271.819H133.263a52.04,52.04,0,0,0-6,.348l-7.977.9-16.545-16.056s9.386-17.725,27.8-12.63a39.645,39.645,0,0,0,10.579,1.407h18.228c8.581,0,8.649,13.634-.071,13.634H143.4" transform="translate(-79.24 -180.865)" fill="#ffcdac"/>
  <path id="Trazado_102807" data-name="Trazado 102807" d="M36.943,353.018l15.74-16.148a.011.011,0,0,0,0-.016L25.975,310.935a.012.012,0,0,0-.016,0L10.07,327.43Zm0,0" transform="translate(-7.767 -239.928)" fill="#ffa726"/>
  <path id="Trazado_102808" data-name="Trazado 102808" d="M62.658,100.317a9.832,9.832,0,0,0-8.893,9.787v10.468a3.274,3.274,0,0,0,3.274,3.274H79.487a3.274,3.274,0,0,0,3.274-3.274V110.1a9.831,9.831,0,0,0-8.9-9.788" transform="translate(-41.468 -77.486)" fill="#fdd835"/>
  <path id="Trazado_102809" data-name="Trazado 102809" d="M91.093,21.817A10.984,10.984,0,1,1,80.109,10.832,10.984,10.984,0,0,1,91.093,21.817Zm0,0" transform="translate(-53.315 -8.469)" fill="#ffcdac"/>
  <path id="Trazado_102810" data-name="Trazado 102810" d="M189.425,100.317a9.833,9.833,0,0,0-8.894,9.787v10.468a3.274,3.274,0,0,0,3.275,3.274h22.447a3.274,3.274,0,0,0,3.274-3.274V110.1a9.832,9.832,0,0,0-8.9-9.788" transform="translate(-139.239 -77.486)" fill="#26ccda"/>
  <path id="Trazado_102811" data-name="Trazado 102811" d="M217.86,21.817a10.985,10.985,0,1,1-10.984-10.985A10.984,10.984,0,0,1,217.86,21.817Zm0,0" transform="translate(-151.086 -8.469)" fill="#ffcdac"/>
  <path id="Trazado_102812" data-name="Trazado 102812" d="M316.194,100.317A9.833,9.833,0,0,0,307.3,110.1v10.468a3.274,3.274,0,0,0,3.274,3.274h22.447a3.275,3.275,0,0,0,3.275-3.274V110.1a9.832,9.832,0,0,0-8.905-9.788" transform="translate(-237.013 -77.486)" fill="#f57c00"/>
  <path id="Trazado_102813" data-name="Trazado 102813" d="M344.63,21.817a10.985,10.985,0,1,1-10.985-10.985A10.985,10.985,0,0,1,344.63,21.817Zm0,0" transform="translate(-248.86 -8.469)" fill="#ffcdac"/>
  <path id="Trazado_102814" data-name="Trazado 102814" d="M114.342,226.778a10.607,10.607,0,0,0-6.543-2.741,9.366,9.366,0,0,0-7.2,2.739L87.582,239.661A8.644,8.644,0,0,0,86.7,238.4a8.441,8.441,0,0,0-6.6-2.949H61.877a37.387,37.387,0,0,1-9.966-1.324,24.52,24.52,0,0,0-22.874,4.84,33.268,33.268,0,0,0-5.957,6.394l-3.268-3.172a2.323,2.323,0,0,0-1.612-.654h-.015a2.328,2.328,0,0,0-1.652.709L.645,258.741a2.305,2.305,0,0,0,.071,3.267L27.589,287.6a2.3,2.3,0,0,0,3.239-.06l15.74-16.148a2.316,2.316,0,0,0-.046-3.278l-1.371-1.329,3.137-.353a49.859,49.859,0,0,1,5.738-.332H81.76a20.821,20.821,0,0,0,11.377-2.93l.075-.05a15.353,15.353,0,0,0,2.939-2.668L114.84,238.46C118.039,234.7,117.839,230,114.342,226.778ZM29.117,282.69,5.571,260.269,18.255,247.1l23.409,22.716Zm82.213-47.214L92.641,257.464a10.769,10.769,0,0,1-2.023,1.843,16.383,16.383,0,0,1-8.858,2.181H54.025a54.4,54.4,0,0,0-6.26.363l-6.9.774L26.431,248.613a28.733,28.733,0,0,1,5.521-6.074,19.83,19.83,0,0,1,18.731-3.969,41.989,41.989,0,0,0,11.194,1.491H80.105c3.274,0,4.147,2.836,4.147,4.511a4.989,4.989,0,0,1-1.078,3.2,3.915,3.915,0,0,1-3.141,1.318H64.165a2.3,2.3,0,0,0,0,4.608H80.033a8.543,8.543,0,0,0,6.653-2.943,9.461,9.461,0,0,0,2.17-5.87l15-14.84c2.143-2.143,5.492-1.606,7.366.122C112.187,231.058,113.49,232.936,111.33,235.476Zm0,0" transform="translate(-0.001 -172.898)"/>
  <path id="Trazado_102815" data-name="Trazado 102815" d="M233.785,335a2.3,2.3,0,1,0-4.485,1.052l.021.094a2.3,2.3,0,0,0,2.241,1.778,2.332,2.332,0,0,0,.528-.061,2.3,2.3,0,0,0,1.717-2.769Zm0,0" transform="translate(-176.806 -257.119)"/>
  <path id="Trazado_102816" data-name="Trazado 102816" d="M49.269,49.1H71.717a5.544,5.544,0,0,0,3.274-1.067A5.544,5.544,0,0,0,78.264,49.1h22.448a5.544,5.544,0,0,0,3.274-1.067,5.544,5.544,0,0,0,3.274,1.067h22.447a5.584,5.584,0,0,0,5.577-5.578V33.059a12.079,12.079,0,0,0-6.57-10.8,13.288,13.288,0,1,0-20.462,0,12.067,12.067,0,0,0-4.266,3.658,12.045,12.045,0,0,0-4.267-3.658,13.289,13.289,0,1,0-20.461,0,12.045,12.045,0,0,0-4.267,3.658,12.056,12.056,0,0,0-4.267-3.659,13.288,13.288,0,1,0-20.461,0,12.081,12.081,0,0,0-6.571,10.8V43.526A5.585,5.585,0,0,0,49.269,49.1Zm69.215-44a8.681,8.681,0,1,1-8.681,8.681A8.691,8.691,0,0,1,118.484,5.108ZM112.5,25.647a13.241,13.241,0,0,0,11.969,0,7.485,7.485,0,0,1,6.21,7.411V43.526a.971.971,0,0,1-.97.97H107.259a.971.971,0,0,1-.969-.97V33.059A7.485,7.485,0,0,1,112.5,25.647ZM89.488,5.108a8.681,8.681,0,1,1-8.681,8.681A8.691,8.691,0,0,1,89.488,5.108ZM83.5,25.647a13.241,13.241,0,0,0,11.969,0,7.486,7.486,0,0,1,6.21,7.411V43.526a.971.971,0,0,1-.97.97H78.265a.971.971,0,0,1-.97-.97V33.059A7.487,7.487,0,0,1,83.5,25.647ZM60.493,5.108a8.681,8.681,0,1,1-8.681,8.681A8.691,8.691,0,0,1,60.493,5.108ZM48.3,33.059a7.487,7.487,0,0,1,6.21-7.411,13.241,13.241,0,0,0,11.969,0,7.485,7.485,0,0,1,6.21,7.411V43.526a.971.971,0,0,1-.97.97H49.269a.971.971,0,0,1-.97-.97Zm0,0" transform="translate(-33.698 -0.5)"/>
</svg>
