<svg id="analisis" xmlns="http://www.w3.org/2000/svg" width="100" height="100" viewBox="0 0 100 100">
  <path id="Trazado_104006" data-name="Trazado 104006" d="M116.654,106.094h53.128a3.906,3.906,0,0,0,3.906-3.906V27.771L155.914,10H97.906A3.906,3.906,0,0,0,94,13.906v88.281a3.906,3.906,0,0,0,3.906,3.906Z" transform="translate(-75.641 -8.047)" fill="#fff"/>
  <path id="Trazado_104007" data-name="Trazado 104007" d="M411,11.167V24.806a3.906,3.906,0,0,0,3.906,3.906h13.639Z" transform="translate(-330.727 -8.986)" fill="#fdd835"/>
  <path id="Trazado_104008" data-name="Trazado 104008" d="M69.665,85.819a23.846,23.846,0,1,1-23.846,23.846H69.665V85.819Z" transform="translate(-36.87 -69.057)" fill="#26ccda"/>
  <path id="Trazado_104009" data-name="Trazado 104009" d="M167.909,109.665V85.819A23.771,23.771,0,0,1,184.771,92.8Z" transform="translate(-135.114 -69.057)" fill="#fdd835"/>
  <path id="Trazado_104010" data-name="Trazado 104010" d="M33.846,50V73.846H10A23.846,23.846,0,0,1,33.846,50Z" transform="translate(-8.047 -40.234)" fill="#f57c00"/>
  <circle id="Elipse_4154" data-name="Elipse 4154" cx="3.906" cy="3.906" r="3.906" transform="translate(81.654 63.594)" fill="#f57c00"/>
  <circle id="Elipse_4155" data-name="Elipse 4155" cx="3.906" cy="3.906" r="3.906" transform="translate(62.449 82.402)" fill="#fdd835"/>
  <circle id="Elipse_4156" data-name="Elipse 4156" cx="3.906" cy="3.906" r="3.906" transform="translate(47.018 67.5)" fill="#26ccda"/>
  <circle id="Elipse_4157" data-name="Elipse 4157" cx="3.906" cy="3.906" r="3.906" transform="translate(32.012 82.41)" fill="#ffa726"/>
  <path id="Trazado_104011" data-name="Trazado 104011" d="M99.428,18.343,81.654.572A1.953,1.953,0,0,0,80.273,0H22.266a5.866,5.866,0,0,0-5.859,5.859V9.583A25.841,25.841,0,0,0,0,33.612a1.953,1.953,0,0,0,1.953,1.953H25.8a1.953,1.953,0,0,0,1.953-1.953V9.766A1.953,1.953,0,0,0,25.8,7.813a25.788,25.788,0,0,0-5.487.589V5.859a1.955,1.955,0,0,1,1.953-1.953H78.32V15.82A5.866,5.866,0,0,0,84.18,21.68H96.094V94.141a1.955,1.955,0,0,1-1.953,1.953H22.266a1.955,1.955,0,0,1-1.953-1.953V77.409a1.953,1.953,0,0,0-3.906,0V94.141A5.866,5.866,0,0,0,22.266,100H94.141A5.866,5.866,0,0,0,100,94.141V19.724A1.953,1.953,0,0,0,99.428,18.343ZM23.846,31.658H3.993A21.929,21.929,0,0,1,23.846,11.805V31.658ZM82.227,15.82V6.668L93.334,17.773H84.18A1.955,1.955,0,0,1,82.227,15.82Z" transform="translate(0 0)"/>
  <path id="Trazado_104012" data-name="Trazado 104012" d="M84.572,350.572A1.952,1.952,0,1,0,85.953,350,1.968,1.968,0,0,0,84.572,350.572Z" transform="translate(-67.594 -281.641)"/>
  <path id="Trazado_104013" data-name="Trazado 104013" d="M87.417,101.618a25.828,25.828,0,0,0-25.8-25.8,1.953,1.953,0,0,0-1.953,1.953V99.665H37.772a1.953,1.953,0,0,0-1.953,1.953,25.8,25.8,0,1,0,51.6,0ZM75.648,84.825,63.571,96.9V79.812A21.794,21.794,0,0,1,75.648,84.825ZM39.812,103.571H61.618A1.947,1.947,0,0,0,63,103h0L78.411,87.587a21.889,21.889,0,1,1-38.6,15.984Z" transform="translate(-28.823 -61.011)"/>
  <path id="Trazado_104014" data-name="Trazado 104014" d="M180.629,325.37a5.859,5.859,0,1,0-11.179,2.453l-7.167,7.167a5.86,5.86,0,1,0,2.765,2.759l7.127-7.127a5.841,5.841,0,0,0,5.487-.159l7.261,7.262a5.86,5.86,0,1,0,10.578.056l11.147-11.147a5.856,5.856,0,1,0-2.639-2.885L192.758,335a5.848,5.848,0,0,0-5.06-.026l-7.472-7.472A5.83,5.83,0,0,0,180.629,325.37Zm-20.865,16.862a1.953,1.953,0,1,1,1.351-3.36l.023.025.029.026a1.951,1.951,0,0,1-1.4,3.309Zm15.005-14.909a1.953,1.953,0,1,1,1.953-1.953A1.955,1.955,0,0,1,174.77,327.323Zm34.637-7.812a1.953,1.953,0,1,1-1.953,1.953A1.955,1.955,0,0,1,209.406,319.511Zm-17.253,20.76a1.953,1.953,0,1,1-1.953-1.953A1.955,1.955,0,0,1,192.153,340.271Z" transform="translate(-123.845 -253.963)"/>
  <path id="Trazado_104015" data-name="Trazado 104015" d="M327.264,238.906h10.308a1.953,1.953,0,1,0,0-3.906H327.264a1.953,1.953,0,1,0,0,3.906Z" transform="translate(-261.774 -189.102)"/>
  <path id="Trazado_104016" data-name="Trazado 104016" d="M424.192,235.572a1.952,1.952,0,1,0,1.381-.572A1.968,1.968,0,0,0,424.192,235.572Z" transform="translate(-340.882 -189.102)"/>
  <path id="Trazado_104017" data-name="Trazado 104017" d="M327.264,142.906h23.858a1.953,1.953,0,0,0,0-3.906H327.264a1.953,1.953,0,0,0,0,3.906Z" transform="translate(-261.774 -111.852)"/>
  <path id="Trazado_104018" data-name="Trazado 104018" d="M327.264,190.906h23.858a1.953,1.953,0,0,0,0-3.906H327.264a1.953,1.953,0,0,0,0,3.906Z" transform="translate(-261.774 -150.477)"/>
</svg>
