<svg id="Grupo_120304" data-name="Grupo 120304" xmlns="http://www.w3.org/2000/svg" xmlns:xlink="http://www.w3.org/1999/xlink" width="80.006" height="80" viewBox="0 0 80.006 80">
  <defs>
    <clipPath id="clip-path">
      <rect id="Rectángulo_37257" data-name="Rectángulo 37257" width="80.006" height="80" fill="none"/>
    </clipPath>
  </defs>
  <g id="Grupo_120295" data-name="Grupo 120295" clip-path="url(#clip-path)">
    <path id="Trazado_181308" data-name="Trazado 181308" d="M7.837,38.055a10.287,10.287,0,0,1,1.406-3.224c.964.526,1.355.479,2.127-.271a11.843,11.843,0,0,0,1.085-1.1c.438-.554.729-.554,1.243-.018,3.452,3.593,6.942,7.15,10.424,10.715.833.852,1.239.9,2.253.3l2.089,2.1c-.819.84-1.632,1.686-2.458,2.52-2.8,2.828-3.028,5.727-.657,8.927,1.98,2.672,4,5.317,6.084,7.909,6.48,8.046,14.272,14.653,22.636,20.624a5.792,5.792,0,0,0,7.331-.174,17.167,17.167,0,0,0,2.052-1.957c.458-.508.716-.469,1.179.01Q69.837,89.8,75.1,95.131c.839.855,1.238.9,2.257.3l2.092,2.1c-.9.921-1.8,1.848-2.7,2.761a7.333,7.333,0,0,1-3.888,2.067,24.568,24.568,0,0,1-10.066-.468,47.521,47.521,0,0,1-16.386-7.5A117.13,117.13,0,0,1,20.263,69.512a59.2,59.2,0,0,1-9.288-16.091,30.8,30.8,0,0,1-2.043-13.74,1.433,1.433,0,0,0-1.1-1.626" transform="translate(-6.033 -25.436)" fill="#26ccda"/>
    <path id="Trazado_181309" data-name="Trazado 181309" d="M20.341,19.02c-1.014.6-1.42.552-2.253-.3C14.606,15.156,11.116,11.6,7.664,8.005c-.514-.535-.806-.535-1.243.019a11.841,11.841,0,0,1-1.085,1.1c-.772.75-1.163.8-2.127.271-.659-.99-.63-1.429.191-2.254C5.2,5.331,6.995,3.51,8.826,1.729c2.351-2.286,4.943-2.318,7.288-.014Q22.1,7.6,27.991,13.582a4.088,4.088,0,0,1-.052,6c-1.994,2.024-4.02,4.017-6.027,6.028-1.81,1.812-1.907,3.155-.453,5.23A112.359,112.359,0,0,0,49.19,58.563c2.04,1.43,3.4,1.338,5.169-.423,1.975-1.962,3.939-3.935,5.912-5.9a4.163,4.163,0,0,1,6.37-.019q5.735,5.711,11.444,11.448c2.568,2.587,2.555,5.145,0,7.731-1.615,1.632-3.291,3.206-4.859,4.882a11.791,11.791,0,0,1-8.683,3.7,37.249,37.249,0,0,1-16.711-3.7A78.58,78.58,0,0,1,28.017,62.778,113.379,113.379,0,0,1,8.025,40.024,49.6,49.6,0,0,1,.632,22.765,28.491,28.491,0,0,1,.14,14.124C.268,12.952.6,12.691,1.8,12.62A1.434,1.434,0,0,1,2.9,14.246a30.8,30.8,0,0,0,2.043,13.74A59.2,59.2,0,0,0,14.23,44.077,117.135,117.135,0,0,0,40.367,68.959a47.526,47.526,0,0,0,16.386,7.5,24.573,24.573,0,0,0,10.066.468,7.333,7.333,0,0,0,3.888-2.067c.909-.913,1.8-1.84,2.7-2.761,1.018-1,2.066-1.981,3.047-3.021a1.946,1.946,0,0,0-.03-3.15Q70.5,59.943,64.513,54a1.317,1.317,0,0,0-2.1,0c-.662.634-1.267,1.332-1.956,1.934-.476.417-.381.644.022,1.051q5.29,5.353,10.538,10.748c.848.868.9,1.252.307,2.26-1.018.6-1.418.551-2.257-.3Q63.821,64.349,58.6,58.983c-.464-.479-.721-.518-1.179-.01a17.167,17.167,0,0,1-2.052,1.957,5.792,5.792,0,0,1-7.331.174C39.671,55.132,31.879,48.526,25.4,40.479c-2.087-2.592-4.1-5.236-6.084-7.909-2.371-3.2-2.141-6.1.657-8.926.825-.834,1.639-1.68,2.458-2.521,1.1-1.084,2.21-2.163,3.306-3.253,1.046-1.042,1.04-1.608-.013-2.662q-5.6-5.6-11.2-11.2a8.88,8.88,0,0,0-.692-.645,1.851,1.851,0,0,0-2.7.019c-.545.463-1.006,1.025-1.556,1.483-.514.428-.5.707-.018,1.191,3.511,3.549,6.99,7.128,10.476,10.7.852.873.9,1.255.309,2.261" transform="translate(0 0)" fill="#030404"/>
    <path id="Trazado_181310" data-name="Trazado 181310" d="M207.632,49.729q0,1.2,0,2.4c-.689.14-1.25.415-1.37,1.209-.23,1.529-.457,1.724-1.97,1.724q-11.195,0-22.389-.01a2.361,2.361,0,0,0-1.711.635c-.847.774-1.733,1.505-2.605,2.252-1.425,1.22-2.852,2.437-4.4,3.762V58.272c0-3.208,0-3.208-3.164-3.208H169.5c-1.41-.005-1.832-.43-1.832-1.857q0-10.549,0-21.1c0-1.428.418-1.852,1.833-1.852q17.438,0,34.875,0c1.471,0,1.875.411,1.875,1.9q0,7.879,0,15.758c0,1.221.188,1.463,1.375,1.815M189.811,34.4h-.774c-3.384,0-6.767-.006-10.151,0-1.083,0-1.686.629-1.574,1.575.092.773.627,1.176,1.613,1.176q10.8.005,21.592,0a2.451,2.451,0,0,0,.514-.023,1.271,1.271,0,0,0,1.1-1.246c.065-.931-.5-1.481-1.567-1.484-3.584-.008-7.169,0-10.753,0m1.315,6.889c-3.184,0-6.368-.006-9.552,0-.983,0-1.511.5-1.515,1.362a1.31,1.31,0,0,0,1.5,1.385q9.552.014,19.1.005a1.379,1.379,0,1,0,.015-2.75c-3.184-.017-6.368-.006-9.552-.006m-9.68,9.64c2.751,0,5.5.006,8.254,0a1.339,1.339,0,0,0,1.51-1.38,1.392,1.392,0,0,0-1.468-1.365c-.086,0-.172,0-.258,0q-7.953,0-15.906,0c-1.086,0-1.719.506-1.734,1.36-.016.893.61,1.387,1.777,1.388q3.912,0,7.824,0m-6.81-9.637c-.515,0-1.031-.023-1.545.005a1.367,1.367,0,0,0-.022,2.73c1,.043,2,.045,3,0a1.367,1.367,0,0,0-.063-2.73c-.456-.024-.915,0-1.373,0" transform="translate(-129.075 -23.292)" fill="#fdd835"/>
    <path id="Trazado_181311" data-name="Trazado 181311" d="M198.428,40.527c-1.188-.352-1.375-.594-1.375-1.815q0-7.879,0-15.758c0-1.488-.4-1.9-1.875-1.9q-17.437,0-34.875,0c-1.416,0-1.833.424-1.833,1.852q0,10.549,0,21.1c0,1.427.422,1.851,1.832,1.857h.517c3.164,0,3.164,0,3.164,3.208V52.5c1.551-1.325,2.977-2.543,4.4-3.763.872-.746,1.758-1.478,2.605-2.252a2.36,2.36,0,0,1,1.711-.636q11.194.024,22.389.01c1.513,0,1.74-.195,1.97-1.724.119-.795.681-1.07,1.37-1.21,1.211.35,1.522.828,1.347,2.069a4.169,4.169,0,0,1-4.24,3.618q-10.979.012-21.957-.009a2.034,2.034,0,0,0-1.457.541c-2.771,2.41-5.571,4.787-8.355,7.182a1.447,1.447,0,0,1-2.55-1.2c.018-1.808-.046-3.619.028-5.424.037-.884-.19-1.136-1.1-1.11A4.081,4.081,0,0,1,155.8,45.24a5.561,5.561,0,0,1-.081-1.112q-.007-10.677,0-21.355a4.155,4.155,0,0,1,4.452-4.467q17.609-.007,35.218,0a4.144,4.144,0,0,1,4.414,4.419q.01,8.008,0,16.016c0,1.19-.19,1.43-1.374,1.785" transform="translate(-119.872 -14.09)" fill="#020101"/>
    <path id="Trazado_181312" data-name="Trazado 181312" d="M272.423,248.856c.589-1.007.541-1.392-.307-2.26q-5.262-5.38-10.538-10.748c-.4-.407-.5-.634-.022-1.051.688-.6,1.293-1.3,1.956-1.934a1.318,1.318,0,0,1,2.1,0q5.973,5.948,11.914,11.927a1.946,1.946,0,0,1,.03,3.15c-.98,1.04-2.028,2.016-3.047,3.021l-2.092-2.1" transform="translate(-201.103 -178.856)" fill="#b1f9ff"/>
    <path id="Trazado_181313" data-name="Trazado 181313" d="M51.088,28.347c.59-1.006.543-1.388-.309-2.261-3.486-3.573-6.965-7.153-10.476-10.7-.479-.484-.5-.763.018-1.191.549-.458,1.01-1.02,1.556-1.483a1.851,1.851,0,0,1,2.7-.019,8.88,8.88,0,0,1,.692.645q5.6,5.6,11.2,11.2c1.054,1.054,1.06,1.62.013,2.662-1.1,1.091-2.2,2.17-3.306,3.253l-2.089-2.1" transform="translate(-30.747 -9.326)" fill="#b1f9ff"/>
    <path id="Trazado_181314" data-name="Trazado 181314" d="M222.011,48.232c3.584,0,7.169-.005,10.753,0,1.067,0,1.632.552,1.567,1.484a1.271,1.271,0,0,1-1.1,1.246,2.436,2.436,0,0,1-.514.023q-10.8,0-21.593,0c-.986,0-1.522-.4-1.613-1.176-.112-.946.491-1.571,1.574-1.575,3.384-.01,6.767,0,10.151,0h.774" transform="translate(-161.275 -37.128)" fill="#020101"/>
    <path id="Trazado_181315" data-name="Trazado 181315" d="M232.557,78.158c3.184,0,6.368-.011,9.552.006a1.379,1.379,0,1,1-.015,2.75q-9.552,0-19.1-.005a1.31,1.31,0,0,1-1.5-1.385c0-.866.532-1.359,1.515-1.362,3.184-.009,6.368,0,9.552,0" transform="translate(-170.507 -60.165)" fill="#020101"/>
    <path id="Trazado_181316" data-name="Trazado 181316" d="M195.4,110.846q-3.912,0-7.824,0c-1.167,0-1.793-.495-1.777-1.388.015-.854.648-1.359,1.734-1.36q7.953,0,15.906,0c.086,0,.172,0,.258,0a1.393,1.393,0,0,1,1.468,1.365,1.339,1.339,0,0,1-1.51,1.38c-2.751.009-5.5,0-8.254,0" transform="translate(-143.03 -83.213)" fill="#020101"/>
    <path id="Trazado_181317" data-name="Trazado 181317" d="M188.414,78.15c.458,0,.917-.02,1.373,0a1.367,1.367,0,0,1,.063,2.73c-1,.046-2,.045-3,0a1.367,1.367,0,0,1,.022-2.73c.514-.028,1.03-.005,1.545-.006" transform="translate(-142.855 -60.155)" fill="#020101"/>
  </g>
</svg>
