<svg id="Grupo_120289" data-name="Grupo 120289" xmlns="http://www.w3.org/2000/svg" xmlns:xlink="http://www.w3.org/1999/xlink" width="96.066" height="100" viewBox="0 0 96.066 100">
  <defs>
    <clipPath id="clip-path">
      <rect id="Rectángulo_37250" data-name="Rectángulo 37250" width="96.066" height="100" fill="none"/>
    </clipPath>
  </defs>
  <g id="Grupo_120289-2" data-name="Grupo 120289" clip-path="url(#clip-path)">
    <path id="Trazado_181267" data-name="Trazado 181267" d="M80.487,3.827c-.073-1.84.357-2.4,2.164-2.85a38.267,38.267,0,0,1,4.2-.77c.176-.023.4.05.482-.209H93.58c1.381.258,2.769.482,4.141.78A32.857,32.857,0,0,1,123.2,27.79a38.609,38.609,0,0,1-3.068,22.474,34.539,34.539,0,0,1-6.953,9.463,77.661,77.661,0,0,0-5.743,5.98,11.267,11.267,0,0,0-2.082,4.04.693.693,0,0,0,.446.973,6.68,6.68,0,0,1-.19,12.233.722.722,0,0,0-.526.787q.038,1.61,0,3.221c-.011.469.088.663.627.7a1.947,1.947,0,0,1,1.934,1.925,1.983,1.983,0,0,1-1.858,2.116c-.616.064-.735.265-.706.819a8.944,8.944,0,0,1-.242,3A6.132,6.132,0,0,1,99.06,99.97q-8.4.054-16.792,0a6.157,6.157,0,0,1-6.049-5.954,5.794,5.794,0,0,1,0-.975c.106-.827-.032-1.314-1.051-1.436a1.847,1.847,0,0,1-1.505-2.084,1.9,1.9,0,0,1,1.8-1.84c.7-.029.81-.317.749-.886a3.767,3.767,0,0,1,0-.78,3.6,3.6,0,0,0-1.872-3.953c-4.19-2.708-3.534-8.963.965-11.235.678-.342.763-.647.565-1.33a12.7,12.7,0,0,0-2.99-4.961c-2.184-2.414-4.635-4.567-6.806-7A32.425,32.425,0,0,1,58.028,39.2a37.779,37.779,0,0,1,1.138-16.024A32.987,32.987,0,0,1,65.133,12.1c1.094-1.335,1.874-1.469,3.365-.588.833,1.311.819,1.971-.154,3.165a29.427,29.427,0,0,0-4.038,6.529,31.382,31.382,0,0,0-2.368,15.825c.57,6.811,2.75,12.941,7.472,18.006,2.129,2.283,4.371,4.461,6.515,6.73a15.919,15.919,0,0,1,3.931,6.649c.471,1.679.462,1.682,2.229,1.682,6.051,0,12.1-.007,18.155.011.6,0,.9-.076,1.013-.788a12.374,12.374,0,0,1,1.781-4.5,29.783,29.783,0,0,1,4.606-5.409,56.873,56.873,0,0,0,5.851-6.275C119.351,45.262,120.735,36.3,118.8,27,115.418,10.734,99.576,1.078,83.514,5.029c-1.536.378-2.144.136-3.027-1.2M90.752,74.215q-6.049,0-12.1,0c-1.784,0-2.912,1.007-2.913,2.567a2.517,2.517,0,0,0,2.807,2.561q12.1.023,24.2,0a3.047,3.047,0,0,0,1.334-.225,2.573,2.573,0,0,0-1.229-4.9c-4.033-.014-8.066,0-12.1-.005m-.105,13.42c3.186,0,6.373-.013,9.559.012.581,0,.819-.134.783-.757a23.619,23.619,0,0,1,0-2.632c.032-.606-.184-.771-.774-.769q-9.559.027-19.117,0c-.579,0-.818.143-.782.761a20.03,20.03,0,0,1,0,2.534c-.048.694.194.874.873.867,3.153-.034,6.307-.015,9.461-.015m.061,4.123H82.123c-1.911,0-1.911,0-1.795,1.95A2.06,2.06,0,0,0,82.4,95.854q8.244.041,16.487,0a2.036,2.036,0,0,0,2.077-2.035c.034-.42-.028-.85.021-1.267.076-.65-.178-.817-.813-.811-3.154.031-6.309.014-9.463.014" transform="translate(-42.619 0.001)" fill="#030302"/>
    <path id="Trazado_181268" data-name="Trazado 181268" d="M92.152,14.669c.883,1.338,1.491,1.579,3.027,1.2,16.062-3.951,31.9,5.7,35.288,21.971,1.934,9.3.55,18.262-5.311,26.136a56.9,56.9,0,0,1-5.851,6.276,29.773,29.773,0,0,0-4.606,5.409,12.373,12.373,0,0,0-1.781,4.5c-.115.711-.412.789-1.013.787-6.051-.018-12.1-.011-18.155-.011-1.767,0-1.759,0-2.229-1.682a15.92,15.92,0,0,0-3.931-6.649c-2.144-2.269-4.387-4.447-6.515-6.73-4.722-5.065-6.9-11.195-7.472-18.006a31.381,31.381,0,0,1,2.368-15.825,29.429,29.429,0,0,1,4.038-6.53c.973-1.194.987-1.854.154-3.165a19.994,19.994,0,0,1,3.8-3.361c1.112.935,1.977,1.068,2.883.445.87-.6,1.066-1.468.626-2.776a29.606,29.606,0,0,1,4.678-1.992m25.621,25.384a19.866,19.866,0,0,0-.187-2.433,15.45,15.45,0,0,0-30.715,2.246,6.17,6.17,0,0,0,12.335.333,3.2,3.2,0,0,1,2.286-3.156,3.138,3.138,0,0,1,3.518,1.471,3.089,3.089,0,0,1-.641,3.828c-1,1.066-2.04,2.1-3.015,3.193a19.957,19.957,0,0,0-4.5,7.117c-.879,2.76-1.339,5.534.63,8.086.316.409-.049.581-.21.822a5.973,5.973,0,0,0-.882,5.291,5.906,5.906,0,0,0,5.267,4.423,5.781,5.781,0,0,0,5.883-2.87,5.84,5.84,0,0,0-.124-6.7c-.327-.5-.431-.82-.023-1.328a4.926,4.926,0,0,0,1.06-2.886,4,4,0,0,1,.936-2.3A56.653,56.653,0,0,1,113.4,50.8a15.425,15.425,0,0,0,4.373-10.742" transform="translate(-54.284 -10.841)" fill="#fdd835"/>
    <path id="Trazado_181269" data-name="Trazado 181269" d="M10.063,206.385a2.054,2.054,0,0,1-1.022-3.9c2.262-1.325,4.539-2.625,6.81-3.935.337-.194.67-.394,1.01-.582a2.078,2.078,0,0,1,3.048.6,2.051,2.051,0,0,1-.954,2.947c-2.6,1.52-5.212,3.013-7.818,4.52a1.938,1.938,0,0,1-1.073.353" transform="translate(-5.821 -146.006)" fill="#030302"/>
    <path id="Trazado_181270" data-name="Trazado 181270" d="M323.153,206.355a2.211,2.211,0,0,1-1.211-.4c-2.576-1.5-5.16-2.974-7.734-4.472a2.071,2.071,0,1,1,2.06-3.558c2.642,1.509,5.28,3.024,7.9,4.57a2.014,2.014,0,0,1,1.011,2.406,2.042,2.042,0,0,1-2.028,1.45" transform="translate(-231.261 -145.975)" fill="#030302"/>
    <path id="Trazado_181271" data-name="Trazado 181271" d="M7.942,23.339a1.986,1.986,0,0,1,2.879-1.825c2.9,1.575,5.75,3.244,8.576,4.949a1.929,1.929,0,0,1,.519,2.755,1.985,1.985,0,0,1-2.648.7c-2.821-1.586-5.616-3.22-8.408-4.859a1.865,1.865,0,0,1-.918-1.723" transform="translate(-5.869 -15.727)" fill="#030302"/>
    <path id="Trazado_181272" data-name="Trazado 181272" d="M325.248,23.374a1.919,1.919,0,0,1-.987,1.783c-2.739,1.6-5.479,3.2-8.242,4.758a2.047,2.047,0,0,1-2.077-3.527c2.758-1.631,5.526-3.248,8.335-4.789a1.994,1.994,0,0,1,2.972,1.775" transform="translate(-231.259 -15.769)" fill="#030302"/>
    <path id="Trazado_181273" data-name="Trazado 181273" d="M4.431,122.5c-.811,0-1.625.041-2.434-.008A2.018,2.018,0,0,1,0,120.5a1.976,1.976,0,0,1,1.893-2.081,50.4,50.4,0,0,1,5.059,0A1.944,1.944,0,0,1,8.837,120.5a1.97,1.97,0,0,1-1.972,1.989c-.809.049-1.622.009-2.434.01" transform="translate(0 -87.467)" fill="#030302"/>
    <path id="Trazado_181274" data-name="Trazado 181274" d="M338.6,122.5c-.811,0-1.625.042-2.433-.01a1.963,1.963,0,0,1-1.939-1.92,1.928,1.928,0,0,1,1.818-2.128,47.829,47.829,0,0,1,5.154,0,1.967,1.967,0,0,1,1.862,2.105,2.058,2.058,0,0,1-2.028,1.965c-.065.005-.13.009-.195.009H338.6V122.5" transform="translate(-246.997 -87.481)" fill="#030302"/>
    <path id="Trazado_181275" data-name="Trazado 181275" d="M116.52,19.582c.439,1.309.243,2.178-.626,2.776-.906.623-1.771.49-2.883-.445-.744-1.9.228-3.484,2-3.272a2.426,2.426,0,0,1,1.512.941" transform="translate(-83.33 -13.763)" fill="#030302"/>
    <path id="Trazado_181276" data-name="Trazado 181276" d="M141.924,284.362c4.033,0,8.066-.009,12.1,0a2.573,2.573,0,0,1,1.229,4.9,3.042,3.042,0,0,1-1.334.225q-12.1.007-24.2,0a2.517,2.517,0,0,1-2.807-2.561c0-1.559,1.128-2.564,2.913-2.567q6.049-.01,12.1,0" transform="translate(-93.791 -210.146)" fill="#6c90ab"/>
    <path id="Trazado_181277" data-name="Trazado 181277" d="M154.749,324.046c-3.154,0-6.308-.019-9.461.015-.679.007-.921-.173-.873-.867a20.028,20.028,0,0,0,0-2.534c-.036-.618.2-.762.782-.761q9.559.025,19.118,0c.59,0,.806.163.773.769a23.554,23.554,0,0,0,0,2.632c.037.624-.2.762-.783.758-3.186-.025-6.372-.012-9.559-.012" transform="translate(-106.721 -236.411)" fill="#a3b9c8"/>
    <path id="Trazado_181278" data-name="Trazado 181278" d="M154.753,351.546c3.154,0,6.309.017,9.463-.014.635-.006.889.161.813.811-.049.417.013.847-.021,1.267a2.036,2.036,0,0,1-2.077,2.035q-8.243.037-16.487,0a2.06,2.06,0,0,1-2.071-2.146c-.116-1.95-.116-1.95,1.795-1.95h8.585" transform="translate(-106.664 -259.787)" fill="#a3b9c8"/>
    <path id="Trazado_181279" data-name="Trazado 181279" d="M155.763,67.984a15.424,15.424,0,0,1-4.373,10.742,56.756,56.756,0,0,0-4.01,4.394,4,4,0,0,0-.936,2.3,4.926,4.926,0,0,1-1.06,2.886c-.409.508-.3.831.023,1.328a5.84,5.84,0,0,1,.124,6.7,5.782,5.782,0,0,1-5.883,2.871,5.906,5.906,0,0,1-5.267-4.423,5.974,5.974,0,0,1,.882-5.292c.161-.241.526-.413.21-.822-1.969-2.552-1.509-5.325-.63-8.086a19.962,19.962,0,0,1,4.5-7.117c.975-1.091,2.011-2.127,3.015-3.193A3.089,3.089,0,0,0,143,66.445a3.139,3.139,0,0,0-3.518-1.471A3.2,3.2,0,0,0,137.2,68.13a6.17,6.17,0,0,1-12.335-.333,15.45,15.45,0,0,1,30.715-2.246,19.82,19.82,0,0,1,.187,2.433m-4.125.536c-.019-8.637-8.222-14.109-15.655-11.039a11.334,11.334,0,0,0-7,10.352,2.052,2.052,0,0,0,3.809,1.183,2.87,2.87,0,0,0,.314-1.407A7.2,7.2,0,1,1,145.539,72.9c-1.412,1.528-2.915,2.973-4.211,4.606-1.617,2.037-2.951,4.2-3.067,6.906a2.084,2.084,0,0,0,1.82,2.439,2,2,0,0,0,2.28-2.085,7.339,7.339,0,0,1,1.52-3.833,53.216,53.216,0,0,1,4.614-5.155,11.057,11.057,0,0,0,3.144-7.257M140.282,91.036a2.039,2.039,0,0,0-2.028,2.041,2.052,2.052,0,1,0,4.1-.048,2.039,2.039,0,0,0-2.075-1.992" transform="translate(-92.274 -38.771)" fill="#030302"/>
    <path id="Trazado_181280" data-name="Trazado 181280" d="M163.3,80.289a11.056,11.056,0,0,1-3.144,7.257,53.219,53.219,0,0,0-4.614,5.156,7.338,7.338,0,0,0-1.52,3.833,2,2,0,0,1-2.28,2.085,2.084,2.084,0,0,1-1.82-2.439c.116-2.708,1.45-4.869,3.067-6.907,1.3-1.633,2.8-3.078,4.211-4.606a7.2,7.2,0,1,0-12.437-5.289,2.869,2.869,0,0,1-.314,1.407,2.052,2.052,0,0,1-3.809-1.183,11.334,11.334,0,0,1,7-10.352c7.433-3.07,15.635,2.4,15.655,11.039" transform="translate(-103.932 -50.54)" fill="#26ccda"/>
    <path id="Trazado_181281" data-name="Trazado 181281" d="M178.208,200.26a2.039,2.039,0,0,1,2.075,1.992,2.052,2.052,0,1,1-4.1.048,2.039,2.039,0,0,1,2.028-2.041" transform="translate(-130.2 -147.995)" fill="#26ccda"/>
  </g>
</svg>
