<svg xmlns="http://www.w3.org/2000/svg" width="152.098" height="244.665" viewBox="0 0 152.098 244.665">
  <g id="Grupo_120359" data-name="Grupo 120359" transform="translate(-417.285 -4793.672)">
    <path id="Trazado_166793" data-name="Trazado 166793" d="M266.39,749.862a101.111,101.111,0,0,1-34.8-6.137l34.8,26.128,34.8-26.128a101.111,101.111,0,0,1-34.8,6.137" transform="translate(227.158 4268.484)" fill="#26ccda"/>
    <circle id="Elipse_4264" data-name="Elipse 4264" cx="11" cy="11" r="11" transform="translate(482.745 4990)" fill="#26ccda"/>
    <circle id="Elipse_4265" data-name="Elipse 4265" cx="7" cy="7" r="7" transform="translate(486.745 4994)" fill="#b1f9ff"/>
    <g id="Grupo_120358" data-name="Grupo 120358">
      <path id="Trazado_166792" data-name="Trazado 166792" d="M245.4,166.541a76.049,76.049,0,1,1-76.049-76.049A76.049,76.049,0,0,1,245.4,166.541" transform="translate(323.985 4703.18)" fill="#b1f9ff"/>
      <path id="Trazado_181407" data-name="Trazado 181407" d="M-48.647,0h-2.2V-10.664h2.2ZM-44.8-7.925l.066.916a2.767,2.767,0,0,1,2.278-1.062,2.3,2.3,0,0,1,1.875.74,3.451,3.451,0,0,1,.63,2.212V0H-42.07V-5.08a1.379,1.379,0,0,0-.293-.98,1.31,1.31,0,0,0-.974-.3,1.456,1.456,0,0,0-1.34.763V0h-2.117V-7.925ZM-36.116,0H-38.24V-7.925h2.124Zm-2.249-9.976a1.042,1.042,0,0,1,.319-.784,1.2,1.2,0,0,1,.868-.308,1.2,1.2,0,0,1,.864.308,1.036,1.036,0,0,1,.322.784,1.039,1.039,0,0,1-.326.791,1.2,1.2,0,0,1-.861.308,1.2,1.2,0,0,1-.861-.308A1.039,1.039,0,0,1-38.364-9.976Zm7.288,8.416a1.388,1.388,0,0,0,.952-.322,1.129,1.129,0,0,0,.381-.857h1.985A2.715,2.715,0,0,1-28.2-1.263a2.9,2.9,0,0,1-1.183,1.04,3.7,3.7,0,0,1-1.659.37,3.44,3.44,0,0,1-2.681-1.08A4.275,4.275,0,0,1-34.7-3.918v-.139a4.226,4.226,0,0,1,.974-2.922,3.4,3.4,0,0,1,2.673-1.091,3.333,3.333,0,0,1,2.384.846,3,3,0,0,1,.912,2.252h-1.985a1.455,1.455,0,0,0-.381-1.005,1.27,1.27,0,0,0-.967-.387,1.275,1.275,0,0,0-1.117.539,3.125,3.125,0,0,0-.377,1.749v.22A3.164,3.164,0,0,0-32.212-2.1,1.291,1.291,0,0,0-31.077-1.56ZM-24.316,0H-26.44V-7.925h2.124Zm-2.249-9.976a1.042,1.042,0,0,1,.319-.784,1.2,1.2,0,0,1,.868-.308,1.2,1.2,0,0,1,.864.308,1.036,1.036,0,0,1,.322.784,1.039,1.039,0,0,1-.326.791,1.2,1.2,0,0,1-.861.308,1.2,1.2,0,0,1-.861-.308A1.039,1.039,0,0,1-26.565-9.976Zm3.662,5.94a4.7,4.7,0,0,1,.454-2.1,3.324,3.324,0,0,1,1.307-1.428,3.814,3.814,0,0,1,1.981-.505,3.609,3.609,0,0,1,2.618.981A3.939,3.939,0,0,1-15.41-4.424l.015.542A4.142,4.142,0,0,1-16.414-.956a3.539,3.539,0,0,1-2.732,1.1,3.556,3.556,0,0,1-2.736-1.1A4.215,4.215,0,0,1-22.9-3.94Zm2.117.15a2.962,2.962,0,0,0,.425,1.727,1.4,1.4,0,0,0,1.216.6,1.4,1.4,0,0,0,1.2-.591,3.241,3.241,0,0,0,.432-1.889,2.933,2.933,0,0,0-.432-1.716,1.4,1.4,0,0,0-1.216-.609,1.382,1.382,0,0,0-1.2.605A3.3,3.3,0,0,0-20.786-3.885ZM-7.4-3l1.465-4.929h2.271L-6.848,1.23l-.176.417A2.416,2.416,0,0,1-9.368,3.2a3.33,3.33,0,0,1-.937-.139v-1.6l.322.007a1.741,1.741,0,0,0,.9-.183A1.2,1.2,0,0,0-8.621.674l.249-.652-2.776-7.947H-8.87ZM5.5,0a2.351,2.351,0,0,1-.212-.71,2.561,2.561,0,0,1-2,.857,2.814,2.814,0,0,1-1.93-.674,2.167,2.167,0,0,1-.765-1.7A2.24,2.24,0,0,1,1.527-4.16a4.608,4.608,0,0,1,2.7-.681H5.2V-5.3a1.306,1.306,0,0,0-.282-.879,1.109,1.109,0,0,0-.89-.33,1.261,1.261,0,0,0-.839.256.871.871,0,0,0-.3.7H.769a2.126,2.126,0,0,1,.425-1.274,2.808,2.808,0,0,1,1.2-.919,4.378,4.378,0,0,1,1.743-.333,3.459,3.459,0,0,1,2.325.736,2.575,2.575,0,0,1,.861,2.069v3.435A3.789,3.789,0,0,0,7.639-.125V0ZM3.75-1.472a1.823,1.823,0,0,0,.864-.209,1.371,1.371,0,0,0,.586-.56V-3.6H4.409Q2.82-3.6,2.717-2.5L2.71-2.38a.847.847,0,0,0,.278.652A1.081,1.081,0,0,0,3.75-1.472ZM10.9-7.925l.066.916a2.767,2.767,0,0,1,2.278-1.062,2.3,2.3,0,0,1,1.875.74,3.451,3.451,0,0,1,.63,2.212V0H13.63V-5.08a1.379,1.379,0,0,0-.293-.98,1.31,1.31,0,0,0-.974-.3,1.456,1.456,0,0,0-1.34.763V0H8.906V-7.925ZM21.943,0a2.351,2.351,0,0,1-.212-.71,2.561,2.561,0,0,1-2,.857A2.814,2.814,0,0,1,17.8-.527a2.167,2.167,0,0,1-.765-1.7A2.24,2.24,0,0,1,17.97-4.16a4.608,4.608,0,0,1,2.7-.681h.974V-5.3a1.306,1.306,0,0,0-.282-.879,1.109,1.109,0,0,0-.89-.33,1.261,1.261,0,0,0-.839.256.871.871,0,0,0-.3.7H17.212a2.126,2.126,0,0,1,.425-1.274,2.808,2.808,0,0,1,1.2-.919,4.378,4.378,0,0,1,1.743-.333,3.459,3.459,0,0,1,2.325.736,2.575,2.575,0,0,1,.861,2.069v3.435a3.789,3.789,0,0,0,.315,1.707V0Zm-1.75-1.472a1.823,1.823,0,0,0,.864-.209,1.371,1.371,0,0,0,.586-.56V-3.6h-.791q-1.589,0-1.692,1.1l-.007.125a.847.847,0,0,0,.278.652A1.081,1.081,0,0,0,20.193-1.472ZM21-11.25h2.307L21.277-8.979H19.556ZM27.627,0H25.5V-11.25h2.124ZM31.6,0H29.48V-7.925H31.6ZM29.355-9.976a1.042,1.042,0,0,1,.319-.784,1.2,1.2,0,0,1,.868-.308,1.2,1.2,0,0,1,.864.308,1.036,1.036,0,0,1,.322.784,1.039,1.039,0,0,1-.326.791,1.2,1.2,0,0,1-.861.308,1.2,1.2,0,0,1-.861-.308A1.039,1.039,0,0,1,29.355-9.976ZM37.639-2.19a.682.682,0,0,0-.385-.612,4.368,4.368,0,0,0-1.234-.4q-2.827-.593-2.827-2.4a2.178,2.178,0,0,1,.875-1.761,3.531,3.531,0,0,1,2.289-.707,3.8,3.8,0,0,1,2.413.71,2.239,2.239,0,0,1,.9,1.846H37.559a1.024,1.024,0,0,0-.293-.751,1.24,1.24,0,0,0-.916-.3,1.267,1.267,0,0,0-.828.242.763.763,0,0,0-.293.615.652.652,0,0,0,.333.568,3.428,3.428,0,0,0,1.124.374,9.183,9.183,0,0,1,1.333.355A2.19,2.19,0,0,1,39.7-2.278a2.067,2.067,0,0,1-.93,1.754,4.013,4.013,0,0,1-2.4.67A4.191,4.191,0,0,1,34.6-.209a2.968,2.968,0,0,1-1.212-.974,2.263,2.263,0,0,1-.439-1.337h2.007a1.105,1.105,0,0,0,.417.864,1.656,1.656,0,0,0,1.04.3,1.533,1.533,0,0,0,.919-.231A.718.718,0,0,0,37.639-2.19ZM43.293,0H41.169V-7.925h2.124ZM41.045-9.976a1.042,1.042,0,0,1,.319-.784,1.2,1.2,0,0,1,.868-.308,1.2,1.2,0,0,1,.864.308,1.036,1.036,0,0,1,.322.784,1.039,1.039,0,0,1-.326.791,1.2,1.2,0,0,1-.861.308,1.2,1.2,0,0,1-.861-.308A1.039,1.039,0,0,1,41.045-9.976ZM49.329-2.19a.682.682,0,0,0-.385-.612,4.368,4.368,0,0,0-1.234-.4q-2.827-.593-2.827-2.4a2.178,2.178,0,0,1,.875-1.761,3.531,3.531,0,0,1,2.289-.707,3.8,3.8,0,0,1,2.413.71,2.239,2.239,0,0,1,.9,1.846H49.248a1.024,1.024,0,0,0-.293-.751,1.24,1.24,0,0,0-.916-.3,1.267,1.267,0,0,0-.828.242.763.763,0,0,0-.293.615.652.652,0,0,0,.333.568,3.428,3.428,0,0,0,1.124.374,9.183,9.183,0,0,1,1.333.355,2.19,2.19,0,0,1,1.677,2.131,2.067,2.067,0,0,1-.93,1.754,4.013,4.013,0,0,1-2.4.67,4.191,4.191,0,0,1-1.769-.355,2.968,2.968,0,0,1-1.212-.974,2.263,2.263,0,0,1-.439-1.337h2.007a1.105,1.105,0,0,0,.417.864,1.656,1.656,0,0,0,1.04.3,1.533,1.533,0,0,0,.919-.231A.718.718,0,0,0,49.329-2.19ZM-41.012,11.979a4.776,4.776,0,0,1,.831-2.952,2.7,2.7,0,0,1,2.274-1.1,2.427,2.427,0,0,1,1.912.864V4.75h2.124V16h-1.912l-.1-.842a2.491,2.491,0,0,1-2.036.989,2.69,2.69,0,0,1-2.245-1.1A4.93,4.93,0,0,1-41.012,11.979Zm2.117.151a3.146,3.146,0,0,0,.388,1.714,1.263,1.263,0,0,0,1.128.6,1.416,1.416,0,0,0,1.384-.831V10.467a1.4,1.4,0,0,0-1.37-.831Q-38.9,9.635-38.9,12.13Zm10.313,4.017a3.89,3.89,0,0,1-2.838-1.069,3.8,3.8,0,0,1-1.095-2.849v-.205a4.787,4.787,0,0,1,.461-2.135,3.386,3.386,0,0,1,1.307-1.45,3.669,3.669,0,0,1,1.93-.509,3.289,3.289,0,0,1,2.56,1.025,4.167,4.167,0,0,1,.934,2.908v.864H-30.37a1.966,1.966,0,0,0,.619,1.245,1.871,1.871,0,0,0,1.307.469,2.285,2.285,0,0,0,1.912-.886l1.04,1.165a3.178,3.178,0,0,1-1.289,1.051A4.229,4.229,0,0,1-28.583,16.146Zm-.242-6.511a1.323,1.323,0,0,0-1.022.427,2.209,2.209,0,0,0-.5,1.221H-27.4v-.169a1.576,1.576,0,0,0-.381-1.092A1.365,1.365,0,0,0-28.824,9.635ZM-21.888,16h-2.124V4.75h2.124Zm12.612-3.889a4.753,4.753,0,0,1-.831,2.933,2.665,2.665,0,0,1-2.245,1.1,2.469,2.469,0,0,1-1.941-.835v3.735H-16.41V8.075h1.963l.073.776a2.488,2.488,0,0,1,2.007-.923,2.683,2.683,0,0,1,2.278,1.084A4.882,4.882,0,0,1-9.276,12Zm-2.117-.161a3.136,3.136,0,0,0-.392-1.712,1.275,1.275,0,0,0-1.139-.6,1.385,1.385,0,0,0-1.37.764v3.255a1.409,1.409,0,0,0,1.384.786Q-11.393,14.44-11.393,11.949Zm7.881-1.889A5.751,5.751,0,0,0-4.274,10a1.55,1.55,0,0,0-1.575.813V16H-7.965V8.075h2l.059.945A1.961,1.961,0,0,1-4.142,7.929a2.218,2.218,0,0,1,.659.1Zm.425,1.9a4.7,4.7,0,0,1,.454-2.1A3.324,3.324,0,0,1-1.326,8.434,3.814,3.814,0,0,1,.656,7.929a3.609,3.609,0,0,1,2.618.981,3.939,3.939,0,0,1,1.132,2.666l.015.542A4.142,4.142,0,0,1,3.4,15.044a3.539,3.539,0,0,1-2.732,1.1,3.556,3.556,0,0,1-2.736-1.1A4.215,4.215,0,0,1-3.087,12.06Zm2.117.15a2.962,2.962,0,0,0,.425,1.727,1.4,1.4,0,0,0,1.216.6,1.4,1.4,0,0,0,1.2-.591A3.241,3.241,0,0,0,2.3,11.961a2.933,2.933,0,0,0-.432-1.716A1.4,1.4,0,0,0,.656,9.635a1.382,1.382,0,0,0-1.2.605A3.3,3.3,0,0,0-.97,12.115ZM8.573,13l1.465-4.929h2.271L9.122,17.23l-.176.417A2.416,2.416,0,0,1,6.6,19.2a3.33,3.33,0,0,1-.937-.139v-1.6l.322.007a1.741,1.741,0,0,0,.9-.183,1.2,1.2,0,0,0,.465-.608l.249-.652L4.823,8.075H7.1ZM16.7,16.146a3.89,3.89,0,0,1-2.838-1.069,3.8,3.8,0,0,1-1.095-2.849v-.205a4.787,4.787,0,0,1,.461-2.135,3.386,3.386,0,0,1,1.307-1.45,3.669,3.669,0,0,1,1.93-.509,3.289,3.289,0,0,1,2.56,1.025,4.167,4.167,0,0,1,.934,2.908v.864H14.908a1.966,1.966,0,0,0,.619,1.245,1.871,1.871,0,0,0,1.307.469,2.285,2.285,0,0,0,1.912-.886l1.04,1.165A3.178,3.178,0,0,1,18.5,15.769,4.229,4.229,0,0,1,16.7,16.146Zm-.242-6.511a1.323,1.323,0,0,0-1.022.427,2.209,2.209,0,0,0-.5,1.221h2.944v-.169a1.576,1.576,0,0,0-.381-1.092A1.365,1.365,0,0,0,16.454,9.635Zm8,4.8a1.388,1.388,0,0,0,.952-.322,1.129,1.129,0,0,0,.381-.857H27.77a2.715,2.715,0,0,1-.439,1.476,2.9,2.9,0,0,1-1.183,1.04,3.7,3.7,0,0,1-1.659.37,3.44,3.44,0,0,1-2.681-1.08,4.275,4.275,0,0,1-.981-2.985v-.139A4.226,4.226,0,0,1,21.8,9.02a3.4,3.4,0,0,1,2.673-1.091,3.333,3.333,0,0,1,2.384.846,3,3,0,0,1,.912,2.252H25.785a1.455,1.455,0,0,0-.381-1.005,1.416,1.416,0,0,0-2.084.153,3.125,3.125,0,0,0-.377,1.749v.22a3.164,3.164,0,0,0,.374,1.761A1.291,1.291,0,0,0,24.452,14.44Zm7.061-8.313V8.075h1.355V9.628H31.512v3.955a.944.944,0,0,0,.168.63.846.846,0,0,0,.645.19,3.376,3.376,0,0,0,.623-.051v1.6a4.358,4.358,0,0,1-1.282.19A2.021,2.021,0,0,1,29.4,13.9V9.628H28.239V8.075H29.4V6.127ZM33.5,11.964a4.7,4.7,0,0,1,.454-2.1,3.324,3.324,0,0,1,1.307-1.428,3.814,3.814,0,0,1,1.981-.505,3.609,3.609,0,0,1,2.618.981,3.939,3.939,0,0,1,1.132,2.666l.015.542a4.142,4.142,0,0,1-1.018,2.926,3.946,3.946,0,0,1-5.468,0A4.215,4.215,0,0,1,33.5,12.06Zm2.117.15a2.962,2.962,0,0,0,.425,1.727,1.526,1.526,0,0,0,2.417.007,3.241,3.241,0,0,0,.432-1.889,2.933,2.933,0,0,0-.432-1.716,1.4,1.4,0,0,0-1.216-.609,1.382,1.382,0,0,0-1.2.605A3.3,3.3,0,0,0,35.614,12.115Z" transform="translate(493.285 4902.7)" fill="#12263f"/>
      <g id="analisis" transform="translate(461.68 4817.095)">
        <path id="Trazado_104006" data-name="Trazado 104006" d="M107.139,65.734h30.814a2.266,2.266,0,0,0,2.266-2.266V20.307L129.91,10H96.266A2.266,2.266,0,0,0,94,12.266v51.2a2.266,2.266,0,0,0,2.266,2.266Z" transform="translate(-83.352 -8.867)" fill="#fff"/>
        <path id="Trazado_104007" data-name="Trazado 104007" d="M411,11.167v7.911a2.266,2.266,0,0,0,2.266,2.266h7.911Z" transform="translate(-364.441 -9.902)" fill="#fdd835"/>
        <path id="Trazado_104008" data-name="Trazado 104008" d="M59.65,85.819A13.831,13.831,0,1,1,45.819,99.65H59.65V85.819Z" transform="translate(-40.629 -76.097)" fill="#26ccda"/>
        <path id="Trazado_104009" data-name="Trazado 104009" d="M167.909,99.65V85.819a13.787,13.787,0,0,1,9.78,4.051Z" transform="translate(-148.888 -76.097)" fill="#fdd835"/>
        <path id="Trazado_104010" data-name="Trazado 104010" d="M23.831,50V63.831H10A13.831,13.831,0,0,1,23.831,50Z" transform="translate(-8.867 -44.336)" fill="#f57c00"/>
        <circle id="Elipse_4154" data-name="Elipse 4154" cx="2.266" cy="2.266" r="2.266" transform="translate(47.359 36.884)" fill="#f57c00"/>
        <circle id="Elipse_4155" data-name="Elipse 4155" cx="2.266" cy="2.266" r="2.266" transform="translate(36.221 47.793)" fill="#fdd835"/>
        <circle id="Elipse_4156" data-name="Elipse 4156" cx="2.266" cy="2.266" r="2.266" transform="translate(27.27 39.15)" fill="#26ccda"/>
        <circle id="Elipse_4157" data-name="Elipse 4157" cx="2.266" cy="2.266" r="2.266" transform="translate(18.567 47.798)" fill="#ffa726"/>
        <path id="Trazado_104011" data-name="Trazado 104011" d="M57.668,10.639,47.359.332a1.133,1.133,0,0,0-.8-.332H12.914a3.4,3.4,0,0,0-3.4,3.4v2.16A14.988,14.988,0,0,0,0,19.495a1.133,1.133,0,0,0,1.133,1.133H14.963A1.133,1.133,0,0,0,16.1,19.495V5.664a1.133,1.133,0,0,0-1.133-1.133,14.957,14.957,0,0,0-3.182.342V3.4a1.134,1.134,0,0,1,1.133-1.133H45.426v6.91a3.4,3.4,0,0,0,3.4,3.4h6.91V54.6A1.134,1.134,0,0,1,54.6,55.734H12.914A1.134,1.134,0,0,1,11.781,54.6V44.9a1.133,1.133,0,0,0-2.266,0v9.7a3.4,3.4,0,0,0,3.4,3.4H54.6A3.4,3.4,0,0,0,58,54.6V11.44A1.133,1.133,0,0,0,57.668,10.639ZM13.831,18.362H2.316A12.719,12.719,0,0,1,13.831,6.847V18.362ZM47.691,9.176V3.867l6.442,6.441H48.824A1.134,1.134,0,0,1,47.691,9.176Z"/>
        <path id="Trazado_104012" data-name="Trazado 104012" d="M84.332,350.332a1.132,1.132,0,1,0,.8-.332A1.141,1.141,0,0,0,84.332,350.332Z" transform="translate(-74.484 -310.352)"/>
        <path id="Trazado_104013" data-name="Trazado 104013" d="M65.746,90.782A14.98,14.98,0,0,0,50.782,75.819a1.133,1.133,0,0,0-1.133,1.133v12.7h-12.7a1.133,1.133,0,0,0-1.133,1.133,14.963,14.963,0,1,0,29.927,0Zm-6.826-9.74-7,7V78.135A12.641,12.641,0,0,1,58.92,81.043ZM38.135,91.915H50.782a1.129,1.129,0,0,0,.8-.331h0l8.939-8.939a12.7,12.7,0,1,1-22.388,9.271Z" transform="translate(-31.761 -67.23)"/>
        <path id="Trazado_104014" data-name="Trazado 104014" d="M169.4,321.269a3.4,3.4,0,1,0-6.484,1.422l-4.157,4.157a3.4,3.4,0,1,0,1.6,1.6l4.134-4.134a3.388,3.388,0,0,0,3.183-.092l4.212,4.212a3.4,3.4,0,1,0,6.135.033L184.5,322a3.4,3.4,0,1,0-1.531-1.673l-6.526,6.526a3.392,3.392,0,0,0-2.935-.015l-4.334-4.334A3.381,3.381,0,0,0,169.4,321.269Zm-12.1,9.78a1.133,1.133,0,1,1,.784-1.949l.013.014.017.015a1.132,1.132,0,0,1-.814,1.919Zm8.7-8.647a1.133,1.133,0,1,1,1.133-1.133A1.134,1.134,0,0,1,166.007,322.4ZM186.1,317.87A1.133,1.133,0,1,1,184.963,319,1.134,1.134,0,0,1,186.1,317.87Zm-10.007,12.041a1.133,1.133,0,1,1-1.133-1.133A1.134,1.134,0,0,1,176.089,329.911Z" transform="translate(-136.47 -279.853)"/>
        <path id="Trazado_104015" data-name="Trazado 104015" d="M326.444,237.266h5.979a1.133,1.133,0,0,0,0-2.266h-5.979a1.133,1.133,0,0,0,0,2.266Z" transform="translate(-288.459 -208.379)"/>
        <path id="Trazado_104016" data-name="Trazado 104016" d="M423.952,235.332a1.132,1.132,0,1,0,.8-.332A1.142,1.142,0,0,0,423.952,235.332Z" transform="translate(-375.632 -208.379)"/>
        <path id="Trazado_104017" data-name="Trazado 104017" d="M326.444,141.266h13.838a1.133,1.133,0,0,0,0-2.266H326.444a1.133,1.133,0,0,0,0,2.266Z" transform="translate(-288.459 -123.254)"/>
        <path id="Trazado_104018" data-name="Trazado 104018" d="M326.444,189.266h13.838a1.133,1.133,0,0,0,0-2.266H326.444a1.133,1.133,0,0,0,0,2.266Z" transform="translate(-288.459 -165.816)"/>
      </g>
    </g>
  </g>
</svg>
