<svg id="Grupo_56791" data-name="Grupo 56791" xmlns="http://www.w3.org/2000/svg" xmlns:xlink="http://www.w3.org/1999/xlink" width="340.507" height="340" viewBox="0 0 340.507 340">
  <defs>
    <clipPath id="clip-path">
      <rect id="Rectángulo_30868" data-name="Rectángulo 30868" width="340.507" height="340" fill="none"/>
    </clipPath>
    <clipPath id="clip-path-4">
      <rect id="Rectángulo_30861" data-name="Rectángulo 30861" width="53.766" height="59.279" fill="none"/>
    </clipPath>
    <clipPath id="clip-path-5">
      <rect id="Rectángulo_30862" data-name="Rectángulo 30862" width="19.748" height="17.614" fill="#106f77"/>
    </clipPath>
    <clipPath id="clip-path-6">
      <rect id="Rectángulo_30864" data-name="Rectángulo 30864" width="27.832" height="85.496" fill="#106f77"/>
    </clipPath>
    <clipPath id="clip-path-7">
      <rect id="Rectángulo_30866" data-name="Rectángulo 30866" width="17.35" height="82.503" fill="none"/>
    </clipPath>
  </defs>
  <g id="Grupo_56790" data-name="Grupo 56790" clip-path="url(#clip-path)">
    <rect id="Rectángulo_30856" data-name="Rectángulo 30856" width="272.504" height="340" fill="#455a64"/>
    <rect id="Rectángulo_30857" data-name="Rectángulo 30857" width="241.54" height="241.54" transform="translate(15.482 37.799)" fill="#fff"/>
    <g id="Grupo_56772" data-name="Grupo 56772">
      <g id="Grupo_56771" data-name="Grupo 56771" clip-path="url(#clip-path)">
        <path id="Trazado_165969" data-name="Trazado 165969" d="M27.095,25.545a7.777,7.777,0,0,1-2.283.955,7.912,7.912,0,1,1,2.283-.955" transform="translate(0.045 0.032)" fill="#fff"/>
        <path id="Trazado_165970" data-name="Trazado 165970" d="M25.325,17.893a2.409,2.409,0,1,1-2.409-2.408,2.408,2.408,0,0,1,2.409,2.408" transform="translate(0.061 0.046)" fill="#37474f"/>
        <path id="Trazado_165971" data-name="Trazado 165971" d="M27.084,24.522v.994a7.916,7.916,0,0,1-8.324,0v-.99a4.162,4.162,0,1,1,8.324,0" transform="translate(0.056 0.061)" fill="#37474f"/>
        <path id="Trazado_165972" data-name="Trazado 165972" d="M251.368,17.9a.752.752,0,0,1,.746.746.743.743,0,0,1-.746.736.734.734,0,0,1-.735-.736.743.743,0,0,1,.735-.746" transform="translate(0.747 0.053)" fill="#c7c7c7"/>
        <path id="Trazado_165973" data-name="Trazado 165973" d="M253.65,17.9a.752.752,0,0,1,.746.746.743.743,0,0,1-.746.736.735.735,0,0,1-.736-.736.743.743,0,0,1,.736-.746" transform="translate(0.754 0.053)" fill="#c7c7c7"/>
        <path id="Trazado_165974" data-name="Trazado 165974" d="M255.934,17.9a.752.752,0,0,1,.746.746.743.743,0,0,1-.746.736.734.734,0,0,1-.735-.736.743.743,0,0,1,.735-.746" transform="translate(0.761 0.053)" fill="#c7c7c7"/>
        <rect id="Rectángulo_30858" data-name="Rectángulo 30858" width="76.217" height="3.868" transform="translate(40.088 16.909)" fill="#37474f"/>
        <path id="Trazado_165975" data-name="Trazado 165975" d="M256.833,278.509H63.476v58.173Z" transform="translate(0.189 0.831)" fill="#37474f"/>
        <path id="Trazado_165976" data-name="Trazado 165976" d="M31.359,296.581a19.418,19.418,0,0,1-4.215,4.944,30.578,30.578,0,0,1-2.809,2.211h-.74c-.208-.141-4.977-3.375-7.024-7.165-1.438-2.635-1.634-5.576-.49-7.492a3.74,3.74,0,0,1,3.311-1.895,5.181,5.181,0,0,1,4.574,3.224,5.164,5.164,0,0,1,4.563-3.224,3.746,3.746,0,0,1,3.322,1.895c1.143,1.928.947,4.867-.49,7.5" transform="translate(0.046 0.856)" fill="#ffa726"/>
        <path id="Trazado_165977" data-name="Trazado 165977" d="M80.527,304.681l-1.171-.226-2.4-8.942-5.538-6.047.489-1.112H91.445l.531,1.062Zm-7.112-15,4.629,5.053.151.277,2.088,7.78,9.833-13.11Z" transform="translate(0.213 0.86)" fill="#c7c7c7"/>
        <rect id="Rectángulo_30859" data-name="Rectángulo 30859" width="16.525" height="1.328" transform="translate(76.891 295.705) rotate(-23.932)" fill="#c7c7c7"/>
        <path id="Trazado_165978" data-name="Trazado 165978" d="M51.108,303.841a8.335,8.335,0,1,1,7.992-5.955l1.258,5.132-.8.8-4.392-1.028a8.4,8.4,0,0,1-4.061,1.046m0-15.337a7,7,0,1,0,3.616,13.014l.492-.076,3.594.842-1.044-4.26.013-.362a7,7,0,0,0-6.671-9.157" transform="translate(0.128 0.856)" fill="#c7c7c7"/>
        <path id="Trazado_165979" data-name="Trazado 165979" d="M244.934,303.716l-1.054-.538v-14.16l.664-.664H256.05l.664.664v14.16l-1.054.538-5.362-4.868Zm.274-14.034v12.192l4.7-4.385h.781l4.7,4.385V289.682Z" transform="translate(0.727 0.86)" fill="#c7c7c7"/>
      </g>
    </g>
    <g id="Grupo_56789" data-name="Grupo 56789">
      <g id="Grupo_56788" data-name="Grupo 56788" clip-path="url(#clip-path)">
        <path id="Trazado_165980" data-name="Trazado 165980" d="M164.42,158.036a.879.879,0,0,1-.821.822c-1.012-.058-2.227-.144-3.59-.236-2.1-8.724-4.667-15.774-4.1-13.08a43.036,43.036,0,0,1,.577,12.832c-1.581-.117-5.241-.423-7.074-.577-.842-14.986-2.966-26.3-3.185-22.919-.885,13.611-2.254,17.844-3.8,22.355-17.068-1.44-39.422-3.574-55.549-5.461-.8-8.327-1.271-17.289-1.634-16.715-2.8,4.282-4.264,10.827-4.984,15.923-5.13-.638-9.218-1.241-11.693-1.734,0,0-.3-6.954-.182-9.211a47.113,47.113,0,0,1,4.038-16.792c2.449-5.442,6.054-10.059,9.522-14.822a.453.453,0,0,1,.084-.1c0-.017.013-.02.027-.04a48.476,48.476,0,0,0,5.67-9.982.262.262,0,0,0,.038-.077A46.745,46.745,0,0,0,90.15,90.3c2.061-9.885,8.819-17.782,18.548-19.188,19.915-14.362,36.744-5.018,40.42,8.483.353,1.315.666,2.811.947,4.435l.008.05c1.056,6.007,1.7,13.707,2.436,19.69a.024.024,0,0,0,.005.034c-.014.02-.011.036.009.067l0,.016a55.162,55.162,0,0,0,1.226,6.96c3.1,11,12.556,18.257,10.668,47.193" transform="translate(0.204 0.191)" fill="#263238"/>
        <path id="Trazado_165981" data-name="Trazado 165981" d="M104.253,73.3c-6.58,2.4-10.972,6.6-12.884,13.759-1.115,4.174-1.943,8.282-4.1,12.077-2.227,3.917-5.339,6.962-8.523,9.992-5.061,4.816-8.8,9.781-10.418,16.843-1.642,7.173-2.42,15.788-.862,22.883a.032.032,0,1,0,.062-.012c-1.083-7.129.116-16.646,2.288-23.683,2.384-7.729,7.514-12.117,12.883-17.527a33.261,33.261,0,0,0,8.853-15.252c.933-3.542,1.372-7.3,3.268-10.5,2.262-3.823,6.051-5.948,9.773-7.786a.432.432,0,0,0-.339-.793" transform="translate(0.199 0.219)" fill="#263238"/>
        <path id="Trazado_165982" data-name="Trazado 165982" d="M162.359,123.3c-3.6-6.228-7.489-11.643-9.11-19-1.477-6.7-1.914-13.638-3.433-20.336a.083.083,0,1,0-.163.028c2.144,11.824,1.342,23.368,7.417,33.871,3.3,5.706,6.649,11.032,8.457,17.6a55.933,55.933,0,0,1,1.426,21.063c-.027.252.3.28.35.042a46.264,46.264,0,0,0-4.944-33.264" transform="translate(0.446 0.25)" fill="#263238"/>
        <path id="Trazado_165983" data-name="Trazado 165983" d="M138.186,162.622c32.031,33.576,71.861,103.739,63.983,117.7-8.774,15.546-54.965-32.246-53.516-34.535,1.232-1.945-14.727-44.193-26.322-75.091-11.583-30.868,7.935-16.374,15.855-8.071" transform="translate(0.354 0.453)" fill="#c95f50"/>
        <path id="Trazado_165984" data-name="Trazado 165984" d="M177.438,202.877l-45.995,8.281s-11.482-32.59-13.76-50.686c-1.276-10.14,4.684-10.556,12.181-5.167,26.243,18.862,47.573,47.572,47.573,47.572" transform="translate(0.35 0.453)" fill="#26ccda"/>
        <path id="Trazado_165985" data-name="Trazado 165985" d="M127.913,166.2a3.488,3.488,0,0,1-.763.895,5.577,5.577,0,0,1-.509.4h-.134a4.56,4.56,0,0,1-1.272-1.3,1.42,1.42,0,0,1-.088-1.357.676.676,0,0,1,.6-.343.937.937,0,0,1,.828.584.936.936,0,0,1,.826-.584.679.679,0,0,1,.6.343,1.427,1.427,0,0,1-.089,1.359m14.219-1.15a1.526,1.526,0,0,0,.166,1.144,4.627,4.627,0,0,0,1.269,1.3h.135a4.647,4.647,0,0,0,.51-.4.593.593,0,0,0,.114-.115c-.717-.644-1.456-1.3-2.195-1.935m-22.666-11.192a.668.668,0,0,0-.593-.343.781.781,0,0,0-.384.093v.011a6.422,6.422,0,0,0-.875,2.621,2.973,2.973,0,0,0,.364.271h.135c.011-.01.24-.166.5-.4a3.56,3.56,0,0,0,.769-.895,1.427,1.427,0,0,0,.083-1.363M128,186.72a.679.679,0,0,0-.6-.343.936.936,0,0,0-.826.584.937.937,0,0,0-.828-.584.676.676,0,0,0-.6.343,1.42,1.42,0,0,0,.088,1.357,4.56,4.56,0,0,0,1.272,1.3h.134a5.466,5.466,0,0,0,.509-.4,3.493,3.493,0,0,0,.763-.9A1.427,1.427,0,0,0,128,186.72m17.065,0a.679.679,0,0,0-.6-.343.936.936,0,0,0-.826.584.937.937,0,0,0-.828-.584.676.676,0,0,0-.6.343,1.42,1.42,0,0,0,.088,1.357,4.56,4.56,0,0,0,1.272,1.3h.134a5.472,5.472,0,0,0,.508-.4,3.492,3.492,0,0,0,.763-.9,1.427,1.427,0,0,0,.089-1.359m17.065,0a.679.679,0,0,0-.6-.343.936.936,0,0,0-.826.584.937.937,0,0,0-.828-.584.676.676,0,0,0-.6.343,1.423,1.423,0,0,0,.088,1.357,4.56,4.56,0,0,0,1.272,1.3h.134a5.556,5.556,0,0,0,.51-.4,3.532,3.532,0,0,0,.763-.9,1.429,1.429,0,0,0,.088-1.359m-25.6-10.981a.678.678,0,0,0-.6-.344.936.936,0,0,0-.826.584.937.937,0,0,0-.828-.584.675.675,0,0,0-.6.344,1.418,1.418,0,0,0,.088,1.356,4.53,4.53,0,0,0,1.272,1.3h.134a5.271,5.271,0,0,0,.509-.4,3.476,3.476,0,0,0,.763-.9,1.425,1.425,0,0,0,.089-1.358m17.065,0a.678.678,0,0,0-.6-.344.936.936,0,0,0-.826.584.937.937,0,0,0-.828-.584.675.675,0,0,0-.6.344,1.421,1.421,0,0,0,.088,1.356,4.53,4.53,0,0,0,1.272,1.3h.134a5.267,5.267,0,0,0,.509-.4,3.475,3.475,0,0,0,.763-.9,1.425,1.425,0,0,0,.089-1.358M145.066,208.6a.686.686,0,0,0-.6-.343.929.929,0,0,0-.821.583.935.935,0,0,0-.832-.583.668.668,0,0,0-.593.343,1.145,1.145,0,0,0-.135.635l3.017-.542a.173.173,0,0,0-.031-.093m-8.531-10.981a.679.679,0,0,0-.6-.343.936.936,0,0,0-.826.584.937.937,0,0,0-.828-.584.676.676,0,0,0-.6.343,1.42,1.42,0,0,0,.088,1.357,4.56,4.56,0,0,0,1.272,1.3h.134a5.469,5.469,0,0,0,.509-.4,3.493,3.493,0,0,0,.763-.9,1.427,1.427,0,0,0,.089-1.359m17.065,0a.679.679,0,0,0-.6-.343.936.936,0,0,0-.826.584.937.937,0,0,0-.828-.584.676.676,0,0,0-.6.343,1.423,1.423,0,0,0,.088,1.357,4.56,4.56,0,0,0,1.272,1.3h.134a5.464,5.464,0,0,0,.509-.4,3.492,3.492,0,0,0,.763-.9,1.427,1.427,0,0,0,.089-1.359m17.065,0a.679.679,0,0,0-.6-.343.936.936,0,0,0-.826.584.937.937,0,0,0-.828-.584.676.676,0,0,0-.6.343,1.423,1.423,0,0,0,.088,1.357,4.56,4.56,0,0,0,1.272,1.3h.134a5.556,5.556,0,0,0,.51-.4,3.532,3.532,0,0,0,.763-.9,1.429,1.429,0,0,0,.088-1.359" transform="translate(0.351 0.458)" fill="#fff"/>
        <path id="Trazado_165986" data-name="Trazado 165986" d="M131.7,203.495c6.971-1.86,26.024-6.358,38.788-7.663.076-.008.14.28.066.3-10.455,2.688-31.655,6.543-38.76,7.792-.133.024-.226-.393-.094-.428" transform="translate(0.393 0.584)" fill="#263238"/>
        <g id="Grupo_56775" data-name="Grupo 56775" transform="translate(117.863 152.328)" opacity="0.1">
          <g id="Grupo_56774" data-name="Grupo 56774">
            <g id="Grupo_56773" data-name="Grupo 56773" clip-path="url(#clip-path-4)">
              <path id="Trazado_165987" data-name="Trazado 165987" d="M171.279,203.987l-39.839,7.167s-11.473-32.59-13.752-50.679c-.821-6.491,1.332-9,4.952-8.55Z" transform="translate(-117.513 -151.875)"/>
            </g>
          </g>
        </g>
        <path id="Trazado_165988" data-name="Trazado 165988" d="M157.1,278.955H40.533s10.606-81.32,48.156-124.082c10.13-11.536,28.5-8.121,37.194-.314a80.914,80.914,0,0,1,8.455,9.6c7.9,10.146,20.792,34.508,22,41.1,1.992,10.89-7.648,22.66-7.648,22.66Z" transform="translate(0.121 0.44)" fill="#26ccda"/>
        <path id="Trazado_165989" data-name="Trazado 165989" d="M94.012,166.2a3.488,3.488,0,0,1-.763.895,5.579,5.579,0,0,1-.509.4h-.134a4.56,4.56,0,0,1-1.272-1.3,1.423,1.423,0,0,1-.089-1.357.679.679,0,0,1,.6-.343.937.937,0,0,1,.828.584.936.936,0,0,1,.826-.584.679.679,0,0,1,.6.343,1.427,1.427,0,0,1-.089,1.359m17.154-1.359a.679.679,0,0,0-.6-.343.936.936,0,0,0-.826.584.937.937,0,0,0-.828-.584.676.676,0,0,0-.6.343,1.42,1.42,0,0,0,.088,1.357,4.56,4.56,0,0,0,1.272,1.3h.134a5.579,5.579,0,0,0,.509-.4,3.488,3.488,0,0,0,.763-.895,1.427,1.427,0,0,0,.089-1.359m17.065,0a.679.679,0,0,0-.6-.343.936.936,0,0,0-.826.584.937.937,0,0,0-.828-.584.676.676,0,0,0-.6.343,1.423,1.423,0,0,0,.088,1.357,4.56,4.56,0,0,0,1.272,1.3h.134a5.577,5.577,0,0,0,.509-.4,3.488,3.488,0,0,0,.763-.895,1.427,1.427,0,0,0,.089-1.359m-25.6-10.982a.679.679,0,0,0-.6-.343.936.936,0,0,0-.826.584.937.937,0,0,0-.828-.584.676.676,0,0,0-.6.343,1.42,1.42,0,0,0,.088,1.357,4.53,4.53,0,0,0,1.272,1.3h.134a5.469,5.469,0,0,0,.509-.4,3.493,3.493,0,0,0,.763-.9,1.427,1.427,0,0,0,.089-1.359m17.065,0a.679.679,0,0,0-.6-.343.936.936,0,0,0-.826.584.937.937,0,0,0-.828-.584.676.676,0,0,0-.6.343,1.423,1.423,0,0,0,.088,1.357,4.531,4.531,0,0,0,1.272,1.3h.134a5.469,5.469,0,0,0,.509-.4,3.492,3.492,0,0,0,.763-.9,1.427,1.427,0,0,0,.089-1.359M77.036,186.72a.679.679,0,0,0-.6-.343.936.936,0,0,0-.826.584.937.937,0,0,0-.828-.584.679.679,0,0,0-.6.343,1.423,1.423,0,0,0,.089,1.357,4.56,4.56,0,0,0,1.272,1.3h.134a5.469,5.469,0,0,0,.509-.4,3.512,3.512,0,0,0,.763-.9,1.427,1.427,0,0,0,.089-1.359m17.065,0a.679.679,0,0,0-.6-.343.936.936,0,0,0-.826.584.937.937,0,0,0-.828-.584.679.679,0,0,0-.6.343,1.423,1.423,0,0,0,.089,1.357,4.56,4.56,0,0,0,1.272,1.3h.134a5.468,5.468,0,0,0,.509-.4,3.493,3.493,0,0,0,.763-.9,1.427,1.427,0,0,0,.089-1.359m17.065,0a.679.679,0,0,0-.6-.343.936.936,0,0,0-.826.584.937.937,0,0,0-.828-.584.676.676,0,0,0-.6.343,1.42,1.42,0,0,0,.088,1.357,4.56,4.56,0,0,0,1.272,1.3h.134a5.468,5.468,0,0,0,.509-.4,3.493,3.493,0,0,0,.763-.9,1.427,1.427,0,0,0,.089-1.359m17.065,0a.679.679,0,0,0-.6-.343.936.936,0,0,0-.826.584.937.937,0,0,0-.828-.584.676.676,0,0,0-.6.343,1.423,1.423,0,0,0,.088,1.357,4.56,4.56,0,0,0,1.272,1.3h.134a5.466,5.466,0,0,0,.509-.4,3.493,3.493,0,0,0,.763-.9,1.427,1.427,0,0,0,.089-1.359m17.065,0a.679.679,0,0,0-.6-.343.936.936,0,0,0-.826.584.937.937,0,0,0-.828-.584.676.676,0,0,0-.6.343,1.423,1.423,0,0,0,.088,1.357,4.545,4.545,0,0,0,1.273,1.3h.133a5.56,5.56,0,0,0,.51-.4,3.533,3.533,0,0,0,.763-.9,1.427,1.427,0,0,0,.088-1.359M85.569,175.739a.678.678,0,0,0-.6-.344.935.935,0,0,0-.826.585.937.937,0,0,0-.828-.585.678.678,0,0,0-.6.344A1.423,1.423,0,0,0,82.8,177.1a4.536,4.536,0,0,0,1.272,1.3h.134a5.27,5.27,0,0,0,.509-.4,3.488,3.488,0,0,0,.763-.895,1.427,1.427,0,0,0,.089-1.359m17.065,0a.678.678,0,0,0-.6-.344.935.935,0,0,0-.826.585.937.937,0,0,0-.828-.585.675.675,0,0,0-.6.344,1.42,1.42,0,0,0,.088,1.357,4.536,4.536,0,0,0,1.272,1.3h.134a5.271,5.271,0,0,0,.509-.4,3.488,3.488,0,0,0,.763-.895,1.427,1.427,0,0,0,.089-1.359m17.065,0a.678.678,0,0,0-.6-.344.935.935,0,0,0-.826.585.937.937,0,0,0-.828-.585.675.675,0,0,0-.6.344,1.423,1.423,0,0,0,.088,1.357,4.536,4.536,0,0,0,1.272,1.3h.134a5.271,5.271,0,0,0,.509-.4,3.487,3.487,0,0,0,.763-.895,1.427,1.427,0,0,0,.089-1.359m17.065,0a.678.678,0,0,0-.6-.344.935.935,0,0,0-.826.585.937.937,0,0,0-.828-.585.675.675,0,0,0-.6.344A1.423,1.423,0,0,0,134,177.1a4.536,4.536,0,0,0,1.272,1.3h.134a5.352,5.352,0,0,0,.51-.4,3.528,3.528,0,0,0,.763-.895,1.429,1.429,0,0,0,.088-1.359M59.967,208.6a.668.668,0,0,0-.593-.343.934.934,0,0,0-.832.583c-.021-.031-.031-.073-.052-.1-.25.645-.488,1.28-.717,1.925v.01a5.536,5.536,0,0,0,.707.583h.135c.01-.011.239-.167.51-.4a4,4,0,0,0,.759-.895,1.432,1.432,0,0,0,.083-1.363m17.07,0a.678.678,0,0,0-.6-.344.936.936,0,0,0-.826.584.937.937,0,0,0-.828-.584.678.678,0,0,0-.6.344,1.421,1.421,0,0,0,.089,1.356,4.53,4.53,0,0,0,1.272,1.3h.134a5.271,5.271,0,0,0,.509-.4,3.5,3.5,0,0,0,.763-.9,1.425,1.425,0,0,0,.089-1.358m17.065,0a.678.678,0,0,0-.6-.344.936.936,0,0,0-.826.584.937.937,0,0,0-.828-.584.678.678,0,0,0-.6.344,1.421,1.421,0,0,0,.089,1.356,4.53,4.53,0,0,0,1.272,1.3h.134a5.27,5.27,0,0,0,.509-.4,3.476,3.476,0,0,0,.763-.9A1.425,1.425,0,0,0,94.1,208.6m17.065,0a.678.678,0,0,0-.6-.344.936.936,0,0,0-.826.584.937.937,0,0,0-.828-.584.675.675,0,0,0-.6.344,1.418,1.418,0,0,0,.088,1.356,4.53,4.53,0,0,0,1.272,1.3h.134a5.27,5.27,0,0,0,.509-.4,3.476,3.476,0,0,0,.763-.9,1.425,1.425,0,0,0,.089-1.358m17.065,0a.678.678,0,0,0-.6-.344.936.936,0,0,0-.826.584.937.937,0,0,0-.828-.584.675.675,0,0,0-.6.344,1.421,1.421,0,0,0,.088,1.356,4.53,4.53,0,0,0,1.272,1.3h.134a5.269,5.269,0,0,0,.509-.4,3.476,3.476,0,0,0,.763-.9,1.425,1.425,0,0,0,.089-1.358m17.065,0a.678.678,0,0,0-.6-.344.936.936,0,0,0-.826.584.937.937,0,0,0-.828-.584.675.675,0,0,0-.6.344,1.421,1.421,0,0,0,.088,1.356,4.515,4.515,0,0,0,1.273,1.3h.133a5.356,5.356,0,0,0,.51-.4,3.516,3.516,0,0,0,.763-.9,1.425,1.425,0,0,0,.088-1.358M68.5,197.62a.679.679,0,0,0-.6-.343.936.936,0,0,0-.826.584.937.937,0,0,0-.828-.584.679.679,0,0,0-.6.343,1.423,1.423,0,0,0,.089,1.357,4.56,4.56,0,0,0,1.272,1.3h.134a5.468,5.468,0,0,0,.509-.4,3.512,3.512,0,0,0,.763-.9,1.427,1.427,0,0,0,.089-1.359m17.065,0a.679.679,0,0,0-.6-.343.936.936,0,0,0-.826.584.937.937,0,0,0-.828-.584.679.679,0,0,0-.6.343,1.423,1.423,0,0,0,.089,1.357,4.56,4.56,0,0,0,1.272,1.3h.134a5.468,5.468,0,0,0,.509-.4,3.492,3.492,0,0,0,.763-.9,1.427,1.427,0,0,0,.089-1.359m17.065,0a.679.679,0,0,0-.6-.343.936.936,0,0,0-.826.584.937.937,0,0,0-.828-.584.676.676,0,0,0-.6.343,1.42,1.42,0,0,0,.088,1.357,4.56,4.56,0,0,0,1.272,1.3h.134a5.469,5.469,0,0,0,.509-.4,3.492,3.492,0,0,0,.763-.9,1.427,1.427,0,0,0,.089-1.359m17.065,0a.679.679,0,0,0-.6-.343.936.936,0,0,0-.826.584.937.937,0,0,0-.828-.584.676.676,0,0,0-.6.343,1.423,1.423,0,0,0,.088,1.357,4.56,4.56,0,0,0,1.272,1.3h.134a5.469,5.469,0,0,0,.509-.4,3.492,3.492,0,0,0,.763-.9,1.427,1.427,0,0,0,.089-1.359m17.065,0a.679.679,0,0,0-.6-.343.936.936,0,0,0-.826.584.937.937,0,0,0-.828-.584.676.676,0,0,0-.6.343,1.423,1.423,0,0,0,.088,1.357,4.56,4.56,0,0,0,1.272,1.3h.134a5.556,5.556,0,0,0,.51-.4,3.532,3.532,0,0,0,.763-.9,1.429,1.429,0,0,0,.088-1.359m16.666-.316a.6.6,0,0,0-.2-.031.951.951,0,0,0-.832.583.95.95,0,0,0-.832-.583.683.683,0,0,0-.593.343,1.432,1.432,0,0,0,.083,1.363,4.627,4.627,0,0,0,1.28,1.3h.135c.01-.02.239-.166.5-.405a3.4,3.4,0,0,0,.77-.895,1.858,1.858,0,0,0,.188-.521v-.01ZM59.972,230.483a.679.679,0,0,0-.6-.343.936.936,0,0,0-.826.584.939.939,0,0,0-.828-.584.679.679,0,0,0-.6.343,1.423,1.423,0,0,0,.089,1.357,4.56,4.56,0,0,0,1.272,1.3h.134a5.464,5.464,0,0,0,.509-.4,3.529,3.529,0,0,0,.763-.9,1.427,1.427,0,0,0,.089-1.359m17.065,0a.679.679,0,0,0-.6-.343.936.936,0,0,0-.826.584.937.937,0,0,0-.828-.584.679.679,0,0,0-.6.343,1.423,1.423,0,0,0,.089,1.357,4.56,4.56,0,0,0,1.272,1.3h.134a5.466,5.466,0,0,0,.509-.4,3.529,3.529,0,0,0,.763-.9,1.427,1.427,0,0,0,.089-1.359m17.065,0a.679.679,0,0,0-.6-.343.936.936,0,0,0-.826.584.937.937,0,0,0-.828-.584.679.679,0,0,0-.6.343,1.423,1.423,0,0,0,.089,1.357,4.56,4.56,0,0,0,1.272,1.3h.134a5.465,5.465,0,0,0,.509-.4,3.51,3.51,0,0,0,.763-.9,1.427,1.427,0,0,0,.089-1.359m17.065,0a.679.679,0,0,0-.6-.343.936.936,0,0,0-.826.584.937.937,0,0,0-.828-.584.676.676,0,0,0-.6.343,1.42,1.42,0,0,0,.088,1.357,4.56,4.56,0,0,0,1.272,1.3h.134a5.465,5.465,0,0,0,.509-.4,3.51,3.51,0,0,0,.763-.9,1.427,1.427,0,0,0,.089-1.359m17.065,0a.679.679,0,0,0-.6-.343.936.936,0,0,0-.826.584.937.937,0,0,0-.828-.584.676.676,0,0,0-.6.343,1.423,1.423,0,0,0,.088,1.357,4.56,4.56,0,0,0,1.272,1.3h.134a5.463,5.463,0,0,0,.509-.4,3.51,3.51,0,0,0,.763-.9,1.427,1.427,0,0,0,.089-1.359m17.065,0a.679.679,0,0,0-.6-.343.936.936,0,0,0-.826.584.937.937,0,0,0-.828-.584.676.676,0,0,0-.6.343,1.423,1.423,0,0,0,.088,1.357,4.545,4.545,0,0,0,1.273,1.3h.133a5.557,5.557,0,0,0,.51-.4,3.55,3.55,0,0,0,.763-.9,1.427,1.427,0,0,0,.088-1.359M68.5,219.5a.679.679,0,0,0-.6-.343.936.936,0,0,0-.826.584.937.937,0,0,0-.828-.584.679.679,0,0,0-.6.343,1.423,1.423,0,0,0,.089,1.357,4.53,4.53,0,0,0,1.272,1.3h.134a5.462,5.462,0,0,0,.509-.4,3.512,3.512,0,0,0,.763-.9A1.427,1.427,0,0,0,68.5,219.5m17.065,0a.679.679,0,0,0-.6-.343.936.936,0,0,0-.826.584.937.937,0,0,0-.828-.584.679.679,0,0,0-.6.343,1.423,1.423,0,0,0,.089,1.357,4.53,4.53,0,0,0,1.272,1.3h.134a5.462,5.462,0,0,0,.509-.4,3.493,3.493,0,0,0,.763-.9,1.427,1.427,0,0,0,.089-1.359m17.065,0a.679.679,0,0,0-.6-.343.936.936,0,0,0-.826.584.937.937,0,0,0-.828-.584.677.677,0,0,0-.6.343,1.42,1.42,0,0,0,.088,1.357,4.53,4.53,0,0,0,1.272,1.3h.134a5.463,5.463,0,0,0,.509-.4,3.493,3.493,0,0,0,.763-.9,1.427,1.427,0,0,0,.089-1.359m17.065,0a.679.679,0,0,0-.6-.343.936.936,0,0,0-.826.584.937.937,0,0,0-.828-.584.677.677,0,0,0-.6.343,1.423,1.423,0,0,0,.088,1.357,4.53,4.53,0,0,0,1.272,1.3h.134a5.463,5.463,0,0,0,.509-.4,3.492,3.492,0,0,0,.763-.9,1.427,1.427,0,0,0,.089-1.359m17.065,0a.679.679,0,0,0-.6-.343.936.936,0,0,0-.826.584.937.937,0,0,0-.828-.584.676.676,0,0,0-.6.343,1.423,1.423,0,0,0,.088,1.357,4.53,4.53,0,0,0,1.272,1.3h.134a5.549,5.549,0,0,0,.51-.4,3.532,3.532,0,0,0,.763-.9,1.429,1.429,0,0,0,.088-1.359m16.468-.342a.934.934,0,0,0-.832.583.932.932,0,0,0-.832-.583.68.68,0,0,0-.593.343,1.411,1.411,0,0,0,.083,1.352,4.452,4.452,0,0,0,1.28,1.3h.135c.447-.821.9-1.716,1.342-2.662a.664.664,0,0,0-.583-.333m-93.259,33.2a.679.679,0,0,0-.6-.343.936.936,0,0,0-.826.584.939.939,0,0,0-.828-.584.679.679,0,0,0-.6.343,1.423,1.423,0,0,0,.089,1.357,4.53,4.53,0,0,0,1.272,1.3h.134a5.461,5.461,0,0,0,.509-.4,3.512,3.512,0,0,0,.763-.9,1.427,1.427,0,0,0,.089-1.359m17.065,0a.679.679,0,0,0-.6-.343.936.936,0,0,0-.826.584.937.937,0,0,0-.828-.584.679.679,0,0,0-.6.343,1.423,1.423,0,0,0,.089,1.357,4.53,4.53,0,0,0,1.272,1.3h.134a5.462,5.462,0,0,0,.509-.4,3.512,3.512,0,0,0,.763-.9,1.427,1.427,0,0,0,.089-1.359m17.065,0a.679.679,0,0,0-.6-.343.936.936,0,0,0-.826.584.937.937,0,0,0-.828-.584.679.679,0,0,0-.6.343,1.423,1.423,0,0,0,.089,1.357,4.53,4.53,0,0,0,1.272,1.3h.134a5.462,5.462,0,0,0,.509-.4,3.492,3.492,0,0,0,.763-.9,1.427,1.427,0,0,0,.089-1.359m17.065,0a.679.679,0,0,0-.6-.343.936.936,0,0,0-.826.584.937.937,0,0,0-.828-.584.676.676,0,0,0-.6.343,1.42,1.42,0,0,0,.088,1.357,4.53,4.53,0,0,0,1.272,1.3h.134a5.462,5.462,0,0,0,.509-.4,3.492,3.492,0,0,0,.763-.9,1.427,1.427,0,0,0,.089-1.359m17.065,0a.679.679,0,0,0-.6-.343.936.936,0,0,0-.826.584.937.937,0,0,0-.828-.584.676.676,0,0,0-.6.343,1.423,1.423,0,0,0,.088,1.357,4.53,4.53,0,0,0,1.272,1.3h.134a5.46,5.46,0,0,0,.509-.4,3.492,3.492,0,0,0,.763-.9,1.427,1.427,0,0,0,.089-1.359m17.065,0a.679.679,0,0,0-.6-.343.936.936,0,0,0-.826.584.937.937,0,0,0-.828-.584.676.676,0,0,0-.6.343,1.423,1.423,0,0,0,.088,1.357,4.515,4.515,0,0,0,1.273,1.3h.133a5.554,5.554,0,0,0,.51-.4,3.532,3.532,0,0,0,.763-.9,1.427,1.427,0,0,0,.088-1.359M51.439,241.383a.677.677,0,0,0-.6-.343.936.936,0,0,0-.826.584.939.939,0,0,0-.828-.584.676.676,0,0,0-.6.343,1.423,1.423,0,0,0,.089,1.357,4.56,4.56,0,0,0,1.272,1.3h.134a5.578,5.578,0,0,0,.509-.4,3.5,3.5,0,0,0,.763-.9,1.425,1.425,0,0,0,.089-1.358m17.065,0a.677.677,0,0,0-.6-.343.936.936,0,0,0-.826.584.937.937,0,0,0-.828-.584.677.677,0,0,0-.6.343,1.423,1.423,0,0,0,.089,1.357,4.56,4.56,0,0,0,1.272,1.3h.134a5.579,5.579,0,0,0,.509-.4,3.5,3.5,0,0,0,.763-.9,1.425,1.425,0,0,0,.089-1.358m17.065,0a.677.677,0,0,0-.6-.343.936.936,0,0,0-.826.584.937.937,0,0,0-.828-.584.677.677,0,0,0-.6.343,1.423,1.423,0,0,0,.089,1.357,4.56,4.56,0,0,0,1.272,1.3h.134a5.579,5.579,0,0,0,.509-.4,3.476,3.476,0,0,0,.763-.9,1.425,1.425,0,0,0,.089-1.358m17.065,0a.677.677,0,0,0-.6-.343.936.936,0,0,0-.826.584.937.937,0,0,0-.828-.584.675.675,0,0,0-.6.343,1.42,1.42,0,0,0,.088,1.357,4.56,4.56,0,0,0,1.272,1.3h.134a5.58,5.58,0,0,0,.509-.4,3.476,3.476,0,0,0,.763-.9,1.425,1.425,0,0,0,.089-1.358m17.065,0a.677.677,0,0,0-.6-.343.936.936,0,0,0-.826.584.937.937,0,0,0-.828-.584.675.675,0,0,0-.6.343,1.423,1.423,0,0,0,.088,1.357,4.56,4.56,0,0,0,1.272,1.3h.134a5.58,5.58,0,0,0,.509-.4,3.476,3.476,0,0,0,.763-.9,1.425,1.425,0,0,0,.089-1.358m17.065,0a.677.677,0,0,0-.6-.343.936.936,0,0,0-.826.584.937.937,0,0,0-.828-.584.674.674,0,0,0-.6.343A1.423,1.423,0,0,0,134,242.74a4.56,4.56,0,0,0,1.272,1.3h.134a5.67,5.67,0,0,0,.51-.4,3.515,3.515,0,0,0,.763-.9,1.427,1.427,0,0,0,.088-1.358m14.158.129a1.463,1.463,0,0,0,.135,1.228.88.88,0,0,0,.1.167ZM42.908,274.248a.686.686,0,0,0-.6-.343.918.918,0,0,0-.821.582,1.232,1.232,0,0,0-.219-.312c-.156.895-.271,1.675-.374,2.32a4.519,4.519,0,0,0,.52.405h.135a5.988,5.988,0,0,0,.51-.4,3.364,3.364,0,0,0,.759-.9,1.415,1.415,0,0,0,.094-1.352m17.064,0a.678.678,0,0,0-.6-.344.935.935,0,0,0-.826.585.938.938,0,0,0-.828-.585.678.678,0,0,0-.6.344A1.421,1.421,0,0,0,57.2,275.6a4.531,4.531,0,0,0,1.272,1.3h.134a5.271,5.271,0,0,0,.509-.4,3.507,3.507,0,0,0,.763-.895,1.427,1.427,0,0,0,.089-1.359m17.065,0a.678.678,0,0,0-.6-.344.935.935,0,0,0-.826.585.937.937,0,0,0-.828-.585.678.678,0,0,0-.6.344,1.421,1.421,0,0,0,.089,1.356,4.53,4.53,0,0,0,1.272,1.3h.134a5.272,5.272,0,0,0,.509-.4,3.507,3.507,0,0,0,.763-.895,1.427,1.427,0,0,0,.089-1.359m17.065,0a.678.678,0,0,0-.6-.344.935.935,0,0,0-.826.585.937.937,0,0,0-.828-.585.678.678,0,0,0-.6.344,1.421,1.421,0,0,0,.089,1.356,4.531,4.531,0,0,0,1.272,1.3h.134a5.272,5.272,0,0,0,.509-.4,3.488,3.488,0,0,0,.763-.895,1.427,1.427,0,0,0,.089-1.359m17.065,0a.678.678,0,0,0-.6-.344.935.935,0,0,0-.826.585.937.937,0,0,0-.828-.585.675.675,0,0,0-.6.344,1.418,1.418,0,0,0,.088,1.356,4.53,4.53,0,0,0,1.272,1.3h.134a5.272,5.272,0,0,0,.509-.4,3.488,3.488,0,0,0,.763-.895,1.427,1.427,0,0,0,.089-1.359m17.065,0a.678.678,0,0,0-.6-.344.935.935,0,0,0-.826.585.937.937,0,0,0-.828-.585.675.675,0,0,0-.6.344,1.421,1.421,0,0,0,.088,1.356,4.53,4.53,0,0,0,1.272,1.3h.134a5.27,5.27,0,0,0,.509-.4,3.488,3.488,0,0,0,.763-.895,1.427,1.427,0,0,0,.089-1.359m17.065,0a.678.678,0,0,0-.6-.344.935.935,0,0,0-.826.585.937.937,0,0,0-.828-.585.675.675,0,0,0-.6.344,1.421,1.421,0,0,0,.088,1.356,4.515,4.515,0,0,0,1.273,1.3h.133a5.358,5.358,0,0,0,.51-.4,3.528,3.528,0,0,0,.763-.895,1.427,1.427,0,0,0,.088-1.359M51.439,263.264a.679.679,0,0,0-.6-.343.936.936,0,0,0-.826.584.939.939,0,0,0-.828-.584.678.678,0,0,0-.6.343,1.423,1.423,0,0,0,.089,1.357,4.56,4.56,0,0,0,1.272,1.3h.134a5.459,5.459,0,0,0,.509-.4,3.512,3.512,0,0,0,.763-.9,1.427,1.427,0,0,0,.089-1.359m17.065,0a.679.679,0,0,0-.6-.343.936.936,0,0,0-.826.584.937.937,0,0,0-.828-.584.679.679,0,0,0-.6.343,1.423,1.423,0,0,0,.089,1.357,4.56,4.56,0,0,0,1.272,1.3h.134a5.46,5.46,0,0,0,.509-.4,3.512,3.512,0,0,0,.763-.9,1.427,1.427,0,0,0,.089-1.359m17.065,0a.679.679,0,0,0-.6-.343.936.936,0,0,0-.826.584.937.937,0,0,0-.828-.584.679.679,0,0,0-.6.343,1.423,1.423,0,0,0,.089,1.357,4.56,4.56,0,0,0,1.272,1.3h.134a5.46,5.46,0,0,0,.509-.4,3.493,3.493,0,0,0,.763-.9,1.427,1.427,0,0,0,.089-1.359m17.065,0a.679.679,0,0,0-.6-.343.936.936,0,0,0-.826.584.937.937,0,0,0-.828-.584.676.676,0,0,0-.6.343,1.42,1.42,0,0,0,.088,1.357,4.56,4.56,0,0,0,1.272,1.3h.134a5.461,5.461,0,0,0,.509-.4,3.493,3.493,0,0,0,.763-.9,1.427,1.427,0,0,0,.089-1.359m17.065,0a.679.679,0,0,0-.6-.343.936.936,0,0,0-.826.584.937.937,0,0,0-.828-.584.676.676,0,0,0-.6.343,1.423,1.423,0,0,0,.088,1.357,4.56,4.56,0,0,0,1.272,1.3h.134a5.461,5.461,0,0,0,.509-.4,3.492,3.492,0,0,0,.763-.9,1.427,1.427,0,0,0,.089-1.359m17.065,0a.679.679,0,0,0-.6-.343.936.936,0,0,0-.826.584.937.937,0,0,0-.828-.584.676.676,0,0,0-.6.343,1.423,1.423,0,0,0,.088,1.357,4.56,4.56,0,0,0,1.272,1.3h.134a5.548,5.548,0,0,0,.51-.4,3.532,3.532,0,0,0,.763-.9,1.429,1.429,0,0,0,.088-1.359m17.065,0a.679.679,0,0,0-.6-.343.936.936,0,0,0-.826.584.937.937,0,0,0-.828-.584.676.676,0,0,0-.6.343,1.423,1.423,0,0,0,.088,1.357,4.545,4.545,0,0,0,1.273,1.3h.133a5.546,5.546,0,0,0,.51-.4,3.533,3.533,0,0,0,.763-.9,1.427,1.427,0,0,0,.088-1.359" transform="translate(0.122 0.458)" fill="#fff"/>
        <path id="Trazado_165990" data-name="Trazado 165990" d="M157.238,204.614c-1.08-4.494-3.573-8.6-5.768-12.614-2.318-4.241-4.751-8.413-7.249-12.55-.088-.147-.179-.294-.267-.441-.416-1.325-1.012-2.617-1.514-3.895-.647-1.643-1.339-3.267-1.976-4.913-.022-.057-.112-.033-.093.028.522,1.714,1.04,3.426,1.666,5.106.16.431.32.872.484,1.314-.844-1.38-1.693-2.756-2.565-4.118-1.483-2.318-3.047-4.583-4.533-6.9a.053.053,0,0,0-.09.056c2.381,4.065,4.668,8.187,7.043,12.257s4.7,8.166,6.919,12.319q1.652,3.09,3.2,6.232a52.978,52.978,0,0,1,2.676,6.076,19.617,19.617,0,0,1,.085,12.48c-1.433,4.593-3.988,8.765-6.422,12.882-.1.167.157.365.279.2,5.1-6.707,10.241-14.718,8.125-23.525" transform="translate(0.404 0.494)" fill="#263238"/>
        <path id="Trazado_165991" data-name="Trazado 165991" d="M202.219,280.04c-7.509,10.367-27.509,12.033-77.469,20.954-6.914,1.235-28.751-45.211-21.436-46.908,9.213-2.138,45.433-8.441,48.139-8.567,22.831-1.066,55.86,27.489,50.766,34.522" transform="translate(0.304 0.732)" fill="#c95f50"/>
        <path id="Trazado_165992" data-name="Trazado 165992" d="M113.5,251.961s-21.15,2.835-31.8,7.764c-14.261,6.6-23.857,18.171-27.586,23.262-7.783,10.629-19.253,41.707-10.878,46.572,7.581,4.4,17.7-27.955,17.7-27.955s-15.762,31.29-5.659,34.916,19.713-34.609,19.713-34.609-15.474,32.514-4.464,34.6c8.321,1.58,18.975-32.558,18.975-32.558s-13.107,28.037-4.621,30.03c9.378,2.2,21.19-28.692,21.19-28.692,22.425,1.434,33.688-7.056,40.982-14.05,1.766-1.693-33.551-39.283-33.551-39.283" transform="translate(0.12 0.751)" fill="#c95f50"/>
        <path id="Trazado_165993" data-name="Trazado 165993" d="M65.655,290.318c-1.985,3.609-4.018,7.248-5.675,11.021S56.8,308.945,55.5,312.854c-3.183,9.591-3.678,16.093-3.6,15.695,1.757-9.421,7.479-23.018,9.137-26.792s3.118-7.614,4.769-11.381c.042-.1-.1-.144-.145-.058" transform="translate(0.155 0.866)" fill="#263238"/>
        <path id="Trazado_165994" data-name="Trazado 165994" d="M79.341,296.036c-2.335,4.717-4.825,9.315-6.953,14.137-2.116,4.8-3.7,9.536-5.484,14.468-.137.38.111.329.265-.047,1.976-4.856,4.177-9.194,6.21-14.027,2.026-4.815,3.88-9.747,6.078-14.484.035-.074-.08-.118-.116-.047" transform="translate(0.199 0.883)" fill="#263238"/>
        <path id="Trazado_165995" data-name="Trazado 165995" d="M91.964,298.831c-3.937,7.027-6.573,14.772-8.977,22.43-.119.382.195.28.34-.1,2.843-7.512,5.021-13.426,8.881-22.191.06-.136-.161-.285-.245-.136" transform="translate(0.247 0.891)" fill="#263238"/>
        <path id="Trazado_165996" data-name="Trazado 165996" d="M173.352,251.117c-3.324-2.1-12.727-7.044-21.978-5.675a.081.081,0,0,0,0,.162c7.623-.036,18.512,3.874,21.9,5.648a.077.077,0,0,0,.074-.135" transform="translate(0.451 0.731)" fill="#263238"/>
        <path id="Trazado_165997" data-name="Trazado 165997" d="M104.267,149.481c.506,1.922,10.081,14.222,18.91,13.564,2.875-.22,2.379-15.964,2.379-15.964l.23-1.17,3.194-16.39-19.472-11.752L106.7,116.22s-.579,4.542-1.242,10.2c-.033.262-.065.525-.1.806-.046.319-.093.62-.122.92-.11.845-.219,1.708-.309,2.57-.071.655-.144,1.293-.195,1.984-.067.692-.119,1.365-.187,2.057a107.505,107.505,0,0,0-.283,14.72" transform="translate(0.311 0.347)" fill="#c95f50"/>
        <path id="Trazado_165998" data-name="Trazado 165998" d="M105.454,126.424a33.493,33.493,0,0,0,20.328,19.486l3.2-16.39-19.472-11.752-2.81-1.549s-.579,4.543-1.242,10.2" transform="translate(0.314 0.347)" fill="#263238"/>
        <path id="Trazado_165999" data-name="Trazado 165999" d="M153.229,101.723c4.725,28.922-12.065,35.018-18.3,36.03-5.663.919-25.061,3.327-32.748-24.952s4.266-39.62,17.106-42.405,29.22,2.4,33.945,31.327" transform="translate(0.298 0.208)" fill="#c95f50"/>
        <path id="Trazado_166000" data-name="Trazado 166000" d="M146.234,95.8a19.035,19.035,0,0,1-2.014-.2,3.279,3.279,0,0,1-2.017-.592,1.044,1.044,0,0,1-.139-1.266,2.588,2.588,0,0,1,2.466-.883,3.8,3.8,0,0,1,2.517,1.071,1.112,1.112,0,0,1-.813,1.865" transform="translate(0.423 0.277)" fill="#263238"/>
        <path id="Trazado_166001" data-name="Trazado 166001" d="M127.544,98.023a18.894,18.894,0,0,0,1.922-.635,3.267,3.267,0,0,0,1.837-1.02,1.044,1.044,0,0,0-.142-1.265,2.586,2.586,0,0,0-2.6-.319,3.8,3.8,0,0,0-2.221,1.6,1.112,1.112,0,0,0,1.2,1.64" transform="translate(0.376 0.282)" fill="#263238"/>
        <path id="Trazado_166002" data-name="Trazado 166002" d="M132.228,104.909c-.025-.073-.142.114-.128.2.33,1.969.376,4.279-1.324,5.177-.053.028-.034.126.031.108,2.141-.6,2.049-3.669,1.421-5.481" transform="translate(0.39 0.313)" fill="#263238"/>
        <path id="Trazado_166003" data-name="Trazado 166003" d="M130.191,103.088c-3.214.188-2.6,6.6.376,6.426,2.93-.172,2.317-6.584-.376-6.426" transform="translate(0.382 0.307)" fill="#263238"/>
        <path id="Trazado_166004" data-name="Trazado 166004" d="M128.973,103.546c-.526.416-1.013,1.109-1.681,1.24-.774.152-1.428-.462-2-1.059-.059-.062-.109,0-.1.084.1,1.231.692,2.445,2.026,2.5,1.218.053,1.977-1.117,2.165-2.382.035-.234-.2-.553-.407-.385" transform="translate(0.373 0.309)" fill="#263238"/>
        <path id="Trazado_166005" data-name="Trazado 166005" d="M143.562,102.969c.009-.077.163.08.168.162.111,1.993.575,4.257,2.43,4.759.057.016.061.116-.007.112-2.222-.116-2.805-3.128-2.592-5.034" transform="translate(0.428 0.307)" fill="#263238"/>
        <path id="Trazado_166006" data-name="Trazado 166006" d="M145.155,100.744c3.175-.524,3.989,5.867,1.046,6.352-2.895.476-3.708-5.914-1.046-6.352" transform="translate(0.428 0.3)" fill="#263238"/>
        <path id="Trazado_166007" data-name="Trazado 166007" d="M146.533,101c.548.275,1.125.826,1.734.789.705-.043,1.133-.8,1.5-1.52.037-.074.094-.027.107.057.189,1.217-.053,2.541-1.2,2.924-1.043.35-1.962-.6-2.408-1.777-.083-.219.046-.584.267-.473" transform="translate(0.436 0.299)" fill="#263238"/>
        <path id="Trazado_166008" data-name="Trazado 166008" d="M132.807,120.585c.5.442,1.009,1.061,1.735,1.086a5.29,5.29,0,0,0,2.117-.608.069.069,0,0,1,.091.1,2.688,2.688,0,0,1-2.475,1.209,2.124,2.124,0,0,1-1.656-1.684c-.036-.114.114-.164.188-.1" transform="translate(0.396 0.36)" fill="#263238"/>
        <path id="Trazado_166009" data-name="Trazado 166009" d="M141.2,112.183s.731,2.933.883,4.338a7.6,7.6,0,0,1-7.6-1.479c-.125-.113.051-.291.189-.217a10.116,10.116,0,0,0,6.284,1.09c.057-.4-1.421-4.981-1.2-5.022a12.357,12.357,0,0,1,3.267.379c-1.347-6.153-3.669-12.041-4.919-18.188a.193.193,0,0,1,.357-.13c2.871,6,4.576,13.046,6.13,19.366.2.785-2.8.042-3.391-.136" transform="translate(0.401 0.277)" fill="#263238"/>
        <path id="Trazado_166010" data-name="Trazado 166010" d="M140.147,116.512a7.3,7.3,0,0,1-2.709,2.514,3.288,3.288,0,0,1-1.975.3c-1.47-.25-1.623-1.566-1.46-2.717a7.862,7.862,0,0,1,.49-1.784,9.445,9.445,0,0,0,5.654,1.686" transform="translate(0.399 0.342)" fill="#263238"/>
        <path id="Trazado_166011" data-name="Trazado 166011" d="M137.438,119.021a3.282,3.282,0,0,1-1.975.3c-1.47-.25-1.623-1.565-1.46-2.716,1.554.021,3.171.93,3.435,2.415" transform="translate(0.399 0.348)" fill="#ff9abb"/>
        <path id="Trazado_166012" data-name="Trazado 166012" d="M103.05,111.358c5.536.486,6.47-12.19,6.47-12.19S132.848,94.3,134.113,75.1c0,0,4.486,12.033,16.994,17.081,0,0-1.617-20.928-18.388-24.367,0,0-20.906-6.722-31.876,10.08s-1.509,33.136,2.207,33.463" transform="translate(0.285 0.198)" fill="#263238"/>
        <path id="Trazado_166013" data-name="Trazado 166013" d="M134.086,73.664a20.8,20.8,0,0,1-.716,8.767,21.67,21.67,0,0,1-4.138,7.888,18.464,18.464,0,0,1-1.525,1.646l-.784.8c-.283.244-.577.474-.871.705-.593.453-1.167.933-1.774,1.362-.634.39-1.277.765-1.922,1.132-.323.182-.638.378-.967.547l-1.02.439-2.033.871c-1.4.448-2.827.824-4.241,1.176,1.326-.64,2.691-1.134,3.986-1.776l1.908-1.02.951-.507c.3-.19.593-.406.889-.607.587-.411,1.175-.815,1.773-1.2.563-.436,1.088-.919,1.634-1.373l.813-.687.732-.772a17.879,17.879,0,0,0,1.421-1.576,24.856,24.856,0,0,0,4.2-7.364,25.888,25.888,0,0,0,1.159-4.137,25.115,25.115,0,0,0,.525-4.313" transform="translate(0.34 0.22)" fill="#263238"/>
        <path id="Trazado_166014" data-name="Trazado 166014" d="M107.152,113.181s-7.066-8.64-11.034-6.053,1.827,15.447,6.823,16.888a4.955,4.955,0,0,0,6.421-3.155Z" transform="translate(0.283 0.318)" fill="#c95f50"/>
        <path id="Trazado_166015" data-name="Trazado 166015" d="M97.862,110.761a.067.067,0,0,0-.017.131c3.511,1.123,5.543,4.147,7.047,7.328-1.107-1.185-2.539-1.77-4.138-.437-.083.07.012.2.107.175a3.049,3.049,0,0,1,3.425.808,14.672,14.672,0,0,1,1.806,2.586c.182.292.719.087.578-.255-.011-.025-.024-.051-.034-.076-.243-4.351-4.077-10.174-8.774-10.26" transform="translate(0.292 0.33)" fill="#263238"/>
        <path id="Trazado_166016" data-name="Trazado 166016" d="M105.66,122.46a1.189,1.189,0,1,1-1.19-1.19,1.19,1.19,0,0,1,1.19,1.19" transform="translate(0.308 0.362)" fill="#fff"/>
        <path id="Trazado_166017" data-name="Trazado 166017" d="M102.741,120.519a.858.858,0,1,1-.858-.858.858.858,0,0,1,.858.858" transform="translate(0.301 0.357)" fill="#fff"/>
        <path id="Trazado_166018" data-name="Trazado 166018" d="M96.066,110.453l-1.807-.155a.6.6,0,0,1-.551-.654l0-.045a.6.6,0,0,1,.654-.55l1.807.154a.606.606,0,0,1,.551.655l0,.044a.6.6,0,0,1-.654.551" transform="translate(0.279 0.325)" fill="#fdd835"/>
        <path id="Trazado_166019" data-name="Trazado 166019" d="M96.132,112.271l-1.8.231a.6.6,0,0,1-.676-.522l-.006-.045a.606.606,0,0,1,.523-.677l1.8-.231a.6.6,0,0,1,.676.523l.006.044a.6.6,0,0,1-.523.677" transform="translate(0.279 0.331)" fill="#fdd835"/>
        <path id="Trazado_166020" data-name="Trazado 166020" d="M95.35,93.366l-1.663,2.655,8.515,7.7,3.614-5.99Zm6.513,7.4-5.953-4.782.372-.627,6.891,3.318Z" transform="translate(0.279 0.278)" fill="#fdd835"/>
        <path id="Trazado_166021" data-name="Trazado 166021" d="M96.24,88.478,95.7,91.564l10.788,3.921,1.09-6.911Zm8.82,4.4-7.316-2.188.108-.721,7.634.477Z" transform="translate(0.285 0.264)" fill="#26ccda"/>
        <path id="Trazado_166022" data-name="Trazado 166022" d="M106.767,71.312C109,70.478,111.122,58,102.919,52.056c-8.08-5.854-18.712.847-14.3,11.072,2.785,6.461,13.426,9.946,18.152,8.183" transform="translate(0.261 0.149)" fill="#263238"/>
        <path id="Trazado_166023" data-name="Trazado 166023" d="M91.459,51.315a13.966,13.966,0,0,0-4.731,7.912,8.42,8.42,0,0,0,2.488,8.04,17.01,17.01,0,0,0,8.151,3.987,25.967,25.967,0,0,0,4.682.575,12.888,12.888,0,0,0,4.725-.521,11.337,11.337,0,0,1-4.691,1.392,21.07,21.07,0,0,1-4.956-.078,16.41,16.41,0,0,1-9.139-4.069,9.375,9.375,0,0,1-2.607-9.644,12.323,12.323,0,0,1,6.077-7.594" transform="translate(0.253 0.153)" fill="#263238"/>
        <path id="Trazado_166024" data-name="Trazado 166024" d="M180.575,185.312l13.96-1.884L189.079,143l-17.666,2.384Z" transform="translate(0.511 0.426)" fill="#ffc727"/>
        <path id="Trazado_166025" data-name="Trazado 166025" d="M171.416,145.386l3.489,15.231,5.673,24.7,13.961-1.884L189.083,143Z" transform="translate(0.511 0.426)" fill="#ffc727"/>
        <g id="Grupo_56778" data-name="Grupo 56778" transform="translate(171.927 143.428)" opacity="0.1">
          <g id="Grupo_56777" data-name="Grupo 56777">
            <g id="Grupo_56776" data-name="Grupo 56776" clip-path="url(#clip-path-5)">
              <path id="Trazado_166026" data-name="Trazado 166026" d="M171.416,145.386l3.489,15.231,16.258-2.195L189.083,143Z" transform="translate(-171.416 -143.002)" fill="#106f77"/>
            </g>
          </g>
        </g>
        <path id="Trazado_166051" data-name="Trazado 166051" d="M0,0H22.179V16.848H0Z" transform="translate(168.833 135.306) rotate(-7.685)" fill="#26ccda"/>
        <path id="Trazado_166027" data-name="Trazado 166027" d="M152.848,130.884l17.3-.6-.67-4.962-2.976-22.057-16.843,4.01Z" transform="translate(0.446 0.308)" fill="#b1f9ff"/>
        <path id="Trazado_166028" data-name="Trazado 166028" d="M174.491,96.874l5.381,39.872,29.111-.434L278.9,151.827,265.976,56.074l-63.3,33.5Z" transform="translate(0.52 0.167)" fill="#b1f9ff"/>
        <path id="Trazado_166029" data-name="Trazado 166029" d="M258.276,105.832c3.586,26.573,13.417,47.18,21.958,46.028s12.558-23.629,8.973-50.2-13.417-47.18-21.958-46.027-12.558,23.628-8.973,50.2" transform="translate(0.766 0.166)" fill="#26ccda"/>
        <g id="Grupo_56781" data-name="Grupo 56781" transform="translate(261.282 60.227)" opacity="0.2">
          <g id="Grupo_56780" data-name="Grupo 56780">
            <g id="Grupo_56779" data-name="Grupo 56779" clip-path="url(#clip-path-6)">
              <path id="Trazado_166030" data-name="Trazado 166030" d="M261.759,104.505c3.183,23.59,11.433,41.949,18.427,41s10.081-20.832,6.9-44.422-11.433-41.949-18.426-41-10.082,20.832-6.9,44.422" transform="translate(-260.505 -60.048)" fill="#106f77"/>
            </g>
          </g>
        </g>
        <path id="Trazado_166031" data-name="Trazado 166031" d="M263.815,104.138c.424,3.141.94,6.187,1.534,9.106a9.638,9.638,0,0,0,14.573-9.522l-.609-4.516a9.632,9.632,0,0,0-16.511-5.38c.2,3.32.536,6.778,1.013,10.313" transform="translate(0.784 0.271)" fill="#f57c00"/>
        <path id="Trazado_166032" data-name="Trazado 166032" d="M164.763,140.946l33.462-1.156L191.175,87.54,158.6,95.3Z" transform="translate(0.473 0.261)" fill="#f57c00"/>
        <g id="Grupo_56787" data-name="Grupo 56787" transform="translate(257.715 63.406)" opacity="0.2">
          <g id="Grupo_56786" data-name="Grupo 56786">
            <g id="Grupo_56785" data-name="Grupo 56785" clip-path="url(#clip-path-7)">
              <path id="Trazado_166034" data-name="Trazado 166034" d="M262.132,63.217A30.153,30.153,0,0,0,258.35,73.4a68.836,68.836,0,0,0-1.3,10.846c-.125,1.82-.082,3.643-.105,5.465.076,1.818.1,3.642.222,5.458.151,1.814.237,3.635.442,5.443s.385,3.621.634,5.423a119.529,119.529,0,0,0,4.807,21.287,62.238,62.238,0,0,0,4.339,10.029c1.824,3.131,3.925,6.246,6.906,8.368a26.705,26.705,0,0,1-6.455-8.611,62.087,62.087,0,0,1-4.028-10.037,126.876,126.876,0,0,1-4.538-21.18,130.025,130.025,0,0,1-1.425-21.617,68.965,68.965,0,0,1,1-10.779,31.4,31.4,0,0,1,3.283-10.28" transform="translate(-256.949 -63.217)"/>
            </g>
          </g>
        </g>
        <path id="Trazado_166035" data-name="Trazado 166035" d="M297.1,56.381c-2.041,1.483-4,3.06-5.947,4.651s-3.85,3.23-5.745,4.879c-1.878,1.669-3.754,3.339-5.572,5.076L277.111,73.6c-.881.9-1.787,1.772-2.645,2.7,1.029-.733,2.008-1.522,3.014-2.28l2.934-2.37c1.955-1.582,3.85-3.23,5.745-4.88,1.877-1.67,3.752-3.341,5.57-5.078s3.639-3.47,5.37-5.306" transform="translate(0.819 0.168)" fill="#263238"/>
        <path id="Trazado_166036" data-name="Trazado 166036" d="M280.107,129.069c2.72.826,5.466,1.531,8.216,2.217s5.514,1.309,8.281,1.919c2.772.585,5.545,1.166,8.336,1.662l4.187.739c1.405.206,2.8.449,4.214.622-1.358-.424-2.731-.777-4.1-1.167l-4.121-1.051c-2.747-.7-5.514-1.308-8.281-1.918-2.772-.582-5.546-1.164-8.337-1.659s-5.581-1-8.4-1.363" transform="translate(0.835 0.385)" fill="#263238"/>
        <path id="Trazado_166037" data-name="Trazado 166037" d="M332.645,121.335c-4.142-.5-8.292-.866-12.442-1.217s-8.307-.64-12.462-.915c-4.157-.248-8.315-.493-12.478-.651l-6.245-.232c-2.084-.036-4.165-.111-6.253-.112,2.07.26,4.145.445,6.217.67l6.225.549c4.149.364,8.306.64,12.461.913,4.157.247,8.315.492,12.478.649s8.326.32,12.5.346" transform="translate(0.843 0.353)" fill="#263238"/>
        <path id="Trazado_166038" data-name="Trazado 166038" d="M320.293,58.143c-3.649,2.14-7.228,4.384-10.8,6.645s-7.1,4.573-10.63,6.9c-3.512,2.347-7.023,4.7-10.484,7.118l-5.19,3.636c-1.707,1.247-3.436,2.461-5.124,3.737,1.831-1.061,3.621-2.182,5.433-3.272l5.366-3.371c3.576-2.251,7.1-4.574,10.63-6.9,3.51-2.348,7.021-4.7,10.482-7.118s6.927-4.84,10.316-7.372" transform="translate(0.829 0.173)" fill="#263238"/>
        <path id="Trazado_166039" data-name="Trazado 166039" d="M281.749,102.166c4.86-.469,9.7-1.063,14.542-1.676s9.666-1.32,14.5-1.975c4.819-.747,9.647-1.444,14.46-2.237l7.217-1.212c2.4-.444,4.805-.851,7.2-1.33-2.431.224-4.853.52-7.28.777l-7.263.9c-4.84.613-9.666,1.319-14.5,1.978-4.819.749-9.647,1.443-14.46,2.239s-9.625,1.6-14.417,2.539" transform="translate(0.84 0.28)" fill="#263238"/>
        <path id="Trazado_166040" data-name="Trazado 166040" d="M77.888,169.253C62.7,194.114,37,247.789,46.776,267.3c9.415,18.788,104.454-32.737,116.486-42.1,5.243-4.077-19.278-52.314-25.262-48.49-8,5.112-46.807,36.745-47.654,36.908-1.814.347,3.585-17.523,7.236-39.674,5.313-32.235-8.776-22.563-19.695-4.692" transform="translate(0.133 0.456)" fill="#c95f50"/>
        <path id="Trazado_166041" data-name="Trazado 166041" d="M201.265,157.009c3.564,4.193.53,9.017.53,9.017a11.738,11.738,0,0,1,6.321,4.874c2.4,4.2-3.125,9.8-3.125,9.8a14.473,14.473,0,0,1,5.846,6.2c1.895,4.248-2.876,10.7-2.876,10.7a12.694,12.694,0,0,1,1.706,8.694c-1.641,7.983-13.279,12.4-20.7,15.151-11.02,4.091-31,3.945-35.477,4.613l-18.584-47.267s29.52-22.126,38.681-24.222c7.716-1.766,23.676-2.27,27.676,2.437" transform="translate(0.402 0.457)" fill="#c95f50"/>
        <path id="Trazado_166042" data-name="Trazado 166042" d="M201.048,165.358c-8.656-.091-16.866,2.382-25.2,4.385a.148.148,0,0,0,.072.288c8.268-2.088,16.842-2.508,25.176-4.264a.209.209,0,0,0-.046-.409" transform="translate(0.524 0.493)" fill="#263238"/>
        <path id="Trazado_166043" data-name="Trazado 166043" d="M204.459,180.062a22.549,22.549,0,0,0-5.762,1.27q-3.01.885-5.988,1.87-5.964,1.968-11.825,4.232c-.173.067-.112.348.072.288,3.966-1.3,7.95-2.542,11.966-3.674q3.013-.85,6.042-1.652a26.814,26.814,0,0,0,5.633-1.776.3.3,0,0,0-.137-.557" transform="translate(0.539 0.537)" fill="#263238"/>
        <path id="Trazado_166044" data-name="Trazado 166044" d="M207.64,197.521c-1.7-.035-3.542.861-5.126,1.42q-2.7.952-5.408,1.877c-3.611,1.23-7.222,2.458-10.875,3.562-.182.055-.111.343.073.288,3.716-1.1,7.447-2.154,11.153-3.29q2.731-.835,5.451-1.7c1.543-.491,3.525-.93,4.8-1.976a.1.1,0,0,0-.069-.179" transform="translate(0.555 0.589)" fill="#263238"/>
        <path id="Trazado_166045" data-name="Trazado 166045" d="M114.462,251.549c-6.149,3-12.357,5.881-18.7,8.455q-9.442,3.829-19.176,6.929c-3.63,1.151-7.293,2.258-10.976,3.228-.1.027-.054.177.047.156A155.331,155.331,0,0,0,85.5,265.134q4.853-1.65,9.594-3.621c3.117-1.3,6.252-2.629,9.255-4.174,3.451-1.776,6.9-3.6,10.219-5.617.113-.069.009-.23-.106-.174" transform="translate(0.196 0.75)" fill="#263238"/>
        <path id="Trazado_166046" data-name="Trazado 166046" d="M181.906,223c-7.353,2.014-19.076,1.451-19.17,1.534-2.22,1.961-11.356,7.875-13.678,9.185-.093.052-.008.181.085.138,5.032-2.29,11.316-5.716,13.968-8.247,10.4.355,15.594-1.436,18.832-2.384.217-.063.179-.286-.037-.227" transform="translate(0.444 0.665)" fill="#263238"/>
        <path id="Trazado_166047" data-name="Trazado 166047" d="M46.282,209.724l46.707,1.607s6.694-33.9,6.357-52.134c-.191-10.218-6.147-9.777-12.8-3.369-23.269,22.427-40.267,53.9-40.267,53.9" transform="translate(0.138 0.451)" fill="#26ccda"/>
        <path id="Trazado_166048" data-name="Trazado 166048" d="M77.072,165.712a1.537,1.537,0,0,1-.177.458,3.536,3.536,0,0,1-.759.895,6.163,6.163,0,0,1-.511.4h-.083c.511-.583,1.009-1.165,1.53-1.748m16.981-.906a.679.679,0,0,0-.6-.343.936.936,0,0,0-.826.584.937.937,0,0,0-.828-.584.676.676,0,0,0-.6.343,1.423,1.423,0,0,0,.088,1.357,4.56,4.56,0,0,0,1.272,1.3h.134a5.67,5.67,0,0,0,.51-.4,3.5,3.5,0,0,0,.762-.895,1.424,1.424,0,0,0,.089-1.359M59.316,188.7a2.594,2.594,0,0,0,.52-.655,1.183,1.183,0,0,0,.1-.24c-.209.3-.416.6-.624.895m17.673-2.013a.679.679,0,0,0-.6-.343.936.936,0,0,0-.826.584.937.937,0,0,0-.828-.584.676.676,0,0,0-.6.343,1.423,1.423,0,0,0,.088,1.357,4.56,4.56,0,0,0,1.272,1.3h.134a5.469,5.469,0,0,0,.509-.4,3.493,3.493,0,0,0,.763-.9,1.427,1.427,0,0,0,.089-1.359m17.065,0a.679.679,0,0,0-.6-.343.936.936,0,0,0-.826.584.937.937,0,0,0-.828-.584.676.676,0,0,0-.6.343,1.423,1.423,0,0,0,.088,1.357,4.56,4.56,0,0,0,1.272,1.3h.134a5.556,5.556,0,0,0,.51-.4,3.509,3.509,0,0,0,.762-.9,1.424,1.424,0,0,0,.089-1.359m-27.217-8.409a.793.793,0,0,0,.124.083H67.1a5.067,5.067,0,0,0,.51-.406,3.345,3.345,0,0,0,.759-.895,1.677,1.677,0,0,0,.209-1.04c-.6.749-1.175,1.508-1.737,2.258m18.685-2.572a.678.678,0,0,0-.6-.344.936.936,0,0,0-.826.584.937.937,0,0,0-.828-.584.675.675,0,0,0-.6.344,1.418,1.418,0,0,0,.088,1.356,4.53,4.53,0,0,0,1.272,1.3h.134a5.27,5.27,0,0,0,.509-.4,3.476,3.476,0,0,0,.763-.9,1.425,1.425,0,0,0,.089-1.358m-25.6,32.862a.668.668,0,0,0-.593-.343.935.935,0,0,0-.832.583.918.918,0,0,0-.821-.583.686.686,0,0,0-.6.343,1.411,1.411,0,0,0,.083,1.352.931.931,0,0,0,.083.135l2.465.093a2.341,2.341,0,0,0,.135-.218,1.429,1.429,0,0,0,.083-1.363m17.07,0a.685.685,0,0,0-.6-.343.919.919,0,0,0-.821.583.945.945,0,0,0-.832-.583.7.7,0,0,0-.6.343,1.442,1.442,0,0,0,.093,1.352,3,3,0,0,0,.6.749l1.425.052a3.385,3.385,0,0,0,.645-.79,1.433,1.433,0,0,0,.093-1.363m16.466-.343a.932.932,0,0,0-.831.583.919.919,0,0,0-.822-.583.685.685,0,0,0-.6.343,1.385,1.385,0,0,0,.093,1.352,4.364,4.364,0,0,0,1.269,1.3H92.7c.011-.011.135-.094.323-.24.083-.457.27-1.4.51-2.746a.185.185,0,0,0-.073-.01m-25-10.638a.679.679,0,0,0-.6-.343.936.936,0,0,0-.826.584.937.937,0,0,0-.828-.584.676.676,0,0,0-.6.343,1.42,1.42,0,0,0,.088,1.357,4.56,4.56,0,0,0,1.272,1.3H67.1a5.468,5.468,0,0,0,.509-.4,3.492,3.492,0,0,0,.763-.9,1.427,1.427,0,0,0,.089-1.359m17.065,0a.679.679,0,0,0-.6-.343.936.936,0,0,0-.826.584.937.937,0,0,0-.828-.584.676.676,0,0,0-.6.343,1.42,1.42,0,0,0,.088,1.357,4.56,4.56,0,0,0,1.272,1.3h.134a5.468,5.468,0,0,0,.509-.4,3.492,3.492,0,0,0,.763-.9,1.427,1.427,0,0,0,.089-1.359" transform="translate(0.17 0.49)" fill="#fff"/>
        <path id="Trazado_166049" data-name="Trazado 166049" d="M91.594,203.77c-7.165-.843-26.666-2.565-39.486-2.028-.076,0-.1.3-.022.306,10.732,1.162,32.265,1.942,39.476,2.159.135,0,.166-.421.032-.437" transform="translate(0.155 0.601)" fill="#263238"/>
        <path id="Trazado_166050" data-name="Trazado 166050" d="M99.177,176.535c-.532,2.021-1.033,4.048-1.523,6.078.026-.247.06-.492.085-.739.29-2.839.566-5.677.773-8.523.005-.068-.11-.081-.12-.013-1.387,9.926-5.312,35.007-5.538,37.752-.222-.028-2.349.054-2.847.03-.106-.005-.1.151,0,.162.256.027,3.453.416,3.473.346,1.392-4.838,3.505-23.119,3.958-27.167.723-2.608,1.326-5.243,1.79-7.913a.028.028,0,0,0-.055-.014" transform="translate(0.268 0.517)" fill="#263238"/>
      </g>
    </g>
  </g>
</svg>
