<svg xmlns="http://www.w3.org/2000/svg" width="89.063" height="120" viewBox="0 0 89.063 120">
  <g id="Grupo_82677" data-name="Grupo 82677" transform="translate(-228.615 -3461.7)">
    <g id="red" transform="translate(162.615 3461.7)">
      <g id="Grupo_55806" data-name="Grupo 55806" transform="translate(68.344 2.599)">
        <path id="Trazado_102680" data-name="Trazado 102680" d="M213.5,213.5H176V176h37.5Z" transform="translate(-152.563 -137.349)" fill="#f57c00"/>
        <path id="Trazado_102681" data-name="Trazado 102681" d="M374.75,445.375v6.094H356v-6.094a9.375,9.375,0,0,1,18.75,0Z" transform="translate(-290.375 -336.412)" fill="#26ccda"/>
        <path id="Trazado_102682" data-name="Trazado 102682" d="M374.75,79.375v6.094H356V79.375a9.375,9.375,0,0,1,18.75,0Z" transform="translate(-290.375 -56.193)" fill="#fdd835"/>
        <circle id="Elipse_4141" data-name="Elipse 4141" cx="4.765" cy="4.765" r="4.765" transform="translate(70.436 0)" fill="#fce8d0"/>
        <circle id="Elipse_4142" data-name="Elipse 4142" cx="4.765" cy="4.765" r="4.765" transform="translate(70.436 85.776)" fill="#fce8d0"/>
        <path id="Trazado_102683" data-name="Trazado 102683" d="M234.75,445.375v6.094H216v-6.094a9.375,9.375,0,0,1,18.75,0Z" transform="translate(-183.188 -336.412)" fill="#ffa726"/>
        <path id="Trazado_102684" data-name="Trazado 102684" d="M234.75,79.375v6.094H216V79.375a9.375,9.375,0,0,1,18.75,0Z" transform="translate(-183.188 -56.193)" fill="#ffa726"/>
        <circle id="Elipse_4143" data-name="Elipse 4143" cx="4.765" cy="4.765" r="4.765" transform="translate(37.512 0)" fill="#fce8d0"/>
        <circle id="Elipse_4144" data-name="Elipse 4144" cx="4.765" cy="4.765" r="4.765" transform="translate(37.512 85.776)" fill="#fce8d0"/>
        <path id="Trazado_102685" data-name="Trazado 102685" d="M94.75,445.375v6.094H76v-6.094a9.375,9.375,0,0,1,18.75,0Z" transform="translate(-76 -336.412)" fill="#fdd835"/>
        <path id="Trazado_102686" data-name="Trazado 102686" d="M94.75,79.375v6.094H76V79.375a9.375,9.375,0,0,1,18.75,0Z" transform="translate(-76 -56.193)" fill="#26ccda"/>
        <g id="Grupo_55805" data-name="Grupo 55805" transform="translate(4.588 0)">
          <circle id="Elipse_4145" data-name="Elipse 4145" cx="4.765" cy="4.765" r="4.765" transform="translate(0)" fill="#fce8d0"/>
          <circle id="Elipse_4146" data-name="Elipse 4146" cx="4.765" cy="4.765" r="4.765" transform="translate(0 85.776)" fill="#fce8d0"/>
        </g>
      </g>
      <g id="Grupo_55807" data-name="Grupo 55807" transform="translate(66)">
        <ellipse id="Elipse_4147" data-name="Elipse 4147" cx="2.166" cy="2.599" rx="2.166" ry="2.599" transform="translate(42.455 66.715)" fill="#fff"/>
        <path id="Trazado_102687" data-name="Trazado 102687" d="M240.063,373.031a7.031,7.031,0,1,0-7.031,7.031A7.039,7.039,0,0,0,240.063,373.031Zm-7.031,2.344a2.344,2.344,0,1,1,2.344-2.344A2.346,2.346,0,0,1,233.031,375.375Z" transform="translate(-188.5 -280.219)"/>
        <path id="Trazado_102688" data-name="Trazado 102688" d="M206,437.719v6.094a2.344,2.344,0,0,0,2.344,2.344h18.75a2.344,2.344,0,0,0,2.344-2.344v-6.094a11.719,11.719,0,0,0-23.437,0Zm4.688,0a7.031,7.031,0,0,1,14.063,0v3.75H210.688Z" transform="translate(-173.188 -326.156)"/>
        <path id="Trazado_102689" data-name="Trazado 102689" d="M240.063,7.031a7.031,7.031,0,1,0-7.031,7.031A7.039,7.039,0,0,0,240.063,7.031Zm-7.031,2.344a2.344,2.344,0,1,1,2.344-2.344A2.346,2.346,0,0,1,233.031,9.375Z" transform="translate(-188.5)"/>
        <path id="Trazado_102690" data-name="Trazado 102690" d="M100.063,7.031a7.031,7.031,0,1,0-7.031,7.031A7.039,7.039,0,0,0,100.063,7.031ZM93.031,9.375a2.344,2.344,0,1,1,2.344-2.344A2.346,2.346,0,0,1,93.031,9.375Z" transform="translate(-81.313)"/>
        <path id="Trazado_102691" data-name="Trazado 102691" d="M380.063,7.031a7.031,7.031,0,1,0-7.031,7.031A7.039,7.039,0,0,0,380.063,7.031Zm-7.031,2.344a2.344,2.344,0,1,1,2.344-2.344A2.346,2.346,0,0,1,373.031,9.375Z" transform="translate(-295.688)"/>
        <path id="Trazado_102692" data-name="Trazado 102692" d="M346,437.719v6.094a2.344,2.344,0,0,0,2.344,2.344h18.75a2.344,2.344,0,0,0,2.344-2.344v-6.094a11.719,11.719,0,0,0-23.437,0Zm4.688,0a7.031,7.031,0,0,1,14.063,0v3.75H350.688Z" transform="translate(-280.375 -326.156)"/>
        <path id="Trazado_102693" data-name="Trazado 102693" d="M84.75,138.75a7.043,7.043,0,0,0-4.687-6.628V117.656h9.375v7.031a2.344,2.344,0,0,0,2.344,2.344h8.2a2.344,2.344,0,0,0,0-4.687H94.125V89.531h32.813v32.813h-5.859a2.344,2.344,0,0,0,0,4.688h8.2a2.344,2.344,0,0,0,2.344-2.344v-7.031H141v14.466a7.031,7.031,0,1,0,4.688,0V115.313a2.344,2.344,0,0,0-2.344-2.344H131.625V98.906h11.719a2.344,2.344,0,0,0,2.344-2.344V80.156h7.031a2.344,2.344,0,0,0,2.344-2.344V71.719a11.719,11.719,0,0,0-23.437,0v6.094a2.344,2.344,0,0,0,2.344,2.344H141V94.219h-9.375V87.188a2.344,2.344,0,0,0-2.344-2.344H112.875V80.156h7.031a2.344,2.344,0,0,0,2.344-2.344V71.719a11.719,11.719,0,0,0-23.437,0v6.094a2.344,2.344,0,0,0,2.344,2.344h7.031v4.688H91.781a2.344,2.344,0,0,0-2.344,2.344v7.031H80.063V80.156h7.031a2.344,2.344,0,0,0,2.344-2.344V71.719a11.719,11.719,0,0,0-23.437,0v6.094a2.344,2.344,0,0,0,2.344,2.344h7.031V96.563a2.344,2.344,0,0,0,2.344,2.344H89.438v14.063H77.719a2.344,2.344,0,0,0-2.344,2.344v16.809a7.031,7.031,0,1,0,9.375,6.628Zm58.594,2.344a2.344,2.344,0,1,1,2.344-2.344A2.346,2.346,0,0,1,143.344,141.094Zm-7.031-69.375a7.031,7.031,0,0,1,14.063,0v3.75H136.313Zm-32.812,0a7.031,7.031,0,0,1,14.063,0v3.75H103.5Zm-32.812,0a7.031,7.031,0,0,1,14.063,0v3.75H70.688Zm7.031,69.375a2.344,2.344,0,1,1,2.344-2.344A2.346,2.346,0,0,1,77.719,141.094Z" transform="translate(-66 -45.938)"/>
        <path id="Trazado_102694" data-name="Trazado 102694" d="M68.344,446.156h18.75a2.344,2.344,0,0,0,2.344-2.344v-6.094a11.719,11.719,0,0,0-23.437,0v6.094A2.344,2.344,0,0,0,68.344,446.156Zm2.344-8.437a7.031,7.031,0,0,1,14.063,0v3.75H70.688Z" transform="translate(-66 -326.156)"/>
        <path id="Trazado_102695" data-name="Trazado 102695" d="M237.249,218.658A7.031,7.031,0,1,0,226,213.031a2.344,2.344,0,1,0,4.688,0,2.344,2.344,0,1,1,3.748,1.877,9.319,9.319,0,0,0-3.212,4.376,2.344,2.344,0,1,0,4.421,1.557A4.646,4.646,0,0,1,237.249,218.658Z" transform="translate(-188.5 -157.719)" fill="#fff"/>
        <ellipse id="Elipse_4148" data-name="Elipse 4148" cx="2.166" cy="2.599" rx="2.166" ry="2.599" transform="translate(42.455 76.245)"/>
      </g>
    </g>
  </g>
</svg>
