<svg xmlns="http://www.w3.org/2000/svg" xmlns:xlink="http://www.w3.org/1999/xlink" width="208" height="208" viewBox="0 0 208 208">
  <defs>
    <filter id="Elipse_4258" x="0" y="0" width="208" height="208" filterUnits="userSpaceOnUse">
      <feOffset dx="-6" dy="6" input="SourceAlpha"/>
      <feGaussianBlur stdDeviation="3" result="blur"/>
      <feFlood flood-opacity="0.161"/>
      <feComposite operator="in" in2="blur"/>
      <feComposite in="SourceGraphic"/>
    </filter>
    <clipPath id="clip-path">
      <rect id="Rectángulo_35467" data-name="Rectángulo 35467" width="115.207" height="132.77" fill="none"/>
    </clipPath>
  </defs>
  <g id="Grupo_120358" data-name="Grupo 120358" transform="translate(-270.285 -2311)">
    <g transform="matrix(1, 0, 0, 1, 270.29, 2311)" filter="url(#Elipse_4258)">
      <g id="Elipse_4258-2" data-name="Elipse 4258" transform="translate(15 3)" fill="#fff" stroke="#26ccda" stroke-width="6">
        <circle cx="95" cy="95" r="95" stroke="none"/>
        <circle cx="95" cy="95" r="92" fill="none"/>
      </g>
    </g>
    <g id="Grupo_82689" data-name="Grupo 82689" transform="translate(322.681 2338.614)">
      <g id="Grupo_82688" data-name="Grupo 82688" clip-path="url(#clip-path)">
        <path id="Trazado_166582" data-name="Trazado 166582" d="M45,1.281A85.809,85.809,0,0,1,57.622,0c23.759.053,44.495,13.7,53.367,35.366a56.072,56.072,0,0,1,2.241,36.17c-.131.5-.226,1.016-.338,1.526A59.673,59.673,0,0,1,103.1,91.885,56.549,56.549,0,0,1,77.9,110.2a1.968,1.968,0,0,0-1.532,2.242c.076,6.237.01,12.475.057,18.713.009,1.148-.163,1.62-1.5,1.613q-17.376-.093-34.752-.01c-1.1,0-1.4-.28-1.391-1.386.054-6.395,0-12.79.052-19.185a1.671,1.671,0,0,0-1.294-1.893C18.3,102.709,5.624,89.082,1.379,68.728c-4.484-21.5,2.05-39.811,18.3-54.539A55.038,55.038,0,0,1,43.805,1.656c.4-.1.795-.249,1.192-.375M71.348,107.539c.117-.613.686-.581,1.1-.729,1.377-.495,2.783-.911,4.151-1.427a51.935,51.935,0,0,0,21.551-81.81C81.663,3.788,51.64-.894,29.782,12.912,10.479,25.1,1.18,46.722,6.473,68.751c4.633,19.283,17.1,31.647,35.784,37.911.592.2,1.422.06,1.619.954-.019,6.381-.02,12.763-.078,19.143-.008.883.317,1.006,1.085,1q12.712-.035,25.425.011c1.029.005,1.19-.351,1.181-1.261-.043-4.237-.007-8.475-.025-12.713-.009-2.087-.075-4.174-.115-6.261" transform="translate(0 0)" fill="#040403"/>
        <path id="Trazado_166583" data-name="Trazado 166583" d="M50.775,114.5c-.2-.894-1.027-.756-1.619-.954-18.684-6.264-31.15-18.628-35.784-37.911C8.08,53.606,17.378,31.988,36.682,19.8,58.54,5.989,88.563,10.671,105.048,30.456A51.935,51.935,0,0,1,83.5,112.266c-1.368.517-2.775.933-4.152,1.428-.412.148-.98.116-1.1.729l-4.973.144-17.508,0-4.991-.064M31.553,80.841l-.008-.018A3.679,3.679,0,0,0,32.4,82.8a39.023,39.023,0,0,0,7.556,8.9c9.182,7.73,19.709,10.663,31.445,8.545,10.225-1.845,18.257-7.4,24.234-15.883a8.33,8.33,0,0,0,1.938-3.694,17.6,17.6,0,0,0,5.544-9.931,18.616,18.616,0,0,0-1.141-9.215,21.86,21.86,0,0,0-.246-3.58A36.3,36.3,0,0,0,88.094,33.884a36.487,36.487,0,0,0-27.149-8.129,36.723,36.723,0,0,0-21.678,9.514C31.365,42.406,27.411,51.5,26.826,62.1Q23.28,72.639,31.2,80.443l.349.4M39.1,29.027c-.188-.267-.332-.48-.484-.686-.589-.8-1.22-1.571-1.761-2.4-.515-.79-.916-.853-1.709-.23A48.535,48.535,0,0,0,23.279,39.356c-1.458,2.466-1.452,2.469,1.168,3.782a8.951,8.951,0,0,1,.964.518c.788.525,1.22.323,1.666-.524a41.032,41.032,0,0,1,11.2-13.351c.277-.217.521-.476.822-.754m63.824,53.4c-.732.016-.783.586-.988.964a45.18,45.18,0,0,1-9.31,11.743c-.871.8-2.612,1.266-2.382,2.538.208,1.152,1.467,2.1,2.2,3.178.39.57.716.434,1.142.1a48.394,48.394,0,0,0,13.1-15.631c.129-.246.507-.623.159-.823-1.306-.75-2.662-1.413-3.921-2.068" transform="translate(-6.899 -6.884)" fill="#fdba01"/>
        <path id="Trazado_166584" data-name="Trazado 166584" d="M126.758,255.946l4.973-.143c.04,2.086.106,4.173.115,6.26.018,4.238-.018,8.476.025,12.713.009.909-.152,1.266-1.181,1.261q-12.712-.067-25.425-.011c-.768,0-1.093-.121-1.085-1,.058-6.381.059-12.762.078-19.143l4.991.064c-.007,1.361.01,2.723-.032,4.083-.02.633.1.927.839.923q7.932-.046,15.864,0c.7,0,.9-.244.877-.914-.05-1.36-.03-2.722-.039-4.083m-8.72,10h-5.18c-3.68,0-3.642,0-3.657,3.753,0,1.012.244,1.312,1.285,1.3,4.185-.063,8.371-.026,12.557-.026,3.913,0,3.883,0,3.766-4-.025-.846-.283-1.051-1.08-1.038-2.563.043-5.128.016-7.691.016" transform="translate(-60.382 -148.263)" fill="#fdfefe"/>
        <path id="Trazado_166585" data-name="Trazado 166585" d="M121.033,95.991a18.617,18.617,0,0,1,1.142,9.215,17.6,17.6,0,0,1-5.544,9.931c-3.8,3.008-8.165,3.911-12.938,3.87-12.895-.11-25.792-.129-38.687.007-5.2.055-10.12-.471-14.4-3.73l.008.018c.011-.244-.161-.328-.349-.4q-7.934-7.8-4.378-18.346c1.683-3.458,3.866-6.607,7.441-8.181,2.327-1.024,3.219-2.366,3.837-4.819A16.172,16.172,0,0,1,82.78,74.716c.557.42.942.745,1.771.367,10.918-4.986,22.13-.209,26.1,11.083.163.462.28.9.8,1.071,4.473,1.518,7.391,4.739,9.583,8.754M94.988,114c.21,0,.42.006.629,0,4.186-.133,8.4.372,12.556-.281a11.227,11.227,0,0,0,9.068-9.263,11.485,11.485,0,0,0-6.2-12.009c-1.135-.552-1.312-.209-1.26.864.061,1.254.039,2.517-.008,3.773a7,7,0,0,1-5.648,6.643c-1.975.416-3.972.136-5.956.227-.665.03-.729-.349-.779-.884-.389-4.127-.4-4.127,3.65-4.127.262,0,.524,0,.787,0,2.358-.011,3.07-.71,3.083-3.112.018-3.2-.011-6.4.016-9.593a3.423,3.423,0,0,0-.569-1.911,13.688,13.688,0,0,0-18.392-4.393,1.984,1.984,0,0,0-1.157,1.988c.079,1.936.023,3.878.023,5.818,0,3.757,0,3.72-3.792,3.7-.962-.006-1.248-.25-1.231-1.227.06-3.406-.016-6.815.048-10.221a2.055,2.055,0,0,0-1.126-2.012,11.311,11.311,0,0,0-16.843,6.96c-.287,1.176-.143,1.481,1.142,1.5a9.1,9.1,0,0,1,9.114,7.749,35.75,35.75,0,0,1,.143,6.121c.032,3.757.009,3.718-3.8,3.673-.989-.012-1.246-.314-1.223-1.261.059-2.41.064-4.823,0-7.233a4.008,4.008,0,0,0-3.511-4.014,18.715,18.715,0,0,0-4.859.05,11.428,11.428,0,0,0-9.182,11.216,11.155,11.155,0,0,0,9.4,10.977c5.781.731,11.619.144,17.43.291.815.021.772-.49.771-1.035,0-1.468-.037-2.937.013-4.4a9.968,9.968,0,0,1,7.732-9.338c2.27-.511,2.27-.511,2.271,1.73,0,.629-.039,1.261.01,1.886.06.765-.2,1.035-1,1.2a4.876,4.876,0,0,0-4.009,4.924c-.026,1.205.083,2.42-.032,3.615-.121,1.254.407,1.46,1.522,1.441,3.721-.064,7.443-.024,11.165-.024" transform="translate(-25.959 -41.344)" fill="#040403"/>
        <path id="Trazado_166586" data-name="Trazado 166586" d="M122.546,80.405c-2.192-4.015-5.11-7.236-9.583-8.754-.517-.175-.634-.609-.8-1.072-3.973-11.291-15.185-16.068-26.1-11.083-.829.378-1.214.054-1.771-.366a16.172,16.172,0,0,0-25.617,8.841c-.617,2.453-1.511,3.795-3.837,4.819-3.574,1.574-5.757,4.723-7.441,8.181.586-10.595,4.539-19.69,12.442-26.828a37.71,37.71,0,0,1,48.827-1.385A36.3,36.3,0,0,1,122.3,76.825a21.856,21.856,0,0,1,.246,3.58" transform="translate(-27.472 -25.758)" fill="#fde346"/>
        <path id="Trazado_166587" data-name="Trazado 166587" d="M58.624,175.677c4.281,3.259,9.2,3.785,14.4,3.73q19.342-.2,38.687-.007c4.774.041,9.139-.861,12.939-3.869a8.336,8.336,0,0,1-1.938,3.694c-5.977,8.481-14.009,14.038-24.234,15.883-11.737,2.118-22.263-.815-31.445-8.546a39,39,0,0,1-7.556-8.9,3.682,3.682,0,0,1-.851-1.981" transform="translate(-33.978 -101.737)" fill="#fde346"/>
        <path id="Trazado_166588" data-name="Trazado 166588" d="M53.433,47.517c-.3.278-.545.538-.822.754a41.022,41.022,0,0,0-11.2,13.351c-.446.847-.878,1.049-1.666.524a8.95,8.95,0,0,0-.964-.518c-2.62-1.313-2.625-1.315-1.168-3.782A48.537,48.537,0,0,1,49.479,44.2c.793-.623,1.193-.56,1.709.23.542.83,1.172,1.6,1.762,2.4.152.206.3.419.484.687" transform="translate(-21.234 -25.374)" fill="#fdfefe"/>
        <path id="Trazado_166589" data-name="Trazado 166589" d="M210.9,179.687c1.259.655,2.615,1.318,3.921,2.068.348.2-.03.576-.159.823a48.393,48.393,0,0,1-13.1,15.63c-.425.335-.752.471-1.142-.1-.738-1.077-2-2.025-2.2-3.178-.23-1.273,1.511-1.739,2.382-2.538a45.18,45.18,0,0,0,9.31-11.743c.205-.378.256-.948.988-.964" transform="translate(-114.875 -104.146)" fill="#fdfefe"/>
        <path id="Trazado_166590" data-name="Trazado 166590" d="M133.7,256.138c.009,1.361-.011,2.723.039,4.083.025.671-.178.918-.877.914q-7.932-.033-15.864,0c-.74,0-.859-.29-.839-.922.042-1.36.025-2.722.032-4.083l17.508,0" transform="translate(-67.325 -148.455)" fill="#040403"/>
        <path id="Trazado_166591" data-name="Trazado 166591" d="M57.813,174.973c.188.07.36.154.349.4l-.349-.4" transform="translate(-33.508 -101.414)" fill="#fde346"/>
        <path id="Trazado_166592" data-name="Trazado 166592" d="M124.962,279.914c2.564,0,5.128.027,7.691-.016.8-.013,1.055.192,1.08,1.038.117,4,.148,4-3.766,4-4.186,0-8.372-.037-12.557.026-1.04.016-1.289-.284-1.285-1.3.015-3.753-.024-3.753,3.657-3.753h5.18" transform="translate(-67.306 -162.228)" fill="#040403"/>
        <path id="Trazado_166593" data-name="Trazado 166593" d="M101.775,120.874c-3.722,0-7.444-.04-11.165.025-1.114.019-1.643-.187-1.522-1.441.115-1.2.005-2.409.032-3.615a4.876,4.876,0,0,1,4.009-4.924c.807-.166,1.062-.435,1-1.2-.048-.626-.009-1.257-.01-1.887,0-2.241,0-2.241-2.271-1.73a9.968,9.968,0,0,0-7.732,9.338c-.05,1.466-.016,2.936-.013,4.4,0,.545.044,1.055-.771,1.034-5.811-.146-11.649.44-17.43-.291a11.155,11.155,0,0,1-9.4-10.977,11.428,11.428,0,0,1,9.182-11.216,18.678,18.678,0,0,1,4.859-.05,4.008,4.008,0,0,1,3.511,4.014c.061,2.41.055,4.824,0,7.233-.023.947.234,1.249,1.223,1.261,3.81.045,3.832.083,3.8-3.673a35.754,35.754,0,0,0-.143-6.121,9.1,9.1,0,0,0-9.114-7.748c-1.284-.021-1.429-.327-1.142-1.5a11.31,11.31,0,0,1,16.843-6.959,2.055,2.055,0,0,1,1.126,2.012c-.064,3.406.012,6.816-.048,10.221-.017.978.269,1.221,1.231,1.228,3.793.025,3.792.061,3.792-3.7,0-1.94.056-3.882-.023-5.818a1.985,1.985,0,0,1,1.157-1.989A13.689,13.689,0,0,1,111.144,91.2a3.424,3.424,0,0,1,.569,1.912c-.027,3.2,0,6.395-.016,9.593-.013,2.4-.725,3.1-3.083,3.112h-.787c-4.047,0-4.038,0-3.65,4.127.05.536.115.915.779.885,1.985-.091,3.981.189,5.956-.227a7,7,0,0,0,5.648-6.643c.047-1.256.069-2.518.008-3.773-.052-1.074.124-1.416,1.26-.864a11.484,11.484,0,0,1,6.2,12.009,11.227,11.227,0,0,1-9.068,9.263c-4.161.653-8.371.148-12.556.281-.209.007-.419,0-.629,0" transform="translate(-32.746 -48.216)" fill="#26ccda"/>
      </g>
    </g>
  </g>
</svg>
