<svg id="implementar" xmlns="http://www.w3.org/2000/svg" width="132.745" height="132.745" viewBox="0 0 132.745 132.745">
  <path id="Trazado_103910" data-name="Trazado 103910" d="M116.409,246.285H16.85A8.85,8.85,0,0,1,8,237.435V160H116.409Zm0,0" transform="translate(-5.788 -115.752)" fill="#f6f6f6"/>
  <path id="Trazado_103911" data-name="Trazado 103911" d="M25.7,233.01V160H21.275v68.585H16.85A8.85,8.85,0,0,0,8,237.435a8.75,8.75,0,0,0,.6,3.126,10.528,10.528,0,0,1,10.465-7.551Zm0,0" transform="translate(-5.788 -115.752)" fill="#afafaf"/>
  <path id="Trazado_103912" data-name="Trazado 103912" d="M185.86,176,104,257.86h81.86Zm0,0" transform="translate(-75.239 -127.327)" fill="#e8e8e8"/>
  <path id="Trazado_103913" data-name="Trazado 103913" d="M21.275,182.285H16.85A8.85,8.85,0,0,0,8,191.134V104.85A8.85,8.85,0,0,1,16.85,96h4.425Zm0,0" transform="translate(-5.788 -69.451)" fill="#fdd835"/>
  <g id="Grupo_56524" data-name="Grupo 56524" transform="translate(24.337 55.311)">
    <path id="Trazado_103914" data-name="Trazado 103914" d="M88,200h26.549v17.7H88Zm0,0" transform="translate(-88 -200)" fill="#ffa726"/>
    <path id="Trazado_103915" data-name="Trazado 103915" d="M88,344h26.549v17.7H88Zm0,0" transform="translate(-88 -304.176)" fill="#ffa726"/>
    <path id="Trazado_103916" data-name="Trazado 103916" d="M264,200h26.549v17.7H264Zm0,0" transform="translate(-215.327 -200)" fill="#ffa726"/>
    <path id="Trazado_103917" data-name="Trazado 103917" d="M264,344h26.549v17.7H264Zm0,0" transform="translate(-215.327 -304.176)" fill="#ffa726"/>
  </g>
  <path id="Trazado_103918" data-name="Trazado 103918" d="M184,224h22.124v4.425H184Zm0,0" transform="translate(-133.114 -162.052)" fill="#363636"/>
  <path id="Trazado_103919" data-name="Trazado 103919" d="M304,264h4.425v22.124H304Zm0,0" transform="translate(-219.928 -190.99)" fill="#363636"/>
  <path id="Trazado_103920" data-name="Trazado 103920" d="M184,368h22.124v4.425H184Zm0,0" transform="translate(-133.114 -266.229)" fill="#48add9"/>
  <path id="Trazado_103921" data-name="Trazado 103921" d="M286.8,50.036V36.761h-9.713a27.368,27.368,0,0,0-2.831-6.836l6.88-6.859-9.4-9.4-6.859,6.88a27.37,27.37,0,0,0-6.836-2.831V8H244.762v9.713a27.37,27.37,0,0,0-6.836,2.831l-6.859-6.88-9.4,9.4,6.88,6.859a27.369,27.369,0,0,0-2.831,6.836H216V50.036h9.713a27.369,27.369,0,0,0,2.831,6.836l-6.88,6.859,6.239,6.217,3.164,3.164,6.859-6.859a27.37,27.37,0,0,0,6.836,2.831V78.8h13.275V69.085a27.37,27.37,0,0,0,6.836-2.831l6.859,6.859,9.4-9.381-6.88-6.859a27.368,27.368,0,0,0,2.831-6.836ZM244.762,43.4a6.637,6.637,0,1,1,6.637,6.637A6.638,6.638,0,0,1,244.762,43.4Zm0,0" transform="translate(-156.265 -5.788)" fill="#26ccda"/>
  <path id="Trazado_103922" data-name="Trazado 103922" d="M291.912,103.824a19.912,19.912,0,1,1,19.912-19.912A19.911,19.911,0,0,1,291.912,103.824Zm0-35.4A15.487,15.487,0,1,0,307.4,83.912,15.486,15.486,0,0,0,291.912,68.425Zm0,0" transform="translate(-196.778 -46.301)" fill="#f7a116"/>
  <path id="Trazado_103923" data-name="Trazado 103923" d="M11.062,196.409h99.559a2.213,2.213,0,0,0,2.212-2.212V136.673h-4.425v55.311H11.062a6.637,6.637,0,1,1,0-13.275h4.425A2.213,2.213,0,0,0,17.7,176.5V110.124H53.1V105.7H17.7V90.212A2.213,2.213,0,0,0,15.487,88H11.062A11.075,11.075,0,0,0,0,99.062v86.285A11.075,11.075,0,0,0,11.062,196.409Zm-6.637-88.5v-8.85a6.638,6.638,0,0,1,6.637-6.637h2.212v81.86H11.062A11.018,11.018,0,0,0,4.425,176.5Zm0,0" transform="translate(0 -63.663)"/>
  <path id="Trazado_103924" data-name="Trazado 103924" d="M108.761,192H82.212A2.213,2.213,0,0,0,80,194.212v17.7a2.213,2.213,0,0,0,2.212,2.212h26.549a2.213,2.213,0,0,0,2.212-2.212v-6.637h8.85V200.85h-8.85v-6.637A2.213,2.213,0,0,0,108.761,192Zm-2.212,17.7H84.425V196.425h22.124Zm0,0" transform="translate(-57.876 -138.902)"/>
  <path id="Trazado_103925" data-name="Trazado 103925" d="M130.886,323.4h26.549a2.213,2.213,0,0,0,2.212-2.212v-17.7a2.213,2.213,0,0,0-2.212-2.212H146.373V288h-4.425v13.275H130.886a2.213,2.213,0,0,0-2.212,2.212v6.637h-17.7v-6.637a2.213,2.213,0,0,0-2.212-2.212H82.212A2.213,2.213,0,0,0,80,303.487v17.7a2.213,2.213,0,0,0,2.212,2.212h26.549a2.213,2.213,0,0,0,2.212-2.212v-6.637h17.7v6.637A2.213,2.213,0,0,0,130.886,323.4Zm2.212-17.7h22.124v13.275H133.1Zm-26.549,13.275H84.425V305.7h22.124Zm0,0" transform="translate(-57.876 -208.353)"/>
  <path id="Trazado_103926" data-name="Trazado 103926" d="M291.912,64a19.912,19.912,0,1,0,19.912,19.912A19.911,19.911,0,0,0,291.912,64Zm0,35.4A15.487,15.487,0,1,1,307.4,83.912,15.486,15.486,0,0,1,291.912,99.4Zm0,0" transform="translate(-196.778 -46.301)"/>
  <path id="Trazado_103927" data-name="Trazado 103927" d="M281.01,46.461a2.213,2.213,0,0,0,2.212-2.212V30.974a2.213,2.213,0,0,0-2.212-2.212h-8.06a29.3,29.3,0,0,0-1.75-4.226l5.708-5.688a2.212,2.212,0,0,0,0-3.133l-9.394-9.4a2.209,2.209,0,0,0-3.128,0l-5.7,5.708a29.428,29.428,0,0,0-4.226-1.75V2.212A2.213,2.213,0,0,0,252.248,0H238.974a2.213,2.213,0,0,0-2.212,2.212v8.06a29.433,29.433,0,0,0-4.226,1.75l-5.69-5.708a2.209,2.209,0,0,0-3.129,0l-9.4,9.4a2.212,2.212,0,0,0,0,3.133l5.708,5.688a29.25,29.25,0,0,0-1.748,4.233h-8.06A2.213,2.213,0,0,0,208,30.974V44.248a2.213,2.213,0,0,0,2.212,2.212h8.06a29.309,29.309,0,0,0,1.75,4.226l-5.708,5.688a2.212,2.212,0,0,0,0,3.135l9.394,9.379a2.214,2.214,0,0,0,3.129,0l5.69-5.689a29.583,29.583,0,0,0,4.235,1.75v8.06a2.213,2.213,0,0,0,2.212,2.212h13.275a2.213,2.213,0,0,0,2.212-2.212V64.95a29.455,29.455,0,0,0,4.228-1.75l5.69,5.689a2.213,2.213,0,0,0,3.126,0l9.4-9.381a2.212,2.212,0,0,0,0-3.135L271.2,50.685a29.276,29.276,0,0,0,1.75-4.224Zm-11.85-2.776a25.3,25.3,0,0,1-2.607,6.285,2.212,2.212,0,0,0,.35,2.681l5.31,5.292L265.945,64.2l-5.29-5.3a2.213,2.213,0,0,0-2.679-.348,25.2,25.2,0,0,1-6.285,2.6,2.213,2.213,0,0,0-1.655,2.139v7.5h-8.85V63.3a2.212,2.212,0,0,0-1.648-2.139,25.2,25.2,0,0,1-6.285-2.6,2.213,2.213,0,0,0-2.679.348L225.279,64.2l-6.268-6.253,5.31-5.292a2.212,2.212,0,0,0,.35-2.681,25.3,25.3,0,0,1-2.607-6.285,2.212,2.212,0,0,0-2.139-1.649h-7.5v-8.85h7.5a2.212,2.212,0,0,0,2.137-1.649,25.3,25.3,0,0,1,2.607-6.285,2.212,2.212,0,0,0-.35-2.681l-5.31-5.294,6.27-6.27,5.294,5.31a2.212,2.212,0,0,0,2.681.35,25.2,25.2,0,0,1,6.285-2.6,2.213,2.213,0,0,0,1.646-2.137v-7.5h8.85v7.5a2.212,2.212,0,0,0,1.649,2.139,25.2,25.2,0,0,1,6.285,2.6,2.212,2.212,0,0,0,2.686-.35l5.294-5.31,6.27,6.27-5.31,5.294a2.21,2.21,0,0,0-.349,2.681,25.342,25.342,0,0,1,2.606,6.285,2.211,2.211,0,0,0,2.13,1.646h7.5v8.85h-7.5A2.212,2.212,0,0,0,269.16,43.685Zm0,0" transform="translate(-150.477)"/>
  <path id="Trazado_103928" data-name="Trazado 103928" d="M320.85,104a8.85,8.85,0,1,0,8.85,8.85A8.85,8.85,0,0,0,320.85,104Zm0,13.275a4.425,4.425,0,1,1,4.425-4.425A4.425,4.425,0,0,1,320.85,117.275Zm0,0" transform="translate(-225.716 -75.239)"/>
</svg>
