<svg id="Grupo_120306" data-name="Grupo 120306" xmlns="http://www.w3.org/2000/svg" xmlns:xlink="http://www.w3.org/1999/xlink" width="95.246" height="80" viewBox="0 0 95.246 80">
  <defs>
    <clipPath id="clip-path">
      <rect id="Rectángulo_37263" data-name="Rectángulo 37263" width="95.246" height="80" fill="none"/>
    </clipPath>
  </defs>
  <g id="Grupo_120301" data-name="Grupo 120301" clip-path="url(#clip-path)">
    <path id="Trazado_181339" data-name="Trazado 181339" d="M40.332,1.309A1.541,1.541,0,0,1,42.066,0C49.1.015,56.129-.019,63.16.019a9.957,9.957,0,0,1,9.764,7.957c.142.666.406.793,1.031.789,4.119-.029,8.239-.018,12.359-.014a5.088,5.088,0,0,1,5.467,5.357c.023,12.421,0,24.842.022,37.263a1.66,1.66,0,0,1-1.395,1.85c-1.181-.317-1.467-.719-1.467-2.1q0-18.273,0-36.546c0-2.328-.71-3.025-3.07-3.027l-10.787-.008c-1.881,0-1.845,0-1.871,1.931-.01.721.231.874.9.868,3.41-.031,6.819-.015,10.229-.014,1.408,0,1.917.48,1.917,1.881q.007,22.6,0,45.195c0,1.348-.522,1.845-1.86,1.845H10.934c-1.468,0-1.95-.473-1.954-1.94-.007-2.635,0-5.27,0-7.9q0-18.459,0-36.918c0-1.743.408-2.157,2.11-2.158h9.02c1.909,0,1.867,0,1.909-1.895.017-.78-.271-.908-.962-.9-4.061.028-8.121.009-12.182.016a2.324,2.324,0,0,0-2.6,2.573q-.009,24.69,0,49.379A2.313,2.313,0,0,0,8.824,66.03q38.778,0,77.556-.008a2.285,2.285,0,0,0,2.554-2.514c.016-1.736-.009-3.472.01-5.207.012-1.153.357-1.546,1.465-1.778A1.39,1.39,0,0,1,91.776,58c.012,2.044-.016,4.089-.028,6.133a6.624,6.624,0,0,1-.468,1.906c.629,0,1.2-.017,1.768,0a2.11,2.11,0,0,1,2.171,2.177c.027,2.292.048,4.587-.008,6.878a5.09,5.09,0,0,1-4.9,4.886c-.186.007-.372.006-.558.006q-32.766,0-65.532.01c-.989,0-1.7-.258-1.924-1.31.232-1.2.607-1.492,1.921-1.493h51.8q6.928,0,13.856-.012a2.336,2.336,0,0,0,2.555-2.535c.016-1.736-.015-3.472.015-5.207.008-.5-.148-.626-.626-.614-1.177.031-2.356.007-3.534.007q-10.88,0-21.76-.016c-.581,0-.824.113-.781.75a23.611,23.611,0,0,1,0,2.6A2.119,2.119,0,0,1,63.43,74.4q-15.809.013-31.618,0a2.125,2.125,0,0,1-2.326-2.219c-.04-.9-.042-1.8,0-2.7.025-.531-.142-.673-.67-.672q-12.694.024-25.387,0c-.551,0-.657.183-.648.685.029,1.642.007,3.285.012,4.928,0,1.892.883,2.764,2.794,2.765q5.952,0,11.9,0c1.217,0,1.547.273,1.852,1.488A1.684,1.684,0,0,1,17.408,80c-3.867-.034-7.735-.013-11.6-.014-3.007,0-4.461-.967-5.623-3.731-.03-.072-.12-.118-.183-.176V67.523c.818-1.694,2.384-1.54,3.984-1.485a8.421,8.421,0,0,1-.548-3.826q0-23.836-.008-47.671a5.613,5.613,0,0,1,1.546-4.32,5.1,5.1,0,0,1,3.69-1.474c4.213,0,8.426-.019,12.638.022.677.006.867-.212,1-.825A10.025,10.025,0,0,1,31.91.017C33.056-.007,34.2,0,35.348.01s1.512.337,1.742,1.482a1.517,1.517,0,0,1-1.727,1.315c-.928-.027-1.857-.007-2.787-.006-4.66.008-7.719,3.056-7.74,7.729-.012,2.57,0,5.14,0,7.71,0,3.22-.025,6.441.007,9.661a7.239,7.239,0,0,0,7.481,7.5c.774.009,1.55-.026,2.322.01A2.417,2.417,0,0,1,37.173,38.1a18.812,18.812,0,0,1-.52,3.755c-.194.31-.341.57.256.511,3.469-.343,6.336-1.994,7.486-5.536A2.658,2.658,0,0,1,47,35.4q4.037.023,8.074,0c2.535-.009,5.07-.035,7.6-.054A7.166,7.166,0,0,0,70.1,30.14a6,6,0,0,0,.244-1.552c.016-6.318.113-12.64-.026-18.955a7.077,7.077,0,0,0-7.645-6.8c-.371-.011-.741-.033-1.112-.033q-9.7,0-19.406,0c-1.218,0-1.6-.32-1.826-1.49m7.286,59.145v-.007H82.486c.472,0,.934.148.932-.685q-.04-20.968-.006-41.935c0-.581-.163-.718-.726-.713q-4.37.04-8.74-.007c-.6-.007-.775.15-.769.763.031,3.223.027,6.447.006,9.67a13.2,13.2,0,0,1-.2,2.5A10.028,10.028,0,0,1,62.8,38.2q-7.485.035-14.97-.011A1.165,1.165,0,0,0,46.512,39,8.172,8.172,0,0,1,44.535,41.9c-2.665,2.6-5.97,3.4-9.552,3.28a1.934,1.934,0,0,1-1.557-2.942,9.767,9.767,0,0,0,.909-3.382c.055-.491-.06-.676-.571-.658-.712.026-1.426.012-2.138-.022a9.889,9.889,0,0,1-9.512-9.385c-.162-3.619-.08-7.25-.061-10.876,0-.663-.187-.813-.823-.805-2.82.035-5.641.043-8.461,0-.749-.012-.975.141-.973.941q.043,20.735,0,41.47c0,.768.173.962.953.96q17.434-.043,34.868-.02m.024,11.151H61.123c1.818,0,1.775,0,1.834-1.831.025-.778-.186-.961-.96-.959-9.266.03-18.533.019-27.8.019-1.92,0-1.883,0-1.926,1.924-.015.7.17.869.866.864,4.835-.033,9.669-.017,14.5-.017" transform="translate(0 0)" fill="#030404"/>
    <path id="Trazado_181340" data-name="Trazado 181340" d="M137.727,39.307c-2.535.019-5.07.045-7.6.054q-4.037.015-8.074,0a2.658,2.658,0,0,0-2.6,1.428c-.4,0-.805,0-1.208.006-3.349.074-2.367-.534-3.939,2.386a5.045,5.045,0,0,1-2.6,2.634,18.818,18.818,0,0,0,.52-3.755,2.418,2.418,0,0,0-2.529-2.686c-.773-.035-1.548,0-2.322-.01a7.24,7.24,0,0,1-7.481-7.5c-.031-3.22-.007-6.44-.007-9.661,0-2.57-.01-5.14,0-7.71.022-4.673,3.081-7.722,7.74-7.729.929,0,1.859-.022,2.787.005a1.517,1.517,0,0,0,1.727-1.314,13.194,13.194,0,0,0,3.242-.183c.227,1.17.609,1.489,1.826,1.49q9.7,0,19.406,0c.371,0,.741.022,1.112.033.106.682.8.812,1.172,1.243a9.472,9.472,0,0,1,2.378,6.518c-.039,5.846-.008,11.692-.015,17.538a8.85,8.85,0,0,1-1.714,5.172c-.534.764-1.363,1.232-1.817,2.044M122.468,17.754h8.275c1.674,0,3.347.014,5.021-.009a1.324,1.324,0,0,0,1.425-1.278,1.381,1.381,0,0,0-1.326-1.493,6.493,6.493,0,0,0-.743-.012q-12.692,0-25.383,0a2.983,2.983,0,0,0-1.192.119,1.376,1.376,0,0,0-.477,2.284,1.76,1.76,0,0,0,1.383.389q6.509,0,13.017,0m-.084,13.391h9.856c1.208,0,2.418.022,3.626-.014a1.255,1.255,0,0,0,1.317-1.282,1.3,1.3,0,0,0-1.146-1.454,4.149,4.149,0,0,0-.925-.041q-12.692,0-25.383,0a4.075,4.075,0,0,0-1.1.1,1.26,1.26,0,0,0-.974,1.4,1.3,1.3,0,0,0,1.249,1.272c.276.028.557.013.836.014h12.645m-7.985-6.7c1.7,0,3.4.006,5.1,0,1.04-.005,1.64-.489,1.674-1.321.035-.874-.593-1.46-1.646-1.464q-5.1-.019-10.205,0c-1.043,0-1.711.6-1.688,1.439.022.82.65,1.341,1.661,1.347,1.7.009,3.4,0,5.1,0m16.75,0c1.484,0,2.968.009,4.452,0,1.025-.009,1.6-.527,1.591-1.393a1.382,1.382,0,0,0-1.526-1.388q-4.5-.03-9,0a1.4,1.4,0,1,0,.028,2.781c1.484.013,2.968,0,4.452,0" transform="translate(-75.048 -3.957)" fill="#fdd835"/>
    <path id="Trazado_181341" data-name="Trazado 181341" d="M109.373,91.377c-1.108.232-1.453.625-1.465,1.778-.018,1.736.006,3.472-.01,5.207a2.285,2.285,0,0,1-2.554,2.513q-38.778.01-77.556.008a2.313,2.313,0,0,1-2.546-2.532q-.01-24.69,0-49.379a2.324,2.324,0,0,1,2.6-2.573c4.061-.007,8.122.012,12.182-.016.69,0,.979.123.962.9-.042,1.894,0,1.894-1.909,1.894h-9.02c-1.7,0-2.11.415-2.11,2.157q0,18.459,0,36.918c0,2.635,0,5.27,0,7.9,0,1.467.486,1.94,1.954,1.94h73.465c1.337,0,1.859-.5,1.86-1.845q.009-22.6,0-45.195c0-1.4-.509-1.88-1.917-1.881-3.41,0-6.82-.017-10.229.014-.672.006-.913-.147-.9-.868.026-1.93-.01-1.932,1.871-1.931l10.787.008c2.36,0,3.07.7,3.07,3.027q0,18.273,0,36.546c0,1.376.286,1.778,1.467,2.1q0,1.652,0,3.3" transform="translate(-18.963 -34.855)" fill="#f57c00"/>
    <path id="Trazado_181342" data-name="Trazado 181342" d="M27.745,286.719c-.3-1.215-.635-1.487-1.851-1.488q-5.952,0-11.9,0c-1.91,0-2.789-.873-2.794-2.765,0-1.643.017-3.286-.012-4.928-.009-.5.1-.686.648-.685q12.694.027,25.387,0c.528,0,.695.141.67.672-.042.9-.04,1.8,0,2.7a2.125,2.125,0,0,0,2.326,2.219q15.809.011,31.618,0a2.119,2.119,0,0,0,2.311-2.234,23.66,23.66,0,0,0,0-2.6c-.043-.638.2-.752.781-.751q10.88.029,21.761.017c1.178,0,2.356.023,3.533-.007.478-.012.635.117.626.614-.03,1.736,0,3.472-.015,5.208a2.336,2.336,0,0,1-2.555,2.536q-6.928.02-13.856.011H32.62c-1.314,0-1.689.3-1.921,1.492l-2.953,0" transform="translate(-8.405 -208.036)" fill="#ffac57"/>
    <path id="Trazado_181343" data-name="Trazado 181343" d="M83.275,112.157q-17.434,0-34.868.019c-.78,0-.954-.192-.953-.96q.038-20.735,0-41.47c0-.8.224-.953.973-.941,2.82.047,5.641.039,8.461,0,.636-.008.826.142.823.805-.019,3.626-.1,7.257.061,10.876a9.888,9.888,0,0,0,9.512,9.385c.712.034,1.426.047,2.138.022.511-.018.627.167.571.658a9.767,9.767,0,0,1-.909,3.382,1.934,1.934,0,0,0,1.558,2.943c3.583.12,6.887-.681,9.553-3.28a8.178,8.178,0,0,0,1.976-2.893,1.164,1.164,0,0,1,1.323-.817q7.485.045,14.97.011a10.028,10.028,0,0,0,10.182-8.161,13.222,13.222,0,0,0,.2-2.5c.021-3.223.026-6.447-.006-9.67-.006-.613.166-.77.769-.763q4.369.05,8.74.007c.563,0,.727.131.726.713q-.025,20.967.006,41.935c0,.833-.46.685-.932.685H83.275ZM98.583,96.636c-3.161,0-6.322-.01-9.484,0a3.237,3.237,0,0,0-3.505,3.46c-.018.836-.005,1.673,0,2.51.006,2.645,1.224,3.881,3.849,3.889,2.851.008,5.7,0,8.554,0,3.316,0,6.633.027,9.948-.011a3.253,3.253,0,0,0,3.506-3.477c.021-.929.014-1.859,0-2.789-.03-2.331-1.307-3.582-3.663-3.586q-4.6-.008-9.2,0" transform="translate(-35.657 -51.702)" fill="#b1f9ff"/>
    <path id="Trazado_181344" data-name="Trazado 181344" d="M252.157,43.889c.454-.812,1.283-1.281,1.817-2.044a8.849,8.849,0,0,0,1.714-5.172c.007-5.846-.024-11.692.015-17.538a9.473,9.473,0,0,0-2.378-6.518c-.374-.431-1.065-.561-1.172-1.243a7.077,7.077,0,0,1,7.645,6.8c.139,6.315.043,12.636.026,18.955a6,6,0,0,1-.244,1.552,7.166,7.166,0,0,1-7.424,5.21" transform="translate(-189.478 -8.539)" fill="#fdd835"/>
    <path id="Trazado_181345" data-name="Trazado 181345" d="M145.2,279.646c-4.835,0-9.67-.016-14.5.017-.7.005-.881-.163-.866-.864.042-1.923.006-1.924,1.926-1.924,9.266,0,18.533.011,27.8-.019.775,0,.985.18.96.959-.059,1.829-.016,1.831-1.834,1.831H145.2" transform="translate(-97.559 -208.04)" fill="#ffac57"/>
    <path id="Trazado_181346" data-name="Trazado 181346" d="M146.947,153.2a5.045,5.045,0,0,0,2.6-2.634c1.573-2.921.59-2.312,3.939-2.386.4-.009.8,0,1.208-.006-1.15,3.542-4.016,5.193-7.486,5.536-.6.059-.451-.2-.256-.51" transform="translate(-110.294 -111.341)" fill="#fdd835"/>
    <path id="Trazado_181347" data-name="Trazado 181347" d="M145.957,47.052q-6.509,0-13.017,0a1.76,1.76,0,0,1-1.383-.389,1.376,1.376,0,0,1,.477-2.284,2.983,2.983,0,0,1,1.192-.119q12.692,0,25.383,0a6.491,6.491,0,0,1,.743.012,1.381,1.381,0,0,1,1.325,1.493,1.324,1.324,0,0,1-1.424,1.278c-1.673.023-3.348.008-5.021.009h-8.275" transform="translate(-98.538 -33.255)" fill="#030404"/>
    <path id="Trazado_181348" data-name="Trazado 181348" d="M145.886,100.927H133.24a8.3,8.3,0,0,1-.836-.013,1.3,1.3,0,0,1-1.249-1.272,1.26,1.26,0,0,1,.974-1.4,4.1,4.1,0,0,1,1.1-.1q12.692-.008,25.384,0a4.15,4.15,0,0,1,.925.041,1.3,1.3,0,0,1,1.146,1.454,1.255,1.255,0,0,1-1.317,1.282c-1.208.036-2.417.014-3.626.014h-9.856" transform="translate(-98.551 -73.739)" fill="#030404"/>
    <path id="Trazado_181349" data-name="Trazado 181349" d="M137.86,73.989c-1.7,0-3.4.007-5.1,0-1.011-.005-1.639-.527-1.661-1.347-.022-.843.645-1.435,1.688-1.439q5.1-.016,10.205,0c1.054,0,1.682.59,1.646,1.464-.033.832-.633,1.316-1.673,1.321-1.7.008-3.4,0-5.1,0" transform="translate(-98.511 -53.496)" fill="#030404"/>
    <path id="Trazado_181350" data-name="Trazado 181350" d="M207.42,73.981c-1.484,0-2.968.009-4.452,0a1.4,1.4,0,1,1-.028-2.781q4.5-.029,9,0a1.382,1.382,0,0,1,1.526,1.388c.008.866-.567,1.384-1.591,1.393-1.484.013-2.968,0-4.452,0" transform="translate(-151.319 -53.489)" fill="#030404"/>
    <path id="Trazado_181351" data-name="Trazado 181351" d="M213.864,180.764q4.6,0,9.2,0c2.355,0,3.632,1.256,3.663,3.586.012.93.019,1.86,0,2.789a3.253,3.253,0,0,1-3.506,3.477c-3.316.038-6.632.011-9.948.011-2.851,0-5.7.006-8.554,0-2.626-.008-3.843-1.244-3.849-3.889,0-.837-.015-1.674,0-2.51a3.237,3.237,0,0,1,3.505-3.46c3.161-.014,6.322,0,9.484,0m-.056,7.036c3.034,0,6.068-.021,9.1.014.771.009,1.054-.243,1-1.014a22.168,22.168,0,0,1,0-2.413c.025-.611-.227-.819-.822-.8-1.021.032-2.043.009-3.065.009-5.108,0-10.216.014-15.324-.015-.772,0-1.056.231-1,1a14.9,14.9,0,0,1,0,2.227c-.06.785.254,1.01,1.011,1,3.033-.033,6.068-.014,9.1-.014" transform="translate(-150.938 -135.83)" fill="#030404"/>
    <path id="Trazado_181352" data-name="Trazado 181352" d="M222.341,196.324c-3.034,0-6.068-.019-9.1.013-.757.008-1.071-.217-1.01-1a14.9,14.9,0,0,0,0-2.227c-.057-.772.227-1.008,1-1,5.108.029,10.216.015,15.324.015,1.022,0,2.044.024,3.065-.009.595-.019.846.189.822.8a22.111,22.111,0,0,0,0,2.414c.053.771-.23,1.022-1,1.014-3.033-.034-6.068-.014-9.1-.014" transform="translate(-159.472 -144.355)" fill="#26ccda"/>
  </g>
</svg>
