<svg id="implementar" xmlns="http://www.w3.org/2000/svg" width="90.441" height="90.441" viewBox="0 0 90.441 90.441">
  <path id="Trazado_103910" data-name="Trazado 103910" d="M81.86,218.786H14.029A6.03,6.03,0,0,1,8,212.757V160H81.86Zm0,0" transform="translate(-6.493 -129.853)" fill="#f6f6f6"/>
  <path id="Trazado_103911" data-name="Trazado 103911" d="M20.059,209.742V160H17.044v46.728H14.029A6.03,6.03,0,0,0,8,212.757a5.961,5.961,0,0,0,.407,2.13,7.172,7.172,0,0,1,7.13-5.145Zm0,0" transform="translate(-6.493 -129.853)" fill="#afafaf"/>
  <path id="Trazado_103912" data-name="Trazado 103912" d="M159.772,176,104,231.772h55.772Zm0,0" transform="translate(-84.405 -142.838)" fill="#e8e8e8"/>
  <path id="Trazado_103913" data-name="Trazado 103913" d="M17.044,154.786H14.029A6.03,6.03,0,0,0,8,160.816V102.029A6.03,6.03,0,0,1,14.029,96h3.015Zm0,0" transform="translate(-6.493 -77.912)" fill="#fdd835"/>
  <g id="Grupo_56524" data-name="Grupo 56524" transform="translate(16.581 37.684)">
    <path id="Trazado_103914" data-name="Trazado 103914" d="M88,200h18.088v12.059H88Zm0,0" transform="translate(-88 -200)" fill="#ffa726"/>
    <path id="Trazado_103915" data-name="Trazado 103915" d="M88,344h18.088v12.059H88Zm0,0" transform="translate(-88 -316.868)" fill="#ffa726"/>
    <path id="Trazado_103916" data-name="Trazado 103916" d="M264,200h18.088v12.059H264Zm0,0" transform="translate(-230.838 -200)" fill="#ffa726"/>
    <path id="Trazado_103917" data-name="Trazado 103917" d="M264,344h18.088v12.059H264Zm0,0" transform="translate(-230.838 -316.868)" fill="#ffa726"/>
  </g>
  <path id="Trazado_103918" data-name="Trazado 103918" d="M184,224h15.073v3.015H184Zm0,0" transform="translate(-149.331 -181.794)" fill="#363636"/>
  <path id="Trazado_103919" data-name="Trazado 103919" d="M304,264h3.015v15.073H304Zm0,0" transform="translate(-246.721 -214.258)" fill="#363636"/>
  <path id="Trazado_103920" data-name="Trazado 103920" d="M184,368h15.073v3.015H184Zm0,0" transform="translate(-149.331 -298.662)" fill="#48add9"/>
  <path id="Trazado_103921" data-name="Trazado 103921" d="M264.235,36.64V27.6h-6.617a18.648,18.648,0,0,0-1.929-4.657l4.688-4.673-6.406-6.406L249.3,16.547a18.647,18.647,0,0,0-4.657-1.929V8H235.6v6.617a18.647,18.647,0,0,0-4.657,1.929l-4.673-4.688-6.406,6.406,4.688,4.673a18.647,18.647,0,0,0-1.929,4.657H216V36.64h6.617a18.647,18.647,0,0,0,1.929,4.657l-4.688,4.673,4.25,4.236,2.156,2.156,4.673-4.673a18.647,18.647,0,0,0,4.657,1.929v6.617h9.044V49.618a18.648,18.648,0,0,0,4.657-1.929l4.673,4.673,6.406-6.391L255.689,41.3a18.648,18.648,0,0,0,1.929-4.657ZM235.6,32.118a4.522,4.522,0,1,1,4.522,4.522A4.522,4.522,0,0,1,235.6,32.118Zm0,0" transform="translate(-175.302 -6.493)" fill="#26ccda"/>
  <path id="Trazado_103922" data-name="Trazado 103922" d="M285.566,91.132a13.566,13.566,0,1,1,13.566-13.566A13.566,13.566,0,0,1,285.566,91.132Zm0-24.118a10.551,10.551,0,1,0,10.551,10.551A10.551,10.551,0,0,0,285.566,67.015Zm0,0" transform="translate(-220.75 -51.941)" fill="#f7a116"/>
  <path id="Trazado_103923" data-name="Trazado 103923" d="M7.537,161.86H75.367a1.507,1.507,0,0,0,1.507-1.507V121.162H73.86v37.684H7.537a4.522,4.522,0,0,1,0-9.044h3.015a1.507,1.507,0,0,0,1.507-1.507v-45.22H36.176v-3.015H12.059V89.507A1.507,1.507,0,0,0,10.551,88H7.537A7.546,7.546,0,0,0,0,95.537v58.786A7.546,7.546,0,0,0,7.537,161.86ZM3.015,101.566V95.537a4.522,4.522,0,0,1,4.522-4.522H9.044v55.772H7.537a7.507,7.507,0,0,0-4.522,1.507Zm0,0" transform="translate(0 -71.419)"/>
  <path id="Trazado_103924" data-name="Trazado 103924" d="M99.6,192H81.507A1.507,1.507,0,0,0,80,193.507v12.059a1.507,1.507,0,0,0,1.507,1.507H99.6a1.507,1.507,0,0,0,1.507-1.507v-4.522h6.029v-3.015H101.1v-4.522A1.507,1.507,0,0,0,99.6,192Zm-1.507,12.059H83.015v-9.044H98.088Zm0,0" transform="translate(-64.927 -155.824)"/>
  <path id="Trazado_103925" data-name="Trazado 103925" d="M114.669,312.118h18.088a1.507,1.507,0,0,0,1.507-1.507V298.551a1.507,1.507,0,0,0-1.507-1.507H125.22V288h-3.015v9.044h-7.537a1.507,1.507,0,0,0-1.507,1.507v4.522H101.1v-4.522a1.507,1.507,0,0,0-1.507-1.507H81.507A1.507,1.507,0,0,0,80,298.551V310.61a1.507,1.507,0,0,0,1.507,1.507H99.6a1.507,1.507,0,0,0,1.507-1.507v-4.522h12.059v4.522A1.507,1.507,0,0,0,114.669,312.118Zm1.507-12.059H131.25V309.1H116.176ZM98.088,309.1H83.015v-9.044H98.088Zm0,0" transform="translate(-64.927 -233.736)"/>
  <path id="Trazado_103926" data-name="Trazado 103926" d="M285.566,64a13.566,13.566,0,1,0,13.566,13.566A13.566,13.566,0,0,0,285.566,64Zm0,24.118a10.551,10.551,0,1,1,10.551-10.551A10.551,10.551,0,0,1,285.566,88.118Zm0,0" transform="translate(-220.75 -51.941)"/>
  <path id="Trazado_103927" data-name="Trazado 103927" d="M257.742,31.654a1.507,1.507,0,0,0,1.507-1.507V21.1a1.507,1.507,0,0,0-1.507-1.507h-5.491a19.967,19.967,0,0,0-1.192-2.879l3.889-3.875a1.507,1.507,0,0,0,0-2.134l-6.4-6.406a1.5,1.5,0,0,0-2.131,0l-3.882,3.889A20.051,20.051,0,0,0,239.654,7V1.507A1.507,1.507,0,0,0,238.147,0H229.1A1.507,1.507,0,0,0,227.6,1.507V7a20.052,20.052,0,0,0-2.879,1.192L220.84,4.3a1.505,1.505,0,0,0-2.132,0L212.3,10.7a1.507,1.507,0,0,0,0,2.134l3.889,3.875A19.928,19.928,0,0,0,215,19.6h-5.491A1.507,1.507,0,0,0,208,21.1v9.044a1.507,1.507,0,0,0,1.507,1.507H215a19.969,19.969,0,0,0,1.192,2.879L212.3,38.409a1.507,1.507,0,0,0,0,2.136l6.4,6.39a1.508,1.508,0,0,0,2.131,0l3.877-3.876a20.156,20.156,0,0,0,2.885,1.192v5.491A1.507,1.507,0,0,0,229.1,51.25h9.044a1.507,1.507,0,0,0,1.507-1.507V44.251a20.069,20.069,0,0,0,2.881-1.192l3.877,3.876a1.508,1.508,0,0,0,2.13,0l6.406-6.391a1.507,1.507,0,0,0,0-2.136l-3.889-3.875a19.95,19.95,0,0,0,1.192-2.878Zm-8.073-1.892a17.239,17.239,0,0,1-1.776,4.282,1.507,1.507,0,0,0,.238,1.827l3.617,3.606-4.27,4.261-3.6-3.609a1.508,1.508,0,0,0-1.825-.237,17.168,17.168,0,0,1-4.282,1.775,1.508,1.508,0,0,0-1.128,1.457v5.11H230.61v-5.11a1.507,1.507,0,0,0-1.123-1.457,17.168,17.168,0,0,1-4.282-1.775,1.508,1.508,0,0,0-1.825.237l-3.607,3.607-4.27-4.26,3.617-3.606a1.507,1.507,0,0,0,.238-1.827,17.239,17.239,0,0,1-1.776-4.282,1.507,1.507,0,0,0-1.457-1.123h-5.11V22.61h5.11a1.507,1.507,0,0,0,1.456-1.123,17.239,17.239,0,0,1,1.776-4.282,1.507,1.507,0,0,0-.238-1.827L215.5,11.771,219.772,7.5l3.607,3.617a1.507,1.507,0,0,0,1.827.238,17.168,17.168,0,0,1,4.282-1.775,1.508,1.508,0,0,0,1.122-1.456V3.015h6.029v5.11a1.507,1.507,0,0,0,1.123,1.457,17.168,17.168,0,0,1,4.282,1.775,1.507,1.507,0,0,0,1.83-.238L247.482,7.5l4.272,4.272-3.617,3.607a1.506,1.506,0,0,0-.238,1.827,17.266,17.266,0,0,1,1.775,4.282,1.507,1.507,0,0,0,1.451,1.122h5.11V28.64h-5.11A1.507,1.507,0,0,0,249.669,29.763Zm0,0" transform="translate(-168.809)"/>
  <path id="Trazado_103928" data-name="Trazado 103928" d="M318.029,104a6.029,6.029,0,1,0,6.029,6.029A6.03,6.03,0,0,0,318.029,104Zm0,9.044a3.015,3.015,0,1,1,3.015-3.015A3.015,3.015,0,0,1,318.029,113.044Zm0,0" transform="translate(-253.214 -84.405)"/>
</svg>
