<svg xmlns="http://www.w3.org/2000/svg" width="104.019" height="104.019" viewBox="0 0 104.019 104.019">
  <g id="demografia" transform="translate(-8.931 -8.931)">
    <g id="Grupo_55815" data-name="Grupo 55815" transform="translate(10.678 10.678)">
      <path id="Trazado_102696" data-name="Trazado 102696" d="M63.193,12.931V63.193H12.931A50.263,50.263,0,0,1,63.193,12.931Z" transform="translate(-12.931 -12.931)" fill="#26ccda"/>
      <path id="Trazado_102697" data-name="Trazado 102697" d="M178.262,63.193a50.008,50.008,0,0,1-4.589,21L128,63.193V12.931A50.263,50.263,0,0,1,178.262,63.193Z" transform="translate(-77.738 -12.931)" fill="#ffa726"/>
      <path id="Trazado_102698" data-name="Trazado 102698" d="M108.866,149a50.268,50.268,0,0,1-95.935-21H63.193Z" transform="translate(-12.931 -77.738)" fill="#fdd835"/>
      <path id="Trazado_102699" data-name="Trazado 102699" d="M63.193,12.931v.454A50.265,50.265,0,0,0,19.673,63.193H12.931A50.263,50.263,0,0,1,63.193,12.931Z" transform="translate(-12.931 -12.931)" fill="#26ccda" style="mix-blend-mode: multiply;isolation: isolate"/>
      <path id="Trazado_102700" data-name="Trazado 102700" d="M66.6,178.146c-1.123.081-2.261.117-3.4.117A50.263,50.263,0,0,1,12.931,128h6.742A50.256,50.256,0,0,0,66.6,178.146Z" transform="translate(-12.931 -77.738)" fill="#fdd835" style="mix-blend-mode: multiply;isolation: isolate"/>
      <path id="Trazado_102701" data-name="Trazado 102701" d="M178.262,63.194a50.008,50.008,0,0,1-4.589,21L168.037,81.6A50.286,50.286,0,0,0,128,13.386v-.454a50.263,50.263,0,0,1,50.263,50.262Z" transform="translate(-77.737 -12.932)" fill="#f57c00"/>
      <path id="Trazado_102702" data-name="Trazado 102702" d="M169.368,172.74A50.266,50.266,0,0,1,123.694,202c-1.123,0-2.234-.036-3.339-.117a50.271,50.271,0,0,0,42.271-29.142c.391-.854.764-1.717,1.106-2.593Z" transform="translate(-73.432 -101.475)" fill="#f2c300"/>
      <g id="Grupo_55812" data-name="Grupo 55812" transform="translate(66.838 17.804)">
        <circle id="Elipse_4149" data-name="Elipse 4149" cx="6.617" cy="6.617" r="6.617" transform="translate(1.07)" fill="#ffbb98"/>
        <path id="Trazado_102703" data-name="Trazado 102703" d="M181.324,103.616H165.95V91.675a7.687,7.687,0,1,1,15.374,0Z" transform="translate(-165.95 -70.754)" fill="#d2e1f1"/>
        <path id="Trazado_102704" data-name="Trazado 102704" d="M177.347,66.5a6.617,6.617,0,1,1,0-12.39,6.62,6.62,0,0,0,0,12.39Z" transform="translate(-167.331 -53.69)" fill="#ffcaa6"/>
        <path id="Trazado_102705" data-name="Trazado 102705" d="M175.966,84.349a7.69,7.69,0,0,0-5.358,7.327v11.94h-4.659V91.677a7.69,7.69,0,0,1,10.017-7.327Z" transform="translate(-165.949 -70.754)" fill="#b0c0d2"/>
      </g>
      <g id="Grupo_55813" data-name="Grupo 55813" transform="translate(29.681 57.251)">
        <circle id="Elipse_4150" data-name="Elipse 4150" cx="6.617" cy="6.617" r="6.617" transform="translate(1.07 0)" fill="#ffbb98"/>
        <path id="Trazado_102706" data-name="Trazado 102706" d="M96.258,193.927H80.884V181.986a7.687,7.687,0,1,1,15.374,0Z" transform="translate(-80.884 -161.065)" fill="#26ccda"/>
        <path id="Trazado_102707" data-name="Trazado 102707" d="M92.282,156.813a6.617,6.617,0,1,1,0-12.39,6.62,6.62,0,0,0,0,12.39Z" transform="translate(-82.265 -144.001)" fill="#ffcaa6"/>
        <path id="Trazado_102708" data-name="Trazado 102708" d="M90.9,174.66a7.69,7.69,0,0,0-5.358,7.327v11.94H80.883v-11.94A7.691,7.691,0,0,1,90.9,174.66Z" transform="translate(-80.883 -161.065)" fill="#26ccda" style="mix-blend-mode: multiply;isolation: isolate"/>
      </g>
      <g id="Grupo_55814" data-name="Grupo 55814" transform="translate(24.137 11.632)">
        <circle id="Elipse_4151" data-name="Elipse 4151" cx="6.617" cy="6.617" r="6.617" transform="translate(1.07)" fill="#ffbb98"/>
        <path id="Trazado_102709" data-name="Trazado 102709" d="M83.565,89.487H68.191V77.546a7.687,7.687,0,0,1,15.374,0Z" transform="translate(-68.191 -56.625)" fill="#fdd835"/>
        <path id="Trazado_102710" data-name="Trazado 102710" d="M79.588,52.373a6.617,6.617,0,1,1,0-12.39,6.62,6.62,0,0,0,0,12.39Z" transform="translate(-69.572 -39.561)" fill="#ffcaa6"/>
        <path id="Trazado_102711" data-name="Trazado 102711" d="M78.207,70.22a7.69,7.69,0,0,0-5.358,7.327v11.94H68.19V77.548A7.69,7.69,0,0,1,78.207,70.22Z" transform="translate(-68.19 -56.625)" fill="#fdd835" style="mix-blend-mode: multiply;isolation: isolate"/>
      </g>
    </g>
    <g id="Grupo_55816" data-name="Grupo 55816" transform="translate(8.931 8.931)">
      <path id="Trazado_102712" data-name="Trazado 102712" d="M176.659,64.539a8.364,8.364,0,1,0-10.546,0,9.431,9.431,0,0,0-4.161,7.819V84.3a1.747,1.747,0,0,0,1.747,1.747h15.374A1.747,1.747,0,0,0,180.82,84.3V72.358A9.434,9.434,0,0,0,176.659,64.539Zm-5.273-11.356a4.87,4.87,0,1,1-4.87,4.87A4.876,4.876,0,0,1,171.385,53.183Zm5.94,29.368H165.446V72.358a5.94,5.94,0,1,1,11.879,0Z" transform="translate(-95.112 -31.886)"/>
      <path id="Trazado_102713" data-name="Trazado 102713" d="M91.592,154.85a8.361,8.361,0,1,0-10.547,0,9.432,9.432,0,0,0-4.161,7.819v11.941a1.747,1.747,0,0,0,1.747,1.747H94a1.747,1.747,0,0,0,1.747-1.747V162.668A9.431,9.431,0,0,0,91.592,154.85Zm-5.273-11.355a4.87,4.87,0,1,1-4.87,4.87A4.875,4.875,0,0,1,86.318,143.494Zm5.94,29.368H80.378V162.669a5.94,5.94,0,1,1,11.879,0Z" transform="translate(-47.202 -82.749)"/>
      <path id="Trazado_102714" data-name="Trazado 102714" d="M78.9,50.41a8.365,8.365,0,1,0-10.547,0,9.431,9.431,0,0,0-4.161,7.819V70.17a1.747,1.747,0,0,0,1.747,1.747H81.313A1.747,1.747,0,0,0,83.06,70.17V58.229A9.433,9.433,0,0,0,78.9,50.41ZM73.626,39.055a4.87,4.87,0,1,1-4.87,4.87A4.876,4.876,0,0,1,73.626,39.055Zm5.94,29.368H67.686V58.229a5.94,5.94,0,0,1,11.879,0Z" transform="translate(-40.054 -23.929)"/>
      <path id="Trazado_102715" data-name="Trazado 102715" d="M60.94,8.931A52.009,52.009,0,1,0,112.95,60.94,52.068,52.068,0,0,0,60.94,8.931Zm-1.747,3.525V59.193H12.456A48.576,48.576,0,0,1,59.193,12.456Zm1.747,97A48.574,48.574,0,0,1,12.456,62.688h48.1L96.419,79.179l7.848,3.609A48.685,48.685,0,0,1,60.94,109.455Zm1.747-49.635V12.456A48.574,48.574,0,0,1,109.455,60.94a48.067,48.067,0,0,1-3.725,18.673Z" transform="translate(-8.931 -8.931)"/>
      <path id="Trazado_102716" data-name="Trazado 102716" d="M156.977,199.787c-8.147,6.194-14.73,6.543-14.829,6.548a1.747,1.747,0,0,0,.118,3.493c.31-.01,7.7-.321,16.826-7.259a1.747,1.747,0,0,0-2.115-2.782Z" transform="translate(-83.01 -116.22)"/>
      <path id="Trazado_102717" data-name="Trazado 102717" d="M191.6,182.154c-1.011,1.195-2.062,2.338-3.124,3.4a1.747,1.747,0,0,0,2.469,2.473c1.131-1.128,2.249-2.344,3.323-3.614a1.747,1.747,0,0,0-2.668-2.257Z" transform="translate(-109.76 -106.141)"/>
    </g>
  </g>
</svg>
