<svg xmlns="http://www.w3.org/2000/svg" width="127.998" height="111.884" viewBox="0 0 127.998 111.884">
  <g id="sexo" transform="translate(-0.002 -8.058)">
    <g id="Grupo_55828" data-name="Grupo 55828">
      <path id="Trazado_102727" data-name="Trazado 102727" d="M74,55.944a36.125,36.125,0,1,0-40.125,35.9V102.7H26.252v8h7.625v7.489h8V110.7H49.5v-8H41.877V91.843A36.174,36.174,0,0,0,74,55.944Zm-64.25,0A28.125,28.125,0,1,1,37.876,84.069,28.125,28.125,0,0,1,9.75,55.944Z" fill="#f57c00"/>
      <g id="Grupo_55827" data-name="Grupo 55827">
        <path id="Trazado_102728" data-name="Trazado 102728" d="M108.237,9.808l6.177,6.177L102.653,27.746a36.01,36.01,0,0,0-43.659-1.084A36.4,36.4,0,0,1,65.067,32.2a28.124,28.124,0,1,1,0,47.489,36.439,36.439,0,0,1-6.073,5.537A36.1,36.1,0,0,0,108.311,33.4l11.76-11.761,6.177,6.177V9.808Z" fill="#26ccda"/>
        <path id="Trazado_102729" data-name="Trazado 102729" d="M52.921,32.2a36.021,36.021,0,0,0,0,47.489,28.325,28.325,0,0,0,6.073-5.2,28.046,28.046,0,0,1,0-37.091,28.3,28.3,0,0,0-6.073-5.2Z" fill="#26ccda"/>
      </g>
    </g>
    <g id="Grupo_55829" data-name="Grupo 55829">
      <path id="Trazado_102730" data-name="Trazado 102730" d="M15.34,69.634a1.75,1.75,0,1,0-2.988,1.822,30.1,30.1,0,0,0,3.34,4.479,1.751,1.751,0,1,0,2.6-2.345,26.643,26.643,0,0,1-2.952-3.956Z"/>
      <path id="Trazado_102731" data-name="Trazado 102731" d="M67.752,55.944a29.875,29.875,0,1,0-59.75,0,1.75,1.75,0,0,0,3.5,0A26.362,26.362,0,0,1,50.271,32.671a37.728,37.728,0,0,0,0,46.546A26.366,26.366,0,0,1,30.29,81.208a1.75,1.75,0,1,0-1.009,3.351A29.886,29.886,0,0,0,67.752,55.944ZM59.007,71.712a26.224,26.224,0,0,1,0-31.536,26.324,26.324,0,0,1,0,31.536Zm-5.756,5.643a34.261,34.261,0,0,1,0-42.821,26.448,26.448,0,0,1,3.418,2.928,29.771,29.771,0,0,0,0,36.965,26.526,26.526,0,0,1-3.418,2.928Z"/>
      <path id="Trazado_102732" data-name="Trazado 102732" d="M126.248,8.058H108.237A1.75,1.75,0,0,0,107,11.045l4.939,4.94L102.5,25.423a37.947,37.947,0,0,0-22.388-7.354,37.537,37.537,0,0,0-21.107,6.456A37.868,37.868,0,1,0,32.127,93.377v7.576H26.252a1.75,1.75,0,0,0-1.75,1.75v8a1.751,1.751,0,0,0,1.75,1.75h5.875v5.739a1.751,1.751,0,0,0,1.75,1.75h8a1.751,1.751,0,0,0,1.75-1.75v-5.739H49.5a1.751,1.751,0,0,0,1.75-1.75v-8a1.75,1.75,0,0,0-1.75-1.75H43.627V93.377a37.7,37.7,0,0,0,15.4-6,37.845,37.845,0,0,0,51.606-53.824l9.438-9.439,4.94,4.94A1.75,1.75,0,0,0,128,27.819V9.808a1.751,1.751,0,0,0-1.752-1.75ZM41.685,90.1a1.75,1.75,0,0,0-1.558,1.739V102.7a1.751,1.751,0,0,0,1.75,1.75h5.875v4.5H41.877a1.75,1.75,0,0,0-1.75,1.75v5.739h-4.5V110.7a1.75,1.75,0,0,0-1.75-1.75H28v-4.5h5.875a1.751,1.751,0,0,0,1.75-1.75V91.843A1.75,1.75,0,0,0,34.069,90.1a34.356,34.356,0,1,1,29.9-11.766,1.747,1.747,0,0,0-.376.412c-.014.022-.022.046-.035.069a34.422,34.422,0,0,1-5.338,4.848,1.7,1.7,0,0,0-.486.358A34.247,34.247,0,0,1,41.685,90.1ZM124.5,23.594l-3.189-3.189a1.749,1.749,0,0,0-2.475,0L107.073,32.166a1.749,1.749,0,0,0-.128,2.331,33.97,33.97,0,0,1,7.542,21.447A34.414,34.414,0,0,1,80.112,90.319a34.035,34.035,0,0,1-18.089-5.176,37.981,37.981,0,0,0,3.422-3.2,29.808,29.808,0,0,0,41.4-12.668,1.75,1.75,0,1,0-3.13-1.566A26.333,26.333,0,0,1,67.764,79.232a37.846,37.846,0,0,0-.036-46.557,26.348,26.348,0,0,1,38.759,23.269,1.75,1.75,0,1,0,3.5,0A29.828,29.828,0,0,0,65.406,29.973,38.165,38.165,0,0,0,62,26.764a34.229,34.229,0,0,1,39.563,2.347,1.75,1.75,0,0,0,2.332-.128l11.76-11.761a1.748,1.748,0,0,0,0-2.474l-3.189-3.19H124.5Z"/>
    </g>
  </g>
</svg>
