<svg xmlns="http://www.w3.org/2000/svg" width="104.344" height="104.365" viewBox="0 0 104.344 104.365">
  <g id="dinero" transform="translate(-0.053)">
    <g id="Grupo_55835" data-name="Grupo 55835" transform="translate(1.581 1.528)">
      <path id="Trazado_102752" data-name="Trazado 102752" d="M152.438,54.713a2.082,2.082,0,0,1-2.082,2.082H64.393a2.082,2.082,0,0,1-2.082-2.082V9.582A2.082,2.082,0,0,1,64.393,7.5h85.964a2.082,2.082,0,0,1,2.082,2.082V54.713Z" transform="translate(-51.152 -7.5)" fill="#78c2a4"/>
      <path id="Trazado_102753" data-name="Trazado 102753" d="M478.524,7.5h-4.048a2.082,2.082,0,0,1,2.082,2.082V54.713a2.082,2.082,0,0,1-2.082,2.082h4.048a2.082,2.082,0,0,0,2.082-2.082V9.582A2.082,2.082,0,0,0,478.524,7.5Z" transform="translate(-379.319 -7.5)" fill="#66b394"/>
      <path id="Trazado_102754" data-name="Trazado 102754" d="M180.08,473.319H160.442a2.547,2.547,0,0,1-2.547-2.547v-2.914a2.547,2.547,0,0,1,2.547-2.547H180.08a2.547,2.547,0,0,1,2.547,2.547v2.914A2.547,2.547,0,0,1,180.08,473.319Z" transform="translate(-127.256 -372.011)" fill="#eab14d"/>
      <path id="Trazado_102755" data-name="Trazado 102755" d="M250.847,465.311h-4.072a2.547,2.547,0,0,1,2.547,2.547v2.914a2.547,2.547,0,0,1-2.547,2.547h4.072a2.547,2.547,0,0,0,2.547-2.547v-2.914A2.547,2.547,0,0,0,250.847,465.311Z" transform="translate(-198.023 -372.011)" fill="#e49542"/>
      <path id="Trazado_102756" data-name="Trazado 102756" d="M196.068,394.727H176.43a2.547,2.547,0,0,1-2.547-2.547v-2.914a2.547,2.547,0,0,1,2.547-2.547h19.638a2.547,2.547,0,0,1,2.547,2.547v2.914A2.547,2.547,0,0,1,196.068,394.727Z" transform="translate(-139.986 -309.436)" fill="#eab14d"/>
      <path id="Trazado_102757" data-name="Trazado 102757" d="M266.835,386.719h-4.072a2.547,2.547,0,0,1,2.547,2.547v2.914a2.547,2.547,0,0,1-2.547,2.547h4.072a2.547,2.547,0,0,0,2.547-2.547v-2.914A2.547,2.547,0,0,0,266.835,386.719Z" transform="translate(-210.752 -309.436)" fill="#e49542"/>
      <path id="Trazado_102758" data-name="Trazado 102758" d="M180.08,434.023H160.442a2.547,2.547,0,0,1-2.547-2.547v-2.914a2.547,2.547,0,0,1,2.547-2.547H180.08a2.547,2.547,0,0,1,2.547,2.547v2.914A2.547,2.547,0,0,1,180.08,434.023Z" transform="translate(-127.256 -340.723)" fill="#f6e266"/>
      <path id="Trazado_102759" data-name="Trazado 102759" d="M250.847,426.015h-4.072a2.547,2.547,0,0,1,2.547,2.547v2.914a2.547,2.547,0,0,1-2.547,2.547h4.072a2.547,2.547,0,0,0,2.547-2.547v-2.914A2.547,2.547,0,0,0,250.847,426.015Z" transform="translate(-198.023 -340.723)" fill="#ecbe6b"/>
      <path id="Trazado_102760" data-name="Trazado 102760" d="M170.21,65.522V46.545a9.045,9.045,0,0,1-9.045-9.045h-59.81a9.045,9.045,0,0,1-9.045,9.045V65.522a9.045,9.045,0,0,1,9.045,9.045h59.81A9.045,9.045,0,0,1,170.21,65.522Z" transform="translate(-75.038 -31.386)" fill="#e0f8c5"/>
      <path id="Trazado_102761" data-name="Trazado 102761" d="M408.55,37.5h-5.534a9.049,9.049,0,0,0,6.079,8.547,4.413,4.413,0,0,1,2.966,4.167V61.853a4.41,4.41,0,0,1-2.966,4.167,9.048,9.048,0,0,0-6.079,8.547h5.534a9.045,9.045,0,0,1,9.045-9.045V46.545A9.045,9.045,0,0,1,408.55,37.5Z" transform="translate(-322.422 -31.386)" fill="#ccf49f"/>
      <path id="Trazado_102762" data-name="Trazado 102762" d="M97.68,162.165a2.082,2.082,0,0,1-2.082,2.082H9.635a2.082,2.082,0,0,1-2.082-2.082V117.034a2.082,2.082,0,0,1,2.082-2.082H95.6a2.082,2.082,0,0,1,2.082,2.082Z" transform="translate(-7.553 -93.054)" fill="#78c2a4"/>
      <path id="Trazado_102763" data-name="Trazado 102763" d="M423.766,114.952h-4.048a2.082,2.082,0,0,1,2.082,2.082v45.131a2.082,2.082,0,0,1-2.082,2.082h4.048a2.082,2.082,0,0,0,2.082-2.082V117.034A2.082,2.082,0,0,0,423.766,114.952Z" transform="translate(-335.72 -93.054)" fill="#66b394"/>
      <path id="Trazado_102764" data-name="Trazado 102764" d="M115.452,172.975V154a9.045,9.045,0,0,1-9.045-9.045H46.6A9.045,9.045,0,0,1,37.553,154v18.978A9.045,9.045,0,0,1,46.6,182.02h59.81A9.045,9.045,0,0,1,115.452,172.975Z" transform="translate(-31.439 -116.941)" fill="#e0f8c5"/>
      <path id="Trazado_102765" data-name="Trazado 102765" d="M353.792,144.953h-5.534a9.049,9.049,0,0,0,6.079,8.547,4.413,4.413,0,0,1,2.966,4.167v11.639a4.41,4.41,0,0,1-2.966,4.167,9.048,9.048,0,0,0-6.079,8.547h5.534a9.045,9.045,0,0,1,9.045-9.045V154a9.045,9.045,0,0,1-9.045-9.045Z" transform="translate(-278.824 -116.941)" fill="#ccf49f"/>
      <path id="Trazado_102783" data-name="Trazado 102783" d="M19.262,0A19.262,19.262,0,1,1,0,19.262,19.262,19.262,0,0,1,19.262,0Z" transform="translate(3.868 62.783)" fill="#fdd835"/>
      <path id="Trazado_102766" data-name="Trazado 102766" d="M111.964,315.57a19.422,19.422,0,0,0-2.326.145,19.258,19.258,0,0,1,0,38.235,19.261,19.261,0,1,0,2.326-38.38Z" transform="translate(-88.834 -252.787)" fill="#fdd835" style="mix-blend-mode: multiply;isolation: isolate"/>
      <path id="Trazado_102784" data-name="Trazado 102784" d="M19.262,0A19.262,19.262,0,1,1,0,19.262,19.262,19.262,0,0,1,19.262,0Z" transform="translate(62.762 51.931)" fill="#fdd835"/>
      <path id="Trazado_102767" data-name="Trazado 102767" d="M400.949,262.317a19.435,19.435,0,0,0-2.326.145,19.258,19.258,0,0,1,0,38.235,19.261,19.261,0,1,0,2.326-38.38Z" transform="translate(-318.925 -210.386)" fill="#fdd835" style="mix-blend-mode: multiply;isolation: isolate"/>
    </g>
    <g id="Grupo_55836" data-name="Grupo 55836" transform="translate(0.053 0)">
      <path id="Trazado_102768" data-name="Trazado 102768" d="M465.32,38.614v-.408a1.529,1.529,0,0,0-3.057,0v.408a1.529,1.529,0,0,0,3.057,0Z" transform="translate(-368.066 -29.203)"/>
      <path id="Trazado_102769" data-name="Trazado 102769" d="M462.263,204.733v.408a1.529,1.529,0,0,0,3.057,0v-.408a1.529,1.529,0,0,0-3.057,0Z" transform="translate(-368.066 -161.793)"/>
      <path id="Trazado_102770" data-name="Trazado 102770" d="M89.6,38.206v.408a1.528,1.528,0,1,0,3.057,0v-.408a1.528,1.528,0,1,0-3.057,0Z" transform="translate(-71.352 -29.203)"/>
      <path id="Trazado_102771" data-name="Trazado 102771" d="M100.786,52.352a3.614,3.614,0,0,0,3.61-3.61V3.61A3.614,3.614,0,0,0,100.786,0H90.977a1.528,1.528,0,0,0,0,3.057h9.809a.554.554,0,0,1,.553.553V48.742a.554.554,0,0,1-.553.553H93.237V38.071a7.48,7.48,0,0,1,3.517-.878,1.528,1.528,0,0,0,1.528-1.528V16.687a1.528,1.528,0,0,0-1.528-1.528,7.525,7.525,0,0,1-7.516-7.516A1.528,1.528,0,0,0,87.71,6.114H27.9a1.528,1.528,0,0,0-1.528,1.528,7.525,7.525,0,0,1-7.516,7.516,1.528,1.528,0,0,0-1.528,1.528V21.9H14.269V3.61a.554.554,0,0,1,.553-.553H84.866a1.528,1.528,0,1,0,0-3.057H14.823a3.614,3.614,0,0,0-3.61,3.61V21.9H3.663a3.614,3.614,0,0,0-3.61,3.61V70.64a3.614,3.614,0,0,0,3.61,3.61H6.133a20.79,20.79,0,0,0,25.693,28.861,4.055,4.055,0,0,0,2.942,1.254H54.406a4.08,4.08,0,0,0,4.076-4.076V97.376a4.054,4.054,0,0,0-.9-2.547,4.053,4.053,0,0,0,.9-2.547V89.367a4.062,4.062,0,0,0-.149-1.078,4.079,4.079,0,0,0,3.408-4.016V81.359a4.08,4.08,0,0,0-4.076-4.076H44.529a20.649,20.649,0,0,0-1.238-3.033h19.58A20.818,20.818,0,0,0,83.606,93.512a20.592,20.592,0,0,0,12.705-4.334,1.529,1.529,0,1,0-1.87-2.419,17.562,17.562,0,0,1-10.836,3.7,17.73,17.73,0,1,1,14.691-7.8,1.528,1.528,0,0,0,2.53,1.715A20.788,20.788,0,0,0,93.237,54.3V52.351h7.549Zm-80.4-34.246a10.6,10.6,0,0,0,8.934-8.934H86.291a10.6,10.6,0,0,0,8.935,8.934V34.246a10.51,10.51,0,0,0-1.989.494V25.509a3.614,3.614,0,0,0-3.61-3.61h-30.4v-3.02a8.811,8.811,0,0,1,2.476.7,1.529,1.529,0,0,0,1.366-2.735,11.709,11.709,0,0,0-3.842-1.035v-.84a1.528,1.528,0,1,0-3.057,0v1.054a5.236,5.236,0,0,0-3.738,3.333A5.553,5.553,0,0,0,52.1,21.9H20.384ZM55.207,21.9a2.39,2.39,0,0,1,.084-1.476,2.321,2.321,0,0,1,.874-1.129v2.6ZM6.978,83.574a17.734,17.734,0,1,1,17.734,17.734A17.754,17.754,0,0,1,6.978,83.574Zm48.447,5.793v2.914A1.02,1.02,0,0,1,54.406,93.3H43.083a20.644,20.644,0,0,0,1.866-4.951h9.457A1.02,1.02,0,0,1,55.425,89.367Zm0,10.922a1.02,1.02,0,0,1-1.019,1.019H35.553A20.954,20.954,0,0,0,41.1,96.357H54.406a1.02,1.02,0,0,1,1.019,1.019Zm2.24-19.949a1.02,1.02,0,0,1,1.019,1.019v2.914a1.02,1.02,0,0,1-1.019,1.019H45.431c.047-.567.072-1.139.072-1.717a20.864,20.864,0,0,0-.252-3.234Zm-19.042-12.2h24.7a20.7,20.7,0,0,0-.454,3.057H41.4a20.975,20.975,0,0,0-2.782-3.057Zm48.5-15.906V38.585a1.528,1.528,0,0,0-1.528-1.528,7.525,7.525,0,0,1-7.516-7.516,1.528,1.528,0,0,0-1.528-1.528H16.74a1.528,1.528,0,0,0-1.528,1.528A7.525,7.525,0,0,1,7.7,37.057a1.528,1.528,0,0,0-1.528,1.528v6.433a1.528,1.528,0,0,0,3.057,0V40a10.6,10.6,0,0,0,8.935-8.935H75.132A10.6,10.6,0,0,0,84.066,40V51.937c-.153,0-.307-.006-.461-.006A20.825,20.825,0,0,0,64.27,65.08H34.2A20.777,20.777,0,0,0,17.92,63.924a10.6,10.6,0,0,0-8.7-7.779V51.13a1.528,1.528,0,1,0-3.057,0v6.433A1.528,1.528,0,0,0,7.7,59.092a7.526,7.526,0,0,1,7.373,6.068A20.938,20.938,0,0,0,8.02,71.193H3.663a.554.554,0,0,1-.553-.553V25.509a.554.554,0,0,1,.553-.553H89.627a.554.554,0,0,1,.553.553V53a20.607,20.607,0,0,0-3.057-.767Z" transform="translate(-0.053 0)"/>
      <path id="Trazado_102772" data-name="Trazado 102772" d="M198.708,194.831a7.681,7.681,0,0,0,3.917,1.448v1.061a1.528,1.528,0,0,0,3.057,0v-1.2a6.436,6.436,0,0,0,4.744-5.143,5.594,5.594,0,0,0-3.848-6.4c-.295-.1-.6-.212-.9-.324v-5.432a8.824,8.824,0,0,1,2.475.7,1.528,1.528,0,0,0,1.366-2.735,11.706,11.706,0,0,0-3.841-1.036v-.84a1.528,1.528,0,0,0-3.057,0v1.054q-.175.044-.351.1a5.321,5.321,0,0,0-3.649,4.172,4.719,4.719,0,0,0,1.557,4.648,11.836,11.836,0,0,0,2.442,1.422v6.89a4.893,4.893,0,0,1-2.244-.933,1.528,1.528,0,1,0-1.673,2.558Zm8.7-4.345a3.373,3.373,0,0,1-1.729,2.409v-5.376A2.592,2.592,0,0,1,207.411,190.485Zm-5.342-8a1.73,1.73,0,0,1-.439-1.677,2.424,2.424,0,0,1,1-1.561v3.62A6.035,6.035,0,0,1,202.069,182.487Z" transform="translate(-157.672 -138.056)"/>
      <path id="Trazado_102773" data-name="Trazado 102773" d="M306.68,231.451h4.234a1.528,1.528,0,1,0,0-3.057H306.68a1.528,1.528,0,0,0,0,3.057Z" transform="translate(-242.974 -181.848)"/>
      <path id="Trazado_102774" data-name="Trazado 102774" d="M117.947,231.451h4.234a1.528,1.528,0,0,0,0-3.057h-4.234a1.528,1.528,0,0,0,0,3.057Z" transform="translate(-92.704 -181.848)"/>
      <path id="Trazado_102775" data-name="Trazado 102775" d="M409.032,144.13a1.528,1.528,0,0,0-1.528,1.528v.408a1.528,1.528,0,0,0,3.057,0v-.408A1.528,1.528,0,0,0,409.032,144.13Z" transform="translate(-324.467 -114.757)"/>
      <path id="Trazado_102776" data-name="Trazado 102776" d="M409.032,314.122a1.528,1.528,0,0,0,1.529-1.528v-.408a1.528,1.528,0,0,0-3.057,0v.408A1.528,1.528,0,0,0,409.032,314.122Z" transform="translate(-324.467 -247.346)"/>
      <path id="Trazado_102777" data-name="Trazado 102777" d="M36.372,144.13a1.528,1.528,0,0,0-1.528,1.528v.408a1.528,1.528,0,0,0,3.057,0v-.408A1.528,1.528,0,0,0,36.372,144.13Z" transform="translate(-27.754 -114.757)"/>
      <path id="Trazado_102778" data-name="Trazado 102778" d="M36.372,314.122a1.528,1.528,0,0,0,1.528-1.528v-.408a1.528,1.528,0,1,0-3.057,0v.408A1.528,1.528,0,0,0,36.372,314.122Z" transform="translate(-27.754 -247.346)"/>
      <path id="Trazado_102779" data-name="Trazado 102779" d="M64.873,339.533a14.379,14.379,0,1,0,14.379,14.379A14.4,14.4,0,0,0,64.873,339.533Zm0,25.7A11.322,11.322,0,1,1,76.2,353.912,11.335,11.335,0,0,1,64.873,365.234Z" transform="translate(-40.214 -270.338)"/>
      <path id="Trazado_102780" data-name="Trazado 102780" d="M353.858,286.28a14.379,14.379,0,1,0,14.379,14.379A14.4,14.4,0,0,0,353.858,286.28Zm0,25.7a11.322,11.322,0,1,1,11.322-11.322A11.335,11.335,0,0,1,353.858,311.981Z" transform="translate(-270.305 -227.937)"/>
      <path id="Trazado_102781" data-name="Trazado 102781" d="M102.533,402.588H93.9a1.528,1.528,0,0,0,0,3.057h8.632a1.528,1.528,0,0,0,0-3.057Z" transform="translate(-73.559 -320.542)"/>
      <path id="Trazado_102782" data-name="Trazado 102782" d="M391.518,349.336h-8.632a1.528,1.528,0,0,0,0,3.057h8.632a1.528,1.528,0,0,0,0-3.057Z" transform="translate(-303.65 -278.143)"/>
    </g>
  </g>
</svg>
