<svg xmlns="http://www.w3.org/2000/svg" xmlns:xlink="http://www.w3.org/1999/xlink" width="532.208" height="810.524" viewBox="0 0 532.208 810.524">
  <defs>
    <linearGradient id="linear-gradient" x1="5.136" y1="-5.988" x2="5.953" y2="-5.257" gradientUnits="objectBoundingBox">
      <stop offset="0" stop-color="#fff"/>
      <stop offset="0.368" stop-color="#fbfbfb"/>
      <stop offset="0.695" stop-color="#f0f0f0"/>
      <stop offset="1" stop-color="#dfdfdf"/>
    </linearGradient>
    <linearGradient id="linear-gradient-2" x1="5.352" y1="-6.284" x2="6.225" y2="-5.613" gradientUnits="objectBoundingBox">
      <stop offset="0" stop-color="#dfdfdf"/>
      <stop offset="0.305" stop-color="#f0f0f0"/>
      <stop offset="0.632" stop-color="#fbfbfb"/>
      <stop offset="1" stop-color="#fff"/>
    </linearGradient>
    <clipPath id="clip-path">
      <rect id="Rectángulo_36668" data-name="Rectángulo 36668" width="88.345" height="105.531" fill="none"/>
    </clipPath>
  </defs>
  <g id="Grupo_120358" data-name="Grupo 120358" transform="translate(-180.285 -964.176)">
    <path id="Trazado_181097" data-name="Trazado 181097" d="M-2134.26,321.858l-13.1,7.266,12.84,7.713.112-6.476a395.915,395.915,0,0,1,219.738,73.779l-130.177,178.814-.676.963,1.009.6.876.7.033-.045a176.522,176.522,0,0,1,64.646,86.957l.007,1.319,211.393-68.526c13.339,41,20.1,82.391,20.1,123.039a397.708,397.708,0,0,1-19.424,121.642l-71.955-23.322-139.252-45.135-.332,1.02a176.551,176.551,0,0,1-64.923,88.416l-.881.629.637.875h0l44.241,60.776,85.765,117.82a394.2,394.2,0,0,1-222.6,74.941,5.648,5.648,0,0,0-5.605-4.538,5.649,5.649,0,0,0-5.577,5.718,5.648,5.648,0,0,0,5.717,5.577,5.65,5.65,0,0,0,5.481-4.61,396.34,396.34,0,0,0,224.713-75.981l.87-.631L-2041.214,871.7a178.754,178.754,0,0,0,64.5-87.849l210.194,68.129,1.021.331.331-1.021a400.044,400.044,0,0,0,19.858-123.325c0-41.191-6.9-83.129-20.52-124.654a1.237,1.237,0,0,0-.11-.3l-.42-.805L-1977.212,670.6a178.719,178.719,0,0,0-65.123-87.164l130.182-178.482.787-1.084-.874-.63a398.077,398.077,0,0,0-222.13-75.024Z" transform="translate(2457.801 642.318)" fill="#f57c00"/>
    <g id="Grupo_120195" data-name="Grupo 120195" transform="translate(0.285 43.178)">
      <circle id="Elipse_4950" data-name="Elipse 4950" cx="132.515" cy="132.515" r="132.515" transform="translate(180 1193.747)" fill="url(#linear-gradient)"/>
      <circle id="Elipse_4951" data-name="Elipse 4951" cx="126.077" cy="126.077" r="126.077" transform="translate(186.438 1200.185)" fill="url(#linear-gradient-2)"/>
    </g>
    <path id="Trazado_181407" data-name="Trazado 181407" d="M23.064,15.758H16.6v4.078h7.641V23H12.482V5.938H24.26V9.113H16.6v3.6h6.469Zm9.3,3.68a.912.912,0,0,0-.527-.809,8.021,8.021,0,0,0-2-.633,9.138,9.138,0,0,1-2.437-.861,4.083,4.083,0,0,1-1.465-1.295,3.092,3.092,0,0,1-.5-1.746,3.5,3.5,0,0,1,1.441-2.877,5.938,5.938,0,0,1,3.773-1.131,6.579,6.579,0,0,1,4.031,1.137A3.555,3.555,0,0,1,36.2,14.211H32.24q0-1.523-1.605-1.523a1.591,1.591,0,0,0-1.043.346,1.07,1.07,0,0,0-.422.861.982.982,0,0,0,.516.855,4.872,4.872,0,0,0,1.646.539,14.228,14.228,0,0,1,1.986.5q2.859.984,2.859,3.527a3.321,3.321,0,0,1-1.541,2.824,6.758,6.758,0,0,1-3.99,1.09,6.9,6.9,0,0,1-2.906-.586,4.86,4.86,0,0,1-1.992-1.594,3.609,3.609,0,0,1-.715-2.121h3.691a1.526,1.526,0,0,0,.586,1.283,2.41,2.41,0,0,0,1.441.4,1.9,1.9,0,0,0,1.213-.328A1.05,1.05,0,0,0,32.369,19.438ZM42.623,7.168V10.32h2.086v2.742H42.623v5.8a1.481,1.481,0,0,0,.258,1,1.383,1.383,0,0,0,1.02.281,5.793,5.793,0,0,0,.984-.07v2.824a7.288,7.288,0,0,1-2.227.34,4.137,4.137,0,0,1-3.012-.961,3.939,3.939,0,0,1-.973-2.918V13.063H37.057V10.32h1.617V7.168ZM53.814,21.629a4.072,4.072,0,0,1-3.387,1.605,3.993,3.993,0,0,1-3.158-1.213A5.1,5.1,0,0,1,46.2,18.535V10.32h3.949v8.238a1.419,1.419,0,0,0,1.582,1.629,2.064,2.064,0,0,0,1.934-.973V10.32h3.973V23h-3.7ZM59.3,16.566a7.746,7.746,0,0,1,1.3-4.746,4.282,4.282,0,0,1,3.633-1.734,3.641,3.641,0,0,1,2.859,1.336V5h3.961V23H67.5l-.2-1.359a3.739,3.739,0,0,1-3.094,1.594A4.274,4.274,0,0,1,60.623,21.5,7.991,7.991,0,0,1,59.3,16.566Zm3.949.246q0,3.375,1.969,3.375a1.944,1.944,0,0,0,1.875-1.1V14.258a1.892,1.892,0,0,0-1.852-1.125q-1.828,0-1.98,2.953ZM77.463,23H73.5V10.32h3.961Zm-4.2-15.961a1.778,1.778,0,0,1,.609-1.391,2.579,2.579,0,0,1,3.164,0,1.778,1.778,0,0,1,.609,1.391,1.778,1.778,0,0,1-.609,1.391,2.579,2.579,0,0,1-3.164,0A1.778,1.778,0,0,1,73.268,7.039Zm6.129,9.5a7.484,7.484,0,0,1,.738-3.381,5.28,5.28,0,0,1,2.121-2.279,6.388,6.388,0,0,1,3.246-.8A5.83,5.83,0,0,1,89.99,11.85a6.768,6.768,0,0,1,1.641,4.8v.141a6.566,6.566,0,0,1-1.646,4.705,5.846,5.846,0,0,1-4.459,1.74,5.912,5.912,0,0,1-4.348-1.623,6.348,6.348,0,0,1-1.77-4.4Zm3.949.246a4.718,4.718,0,0,0,.551,2.578,1.835,1.835,0,0,0,1.629.82q2.109,0,2.156-3.246v-.4q0-3.41-2.18-3.41-1.98,0-2.145,2.941Zm15.5-.223a7.746,7.746,0,0,1,1.3-4.746,4.282,4.282,0,0,1,3.633-1.734,3.641,3.641,0,0,1,2.859,1.336V5H110.6V23h-3.551l-.2-1.359a3.739,3.739,0,0,1-3.094,1.594,4.274,4.274,0,0,1-3.586-1.734A7.991,7.991,0,0,1,98.85,16.566Zm3.949.246q0,3.375,1.969,3.375a1.944,1.944,0,0,0,1.875-1.1V14.258a1.892,1.892,0,0,0-1.852-1.125q-1.828,0-1.98,2.953Zm16.184,6.422a6.518,6.518,0,0,1-4.723-1.74,6.009,6.009,0,0,1-1.8-4.529v-.328a7.787,7.787,0,0,1,.721-3.434,5.274,5.274,0,0,1,2.1-2.3,6.35,6.35,0,0,1,3.281-.814,5.489,5.489,0,0,1,4.219,1.658,6.516,6.516,0,0,1,1.547,4.623V17.9h-7.852a2.846,2.846,0,0,0,.926,1.676,2.755,2.755,0,0,0,1.852.609,3.549,3.549,0,0,0,2.93-1.312l1.8,2.133a5.045,5.045,0,0,1-2.092,1.623A7.069,7.069,0,0,1,118.982,23.234Zm-.445-10.1q-1.734,0-2.062,2.3h3.984v-.3a1.956,1.956,0,0,0-.48-1.471A1.912,1.912,0,0,0,118.537,13.133ZM19.3,35.32l.129,1.488a4.36,4.36,0,0,1,3.621-1.723A3.21,3.21,0,0,1,26.293,37a4.22,4.22,0,0,1,3.727-1.91q3.855,0,3.961,4.664V48H30.02V40a2.417,2.417,0,0,0-.328-1.418,1.4,1.4,0,0,0-1.2-.445,1.871,1.871,0,0,0-1.746,1.043l.012.164V48H22.8V40.02a2.541,2.541,0,0,0-.316-1.441,1.393,1.393,0,0,0-1.207-.445,1.894,1.894,0,0,0-1.734,1.043V48H15.594V35.32ZM42.371,48.234a6.518,6.518,0,0,1-4.723-1.74,6.009,6.009,0,0,1-1.8-4.529v-.328a7.787,7.787,0,0,1,.721-3.434,5.274,5.274,0,0,1,2.1-2.3,6.35,6.35,0,0,1,3.281-.814,5.489,5.489,0,0,1,4.219,1.658,6.516,6.516,0,0,1,1.547,4.623V42.9H39.863a2.846,2.846,0,0,0,.926,1.676,2.755,2.755,0,0,0,1.852.609,3.549,3.549,0,0,0,2.93-1.312l1.8,2.133a5.045,5.045,0,0,1-2.092,1.623A7.069,7.069,0,0,1,42.371,48.234Zm-.445-10.1q-1.734,0-2.062,2.3h3.984v-.3a1.956,1.956,0,0,0-.48-1.471A1.912,1.912,0,0,0,41.926,38.133Zm15.047.762-1.3-.094a2.336,2.336,0,0,0-2.391,1.172V48H49.332V35.32h3.7l.129,1.629a3.058,3.058,0,0,1,2.777-1.863,3.851,3.851,0,0,1,1.1.141Zm6.563,6.293a1.756,1.756,0,0,0,1.289-.451,1.654,1.654,0,0,0,.445-1.26h3.7A4.384,4.384,0,0,1,67.479,46.9a5.558,5.558,0,0,1-3.85,1.336A5.627,5.627,0,0,1,59.27,46.5a6.834,6.834,0,0,1-1.594-4.8v-.164a7.723,7.723,0,0,1,.709-3.393,5.162,5.162,0,0,1,2.045-2.262,6.1,6.1,0,0,1,3.164-.791,5.488,5.488,0,0,1,3.926,1.371,4.863,4.863,0,0,1,1.453,3.715h-3.7a2.168,2.168,0,0,0-.48-1.512,1.658,1.658,0,0,0-1.289-.527q-1.535,0-1.793,1.957a13.809,13.809,0,0,0-.082,1.711,5.424,5.424,0,0,0,.457,2.648A1.582,1.582,0,0,0,63.535,45.188ZM77.785,48a4.459,4.459,0,0,1-.375-1.137,3.672,3.672,0,0,1-3.047,1.371,4.5,4.5,0,0,1-3.047-1.084,3.45,3.45,0,0,1-1.254-2.725,3.546,3.546,0,0,1,1.523-3.117,7.761,7.761,0,0,1,4.43-1.055h1.219v-.671q0-1.755-1.512-1.755a1.236,1.236,0,0,0-1.406,1.39H70.367a3.54,3.54,0,0,1,1.564-2.985,6.575,6.575,0,0,1,3.99-1.147,5.764,5.764,0,0,1,3.832,1.184A4.115,4.115,0,0,1,81.2,39.516v5.613a5.748,5.748,0,0,0,.539,2.672V48Zm-2.473-2.578a2.2,2.2,0,0,0,1.225-.316,1.983,1.983,0,0,0,.7-.715V42.363H76.086q-2.062,0-2.062,1.852a1.131,1.131,0,0,0,.363.873A1.315,1.315,0,0,0,75.313,45.422Zm7.57-3.855a7.746,7.746,0,0,1,1.3-4.746,4.282,4.282,0,0,1,3.633-1.734,3.641,3.641,0,0,1,2.859,1.336V30h3.961V48H91.086l-.2-1.359a3.739,3.739,0,0,1-3.094,1.594A4.274,4.274,0,0,1,84.207,46.5,7.991,7.991,0,0,1,82.883,41.566Zm3.949.246q0,3.375,1.969,3.375a1.944,1.944,0,0,0,1.875-1.1V39.258a1.892,1.892,0,0,0-1.852-1.125q-1.828,0-1.98,2.953Zm9.551-.27a7.484,7.484,0,0,1,.738-3.381,5.28,5.28,0,0,1,2.121-2.279,6.388,6.388,0,0,1,3.246-.8,5.83,5.83,0,0,1,4.488,1.764,6.768,6.768,0,0,1,1.641,4.8v.141a6.566,6.566,0,0,1-1.646,4.705,5.846,5.846,0,0,1-4.459,1.74,5.912,5.912,0,0,1-4.348-1.623,6.348,6.348,0,0,1-1.77-4.4Zm3.949.246a4.718,4.718,0,0,0,.551,2.578,1.835,1.835,0,0,0,1.629.82q2.109,0,2.156-3.246v-.4q0-3.41-2.18-3.41-1.98,0-2.145,2.941ZM117,44.438a.912.912,0,0,0-.527-.809,8.021,8.021,0,0,0-2-.633,9.138,9.138,0,0,1-2.437-.861,4.083,4.083,0,0,1-1.465-1.295,3.092,3.092,0,0,1-.5-1.746,3.5,3.5,0,0,1,1.441-2.877,5.938,5.938,0,0,1,3.773-1.131,6.579,6.579,0,0,1,4.031,1.137,3.555,3.555,0,0,1,1.523,2.988h-3.961q0-1.523-1.605-1.523a1.591,1.591,0,0,0-1.043.346,1.07,1.07,0,0,0-.422.861.982.982,0,0,0,.516.855,4.872,4.872,0,0,0,1.646.539,14.228,14.228,0,0,1,1.986.5q2.859.984,2.859,3.527a3.321,3.321,0,0,1-1.541,2.824,6.758,6.758,0,0,1-3.99,1.09,6.9,6.9,0,0,1-2.906-.586,4.86,4.86,0,0,1-1.992-1.594,3.609,3.609,0,0,1-.715-2.121h3.691a1.526,1.526,0,0,0,.586,1.283,2.41,2.41,0,0,0,1.441.4,1.9,1.9,0,0,0,1.213-.328A1.05,1.05,0,0,0,117,44.438Z" transform="translate(245.285 1400.48)" fill="#12263f"/>
    <g id="Grupo_120214" data-name="Grupo 120214" transform="translate(273 1277.523)">
      <g id="Grupo_120213" data-name="Grupo 120213" clip-path="url(#clip-path)">
        <path id="Trazado_181209" data-name="Trazado 181209" d="M73.7,74.909a1.7,1.7,0,0,1,1.452,1.909q-.023,12.444-.006,24.887c0,2.029-1.139,3.16-2.907,3.826H2.708C.549,104.552-.006,102.822,0,100.545Q.083,68.823.033,37.1q0-11.123,0-22.246c0-2.672,1.458-4.116,4.138-4.127,1.3-.006,2.61-.075,3.9.023,1.02.077,1.319-.2,1.276-1.256-.088-2.14.962-3.127,3.106-3.129,4.66,0,9.321-.034,13.98.024,1.042.013,1.443-.211,1.339-1.32a4.493,4.493,0,0,1,2.1-4.4c.388-.26.9-.292,1.219-.67H43.852a5.5,5.5,0,0,1,3,2.271,5.451,5.451,0,0,1,.575,3.086c-.054.8.176,1.036,1,1.029,4.761-.043,9.523-.023,14.285-.02,2.151,0,3.193.982,3.113,3.116-.039,1.019.2,1.352,1.257,1.273,1.431-.107,2.876-.051,4.314-.02a3.613,3.613,0,0,1,3.738,3.784c.017,10.331,0,20.662.017,30.993a1.726,1.726,0,0,1-1.47,1.913c-1.327-.34-1.625-.729-1.626-2.189q-.006-8.86,0-17.72c0-4.189-.017-8.379.014-12.568.006-.86-.306-1.165-1.144-1.136-1.232.044-2.467.011-3.7.011-1.369,0-1.369,0-1.372,1.324-.005,2.086-.839,3.023-2.875,3.231-.41-.013-.821-.036-1.231-.036q-24.423,0-48.847,0c-.308,0-.617.009-.925,0a2.65,2.65,0,0,1-2.645-2.6,7.746,7.746,0,0,1,0-1.235c.053-.544-.146-.706-.687-.69-1.3.038-2.6.012-3.907.012-1.616,0-1.617,0-1.617,1.573q0,42.758,0,85.517c0,1.527,0,1.527,1.554,1.527q28.588,0,57.176,0c.376,0,.752-.022,1.129-.034q3.852.018,7.7.034c1.363,0,1.374-.01,1.375-1.385q0-11.993,0-23.986c0-1.448.325-1.859,1.643-2.157M37.564,15.245v-.014c8.057,0,16.114-.01,24.17.016.77,0,1.1-.14,1.039-1a29.535,29.535,0,0,1,0-3.707c.051-.85-.195-1.092-1.061-1.085-5.039.037-10.079.012-15.119,0-1.717,0-2.26-.55-2.278-2.287-.009-.859,0-1.718-.011-2.576a1.352,1.352,0,0,0-1.48-1.48Q37.578,3.08,32.332,3.1A1.359,1.359,0,0,0,30.859,4.6c-.015.824-.006,1.649-.008,2.473-.005,1.9-.482,2.389-2.361,2.39-5.04,0-10.08.017-15.119-.017-.761-.005-1.023.177-.978.966a27.953,27.953,0,0,1,0,3.6c-.07.969.181,1.265,1.21,1.258,7.988-.049,15.976-.027,23.965-.027" transform="translate(0)" fill="#030202"/>
        <path id="Trazado_181210" data-name="Trazado 181210" d="M263.055,205.527q2.3-3.825,4.605-7.65c1.338-2.224,3.039-2.661,5.266-1.346.854.5,1.7,1.02,2.553,1.53,2.347,1.406,2.782,3.077,1.4,5.413q-6.37,10.733-12.743,21.465c-.47.792-.9,1.608-1.351,2.413-.525.832-1.07,1.652-1.57,2.5q-4.565,7.714-9.114,15.438a22.579,22.579,0,0,1-4.859,5.651c-1.28,1.189-2.523,2.419-3.786,3.627a7.283,7.283,0,0,1-.7.6,2.49,2.49,0,0,1-2.965.229,2.517,2.517,0,0,1-1.257-2.709c.085-.572.287-1.125.4-1.694a46.152,46.152,0,0,1,6.885-16.435c2.358-3.556,4.366-7.346,6.53-11.032.7-1.136,1.408-2.262,2.087-3.408q4.317-7.291,8.618-14.592M242.04,251.394l.413.329c.8-.931,1.642-1.833,2.4-2.8.463-.595,1.685-.9,1.32-1.746-.3-.692-1.329-.992-2.1-1.361-.438-.209-.52,0-.614.353-.461,1.745-.939,3.485-1.411,5.227m28.915-44.139a1.626,1.626,0,0,0-.281-.249c-1.054-.637-2.107-1.276-3.173-1.892-.763-.44-.727.388-.929.692-.18.271-.823.639-.111,1.058.884.521,1.766,1.046,2.649,1.568a1.26,1.26,0,0,0,1.845-1.178" transform="translate(-189.317 -155.42)" fill="#030202"/>
        <path id="Trazado_181211" data-name="Trazado 181211" d="M316.185,103.263q-4.307,7.3-8.618,14.592c-.679,1.146-1.39,2.273-2.087,3.408-.017-.48-.049-.959-.049-1.439q0-24.146,0-48.292c2.036-.208,2.87-1.146,2.875-3.231,0-1.324,0-1.324,1.372-1.324,1.234,0,2.469.032,3.7-.011.838-.03,1.15.276,1.144,1.136-.031,4.189-.014,8.379-.014,12.568q0,8.86,0,17.72c0,1.46.3,1.849,1.626,2.189l.053,2.685" transform="translate(-242.447 -53.155)" fill="#fff3bf"/>
        <path id="Trazado_181212" data-name="Trazado 181212" d="M304.462,366.774q4.555-7.72,9.113-15.438c.5-.846,1.046-1.666,1.57-2.5.46.962.072,1.992.238,2.977-1.319.3-1.643.71-1.643,2.157q-.005,11.993,0,23.986c0,1.375-.011,1.389-1.375,1.385q-3.852-.011-7.7-.034,0-5.736,0-11.472c0-.358.138-.759-.2-1.063" transform="translate(-241.681 -276.907)" fill="#fff3bf"/>
        <path id="Trazado_181213" data-name="Trazado 181213" d="M74.792,143.023c.333.3.194.705.2,1.064q.013,5.736,0,11.472c-.376.012-.752.034-1.129.034q-28.588,0-57.176,0c-1.554,0-1.555,0-1.555-1.528V68.551c0-1.573,0-1.573,1.617-1.573,1.3,0,2.606.026,3.907-.012.541-.016.741.146.687.69a7.77,7.77,0,0,0,0,1.235,2.65,2.65,0,0,0,2.645,2.6c.308.012.617,0,.925,0q24.424,0,48.847,0c.41,0,.821.024,1.231.036q0,24.146,0,48.292c0,.48.032.959.049,1.439-2.164,3.686-4.171,7.476-6.53,11.032A46.155,46.155,0,0,0,61.63,148.73c-.116.568-.318,1.122-.4,1.694a2.517,2.517,0,0,0,1.257,2.709,2.489,2.489,0,0,0,2.965-.228,7.309,7.309,0,0,0,.7-.6c1.263-1.208,2.506-2.438,3.786-3.627a22.576,22.576,0,0,0,4.859-5.651m-.616-45.2H74.15c0-5.392.011-10.784-.006-16.176a3.253,3.253,0,0,0-2.477-3.358c-2.334-.554-4.294.029-5.129,1.553a2.238,2.238,0,0,0-.365,1.05c.027.744-.371.96-.982,1.175Q54.555,85.806,43.936,89.6a4.638,4.638,0,0,1-1.6.266c-2.879-.013-5.759,0-8.638,0a3.832,3.832,0,0,0-3.522,1.518A2.247,2.247,0,0,1,27.9,92.461a3.261,3.261,0,0,0-3.5,3.561c-.014,1.408-.029,2.817.01,4.224a3.307,3.307,0,0,0,3.3,3.373,6.378,6.378,0,0,0,1.028,0,1.057,1.057,0,0,1,1.155.6,3.231,3.231,0,0,0,2.462,1.68c.824.081.876.463.882,1.126.027,3.09.038,6.183.178,9.269a4.393,4.393,0,0,0,3.752,4.166,10.393,10.393,0,0,0,3.482-.023,2.754,2.754,0,0,0,2.263-2.875,4.324,4.324,0,0,0-1.117-2.7,1.187,1.187,0,0,1-.141-1.591,4.428,4.428,0,0,0-.108-6.005.949.949,0,0,1-.228-1.048c.167-.323.555-.176.85-.188a3.746,3.746,0,0,1,1.423.14L65.547,113.9c.246.087.488.109.623.442,1.061,2.622,1.537,2.931,4.318,2.916,2.4-.013,3.684-1.282,3.687-3.676q.008-7.882,0-15.764M41.159,136.933q8.836,0,17.672,0a7.228,7.228,0,0,0,1.125-.065A1.492,1.492,0,0,0,60,133.928a6.309,6.309,0,0,0-1.224-.089q-17.62-.006-35.241,0a7.066,7.066,0,0,0-1.123.068,1.5,1.5,0,0,0,.051,2.979,9.87,9.87,0,0,0,1.126.046q8.785,0,17.569,0m-1.11,3.973c-2.125,0-4.249-.013-6.373.005-1.135.01-1.825.6-1.838,1.5a1.605,1.605,0,0,0,1.795,1.574q6.322.037,12.643,0c1.165-.006,1.8-.594,1.808-1.533.013-.991-.624-1.538-1.868-1.547-2.056-.016-4.111,0-6.167,0m-15.593.023c-.649,0-1.3-.036-1.946.009a1.391,1.391,0,0,0-1.4,1.369,1.334,1.334,0,0,0,1.146,1.571,13.459,13.459,0,0,0,4.277,0,1.328,1.328,0,0,0,1.147-1.568A1.375,1.375,0,0,0,26.3,140.94c-.611-.047-1.229-.009-1.843-.011" transform="translate(-12.011 -53.156)" fill="#fff3bf"/>
        <path id="Trazado_181214" data-name="Trazado 181214" d="M85.217,27.151c-7.988,0-15.977-.022-23.965.027-1.029.006-1.28-.29-1.21-1.258a27.953,27.953,0,0,0,0-3.6c-.045-.789.217-.971.978-.966,5.04.034,10.08.019,15.119.017,1.879,0,2.355-.486,2.361-2.39,0-.824-.006-1.649.008-2.473a1.359,1.359,0,0,1,1.474-1.492q5.245-.03,10.491.012a1.352,1.352,0,0,1,1.48,1.48c.015.858,0,1.717.011,2.576.018,1.737.561,2.285,2.278,2.287,5.04.008,10.08.034,15.119,0,.866-.006,1.112.235,1.061,1.085a29.536,29.536,0,0,0,0,3.707c.056.858-.269,1-1.039,1-8.057-.026-16.113-.016-24.17-.016v.014" transform="translate(-47.653 -11.906)" fill="#f57c00"/>
        <path id="Trazado_181215" data-name="Trazado 181215" d="M255.684,443.634c.472-1.742.949-3.482,1.411-5.227.094-.354.176-.562.614-.353.775.369,1.806.669,2.1,1.361.365.85-.857,1.151-1.32,1.746-.753.969-1.592,1.872-2.4,2.8l-.413-.329" transform="translate(-202.961 -347.659)" fill="#f2b153"/>
        <path id="Trazado_181216" data-name="Trazado 181216" d="M377.346,242.654a1.26,1.26,0,0,1-1.845,1.178c-.884-.522-1.765-1.048-2.649-1.568-.712-.419-.069-.788.111-1.058.2-.3.167-1.131.929-.692,1.066.615,2.119,1.255,3.173,1.891a1.627,1.627,0,0,1,.281.249" transform="translate(-295.708 -190.819)" fill="#f2b153"/>
        <path id="Trazado_181217" data-name="Trazado 181217" d="M109.821,140.606q0,7.882,0,15.764c0,2.393-1.285,3.663-3.687,3.676-2.781.015-3.257-.294-4.318-2.916-.135-.333-.377-.355-.623-.442l-21.949-7.729a3.746,3.746,0,0,0-1.423-.14c-.295.012-.682-.135-.849.188a.948.948,0,0,0,.228,1.048,4.428,4.428,0,0,1,.108,6.005,1.187,1.187,0,0,0,.141,1.591,4.323,4.323,0,0,1,1.117,2.7,2.754,2.754,0,0,1-2.263,2.875,10.4,10.4,0,0,1-3.482.023,4.393,4.393,0,0,1-3.752-4.165c-.14-3.086-.151-6.178-.178-9.269-.006-.664-.058-1.046-.882-1.127a3.231,3.231,0,0,1-2.462-1.68,1.057,1.057,0,0,0-1.155-.6,6.4,6.4,0,0,1-1.028,0,3.307,3.307,0,0,1-3.3-3.373c-.038-1.407-.024-2.816-.01-4.224a3.261,3.261,0,0,1,3.5-3.561,2.246,2.246,0,0,0,2.269-1.075,3.832,3.832,0,0,1,3.522-1.518c2.879,0,5.759-.014,8.638,0a4.632,4.632,0,0,0,1.6-.266q10.624-3.78,21.255-7.538c.61-.215,1.008-.432.982-1.176a2.238,2.238,0,0,1,.365-1.049c.835-1.524,2.795-2.107,5.129-1.553a3.252,3.252,0,0,1,2.477,3.358c.016,5.392.006,10.784.006,16.176Zm-8.038.087h-.016q0-6.023,0-12.047c0-.439.138-.926-.669-.637q-9.989,3.575-20,7.093c-.343.121-.551.236-.545.7q.067,4.838.038,9.677a.839.839,0,0,0,.68.936q9.828,3.421,19.639,6.89c.824.293.888.041.884-.674-.024-3.981-.012-7.962-.012-11.943m-24.278.076H77.5c0-1.4-.025-2.81.012-4.214.015-.592-.1-.844-.774-.832-2.5.044-4.993.035-7.489.016a1.134,1.134,0,0,0-1.314,1.306c.006,2.467.016,4.934.009,7.4,0,.91.429,1.3,1.323,1.292,2.5-.019,4.993-.028,7.489-.008.565,0,.781-.146.763-.747-.041-1.4-.013-2.809-.013-4.214m29.227-.195h-.023c0-5.181-.014-10.363.015-15.544,0-.739-.158-1.024-.958-1.026-.824,0-.941.335-.939,1.048q.043,15.492.024,30.985c0,.836.316.922,1.019.942.777.022.877-.3.874-.963-.024-5.147-.013-10.294-.013-15.441" transform="translate(-47.656 -95.943)" fill="#030202"/>
        <path id="Trazado_181218" data-name="Trazado 181218" d="M64.162,394.361q-8.785,0-17.569,0a9.863,9.863,0,0,1-1.127-.046,1.5,1.5,0,0,1-.051-2.979,7.041,7.041,0,0,1,1.124-.068q17.62,0,35.241,0a6.3,6.3,0,0,1,1.224.089,1.492,1.492,0,0,1-.045,2.937,7.223,7.223,0,0,1-1.124.065q-8.836.006-17.672,0" transform="translate(-35.014 -310.584)" fill="#030202"/>
        <path id="Trazado_181219" data-name="Trazado 181219" d="M104.365,425.536c2.056,0,4.112-.011,6.168,0,1.244.009,1.881.557,1.868,1.547-.012.939-.644,1.527-1.808,1.533q-6.322.033-12.643,0a1.6,1.6,0,0,1-1.795-1.574c.013-.9.7-1.495,1.837-1.5,2.124-.018,4.249-.005,6.373-.005" transform="translate(-76.327 -337.786)" fill="#030202"/>
        <path id="Trazado_181220" data-name="Trazado 181220" d="M47.452,425.613c.615,0,1.232-.037,1.843.01A1.375,1.375,0,0,1,50.679,427a1.328,1.328,0,0,1-1.147,1.568,13.458,13.458,0,0,1-4.277,0,1.335,1.335,0,0,1-1.147-1.571,1.391,1.391,0,0,1,1.4-1.369c.646-.045,1.3-.009,1.946-.008" transform="translate(-35.007 -337.839)" fill="#030202"/>
        <path id="Trazado_181221" data-name="Trazado 181221" d="M180.767,167.858c0,3.981-.013,7.963.012,11.943,0,.715-.06.968-.884.674q-9.8-3.49-19.639-6.89a.839.839,0,0,1-.68-.936q.028-4.838-.038-9.677c-.007-.469.2-.583.544-.7q10-3.536,20-7.093c.807-.289.669.2.669.637q0,6.023,0,12.047Z" transform="translate(-126.64 -123.108)" fill="#26ccda"/>
        <path id="Trazado_181222" data-name="Trazado 181222" d="M107.908,197.962c0,1.4-.028,2.81.013,4.214.018.6-.2.751-.763.747-2.5-.02-4.993-.011-7.489.008-.894.007-1.326-.382-1.323-1.292.008-2.467,0-4.934-.009-7.4a1.135,1.135,0,0,1,1.314-1.306c2.5.019,4.993.028,7.489-.016.675-.012.789.24.774.832-.036,1.4-.012,2.809-.012,4.214Z" transform="translate(-78.06 -153.136)" fill="#ffa726"/>
        <path id="Trazado_181223" data-name="Trazado 181223" d="M279.161,152.653c0,5.147-.01,10.294.013,15.441,0,.667-.1.985-.874.963-.7-.02-1.021-.106-1.019-.942q.03-15.492-.024-30.985c0-.713.115-1.05.939-1.048.8,0,.962.288.958,1.026-.029,5.181-.015,10.363-.015,15.544Z" transform="translate(-220.086 -108.022)" fill="#ffa726"/>
      </g>
    </g>
  </g>
</svg>
