<svg xmlns="http://www.w3.org/2000/svg" width="84.37" height="113.089" viewBox="0 0 84.37 113.089">
  <g id="Layer_2" data-name="Layer 2" transform="translate(-16.25 0.008)">
    <path id="Trazado_102733" data-name="Trazado 102733" d="M91.579,33.52A31.772,31.772,0,1,0,44.413,61.305c4.506,16.53,15.4,33.936,15.4,33.936S70.7,77.837,75.2,61.305A31.752,31.752,0,0,0,91.579,33.52Z" transform="translate(-1.373 -0.203)" fill="#26ccda"/>
    <path id="Trazado_102734" data-name="Trazado 102734" d="M64.741,95.176c-3.327,6.518-6.1,10.955-6.1,10.955s-2.775-4.438-6.1-10.955C32.988,96.176,18,101.905,18,108.824c0,7.623,18.2,13.8,40.639,13.8s40.639-6.184,40.639-13.8C99.278,101.905,84.29,96.176,64.741,95.176Z" transform="translate(-0.204 -11.094)" fill="#fdd835"/>
    <path id="Trazado_102735" data-name="Trazado 102735" d="M62.227,49.381a13.441,13.441,0,1,1,13.44-13.44,13.441,13.441,0,0,1-13.44,13.44Z" transform="translate(-3.792 -2.623)" fill="#fdd835"/>
    <g id="Grupo_55831" data-name="Grupo 55831" transform="translate(16.25 -0.008)">
      <path id="Trazado_102736" data-name="Trazado 102736" d="M63.568,49.177a1.545,1.545,0,0,0-1.545-1.546A11.895,11.895,0,1,1,73.917,35.737a1.546,1.546,0,1,0,3.092,0A14.986,14.986,0,1,0,62.023,50.723a1.545,1.545,0,0,0,1.545-1.546Z" transform="translate(-19.838 -2.411)" fill="#231f20"/>
      <path id="Trazado_102737" data-name="Trazado 102737" d="M76.465,45.542a1.544,1.544,0,0,0-2.167.283,12.064,12.064,0,0,1-2.278,2.258,1.546,1.546,0,1,0,1.865,2.466,15.074,15.074,0,0,0,2.862-2.84,1.544,1.544,0,0,0-.282-2.167Z" transform="translate(-22.678 -5.263)" fill="#231f20"/>
      <path id="Trazado_102738" data-name="Trazado 102738" d="M66.979,82.69a124.079,124.079,0,0,0,8.17-20.557,33.318,33.318,0,1,0-33.428,0A124.045,124.045,0,0,0,49.894,82.7a100.6,100.6,0,0,0-11.8,1.508,1.546,1.546,0,1,0,.587,3.036,98.609,98.609,0,0,1,12.727-1.558c3.029,5.851,5.507,9.836,5.719,10.176a1.545,1.545,0,0,0,2.62,0c.213-.339,2.689-4.324,5.719-10.176C85.3,86.874,97.528,92.808,97.528,97.734c0,5.8-16.055,12.258-39.093,12.258s-39.093-6.46-39.093-12.258c0-2.943,4.185-6.088,11.2-8.411a1.546,1.546,0,1,0-.972-2.935C20.976,89.228,16.25,93.26,16.25,97.731c0,9.97,21.735,15.35,42.185,15.35s42.185-5.38,42.185-15.35c0-8.758-17.006-13.83-33.641-15.041ZM43.791,59.75a30.226,30.226,0,1,1,29.288,0,1.548,1.548,0,0,0-.741.945c-3.471,12.733-10.891,26.171-13.9,31.331C55.423,86.869,48,73.438,44.532,60.692a1.548,1.548,0,0,0-.741-.942Z" transform="translate(-16.25 0.008)" fill="#231f20"/>
    </g>
  </g>
</svg>
